<?xml version="1.0" encoding="utf-8" standalone="no"?>
<!DOCTYPE svg PUBLIC "-//W3C//DTD SVG 1.1//EN"
  "http://www.w3.org/Graphics/SVG/1.1/DTD/svg11.dtd">
<svg xmlns:xlink="http://www.w3.org/1999/xlink" width="576pt" height="432pt" viewBox="0 0 576 432" xmlns="http://www.w3.org/2000/svg" version="1.1">
 <metadata>
  <rdf:RDF xmlns:dc="http://purl.org/dc/elements/1.1/" xmlns:cc="http://creativecommons.org/ns#" xmlns:rdf="http://www.w3.org/1999/02/22-rdf-syntax-ns#">
   <cc:Work>
    <dc:type rdf:resource="http://purl.org/dc/dcmitype/StillImage"/>
    <dc:date>2025-05-25T19:30:26.286816</dc:date>
    <dc:format>image/svg+xml</dc:format>
    <dc:creator>
     <cc:Agent>
      <dc:title>Matplotlib v3.7.5, https://matplotlib.org/</dc:title>
     </cc:Agent>
    </dc:creator>
   </cc:Work>
  </rdf:RDF>
 </metadata>
 <defs>
  <style type="text/css">*{stroke-linejoin: round; stroke-linecap: butt}</style>
 </defs>
 <g id="figure_1">
  <g id="patch_1">
   <path d="M 0 432 
L 576 432 
L 576 0 
L 0 0 
z
" style="fill: #ffffff"/>
  </g>
  <g id="axes_1">
   <g id="patch_2">
    <path d="M 72 384.48 
L 518.4 384.48 
L 518.4 51.84 
L 72 51.84 
z
" style="fill: #ffffff"/>
   </g>
   <g id="PolyCollection_1">
    <defs>
     <path id="m12b3a744d3" d="M 295.201095 -62.64 
L 295.198905 -62.64 
L 295.19423 -65.694545 
L 295.192398 -68.749091 
L 295.197494 -71.803636 
L 295.199793 -74.858182 
L 295.199996 -77.912727 
L 295.2 -80.967273 
L 295.2 -84.021818 
L 295.2 -87.076364 
L 295.2 -90.130909 
L 295.2 -93.185455 
L 295.2 -96.24 
L 295.2 -99.294545 
L 295.2 -102.349091 
L 295.2 -105.403636 
L 295.199996 -108.458182 
L 295.199765 -111.512727 
L 295.196379 -114.567273 
L 295.185802 -117.621818 
L 295.183482 -120.676364 
L 295.188835 -123.730909 
L 295.194503 -126.785455 
L 295.195929 -129.84 
L 295.190666 -132.894545 
L 295.185621 -135.949091 
L 295.179566 -139.003636 
L 295.178536 -142.058182 
L 295.180557 -145.112727 
L 295.178282 -148.167273 
L 295.163044 -151.221818 
L 295.147423 -154.276364 
L 295.133258 -157.330909 
L 295.143379 -160.385455 
L 295.158994 -163.44 
L 295.145442 -166.494545 
L 295.149832 -169.549091 
L 295.163541 -172.603636 
L 295.130548 -175.658182 
L 295.079846 -178.712727 
L 294.976155 -181.767273 
L 294.84345 -184.821818 
L 294.925696 -187.876364 
L 294.992549 -190.930909 
L 294.899245 -193.985455 
L 294.87431 -197.04 
L 294.915666 -200.094545 
L 294.939129 -203.149091 
L 294.910532 -206.203636 
L 294.758958 -209.258182 
L 294.566953 -212.312727 
L 294.526865 -215.367273 
L 294.448908 -218.421818 
L 294.240763 -221.476364 
L 294.155042 -224.530909 
L 294.059796 -227.585455 
L 293.883826 -230.64 
L 293.595018 -233.694545 
L 293.065437 -236.749091 
L 292.819861 -239.803636 
L 292.744185 -242.858182 
L 292.224132 -245.912727 
L 292.07806 -248.967273 
L 292.234309 -252.021818 
L 291.590751 -255.076364 
L 290.55129 -258.130909 
L 289.579712 -261.185455 
L 288.40633 -264.24 
L 287.471515 -267.294545 
L 287.052956 -270.349091 
L 286.726891 -273.403636 
L 286.140394 -276.458182 
L 284.521004 -279.512727 
L 282.731224 -282.567273 
L 281.135048 -285.621818 
L 278.911962 -288.676364 
L 276.88094 -291.730909 
L 274.930662 -294.785455 
L 272.156727 -297.84 
L 269.221381 -300.894545 
L 266.239035 -303.949091 
L 262.715083 -307.003636 
L 259.443487 -310.058182 
L 256.455844 -313.112727 
L 252.439474 -316.167273 
L 247.207689 -319.221818 
L 240.631949 -322.276364 
L 232.782902 -325.330909 
L 222.354874 -328.385455 
L 210.07474 -331.44 
L 198.735497 -334.494545 
L 190.293837 -337.549091 
L 191.135837 -340.603636 
L 213.079257 -343.658182 
L 221.957741 -346.712727 
L 206.847062 -349.767273 
L 173.932374 -352.821818 
L 128.564397 -355.876364 
L 116.64 -358.930909 
L 200.770369 -361.985455 
L 278.969717 -365.04 
L 311.430283 -365.04 
L 311.430283 -365.04 
L 389.629631 -361.985455 
L 473.76 -358.930909 
L 461.835603 -355.876364 
L 416.467626 -352.821818 
L 383.552938 -349.767273 
L 368.442259 -346.712727 
L 377.320743 -343.658182 
L 399.264163 -340.603636 
L 400.106163 -337.549091 
L 391.664503 -334.494545 
L 380.32526 -331.44 
L 368.045126 -328.385455 
L 357.617098 -325.330909 
L 349.768051 -322.276364 
L 343.192311 -319.221818 
L 337.960526 -316.167273 
L 333.944156 -313.112727 
L 330.956513 -310.058182 
L 327.684917 -307.003636 
L 324.160965 -303.949091 
L 321.178619 -300.894545 
L 318.243273 -297.84 
L 315.469338 -294.785455 
L 313.51906 -291.730909 
L 311.488038 -288.676364 
L 309.264952 -285.621818 
L 307.668776 -282.567273 
L 305.878996 -279.512727 
L 304.259606 -276.458182 
L 303.673109 -273.403636 
L 303.347044 -270.349091 
L 302.928485 -267.294545 
L 301.99367 -264.24 
L 300.820288 -261.185455 
L 299.84871 -258.130909 
L 298.809249 -255.076364 
L 298.165691 -252.021818 
L 298.32194 -248.967273 
L 298.175868 -245.912727 
L 297.655815 -242.858182 
L 297.580139 -239.803636 
L 297.334563 -236.749091 
L 296.804982 -233.694545 
L 296.516174 -230.64 
L 296.340204 -227.585455 
L 296.244958 -224.530909 
L 296.159237 -221.476364 
L 295.951092 -218.421818 
L 295.873135 -215.367273 
L 295.833047 -212.312727 
L 295.641042 -209.258182 
L 295.489468 -206.203636 
L 295.460871 -203.149091 
L 295.484334 -200.094545 
L 295.52569 -197.04 
L 295.500755 -193.985455 
L 295.407451 -190.930909 
L 295.474304 -187.876364 
L 295.55655 -184.821818 
L 295.423845 -181.767273 
L 295.320154 -178.712727 
L 295.269452 -175.658182 
L 295.236459 -172.603636 
L 295.250168 -169.549091 
L 295.254558 -166.494545 
L 295.241006 -163.44 
L 295.256621 -160.385455 
L 295.266742 -157.330909 
L 295.252577 -154.276364 
L 295.236956 -151.221818 
L 295.221718 -148.167273 
L 295.219443 -145.112727 
L 295.221464 -142.058182 
L 295.220434 -139.003636 
L 295.214379 -135.949091 
L 295.209334 -132.894545 
L 295.204071 -129.84 
L 295.205497 -126.785455 
L 295.211165 -123.730909 
L 295.216518 -120.676364 
L 295.214198 -117.621818 
L 295.203621 -114.567273 
L 295.200235 -111.512727 
L 295.200004 -108.458182 
L 295.2 -105.403636 
L 295.2 -102.349091 
L 295.2 -99.294545 
L 295.2 -96.24 
L 295.2 -93.185455 
L 295.2 -90.130909 
L 295.2 -87.076364 
L 295.2 -84.021818 
L 295.2 -80.967273 
L 295.200004 -77.912727 
L 295.200207 -74.858182 
L 295.202506 -71.803636 
L 295.207602 -68.749091 
L 295.20577 -65.694545 
L 295.201095 -62.64 
z
" style="stroke: #4c4c4c; stroke-opacity: 0.3; stroke-width: 1.25"/>
    </defs>
    <g clip-path="url(#p4c067c1393)">
     <use xlink:href="#m12b3a744d3" x="0" y="432" style="fill: #2020df; fill-opacity: 0.3; stroke: #4c4c4c; stroke-opacity: 0.3; stroke-width: 1.25"/>
    </g>
   </g>
   <g id="matplotlib.axis_1">
    <g id="xtick_1">
     <g id="line2d_1">
      <defs>
       <path id="meeabd1078f" d="M 0 0 
L 0 3.5 
" style="stroke: #000000; stroke-width: 0.8"/>
      </defs>
      <g>
       <use xlink:href="#meeabd1078f" x="295.2" y="384.48" style="stroke: #000000; stroke-width: 0.8"/>
      </g>
     </g>
    </g>
    <g id="text_1">
     <!-- HIV with Neutralizer repertoire (704010453) -->
     <g transform="translate(118.39125 407.6375) scale(0.16 -0.16)">
      <defs>
       <path id="DejaVuSans-48" d="M 628 4666 
L 1259 4666 
L 1259 2753 
L 3553 2753 
L 3553 4666 
L 4184 4666 
L 4184 0 
L 3553 0 
L 3553 2222 
L 1259 2222 
L 1259 0 
L 628 0 
L 628 4666 
z
" transform="scale(0.015625)"/>
       <path id="DejaVuSans-49" d="M 628 4666 
L 1259 4666 
L 1259 0 
L 628 0 
L 628 4666 
z
" transform="scale(0.015625)"/>
       <path id="DejaVuSans-56" d="M 1831 0 
L 50 4666 
L 709 4666 
L 2188 738 
L 3669 4666 
L 4325 4666 
L 2547 0 
L 1831 0 
z
" transform="scale(0.015625)"/>
       <path id="DejaVuSans-20" transform="scale(0.015625)"/>
       <path id="DejaVuSans-77" d="M 269 3500 
L 844 3500 
L 1563 769 
L 2278 3500 
L 2956 3500 
L 3675 769 
L 4391 3500 
L 4966 3500 
L 4050 0 
L 3372 0 
L 2619 2869 
L 1863 0 
L 1184 0 
L 269 3500 
z
" transform="scale(0.015625)"/>
       <path id="DejaVuSans-69" d="M 603 3500 
L 1178 3500 
L 1178 0 
L 603 0 
L 603 3500 
z
M 603 4863 
L 1178 4863 
L 1178 4134 
L 603 4134 
L 603 4863 
z
" transform="scale(0.015625)"/>
       <path id="DejaVuSans-74" d="M 1172 4494 
L 1172 3500 
L 2356 3500 
L 2356 3053 
L 1172 3053 
L 1172 1153 
Q 1172 725 1289 603 
Q 1406 481 1766 481 
L 2356 481 
L 2356 0 
L 1766 0 
Q 1100 0 847 248 
Q 594 497 594 1153 
L 594 3053 
L 172 3053 
L 172 3500 
L 594 3500 
L 594 4494 
L 1172 4494 
z
" transform="scale(0.015625)"/>
       <path id="DejaVuSans-68" d="M 3513 2113 
L 3513 0 
L 2938 0 
L 2938 2094 
Q 2938 2591 2744 2837 
Q 2550 3084 2163 3084 
Q 1697 3084 1428 2787 
Q 1159 2491 1159 1978 
L 1159 0 
L 581 0 
L 581 4863 
L 1159 4863 
L 1159 2956 
Q 1366 3272 1645 3428 
Q 1925 3584 2291 3584 
Q 2894 3584 3203 3211 
Q 3513 2838 3513 2113 
z
" transform="scale(0.015625)"/>
       <path id="DejaVuSans-4e" d="M 628 4666 
L 1478 4666 
L 3547 763 
L 3547 4666 
L 4159 4666 
L 4159 0 
L 3309 0 
L 1241 3903 
L 1241 0 
L 628 0 
L 628 4666 
z
" transform="scale(0.015625)"/>
       <path id="DejaVuSans-65" d="M 3597 1894 
L 3597 1613 
L 953 1613 
Q 991 1019 1311 708 
Q 1631 397 2203 397 
Q 2534 397 2845 478 
Q 3156 559 3463 722 
L 3463 178 
Q 3153 47 2828 -22 
Q 2503 -91 2169 -91 
Q 1331 -91 842 396 
Q 353 884 353 1716 
Q 353 2575 817 3079 
Q 1281 3584 2069 3584 
Q 2775 3584 3186 3129 
Q 3597 2675 3597 1894 
z
M 3022 2063 
Q 3016 2534 2758 2815 
Q 2500 3097 2075 3097 
Q 1594 3097 1305 2825 
Q 1016 2553 972 2059 
L 3022 2063 
z
" transform="scale(0.015625)"/>
       <path id="DejaVuSans-75" d="M 544 1381 
L 544 3500 
L 1119 3500 
L 1119 1403 
Q 1119 906 1312 657 
Q 1506 409 1894 409 
Q 2359 409 2629 706 
Q 2900 1003 2900 1516 
L 2900 3500 
L 3475 3500 
L 3475 0 
L 2900 0 
L 2900 538 
Q 2691 219 2414 64 
Q 2138 -91 1772 -91 
Q 1169 -91 856 284 
Q 544 659 544 1381 
z
M 1991 3584 
L 1991 3584 
z
" transform="scale(0.015625)"/>
       <path id="DejaVuSans-72" d="M 2631 2963 
Q 2534 3019 2420 3045 
Q 2306 3072 2169 3072 
Q 1681 3072 1420 2755 
Q 1159 2438 1159 1844 
L 1159 0 
L 581 0 
L 581 3500 
L 1159 3500 
L 1159 2956 
Q 1341 3275 1631 3429 
Q 1922 3584 2338 3584 
Q 2397 3584 2469 3576 
Q 2541 3569 2628 3553 
L 2631 2963 
z
" transform="scale(0.015625)"/>
       <path id="DejaVuSans-61" d="M 2194 1759 
Q 1497 1759 1228 1600 
Q 959 1441 959 1056 
Q 959 750 1161 570 
Q 1363 391 1709 391 
Q 2188 391 2477 730 
Q 2766 1069 2766 1631 
L 2766 1759 
L 2194 1759 
z
M 3341 1997 
L 3341 0 
L 2766 0 
L 2766 531 
Q 2569 213 2275 61 
Q 1981 -91 1556 -91 
Q 1019 -91 701 211 
Q 384 513 384 1019 
Q 384 1609 779 1909 
Q 1175 2209 1959 2209 
L 2766 2209 
L 2766 2266 
Q 2766 2663 2505 2880 
Q 2244 3097 1772 3097 
Q 1472 3097 1187 3025 
Q 903 2953 641 2809 
L 641 3341 
Q 956 3463 1253 3523 
Q 1550 3584 1831 3584 
Q 2591 3584 2966 3190 
Q 3341 2797 3341 1997 
z
" transform="scale(0.015625)"/>
       <path id="DejaVuSans-6c" d="M 603 4863 
L 1178 4863 
L 1178 0 
L 603 0 
L 603 4863 
z
" transform="scale(0.015625)"/>
       <path id="DejaVuSans-7a" d="M 353 3500 
L 3084 3500 
L 3084 2975 
L 922 459 
L 3084 459 
L 3084 0 
L 275 0 
L 275 525 
L 2438 3041 
L 353 3041 
L 353 3500 
z
" transform="scale(0.015625)"/>
       <path id="DejaVuSans-70" d="M 1159 525 
L 1159 -1331 
L 581 -1331 
L 581 3500 
L 1159 3500 
L 1159 2969 
Q 1341 3281 1617 3432 
Q 1894 3584 2278 3584 
Q 2916 3584 3314 3078 
Q 3713 2572 3713 1747 
Q 3713 922 3314 415 
Q 2916 -91 2278 -91 
Q 1894 -91 1617 61 
Q 1341 213 1159 525 
z
M 3116 1747 
Q 3116 2381 2855 2742 
Q 2594 3103 2138 3103 
Q 1681 3103 1420 2742 
Q 1159 2381 1159 1747 
Q 1159 1113 1420 752 
Q 1681 391 2138 391 
Q 2594 391 2855 752 
Q 3116 1113 3116 1747 
z
" transform="scale(0.015625)"/>
       <path id="DejaVuSans-6f" d="M 1959 3097 
Q 1497 3097 1228 2736 
Q 959 2375 959 1747 
Q 959 1119 1226 758 
Q 1494 397 1959 397 
Q 2419 397 2687 759 
Q 2956 1122 2956 1747 
Q 2956 2369 2687 2733 
Q 2419 3097 1959 3097 
z
M 1959 3584 
Q 2709 3584 3137 3096 
Q 3566 2609 3566 1747 
Q 3566 888 3137 398 
Q 2709 -91 1959 -91 
Q 1206 -91 779 398 
Q 353 888 353 1747 
Q 353 2609 779 3096 
Q 1206 3584 1959 3584 
z
" transform="scale(0.015625)"/>
       <path id="DejaVuSans-28" d="M 1984 4856 
Q 1566 4138 1362 3434 
Q 1159 2731 1159 2009 
Q 1159 1288 1364 580 
Q 1569 -128 1984 -844 
L 1484 -844 
Q 1016 -109 783 600 
Q 550 1309 550 2009 
Q 550 2706 781 3412 
Q 1013 4119 1484 4856 
L 1984 4856 
z
" transform="scale(0.015625)"/>
       <path id="DejaVuSans-37" d="M 525 4666 
L 3525 4666 
L 3525 4397 
L 1831 0 
L 1172 0 
L 2766 4134 
L 525 4134 
L 525 4666 
z
" transform="scale(0.015625)"/>
       <path id="DejaVuSans-30" d="M 2034 4250 
Q 1547 4250 1301 3770 
Q 1056 3291 1056 2328 
Q 1056 1369 1301 889 
Q 1547 409 2034 409 
Q 2525 409 2770 889 
Q 3016 1369 3016 2328 
Q 3016 3291 2770 3770 
Q 2525 4250 2034 4250 
z
M 2034 4750 
Q 2819 4750 3233 4129 
Q 3647 3509 3647 2328 
Q 3647 1150 3233 529 
Q 2819 -91 2034 -91 
Q 1250 -91 836 529 
Q 422 1150 422 2328 
Q 422 3509 836 4129 
Q 1250 4750 2034 4750 
z
" transform="scale(0.015625)"/>
       <path id="DejaVuSans-34" d="M 2419 4116 
L 825 1625 
L 2419 1625 
L 2419 4116 
z
M 2253 4666 
L 3047 4666 
L 3047 1625 
L 3713 1625 
L 3713 1100 
L 3047 1100 
L 3047 0 
L 2419 0 
L 2419 1100 
L 313 1100 
L 313 1709 
L 2253 4666 
z
" transform="scale(0.015625)"/>
       <path id="DejaVuSans-31" d="M 794 531 
L 1825 531 
L 1825 4091 
L 703 3866 
L 703 4441 
L 1819 4666 
L 2450 4666 
L 2450 531 
L 3481 531 
L 3481 0 
L 794 0 
L 794 531 
z
" transform="scale(0.015625)"/>
       <path id="DejaVuSans-35" d="M 691 4666 
L 3169 4666 
L 3169 4134 
L 1269 4134 
L 1269 2991 
Q 1406 3038 1543 3061 
Q 1681 3084 1819 3084 
Q 2600 3084 3056 2656 
Q 3513 2228 3513 1497 
Q 3513 744 3044 326 
Q 2575 -91 1722 -91 
Q 1428 -91 1123 -41 
Q 819 9 494 109 
L 494 744 
Q 775 591 1075 516 
Q 1375 441 1709 441 
Q 2250 441 2565 725 
Q 2881 1009 2881 1497 
Q 2881 1984 2565 2268 
Q 2250 2553 1709 2553 
Q 1456 2553 1204 2497 
Q 953 2441 691 2322 
L 691 4666 
z
" transform="scale(0.015625)"/>
       <path id="DejaVuSans-33" d="M 2597 2516 
Q 3050 2419 3304 2112 
Q 3559 1806 3559 1356 
Q 3559 666 3084 287 
Q 2609 -91 1734 -91 
Q 1441 -91 1130 -33 
Q 819 25 488 141 
L 488 750 
Q 750 597 1062 519 
Q 1375 441 1716 441 
Q 2309 441 2620 675 
Q 2931 909 2931 1356 
Q 2931 1769 2642 2001 
Q 2353 2234 1838 2234 
L 1294 2234 
L 1294 2753 
L 1863 2753 
Q 2328 2753 2575 2939 
Q 2822 3125 2822 3475 
Q 2822 3834 2567 4026 
Q 2313 4219 1838 4219 
Q 1578 4219 1281 4162 
Q 984 4106 628 3988 
L 628 4550 
Q 988 4650 1302 4700 
Q 1616 4750 1894 4750 
Q 2613 4750 3031 4423 
Q 3450 4097 3450 3541 
Q 3450 3153 3228 2886 
Q 3006 2619 2597 2516 
z
" transform="scale(0.015625)"/>
       <path id="DejaVuSans-29" d="M 513 4856 
L 1013 4856 
Q 1481 4119 1714 3412 
Q 1947 2706 1947 2009 
Q 1947 1309 1714 600 
Q 1481 -109 1013 -844 
L 513 -844 
Q 928 -128 1133 580 
Q 1338 1288 1338 2009 
Q 1338 2731 1133 3434 
Q 928 4138 513 4856 
z
" transform="scale(0.015625)"/>
      </defs>
      <use xlink:href="#DejaVuSans-48"/>
      <use xlink:href="#DejaVuSans-49" x="75.195312"/>
      <use xlink:href="#DejaVuSans-56" x="104.6875"/>
      <use xlink:href="#DejaVuSans-20" x="173.095703"/>
      <use xlink:href="#DejaVuSans-77" x="204.882812"/>
      <use xlink:href="#DejaVuSans-69" x="286.669922"/>
      <use xlink:href="#DejaVuSans-74" x="314.453125"/>
      <use xlink:href="#DejaVuSans-68" x="353.662109"/>
      <use xlink:href="#DejaVuSans-20" x="417.041016"/>
      <use xlink:href="#DejaVuSans-4e" x="448.828125"/>
      <use xlink:href="#DejaVuSans-65" x="523.632812"/>
      <use xlink:href="#DejaVuSans-75" x="585.15625"/>
      <use xlink:href="#DejaVuSans-74" x="648.535156"/>
      <use xlink:href="#DejaVuSans-72" x="687.744141"/>
      <use xlink:href="#DejaVuSans-61" x="728.857422"/>
      <use xlink:href="#DejaVuSans-6c" x="790.136719"/>
      <use xlink:href="#DejaVuSans-69" x="817.919922"/>
      <use xlink:href="#DejaVuSans-7a" x="845.703125"/>
      <use xlink:href="#DejaVuSans-65" x="898.193359"/>
      <use xlink:href="#DejaVuSans-72" x="959.716797"/>
      <use xlink:href="#DejaVuSans-20" x="1000.830078"/>
      <use xlink:href="#DejaVuSans-72" x="1032.617188"/>
      <use xlink:href="#DejaVuSans-65" x="1071.480469"/>
      <use xlink:href="#DejaVuSans-70" x="1133.003906"/>
      <use xlink:href="#DejaVuSans-65" x="1196.480469"/>
      <use xlink:href="#DejaVuSans-72" x="1258.003906"/>
      <use xlink:href="#DejaVuSans-74" x="1299.117188"/>
      <use xlink:href="#DejaVuSans-6f" x="1338.326172"/>
      <use xlink:href="#DejaVuSans-69" x="1399.507812"/>
      <use xlink:href="#DejaVuSans-72" x="1427.291016"/>
      <use xlink:href="#DejaVuSans-65" x="1466.154297"/>
      <use xlink:href="#DejaVuSans-20" x="1527.677734"/>
      <use xlink:href="#DejaVuSans-28" x="1559.464844"/>
      <use xlink:href="#DejaVuSans-37" x="1598.478516"/>
      <use xlink:href="#DejaVuSans-30" x="1662.101562"/>
      <use xlink:href="#DejaVuSans-34" x="1725.724609"/>
      <use xlink:href="#DejaVuSans-30" x="1789.347656"/>
      <use xlink:href="#DejaVuSans-31" x="1852.970703"/>
      <use xlink:href="#DejaVuSans-30" x="1916.59375"/>
      <use xlink:href="#DejaVuSans-34" x="1980.216797"/>
      <use xlink:href="#DejaVuSans-35" x="2043.839844"/>
      <use xlink:href="#DejaVuSans-33" x="2107.462891"/>
      <use xlink:href="#DejaVuSans-29" x="2171.085938"/>
     </g>
    </g>
   </g>
   <g id="matplotlib.axis_2">
    <g id="ytick_1">
     <g id="line2d_2">
      <defs>
       <path id="m5265077d79" d="M 0 0 
L -3.5 0 
" style="stroke: #000000; stroke-width: 0.8"/>
      </defs>
      <g>
       <use xlink:href="#m5265077d79" x="72" y="350.150986" style="stroke: #000000; stroke-width: 0.8"/>
      </g>
     </g>
     <g id="text_2">
      <!-- 65 -->
      <g transform="translate(44.64 356.229736) scale(0.16 -0.16)">
       <defs>
        <path id="DejaVuSans-36" d="M 2113 2584 
Q 1688 2584 1439 2293 
Q 1191 2003 1191 1497 
Q 1191 994 1439 701 
Q 1688 409 2113 409 
Q 2538 409 2786 701 
Q 3034 994 3034 1497 
Q 3034 2003 2786 2293 
Q 2538 2584 2113 2584 
z
M 3366 4563 
L 3366 3988 
Q 3128 4100 2886 4159 
Q 2644 4219 2406 4219 
Q 1781 4219 1451 3797 
Q 1122 3375 1075 2522 
Q 1259 2794 1537 2939 
Q 1816 3084 2150 3084 
Q 2853 3084 3261 2657 
Q 3669 2231 3669 1497 
Q 3669 778 3244 343 
Q 2819 -91 2113 -91 
Q 1303 -91 875 529 
Q 447 1150 447 2328 
Q 447 3434 972 4092 
Q 1497 4750 2381 4750 
Q 2619 4750 2861 4703 
Q 3103 4656 3366 4563 
z
" transform="scale(0.015625)"/>
       </defs>
       <use xlink:href="#DejaVuSans-36"/>
       <use xlink:href="#DejaVuSans-35" x="63.623047"/>
      </g>
     </g>
    </g>
    <g id="ytick_2">
     <g id="line2d_3">
      <g>
       <use xlink:href="#m5265077d79" x="72" y="310.436533" style="stroke: #000000; stroke-width: 0.8"/>
      </g>
     </g>
     <g id="text_3">
      <!-- 70 -->
      <g transform="translate(44.64 316.515283) scale(0.16 -0.16)">
       <use xlink:href="#DejaVuSans-37"/>
       <use xlink:href="#DejaVuSans-30" x="63.623047"/>
      </g>
     </g>
    </g>
    <g id="ytick_3">
     <g id="line2d_4">
      <g>
       <use xlink:href="#m5265077d79" x="72" y="270.722079" style="stroke: #000000; stroke-width: 0.8"/>
      </g>
     </g>
     <g id="text_4">
      <!-- 75 -->
      <g transform="translate(44.64 276.800829) scale(0.16 -0.16)">
       <use xlink:href="#DejaVuSans-37"/>
       <use xlink:href="#DejaVuSans-35" x="63.623047"/>
      </g>
     </g>
    </g>
    <g id="ytick_4">
     <g id="line2d_5">
      <g>
       <use xlink:href="#m5265077d79" x="72" y="231.007626" style="stroke: #000000; stroke-width: 0.8"/>
      </g>
     </g>
     <g id="text_5">
      <!-- 80 -->
      <g transform="translate(44.64 237.086376) scale(0.16 -0.16)">
       <defs>
        <path id="DejaVuSans-38" d="M 2034 2216 
Q 1584 2216 1326 1975 
Q 1069 1734 1069 1313 
Q 1069 891 1326 650 
Q 1584 409 2034 409 
Q 2484 409 2743 651 
Q 3003 894 3003 1313 
Q 3003 1734 2745 1975 
Q 2488 2216 2034 2216 
z
M 1403 2484 
Q 997 2584 770 2862 
Q 544 3141 544 3541 
Q 544 4100 942 4425 
Q 1341 4750 2034 4750 
Q 2731 4750 3128 4425 
Q 3525 4100 3525 3541 
Q 3525 3141 3298 2862 
Q 3072 2584 2669 2484 
Q 3125 2378 3379 2068 
Q 3634 1759 3634 1313 
Q 3634 634 3220 271 
Q 2806 -91 2034 -91 
Q 1263 -91 848 271 
Q 434 634 434 1313 
Q 434 1759 690 2068 
Q 947 2378 1403 2484 
z
M 1172 3481 
Q 1172 3119 1398 2916 
Q 1625 2713 2034 2713 
Q 2441 2713 2670 2916 
Q 2900 3119 2900 3481 
Q 2900 3844 2670 4047 
Q 2441 4250 2034 4250 
Q 1625 4250 1398 4047 
Q 1172 3844 1172 3481 
z
" transform="scale(0.015625)"/>
       </defs>
       <use xlink:href="#DejaVuSans-38"/>
       <use xlink:href="#DejaVuSans-30" x="63.623047"/>
      </g>
     </g>
    </g>
    <g id="ytick_5">
     <g id="line2d_6">
      <g>
       <use xlink:href="#m5265077d79" x="72" y="191.293172" style="stroke: #000000; stroke-width: 0.8"/>
      </g>
     </g>
     <g id="text_6">
      <!-- 85 -->
      <g transform="translate(44.64 197.371922) scale(0.16 -0.16)">
       <use xlink:href="#DejaVuSans-38"/>
       <use xlink:href="#DejaVuSans-35" x="63.623047"/>
      </g>
     </g>
    </g>
    <g id="ytick_6">
     <g id="line2d_7">
      <g>
       <use xlink:href="#m5265077d79" x="72" y="151.578719" style="stroke: #000000; stroke-width: 0.8"/>
      </g>
     </g>
     <g id="text_7">
      <!-- 90 -->
      <g transform="translate(44.64 157.657469) scale(0.16 -0.16)">
       <defs>
        <path id="DejaVuSans-39" d="M 703 97 
L 703 672 
Q 941 559 1184 500 
Q 1428 441 1663 441 
Q 2288 441 2617 861 
Q 2947 1281 2994 2138 
Q 2813 1869 2534 1725 
Q 2256 1581 1919 1581 
Q 1219 1581 811 2004 
Q 403 2428 403 3163 
Q 403 3881 828 4315 
Q 1253 4750 1959 4750 
Q 2769 4750 3195 4129 
Q 3622 3509 3622 2328 
Q 3622 1225 3098 567 
Q 2575 -91 1691 -91 
Q 1453 -91 1209 -44 
Q 966 3 703 97 
z
M 1959 2075 
Q 2384 2075 2632 2365 
Q 2881 2656 2881 3163 
Q 2881 3666 2632 3958 
Q 2384 4250 1959 4250 
Q 1534 4250 1286 3958 
Q 1038 3666 1038 3163 
Q 1038 2656 1286 2365 
Q 1534 2075 1959 2075 
z
" transform="scale(0.015625)"/>
       </defs>
       <use xlink:href="#DejaVuSans-39"/>
       <use xlink:href="#DejaVuSans-30" x="63.623047"/>
      </g>
     </g>
    </g>
    <g id="ytick_7">
     <g id="line2d_8">
      <g>
       <use xlink:href="#m5265077d79" x="72" y="111.864265" style="stroke: #000000; stroke-width: 0.8"/>
      </g>
     </g>
     <g id="text_8">
      <!-- 95 -->
      <g transform="translate(44.64 117.943015) scale(0.16 -0.16)">
       <use xlink:href="#DejaVuSans-39"/>
       <use xlink:href="#DejaVuSans-35" x="63.623047"/>
      </g>
     </g>
    </g>
    <g id="ytick_8">
     <g id="line2d_9">
      <g>
       <use xlink:href="#m5265077d79" x="72" y="72.149812" style="stroke: #000000; stroke-width: 0.8"/>
      </g>
     </g>
     <g id="text_9">
      <!-- 100 -->
      <g transform="translate(34.46 78.228562) scale(0.16 -0.16)">
       <use xlink:href="#DejaVuSans-31"/>
       <use xlink:href="#DejaVuSans-30" x="63.623047"/>
       <use xlink:href="#DejaVuSans-30" x="127.246094"/>
      </g>
     </g>
    </g>
    <g id="text_10">
     <!-- v_identity -->
     <g transform="translate(26.6875 257.41875) rotate(-90) scale(0.16 -0.16)">
      <defs>
       <path id="DejaVuSans-76" d="M 191 3500 
L 800 3500 
L 1894 563 
L 2988 3500 
L 3597 3500 
L 2284 0 
L 1503 0 
L 191 3500 
z
" transform="scale(0.015625)"/>
       <path id="DejaVuSans-5f" d="M 3263 -1063 
L 3263 -1509 
L -63 -1509 
L -63 -1063 
L 3263 -1063 
z
" transform="scale(0.015625)"/>
       <path id="DejaVuSans-64" d="M 2906 2969 
L 2906 4863 
L 3481 4863 
L 3481 0 
L 2906 0 
L 2906 525 
Q 2725 213 2448 61 
Q 2172 -91 1784 -91 
Q 1150 -91 751 415 
Q 353 922 353 1747 
Q 353 2572 751 3078 
Q 1150 3584 1784 3584 
Q 2172 3584 2448 3432 
Q 2725 3281 2906 2969 
z
M 947 1747 
Q 947 1113 1208 752 
Q 1469 391 1925 391 
Q 2381 391 2643 752 
Q 2906 1113 2906 1747 
Q 2906 2381 2643 2742 
Q 2381 3103 1925 3103 
Q 1469 3103 1208 2742 
Q 947 2381 947 1747 
z
" transform="scale(0.015625)"/>
       <path id="DejaVuSans-6e" d="M 3513 2113 
L 3513 0 
L 2938 0 
L 2938 2094 
Q 2938 2591 2744 2837 
Q 2550 3084 2163 3084 
Q 1697 3084 1428 2787 
Q 1159 2491 1159 1978 
L 1159 0 
L 581 0 
L 581 3500 
L 1159 3500 
L 1159 2956 
Q 1366 3272 1645 3428 
Q 1925 3584 2291 3584 
Q 2894 3584 3203 3211 
Q 3513 2838 3513 2113 
z
" transform="scale(0.015625)"/>
       <path id="DejaVuSans-79" d="M 2059 -325 
Q 1816 -950 1584 -1140 
Q 1353 -1331 966 -1331 
L 506 -1331 
L 506 -850 
L 844 -850 
Q 1081 -850 1212 -737 
Q 1344 -625 1503 -206 
L 1606 56 
L 191 3500 
L 800 3500 
L 1894 763 
L 2988 3500 
L 3597 3500 
L 2059 -325 
z
" transform="scale(0.015625)"/>
      </defs>
      <use xlink:href="#DejaVuSans-76"/>
      <use xlink:href="#DejaVuSans-5f" x="59.179688"/>
      <use xlink:href="#DejaVuSans-69" x="109.179688"/>
      <use xlink:href="#DejaVuSans-64" x="136.962891"/>
      <use xlink:href="#DejaVuSans-65" x="200.439453"/>
      <use xlink:href="#DejaVuSans-6e" x="261.962891"/>
      <use xlink:href="#DejaVuSans-74" x="325.341797"/>
      <use xlink:href="#DejaVuSans-69" x="364.550781"/>
      <use xlink:href="#DejaVuSans-74" x="392.333984"/>
      <use xlink:href="#DejaVuSans-79" x="431.542969"/>
     </g>
    </g>
   </g>
   <g id="line2d_10">
    <path d="M 295.2 157.361143 
L 295.2 72.149812 
" clip-path="url(#p4c067c1393)" style="fill: none; stroke: #4c4c4c; stroke-width: 1.875; stroke-linecap: square"/>
   </g>
   <g id="line2d_11">
    <path d="M 295.2 109.973857 
L 295.2 78.305552 
" clip-path="url(#p4c067c1393)" style="fill: none; stroke: #4c4c4c; stroke-width: 5.625; stroke-linecap: square"/>
   </g>
   <g id="line2d_12">
    <path d="M 295.2 93.698874 
" clip-path="url(#p4c067c1393)" style="fill: none; stroke: #4c4c4c; stroke-width: 1.5; stroke-linecap: square"/>
    <defs>
     <path id="mcd19b2f934" d="M 2.34375 0 
L -2.34375 -0 
" style="stroke: #ffffff; stroke-width: 1.125"/>
    </defs>
    <g clip-path="url(#p4c067c1393)">
     <use xlink:href="#mcd19b2f934" x="295.2" y="93.698874" style="fill: #ffffff; stroke: #ffffff; stroke-width: 1.125"/>
    </g>
   </g>
   <g id="patch_3">
    <path d="M 72 384.48 
L 72 51.84 
" style="fill: none; stroke: #000000; stroke-width: 0.8; stroke-linejoin: miter; stroke-linecap: square"/>
   </g>
   <g id="patch_4">
    <path d="M 518.4 384.48 
L 518.4 51.84 
" style="fill: none; stroke: #000000; stroke-width: 0.8; stroke-linejoin: miter; stroke-linecap: square"/>
   </g>
   <g id="patch_5">
    <path d="M 72 384.48 
L 518.4 384.48 
" style="fill: none; stroke: #000000; stroke-width: 0.8; stroke-linejoin: miter; stroke-linecap: square"/>
   </g>
   <g id="patch_6">
    <path d="M 72 51.84 
L 518.4 51.84 
" style="fill: none; stroke: #000000; stroke-width: 0.8; stroke-linejoin: miter; stroke-linecap: square"/>
   </g>
   <g id="text_11">
    <g id="patch_7">
     <path d="M 107.712 241.645 
L 264.7995 241.645 
Q 272.7995 241.645 272.7995 233.645 
L 272.7995 218.16 
Q 272.7995 210.16 264.7995 210.16 
L 107.712 210.16 
Q 99.712 210.16 99.712 218.16 
L 99.712 233.645 
Q 99.712 241.645 107.712 241.645 
z
" style="fill: #ffffff; opacity: 0.5; stroke: #000000; stroke-linejoin: miter"/>
    </g>
    <!-- # CDR-H3 : 107429 -->
    <g transform="translate(107.712 230.3175) scale(0.16 -0.16)">
     <defs>
      <path id="DejaVuSans-23" d="M 3272 2816 
L 2363 2816 
L 2100 1772 
L 3016 1772 
L 3272 2816 
z
M 2803 4594 
L 2478 3297 
L 3391 3297 
L 3719 4594 
L 4219 4594 
L 3897 3297 
L 4872 3297 
L 4872 2816 
L 3775 2816 
L 3519 1772 
L 4513 1772 
L 4513 1294 
L 3397 1294 
L 3072 0 
L 2572 0 
L 2894 1294 
L 1978 1294 
L 1656 0 
L 1153 0 
L 1478 1294 
L 494 1294 
L 494 1772 
L 1594 1772 
L 1856 2816 
L 850 2816 
L 850 3297 
L 1978 3297 
L 2297 4594 
L 2803 4594 
z
" transform="scale(0.015625)"/>
      <path id="DejaVuSans-43" d="M 4122 4306 
L 4122 3641 
Q 3803 3938 3442 4084 
Q 3081 4231 2675 4231 
Q 1875 4231 1450 3742 
Q 1025 3253 1025 2328 
Q 1025 1406 1450 917 
Q 1875 428 2675 428 
Q 3081 428 3442 575 
Q 3803 722 4122 1019 
L 4122 359 
Q 3791 134 3420 21 
Q 3050 -91 2638 -91 
Q 1578 -91 968 557 
Q 359 1206 359 2328 
Q 359 3453 968 4101 
Q 1578 4750 2638 4750 
Q 3056 4750 3426 4639 
Q 3797 4528 4122 4306 
z
" transform="scale(0.015625)"/>
      <path id="DejaVuSans-44" d="M 1259 4147 
L 1259 519 
L 2022 519 
Q 2988 519 3436 956 
Q 3884 1394 3884 2338 
Q 3884 3275 3436 3711 
Q 2988 4147 2022 4147 
L 1259 4147 
z
M 628 4666 
L 1925 4666 
Q 3281 4666 3915 4102 
Q 4550 3538 4550 2338 
Q 4550 1131 3912 565 
Q 3275 0 1925 0 
L 628 0 
L 628 4666 
z
" transform="scale(0.015625)"/>
      <path id="DejaVuSans-52" d="M 2841 2188 
Q 3044 2119 3236 1894 
Q 3428 1669 3622 1275 
L 4263 0 
L 3584 0 
L 2988 1197 
Q 2756 1666 2539 1819 
Q 2322 1972 1947 1972 
L 1259 1972 
L 1259 0 
L 628 0 
L 628 4666 
L 2053 4666 
Q 2853 4666 3247 4331 
Q 3641 3997 3641 3322 
Q 3641 2881 3436 2590 
Q 3231 2300 2841 2188 
z
M 1259 4147 
L 1259 2491 
L 2053 2491 
Q 2509 2491 2742 2702 
Q 2975 2913 2975 3322 
Q 2975 3731 2742 3939 
Q 2509 4147 2053 4147 
L 1259 4147 
z
" transform="scale(0.015625)"/>
      <path id="DejaVuSans-2d" d="M 313 2009 
L 1997 2009 
L 1997 1497 
L 313 1497 
L 313 2009 
z
" transform="scale(0.015625)"/>
      <path id="DejaVuSans-3a" d="M 750 794 
L 1409 794 
L 1409 0 
L 750 0 
L 750 794 
z
M 750 3309 
L 1409 3309 
L 1409 2516 
L 750 2516 
L 750 3309 
z
" transform="scale(0.015625)"/>
      <path id="DejaVuSans-32" d="M 1228 531 
L 3431 531 
L 3431 0 
L 469 0 
L 469 531 
Q 828 903 1448 1529 
Q 2069 2156 2228 2338 
Q 2531 2678 2651 2914 
Q 2772 3150 2772 3378 
Q 2772 3750 2511 3984 
Q 2250 4219 1831 4219 
Q 1534 4219 1204 4116 
Q 875 4013 500 3803 
L 500 4441 
Q 881 4594 1212 4672 
Q 1544 4750 1819 4750 
Q 2544 4750 2975 4387 
Q 3406 4025 3406 3419 
Q 3406 3131 3298 2873 
Q 3191 2616 2906 2266 
Q 2828 2175 2409 1742 
Q 1991 1309 1228 531 
z
" transform="scale(0.015625)"/>
     </defs>
     <use xlink:href="#DejaVuSans-23"/>
     <use xlink:href="#DejaVuSans-20" x="83.789062"/>
     <use xlink:href="#DejaVuSans-43" x="115.576172"/>
     <use xlink:href="#DejaVuSans-44" x="185.400391"/>
     <use xlink:href="#DejaVuSans-52" x="262.402344"/>
     <use xlink:href="#DejaVuSans-2d" x="327.884766"/>
     <use xlink:href="#DejaVuSans-48" x="363.96875"/>
     <use xlink:href="#DejaVuSans-33" x="439.164062"/>
     <use xlink:href="#DejaVuSans-20" x="502.787109"/>
     <use xlink:href="#DejaVuSans-3a" x="534.574219"/>
     <use xlink:href="#DejaVuSans-20" x="568.265625"/>
     <use xlink:href="#DejaVuSans-31" x="600.052734"/>
     <use xlink:href="#DejaVuSans-30" x="663.675781"/>
     <use xlink:href="#DejaVuSans-37" x="727.298828"/>
     <use xlink:href="#DejaVuSans-34" x="790.921875"/>
     <use xlink:href="#DejaVuSans-32" x="854.544922"/>
     <use xlink:href="#DejaVuSans-39" x="918.167969"/>
    </g>
   </g>
  </g>
 </g>
 <defs>
  <clipPath id="p4c067c1393">
   <rect x="72" y="51.84" width="446.4" height="332.64"/>
  </clipPath>
 </defs>
</svg>
