<?xml version="1.0" encoding="utf-8" standalone="no"?>
<!DOCTYPE svg PUBLIC "-//W3C//DTD SVG 1.1//EN"
  "http://www.w3.org/Graphics/SVG/1.1/DTD/svg11.dtd">
<svg xmlns:xlink="http://www.w3.org/1999/xlink" width="592.93625pt" height="267.957188pt" viewBox="0 0 592.93625 267.957188" xmlns="http://www.w3.org/2000/svg" version="1.1">
 <metadata>
  <rdf:RDF xmlns:dc="http://purl.org/dc/elements/1.1/" xmlns:cc="http://creativecommons.org/ns#" xmlns:rdf="http://www.w3.org/1999/02/22-rdf-syntax-ns#">
   <cc:Work>
    <dc:type rdf:resource="http://purl.org/dc/dcmitype/StillImage"/>
    <dc:date>2025-05-25T21:05:02.722725</dc:date>
    <dc:format>image/svg+xml</dc:format>
    <dc:creator>
     <cc:Agent>
      <dc:title>Matplotlib v3.7.5, https://matplotlib.org/</dc:title>
     </cc:Agent>
    </dc:creator>
   </cc:Work>
  </rdf:RDF>
 </metadata>
 <defs>
  <style type="text/css">*{stroke-linejoin: round; stroke-linecap: butt}</style>
 </defs>
 <g id="figure_1">
  <g id="patch_1">
   <path d="M 0 267.957188 
L 592.93625 267.957188 
L 592.93625 0 
L 0 0 
z
" style="fill: #ffffff"/>
  </g>
  <g id="axes_1">
   <g id="patch_2">
    <path d="M 62.31625 239.24 
L 585.73625 239.24 
L 585.73625 7.2 
L 62.31625 7.2 
z
" style="fill: #ffffff"/>
   </g>
   <g id="matplotlib.axis_1">
    <g id="xtick_1">
     <g id="text_1">
      <!-- nnAb -->
      <g style="fill: #262626" transform="translate(130.15487 257.637656) scale(0.15 -0.15)">
       <defs>
        <path id="DejaVuSans-6e" d="M 3513 2113 
L 3513 0 
L 2938 0 
L 2938 2094 
Q 2938 2591 2744 2837 
Q 2550 3084 2163 3084 
Q 1697 3084 1428 2787 
Q 1159 2491 1159 1978 
L 1159 0 
L 581 0 
L 581 3500 
L 1159 3500 
L 1159 2956 
Q 1366 3272 1645 3428 
Q 1925 3584 2291 3584 
Q 2894 3584 3203 3211 
Q 3513 2838 3513 2113 
z
" transform="scale(0.015625)"/>
        <path id="DejaVuSans-41" d="M 2188 4044 
L 1331 1722 
L 3047 1722 
L 2188 4044 
z
M 1831 4666 
L 2547 4666 
L 4325 0 
L 3669 0 
L 3244 1197 
L 1141 1197 
L 716 0 
L 50 0 
L 1831 4666 
z
" transform="scale(0.015625)"/>
        <path id="DejaVuSans-62" d="M 3116 1747 
Q 3116 2381 2855 2742 
Q 2594 3103 2138 3103 
Q 1681 3103 1420 2742 
Q 1159 2381 1159 1747 
Q 1159 1113 1420 752 
Q 1681 391 2138 391 
Q 2594 391 2855 752 
Q 3116 1113 3116 1747 
z
M 1159 2969 
Q 1341 3281 1617 3432 
Q 1894 3584 2278 3584 
Q 2916 3584 3314 3078 
Q 3713 2572 3713 1747 
Q 3713 922 3314 415 
Q 2916 -91 2278 -91 
Q 1894 -91 1617 61 
Q 1341 213 1159 525 
L 1159 0 
L 581 0 
L 581 4863 
L 1159 4863 
L 1159 2969 
z
" transform="scale(0.015625)"/>
       </defs>
       <use xlink:href="#DejaVuSans-6e"/>
       <use xlink:href="#DejaVuSans-6e" x="63.378906"/>
       <use xlink:href="#DejaVuSans-41" x="126.757812"/>
       <use xlink:href="#DejaVuSans-62" x="195.166016"/>
      </g>
     </g>
    </g>
    <g id="xtick_2">
     <g id="text_2">
      <!-- nAb -->
      <g style="fill: #262626" transform="translate(309.381328 257.637656) scale(0.15 -0.15)">
       <use xlink:href="#DejaVuSans-6e"/>
       <use xlink:href="#DejaVuSans-41" x="63.378906"/>
       <use xlink:href="#DejaVuSans-62" x="131.787109"/>
      </g>
     </g>
    </g>
    <g id="xtick_3">
     <g id="text_3">
      <!-- bnAb -->
      <g style="fill: #262626" transform="translate(479.093333 257.637656) scale(0.15 -0.15)">
       <use xlink:href="#DejaVuSans-62"/>
       <use xlink:href="#DejaVuSans-6e" x="63.476562"/>
       <use xlink:href="#DejaVuSans-41" x="126.855469"/>
       <use xlink:href="#DejaVuSans-62" x="195.263672"/>
      </g>
     </g>
    </g>
   </g>
   <g id="matplotlib.axis_2">
    <g id="ytick_1">
     <g id="text_4">
      <!-- 0 -->
      <g style="fill: #262626" transform="translate(45.7725 235.346175) scale(0.15 -0.15)">
       <defs>
        <path id="DejaVuSans-30" d="M 2034 4250 
Q 1547 4250 1301 3770 
Q 1056 3291 1056 2328 
Q 1056 1369 1301 889 
Q 1547 409 2034 409 
Q 2525 409 2770 889 
Q 3016 1369 3016 2328 
Q 3016 3291 2770 3770 
Q 2525 4250 2034 4250 
z
M 2034 4750 
Q 2819 4750 3233 4129 
Q 3647 3509 3647 2328 
Q 3647 1150 3233 529 
Q 2819 -91 2034 -91 
Q 1250 -91 836 529 
Q 422 1150 422 2328 
Q 422 3509 836 4129 
Q 1250 4750 2034 4750 
z
" transform="scale(0.015625)"/>
       </defs>
       <use xlink:href="#DejaVuSans-30"/>
      </g>
     </g>
    </g>
    <g id="ytick_2">
     <g id="text_5">
      <!-- 20 -->
      <g style="fill: #262626" transform="translate(36.22875 193.223834) scale(0.15 -0.15)">
       <defs>
        <path id="DejaVuSans-32" d="M 1228 531 
L 3431 531 
L 3431 0 
L 469 0 
L 469 531 
Q 828 903 1448 1529 
Q 2069 2156 2228 2338 
Q 2531 2678 2651 2914 
Q 2772 3150 2772 3378 
Q 2772 3750 2511 3984 
Q 2250 4219 1831 4219 
Q 1534 4219 1204 4116 
Q 875 4013 500 3803 
L 500 4441 
Q 881 4594 1212 4672 
Q 1544 4750 1819 4750 
Q 2544 4750 2975 4387 
Q 3406 4025 3406 3419 
Q 3406 3131 3298 2873 
Q 3191 2616 2906 2266 
Q 2828 2175 2409 1742 
Q 1991 1309 1228 531 
z
" transform="scale(0.015625)"/>
       </defs>
       <use xlink:href="#DejaVuSans-32"/>
       <use xlink:href="#DejaVuSans-30" x="63.623047"/>
      </g>
     </g>
    </g>
    <g id="ytick_3">
     <g id="text_6">
      <!-- 40 -->
      <g style="fill: #262626" transform="translate(36.22875 151.101493) scale(0.15 -0.15)">
       <defs>
        <path id="DejaVuSans-34" d="M 2419 4116 
L 825 1625 
L 2419 1625 
L 2419 4116 
z
M 2253 4666 
L 3047 4666 
L 3047 1625 
L 3713 1625 
L 3713 1100 
L 3047 1100 
L 3047 0 
L 2419 0 
L 2419 1100 
L 313 1100 
L 313 1709 
L 2253 4666 
z
" transform="scale(0.015625)"/>
       </defs>
       <use xlink:href="#DejaVuSans-34"/>
       <use xlink:href="#DejaVuSans-30" x="63.623047"/>
      </g>
     </g>
    </g>
    <g id="ytick_4">
     <g id="text_7">
      <!-- 60 -->
      <g style="fill: #262626" transform="translate(36.22875 108.979153) scale(0.15 -0.15)">
       <defs>
        <path id="DejaVuSans-36" d="M 2113 2584 
Q 1688 2584 1439 2293 
Q 1191 2003 1191 1497 
Q 1191 994 1439 701 
Q 1688 409 2113 409 
Q 2538 409 2786 701 
Q 3034 994 3034 1497 
Q 3034 2003 2786 2293 
Q 2538 2584 2113 2584 
z
M 3366 4563 
L 3366 3988 
Q 3128 4100 2886 4159 
Q 2644 4219 2406 4219 
Q 1781 4219 1451 3797 
Q 1122 3375 1075 2522 
Q 1259 2794 1537 2939 
Q 1816 3084 2150 3084 
Q 2853 3084 3261 2657 
Q 3669 2231 3669 1497 
Q 3669 778 3244 343 
Q 2819 -91 2113 -91 
Q 1303 -91 875 529 
Q 447 1150 447 2328 
Q 447 3434 972 4092 
Q 1497 4750 2381 4750 
Q 2619 4750 2861 4703 
Q 3103 4656 3366 4563 
z
" transform="scale(0.015625)"/>
       </defs>
       <use xlink:href="#DejaVuSans-36"/>
       <use xlink:href="#DejaVuSans-30" x="63.623047"/>
      </g>
     </g>
    </g>
    <g id="ytick_5">
     <g id="text_8">
      <!-- 80 -->
      <g style="fill: #262626" transform="translate(36.22875 66.856812) scale(0.15 -0.15)">
       <defs>
        <path id="DejaVuSans-38" d="M 2034 2216 
Q 1584 2216 1326 1975 
Q 1069 1734 1069 1313 
Q 1069 891 1326 650 
Q 1584 409 2034 409 
Q 2484 409 2743 651 
Q 3003 894 3003 1313 
Q 3003 1734 2745 1975 
Q 2488 2216 2034 2216 
z
M 1403 2484 
Q 997 2584 770 2862 
Q 544 3141 544 3541 
Q 544 4100 942 4425 
Q 1341 4750 2034 4750 
Q 2731 4750 3128 4425 
Q 3525 4100 3525 3541 
Q 3525 3141 3298 2862 
Q 3072 2584 2669 2484 
Q 3125 2378 3379 2068 
Q 3634 1759 3634 1313 
Q 3634 634 3220 271 
Q 2806 -91 2034 -91 
Q 1263 -91 848 271 
Q 434 634 434 1313 
Q 434 1759 690 2068 
Q 947 2378 1403 2484 
z
M 1172 3481 
Q 1172 3119 1398 2916 
Q 1625 2713 2034 2713 
Q 2441 2713 2670 2916 
Q 2900 3119 2900 3481 
Q 2900 3844 2670 4047 
Q 2441 4250 2034 4250 
Q 1625 4250 1398 4047 
Q 1172 3844 1172 3481 
z
" transform="scale(0.015625)"/>
       </defs>
       <use xlink:href="#DejaVuSans-38"/>
       <use xlink:href="#DejaVuSans-30" x="63.623047"/>
      </g>
     </g>
    </g>
    <g id="ytick_6">
     <g id="text_9">
      <!-- 100 -->
      <g style="fill: #262626" transform="translate(26.685 24.734471) scale(0.15 -0.15)">
       <defs>
        <path id="DejaVuSans-31" d="M 794 531 
L 1825 531 
L 1825 4091 
L 703 3866 
L 703 4441 
L 1819 4666 
L 2450 4666 
L 2450 531 
L 3481 531 
L 3481 0 
L 794 0 
L 794 531 
z
" transform="scale(0.015625)"/>
       </defs>
       <use xlink:href="#DejaVuSans-31"/>
       <use xlink:href="#DejaVuSans-30" x="63.623047"/>
       <use xlink:href="#DejaVuSans-30" x="127.246094"/>
      </g>
     </g>
    </g>
    <g id="text_10">
     <!-- V gene identity (%) -->
     <g style="fill: #262626" transform="translate(19.3575 200.68125) rotate(-90) scale(0.16 -0.16)">
      <defs>
       <path id="DejaVuSans-56" d="M 1831 0 
L 50 4666 
L 709 4666 
L 2188 738 
L 3669 4666 
L 4325 4666 
L 2547 0 
L 1831 0 
z
" transform="scale(0.015625)"/>
       <path id="DejaVuSans-20" transform="scale(0.015625)"/>
       <path id="DejaVuSans-67" d="M 2906 1791 
Q 2906 2416 2648 2759 
Q 2391 3103 1925 3103 
Q 1463 3103 1205 2759 
Q 947 2416 947 1791 
Q 947 1169 1205 825 
Q 1463 481 1925 481 
Q 2391 481 2648 825 
Q 2906 1169 2906 1791 
z
M 3481 434 
Q 3481 -459 3084 -895 
Q 2688 -1331 1869 -1331 
Q 1566 -1331 1297 -1286 
Q 1028 -1241 775 -1147 
L 775 -588 
Q 1028 -725 1275 -790 
Q 1522 -856 1778 -856 
Q 2344 -856 2625 -561 
Q 2906 -266 2906 331 
L 2906 616 
Q 2728 306 2450 153 
Q 2172 0 1784 0 
Q 1141 0 747 490 
Q 353 981 353 1791 
Q 353 2603 747 3093 
Q 1141 3584 1784 3584 
Q 2172 3584 2450 3431 
Q 2728 3278 2906 2969 
L 2906 3500 
L 3481 3500 
L 3481 434 
z
" transform="scale(0.015625)"/>
       <path id="DejaVuSans-65" d="M 3597 1894 
L 3597 1613 
L 953 1613 
Q 991 1019 1311 708 
Q 1631 397 2203 397 
Q 2534 397 2845 478 
Q 3156 559 3463 722 
L 3463 178 
Q 3153 47 2828 -22 
Q 2503 -91 2169 -91 
Q 1331 -91 842 396 
Q 353 884 353 1716 
Q 353 2575 817 3079 
Q 1281 3584 2069 3584 
Q 2775 3584 3186 3129 
Q 3597 2675 3597 1894 
z
M 3022 2063 
Q 3016 2534 2758 2815 
Q 2500 3097 2075 3097 
Q 1594 3097 1305 2825 
Q 1016 2553 972 2059 
L 3022 2063 
z
" transform="scale(0.015625)"/>
       <path id="DejaVuSans-69" d="M 603 3500 
L 1178 3500 
L 1178 0 
L 603 0 
L 603 3500 
z
M 603 4863 
L 1178 4863 
L 1178 4134 
L 603 4134 
L 603 4863 
z
" transform="scale(0.015625)"/>
       <path id="DejaVuSans-64" d="M 2906 2969 
L 2906 4863 
L 3481 4863 
L 3481 0 
L 2906 0 
L 2906 525 
Q 2725 213 2448 61 
Q 2172 -91 1784 -91 
Q 1150 -91 751 415 
Q 353 922 353 1747 
Q 353 2572 751 3078 
Q 1150 3584 1784 3584 
Q 2172 3584 2448 3432 
Q 2725 3281 2906 2969 
z
M 947 1747 
Q 947 1113 1208 752 
Q 1469 391 1925 391 
Q 2381 391 2643 752 
Q 2906 1113 2906 1747 
Q 2906 2381 2643 2742 
Q 2381 3103 1925 3103 
Q 1469 3103 1208 2742 
Q 947 2381 947 1747 
z
" transform="scale(0.015625)"/>
       <path id="DejaVuSans-74" d="M 1172 4494 
L 1172 3500 
L 2356 3500 
L 2356 3053 
L 1172 3053 
L 1172 1153 
Q 1172 725 1289 603 
Q 1406 481 1766 481 
L 2356 481 
L 2356 0 
L 1766 0 
Q 1100 0 847 248 
Q 594 497 594 1153 
L 594 3053 
L 172 3053 
L 172 3500 
L 594 3500 
L 594 4494 
L 1172 4494 
z
" transform="scale(0.015625)"/>
       <path id="DejaVuSans-79" d="M 2059 -325 
Q 1816 -950 1584 -1140 
Q 1353 -1331 966 -1331 
L 506 -1331 
L 506 -850 
L 844 -850 
Q 1081 -850 1212 -737 
Q 1344 -625 1503 -206 
L 1606 56 
L 191 3500 
L 800 3500 
L 1894 763 
L 2988 3500 
L 3597 3500 
L 2059 -325 
z
" transform="scale(0.015625)"/>
       <path id="DejaVuSans-28" d="M 1984 4856 
Q 1566 4138 1362 3434 
Q 1159 2731 1159 2009 
Q 1159 1288 1364 580 
Q 1569 -128 1984 -844 
L 1484 -844 
Q 1016 -109 783 600 
Q 550 1309 550 2009 
Q 550 2706 781 3412 
Q 1013 4119 1484 4856 
L 1984 4856 
z
" transform="scale(0.015625)"/>
       <path id="DejaVuSans-25" d="M 4653 2053 
Q 4381 2053 4226 1822 
Q 4072 1591 4072 1178 
Q 4072 772 4226 539 
Q 4381 306 4653 306 
Q 4919 306 5073 539 
Q 5228 772 5228 1178 
Q 5228 1588 5073 1820 
Q 4919 2053 4653 2053 
z
M 4653 2450 
Q 5147 2450 5437 2106 
Q 5728 1763 5728 1178 
Q 5728 594 5436 251 
Q 5144 -91 4653 -91 
Q 4153 -91 3862 251 
Q 3572 594 3572 1178 
Q 3572 1766 3864 2108 
Q 4156 2450 4653 2450 
z
M 1428 4353 
Q 1159 4353 1004 4120 
Q 850 3888 850 3481 
Q 850 3069 1003 2837 
Q 1156 2606 1428 2606 
Q 1700 2606 1854 2837 
Q 2009 3069 2009 3481 
Q 2009 3884 1853 4118 
Q 1697 4353 1428 4353 
z
M 4250 4750 
L 4750 4750 
L 1831 -91 
L 1331 -91 
L 4250 4750 
z
M 1428 4750 
Q 1922 4750 2215 4408 
Q 2509 4066 2509 3481 
Q 2509 2891 2217 2550 
Q 1925 2209 1428 2209 
Q 931 2209 642 2551 
Q 353 2894 353 3481 
Q 353 4063 643 4406 
Q 934 4750 1428 4750 
z
" transform="scale(0.015625)"/>
       <path id="DejaVuSans-29" d="M 513 4856 
L 1013 4856 
Q 1481 4119 1714 3412 
Q 1947 2706 1947 2009 
Q 1947 1309 1714 600 
Q 1481 -109 1013 -844 
L 513 -844 
Q 928 -128 1133 580 
Q 1338 1288 1338 2009 
Q 1338 2731 1133 3434 
Q 928 4138 513 4856 
z
" transform="scale(0.015625)"/>
      </defs>
      <use xlink:href="#DejaVuSans-56"/>
      <use xlink:href="#DejaVuSans-20" x="68.408203"/>
      <use xlink:href="#DejaVuSans-67" x="100.195312"/>
      <use xlink:href="#DejaVuSans-65" x="163.671875"/>
      <use xlink:href="#DejaVuSans-6e" x="225.195312"/>
      <use xlink:href="#DejaVuSans-65" x="288.574219"/>
      <use xlink:href="#DejaVuSans-20" x="350.097656"/>
      <use xlink:href="#DejaVuSans-69" x="381.884766"/>
      <use xlink:href="#DejaVuSans-64" x="409.667969"/>
      <use xlink:href="#DejaVuSans-65" x="473.144531"/>
      <use xlink:href="#DejaVuSans-6e" x="534.667969"/>
      <use xlink:href="#DejaVuSans-74" x="598.046875"/>
      <use xlink:href="#DejaVuSans-69" x="637.255859"/>
      <use xlink:href="#DejaVuSans-74" x="665.039062"/>
      <use xlink:href="#DejaVuSans-79" x="704.248047"/>
      <use xlink:href="#DejaVuSans-20" x="763.427734"/>
      <use xlink:href="#DejaVuSans-28" x="795.214844"/>
      <use xlink:href="#DejaVuSans-25" x="834.228516"/>
      <use xlink:href="#DejaVuSans-29" x="929.248047"/>
     </g>
    </g>
   </g>
   <g id="PolyCollection_1">
    <defs>
     <path id="m91d2469a02" d="M 149.553007 -39.26446 
L 149.552826 -39.26446 
L 149.552758 -41.39384 
L 149.552917 -43.523219 
L 149.552917 -45.652599 
L 149.552917 -47.781979 
L 149.552917 -49.911358 
L 149.552917 -52.040738 
L 149.552917 -54.170118 
L 149.552917 -56.299497 
L 149.552917 -58.428877 
L 149.552917 -60.558256 
L 149.552917 -62.687636 
L 149.552917 -64.817016 
L 149.552917 -66.946395 
L 149.552917 -69.075775 
L 149.552917 -71.205154 
L 149.552917 -73.334534 
L 149.552917 -75.463914 
L 149.552917 -77.593293 
L 149.552917 -79.722673 
L 149.552917 -81.852053 
L 149.552917 -83.981432 
L 149.552917 -86.110812 
L 149.552917 -88.240191 
L 149.552917 -90.369571 
L 149.552917 -92.498951 
L 149.552917 -94.62833 
L 149.552917 -96.75771 
L 149.552917 -98.887089 
L 149.552917 -101.016469 
L 149.552917 -103.145849 
L 149.552917 -105.275228 
L 149.552917 -107.404608 
L 149.552917 -109.533988 
L 149.552917 -111.663367 
L 149.552917 -113.792747 
L 149.552917 -115.922126 
L 149.552917 -118.051506 
L 149.552917 -120.180886 
L 149.552917 -122.310265 
L 149.552917 -124.439645 
L 149.552917 -126.569024 
L 149.552917 -128.698404 
L 149.552917 -130.827784 
L 149.552917 -132.957163 
L 149.552917 -135.086543 
L 149.552917 -137.215923 
L 149.552917 -139.345302 
L 149.552917 -141.474682 
L 149.552917 -143.604061 
L 149.552917 -145.733441 
L 149.552917 -147.862821 
L 149.552917 -149.9922 
L 149.552917 -152.12158 
L 149.552917 -154.250959 
L 149.552917 -156.380339 
L 149.552878 -158.509719 
L 149.552633 -160.639098 
L 149.552596 -162.768478 
L 149.552878 -164.897858 
L 149.552084 -167.027237 
L 149.551837 -169.156617 
L 149.550496 -171.285996 
L 149.55093 -173.415376 
L 149.549359 -175.544756 
L 149.548617 -177.674135 
L 149.54519 -179.803515 
L 149.536866 -181.932894 
L 149.532778 -184.062274 
L 149.532346 -186.191654 
L 149.519151 -188.321033 
L 149.510224 -190.450413 
L 149.494365 -192.579793 
L 149.469458 -194.709172 
L 149.461177 -196.838552 
L 149.42285 -198.967931 
L 149.396584 -201.097311 
L 149.36713 -203.226691 
L 149.308436 -205.35607 
L 149.199166 -207.48545 
L 149.081012 -209.614829 
L 148.890776 -211.744209 
L 148.684114 -213.873589 
L 148.427581 -216.002968 
L 148.029923 -218.132348 
L 147.39981 -220.261728 
L 146.655943 -222.391107 
L 145.782154 -224.520487 
L 144.676606 -226.649866 
L 143.320916 -228.779246 
L 141.861253 -230.908626 
L 139.84978 -233.038005 
L 137.491107 -235.167385 
L 134.770093 -237.296764 
L 130.510358 -239.426144 
L 120.873507 -241.555524 
L 111.004191 -243.684903 
L 121.296338 -245.814283 
L 79.763583 -247.943663 
L 143.625245 -250.073042 
L 155.480588 -250.073042 
L 155.480588 -250.073042 
L 219.34225 -247.943663 
L 177.809496 -245.814283 
L 188.101642 -243.684903 
L 178.232326 -241.555524 
L 168.595476 -239.426144 
L 164.33574 -237.296764 
L 161.614726 -235.167385 
L 159.256053 -233.038005 
L 157.24458 -230.908626 
L 155.784917 -228.779246 
L 154.429227 -226.649866 
L 153.32368 -224.520487 
L 152.44989 -222.391107 
L 151.706023 -220.261728 
L 151.07591 -218.132348 
L 150.678252 -216.002968 
L 150.42172 -213.873589 
L 150.215057 -211.744209 
L 150.024821 -209.614829 
L 149.906667 -207.48545 
L 149.797398 -205.35607 
L 149.738704 -203.226691 
L 149.709249 -201.097311 
L 149.682983 -198.967931 
L 149.644656 -196.838552 
L 149.636375 -194.709172 
L 149.611468 -192.579793 
L 149.59561 -190.450413 
L 149.586682 -188.321033 
L 149.573488 -186.191654 
L 149.573055 -184.062274 
L 149.568967 -181.932894 
L 149.560644 -179.803515 
L 149.557216 -177.674135 
L 149.556474 -175.544756 
L 149.554904 -173.415376 
L 149.555337 -171.285996 
L 149.553996 -169.156617 
L 149.55375 -167.027237 
L 149.552955 -164.897858 
L 149.553237 -162.768478 
L 149.5532 -160.639098 
L 149.552956 -158.509719 
L 149.552917 -156.380339 
L 149.552917 -154.250959 
L 149.552917 -152.12158 
L 149.552917 -149.9922 
L 149.552917 -147.862821 
L 149.552917 -145.733441 
L 149.552917 -143.604061 
L 149.552917 -141.474682 
L 149.552917 -139.345302 
L 149.552917 -137.215923 
L 149.552917 -135.086543 
L 149.552917 -132.957163 
L 149.552917 -130.827784 
L 149.552917 -128.698404 
L 149.552917 -126.569024 
L 149.552917 -124.439645 
L 149.552917 -122.310265 
L 149.552917 -120.180886 
L 149.552917 -118.051506 
L 149.552917 -115.922126 
L 149.552917 -113.792747 
L 149.552917 -111.663367 
L 149.552917 -109.533988 
L 149.552917 -107.404608 
L 149.552917 -105.275228 
L 149.552917 -103.145849 
L 149.552917 -101.016469 
L 149.552917 -98.887089 
L 149.552917 -96.75771 
L 149.552917 -94.62833 
L 149.552917 -92.498951 
L 149.552917 -90.369571 
L 149.552917 -88.240191 
L 149.552917 -86.110812 
L 149.552917 -83.981432 
L 149.552917 -81.852053 
L 149.552917 -79.722673 
L 149.552917 -77.593293 
L 149.552917 -75.463914 
L 149.552917 -73.334534 
L 149.552917 -71.205154 
L 149.552917 -69.075775 
L 149.552917 -66.946395 
L 149.552917 -64.817016 
L 149.552917 -62.687636 
L 149.552917 -60.558256 
L 149.552917 -58.428877 
L 149.552917 -56.299497 
L 149.552917 -54.170118 
L 149.552917 -52.040738 
L 149.552917 -49.911358 
L 149.552917 -47.781979 
L 149.552917 -45.652599 
L 149.552917 -43.523219 
L 149.553075 -41.39384 
L 149.553007 -39.26446 
z
" style="stroke: #282828; stroke-width: 1.25"/>
    </defs>
    <g clip-path="url(#p8d127e7975)">
     <use xlink:href="#m91d2469a02" x="0" y="267.957188" style="fill: #4e9f3b; stroke: #282828; stroke-width: 1.25"/>
    </g>
   </g>
   <g id="PolyCollection_2">
    <defs>
     <path id="m540f2188fa" d="M 324.02634 -56.139471 
L 324.02616 -56.139471 
L 324.026028 -58.098133 
L 324.02625 -60.056794 
L 324.02625 -62.015456 
L 324.02625 -63.974118 
L 324.02625 -65.932779 
L 324.02625 -67.891441 
L 324.02625 -69.850102 
L 324.02625 -71.808764 
L 324.02625 -73.767425 
L 324.02625 -75.726087 
L 324.02625 -77.684749 
L 324.02625 -79.64341 
L 324.02625 -81.602072 
L 324.02625 -83.560733 
L 324.02625 -85.519395 
L 324.02625 -87.478057 
L 324.02625 -89.436718 
L 324.02625 -91.39538 
L 324.02625 -93.354041 
L 324.02625 -95.312703 
L 324.02625 -97.271364 
L 324.02625 -99.230026 
L 324.02625 -101.188688 
L 324.02625 -103.147349 
L 324.02625 -105.106011 
L 324.02625 -107.064672 
L 324.02625 -109.023334 
L 324.02625 -110.981995 
L 324.02625 -112.940657 
L 324.02625 -114.899319 
L 324.02625 -116.85798 
L 324.02625 -118.816642 
L 324.02625 -120.775303 
L 324.02625 -122.733965 
L 324.02625 -124.692626 
L 324.02625 -126.651288 
L 324.02625 -128.60995 
L 324.02625 -130.568611 
L 324.02625 -132.527273 
L 324.02625 -134.485934 
L 324.02625 -136.444596 
L 324.02625 -138.403258 
L 324.02625 -140.361919 
L 324.02625 -142.320581 
L 324.026139 -144.279242 
L 324.026063 -146.237904 
L 324.02625 -148.196565 
L 324.02625 -150.155227 
L 324.02625 -152.113889 
L 324.02625 -154.07255 
L 324.02625 -156.031212 
L 324.026247 -157.989873 
L 324.025604 -159.948535 
L 324.026249 -161.907196 
L 324.02625 -163.865858 
L 324.024937 -165.82452 
L 324.022693 -167.783181 
L 324.023066 -169.741843 
L 324.024827 -171.700504 
L 324.022638 -173.659166 
L 324.021689 -175.617827 
L 324.019817 -177.576489 
L 324.018525 -179.535151 
L 324.014005 -181.493812 
L 324.010488 -183.452474 
L 324.00765 -185.411135 
L 323.998186 -187.369797 
L 323.980309 -189.328459 
L 323.971183 -191.28712 
L 323.957119 -193.245782 
L 323.948601 -195.204443 
L 323.923515 -197.163105 
L 323.914004 -199.121766 
L 323.87981 -201.080428 
L 323.814224 -203.03909 
L 323.763911 -204.997751 
L 323.694981 -206.956413 
L 323.612474 -208.915074 
L 323.504674 -210.873736 
L 323.300315 -212.832397 
L 323.003046 -214.791059 
L 322.742515 -216.749721 
L 322.259106 -218.708382 
L 321.610158 -220.667044 
L 320.82471 -222.625705 
L 320.053902 -224.584367 
L 318.999381 -226.543028 
L 317.766609 -228.50169 
L 316.122883 -230.460352 
L 314.272416 -232.419013 
L 311.978152 -234.377675 
L 309.132754 -236.336336 
L 305.704097 -238.294998 
L 300.090228 -240.25366 
L 288.1127 -242.212321 
L 288.726741 -244.170983 
L 289.216005 -246.129644 
L 254.236917 -248.088306 
L 318.162807 -250.046967 
L 329.889693 -250.046967 
L 329.889693 -250.046967 
L 393.815583 -248.088306 
L 358.836495 -246.129644 
L 359.325759 -244.170983 
L 359.9398 -242.212321 
L 347.962272 -240.25366 
L 342.348403 -238.294998 
L 338.919746 -236.336336 
L 336.074348 -234.377675 
L 333.780084 -232.419013 
L 331.929617 -230.460352 
L 330.285891 -228.50169 
L 329.053119 -226.543028 
L 327.998598 -224.584367 
L 327.22779 -222.625705 
L 326.442342 -220.667044 
L 325.793394 -218.708382 
L 325.309985 -216.749721 
L 325.049454 -214.791059 
L 324.752185 -212.832397 
L 324.547826 -210.873736 
L 324.440026 -208.915074 
L 324.357519 -206.956413 
L 324.288589 -204.997751 
L 324.238276 -203.03909 
L 324.17269 -201.080428 
L 324.138496 -199.121766 
L 324.128985 -197.163105 
L 324.103899 -195.204443 
L 324.095381 -193.245782 
L 324.081317 -191.28712 
L 324.072191 -189.328459 
L 324.054314 -187.369797 
L 324.04485 -185.411135 
L 324.042012 -183.452474 
L 324.038495 -181.493812 
L 324.033975 -179.535151 
L 324.032683 -177.576489 
L 324.030811 -175.617827 
L 324.029862 -173.659166 
L 324.027673 -171.700504 
L 324.029434 -169.741843 
L 324.029807 -167.783181 
L 324.027563 -165.82452 
L 324.02625 -163.865858 
L 324.026251 -161.907196 
L 324.026896 -159.948535 
L 324.026253 -157.989873 
L 324.02625 -156.031212 
L 324.02625 -154.07255 
L 324.02625 -152.113889 
L 324.02625 -150.155227 
L 324.02625 -148.196565 
L 324.026437 -146.237904 
L 324.026361 -144.279242 
L 324.02625 -142.320581 
L 324.02625 -140.361919 
L 324.02625 -138.403258 
L 324.02625 -136.444596 
L 324.02625 -134.485934 
L 324.02625 -132.527273 
L 324.02625 -130.568611 
L 324.02625 -128.60995 
L 324.02625 -126.651288 
L 324.02625 -124.692626 
L 324.02625 -122.733965 
L 324.02625 -120.775303 
L 324.02625 -118.816642 
L 324.02625 -116.85798 
L 324.02625 -114.899319 
L 324.02625 -112.940657 
L 324.02625 -110.981995 
L 324.02625 -109.023334 
L 324.02625 -107.064672 
L 324.02625 -105.106011 
L 324.02625 -103.147349 
L 324.02625 -101.188688 
L 324.02625 -99.230026 
L 324.02625 -97.271364 
L 324.02625 -95.312703 
L 324.02625 -93.354041 
L 324.02625 -91.39538 
L 324.02625 -89.436718 
L 324.02625 -87.478057 
L 324.02625 -85.519395 
L 324.02625 -83.560733 
L 324.02625 -81.602072 
L 324.02625 -79.64341 
L 324.02625 -77.684749 
L 324.02625 -75.726087 
L 324.02625 -73.767425 
L 324.02625 -71.808764 
L 324.02625 -69.850102 
L 324.02625 -67.891441 
L 324.02625 -65.932779 
L 324.02625 -63.974118 
L 324.02625 -62.015456 
L 324.02625 -60.056794 
L 324.026472 -58.098133 
L 324.02634 -56.139471 
z
" style="stroke: #282828; stroke-width: 1.25"/>
    </defs>
    <g clip-path="url(#p8d127e7975)">
     <use xlink:href="#m540f2188fa" x="0" y="267.957188" style="fill: #aeccdb; stroke: #282828; stroke-width: 1.25"/>
    </g>
   </g>
   <g id="PolyCollection_3">
    <defs>
     <path id="m38fb548400" d="M 498.499702 -112.841684 
L 498.499464 -112.841684 
L 498.498714 -114.229242 
L 498.499522 -115.6168 
L 498.499583 -117.004358 
L 498.499583 -118.391916 
L 498.499583 -119.779474 
L 498.499583 -121.167031 
L 498.499583 -122.554589 
L 498.499583 -123.942147 
L 498.499583 -125.329705 
L 498.499583 -126.717263 
L 498.499583 -128.104821 
L 498.499583 -129.492379 
L 498.499583 -130.879937 
L 498.499583 -132.267494 
L 498.499583 -133.655052 
L 498.499583 -135.04261 
L 498.499583 -136.430168 
L 498.499583 -137.817726 
L 498.499583 -139.205284 
L 498.499583 -140.592842 
L 498.499583 -141.9804 
L 498.499583 -143.367958 
L 498.499583 -144.755515 
L 498.499583 -146.143073 
L 498.499583 -147.530631 
L 498.499583 -148.918189 
L 498.499583 -150.305747 
L 498.499583 -151.693305 
L 498.499436 -153.080863 
L 498.498734 -154.468421 
L 498.499536 -155.855979 
L 498.499583 -157.243536 
L 498.499453 -158.631094 
L 498.498721 -160.018652 
L 498.499528 -161.40621 
L 498.499577 -162.793768 
L 498.498828 -164.181326 
L 498.498073 -165.568884 
L 498.497666 -166.956442 
L 498.496645 -168.344 
L 498.495108 -169.731557 
L 498.496625 -171.119115 
L 498.495942 -172.506673 
L 498.494257 -173.894231 
L 498.491277 -175.281789 
L 498.488506 -176.669347 
L 498.4883 -178.056905 
L 498.483732 -179.444463 
L 498.485829 -180.83202 
L 498.471483 -182.219578 
L 498.463113 -183.607136 
L 498.466393 -184.994694 
L 498.446698 -186.382252 
L 498.453452 -187.76981 
L 498.449398 -189.157368 
L 498.420375 -190.544926 
L 498.412608 -191.932484 
L 498.396247 -193.320041 
L 498.373643 -194.707599 
L 498.355525 -196.095157 
L 498.323784 -197.482715 
L 498.291746 -198.870273 
L 498.243808 -200.257831 
L 498.203718 -201.645389 
L 498.168755 -203.032947 
L 498.128581 -204.420505 
L 498.058608 -205.808062 
L 497.957286 -207.19562 
L 497.851252 -208.583178 
L 497.764135 -209.970736 
L 497.636599 -211.358294 
L 497.467947 -212.745852 
L 497.189426 -214.13341 
L 496.935423 -215.520968 
L 496.612115 -216.908526 
L 496.280903 -218.296083 
L 495.826174 -219.683641 
L 495.314383 -221.071199 
L 494.596655 -222.458757 
L 494.093772 -223.846315 
L 493.424663 -225.233873 
L 492.48492 -226.621431 
L 491.687776 -228.008989 
L 490.89438 -229.396546 
L 490.011322 -230.784104 
L 488.887808 -232.171662 
L 487.552986 -233.55922 
L 485.804077 -234.946778 
L 484.193047 -236.334336 
L 482.053915 -237.721894 
L 478.686653 -239.109452 
L 473.277666 -240.49701 
L 462.966448 -241.884567 
L 453.599509 -243.272125 
L 466.234285 -244.659683 
L 462.189495 -246.047241 
L 428.71025 -247.434799 
L 429.054205 -248.822357 
L 492.305641 -250.209915 
L 504.693526 -250.209915 
L 504.693526 -250.209915 
L 567.944961 -248.822357 
L 568.288917 -247.434799 
L 534.809672 -246.047241 
L 530.764882 -244.659683 
L 543.399658 -243.272125 
L 534.032719 -241.884567 
L 523.721501 -240.49701 
L 518.312514 -239.109452 
L 514.945251 -237.721894 
L 512.80612 -236.334336 
L 511.19509 -234.946778 
L 509.446181 -233.55922 
L 508.111358 -232.171662 
L 506.987845 -230.784104 
L 506.104787 -229.396546 
L 505.311391 -228.008989 
L 504.514247 -226.621431 
L 503.574504 -225.233873 
L 502.905394 -223.846315 
L 502.402512 -222.458757 
L 501.684784 -221.071199 
L 501.172993 -219.683641 
L 500.718264 -218.296083 
L 500.387052 -216.908526 
L 500.063744 -215.520968 
L 499.80974 -214.13341 
L 499.531219 -212.745852 
L 499.362568 -211.358294 
L 499.235032 -209.970736 
L 499.147915 -208.583178 
L 499.041881 -207.19562 
L 498.940558 -205.808062 
L 498.870585 -204.420505 
L 498.830412 -203.032947 
L 498.795449 -201.645389 
L 498.755359 -200.257831 
L 498.707421 -198.870273 
L 498.675382 -197.482715 
L 498.643641 -196.095157 
L 498.625524 -194.707599 
L 498.60292 -193.320041 
L 498.586559 -191.932484 
L 498.578792 -190.544926 
L 498.549768 -189.157368 
L 498.545715 -187.76981 
L 498.552468 -186.382252 
L 498.532773 -184.994694 
L 498.536054 -183.607136 
L 498.527684 -182.219578 
L 498.513338 -180.83202 
L 498.515434 -179.444463 
L 498.510867 -178.056905 
L 498.51066 -176.669347 
L 498.507889 -175.281789 
L 498.50491 -173.894231 
L 498.503225 -172.506673 
L 498.502542 -171.119115 
L 498.504058 -169.731557 
L 498.502521 -168.344 
L 498.501501 -166.956442 
L 498.501093 -165.568884 
L 498.500339 -164.181326 
L 498.49959 -162.793768 
L 498.499638 -161.40621 
L 498.500445 -160.018652 
L 498.499714 -158.631094 
L 498.499584 -157.243536 
L 498.499631 -155.855979 
L 498.500432 -154.468421 
L 498.499731 -153.080863 
L 498.499584 -151.693305 
L 498.499583 -150.305747 
L 498.499583 -148.918189 
L 498.499583 -147.530631 
L 498.499583 -146.143073 
L 498.499583 -144.755515 
L 498.499583 -143.367958 
L 498.499583 -141.9804 
L 498.499583 -140.592842 
L 498.499583 -139.205284 
L 498.499583 -137.817726 
L 498.499583 -136.430168 
L 498.499583 -135.04261 
L 498.499583 -133.655052 
L 498.499583 -132.267494 
L 498.499583 -130.879937 
L 498.499583 -129.492379 
L 498.499583 -128.104821 
L 498.499583 -126.717263 
L 498.499583 -125.329705 
L 498.499583 -123.942147 
L 498.499583 -122.554589 
L 498.499583 -121.167031 
L 498.499583 -119.779474 
L 498.499583 -118.391916 
L 498.499583 -117.004358 
L 498.499645 -115.6168 
L 498.500452 -114.229242 
L 498.499702 -112.841684 
z
" style="stroke: #282828; stroke-width: 1.25"/>
    </defs>
    <g clip-path="url(#p8d127e7975)">
     <use xlink:href="#m38fb548400" x="0" y="267.957188" style="fill: #115475; stroke: #282828; stroke-width: 1.25"/>
    </g>
   </g>
   <g id="line2d_1">
    <path d="M 149.552917 43.946795 
L 149.552917 19.035643 
" clip-path="url(#p8d127e7975)" style="fill: none; stroke: #282828; stroke-width: 1.875; stroke-linecap: round"/>
   </g>
   <g id="line2d_2">
    <path d="M 149.552917 29.987451 
L 149.552917 20.68052 
" clip-path="url(#p8d127e7975)" style="fill: none; stroke: #282828; stroke-width: 5.625; stroke-linecap: round"/>
   </g>
   <g id="line2d_3">
    <path d="M 149.552917 24.816934 
" clip-path="url(#p8d127e7975)" style="fill: none; stroke: #282828; stroke-width: 1.5; stroke-linecap: round"/>
    <defs>
     <path id="m4bfd630285" d="M 2.34375 0 
L -2.34375 -0 
" style="stroke: #ffffff; stroke-width: 1.125"/>
    </defs>
    <g clip-path="url(#p8d127e7975)">
     <use xlink:href="#m4bfd630285" x="149.552917" y="24.816934" style="fill: #ffffff; stroke: #ffffff; stroke-width: 1.125"/>
    </g>
   </g>
   <g id="line2d_4">
    <path d="M 324.02625 45.275755 
L 324.02625 19.035643 
" clip-path="url(#p8d127e7975)" style="fill: none; stroke: #282828; stroke-width: 1.875; stroke-linecap: round"/>
   </g>
   <g id="line2d_5">
    <path d="M 324.02625 30.553997 
L 324.02625 20.701581 
" clip-path="url(#p8d127e7975)" style="fill: none; stroke: #282828; stroke-width: 5.625; stroke-linecap: round"/>
   </g>
   <g id="line2d_6">
    <path d="M 324.02625 24.840101 
" clip-path="url(#p8d127e7975)" style="fill: none; stroke: #282828; stroke-width: 1.5; stroke-linecap: round"/>
    <g clip-path="url(#p8d127e7975)">
     <use xlink:href="#m4bfd630285" x="324.02625" y="24.840101" style="fill: #ffffff; stroke: #ffffff; stroke-width: 1.125"/>
    </g>
   </g>
   <g id="line2d_7">
    <path d="M 498.499583 45.119902 
L 498.499583 19.035643 
" clip-path="url(#p8d127e7975)" style="fill: none; stroke: #282828; stroke-width: 1.875; stroke-linecap: round"/>
   </g>
   <g id="line2d_8">
    <path d="M 498.499583 30.463434 
L 498.499583 20.68052 
" clip-path="url(#p8d127e7975)" style="fill: none; stroke: #282828; stroke-width: 5.625; stroke-linecap: round"/>
   </g>
   <g id="line2d_9">
    <path d="M 498.499583 24.793767 
" clip-path="url(#p8d127e7975)" style="fill: none; stroke: #282828; stroke-width: 1.5; stroke-linecap: round"/>
    <g clip-path="url(#p8d127e7975)">
     <use xlink:href="#m4bfd630285" x="498.499583" y="24.793767" style="fill: #ffffff; stroke: #ffffff; stroke-width: 1.125"/>
    </g>
   </g>
   <g id="patch_3">
    <path d="M 62.31625 239.24 
L 62.31625 7.2 
" style="fill: none; stroke: #262626; stroke-width: 2; stroke-linejoin: miter; stroke-linecap: square"/>
   </g>
   <g id="patch_4">
    <path d="M 585.73625 239.24 
L 585.73625 7.2 
" style="fill: none; stroke: #262626; stroke-width: 2; stroke-linejoin: miter; stroke-linecap: square"/>
   </g>
   <g id="patch_5">
    <path d="M 62.31625 239.24 
L 585.73625 239.24 
" style="fill: none; stroke: #262626; stroke-width: 2; stroke-linejoin: miter; stroke-linecap: square"/>
   </g>
   <g id="patch_6">
    <path d="M 62.31625 7.2 
L 585.73625 7.2 
" style="fill: none; stroke: #262626; stroke-width: 2; stroke-linejoin: miter; stroke-linecap: square"/>
   </g>
   <g id="text_11">
    <g id="patch_7">
     <path d="M 150.74983 103.695567 
L 228.613736 103.695567 
L 228.613736 83.054005 
L 150.74983 83.054005 
z
" style="fill: #ffffff; opacity: 0.8"/>
    </g>
    <!-- Avg: 96.31 -->
    <g style="fill: #262626" transform="translate(154.77983 96.961973) scale(0.13 -0.13)">
     <defs>
      <path id="DejaVuSans-76" d="M 191 3500 
L 800 3500 
L 1894 563 
L 2988 3500 
L 3597 3500 
L 2284 0 
L 1503 0 
L 191 3500 
z
" transform="scale(0.015625)"/>
      <path id="DejaVuSans-3a" d="M 750 794 
L 1409 794 
L 1409 0 
L 750 0 
L 750 794 
z
M 750 3309 
L 1409 3309 
L 1409 2516 
L 750 2516 
L 750 3309 
z
" transform="scale(0.015625)"/>
      <path id="DejaVuSans-39" d="M 703 97 
L 703 672 
Q 941 559 1184 500 
Q 1428 441 1663 441 
Q 2288 441 2617 861 
Q 2947 1281 2994 2138 
Q 2813 1869 2534 1725 
Q 2256 1581 1919 1581 
Q 1219 1581 811 2004 
Q 403 2428 403 3163 
Q 403 3881 828 4315 
Q 1253 4750 1959 4750 
Q 2769 4750 3195 4129 
Q 3622 3509 3622 2328 
Q 3622 1225 3098 567 
Q 2575 -91 1691 -91 
Q 1453 -91 1209 -44 
Q 966 3 703 97 
z
M 1959 2075 
Q 2384 2075 2632 2365 
Q 2881 2656 2881 3163 
Q 2881 3666 2632 3958 
Q 2384 4250 1959 4250 
Q 1534 4250 1286 3958 
Q 1038 3666 1038 3163 
Q 1038 2656 1286 2365 
Q 1534 2075 1959 2075 
z
" transform="scale(0.015625)"/>
      <path id="DejaVuSans-2e" d="M 684 794 
L 1344 794 
L 1344 0 
L 684 0 
L 684 794 
z
" transform="scale(0.015625)"/>
      <path id="DejaVuSans-33" d="M 2597 2516 
Q 3050 2419 3304 2112 
Q 3559 1806 3559 1356 
Q 3559 666 3084 287 
Q 2609 -91 1734 -91 
Q 1441 -91 1130 -33 
Q 819 25 488 141 
L 488 750 
Q 750 597 1062 519 
Q 1375 441 1716 441 
Q 2309 441 2620 675 
Q 2931 909 2931 1356 
Q 2931 1769 2642 2001 
Q 2353 2234 1838 2234 
L 1294 2234 
L 1294 2753 
L 1863 2753 
Q 2328 2753 2575 2939 
Q 2822 3125 2822 3475 
Q 2822 3834 2567 4026 
Q 2313 4219 1838 4219 
Q 1578 4219 1281 4162 
Q 984 4106 628 3988 
L 628 4550 
Q 988 4650 1302 4700 
Q 1616 4750 1894 4750 
Q 2613 4750 3031 4423 
Q 3450 4097 3450 3541 
Q 3450 3153 3228 2886 
Q 3006 2619 2597 2516 
z
" transform="scale(0.015625)"/>
     </defs>
     <use xlink:href="#DejaVuSans-41"/>
     <use xlink:href="#DejaVuSans-76" x="62.533203"/>
     <use xlink:href="#DejaVuSans-67" x="121.712891"/>
     <use xlink:href="#DejaVuSans-3a" x="185.189453"/>
     <use xlink:href="#DejaVuSans-20" x="218.880859"/>
     <use xlink:href="#DejaVuSans-39" x="250.667969"/>
     <use xlink:href="#DejaVuSans-36" x="314.291016"/>
     <use xlink:href="#DejaVuSans-2e" x="377.914062"/>
     <use xlink:href="#DejaVuSans-33" x="409.701172"/>
     <use xlink:href="#DejaVuSans-31" x="473.324219"/>
    </g>
   </g>
   <g id="text_12">
    <g id="patch_8">
     <path d="M 151.135768 122.65062 
L 228.227799 122.65062 
L 228.227799 102.009058 
L 151.135768 102.009058 
z
" style="fill: #ffffff; opacity: 0.8"/>
    </g>
    <!-- #: 580748 -->
    <g style="fill: #262626" transform="translate(155.165768 115.917027) scale(0.13 -0.13)">
     <defs>
      <path id="DejaVuSans-23" d="M 3272 2816 
L 2363 2816 
L 2100 1772 
L 3016 1772 
L 3272 2816 
z
M 2803 4594 
L 2478 3297 
L 3391 3297 
L 3719 4594 
L 4219 4594 
L 3897 3297 
L 4872 3297 
L 4872 2816 
L 3775 2816 
L 3519 1772 
L 4513 1772 
L 4513 1294 
L 3397 1294 
L 3072 0 
L 2572 0 
L 2894 1294 
L 1978 1294 
L 1656 0 
L 1153 0 
L 1478 1294 
L 494 1294 
L 494 1772 
L 1594 1772 
L 1856 2816 
L 850 2816 
L 850 3297 
L 1978 3297 
L 2297 4594 
L 2803 4594 
z
" transform="scale(0.015625)"/>
      <path id="DejaVuSans-35" d="M 691 4666 
L 3169 4666 
L 3169 4134 
L 1269 4134 
L 1269 2991 
Q 1406 3038 1543 3061 
Q 1681 3084 1819 3084 
Q 2600 3084 3056 2656 
Q 3513 2228 3513 1497 
Q 3513 744 3044 326 
Q 2575 -91 1722 -91 
Q 1428 -91 1123 -41 
Q 819 9 494 109 
L 494 744 
Q 775 591 1075 516 
Q 1375 441 1709 441 
Q 2250 441 2565 725 
Q 2881 1009 2881 1497 
Q 2881 1984 2565 2268 
Q 2250 2553 1709 2553 
Q 1456 2553 1204 2497 
Q 953 2441 691 2322 
L 691 4666 
z
" transform="scale(0.015625)"/>
      <path id="DejaVuSans-37" d="M 525 4666 
L 3525 4666 
L 3525 4397 
L 1831 0 
L 1172 0 
L 2766 4134 
L 525 4134 
L 525 4666 
z
" transform="scale(0.015625)"/>
     </defs>
     <use xlink:href="#DejaVuSans-23"/>
     <use xlink:href="#DejaVuSans-3a" x="83.789062"/>
     <use xlink:href="#DejaVuSans-20" x="117.480469"/>
     <use xlink:href="#DejaVuSans-35" x="149.267578"/>
     <use xlink:href="#DejaVuSans-38" x="212.890625"/>
     <use xlink:href="#DejaVuSans-30" x="276.513672"/>
     <use xlink:href="#DejaVuSans-37" x="340.136719"/>
     <use xlink:href="#DejaVuSans-34" x="403.759766"/>
     <use xlink:href="#DejaVuSans-38" x="467.382812"/>
    </g>
   </g>
   <g id="text_13">
    <g id="patch_9">
     <path d="M 325.223164 103.695567 
L 403.08707 103.695567 
L 403.08707 83.054005 
L 325.223164 83.054005 
z
" style="fill: #ffffff; opacity: 0.8"/>
    </g>
    <!-- Avg: 96.24 -->
    <g style="fill: #262626" transform="translate(329.253164 96.961973) scale(0.13 -0.13)">
     <use xlink:href="#DejaVuSans-41"/>
     <use xlink:href="#DejaVuSans-76" x="62.533203"/>
     <use xlink:href="#DejaVuSans-67" x="121.712891"/>
     <use xlink:href="#DejaVuSans-3a" x="185.189453"/>
     <use xlink:href="#DejaVuSans-20" x="218.880859"/>
     <use xlink:href="#DejaVuSans-39" x="250.667969"/>
     <use xlink:href="#DejaVuSans-36" x="314.291016"/>
     <use xlink:href="#DejaVuSans-2e" x="377.914062"/>
     <use xlink:href="#DejaVuSans-32" x="409.701172"/>
     <use xlink:href="#DejaVuSans-34" x="473.324219"/>
    </g>
   </g>
   <g id="text_14">
    <g id="patch_10">
     <path d="M 325.609101 122.65062 
L 402.701132 122.65062 
L 402.701132 102.009058 
L 325.609101 102.009058 
z
" style="fill: #ffffff; opacity: 0.8"/>
    </g>
    <!-- #: 626718 -->
    <g style="fill: #262626" transform="translate(329.639101 115.917027) scale(0.13 -0.13)">
     <use xlink:href="#DejaVuSans-23"/>
     <use xlink:href="#DejaVuSans-3a" x="83.789062"/>
     <use xlink:href="#DejaVuSans-20" x="117.480469"/>
     <use xlink:href="#DejaVuSans-36" x="149.267578"/>
     <use xlink:href="#DejaVuSans-32" x="212.890625"/>
     <use xlink:href="#DejaVuSans-36" x="276.513672"/>
     <use xlink:href="#DejaVuSans-37" x="340.136719"/>
     <use xlink:href="#DejaVuSans-31" x="403.759766"/>
     <use xlink:href="#DejaVuSans-38" x="467.382812"/>
    </g>
   </g>
   <g id="text_15">
    <g id="patch_11">
     <path d="M 499.696497 103.695567 
L 577.560403 103.695567 
L 577.560403 83.054005 
L 499.696497 83.054005 
z
" style="fill: #ffffff; opacity: 0.8"/>
    </g>
    <!-- Avg: 96.19 -->
    <g style="fill: #262626" transform="translate(503.726497 96.961973) scale(0.13 -0.13)">
     <use xlink:href="#DejaVuSans-41"/>
     <use xlink:href="#DejaVuSans-76" x="62.533203"/>
     <use xlink:href="#DejaVuSans-67" x="121.712891"/>
     <use xlink:href="#DejaVuSans-3a" x="185.189453"/>
     <use xlink:href="#DejaVuSans-20" x="218.880859"/>
     <use xlink:href="#DejaVuSans-39" x="250.667969"/>
     <use xlink:href="#DejaVuSans-36" x="314.291016"/>
     <use xlink:href="#DejaVuSans-2e" x="377.914062"/>
     <use xlink:href="#DejaVuSans-31" x="409.701172"/>
     <use xlink:href="#DejaVuSans-39" x="473.324219"/>
    </g>
   </g>
   <g id="text_16">
    <g id="patch_12">
     <path d="M 500.082434 122.65062 
L 577.174466 122.65062 
L 577.174466 102.009058 
L 500.082434 102.009058 
z
" style="fill: #ffffff; opacity: 0.8"/>
    </g>
    <!-- #: 454462 -->
    <g style="fill: #262626" transform="translate(504.112434 115.917027) scale(0.13 -0.13)">
     <use xlink:href="#DejaVuSans-23"/>
     <use xlink:href="#DejaVuSans-3a" x="83.789062"/>
     <use xlink:href="#DejaVuSans-20" x="117.480469"/>
     <use xlink:href="#DejaVuSans-34" x="149.267578"/>
     <use xlink:href="#DejaVuSans-35" x="212.890625"/>
     <use xlink:href="#DejaVuSans-34" x="276.513672"/>
     <use xlink:href="#DejaVuSans-34" x="340.136719"/>
     <use xlink:href="#DejaVuSans-36" x="403.759766"/>
     <use xlink:href="#DejaVuSans-32" x="467.382812"/>
    </g>
   </g>
  </g>
 </g>
 <defs>
  <clipPath id="p8d127e7975">
   <rect x="62.31625" y="7.2" width="523.42" height="232.04"/>
  </clipPath>
 </defs>
</svg>
