<?xml version="1.0" encoding="utf-8" standalone="no"?>
<!DOCTYPE svg PUBLIC "-//W3C//DTD SVG 1.1//EN"
  "http://www.w3.org/Graphics/SVG/1.1/DTD/svg11.dtd">
<svg xmlns:xlink="http://www.w3.org/1999/xlink" width="1008pt" height="432pt" viewBox="0 0 1008 432" xmlns="http://www.w3.org/2000/svg" version="1.1">
 <metadata>
  <rdf:RDF xmlns:dc="http://purl.org/dc/elements/1.1/" xmlns:cc="http://creativecommons.org/ns#" xmlns:rdf="http://www.w3.org/1999/02/22-rdf-syntax-ns#">
   <cc:Work>
    <dc:type rdf:resource="http://purl.org/dc/dcmitype/StillImage"/>
    <dc:date>2024-10-11T23:35:06.263049</dc:date>
    <dc:format>image/svg+xml</dc:format>
    <dc:creator>
     <cc:Agent>
      <dc:title>Matplotlib v3.7.5, https://matplotlib.org/</dc:title>
     </cc:Agent>
    </dc:creator>
   </cc:Work>
  </rdf:RDF>
 </metadata>
 <defs>
  <style type="text/css">*{stroke-linejoin: round; stroke-linecap: butt}</style>
 </defs>
 <g id="figure_1">
  <g id="patch_1">
   <path d="M 0 432 
L 1008 432 
L 1008 0 
L 0 0 
L 0 432 
z
" style="fill: none"/>
  </g>
  <g id="axes_1">
   <g id="patch_2">
    <path d="M 126 378 
L 907.2 378 
L 907.2 51.84 
L 126 51.84 
z
" style="fill: #ffffff"/>
   </g>
   <g id="PolyCollection_1">
    <defs>
     <path id="m4de508e5c1" d="M 256.210015 -69.263697 
L 256.189985 -69.263697 
L 256.130171 -72.175663 
L 255.917219 -75.087629 
L 255.547111 -77.999595 
L 255.254479 -80.911561 
L 254.996313 -83.823527 
L 254.309873 -86.735492 
L 252.960939 -89.647458 
L 251.114509 -92.559424 
L 248.856896 -95.47139 
L 246.122642 -98.383356 
L 241.471208 -101.295321 
L 233.629691 -104.207287 
L 224.660033 -107.119253 
L 214.927224 -110.031219 
L 201.768209 -112.943185 
L 186.222556 -115.855151 
L 171.996163 -118.767116 
L 159.159542 -121.679082 
L 152.04 -124.591048 
L 153.567414 -127.503014 
L 159.259161 -130.41498 
L 166.255512 -133.326945 
L 173.791129 -136.238911 
L 181.068231 -139.150877 
L 187.618087 -142.062843 
L 194.104551 -144.974809 
L 201.384852 -147.886774 
L 209.020627 -150.79874 
L 217.846588 -153.710706 
L 227.81904 -156.622672 
L 235.811321 -159.534638 
L 240.549968 -162.446604 
L 243.651265 -165.358569 
L 246.519484 -168.270535 
L 249.001557 -171.182501 
L 250.759287 -174.094467 
L 252.131776 -177.006433 
L 253.143171 -179.918398 
L 253.311367 -182.830364 
L 253.035151 -185.74233 
L 253.33986 -188.654296 
L 254.00232 -191.566262 
L 254.499472 -194.478227 
L 254.743657 -197.390193 
L 254.745957 -200.302159 
L 254.712672 -203.214125 
L 254.862493 -206.126091 
L 255.117089 -209.038057 
L 255.386105 -211.950022 
L 255.67977 -214.861988 
L 255.835457 -217.773954 
L 255.777898 -220.68592 
L 255.667839 -223.597886 
L 255.665151 -226.509851 
L 255.76292 -229.421817 
L 255.859817 -232.333783 
L 255.864049 -235.245749 
L 255.816735 -238.157715 
L 255.860863 -241.069681 
L 256.007348 -243.981646 
L 256.094129 -246.893612 
L 256.063 -249.805578 
L 255.949065 -252.717544 
L 255.866166 -255.62951 
L 255.877227 -258.541475 
L 255.814414 -261.453441 
L 255.775039 -264.365407 
L 255.896093 -267.277373 
L 256.040963 -270.189339 
L 256.093755 -273.101304 
L 256.042439 -276.01327 
L 255.997004 -278.925236 
L 256.045303 -281.837202 
L 256.128621 -284.749168 
L 256.152744 -287.661134 
L 256.105555 -290.573099 
L 256.056151 -293.485065 
L 256.024634 -296.397031 
L 256.002131 -299.308997 
L 256.042044 -302.220963 
L 256.114659 -305.132928 
L 256.145751 -308.044894 
L 256.145842 -310.95686 
L 256.148899 -313.868826 
L 256.135161 -316.780792 
L 256.119357 -319.692757 
L 256.136842 -322.604723 
L 256.173062 -325.516689 
L 256.194284 -328.428655 
L 256.197431 -331.340621 
L 256.183093 -334.252587 
L 256.139361 -337.164552 
L 256.105562 -340.076518 
L 256.134706 -342.988484 
L 256.169516 -345.90045 
L 256.161876 -348.812416 
L 256.153373 -351.724381 
L 256.173817 -354.636347 
L 256.193615 -357.548313 
L 256.206385 -357.548313 
L 256.206385 -357.548313 
L 256.226183 -354.636347 
L 256.246627 -351.724381 
L 256.238124 -348.812416 
L 256.230484 -345.90045 
L 256.265294 -342.988484 
L 256.294438 -340.076518 
L 256.260639 -337.164552 
L 256.216907 -334.252587 
L 256.202569 -331.340621 
L 256.205716 -328.428655 
L 256.226938 -325.516689 
L 256.263158 -322.604723 
L 256.280643 -319.692757 
L 256.264839 -316.780792 
L 256.251101 -313.868826 
L 256.254158 -310.95686 
L 256.254249 -308.044894 
L 256.285341 -305.132928 
L 256.357956 -302.220963 
L 256.397869 -299.308997 
L 256.375366 -296.397031 
L 256.343849 -293.485065 
L 256.294445 -290.573099 
L 256.247256 -287.661134 
L 256.271379 -284.749168 
L 256.354697 -281.837202 
L 256.402996 -278.925236 
L 256.357561 -276.01327 
L 256.306245 -273.101304 
L 256.359037 -270.189339 
L 256.503907 -267.277373 
L 256.624961 -264.365407 
L 256.585586 -261.453441 
L 256.522773 -258.541475 
L 256.533834 -255.62951 
L 256.450935 -252.717544 
L 256.337 -249.805578 
L 256.305871 -246.893612 
L 256.392652 -243.981646 
L 256.539137 -241.069681 
L 256.583265 -238.157715 
L 256.535951 -235.245749 
L 256.540183 -232.333783 
L 256.63708 -229.421817 
L 256.734849 -226.509851 
L 256.732161 -223.597886 
L 256.622102 -220.68592 
L 256.564543 -217.773954 
L 256.72023 -214.861988 
L 257.013895 -211.950022 
L 257.282911 -209.038057 
L 257.537507 -206.126091 
L 257.687328 -203.214125 
L 257.654043 -200.302159 
L 257.656343 -197.390193 
L 257.900528 -194.478227 
L 258.39768 -191.566262 
L 259.06014 -188.654296 
L 259.364849 -185.74233 
L 259.088633 -182.830364 
L 259.256829 -179.918398 
L 260.268224 -177.006433 
L 261.640713 -174.094467 
L 263.398443 -171.182501 
L 265.880516 -168.270535 
L 268.748735 -165.358569 
L 271.850032 -162.446604 
L 276.588679 -159.534638 
L 284.58096 -156.622672 
L 294.553412 -153.710706 
L 303.379373 -150.79874 
L 311.015148 -147.886774 
L 318.295449 -144.974809 
L 324.781913 -142.062843 
L 331.331769 -139.150877 
L 338.608871 -136.238911 
L 346.144488 -133.326945 
L 353.140839 -130.41498 
L 358.832586 -127.503014 
L 360.36 -124.591048 
L 353.240458 -121.679082 
L 340.403837 -118.767116 
L 326.177444 -115.855151 
L 310.631791 -112.943185 
L 297.472776 -110.031219 
L 287.739967 -107.119253 
L 278.770309 -104.207287 
L 270.928792 -101.295321 
L 266.277358 -98.383356 
L 263.543104 -95.47139 
L 261.285491 -92.559424 
L 259.439061 -89.647458 
L 258.090127 -86.735492 
L 257.403687 -83.823527 
L 257.145521 -80.911561 
L 256.852889 -77.999595 
L 256.482781 -75.087629 
L 256.269829 -72.175663 
L 256.210015 -69.263697 
z
" style="stroke: #484848; stroke-opacity: 0.5; stroke-width: 1.25"/>
    </defs>
    <g clip-path="url(#pd6d8db6ea1)">
     <use xlink:href="#m4de508e5c1" x="0" y="432" style="fill: #72b6a1; fill-opacity: 0.5; stroke: #484848; stroke-opacity: 0.5; stroke-width: 1.25"/>
    </g>
   </g>
   <g id="PolyCollection_2">
    <defs>
     <path id="mec9cfc430a" d="M 516.647032 -68.825455 
L 516.552968 -68.825455 
L 516.386163 -71.820496 
L 516.05115 -74.815537 
L 515.622161 -77.810579 
L 515.119321 -80.80562 
L 514.513144 -83.800661 
L 513.597182 -86.795702 
L 511.965966 -89.790744 
L 509.427577 -92.785785 
L 506.06202 -95.780826 
L 501.969928 -98.775868 
L 496.65026 -101.770909 
L 488.914541 -104.76595 
L 478.636772 -107.760992 
L 467.001799 -110.756033 
L 453.653218 -113.751074 
L 438.95391 -116.746116 
L 425.820225 -119.741157 
L 416.389731 -122.736198 
L 412.44 -125.73124 
L 416.092965 -128.726281 
L 424.049502 -131.721322 
L 431.412823 -134.716364 
L 438.534729 -137.711405 
L 446.690833 -140.706446 
L 455.506738 -143.701488 
L 463.579591 -146.696529 
L 470.944641 -149.69157 
L 478.453947 -152.686612 
L 485.364994 -155.681653 
L 491.290378 -158.676694 
L 496.601402 -161.671736 
L 501.29993 -164.666777 
L 505.033125 -167.661818 
L 507.637995 -170.65686 
L 509.420732 -173.651901 
L 510.922094 -176.646942 
L 512.386069 -179.641983 
L 513.431898 -182.637025 
L 513.849526 -185.632066 
L 514.23428 -188.627107 
L 514.87159 -191.622149 
L 515.273394 -194.61719 
L 515.264979 -197.612231 
L 515.201934 -200.607273 
L 515.19115 -203.602314 
L 515.18779 -206.597355 
L 515.305546 -209.592397 
L 515.553852 -212.587438 
L 515.792547 -215.582479 
L 515.920408 -218.577521 
L 515.936722 -221.572562 
L 515.972451 -224.567603 
L 515.954876 -227.562645 
L 515.796723 -230.557686 
L 515.759551 -233.552727 
L 515.957332 -236.547769 
L 516.101503 -239.54281 
L 516.162166 -242.537851 
L 516.235157 -245.532893 
L 516.290866 -248.527934 
L 516.379438 -251.522975 
L 516.489362 -254.518017 
L 516.531609 -257.513058 
L 516.472993 -260.508099 
L 516.393828 -263.50314 
L 516.372863 -266.498182 
L 516.378462 -269.493223 
L 516.362218 -272.488264 
L 516.327262 -275.483306 
L 516.340368 -278.478347 
L 516.417158 -281.473388 
L 516.478293 -284.46843 
L 516.504702 -287.463471 
L 516.509975 -290.458512 
L 516.471187 -293.453554 
L 516.432926 -296.448595 
L 516.471173 -299.443636 
L 516.540899 -302.438678 
L 516.571031 -305.433719 
L 516.551956 -308.42876 
L 516.517809 -311.423802 
L 516.49974 -314.418843 
L 516.498144 -317.413884 
L 516.511603 -320.408926 
L 516.544402 -323.403967 
L 516.577221 -326.399008 
L 516.575407 -329.39405 
L 516.511792 -332.389091 
L 516.427962 -335.384132 
L 516.444758 -338.379174 
L 516.535434 -341.374215 
L 516.587593 -344.369256 
L 516.598073 -347.364298 
L 516.589799 -350.359339 
L 516.542955 -353.35438 
L 516.45235 -356.349421 
L 516.423873 -359.344463 
L 516.503175 -362.339504 
L 516.575469 -365.334545 
L 516.624531 -365.334545 
L 516.624531 -365.334545 
L 516.696825 -362.339504 
L 516.776127 -359.344463 
L 516.74765 -356.349421 
L 516.657045 -353.35438 
L 516.610201 -350.359339 
L 516.601927 -347.364298 
L 516.612407 -344.369256 
L 516.664566 -341.374215 
L 516.755242 -338.379174 
L 516.772038 -335.384132 
L 516.688208 -332.389091 
L 516.624593 -329.39405 
L 516.622779 -326.399008 
L 516.655598 -323.403967 
L 516.688397 -320.408926 
L 516.701856 -317.413884 
L 516.70026 -314.418843 
L 516.682191 -311.423802 
L 516.648044 -308.42876 
L 516.628969 -305.433719 
L 516.659101 -302.438678 
L 516.728827 -299.443636 
L 516.767074 -296.448595 
L 516.728813 -293.453554 
L 516.690025 -290.458512 
L 516.695298 -287.463471 
L 516.721707 -284.46843 
L 516.782842 -281.473388 
L 516.859632 -278.478347 
L 516.872738 -275.483306 
L 516.837782 -272.488264 
L 516.821538 -269.493223 
L 516.827137 -266.498182 
L 516.806172 -263.50314 
L 516.727007 -260.508099 
L 516.668391 -257.513058 
L 516.710638 -254.518017 
L 516.820562 -251.522975 
L 516.909134 -248.527934 
L 516.964843 -245.532893 
L 517.037834 -242.537851 
L 517.098497 -239.54281 
L 517.242668 -236.547769 
L 517.440449 -233.552727 
L 517.403277 -230.557686 
L 517.245124 -227.562645 
L 517.227549 -224.567603 
L 517.263278 -221.572562 
L 517.279592 -218.577521 
L 517.407453 -215.582479 
L 517.646148 -212.587438 
L 517.894454 -209.592397 
L 518.01221 -206.597355 
L 518.00885 -203.602314 
L 517.998066 -200.607273 
L 517.935021 -197.612231 
L 517.926606 -194.61719 
L 518.32841 -191.622149 
L 518.96572 -188.627107 
L 519.350474 -185.632066 
L 519.768102 -182.637025 
L 520.813931 -179.641983 
L 522.277906 -176.646942 
L 523.779268 -173.651901 
L 525.562005 -170.65686 
L 528.166875 -167.661818 
L 531.90007 -164.666777 
L 536.598598 -161.671736 
L 541.909622 -158.676694 
L 547.835006 -155.681653 
L 554.746053 -152.686612 
L 562.255359 -149.69157 
L 569.620409 -146.696529 
L 577.693262 -143.701488 
L 586.509167 -140.706446 
L 594.665271 -137.711405 
L 601.787177 -134.716364 
L 609.150498 -131.721322 
L 617.107035 -128.726281 
L 620.76 -125.73124 
L 616.810269 -122.736198 
L 607.379775 -119.741157 
L 594.24609 -116.746116 
L 579.546782 -113.751074 
L 566.198201 -110.756033 
L 554.563228 -107.760992 
L 544.285459 -104.76595 
L 536.54974 -101.770909 
L 531.230072 -98.775868 
L 527.13798 -95.780826 
L 523.772423 -92.785785 
L 521.234034 -89.790744 
L 519.602818 -86.795702 
L 518.686856 -83.800661 
L 518.080679 -80.80562 
L 517.577839 -77.810579 
L 517.14885 -74.815537 
L 516.813837 -71.820496 
L 516.647032 -68.825455 
z
" style="stroke: #484848; stroke-opacity: 0.5; stroke-width: 1.25"/>
    </defs>
    <g clip-path="url(#pd6d8db6ea1)">
     <use xlink:href="#mec9cfc430a" x="0" y="432" style="fill: #477ca8; fill-opacity: 0.5; stroke: #484848; stroke-opacity: 0.5; stroke-width: 1.25"/>
    </g>
   </g>
   <g id="PolyCollection_3">
    <defs>
     <path id="m68a6de62b2" d="M 777.009051 -74.12689 
L 776.990949 -74.12689 
L 776.946193 -76.829276 
L 776.832764 -79.531662 
L 776.682399 -82.234049 
L 776.572068 -84.936435 
L 776.256368 -87.638821 
L 775.469269 -90.341208 
L 774.3675 -93.043594 
L 773.201275 -95.74598 
L 770.795108 -98.448367 
L 766.241197 -101.150753 
L 760.259958 -103.853139 
L 752.102377 -106.555526 
L 740.292696 -109.257912 
L 725.475802 -111.960298 
L 710.744926 -114.662685 
L 695.547302 -117.365071 
L 681.629776 -120.067457 
L 673.819847 -122.769844 
L 672.84 -125.47223 
L 675.99063 -128.174616 
L 679.425738 -130.877003 
L 681.723953 -133.579389 
L 686.702186 -136.281775 
L 694.312864 -138.984162 
L 702.425133 -141.686548 
L 711.051315 -144.388934 
L 719.923948 -147.091321 
L 728.886054 -149.793707 
L 737.05973 -152.496093 
L 743.197406 -155.19848 
L 749.879221 -157.900866 
L 757.009201 -160.603252 
L 761.960778 -163.305639 
L 765.456441 -166.008025 
L 768.556619 -168.710411 
L 771.101087 -171.412798 
L 772.558775 -174.115184 
L 773.494907 -176.81757 
L 774.294931 -179.519957 
L 774.951767 -182.222343 
L 775.462525 -184.924729 
L 775.947656 -187.627116 
L 776.383663 -190.329502 
L 776.625533 -193.031888 
L 776.623624 -195.734275 
L 776.551422 -198.436661 
L 776.596852 -201.139047 
L 776.721585 -203.841434 
L 776.703742 -206.54382 
L 776.692013 -209.246206 
L 776.801734 -211.948593 
L 776.898862 -214.650979 
L 776.878575 -217.353365 
L 776.842327 -220.055752 
L 776.843031 -222.758138 
L 776.789018 -225.460524 
L 776.704795 -228.162911 
L 776.743055 -230.865297 
L 776.904358 -233.567683 
L 776.975597 -236.27007 
L 776.953388 -238.972456 
L 776.936066 -241.674842 
L 776.935312 -244.377229 
L 776.886159 -247.079615 
L 776.895024 -249.782001 
L 776.966433 -252.484388 
L 776.996383 -255.186774 
L 776.999869 -257.88916 
L 776.999998 -260.591547 
L 777 -263.293933 
L 777 -265.996319 
L 777 -268.698706 
L 776.999963 -271.401092 
L 776.998806 -274.103478 
L 776.987018 -276.805865 
L 776.952498 -279.508251 
L 776.941527 -282.210637 
L 776.975785 -284.913024 
L 776.996626 -287.61541 
L 776.999842 -290.317796 
L 776.999998 -293.020183 
L 777 -295.722569 
L 777 -298.424955 
L 777 -301.127342 
L 777 -303.829728 
L 777 -306.532114 
L 777 -309.234501 
L 777 -311.936887 
L 777 -314.639273 
L 777 -317.34166 
L 777 -320.044046 
L 777 -322.746432 
L 776.999993 -325.448819 
L 776.999653 -328.151205 
L 776.994214 -330.853591 
L 776.967513 -333.555978 
L 776.938636 -336.258364 
L 776.961005 -338.96075 
L 776.991663 -341.663137 
L 777.008337 -341.663137 
L 777.008337 -341.663137 
L 777.038995 -338.96075 
L 777.061364 -336.258364 
L 777.032487 -333.555978 
L 777.005786 -330.853591 
L 777.000347 -328.151205 
L 777.000007 -325.448819 
L 777 -322.746432 
L 777 -320.044046 
L 777 -317.34166 
L 777 -314.639273 
L 777 -311.936887 
L 777 -309.234501 
L 777 -306.532114 
L 777 -303.829728 
L 777 -301.127342 
L 777 -298.424955 
L 777 -295.722569 
L 777.000002 -293.020183 
L 777.000158 -290.317796 
L 777.003374 -287.61541 
L 777.024215 -284.913024 
L 777.058473 -282.210637 
L 777.047502 -279.508251 
L 777.012982 -276.805865 
L 777.001194 -274.103478 
L 777.000037 -271.401092 
L 777 -268.698706 
L 777 -265.996319 
L 777 -263.293933 
L 777.000002 -260.591547 
L 777.000131 -257.88916 
L 777.003617 -255.186774 
L 777.033567 -252.484388 
L 777.104976 -249.782001 
L 777.113841 -247.079615 
L 777.064688 -244.377229 
L 777.063934 -241.674842 
L 777.046612 -238.972456 
L 777.024403 -236.27007 
L 777.095642 -233.567683 
L 777.256945 -230.865297 
L 777.295205 -228.162911 
L 777.210982 -225.460524 
L 777.156969 -222.758138 
L 777.157673 -220.055752 
L 777.121425 -217.353365 
L 777.101138 -214.650979 
L 777.198266 -211.948593 
L 777.307987 -209.246206 
L 777.296258 -206.54382 
L 777.278415 -203.841434 
L 777.403148 -201.139047 
L 777.448578 -198.436661 
L 777.376376 -195.734275 
L 777.374467 -193.031888 
L 777.616337 -190.329502 
L 778.052344 -187.627116 
L 778.537475 -184.924729 
L 779.048233 -182.222343 
L 779.705069 -179.519957 
L 780.505093 -176.81757 
L 781.441225 -174.115184 
L 782.898913 -171.412798 
L 785.443381 -168.710411 
L 788.543559 -166.008025 
L 792.039222 -163.305639 
L 796.990799 -160.603252 
L 804.120779 -157.900866 
L 810.802594 -155.19848 
L 816.94027 -152.496093 
L 825.113946 -149.793707 
L 834.076052 -147.091321 
L 842.948685 -144.388934 
L 851.574867 -141.686548 
L 859.687136 -138.984162 
L 867.297814 -136.281775 
L 872.276047 -133.579389 
L 874.574262 -130.877003 
L 878.00937 -128.174616 
L 881.16 -125.47223 
L 880.180153 -122.769844 
L 872.370224 -120.067457 
L 858.452698 -117.365071 
L 843.255074 -114.662685 
L 828.524198 -111.960298 
L 813.707304 -109.257912 
L 801.897623 -106.555526 
L 793.740042 -103.853139 
L 787.758803 -101.150753 
L 783.204892 -98.448367 
L 780.798725 -95.74598 
L 779.6325 -93.043594 
L 778.530731 -90.341208 
L 777.743632 -87.638821 
L 777.427932 -84.936435 
L 777.317601 -82.234049 
L 777.167236 -79.531662 
L 777.053807 -76.829276 
L 777.009051 -74.12689 
z
" style="stroke: #484848; stroke-opacity: 0.5; stroke-width: 1.25"/>
    </defs>
    <g clip-path="url(#pd6d8db6ea1)">
     <use xlink:href="#m68a6de62b2" x="0" y="432" style="fill: #cb3335; fill-opacity: 0.5; stroke: #484848; stroke-opacity: 0.5; stroke-width: 1.25"/>
    </g>
   </g>
   <g id="matplotlib.axis_1">
    <g id="xtick_1">
     <g id="line2d_1">
      <defs>
       <path id="mc5c667adc7" d="M 0 0 
L 0 3.5 
" style="stroke: #000000; stroke-width: 0.8"/>
      </defs>
      <g>
       <use xlink:href="#mc5c667adc7" x="256.2" y="378" style="stroke: #000000; stroke-width: 0.8"/>
      </g>
     </g>
     <g id="text_1">
      <!-- BRO -->
      <g transform="translate(236.686875 398.677188) scale(0.18 -0.18)">
       <defs>
        <path id="DejaVuSans-42" d="M 1259 2228 
L 1259 519 
L 2272 519 
Q 2781 519 3026 730 
Q 3272 941 3272 1375 
Q 3272 1813 3026 2020 
Q 2781 2228 2272 2228 
L 1259 2228 
z
M 1259 4147 
L 1259 2741 
L 2194 2741 
Q 2656 2741 2882 2914 
Q 3109 3088 3109 3444 
Q 3109 3797 2882 3972 
Q 2656 4147 2194 4147 
L 1259 4147 
z
M 628 4666 
L 2241 4666 
Q 2963 4666 3353 4366 
Q 3744 4066 3744 3513 
Q 3744 3084 3544 2831 
Q 3344 2578 2956 2516 
Q 3422 2416 3680 2098 
Q 3938 1781 3938 1306 
Q 3938 681 3513 340 
Q 3088 0 2303 0 
L 628 0 
L 628 4666 
z
" transform="scale(0.015625)"/>
        <path id="DejaVuSans-52" d="M 2841 2188 
Q 3044 2119 3236 1894 
Q 3428 1669 3622 1275 
L 4263 0 
L 3584 0 
L 2988 1197 
Q 2756 1666 2539 1819 
Q 2322 1972 1947 1972 
L 1259 1972 
L 1259 0 
L 628 0 
L 628 4666 
L 2053 4666 
Q 2853 4666 3247 4331 
Q 3641 3997 3641 3322 
Q 3641 2881 3436 2590 
Q 3231 2300 2841 2188 
z
M 1259 4147 
L 1259 2491 
L 2053 2491 
Q 2509 2491 2742 2702 
Q 2975 2913 2975 3322 
Q 2975 3731 2742 3939 
Q 2509 4147 2053 4147 
L 1259 4147 
z
" transform="scale(0.015625)"/>
        <path id="DejaVuSans-4f" d="M 2522 4238 
Q 1834 4238 1429 3725 
Q 1025 3213 1025 2328 
Q 1025 1447 1429 934 
Q 1834 422 2522 422 
Q 3209 422 3611 934 
Q 4013 1447 4013 2328 
Q 4013 3213 3611 3725 
Q 3209 4238 2522 4238 
z
M 2522 4750 
Q 3503 4750 4090 4092 
Q 4678 3434 4678 2328 
Q 4678 1225 4090 567 
Q 3503 -91 2522 -91 
Q 1538 -91 948 565 
Q 359 1222 359 2328 
Q 359 3434 948 4092 
Q 1538 4750 2522 4750 
z
" transform="scale(0.015625)"/>
       </defs>
       <use xlink:href="#DejaVuSans-42"/>
       <use xlink:href="#DejaVuSans-52" x="68.603516"/>
       <use xlink:href="#DejaVuSans-4f" x="138.085938"/>
      </g>
     </g>
    </g>
    <g id="xtick_2">
     <g id="line2d_2">
      <g>
       <use xlink:href="#mc5c667adc7" x="516.6" y="378" style="stroke: #000000; stroke-width: 0.8"/>
      </g>
     </g>
     <g id="text_2">
      <!-- NEU -->
      <g transform="translate(497.593125 398.677188) scale(0.18 -0.18)">
       <defs>
        <path id="DejaVuSans-4e" d="M 628 4666 
L 1478 4666 
L 3547 763 
L 3547 4666 
L 4159 4666 
L 4159 0 
L 3309 0 
L 1241 3903 
L 1241 0 
L 628 0 
L 628 4666 
z
" transform="scale(0.015625)"/>
        <path id="DejaVuSans-45" d="M 628 4666 
L 3578 4666 
L 3578 4134 
L 1259 4134 
L 1259 2753 
L 3481 2753 
L 3481 2222 
L 1259 2222 
L 1259 531 
L 3634 531 
L 3634 0 
L 628 0 
L 628 4666 
z
" transform="scale(0.015625)"/>
        <path id="DejaVuSans-55" d="M 556 4666 
L 1191 4666 
L 1191 1831 
Q 1191 1081 1462 751 
Q 1734 422 2344 422 
Q 2950 422 3222 751 
Q 3494 1081 3494 1831 
L 3494 4666 
L 4128 4666 
L 4128 1753 
Q 4128 841 3676 375 
Q 3225 -91 2344 -91 
Q 1459 -91 1007 375 
Q 556 841 556 1753 
L 556 4666 
z
" transform="scale(0.015625)"/>
       </defs>
       <use xlink:href="#DejaVuSans-4e"/>
       <use xlink:href="#DejaVuSans-45" x="74.804688"/>
       <use xlink:href="#DejaVuSans-55" x="137.988281"/>
      </g>
     </g>
    </g>
    <g id="xtick_3">
     <g id="line2d_3">
      <g>
       <use xlink:href="#mc5c667adc7" x="777" y="378" style="stroke: #000000; stroke-width: 0.8"/>
      </g>
     </g>
     <g id="text_3">
      <!-- NON -->
      <g transform="translate(756.449062 398.677188) scale(0.18 -0.18)">
       <use xlink:href="#DejaVuSans-4e"/>
       <use xlink:href="#DejaVuSans-4f" x="74.804688"/>
       <use xlink:href="#DejaVuSans-4e" x="153.515625"/>
      </g>
     </g>
    </g>
   </g>
   <g id="matplotlib.axis_2">
    <g id="ytick_1">
     <g id="line2d_4">
      <defs>
       <path id="mf310b703f3" d="M 0 0 
L -3.5 0 
" style="stroke: #000000; stroke-width: 0.8"/>
      </defs>
      <g>
       <use xlink:href="#mf310b703f3" x="126" y="360.042792" style="stroke: #000000; stroke-width: 0.8"/>
      </g>
     </g>
     <g id="text_4">
      <!-- 0 -->
      <g transform="translate(107.5475 366.881385) scale(0.18 -0.18)">
       <defs>
        <path id="DejaVuSans-30" d="M 2034 4250 
Q 1547 4250 1301 3770 
Q 1056 3291 1056 2328 
Q 1056 1369 1301 889 
Q 1547 409 2034 409 
Q 2525 409 2770 889 
Q 3016 1369 3016 2328 
Q 3016 3291 2770 3770 
Q 2525 4250 2034 4250 
z
M 2034 4750 
Q 2819 4750 3233 4129 
Q 3647 3509 3647 2328 
Q 3647 1150 3233 529 
Q 2819 -91 2034 -91 
Q 1250 -91 836 529 
Q 422 1150 422 2328 
Q 422 3509 836 4129 
Q 1250 4750 2034 4750 
z
" transform="scale(0.015625)"/>
       </defs>
       <use xlink:href="#DejaVuSans-30"/>
      </g>
     </g>
    </g>
    <g id="ytick_2">
     <g id="line2d_5">
      <g>
       <use xlink:href="#mf310b703f3" x="126" y="323.302844" style="stroke: #000000; stroke-width: 0.8"/>
      </g>
     </g>
     <g id="text_5">
      <!-- 10 -->
      <g transform="translate(96.095 330.141438) scale(0.18 -0.18)">
       <defs>
        <path id="DejaVuSans-31" d="M 794 531 
L 1825 531 
L 1825 4091 
L 703 3866 
L 703 4441 
L 1819 4666 
L 2450 4666 
L 2450 531 
L 3481 531 
L 3481 0 
L 794 0 
L 794 531 
z
" transform="scale(0.015625)"/>
       </defs>
       <use xlink:href="#DejaVuSans-31"/>
       <use xlink:href="#DejaVuSans-30" x="63.623047"/>
      </g>
     </g>
    </g>
    <g id="ytick_3">
     <g id="line2d_6">
      <g>
       <use xlink:href="#mf310b703f3" x="126" y="286.562897" style="stroke: #000000; stroke-width: 0.8"/>
      </g>
     </g>
     <g id="text_6">
      <!-- 20 -->
      <g transform="translate(96.095 293.401491) scale(0.18 -0.18)">
       <defs>
        <path id="DejaVuSans-32" d="M 1228 531 
L 3431 531 
L 3431 0 
L 469 0 
L 469 531 
Q 828 903 1448 1529 
Q 2069 2156 2228 2338 
Q 2531 2678 2651 2914 
Q 2772 3150 2772 3378 
Q 2772 3750 2511 3984 
Q 2250 4219 1831 4219 
Q 1534 4219 1204 4116 
Q 875 4013 500 3803 
L 500 4441 
Q 881 4594 1212 4672 
Q 1544 4750 1819 4750 
Q 2544 4750 2975 4387 
Q 3406 4025 3406 3419 
Q 3406 3131 3298 2873 
Q 3191 2616 2906 2266 
Q 2828 2175 2409 1742 
Q 1991 1309 1228 531 
z
" transform="scale(0.015625)"/>
       </defs>
       <use xlink:href="#DejaVuSans-32"/>
       <use xlink:href="#DejaVuSans-30" x="63.623047"/>
      </g>
     </g>
    </g>
    <g id="ytick_4">
     <g id="line2d_7">
      <g>
       <use xlink:href="#mf310b703f3" x="126" y="249.82295" style="stroke: #000000; stroke-width: 0.8"/>
      </g>
     </g>
     <g id="text_7">
      <!-- 30 -->
      <g transform="translate(96.095 256.661544) scale(0.18 -0.18)">
       <defs>
        <path id="DejaVuSans-33" d="M 2597 2516 
Q 3050 2419 3304 2112 
Q 3559 1806 3559 1356 
Q 3559 666 3084 287 
Q 2609 -91 1734 -91 
Q 1441 -91 1130 -33 
Q 819 25 488 141 
L 488 750 
Q 750 597 1062 519 
Q 1375 441 1716 441 
Q 2309 441 2620 675 
Q 2931 909 2931 1356 
Q 2931 1769 2642 2001 
Q 2353 2234 1838 2234 
L 1294 2234 
L 1294 2753 
L 1863 2753 
Q 2328 2753 2575 2939 
Q 2822 3125 2822 3475 
Q 2822 3834 2567 4026 
Q 2313 4219 1838 4219 
Q 1578 4219 1281 4162 
Q 984 4106 628 3988 
L 628 4550 
Q 988 4650 1302 4700 
Q 1616 4750 1894 4750 
Q 2613 4750 3031 4423 
Q 3450 4097 3450 3541 
Q 3450 3153 3228 2886 
Q 3006 2619 2597 2516 
z
" transform="scale(0.015625)"/>
       </defs>
       <use xlink:href="#DejaVuSans-33"/>
       <use xlink:href="#DejaVuSans-30" x="63.623047"/>
      </g>
     </g>
    </g>
    <g id="ytick_5">
     <g id="line2d_8">
      <g>
       <use xlink:href="#mf310b703f3" x="126" y="213.083003" style="stroke: #000000; stroke-width: 0.8"/>
      </g>
     </g>
     <g id="text_8">
      <!-- 40 -->
      <g transform="translate(96.095 219.921596) scale(0.18 -0.18)">
       <defs>
        <path id="DejaVuSans-34" d="M 2419 4116 
L 825 1625 
L 2419 1625 
L 2419 4116 
z
M 2253 4666 
L 3047 4666 
L 3047 1625 
L 3713 1625 
L 3713 1100 
L 3047 1100 
L 3047 0 
L 2419 0 
L 2419 1100 
L 313 1100 
L 313 1709 
L 2253 4666 
z
" transform="scale(0.015625)"/>
       </defs>
       <use xlink:href="#DejaVuSans-34"/>
       <use xlink:href="#DejaVuSans-30" x="63.623047"/>
      </g>
     </g>
    </g>
    <g id="ytick_6">
     <g id="line2d_9">
      <g>
       <use xlink:href="#mf310b703f3" x="126" y="176.343055" style="stroke: #000000; stroke-width: 0.8"/>
      </g>
     </g>
     <g id="text_9">
      <!-- 50 -->
      <g transform="translate(96.095 183.181649) scale(0.18 -0.18)">
       <defs>
        <path id="DejaVuSans-35" d="M 691 4666 
L 3169 4666 
L 3169 4134 
L 1269 4134 
L 1269 2991 
Q 1406 3038 1543 3061 
Q 1681 3084 1819 3084 
Q 2600 3084 3056 2656 
Q 3513 2228 3513 1497 
Q 3513 744 3044 326 
Q 2575 -91 1722 -91 
Q 1428 -91 1123 -41 
Q 819 9 494 109 
L 494 744 
Q 775 591 1075 516 
Q 1375 441 1709 441 
Q 2250 441 2565 725 
Q 2881 1009 2881 1497 
Q 2881 1984 2565 2268 
Q 2250 2553 1709 2553 
Q 1456 2553 1204 2497 
Q 953 2441 691 2322 
L 691 4666 
z
" transform="scale(0.015625)"/>
       </defs>
       <use xlink:href="#DejaVuSans-35"/>
       <use xlink:href="#DejaVuSans-30" x="63.623047"/>
      </g>
     </g>
    </g>
    <g id="ytick_7">
     <g id="line2d_10">
      <g>
       <use xlink:href="#mf310b703f3" x="126" y="139.603108" style="stroke: #000000; stroke-width: 0.8"/>
      </g>
     </g>
     <g id="text_10">
      <!-- 60 -->
      <g transform="translate(96.095 146.441702) scale(0.18 -0.18)">
       <defs>
        <path id="DejaVuSans-36" d="M 2113 2584 
Q 1688 2584 1439 2293 
Q 1191 2003 1191 1497 
Q 1191 994 1439 701 
Q 1688 409 2113 409 
Q 2538 409 2786 701 
Q 3034 994 3034 1497 
Q 3034 2003 2786 2293 
Q 2538 2584 2113 2584 
z
M 3366 4563 
L 3366 3988 
Q 3128 4100 2886 4159 
Q 2644 4219 2406 4219 
Q 1781 4219 1451 3797 
Q 1122 3375 1075 2522 
Q 1259 2794 1537 2939 
Q 1816 3084 2150 3084 
Q 2853 3084 3261 2657 
Q 3669 2231 3669 1497 
Q 3669 778 3244 343 
Q 2819 -91 2113 -91 
Q 1303 -91 875 529 
Q 447 1150 447 2328 
Q 447 3434 972 4092 
Q 1497 4750 2381 4750 
Q 2619 4750 2861 4703 
Q 3103 4656 3366 4563 
z
" transform="scale(0.015625)"/>
       </defs>
       <use xlink:href="#DejaVuSans-36"/>
       <use xlink:href="#DejaVuSans-30" x="63.623047"/>
      </g>
     </g>
    </g>
    <g id="ytick_8">
     <g id="line2d_11">
      <g>
       <use xlink:href="#mf310b703f3" x="126" y="102.863161" style="stroke: #000000; stroke-width: 0.8"/>
      </g>
     </g>
     <g id="text_11">
      <!-- 70 -->
      <g transform="translate(96.095 109.701755) scale(0.18 -0.18)">
       <defs>
        <path id="DejaVuSans-37" d="M 525 4666 
L 3525 4666 
L 3525 4397 
L 1831 0 
L 1172 0 
L 2766 4134 
L 525 4134 
L 525 4666 
z
" transform="scale(0.015625)"/>
       </defs>
       <use xlink:href="#DejaVuSans-37"/>
       <use xlink:href="#DejaVuSans-30" x="63.623047"/>
      </g>
     </g>
    </g>
    <g id="ytick_9">
     <g id="line2d_12">
      <g>
       <use xlink:href="#mf310b703f3" x="126" y="66.123214" style="stroke: #000000; stroke-width: 0.8"/>
      </g>
     </g>
     <g id="text_12">
      <!-- 80 -->
      <g transform="translate(96.095 72.961807) scale(0.18 -0.18)">
       <defs>
        <path id="DejaVuSans-38" d="M 2034 2216 
Q 1584 2216 1326 1975 
Q 1069 1734 1069 1313 
Q 1069 891 1326 650 
Q 1584 409 2034 409 
Q 2484 409 2743 651 
Q 3003 894 3003 1313 
Q 3003 1734 2745 1975 
Q 2488 2216 2034 2216 
z
M 1403 2484 
Q 997 2584 770 2862 
Q 544 3141 544 3541 
Q 544 4100 942 4425 
Q 1341 4750 2034 4750 
Q 2731 4750 3128 4425 
Q 3525 4100 3525 3541 
Q 3525 3141 3298 2862 
Q 3072 2584 2669 2484 
Q 3125 2378 3379 2068 
Q 3634 1759 3634 1313 
Q 3634 634 3220 271 
Q 2806 -91 2034 -91 
Q 1263 -91 848 271 
Q 434 634 434 1313 
Q 434 1759 690 2068 
Q 947 2378 1403 2484 
z
M 1172 3481 
Q 1172 3119 1398 2916 
Q 1625 2713 2034 2713 
Q 2441 2713 2670 2916 
Q 2900 3119 2900 3481 
Q 2900 3844 2670 4047 
Q 2441 4250 2034 4250 
Q 1625 4250 1398 4047 
Q 1172 3844 1172 3481 
z
" transform="scale(0.015625)"/>
       </defs>
       <use xlink:href="#DejaVuSans-38"/>
       <use xlink:href="#DejaVuSans-30" x="63.623047"/>
      </g>
     </g>
    </g>
    <g id="text_13">
     <!-- CDR-H3 length -->
     <g transform="translate(88.351562 281.3175) rotate(-90) scale(0.18 -0.18)">
      <defs>
       <path id="DejaVuSans-43" d="M 4122 4306 
L 4122 3641 
Q 3803 3938 3442 4084 
Q 3081 4231 2675 4231 
Q 1875 4231 1450 3742 
Q 1025 3253 1025 2328 
Q 1025 1406 1450 917 
Q 1875 428 2675 428 
Q 3081 428 3442 575 
Q 3803 722 4122 1019 
L 4122 359 
Q 3791 134 3420 21 
Q 3050 -91 2638 -91 
Q 1578 -91 968 557 
Q 359 1206 359 2328 
Q 359 3453 968 4101 
Q 1578 4750 2638 4750 
Q 3056 4750 3426 4639 
Q 3797 4528 4122 4306 
z
" transform="scale(0.015625)"/>
       <path id="DejaVuSans-44" d="M 1259 4147 
L 1259 519 
L 2022 519 
Q 2988 519 3436 956 
Q 3884 1394 3884 2338 
Q 3884 3275 3436 3711 
Q 2988 4147 2022 4147 
L 1259 4147 
z
M 628 4666 
L 1925 4666 
Q 3281 4666 3915 4102 
Q 4550 3538 4550 2338 
Q 4550 1131 3912 565 
Q 3275 0 1925 0 
L 628 0 
L 628 4666 
z
" transform="scale(0.015625)"/>
       <path id="DejaVuSans-2d" d="M 313 2009 
L 1997 2009 
L 1997 1497 
L 313 1497 
L 313 2009 
z
" transform="scale(0.015625)"/>
       <path id="DejaVuSans-48" d="M 628 4666 
L 1259 4666 
L 1259 2753 
L 3553 2753 
L 3553 4666 
L 4184 4666 
L 4184 0 
L 3553 0 
L 3553 2222 
L 1259 2222 
L 1259 0 
L 628 0 
L 628 4666 
z
" transform="scale(0.015625)"/>
       <path id="DejaVuSans-20" transform="scale(0.015625)"/>
       <path id="DejaVuSans-6c" d="M 603 4863 
L 1178 4863 
L 1178 0 
L 603 0 
L 603 4863 
z
" transform="scale(0.015625)"/>
       <path id="DejaVuSans-65" d="M 3597 1894 
L 3597 1613 
L 953 1613 
Q 991 1019 1311 708 
Q 1631 397 2203 397 
Q 2534 397 2845 478 
Q 3156 559 3463 722 
L 3463 178 
Q 3153 47 2828 -22 
Q 2503 -91 2169 -91 
Q 1331 -91 842 396 
Q 353 884 353 1716 
Q 353 2575 817 3079 
Q 1281 3584 2069 3584 
Q 2775 3584 3186 3129 
Q 3597 2675 3597 1894 
z
M 3022 2063 
Q 3016 2534 2758 2815 
Q 2500 3097 2075 3097 
Q 1594 3097 1305 2825 
Q 1016 2553 972 2059 
L 3022 2063 
z
" transform="scale(0.015625)"/>
       <path id="DejaVuSans-6e" d="M 3513 2113 
L 3513 0 
L 2938 0 
L 2938 2094 
Q 2938 2591 2744 2837 
Q 2550 3084 2163 3084 
Q 1697 3084 1428 2787 
Q 1159 2491 1159 1978 
L 1159 0 
L 581 0 
L 581 3500 
L 1159 3500 
L 1159 2956 
Q 1366 3272 1645 3428 
Q 1925 3584 2291 3584 
Q 2894 3584 3203 3211 
Q 3513 2838 3513 2113 
z
" transform="scale(0.015625)"/>
       <path id="DejaVuSans-67" d="M 2906 1791 
Q 2906 2416 2648 2759 
Q 2391 3103 1925 3103 
Q 1463 3103 1205 2759 
Q 947 2416 947 1791 
Q 947 1169 1205 825 
Q 1463 481 1925 481 
Q 2391 481 2648 825 
Q 2906 1169 2906 1791 
z
M 3481 434 
Q 3481 -459 3084 -895 
Q 2688 -1331 1869 -1331 
Q 1566 -1331 1297 -1286 
Q 1028 -1241 775 -1147 
L 775 -588 
Q 1028 -725 1275 -790 
Q 1522 -856 1778 -856 
Q 2344 -856 2625 -561 
Q 2906 -266 2906 331 
L 2906 616 
Q 2728 306 2450 153 
Q 2172 0 1784 0 
Q 1141 0 747 490 
Q 353 981 353 1791 
Q 353 2603 747 3093 
Q 1141 3584 1784 3584 
Q 2172 3584 2450 3431 
Q 2728 3278 2906 2969 
L 2906 3500 
L 3481 3500 
L 3481 434 
z
" transform="scale(0.015625)"/>
       <path id="DejaVuSans-74" d="M 1172 4494 
L 1172 3500 
L 2356 3500 
L 2356 3053 
L 1172 3053 
L 1172 1153 
Q 1172 725 1289 603 
Q 1406 481 1766 481 
L 2356 481 
L 2356 0 
L 1766 0 
Q 1100 0 847 248 
Q 594 497 594 1153 
L 594 3053 
L 172 3053 
L 172 3500 
L 594 3500 
L 594 4494 
L 1172 4494 
z
" transform="scale(0.015625)"/>
       <path id="DejaVuSans-68" d="M 3513 2113 
L 3513 0 
L 2938 0 
L 2938 2094 
Q 2938 2591 2744 2837 
Q 2550 3084 2163 3084 
Q 1697 3084 1428 2787 
Q 1159 2491 1159 1978 
L 1159 0 
L 581 0 
L 581 4863 
L 1159 4863 
L 1159 2956 
Q 1366 3272 1645 3428 
Q 1925 3584 2291 3584 
Q 2894 3584 3203 3211 
Q 3513 2838 3513 2113 
z
" transform="scale(0.015625)"/>
      </defs>
      <use xlink:href="#DejaVuSans-43"/>
      <use xlink:href="#DejaVuSans-44" x="69.824219"/>
      <use xlink:href="#DejaVuSans-52" x="146.826172"/>
      <use xlink:href="#DejaVuSans-2d" x="212.308594"/>
      <use xlink:href="#DejaVuSans-48" x="248.392578"/>
      <use xlink:href="#DejaVuSans-33" x="323.587891"/>
      <use xlink:href="#DejaVuSans-20" x="387.210938"/>
      <use xlink:href="#DejaVuSans-6c" x="418.998047"/>
      <use xlink:href="#DejaVuSans-65" x="446.78125"/>
      <use xlink:href="#DejaVuSans-6e" x="508.304688"/>
      <use xlink:href="#DejaVuSans-67" x="571.683594"/>
      <use xlink:href="#DejaVuSans-74" x="635.160156"/>
      <use xlink:href="#DejaVuSans-68" x="674.369141"/>
     </g>
    </g>
   </g>
   <g id="line2d_13">
    <path d="M 256.2 345.346813 
L 256.2 257.170939 
" clip-path="url(#pd6d8db6ea1)" style="fill: none; stroke: #484848; stroke-width: 1.875; stroke-linecap: square"/>
   </g>
   <g id="line2d_14">
    <path d="M 256.2 312.28086 
L 256.2 290.236892 
" clip-path="url(#pd6d8db6ea1)" style="fill: none; stroke: #484848; stroke-width: 5.625; stroke-linecap: square"/>
   </g>
   <g id="line2d_15">
    <path d="M 256.2 301.258876 
" clip-path="url(#pd6d8db6ea1)" style="fill: none; stroke: #484848; stroke-width: 1.5; stroke-linecap: square"/>
    <defs>
     <path id="m28388ccc6e" d="M 2.34375 0 
L -2.34375 -0 
" style="stroke: #ffffff; stroke-width: 1.125"/>
    </defs>
    <g clip-path="url(#pd6d8db6ea1)">
     <use xlink:href="#m28388ccc6e" x="256.2" y="301.258876" style="fill: #ffffff; stroke: #ffffff; stroke-width: 1.125"/>
    </g>
   </g>
   <g id="line2d_16">
    <path d="M 516.6 345.346813 
L 516.6 257.170939 
" clip-path="url(#pd6d8db6ea1)" style="fill: none; stroke: #484848; stroke-width: 1.875; stroke-linecap: square"/>
   </g>
   <g id="line2d_17">
    <path d="M 516.6 312.28086 
L 516.6 290.236892 
" clip-path="url(#pd6d8db6ea1)" style="fill: none; stroke: #484848; stroke-width: 5.625; stroke-linecap: square"/>
   </g>
   <g id="line2d_18">
    <path d="M 516.6 301.258876 
" clip-path="url(#pd6d8db6ea1)" style="fill: none; stroke: #484848; stroke-width: 1.5; stroke-linecap: square"/>
    <g clip-path="url(#pd6d8db6ea1)">
     <use xlink:href="#m28388ccc6e" x="516.6" y="301.258876" style="fill: #ffffff; stroke: #ffffff; stroke-width: 1.125"/>
    </g>
   </g>
   <g id="line2d_19">
    <path d="M 777 345.346813 
L 777 257.170939 
" clip-path="url(#pd6d8db6ea1)" style="fill: none; stroke: #484848; stroke-width: 1.875; stroke-linecap: square"/>
   </g>
   <g id="line2d_20">
    <path d="M 777 312.28086 
L 777 290.236892 
" clip-path="url(#pd6d8db6ea1)" style="fill: none; stroke: #484848; stroke-width: 5.625; stroke-linecap: square"/>
   </g>
   <g id="line2d_21">
    <path d="M 777 301.258876 
" clip-path="url(#pd6d8db6ea1)" style="fill: none; stroke: #484848; stroke-width: 1.5; stroke-linecap: square"/>
    <g clip-path="url(#pd6d8db6ea1)">
     <use xlink:href="#m28388ccc6e" x="777" y="301.258876" style="fill: #ffffff; stroke: #ffffff; stroke-width: 1.125"/>
    </g>
   </g>
   <g id="patch_3">
    <path d="M 126 378 
L 126 51.84 
" style="fill: none; stroke: #000000; stroke-width: 0.8; stroke-linejoin: miter; stroke-linecap: square"/>
   </g>
   <g id="patch_4">
    <path d="M 907.2 378 
L 907.2 51.84 
" style="fill: none; stroke: #000000; stroke-width: 0.8; stroke-linejoin: miter; stroke-linecap: square"/>
   </g>
   <g id="patch_5">
    <path d="M 126 378 
L 907.2 378 
" style="fill: none; stroke: #000000; stroke-width: 0.8; stroke-linejoin: miter; stroke-linecap: square"/>
   </g>
   <g id="patch_6">
    <path d="M 126 51.84 
L 907.2 51.84 
" style="fill: none; stroke: #000000; stroke-width: 0.8; stroke-linejoin: miter; stroke-linecap: square"/>
   </g>
   <g id="text_14">
    <g id="patch_7">
     <path d="M 149.453281 195.891414 
L 232.746719 195.891414 
L 232.746719 174.222039 
L 149.453281 174.222039 
z
" style="fill: #ffffff; opacity: 0.7; stroke: #000000; stroke-linejoin: miter"/>
    </g>
    <!-- Avg: 16.58 -->
    <g transform="translate(153.513281 188.919851) scale(0.14 -0.14)">
     <defs>
      <path id="DejaVuSans-41" d="M 2188 4044 
L 1331 1722 
L 3047 1722 
L 2188 4044 
z
M 1831 4666 
L 2547 4666 
L 4325 0 
L 3669 0 
L 3244 1197 
L 1141 1197 
L 716 0 
L 50 0 
L 1831 4666 
z
" transform="scale(0.015625)"/>
      <path id="DejaVuSans-76" d="M 191 3500 
L 800 3500 
L 1894 563 
L 2988 3500 
L 3597 3500 
L 2284 0 
L 1503 0 
L 191 3500 
z
" transform="scale(0.015625)"/>
      <path id="DejaVuSans-3a" d="M 750 794 
L 1409 794 
L 1409 0 
L 750 0 
L 750 794 
z
M 750 3309 
L 1409 3309 
L 1409 2516 
L 750 2516 
L 750 3309 
z
" transform="scale(0.015625)"/>
      <path id="DejaVuSans-2e" d="M 684 794 
L 1344 794 
L 1344 0 
L 684 0 
L 684 794 
z
" transform="scale(0.015625)"/>
     </defs>
     <use xlink:href="#DejaVuSans-41"/>
     <use xlink:href="#DejaVuSans-76" x="62.533203"/>
     <use xlink:href="#DejaVuSans-67" x="121.712891"/>
     <use xlink:href="#DejaVuSans-3a" x="185.189453"/>
     <use xlink:href="#DejaVuSans-20" x="218.880859"/>
     <use xlink:href="#DejaVuSans-31" x="250.667969"/>
     <use xlink:href="#DejaVuSans-36" x="314.291016"/>
     <use xlink:href="#DejaVuSans-2e" x="377.914062"/>
     <use xlink:href="#DejaVuSans-35" x="409.701172"/>
     <use xlink:href="#DejaVuSans-38" x="473.324219"/>
    </g>
   </g>
   <g id="text_15">
    <g id="patch_8">
     <path d="M 136.05375 166.499456 
L 246.14625 166.499456 
L 246.14625 144.830081 
L 136.05375 144.830081 
z
" style="fill: #ffffff; opacity: 0.7; stroke: #000000; stroke-linejoin: miter"/>
    </g>
    <!-- # seqs: 10865 -->
    <g transform="translate(140.11375 159.527893) scale(0.14 -0.14)">
     <defs>
      <path id="DejaVuSans-23" d="M 3272 2816 
L 2363 2816 
L 2100 1772 
L 3016 1772 
L 3272 2816 
z
M 2803 4594 
L 2478 3297 
L 3391 3297 
L 3719 4594 
L 4219 4594 
L 3897 3297 
L 4872 3297 
L 4872 2816 
L 3775 2816 
L 3519 1772 
L 4513 1772 
L 4513 1294 
L 3397 1294 
L 3072 0 
L 2572 0 
L 2894 1294 
L 1978 1294 
L 1656 0 
L 1153 0 
L 1478 1294 
L 494 1294 
L 494 1772 
L 1594 1772 
L 1856 2816 
L 850 2816 
L 850 3297 
L 1978 3297 
L 2297 4594 
L 2803 4594 
z
" transform="scale(0.015625)"/>
      <path id="DejaVuSans-73" d="M 2834 3397 
L 2834 2853 
Q 2591 2978 2328 3040 
Q 2066 3103 1784 3103 
Q 1356 3103 1142 2972 
Q 928 2841 928 2578 
Q 928 2378 1081 2264 
Q 1234 2150 1697 2047 
L 1894 2003 
Q 2506 1872 2764 1633 
Q 3022 1394 3022 966 
Q 3022 478 2636 193 
Q 2250 -91 1575 -91 
Q 1294 -91 989 -36 
Q 684 19 347 128 
L 347 722 
Q 666 556 975 473 
Q 1284 391 1588 391 
Q 1994 391 2212 530 
Q 2431 669 2431 922 
Q 2431 1156 2273 1281 
Q 2116 1406 1581 1522 
L 1381 1569 
Q 847 1681 609 1914 
Q 372 2147 372 2553 
Q 372 3047 722 3315 
Q 1072 3584 1716 3584 
Q 2034 3584 2315 3537 
Q 2597 3491 2834 3397 
z
" transform="scale(0.015625)"/>
      <path id="DejaVuSans-71" d="M 947 1747 
Q 947 1113 1208 752 
Q 1469 391 1925 391 
Q 2381 391 2643 752 
Q 2906 1113 2906 1747 
Q 2906 2381 2643 2742 
Q 2381 3103 1925 3103 
Q 1469 3103 1208 2742 
Q 947 2381 947 1747 
z
M 2906 525 
Q 2725 213 2448 61 
Q 2172 -91 1784 -91 
Q 1150 -91 751 415 
Q 353 922 353 1747 
Q 353 2572 751 3078 
Q 1150 3584 1784 3584 
Q 2172 3584 2448 3432 
Q 2725 3281 2906 2969 
L 2906 3500 
L 3481 3500 
L 3481 -1331 
L 2906 -1331 
L 2906 525 
z
" transform="scale(0.015625)"/>
     </defs>
     <use xlink:href="#DejaVuSans-23"/>
     <use xlink:href="#DejaVuSans-20" x="83.789062"/>
     <use xlink:href="#DejaVuSans-73" x="115.576172"/>
     <use xlink:href="#DejaVuSans-65" x="167.675781"/>
     <use xlink:href="#DejaVuSans-71" x="229.199219"/>
     <use xlink:href="#DejaVuSans-73" x="292.675781"/>
     <use xlink:href="#DejaVuSans-3a" x="344.775391"/>
     <use xlink:href="#DejaVuSans-20" x="378.466797"/>
     <use xlink:href="#DejaVuSans-31" x="410.253906"/>
     <use xlink:href="#DejaVuSans-30" x="473.876953"/>
     <use xlink:href="#DejaVuSans-38" x="537.5"/>
     <use xlink:href="#DejaVuSans-36" x="601.123047"/>
     <use xlink:href="#DejaVuSans-35" x="664.746094"/>
    </g>
   </g>
   <g id="text_16">
    <g id="patch_9">
     <path d="M 409.853281 196.334538 
L 493.146719 196.334538 
L 493.146719 174.665163 
L 409.853281 174.665163 
z
" style="fill: #ffffff; opacity: 0.7; stroke: #000000; stroke-linejoin: miter"/>
    </g>
    <!-- Avg: 16.46 -->
    <g transform="translate(413.913281 189.362975) scale(0.14 -0.14)">
     <use xlink:href="#DejaVuSans-41"/>
     <use xlink:href="#DejaVuSans-76" x="62.533203"/>
     <use xlink:href="#DejaVuSans-67" x="121.712891"/>
     <use xlink:href="#DejaVuSans-3a" x="185.189453"/>
     <use xlink:href="#DejaVuSans-20" x="218.880859"/>
     <use xlink:href="#DejaVuSans-31" x="250.667969"/>
     <use xlink:href="#DejaVuSans-36" x="314.291016"/>
     <use xlink:href="#DejaVuSans-2e" x="377.914062"/>
     <use xlink:href="#DejaVuSans-34" x="409.701172"/>
     <use xlink:href="#DejaVuSans-36" x="473.324219"/>
    </g>
   </g>
   <g id="text_17">
    <g id="patch_10">
     <path d="M 396.45375 166.94258 
L 506.54625 166.94258 
L 506.54625 145.273205 
L 396.45375 145.273205 
z
" style="fill: #ffffff; opacity: 0.7; stroke: #000000; stroke-linejoin: miter"/>
    </g>
    <!-- # seqs: 10855 -->
    <g transform="translate(400.51375 159.971017) scale(0.14 -0.14)">
     <use xlink:href="#DejaVuSans-23"/>
     <use xlink:href="#DejaVuSans-20" x="83.789062"/>
     <use xlink:href="#DejaVuSans-73" x="115.576172"/>
     <use xlink:href="#DejaVuSans-65" x="167.675781"/>
     <use xlink:href="#DejaVuSans-71" x="229.199219"/>
     <use xlink:href="#DejaVuSans-73" x="292.675781"/>
     <use xlink:href="#DejaVuSans-3a" x="344.775391"/>
     <use xlink:href="#DejaVuSans-20" x="378.466797"/>
     <use xlink:href="#DejaVuSans-31" x="410.253906"/>
     <use xlink:href="#DejaVuSans-30" x="473.876953"/>
     <use xlink:href="#DejaVuSans-38" x="537.5"/>
     <use xlink:href="#DejaVuSans-35" x="601.123047"/>
     <use xlink:href="#DejaVuSans-35" x="664.746094"/>
    </g>
   </g>
   <g id="text_18">
    <g id="patch_11">
     <path d="M 670.253281 196.537453 
L 753.546719 196.537453 
L 753.546719 174.868078 
L 670.253281 174.868078 
z
" style="fill: #ffffff; opacity: 0.7; stroke: #000000; stroke-linejoin: miter"/>
    </g>
    <!-- Avg: 16.40 -->
    <g transform="translate(674.313281 189.56589) scale(0.14 -0.14)">
     <use xlink:href="#DejaVuSans-41"/>
     <use xlink:href="#DejaVuSans-76" x="62.533203"/>
     <use xlink:href="#DejaVuSans-67" x="121.712891"/>
     <use xlink:href="#DejaVuSans-3a" x="185.189453"/>
     <use xlink:href="#DejaVuSans-20" x="218.880859"/>
     <use xlink:href="#DejaVuSans-31" x="250.667969"/>
     <use xlink:href="#DejaVuSans-36" x="314.291016"/>
     <use xlink:href="#DejaVuSans-2e" x="377.914062"/>
     <use xlink:href="#DejaVuSans-34" x="409.701172"/>
     <use xlink:href="#DejaVuSans-30" x="473.324219"/>
    </g>
   </g>
   <g id="text_19">
    <g id="patch_12">
     <path d="M 656.85375 167.145495 
L 766.94625 167.145495 
L 766.94625 145.47612 
L 656.85375 145.47612 
z
" style="fill: #ffffff; opacity: 0.7; stroke: #000000; stroke-linejoin: miter"/>
    </g>
    <!-- # seqs: 10153 -->
    <g transform="translate(660.91375 160.173932) scale(0.14 -0.14)">
     <use xlink:href="#DejaVuSans-23"/>
     <use xlink:href="#DejaVuSans-20" x="83.789062"/>
     <use xlink:href="#DejaVuSans-73" x="115.576172"/>
     <use xlink:href="#DejaVuSans-65" x="167.675781"/>
     <use xlink:href="#DejaVuSans-71" x="229.199219"/>
     <use xlink:href="#DejaVuSans-73" x="292.675781"/>
     <use xlink:href="#DejaVuSans-3a" x="344.775391"/>
     <use xlink:href="#DejaVuSans-20" x="378.466797"/>
     <use xlink:href="#DejaVuSans-31" x="410.253906"/>
     <use xlink:href="#DejaVuSans-30" x="473.876953"/>
     <use xlink:href="#DejaVuSans-31" x="537.5"/>
     <use xlink:href="#DejaVuSans-35" x="601.123047"/>
     <use xlink:href="#DejaVuSans-33" x="664.746094"/>
    </g>
   </g>
  </g>
 </g>
 <defs>
  <clipPath id="pd6d8db6ea1">
   <rect x="126" y="51.84" width="781.2" height="326.16"/>
  </clipPath>
 </defs>
</svg>
