<?xml version="1.0" encoding="utf-8" standalone="no"?>
<!DOCTYPE svg PUBLIC "-//W3C//DTD SVG 1.1//EN"
  "http://www.w3.org/Graphics/SVG/1.1/DTD/svg11.dtd">
<svg xmlns:xlink="http://www.w3.org/1999/xlink" width="1008pt" height="432pt" viewBox="0 0 1008 432" xmlns="http://www.w3.org/2000/svg" version="1.1">
 <metadata>
  <rdf:RDF xmlns:dc="http://purl.org/dc/elements/1.1/" xmlns:cc="http://creativecommons.org/ns#" xmlns:rdf="http://www.w3.org/1999/02/22-rdf-syntax-ns#">
   <cc:Work>
    <dc:type rdf:resource="http://purl.org/dc/dcmitype/StillImage"/>
    <dc:date>2024-10-11T23:35:05.443672</dc:date>
    <dc:format>image/svg+xml</dc:format>
    <dc:creator>
     <cc:Agent>
      <dc:title>Matplotlib v3.7.5, https://matplotlib.org/</dc:title>
     </cc:Agent>
    </dc:creator>
   </cc:Work>
  </rdf:RDF>
 </metadata>
 <defs>
  <style type="text/css">*{stroke-linejoin: round; stroke-linecap: butt}</style>
 </defs>
 <g id="figure_1">
  <g id="patch_1">
   <path d="M 0 432 
L 1008 432 
L 1008 0 
L 0 0 
L 0 432 
z
" style="fill: none"/>
  </g>
  <g id="axes_1">
   <g id="patch_2">
    <path d="M 126 378 
L 907.2 378 
L 907.2 51.84 
L 126 51.84 
z
" style="fill: #ffffff"/>
   </g>
   <g id="PolyCollection_1">
    <defs>
     <path id="m92269096b9" d="M 256.204561 -154.554805 
L 256.195439 -154.554805 
L 256.181707 -156.200413 
L 256.167041 -157.846021 
L 256.173326 -159.49163 
L 256.190303 -161.137238 
L 256.198416 -162.782846 
L 256.199884 -164.428454 
L 256.199996 -166.074062 
L 256.2 -167.71967 
L 256.2 -169.365279 
L 256.2 -171.010887 
L 256.2 -172.656495 
L 256.2 -174.302103 
L 256.2 -175.947711 
L 256.2 -177.593319 
L 256.2 -179.238928 
L 256.2 -180.884536 
L 256.2 -182.530144 
L 256.2 -184.175752 
L 256.2 -185.82136 
L 256.2 -187.466968 
L 256.2 -189.112577 
L 256.2 -190.758185 
L 256.2 -192.403793 
L 256.2 -194.049401 
L 256.2 -195.695009 
L 256.2 -197.340617 
L 256.2 -198.986226 
L 256.2 -200.631834 
L 256.2 -202.277442 
L 256.2 -203.92305 
L 256.2 -205.568658 
L 256.2 -207.214266 
L 256.2 -208.859875 
L 256.199999 -210.505483 
L 256.199951 -212.151091 
L 256.199169 -213.796699 
L 256.193647 -215.442307 
L 256.178177 -217.087915 
L 256.166324 -218.733523 
L 256.176625 -220.379132 
L 256.192121 -222.02474 
L 256.193826 -223.670348 
L 256.180374 -225.315956 
L 256.166662 -226.961564 
L 256.174303 -228.607172 
L 256.188593 -230.252781 
L 256.181393 -231.898389 
L 256.145376 -233.543997 
L 256.105234 -235.189605 
L 256.075534 -236.835213 
L 256.032061 -238.480821 
L 255.974199 -240.12643 
L 255.933719 -241.772038 
L 255.94307 -243.417646 
L 255.952214 -245.063254 
L 255.894405 -246.708862 
L 255.793866 -248.35447 
L 255.646871 -250.000079 
L 255.49147 -251.645687 
L 255.398076 -253.291295 
L 255.287599 -254.936903 
L 255.16658 -256.582511 
L 255.00837 -258.228119 
L 254.605139 -259.873728 
L 254.086344 -261.519336 
L 253.752627 -263.164944 
L 253.460598 -264.810552 
L 252.983762 -266.45616 
L 252.695921 -268.101768 
L 252.616078 -269.747377 
L 252.112554 -271.392985 
L 251.108614 -273.038593 
L 250.151372 -274.684201 
L 249.32567 -276.329809 
L 248.380512 -277.975417 
L 247.23306 -279.621025 
L 245.952837 -281.266634 
L 244.480881 -282.912242 
L 242.705713 -284.55785 
L 240.54664 -286.203458 
L 238.127008 -287.849066 
L 235.741931 -289.494674 
L 233.522379 -291.140283 
L 231.374473 -292.785891 
L 228.612131 -294.431499 
L 224.714684 -296.077107 
L 219.652702 -297.722715 
L 213.899641 -299.368323 
L 208.276771 -301.013932 
L 202.507802 -302.65954 
L 195.440284 -304.305148 
L 186.16931 -305.950756 
L 174.058194 -307.596364 
L 160.421335 -309.241972 
L 152.04 -310.887581 
L 163.74903 -312.533189 
L 200.793217 -314.178797 
L 237.144485 -315.824405 
L 252.802067 -317.470013 
L 259.597933 -317.470013 
L 259.597933 -317.470013 
L 275.255515 -315.824405 
L 311.606783 -314.178797 
L 348.65097 -312.533189 
L 360.36 -310.887581 
L 351.978665 -309.241972 
L 338.341806 -307.596364 
L 326.23069 -305.950756 
L 316.959716 -304.305148 
L 309.892198 -302.65954 
L 304.123229 -301.013932 
L 298.500359 -299.368323 
L 292.747298 -297.722715 
L 287.685316 -296.077107 
L 283.787869 -294.431499 
L 281.025527 -292.785891 
L 278.877621 -291.140283 
L 276.658069 -289.494674 
L 274.272992 -287.849066 
L 271.85336 -286.203458 
L 269.694287 -284.55785 
L 267.919119 -282.912242 
L 266.447163 -281.266634 
L 265.16694 -279.621025 
L 264.019488 -277.975417 
L 263.07433 -276.329809 
L 262.248628 -274.684201 
L 261.291386 -273.038593 
L 260.287446 -271.392985 
L 259.783922 -269.747377 
L 259.704079 -268.101768 
L 259.416238 -266.45616 
L 258.939402 -264.810552 
L 258.647373 -263.164944 
L 258.313656 -261.519336 
L 257.794861 -259.873728 
L 257.39163 -258.228119 
L 257.23342 -256.582511 
L 257.112401 -254.936903 
L 257.001924 -253.291295 
L 256.90853 -251.645687 
L 256.753129 -250.000079 
L 256.606134 -248.35447 
L 256.505595 -246.708862 
L 256.447786 -245.063254 
L 256.45693 -243.417646 
L 256.466281 -241.772038 
L 256.425801 -240.12643 
L 256.367939 -238.480821 
L 256.324466 -236.835213 
L 256.294766 -235.189605 
L 256.254624 -233.543997 
L 256.218607 -231.898389 
L 256.211407 -230.252781 
L 256.225697 -228.607172 
L 256.233338 -226.961564 
L 256.219626 -225.315956 
L 256.206174 -223.670348 
L 256.207879 -222.02474 
L 256.223375 -220.379132 
L 256.233676 -218.733523 
L 256.221823 -217.087915 
L 256.206353 -215.442307 
L 256.200831 -213.796699 
L 256.200049 -212.151091 
L 256.200001 -210.505483 
L 256.2 -208.859875 
L 256.2 -207.214266 
L 256.2 -205.568658 
L 256.2 -203.92305 
L 256.2 -202.277442 
L 256.2 -200.631834 
L 256.2 -198.986226 
L 256.2 -197.340617 
L 256.2 -195.695009 
L 256.2 -194.049401 
L 256.2 -192.403793 
L 256.2 -190.758185 
L 256.2 -189.112577 
L 256.2 -187.466968 
L 256.2 -185.82136 
L 256.2 -184.175752 
L 256.2 -182.530144 
L 256.2 -180.884536 
L 256.2 -179.238928 
L 256.2 -177.593319 
L 256.2 -175.947711 
L 256.2 -174.302103 
L 256.2 -172.656495 
L 256.2 -171.010887 
L 256.2 -169.365279 
L 256.2 -167.71967 
L 256.200004 -166.074062 
L 256.200116 -164.428454 
L 256.201584 -162.782846 
L 256.209697 -161.137238 
L 256.226674 -159.49163 
L 256.232959 -157.846021 
L 256.218293 -156.200413 
L 256.204561 -154.554805 
z
" style="stroke: #484848; stroke-opacity: 0.5; stroke-width: 1.25"/>
    </defs>
    <g clip-path="url(#p5afa694242)">
     <use xlink:href="#m92269096b9" x="0" y="432" style="fill: #72b6a1; fill-opacity: 0.5; stroke: #484848; stroke-opacity: 0.5; stroke-width: 1.25"/>
    </g>
   </g>
   <g id="PolyCollection_2">
    <defs>
     <path id="md77ffd32df" d="M 516.604472 -68.825455 
L 516.595528 -68.825455 
L 516.572875 -71.336776 
L 516.574933 -73.848098 
L 516.596471 -76.35942 
L 516.599924 -78.870742 
L 516.6 -81.382064 
L 516.6 -83.893386 
L 516.6 -86.404708 
L 516.6 -88.91603 
L 516.6 -91.427351 
L 516.6 -93.938673 
L 516.6 -96.449995 
L 516.6 -98.961317 
L 516.6 -101.472639 
L 516.6 -103.983961 
L 516.6 -106.495283 
L 516.6 -109.006605 
L 516.6 -111.517926 
L 516.6 -114.029248 
L 516.6 -116.54057 
L 516.6 -119.051892 
L 516.6 -121.563214 
L 516.6 -124.074536 
L 516.6 -126.585858 
L 516.6 -129.09718 
L 516.6 -131.608501 
L 516.6 -134.119823 
L 516.6 -136.631145 
L 516.6 -139.142467 
L 516.6 -141.653789 
L 516.6 -144.165111 
L 516.6 -146.676433 
L 516.6 -149.187755 
L 516.6 -151.699076 
L 516.6 -154.210398 
L 516.6 -156.72172 
L 516.6 -159.233042 
L 516.6 -161.744364 
L 516.6 -164.255686 
L 516.6 -166.767008 
L 516.6 -169.27833 
L 516.6 -171.789652 
L 516.6 -174.300973 
L 516.6 -176.812295 
L 516.6 -179.323617 
L 516.6 -181.834939 
L 516.6 -184.346261 
L 516.6 -186.857583 
L 516.6 -189.368905 
L 516.6 -191.880227 
L 516.6 -194.391548 
L 516.599999 -196.90287 
L 516.599811 -199.414192 
L 516.59395 -201.925514 
L 516.570425 -204.436836 
L 516.577973 -206.948158 
L 516.5975 -209.45948 
L 516.599957 -211.970802 
L 516.6 -214.482123 
L 516.6 -216.993445 
L 516.599994 -219.504767 
L 516.599325 -222.016089 
L 516.587907 -224.527411 
L 516.566991 -227.038733 
L 516.586238 -229.550055 
L 516.595809 -232.061377 
L 516.538282 -234.572698 
L 516.340532 -237.08402 
L 516.270418 -239.595342 
L 516.291069 -242.106664 
L 516.337759 -244.617986 
L 516.266644 -247.129308 
L 516.082171 -249.64063 
L 515.986942 -252.151952 
L 515.867141 -254.663273 
L 515.636311 -257.174595 
L 515.328204 -259.685917 
L 515.031458 -262.197239 
L 514.646537 -264.708561 
L 513.943544 -267.219883 
L 512.670765 -269.731205 
L 511.707922 -272.242527 
L 510.629554 -274.753848 
L 509.340728 -277.26517 
L 508.243629 -279.776492 
L 506.646239 -282.287814 
L 504.94148 -284.799136 
L 503.051192 -287.310458 
L 499.413498 -289.82178 
L 494.379547 -292.333102 
L 488.93881 -294.844423 
L 482.397375 -297.355745 
L 475.509961 -299.867067 
L 467.457851 -302.378389 
L 454.288859 -304.889711 
L 434.571415 -307.401033 
L 412.44 -309.912355 
L 419.419065 -312.423677 
L 479.402128 -314.934998 
L 513.140744 -317.44632 
L 520.059256 -317.44632 
L 520.059256 -317.44632 
L 553.797872 -314.934998 
L 613.780935 -312.423677 
L 620.76 -309.912355 
L 598.628585 -307.401033 
L 578.911141 -304.889711 
L 565.742149 -302.378389 
L 557.690039 -299.867067 
L 550.802625 -297.355745 
L 544.26119 -294.844423 
L 538.820453 -292.333102 
L 533.786502 -289.82178 
L 530.148808 -287.310458 
L 528.25852 -284.799136 
L 526.553761 -282.287814 
L 524.956371 -279.776492 
L 523.859272 -277.26517 
L 522.570446 -274.753848 
L 521.492078 -272.242527 
L 520.529235 -269.731205 
L 519.256456 -267.219883 
L 518.553463 -264.708561 
L 518.168542 -262.197239 
L 517.871796 -259.685917 
L 517.563689 -257.174595 
L 517.332859 -254.663273 
L 517.213058 -252.151952 
L 517.117829 -249.64063 
L 516.933356 -247.129308 
L 516.862241 -244.617986 
L 516.908931 -242.106664 
L 516.929582 -239.595342 
L 516.859468 -237.08402 
L 516.661718 -234.572698 
L 516.604191 -232.061377 
L 516.613762 -229.550055 
L 516.633009 -227.038733 
L 516.612093 -224.527411 
L 516.600675 -222.016089 
L 516.600006 -219.504767 
L 516.6 -216.993445 
L 516.6 -214.482123 
L 516.600043 -211.970802 
L 516.6025 -209.45948 
L 516.622027 -206.948158 
L 516.629575 -204.436836 
L 516.60605 -201.925514 
L 516.600189 -199.414192 
L 516.600001 -196.90287 
L 516.6 -194.391548 
L 516.6 -191.880227 
L 516.6 -189.368905 
L 516.6 -186.857583 
L 516.6 -184.346261 
L 516.6 -181.834939 
L 516.6 -179.323617 
L 516.6 -176.812295 
L 516.6 -174.300973 
L 516.6 -171.789652 
L 516.6 -169.27833 
L 516.6 -166.767008 
L 516.6 -164.255686 
L 516.6 -161.744364 
L 516.6 -159.233042 
L 516.6 -156.72172 
L 516.6 -154.210398 
L 516.6 -151.699076 
L 516.6 -149.187755 
L 516.6 -146.676433 
L 516.6 -144.165111 
L 516.6 -141.653789 
L 516.6 -139.142467 
L 516.6 -136.631145 
L 516.6 -134.119823 
L 516.6 -131.608501 
L 516.6 -129.09718 
L 516.6 -126.585858 
L 516.6 -124.074536 
L 516.6 -121.563214 
L 516.6 -119.051892 
L 516.6 -116.54057 
L 516.6 -114.029248 
L 516.6 -111.517926 
L 516.6 -109.006605 
L 516.6 -106.495283 
L 516.6 -103.983961 
L 516.6 -101.472639 
L 516.6 -98.961317 
L 516.6 -96.449995 
L 516.6 -93.938673 
L 516.6 -91.427351 
L 516.6 -88.91603 
L 516.6 -86.404708 
L 516.6 -83.893386 
L 516.6 -81.382064 
L 516.600076 -78.870742 
L 516.603529 -76.35942 
L 516.625067 -73.848098 
L 516.627125 -71.336776 
L 516.604472 -68.825455 
z
" style="stroke: #484848; stroke-opacity: 0.5; stroke-width: 1.25"/>
    </defs>
    <g clip-path="url(#p5afa694242)">
     <use xlink:href="#md77ffd32df" x="0" y="432" style="fill: #477ca8; fill-opacity: 0.5; stroke: #484848; stroke-opacity: 0.5; stroke-width: 1.25"/>
    </g>
   </g>
   <g id="PolyCollection_3">
    <defs>
     <path id="m64086d4dbe" d="M 777.004716 -243.875453 
L 776.995284 -243.875453 
L 776.986227 -245.102312 
L 776.973207 -246.329172 
L 776.965285 -247.556031 
L 776.970039 -248.782891 
L 776.982776 -250.00975 
L 776.993405 -251.23661 
L 776.998318 -252.463469 
L 776.999714 -253.690329 
L 776.999968 -254.917188 
L 776.999998 -256.144048 
L 777 -257.370907 
L 777 -258.597767 
L 777 -259.824626 
L 777 -261.051486 
L 777 -262.278345 
L 776.999999 -263.505205 
L 776.999981 -264.732064 
L 776.999805 -265.958924 
L 776.998619 -267.185783 
L 776.993353 -268.412643 
L 776.978111 -269.639503 
L 776.950035 -270.866362 
L 776.919324 -272.093222 
L 776.90454 -273.320081 
L 776.91077 -274.546941 
L 776.922199 -275.7738 
L 776.922273 -277.00066 
L 776.911662 -278.227519 
L 776.899902 -279.454379 
L 776.889433 -280.681238 
L 776.875367 -281.908098 
L 776.853765 -283.134957 
L 776.828855 -284.361817 
L 776.812067 -285.588676 
L 776.804303 -286.815536 
L 776.788174 -288.042395 
L 776.751576 -289.269255 
L 776.702648 -290.496114 
L 776.655738 -291.722974 
L 776.623431 -292.949833 
L 776.614817 -294.176693 
L 776.622451 -295.403553 
L 776.624184 -296.630412 
L 776.593383 -297.857272 
L 776.507794 -299.084131 
L 776.378766 -300.310991 
L 776.246144 -301.53785 
L 776.119955 -302.76471 
L 775.959475 -303.991569 
L 775.723195 -305.218429 
L 775.422348 -306.445288 
L 775.110273 -307.672148 
L 774.847096 -308.899007 
L 774.680515 -310.125867 
L 774.596793 -311.352726 
L 774.508943 -312.579586 
L 774.329197 -313.806445 
L 774.008519 -315.033305 
L 773.538221 -316.260164 
L 772.956143 -317.487024 
L 772.317495 -318.713884 
L 771.681768 -319.940743 
L 771.115516 -321.167603 
L 770.57484 -322.394462 
L 769.853327 -323.621322 
L 768.86987 -324.848181 
L 767.827826 -326.075041 
L 766.872761 -327.3019 
L 765.912294 -328.52876 
L 764.887994 -329.755619 
L 763.889146 -330.982479 
L 762.971571 -332.209338 
L 762.020497 -333.436198 
L 760.771155 -334.663057 
L 759.034046 -335.889917 
L 756.972811 -337.116776 
L 755.010125 -338.343636 
L 753.391386 -339.570495 
L 751.997727 -340.797355 
L 750.576312 -342.024214 
L 748.90205 -343.251074 
L 746.741953 -344.477934 
L 743.802607 -345.704793 
L 739.560908 -346.931653 
L 733.275392 -348.158512 
L 724.739807 -349.385372 
L 715.435063 -350.612231 
L 708.720818 -351.839091 
L 707.633439 -353.06595 
L 711.123749 -354.29281 
L 712.881057 -355.519669 
L 705.891592 -356.746529 
L 689.660971 -357.973388 
L 673.709602 -359.200248 
L 672.84 -360.427107 
L 694.080478 -361.653967 
L 727.479647 -362.880826 
L 755.600586 -364.107686 
L 770.479514 -365.334545 
L 783.520486 -365.334545 
L 783.520486 -365.334545 
L 798.399414 -364.107686 
L 826.520353 -362.880826 
L 859.919522 -361.653967 
L 881.16 -360.427107 
L 880.290398 -359.200248 
L 864.339029 -357.973388 
L 848.108408 -356.746529 
L 841.118943 -355.519669 
L 842.876251 -354.29281 
L 846.366561 -353.06595 
L 845.279182 -351.839091 
L 838.564937 -350.612231 
L 829.260193 -349.385372 
L 820.724608 -348.158512 
L 814.439092 -346.931653 
L 810.197393 -345.704793 
L 807.258047 -344.477934 
L 805.09795 -343.251074 
L 803.423688 -342.024214 
L 802.002273 -340.797355 
L 800.608614 -339.570495 
L 798.989875 -338.343636 
L 797.027189 -337.116776 
L 794.965954 -335.889917 
L 793.228845 -334.663057 
L 791.979503 -333.436198 
L 791.028429 -332.209338 
L 790.110854 -330.982479 
L 789.112006 -329.755619 
L 788.087706 -328.52876 
L 787.127239 -327.3019 
L 786.172174 -326.075041 
L 785.13013 -324.848181 
L 784.146673 -323.621322 
L 783.42516 -322.394462 
L 782.884484 -321.167603 
L 782.318232 -319.940743 
L 781.682505 -318.713884 
L 781.043857 -317.487024 
L 780.461779 -316.260164 
L 779.991481 -315.033305 
L 779.670803 -313.806445 
L 779.491057 -312.579586 
L 779.403207 -311.352726 
L 779.319485 -310.125867 
L 779.152904 -308.899007 
L 778.889727 -307.672148 
L 778.577652 -306.445288 
L 778.276805 -305.218429 
L 778.040525 -303.991569 
L 777.880045 -302.76471 
L 777.753856 -301.53785 
L 777.621234 -300.310991 
L 777.492206 -299.084131 
L 777.406617 -297.857272 
L 777.375816 -296.630412 
L 777.377549 -295.403553 
L 777.385183 -294.176693 
L 777.376569 -292.949833 
L 777.344262 -291.722974 
L 777.297352 -290.496114 
L 777.248424 -289.269255 
L 777.211826 -288.042395 
L 777.195697 -286.815536 
L 777.187933 -285.588676 
L 777.171145 -284.361817 
L 777.146235 -283.134957 
L 777.124633 -281.908098 
L 777.110567 -280.681238 
L 777.100098 -279.454379 
L 777.088338 -278.227519 
L 777.077727 -277.00066 
L 777.077801 -275.7738 
L 777.08923 -274.546941 
L 777.09546 -273.320081 
L 777.080676 -272.093222 
L 777.049965 -270.866362 
L 777.021889 -269.639503 
L 777.006647 -268.412643 
L 777.001381 -267.185783 
L 777.000195 -265.958924 
L 777.000019 -264.732064 
L 777.000001 -263.505205 
L 777 -262.278345 
L 777 -261.051486 
L 777 -259.824626 
L 777 -258.597767 
L 777 -257.370907 
L 777.000002 -256.144048 
L 777.000032 -254.917188 
L 777.000286 -253.690329 
L 777.001682 -252.463469 
L 777.006595 -251.23661 
L 777.017224 -250.00975 
L 777.029961 -248.782891 
L 777.034715 -247.556031 
L 777.026793 -246.329172 
L 777.013773 -245.102312 
L 777.004716 -243.875453 
z
" style="stroke: #484848; stroke-opacity: 0.5; stroke-width: 1.25"/>
    </defs>
    <g clip-path="url(#p5afa694242)">
     <use xlink:href="#m64086d4dbe" x="0" y="432" style="fill: #cb3335; fill-opacity: 0.5; stroke: #484848; stroke-opacity: 0.5; stroke-width: 1.25"/>
    </g>
   </g>
   <g id="matplotlib.axis_1">
    <g id="xtick_1">
     <g id="line2d_1">
      <defs>
       <path id="m6e99a78977" d="M 0 0 
L 0 3.5 
" style="stroke: #000000; stroke-width: 0.8"/>
      </defs>
      <g>
       <use xlink:href="#m6e99a78977" x="256.2" y="378" style="stroke: #000000; stroke-width: 0.8"/>
      </g>
     </g>
     <g id="text_1">
      <!-- BRO -->
      <g transform="translate(236.686875 398.677188) scale(0.18 -0.18)">
       <defs>
        <path id="DejaVuSans-42" d="M 1259 2228 
L 1259 519 
L 2272 519 
Q 2781 519 3026 730 
Q 3272 941 3272 1375 
Q 3272 1813 3026 2020 
Q 2781 2228 2272 2228 
L 1259 2228 
z
M 1259 4147 
L 1259 2741 
L 2194 2741 
Q 2656 2741 2882 2914 
Q 3109 3088 3109 3444 
Q 3109 3797 2882 3972 
Q 2656 4147 2194 4147 
L 1259 4147 
z
M 628 4666 
L 2241 4666 
Q 2963 4666 3353 4366 
Q 3744 4066 3744 3513 
Q 3744 3084 3544 2831 
Q 3344 2578 2956 2516 
Q 3422 2416 3680 2098 
Q 3938 1781 3938 1306 
Q 3938 681 3513 340 
Q 3088 0 2303 0 
L 628 0 
L 628 4666 
z
" transform="scale(0.015625)"/>
        <path id="DejaVuSans-52" d="M 2841 2188 
Q 3044 2119 3236 1894 
Q 3428 1669 3622 1275 
L 4263 0 
L 3584 0 
L 2988 1197 
Q 2756 1666 2539 1819 
Q 2322 1972 1947 1972 
L 1259 1972 
L 1259 0 
L 628 0 
L 628 4666 
L 2053 4666 
Q 2853 4666 3247 4331 
Q 3641 3997 3641 3322 
Q 3641 2881 3436 2590 
Q 3231 2300 2841 2188 
z
M 1259 4147 
L 1259 2491 
L 2053 2491 
Q 2509 2491 2742 2702 
Q 2975 2913 2975 3322 
Q 2975 3731 2742 3939 
Q 2509 4147 2053 4147 
L 1259 4147 
z
" transform="scale(0.015625)"/>
        <path id="DejaVuSans-4f" d="M 2522 4238 
Q 1834 4238 1429 3725 
Q 1025 3213 1025 2328 
Q 1025 1447 1429 934 
Q 1834 422 2522 422 
Q 3209 422 3611 934 
Q 4013 1447 4013 2328 
Q 4013 3213 3611 3725 
Q 3209 4238 2522 4238 
z
M 2522 4750 
Q 3503 4750 4090 4092 
Q 4678 3434 4678 2328 
Q 4678 1225 4090 567 
Q 3503 -91 2522 -91 
Q 1538 -91 948 565 
Q 359 1222 359 2328 
Q 359 3434 948 4092 
Q 1538 4750 2522 4750 
z
" transform="scale(0.015625)"/>
       </defs>
       <use xlink:href="#DejaVuSans-42"/>
       <use xlink:href="#DejaVuSans-52" x="68.603516"/>
       <use xlink:href="#DejaVuSans-4f" x="138.085938"/>
      </g>
     </g>
    </g>
    <g id="xtick_2">
     <g id="line2d_2">
      <g>
       <use xlink:href="#m6e99a78977" x="516.6" y="378" style="stroke: #000000; stroke-width: 0.8"/>
      </g>
     </g>
     <g id="text_2">
      <!-- NEU -->
      <g transform="translate(497.593125 398.677188) scale(0.18 -0.18)">
       <defs>
        <path id="DejaVuSans-4e" d="M 628 4666 
L 1478 4666 
L 3547 763 
L 3547 4666 
L 4159 4666 
L 4159 0 
L 3309 0 
L 1241 3903 
L 1241 0 
L 628 0 
L 628 4666 
z
" transform="scale(0.015625)"/>
        <path id="DejaVuSans-45" d="M 628 4666 
L 3578 4666 
L 3578 4134 
L 1259 4134 
L 1259 2753 
L 3481 2753 
L 3481 2222 
L 1259 2222 
L 1259 531 
L 3634 531 
L 3634 0 
L 628 0 
L 628 4666 
z
" transform="scale(0.015625)"/>
        <path id="DejaVuSans-55" d="M 556 4666 
L 1191 4666 
L 1191 1831 
Q 1191 1081 1462 751 
Q 1734 422 2344 422 
Q 2950 422 3222 751 
Q 3494 1081 3494 1831 
L 3494 4666 
L 4128 4666 
L 4128 1753 
Q 4128 841 3676 375 
Q 3225 -91 2344 -91 
Q 1459 -91 1007 375 
Q 556 841 556 1753 
L 556 4666 
z
" transform="scale(0.015625)"/>
       </defs>
       <use xlink:href="#DejaVuSans-4e"/>
       <use xlink:href="#DejaVuSans-45" x="74.804688"/>
       <use xlink:href="#DejaVuSans-55" x="137.988281"/>
      </g>
     </g>
    </g>
    <g id="xtick_3">
     <g id="line2d_3">
      <g>
       <use xlink:href="#m6e99a78977" x="777" y="378" style="stroke: #000000; stroke-width: 0.8"/>
      </g>
     </g>
     <g id="text_3">
      <!-- NON -->
      <g transform="translate(756.449062 398.677188) scale(0.18 -0.18)">
       <use xlink:href="#DejaVuSans-4e"/>
       <use xlink:href="#DejaVuSans-4f" x="74.804688"/>
       <use xlink:href="#DejaVuSans-4e" x="153.515625"/>
      </g>
     </g>
    </g>
   </g>
   <g id="matplotlib.axis_2">
    <g id="ytick_1">
     <g id="line2d_4">
      <defs>
       <path id="mb125a300f7" d="M 0 0 
L -3.5 0 
" style="stroke: #000000; stroke-width: 0.8"/>
      </defs>
      <g>
       <use xlink:href="#mb125a300f7" x="126" y="324.579046" style="stroke: #000000; stroke-width: 0.8"/>
      </g>
     </g>
     <g id="text_4">
      <!-- 20 -->
      <g transform="translate(96.095 331.41764) scale(0.18 -0.18)">
       <defs>
        <path id="DejaVuSans-32" d="M 1228 531 
L 3431 531 
L 3431 0 
L 469 0 
L 469 531 
Q 828 903 1448 1529 
Q 2069 2156 2228 2338 
Q 2531 2678 2651 2914 
Q 2772 3150 2772 3378 
Q 2772 3750 2511 3984 
Q 2250 4219 1831 4219 
Q 1534 4219 1204 4116 
Q 875 4013 500 3803 
L 500 4441 
Q 881 4594 1212 4672 
Q 1544 4750 1819 4750 
Q 2544 4750 2975 4387 
Q 3406 4025 3406 3419 
Q 3406 3131 3298 2873 
Q 3191 2616 2906 2266 
Q 2828 2175 2409 1742 
Q 1991 1309 1228 531 
z
" transform="scale(0.015625)"/>
        <path id="DejaVuSans-30" d="M 2034 4250 
Q 1547 4250 1301 3770 
Q 1056 3291 1056 2328 
Q 1056 1369 1301 889 
Q 1547 409 2034 409 
Q 2525 409 2770 889 
Q 3016 1369 3016 2328 
Q 3016 3291 2770 3770 
Q 2525 4250 2034 4250 
z
M 2034 4750 
Q 2819 4750 3233 4129 
Q 3647 3509 3647 2328 
Q 3647 1150 3233 529 
Q 2819 -91 2034 -91 
Q 1250 -91 836 529 
Q 422 1150 422 2328 
Q 422 3509 836 4129 
Q 1250 4750 2034 4750 
z
" transform="scale(0.015625)"/>
       </defs>
       <use xlink:href="#DejaVuSans-32"/>
       <use xlink:href="#DejaVuSans-30" x="63.623047"/>
      </g>
     </g>
    </g>
    <g id="ytick_2">
     <g id="line2d_5">
      <g>
       <use xlink:href="#mb125a300f7" x="126" y="261.062978" style="stroke: #000000; stroke-width: 0.8"/>
      </g>
     </g>
     <g id="text_5">
      <!-- 40 -->
      <g transform="translate(96.095 267.901572) scale(0.18 -0.18)">
       <defs>
        <path id="DejaVuSans-34" d="M 2419 4116 
L 825 1625 
L 2419 1625 
L 2419 4116 
z
M 2253 4666 
L 3047 4666 
L 3047 1625 
L 3713 1625 
L 3713 1100 
L 3047 1100 
L 3047 0 
L 2419 0 
L 2419 1100 
L 313 1100 
L 313 1709 
L 2253 4666 
z
" transform="scale(0.015625)"/>
       </defs>
       <use xlink:href="#DejaVuSans-34"/>
       <use xlink:href="#DejaVuSans-30" x="63.623047"/>
      </g>
     </g>
    </g>
    <g id="ytick_3">
     <g id="line2d_6">
      <g>
       <use xlink:href="#mb125a300f7" x="126" y="197.54691" style="stroke: #000000; stroke-width: 0.8"/>
      </g>
     </g>
     <g id="text_6">
      <!-- 60 -->
      <g transform="translate(96.095 204.385504) scale(0.18 -0.18)">
       <defs>
        <path id="DejaVuSans-36" d="M 2113 2584 
Q 1688 2584 1439 2293 
Q 1191 2003 1191 1497 
Q 1191 994 1439 701 
Q 1688 409 2113 409 
Q 2538 409 2786 701 
Q 3034 994 3034 1497 
Q 3034 2003 2786 2293 
Q 2538 2584 2113 2584 
z
M 3366 4563 
L 3366 3988 
Q 3128 4100 2886 4159 
Q 2644 4219 2406 4219 
Q 1781 4219 1451 3797 
Q 1122 3375 1075 2522 
Q 1259 2794 1537 2939 
Q 1816 3084 2150 3084 
Q 2853 3084 3261 2657 
Q 3669 2231 3669 1497 
Q 3669 778 3244 343 
Q 2819 -91 2113 -91 
Q 1303 -91 875 529 
Q 447 1150 447 2328 
Q 447 3434 972 4092 
Q 1497 4750 2381 4750 
Q 2619 4750 2861 4703 
Q 3103 4656 3366 4563 
z
" transform="scale(0.015625)"/>
       </defs>
       <use xlink:href="#DejaVuSans-36"/>
       <use xlink:href="#DejaVuSans-30" x="63.623047"/>
      </g>
     </g>
    </g>
    <g id="ytick_4">
     <g id="line2d_7">
      <g>
       <use xlink:href="#mb125a300f7" x="126" y="134.030842" style="stroke: #000000; stroke-width: 0.8"/>
      </g>
     </g>
     <g id="text_7">
      <!-- 80 -->
      <g transform="translate(96.095 140.869436) scale(0.18 -0.18)">
       <defs>
        <path id="DejaVuSans-38" d="M 2034 2216 
Q 1584 2216 1326 1975 
Q 1069 1734 1069 1313 
Q 1069 891 1326 650 
Q 1584 409 2034 409 
Q 2484 409 2743 651 
Q 3003 894 3003 1313 
Q 3003 1734 2745 1975 
Q 2488 2216 2034 2216 
z
M 1403 2484 
Q 997 2584 770 2862 
Q 544 3141 544 3541 
Q 544 4100 942 4425 
Q 1341 4750 2034 4750 
Q 2731 4750 3128 4425 
Q 3525 4100 3525 3541 
Q 3525 3141 3298 2862 
Q 3072 2584 2669 2484 
Q 3125 2378 3379 2068 
Q 3634 1759 3634 1313 
Q 3634 634 3220 271 
Q 2806 -91 2034 -91 
Q 1263 -91 848 271 
Q 434 634 434 1313 
Q 434 1759 690 2068 
Q 947 2378 1403 2484 
z
M 1172 3481 
Q 1172 3119 1398 2916 
Q 1625 2713 2034 2713 
Q 2441 2713 2670 2916 
Q 2900 3119 2900 3481 
Q 2900 3844 2670 4047 
Q 2441 4250 2034 4250 
Q 1625 4250 1398 4047 
Q 1172 3844 1172 3481 
z
" transform="scale(0.015625)"/>
       </defs>
       <use xlink:href="#DejaVuSans-38"/>
       <use xlink:href="#DejaVuSans-30" x="63.623047"/>
      </g>
     </g>
    </g>
    <g id="ytick_5">
     <g id="line2d_8">
      <g>
       <use xlink:href="#mb125a300f7" x="126" y="70.514774" style="stroke: #000000; stroke-width: 0.8"/>
      </g>
     </g>
     <g id="text_8">
      <!-- 100 -->
      <g transform="translate(84.6425 77.353368) scale(0.18 -0.18)">
       <defs>
        <path id="DejaVuSans-31" d="M 794 531 
L 1825 531 
L 1825 4091 
L 703 3866 
L 703 4441 
L 1819 4666 
L 2450 4666 
L 2450 531 
L 3481 531 
L 3481 0 
L 794 0 
L 794 531 
z
" transform="scale(0.015625)"/>
       </defs>
       <use xlink:href="#DejaVuSans-31"/>
       <use xlink:href="#DejaVuSans-30" x="63.623047"/>
       <use xlink:href="#DejaVuSans-30" x="127.246094"/>
      </g>
     </g>
    </g>
    <g id="text_9">
     <!-- v_identity -->
     <g transform="translate(76.398438 259.086094) rotate(-90) scale(0.18 -0.18)">
      <defs>
       <path id="DejaVuSans-76" d="M 191 3500 
L 800 3500 
L 1894 563 
L 2988 3500 
L 3597 3500 
L 2284 0 
L 1503 0 
L 191 3500 
z
" transform="scale(0.015625)"/>
       <path id="DejaVuSans-5f" d="M 3263 -1063 
L 3263 -1509 
L -63 -1509 
L -63 -1063 
L 3263 -1063 
z
" transform="scale(0.015625)"/>
       <path id="DejaVuSans-69" d="M 603 3500 
L 1178 3500 
L 1178 0 
L 603 0 
L 603 3500 
z
M 603 4863 
L 1178 4863 
L 1178 4134 
L 603 4134 
L 603 4863 
z
" transform="scale(0.015625)"/>
       <path id="DejaVuSans-64" d="M 2906 2969 
L 2906 4863 
L 3481 4863 
L 3481 0 
L 2906 0 
L 2906 525 
Q 2725 213 2448 61 
Q 2172 -91 1784 -91 
Q 1150 -91 751 415 
Q 353 922 353 1747 
Q 353 2572 751 3078 
Q 1150 3584 1784 3584 
Q 2172 3584 2448 3432 
Q 2725 3281 2906 2969 
z
M 947 1747 
Q 947 1113 1208 752 
Q 1469 391 1925 391 
Q 2381 391 2643 752 
Q 2906 1113 2906 1747 
Q 2906 2381 2643 2742 
Q 2381 3103 1925 3103 
Q 1469 3103 1208 2742 
Q 947 2381 947 1747 
z
" transform="scale(0.015625)"/>
       <path id="DejaVuSans-65" d="M 3597 1894 
L 3597 1613 
L 953 1613 
Q 991 1019 1311 708 
Q 1631 397 2203 397 
Q 2534 397 2845 478 
Q 3156 559 3463 722 
L 3463 178 
Q 3153 47 2828 -22 
Q 2503 -91 2169 -91 
Q 1331 -91 842 396 
Q 353 884 353 1716 
Q 353 2575 817 3079 
Q 1281 3584 2069 3584 
Q 2775 3584 3186 3129 
Q 3597 2675 3597 1894 
z
M 3022 2063 
Q 3016 2534 2758 2815 
Q 2500 3097 2075 3097 
Q 1594 3097 1305 2825 
Q 1016 2553 972 2059 
L 3022 2063 
z
" transform="scale(0.015625)"/>
       <path id="DejaVuSans-6e" d="M 3513 2113 
L 3513 0 
L 2938 0 
L 2938 2094 
Q 2938 2591 2744 2837 
Q 2550 3084 2163 3084 
Q 1697 3084 1428 2787 
Q 1159 2491 1159 1978 
L 1159 0 
L 581 0 
L 581 3500 
L 1159 3500 
L 1159 2956 
Q 1366 3272 1645 3428 
Q 1925 3584 2291 3584 
Q 2894 3584 3203 3211 
Q 3513 2838 3513 2113 
z
" transform="scale(0.015625)"/>
       <path id="DejaVuSans-74" d="M 1172 4494 
L 1172 3500 
L 2356 3500 
L 2356 3053 
L 1172 3053 
L 1172 1153 
Q 1172 725 1289 603 
Q 1406 481 1766 481 
L 2356 481 
L 2356 0 
L 1766 0 
Q 1100 0 847 248 
Q 594 497 594 1153 
L 594 3053 
L 172 3053 
L 172 3500 
L 594 3500 
L 594 4494 
L 1172 4494 
z
" transform="scale(0.015625)"/>
       <path id="DejaVuSans-79" d="M 2059 -325 
Q 1816 -950 1584 -1140 
Q 1353 -1331 966 -1331 
L 506 -1331 
L 506 -850 
L 844 -850 
Q 1081 -850 1212 -737 
Q 1344 -625 1503 -206 
L 1606 56 
L 191 3500 
L 800 3500 
L 1894 763 
L 2988 3500 
L 3597 3500 
L 2059 -325 
z
" transform="scale(0.015625)"/>
      </defs>
      <use xlink:href="#DejaVuSans-76"/>
      <use xlink:href="#DejaVuSans-5f" x="59.179688"/>
      <use xlink:href="#DejaVuSans-69" x="109.179688"/>
      <use xlink:href="#DejaVuSans-64" x="136.962891"/>
      <use xlink:href="#DejaVuSans-65" x="200.439453"/>
      <use xlink:href="#DejaVuSans-6e" x="261.962891"/>
      <use xlink:href="#DejaVuSans-74" x="325.341797"/>
      <use xlink:href="#DejaVuSans-69" x="364.550781"/>
      <use xlink:href="#DejaVuSans-74" x="392.333984"/>
      <use xlink:href="#DejaVuSans-79" x="431.542969"/>
     </g>
    </g>
   </g>
   <g id="line2d_9">
    <path d="M 256.2 155.791447 
L 256.2 118.20899 
" clip-path="url(#p5afa694242)" style="fill: none; stroke: #484848; stroke-width: 1.875; stroke-linecap: square"/>
   </g>
   <g id="line2d_10">
    <path d="M 256.2 135.275757 
L 256.2 121.575341 
" clip-path="url(#p5afa694242)" style="fill: none; stroke: #484848; stroke-width: 5.625; stroke-linecap: square"/>
   </g>
   <g id="line2d_11">
    <path d="M 256.2 126.558177 
" clip-path="url(#p5afa694242)" style="fill: none; stroke: #484848; stroke-width: 1.5; stroke-linecap: square"/>
    <defs>
     <path id="m5ad047bebe" d="M 2.34375 0 
L -2.34375 -0 
" style="stroke: #ffffff; stroke-width: 1.125"/>
    </defs>
    <g clip-path="url(#p5afa694242)">
     <use xlink:href="#m5ad047bebe" x="256.2" y="126.558177" style="fill: #ffffff; stroke: #ffffff; stroke-width: 1.125"/>
    </g>
   </g>
   <g id="line2d_12">
    <path d="M 516.6 154.089217 
L 516.6 118.215341 
" clip-path="url(#p5afa694242)" style="fill: none; stroke: #484848; stroke-width: 1.875; stroke-linecap: square"/>
   </g>
   <g id="line2d_13">
    <path d="M 516.6 134.478631 
L 516.6 121.378441 
" clip-path="url(#p5afa694242)" style="fill: none; stroke: #484848; stroke-width: 5.625; stroke-linecap: square"/>
   </g>
   <g id="line2d_14">
    <path d="M 516.6 125.802336 
" clip-path="url(#p5afa694242)" style="fill: none; stroke: #484848; stroke-width: 1.5; stroke-linecap: square"/>
    <g clip-path="url(#p5afa694242)">
     <use xlink:href="#m5ad047bebe" x="516.6" y="125.802336" style="fill: #ffffff; stroke: #ffffff; stroke-width: 1.125"/>
    </g>
   </g>
   <g id="line2d_15">
    <path d="M 777 109.751825 
L 777 70.514774 
" clip-path="url(#p5afa694242)" style="fill: none; stroke: #484848; stroke-width: 1.875; stroke-linecap: square"/>
   </g>
   <g id="line2d_16">
    <path d="M 777 87.746683 
L 777 72.995077 
" clip-path="url(#p5afa694242)" style="fill: none; stroke: #484848; stroke-width: 5.625; stroke-linecap: square"/>
   </g>
   <g id="line2d_17">
    <path d="M 777 79.232355 
" clip-path="url(#p5afa694242)" style="fill: none; stroke: #484848; stroke-width: 1.5; stroke-linecap: square"/>
    <g clip-path="url(#p5afa694242)">
     <use xlink:href="#m5ad047bebe" x="777" y="79.232355" style="fill: #ffffff; stroke: #ffffff; stroke-width: 1.125"/>
    </g>
   </g>
   <g id="patch_3">
    <path d="M 126 378 
L 126 51.84 
" style="fill: none; stroke: #000000; stroke-width: 0.8; stroke-linejoin: miter; stroke-linecap: square"/>
   </g>
   <g id="patch_4">
    <path d="M 907.2 378 
L 907.2 51.84 
" style="fill: none; stroke: #000000; stroke-width: 0.8; stroke-linejoin: miter; stroke-linecap: square"/>
   </g>
   <g id="patch_5">
    <path d="M 126 378 
L 907.2 378 
" style="fill: none; stroke: #000000; stroke-width: 0.8; stroke-linejoin: miter; stroke-linecap: square"/>
   </g>
   <g id="patch_6">
    <path d="M 126 51.84 
L 907.2 51.84 
" style="fill: none; stroke: #000000; stroke-width: 0.8; stroke-linejoin: miter; stroke-linecap: square"/>
   </g>
   <g id="text_10">
    <g id="patch_7">
     <path d="M 149.453281 257.86433 
L 232.746719 257.86433 
L 232.746719 236.194955 
L 149.453281 236.194955 
z
" style="fill: #ffffff; opacity: 0.7; stroke: #000000; stroke-linejoin: miter"/>
    </g>
    <!-- Avg: 81.20 -->
    <g transform="translate(153.513281 250.892768) scale(0.14 -0.14)">
     <defs>
      <path id="DejaVuSans-41" d="M 2188 4044 
L 1331 1722 
L 3047 1722 
L 2188 4044 
z
M 1831 4666 
L 2547 4666 
L 4325 0 
L 3669 0 
L 3244 1197 
L 1141 1197 
L 716 0 
L 50 0 
L 1831 4666 
z
" transform="scale(0.015625)"/>
      <path id="DejaVuSans-67" d="M 2906 1791 
Q 2906 2416 2648 2759 
Q 2391 3103 1925 3103 
Q 1463 3103 1205 2759 
Q 947 2416 947 1791 
Q 947 1169 1205 825 
Q 1463 481 1925 481 
Q 2391 481 2648 825 
Q 2906 1169 2906 1791 
z
M 3481 434 
Q 3481 -459 3084 -895 
Q 2688 -1331 1869 -1331 
Q 1566 -1331 1297 -1286 
Q 1028 -1241 775 -1147 
L 775 -588 
Q 1028 -725 1275 -790 
Q 1522 -856 1778 -856 
Q 2344 -856 2625 -561 
Q 2906 -266 2906 331 
L 2906 616 
Q 2728 306 2450 153 
Q 2172 0 1784 0 
Q 1141 0 747 490 
Q 353 981 353 1791 
Q 353 2603 747 3093 
Q 1141 3584 1784 3584 
Q 2172 3584 2450 3431 
Q 2728 3278 2906 2969 
L 2906 3500 
L 3481 3500 
L 3481 434 
z
" transform="scale(0.015625)"/>
      <path id="DejaVuSans-3a" d="M 750 794 
L 1409 794 
L 1409 0 
L 750 0 
L 750 794 
z
M 750 3309 
L 1409 3309 
L 1409 2516 
L 750 2516 
L 750 3309 
z
" transform="scale(0.015625)"/>
      <path id="DejaVuSans-20" transform="scale(0.015625)"/>
      <path id="DejaVuSans-2e" d="M 684 794 
L 1344 794 
L 1344 0 
L 684 0 
L 684 794 
z
" transform="scale(0.015625)"/>
     </defs>
     <use xlink:href="#DejaVuSans-41"/>
     <use xlink:href="#DejaVuSans-76" x="62.533203"/>
     <use xlink:href="#DejaVuSans-67" x="121.712891"/>
     <use xlink:href="#DejaVuSans-3a" x="185.189453"/>
     <use xlink:href="#DejaVuSans-20" x="218.880859"/>
     <use xlink:href="#DejaVuSans-38" x="250.667969"/>
     <use xlink:href="#DejaVuSans-31" x="314.291016"/>
     <use xlink:href="#DejaVuSans-2e" x="377.914062"/>
     <use xlink:href="#DejaVuSans-32" x="409.701172"/>
     <use xlink:href="#DejaVuSans-30" x="473.324219"/>
    </g>
   </g>
   <g id="text_11">
    <g id="patch_8">
     <path d="M 136.05375 232.457903 
L 246.14625 232.457903 
L 246.14625 210.788528 
L 136.05375 210.788528 
z
" style="fill: #ffffff; opacity: 0.7; stroke: #000000; stroke-linejoin: miter"/>
    </g>
    <!-- # seqs: 10865 -->
    <g transform="translate(140.11375 225.48634) scale(0.14 -0.14)">
     <defs>
      <path id="DejaVuSans-23" d="M 3272 2816 
L 2363 2816 
L 2100 1772 
L 3016 1772 
L 3272 2816 
z
M 2803 4594 
L 2478 3297 
L 3391 3297 
L 3719 4594 
L 4219 4594 
L 3897 3297 
L 4872 3297 
L 4872 2816 
L 3775 2816 
L 3519 1772 
L 4513 1772 
L 4513 1294 
L 3397 1294 
L 3072 0 
L 2572 0 
L 2894 1294 
L 1978 1294 
L 1656 0 
L 1153 0 
L 1478 1294 
L 494 1294 
L 494 1772 
L 1594 1772 
L 1856 2816 
L 850 2816 
L 850 3297 
L 1978 3297 
L 2297 4594 
L 2803 4594 
z
" transform="scale(0.015625)"/>
      <path id="DejaVuSans-73" d="M 2834 3397 
L 2834 2853 
Q 2591 2978 2328 3040 
Q 2066 3103 1784 3103 
Q 1356 3103 1142 2972 
Q 928 2841 928 2578 
Q 928 2378 1081 2264 
Q 1234 2150 1697 2047 
L 1894 2003 
Q 2506 1872 2764 1633 
Q 3022 1394 3022 966 
Q 3022 478 2636 193 
Q 2250 -91 1575 -91 
Q 1294 -91 989 -36 
Q 684 19 347 128 
L 347 722 
Q 666 556 975 473 
Q 1284 391 1588 391 
Q 1994 391 2212 530 
Q 2431 669 2431 922 
Q 2431 1156 2273 1281 
Q 2116 1406 1581 1522 
L 1381 1569 
Q 847 1681 609 1914 
Q 372 2147 372 2553 
Q 372 3047 722 3315 
Q 1072 3584 1716 3584 
Q 2034 3584 2315 3537 
Q 2597 3491 2834 3397 
z
" transform="scale(0.015625)"/>
      <path id="DejaVuSans-71" d="M 947 1747 
Q 947 1113 1208 752 
Q 1469 391 1925 391 
Q 2381 391 2643 752 
Q 2906 1113 2906 1747 
Q 2906 2381 2643 2742 
Q 2381 3103 1925 3103 
Q 1469 3103 1208 2742 
Q 947 2381 947 1747 
z
M 2906 525 
Q 2725 213 2448 61 
Q 2172 -91 1784 -91 
Q 1150 -91 751 415 
Q 353 922 353 1747 
Q 353 2572 751 3078 
Q 1150 3584 1784 3584 
Q 2172 3584 2448 3432 
Q 2725 3281 2906 2969 
L 2906 3500 
L 3481 3500 
L 3481 -1331 
L 2906 -1331 
L 2906 525 
z
" transform="scale(0.015625)"/>
      <path id="DejaVuSans-35" d="M 691 4666 
L 3169 4666 
L 3169 4134 
L 1269 4134 
L 1269 2991 
Q 1406 3038 1543 3061 
Q 1681 3084 1819 3084 
Q 2600 3084 3056 2656 
Q 3513 2228 3513 1497 
Q 3513 744 3044 326 
Q 2575 -91 1722 -91 
Q 1428 -91 1123 -41 
Q 819 9 494 109 
L 494 744 
Q 775 591 1075 516 
Q 1375 441 1709 441 
Q 2250 441 2565 725 
Q 2881 1009 2881 1497 
Q 2881 1984 2565 2268 
Q 2250 2553 1709 2553 
Q 1456 2553 1204 2497 
Q 953 2441 691 2322 
L 691 4666 
z
" transform="scale(0.015625)"/>
     </defs>
     <use xlink:href="#DejaVuSans-23"/>
     <use xlink:href="#DejaVuSans-20" x="83.789062"/>
     <use xlink:href="#DejaVuSans-73" x="115.576172"/>
     <use xlink:href="#DejaVuSans-65" x="167.675781"/>
     <use xlink:href="#DejaVuSans-71" x="229.199219"/>
     <use xlink:href="#DejaVuSans-73" x="292.675781"/>
     <use xlink:href="#DejaVuSans-3a" x="344.775391"/>
     <use xlink:href="#DejaVuSans-20" x="378.466797"/>
     <use xlink:href="#DejaVuSans-31" x="410.253906"/>
     <use xlink:href="#DejaVuSans-30" x="473.876953"/>
     <use xlink:href="#DejaVuSans-38" x="537.5"/>
     <use xlink:href="#DejaVuSans-36" x="601.123047"/>
     <use xlink:href="#DejaVuSans-35" x="664.746094"/>
    </g>
   </g>
   <g id="text_12">
    <g id="patch_9">
     <path d="M 409.853281 257.324086 
L 493.146719 257.324086 
L 493.146719 235.654711 
L 409.853281 235.654711 
z
" style="fill: #ffffff; opacity: 0.7; stroke: #000000; stroke-linejoin: miter"/>
    </g>
    <!-- Avg: 81.37 -->
    <g transform="translate(413.913281 250.352523) scale(0.14 -0.14)">
     <defs>
      <path id="DejaVuSans-33" d="M 2597 2516 
Q 3050 2419 3304 2112 
Q 3559 1806 3559 1356 
Q 3559 666 3084 287 
Q 2609 -91 1734 -91 
Q 1441 -91 1130 -33 
Q 819 25 488 141 
L 488 750 
Q 750 597 1062 519 
Q 1375 441 1716 441 
Q 2309 441 2620 675 
Q 2931 909 2931 1356 
Q 2931 1769 2642 2001 
Q 2353 2234 1838 2234 
L 1294 2234 
L 1294 2753 
L 1863 2753 
Q 2328 2753 2575 2939 
Q 2822 3125 2822 3475 
Q 2822 3834 2567 4026 
Q 2313 4219 1838 4219 
Q 1578 4219 1281 4162 
Q 984 4106 628 3988 
L 628 4550 
Q 988 4650 1302 4700 
Q 1616 4750 1894 4750 
Q 2613 4750 3031 4423 
Q 3450 4097 3450 3541 
Q 3450 3153 3228 2886 
Q 3006 2619 2597 2516 
z
" transform="scale(0.015625)"/>
      <path id="DejaVuSans-37" d="M 525 4666 
L 3525 4666 
L 3525 4397 
L 1831 0 
L 1172 0 
L 2766 4134 
L 525 4134 
L 525 4666 
z
" transform="scale(0.015625)"/>
     </defs>
     <use xlink:href="#DejaVuSans-41"/>
     <use xlink:href="#DejaVuSans-76" x="62.533203"/>
     <use xlink:href="#DejaVuSans-67" x="121.712891"/>
     <use xlink:href="#DejaVuSans-3a" x="185.189453"/>
     <use xlink:href="#DejaVuSans-20" x="218.880859"/>
     <use xlink:href="#DejaVuSans-38" x="250.667969"/>
     <use xlink:href="#DejaVuSans-31" x="314.291016"/>
     <use xlink:href="#DejaVuSans-2e" x="377.914062"/>
     <use xlink:href="#DejaVuSans-33" x="409.701172"/>
     <use xlink:href="#DejaVuSans-37" x="473.324219"/>
    </g>
   </g>
   <g id="text_13">
    <g id="patch_10">
     <path d="M 396.45375 231.917659 
L 506.54625 231.917659 
L 506.54625 210.248284 
L 396.45375 210.248284 
z
" style="fill: #ffffff; opacity: 0.7; stroke: #000000; stroke-linejoin: miter"/>
    </g>
    <!-- # seqs: 10855 -->
    <g transform="translate(400.51375 224.946096) scale(0.14 -0.14)">
     <use xlink:href="#DejaVuSans-23"/>
     <use xlink:href="#DejaVuSans-20" x="83.789062"/>
     <use xlink:href="#DejaVuSans-73" x="115.576172"/>
     <use xlink:href="#DejaVuSans-65" x="167.675781"/>
     <use xlink:href="#DejaVuSans-71" x="229.199219"/>
     <use xlink:href="#DejaVuSans-73" x="292.675781"/>
     <use xlink:href="#DejaVuSans-3a" x="344.775391"/>
     <use xlink:href="#DejaVuSans-20" x="378.466797"/>
     <use xlink:href="#DejaVuSans-31" x="410.253906"/>
     <use xlink:href="#DejaVuSans-30" x="473.876953"/>
     <use xlink:href="#DejaVuSans-38" x="537.5"/>
     <use xlink:href="#DejaVuSans-35" x="601.123047"/>
     <use xlink:href="#DejaVuSans-35" x="664.746094"/>
    </g>
   </g>
   <g id="text_14">
    <g id="patch_11">
     <path d="M 670.253281 209.940396 
L 753.546719 209.940396 
L 753.546719 188.271021 
L 670.253281 188.271021 
z
" style="fill: #ffffff; opacity: 0.7; stroke: #000000; stroke-linejoin: miter"/>
    </g>
    <!-- Avg: 96.29 -->
    <g transform="translate(674.313281 202.968833) scale(0.14 -0.14)">
     <defs>
      <path id="DejaVuSans-39" d="M 703 97 
L 703 672 
Q 941 559 1184 500 
Q 1428 441 1663 441 
Q 2288 441 2617 861 
Q 2947 1281 2994 2138 
Q 2813 1869 2534 1725 
Q 2256 1581 1919 1581 
Q 1219 1581 811 2004 
Q 403 2428 403 3163 
Q 403 3881 828 4315 
Q 1253 4750 1959 4750 
Q 2769 4750 3195 4129 
Q 3622 3509 3622 2328 
Q 3622 1225 3098 567 
Q 2575 -91 1691 -91 
Q 1453 -91 1209 -44 
Q 966 3 703 97 
z
M 1959 2075 
Q 2384 2075 2632 2365 
Q 2881 2656 2881 3163 
Q 2881 3666 2632 3958 
Q 2384 4250 1959 4250 
Q 1534 4250 1286 3958 
Q 1038 3666 1038 3163 
Q 1038 2656 1286 2365 
Q 1534 2075 1959 2075 
z
" transform="scale(0.015625)"/>
     </defs>
     <use xlink:href="#DejaVuSans-41"/>
     <use xlink:href="#DejaVuSans-76" x="62.533203"/>
     <use xlink:href="#DejaVuSans-67" x="121.712891"/>
     <use xlink:href="#DejaVuSans-3a" x="185.189453"/>
     <use xlink:href="#DejaVuSans-20" x="218.880859"/>
     <use xlink:href="#DejaVuSans-39" x="250.667969"/>
     <use xlink:href="#DejaVuSans-36" x="314.291016"/>
     <use xlink:href="#DejaVuSans-2e" x="377.914062"/>
     <use xlink:href="#DejaVuSans-32" x="409.701172"/>
     <use xlink:href="#DejaVuSans-39" x="473.324219"/>
    </g>
   </g>
   <g id="text_15">
    <g id="patch_12">
     <path d="M 656.85375 184.533968 
L 766.94625 184.533968 
L 766.94625 162.864593 
L 656.85375 162.864593 
z
" style="fill: #ffffff; opacity: 0.7; stroke: #000000; stroke-linejoin: miter"/>
    </g>
    <!-- # seqs: 10153 -->
    <g transform="translate(660.91375 177.562406) scale(0.14 -0.14)">
     <use xlink:href="#DejaVuSans-23"/>
     <use xlink:href="#DejaVuSans-20" x="83.789062"/>
     <use xlink:href="#DejaVuSans-73" x="115.576172"/>
     <use xlink:href="#DejaVuSans-65" x="167.675781"/>
     <use xlink:href="#DejaVuSans-71" x="229.199219"/>
     <use xlink:href="#DejaVuSans-73" x="292.675781"/>
     <use xlink:href="#DejaVuSans-3a" x="344.775391"/>
     <use xlink:href="#DejaVuSans-20" x="378.466797"/>
     <use xlink:href="#DejaVuSans-31" x="410.253906"/>
     <use xlink:href="#DejaVuSans-30" x="473.876953"/>
     <use xlink:href="#DejaVuSans-31" x="537.5"/>
     <use xlink:href="#DejaVuSans-35" x="601.123047"/>
     <use xlink:href="#DejaVuSans-33" x="664.746094"/>
    </g>
   </g>
  </g>
 </g>
 <defs>
  <clipPath id="p5afa694242">
   <rect x="126" y="51.84" width="781.2" height="326.16"/>
  </clipPath>
 </defs>
</svg>
