<?xml version="1.0" encoding="utf-8" standalone="no"?>
<!DOCTYPE svg PUBLIC "-//W3C//DTD SVG 1.1//EN"
  "http://www.w3.org/Graphics/SVG/1.1/DTD/svg11.dtd">
<svg xmlns:xlink="http://www.w3.org/1999/xlink" width="1008pt" height="432pt" viewBox="0 0 1008 432" xmlns="http://www.w3.org/2000/svg" version="1.1">
 <metadata>
  <rdf:RDF xmlns:dc="http://purl.org/dc/elements/1.1/" xmlns:cc="http://creativecommons.org/ns#" xmlns:rdf="http://www.w3.org/1999/02/22-rdf-syntax-ns#">
   <cc:Work>
    <dc:type rdf:resource="http://purl.org/dc/dcmitype/StillImage"/>
    <dc:date>2024-10-11T23:35:20.471659</dc:date>
    <dc:format>image/svg+xml</dc:format>
    <dc:creator>
     <cc:Agent>
      <dc:title>Matplotlib v3.7.5, https://matplotlib.org/</dc:title>
     </cc:Agent>
    </dc:creator>
   </cc:Work>
  </rdf:RDF>
 </metadata>
 <defs>
  <style type="text/css">*{stroke-linejoin: round; stroke-linecap: butt}</style>
 </defs>
 <g id="figure_1">
  <g id="patch_1">
   <path d="M 0 432 
L 1008 432 
L 1008 0 
L 0 0 
L 0 432 
z
" style="fill: none"/>
  </g>
  <g id="axes_1">
   <g id="patch_2">
    <path d="M 126 378 
L 907.2 378 
L 907.2 51.84 
L 126 51.84 
z
" style="fill: #ffffff"/>
   </g>
   <g id="PolyCollection_1">
    <defs>
     <path id="m01553de2b9" d="M 321.315022 -68.825455 
L 321.284978 -68.825455 
L 321.195256 -71.820496 
L 320.875829 -74.815537 
L 320.320667 -77.810579 
L 319.881718 -80.80562 
L 319.494469 -83.800661 
L 318.46481 -86.795702 
L 316.441409 -89.790744 
L 313.671764 -92.785785 
L 310.285344 -95.780826 
L 306.183963 -98.775868 
L 299.206812 -101.770909 
L 287.444536 -104.76595 
L 273.99005 -107.760992 
L 259.390836 -110.756033 
L 239.652314 -113.751074 
L 216.333834 -116.746116 
L 194.994245 -119.741157 
L 175.739312 -122.736198 
L 165.06 -125.73124 
L 167.351121 -128.726281 
L 175.888742 -131.721322 
L 186.383267 -134.716364 
L 197.686694 -137.711405 
L 208.602346 -140.706446 
L 218.427131 -143.701488 
L 228.156826 -146.696529 
L 239.077278 -149.69157 
L 250.53094 -152.686612 
L 263.769881 -155.681653 
L 278.72856 -158.676694 
L 290.716981 -161.671736 
L 297.824953 -164.666777 
L 302.476898 -167.661818 
L 306.779226 -170.65686 
L 310.502336 -173.651901 
L 313.138931 -176.646942 
L 315.197663 -179.641983 
L 316.714757 -182.637025 
L 316.967051 -185.632066 
L 316.552727 -188.627107 
L 317.00979 -191.622149 
L 318.00348 -194.61719 
L 318.749207 -197.612231 
L 319.115485 -200.607273 
L 319.118936 -203.602314 
L 319.069009 -206.597355 
L 319.293739 -209.592397 
L 319.675634 -212.587438 
L 320.079157 -215.582479 
L 320.519655 -218.577521 
L 320.753186 -221.572562 
L 320.666847 -224.567603 
L 320.501759 -227.562645 
L 320.497727 -230.557686 
L 320.64438 -233.552727 
L 320.789726 -236.547769 
L 320.796073 -239.54281 
L 320.725103 -242.537851 
L 320.791294 -245.532893 
L 321.011023 -248.527934 
L 321.141194 -251.522975 
L 321.0945 -254.518017 
L 320.923597 -257.513058 
L 320.799248 -260.508099 
L 320.815841 -263.50314 
L 320.721621 -266.498182 
L 320.662559 -269.493223 
L 320.84414 -272.488264 
L 321.061444 -275.483306 
L 321.140633 -278.478347 
L 321.063659 -281.473388 
L 320.995506 -284.46843 
L 321.067955 -287.463471 
L 321.192931 -290.458512 
L 321.229116 -293.453554 
L 321.158333 -296.448595 
L 321.084226 -299.443636 
L 321.036951 -302.438678 
L 321.003196 -305.433719 
L 321.063066 -308.42876 
L 321.171988 -311.423802 
L 321.218626 -314.418843 
L 321.218762 -317.413884 
L 321.223348 -320.408926 
L 321.202742 -323.403967 
L 321.179036 -326.399008 
L 321.205263 -329.39405 
L 321.259593 -332.389091 
L 321.291425 -335.384132 
L 321.296146 -338.379174 
L 321.27464 -341.374215 
L 321.209042 -344.369256 
L 321.158343 -347.364298 
L 321.20206 -350.359339 
L 321.254273 -353.35438 
L 321.242814 -356.349421 
L 321.23006 -359.344463 
L 321.260726 -362.339504 
L 321.290422 -365.334545 
L 321.309578 -365.334545 
L 321.309578 -365.334545 
L 321.339274 -362.339504 
L 321.36994 -359.344463 
L 321.357186 -356.349421 
L 321.345727 -353.35438 
L 321.39794 -350.359339 
L 321.441657 -347.364298 
L 321.390958 -344.369256 
L 321.32536 -341.374215 
L 321.303854 -338.379174 
L 321.308575 -335.384132 
L 321.340407 -332.389091 
L 321.394737 -329.39405 
L 321.420964 -326.399008 
L 321.397258 -323.403967 
L 321.376652 -320.408926 
L 321.381238 -317.413884 
L 321.381374 -314.418843 
L 321.428012 -311.423802 
L 321.536934 -308.42876 
L 321.596804 -305.433719 
L 321.563049 -302.438678 
L 321.515774 -299.443636 
L 321.441667 -296.448595 
L 321.370884 -293.453554 
L 321.407069 -290.458512 
L 321.532045 -287.463471 
L 321.604494 -284.46843 
L 321.536341 -281.473388 
L 321.459367 -278.478347 
L 321.538556 -275.483306 
L 321.75586 -272.488264 
L 321.937441 -269.493223 
L 321.878379 -266.498182 
L 321.784159 -263.50314 
L 321.800752 -260.508099 
L 321.676403 -257.513058 
L 321.5055 -254.518017 
L 321.458806 -251.522975 
L 321.588977 -248.527934 
L 321.808706 -245.532893 
L 321.874897 -242.537851 
L 321.803927 -239.54281 
L 321.810274 -236.547769 
L 321.95562 -233.552727 
L 322.102273 -230.557686 
L 322.098241 -227.562645 
L 321.933153 -224.567603 
L 321.846814 -221.572562 
L 322.080345 -218.577521 
L 322.520843 -215.582479 
L 322.924366 -212.587438 
L 323.306261 -209.592397 
L 323.530991 -206.597355 
L 323.481064 -203.602314 
L 323.484515 -200.607273 
L 323.850793 -197.612231 
L 324.59652 -194.61719 
L 325.59021 -191.622149 
L 326.047273 -188.627107 
L 325.632949 -185.632066 
L 325.885243 -182.637025 
L 327.402337 -179.641983 
L 329.461069 -176.646942 
L 332.097664 -173.651901 
L 335.820774 -170.65686 
L 340.123102 -167.661818 
L 344.775047 -164.666777 
L 351.883019 -161.671736 
L 363.87144 -158.676694 
L 378.830119 -155.681653 
L 392.06906 -152.686612 
L 403.522722 -149.69157 
L 414.443174 -146.696529 
L 424.172869 -143.701488 
L 433.997654 -140.706446 
L 444.913306 -137.711405 
L 456.216733 -134.716364 
L 466.711258 -131.721322 
L 475.248879 -128.726281 
L 477.54 -125.73124 
L 466.860688 -122.736198 
L 447.605755 -119.741157 
L 426.266166 -116.746116 
L 402.947686 -113.751074 
L 383.209164 -110.756033 
L 368.60995 -107.760992 
L 355.155464 -104.76595 
L 343.393188 -101.770909 
L 336.416037 -98.775868 
L 332.314656 -95.780826 
L 328.928236 -92.785785 
L 326.158591 -89.790744 
L 324.13519 -86.795702 
L 323.105531 -83.800661 
L 322.718282 -80.80562 
L 322.279333 -77.810579 
L 321.724171 -74.815537 
L 321.404744 -71.820496 
L 321.315022 -68.825455 
z
" style="stroke: #4c4c4c; stroke-opacity: 0.5; stroke-width: 1.25"/>
    </defs>
    <g clip-path="url(#p4110cc80d7)">
     <use xlink:href="#m01553de2b9" x="0" y="432" style="fill: #72b6a1; fill-opacity: 0.5; stroke: #4c4c4c; stroke-opacity: 0.5; stroke-width: 1.25"/>
    </g>
   </g>
   <g id="PolyCollection_2">
    <defs>
     <path id="mff3c0d0693" d="M 711.918529 -74.162701 
L 711.881471 -74.162701 
L 711.789844 -76.93541 
L 711.59673 -79.708119 
L 711.391641 -82.480828 
L 711.29738 -85.253536 
L 710.835539 -88.026245 
L 709.485271 -90.798954 
L 707.407417 -93.571663 
L 705.447534 -96.344371 
L 701.882984 -99.11708 
L 694.927887 -101.889789 
L 684.882392 -104.662498 
L 672.181303 -107.435206 
L 654.420844 -110.207915 
L 631.369471 -112.980624 
L 608.569334 -115.753333 
L 587.109861 -118.526041 
L 568.96381 -121.29875 
L 557.954571 -124.071459 
L 555.66 -126.844168 
L 561.725926 -129.616876 
L 569.488769 -132.389585 
L 572.277801 -135.162294 
L 578.505914 -137.935003 
L 588.319677 -140.707711 
L 599.172799 -143.48042 
L 611.888586 -146.253129 
L 625.046947 -149.025838 
L 638.332825 -151.798547 
L 651.184451 -154.571255 
L 661.648475 -157.343964 
L 671.925116 -160.116673 
L 681.675625 -162.889382 
L 688.905608 -165.66209 
L 694.86789 -168.434799 
L 699.824638 -171.207508 
L 703.304979 -173.980217 
L 705.182334 -176.752925 
L 706.390234 -179.525634 
L 707.680012 -182.298343 
L 708.994967 -185.071052 
L 709.767531 -187.84376 
L 710.282623 -190.616469 
L 710.808433 -193.389178 
L 711.273648 -196.161887 
L 711.419578 -198.934595 
L 711.338446 -201.707304 
L 711.332582 -204.480013 
L 711.486114 -207.252722 
L 711.436017 -210.02543 
L 711.417236 -212.798139 
L 711.552321 -215.570848 
L 711.634876 -218.343557 
L 711.632656 -221.116265 
L 711.656866 -223.888974 
L 711.681316 -226.661683 
L 711.545732 -229.434392 
L 711.398255 -232.2071 
L 711.450922 -234.979809 
L 711.678284 -237.752518 
L 711.780107 -240.525227 
L 711.795285 -243.297935 
L 711.818644 -246.070644 
L 711.823703 -248.843353 
L 711.727749 -251.616062 
L 711.729411 -254.38877 
L 711.825601 -257.161479 
L 711.832095 -259.934188 
L 711.848712 -262.706897 
L 711.853004 -265.479605 
L 711.834147 -268.252314 
L 711.867165 -271.025023 
L 711.895199 -273.797732 
L 711.899785 -276.570441 
L 711.899398 -279.343149 
L 711.890272 -282.115858 
L 711.854068 -284.888567 
L 711.836903 -287.661276 
L 711.874782 -290.433984 
L 711.897068 -293.206693 
L 711.899901 -295.979402 
L 711.899999 -298.752111 
L 711.9 -301.524819 
L 711.9 -304.297528 
L 711.9 -307.070237 
L 711.9 -309.842946 
L 711.9 -312.615654 
L 711.9 -315.388363 
L 711.899978 -318.161072 
L 711.898766 -320.933781 
L 711.880181 -323.706489 
L 711.807404 -326.479198 
L 711.774136 -329.251907 
L 711.850223 -332.024616 
L 711.894155 -334.797324 
L 711.896511 -337.570033 
L 711.8731 -340.342742 
L 711.836161 -343.115451 
L 711.855919 -345.888159 
L 711.891144 -348.660868 
L 711.908856 -348.660868 
L 711.908856 -348.660868 
L 711.944081 -345.888159 
L 711.963839 -343.115451 
L 711.9269 -340.342742 
L 711.903489 -337.570033 
L 711.905845 -334.797324 
L 711.949777 -332.024616 
L 712.025864 -329.251907 
L 711.992596 -326.479198 
L 711.919819 -323.706489 
L 711.901234 -320.933781 
L 711.900022 -318.161072 
L 711.9 -315.388363 
L 711.9 -312.615654 
L 711.9 -309.842946 
L 711.9 -307.070237 
L 711.9 -304.297528 
L 711.9 -301.524819 
L 711.900001 -298.752111 
L 711.900099 -295.979402 
L 711.902932 -293.206693 
L 711.925218 -290.433984 
L 711.963097 -287.661276 
L 711.945932 -284.888567 
L 711.909728 -282.115858 
L 711.900602 -279.343149 
L 711.900215 -276.570441 
L 711.904801 -273.797732 
L 711.932835 -271.025023 
L 711.965853 -268.252314 
L 711.946996 -265.479605 
L 711.951288 -262.706897 
L 711.967905 -259.934188 
L 711.974399 -257.161479 
L 712.070589 -254.38877 
L 712.072251 -251.616062 
L 711.976297 -248.843353 
L 711.981356 -246.070644 
L 712.004715 -243.297935 
L 712.019893 -240.525227 
L 712.121716 -237.752518 
L 712.349078 -234.979809 
L 712.401745 -232.2071 
L 712.254268 -229.434392 
L 712.118684 -226.661683 
L 712.143134 -223.888974 
L 712.167344 -221.116265 
L 712.165124 -218.343557 
L 712.247679 -215.570848 
L 712.382764 -212.798139 
L 712.363983 -210.02543 
L 712.313886 -207.252722 
L 712.467418 -204.480013 
L 712.461554 -201.707304 
L 712.380422 -198.934595 
L 712.526352 -196.161887 
L 712.991567 -193.389178 
L 713.517377 -190.616469 
L 714.032469 -187.84376 
L 714.805033 -185.071052 
L 716.119988 -182.298343 
L 717.409766 -179.525634 
L 718.617666 -176.752925 
L 720.495021 -173.980217 
L 723.975362 -171.207508 
L 728.93211 -168.434799 
L 734.894392 -165.66209 
L 742.124375 -162.889382 
L 751.874884 -160.116673 
L 762.151525 -157.343964 
L 772.615549 -154.571255 
L 785.467175 -151.798547 
L 798.753053 -149.025838 
L 811.911414 -146.253129 
L 824.627201 -143.48042 
L 835.480323 -140.707711 
L 845.294086 -137.935003 
L 851.522199 -135.162294 
L 854.311231 -132.389585 
L 862.074074 -129.616876 
L 868.14 -126.844168 
L 865.845429 -124.071459 
L 854.83619 -121.29875 
L 836.690139 -118.526041 
L 815.230666 -115.753333 
L 792.430529 -112.980624 
L 769.379156 -110.207915 
L 751.618697 -107.435206 
L 738.917608 -104.662498 
L 728.872113 -101.889789 
L 721.917016 -99.11708 
L 718.352466 -96.344371 
L 716.392583 -93.571663 
L 714.314729 -90.798954 
L 712.964461 -88.026245 
L 712.50262 -85.253536 
L 712.408359 -82.480828 
L 712.20327 -79.708119 
L 712.010156 -76.93541 
L 711.918529 -74.162701 
z
" style="stroke: #4c4c4c; stroke-opacity: 0.5; stroke-width: 1.25"/>
    </defs>
    <g clip-path="url(#p4110cc80d7)">
     <use xlink:href="#mff3c0d0693" x="0" y="432" style="fill: #cb3335; fill-opacity: 0.5; stroke: #4c4c4c; stroke-opacity: 0.5; stroke-width: 1.25"/>
    </g>
   </g>
   <g id="matplotlib.axis_1">
    <g id="xtick_1">
     <g id="line2d_1">
      <defs>
       <path id="m60e2b68266" d="M 0 0 
L 0 3.5 
" style="stroke: #000000; stroke-width: 0.8"/>
      </defs>
      <g>
       <use xlink:href="#m60e2b68266" x="321.3" y="378" style="stroke: #000000; stroke-width: 0.8"/>
      </g>
     </g>
     <g id="text_1">
      <!-- BRO -->
      <g transform="translate(301.786875 398.677188) scale(0.18 -0.18)">
       <defs>
        <path id="DejaVuSans-42" d="M 1259 2228 
L 1259 519 
L 2272 519 
Q 2781 519 3026 730 
Q 3272 941 3272 1375 
Q 3272 1813 3026 2020 
Q 2781 2228 2272 2228 
L 1259 2228 
z
M 1259 4147 
L 1259 2741 
L 2194 2741 
Q 2656 2741 2882 2914 
Q 3109 3088 3109 3444 
Q 3109 3797 2882 3972 
Q 2656 4147 2194 4147 
L 1259 4147 
z
M 628 4666 
L 2241 4666 
Q 2963 4666 3353 4366 
Q 3744 4066 3744 3513 
Q 3744 3084 3544 2831 
Q 3344 2578 2956 2516 
Q 3422 2416 3680 2098 
Q 3938 1781 3938 1306 
Q 3938 681 3513 340 
Q 3088 0 2303 0 
L 628 0 
L 628 4666 
z
" transform="scale(0.015625)"/>
        <path id="DejaVuSans-52" d="M 2841 2188 
Q 3044 2119 3236 1894 
Q 3428 1669 3622 1275 
L 4263 0 
L 3584 0 
L 2988 1197 
Q 2756 1666 2539 1819 
Q 2322 1972 1947 1972 
L 1259 1972 
L 1259 0 
L 628 0 
L 628 4666 
L 2053 4666 
Q 2853 4666 3247 4331 
Q 3641 3997 3641 3322 
Q 3641 2881 3436 2590 
Q 3231 2300 2841 2188 
z
M 1259 4147 
L 1259 2491 
L 2053 2491 
Q 2509 2491 2742 2702 
Q 2975 2913 2975 3322 
Q 2975 3731 2742 3939 
Q 2509 4147 2053 4147 
L 1259 4147 
z
" transform="scale(0.015625)"/>
        <path id="DejaVuSans-4f" d="M 2522 4238 
Q 1834 4238 1429 3725 
Q 1025 3213 1025 2328 
Q 1025 1447 1429 934 
Q 1834 422 2522 422 
Q 3209 422 3611 934 
Q 4013 1447 4013 2328 
Q 4013 3213 3611 3725 
Q 3209 4238 2522 4238 
z
M 2522 4750 
Q 3503 4750 4090 4092 
Q 4678 3434 4678 2328 
Q 4678 1225 4090 567 
Q 3503 -91 2522 -91 
Q 1538 -91 948 565 
Q 359 1222 359 2328 
Q 359 3434 948 4092 
Q 1538 4750 2522 4750 
z
" transform="scale(0.015625)"/>
       </defs>
       <use xlink:href="#DejaVuSans-42"/>
       <use xlink:href="#DejaVuSans-52" x="68.603516"/>
       <use xlink:href="#DejaVuSans-4f" x="138.085938"/>
      </g>
     </g>
    </g>
    <g id="xtick_2">
     <g id="line2d_2">
      <g>
       <use xlink:href="#m60e2b68266" x="711.9" y="378" style="stroke: #000000; stroke-width: 0.8"/>
      </g>
     </g>
     <g id="text_2">
      <!-- NON -->
      <g transform="translate(691.349063 398.677188) scale(0.18 -0.18)">
       <defs>
        <path id="DejaVuSans-4e" d="M 628 4666 
L 1478 4666 
L 3547 763 
L 3547 4666 
L 4159 4666 
L 4159 0 
L 3309 0 
L 1241 3903 
L 1241 0 
L 628 0 
L 628 4666 
z
" transform="scale(0.015625)"/>
       </defs>
       <use xlink:href="#DejaVuSans-4e"/>
       <use xlink:href="#DejaVuSans-4f" x="74.804688"/>
       <use xlink:href="#DejaVuSans-4e" x="153.515625"/>
      </g>
     </g>
    </g>
   </g>
   <g id="matplotlib.axis_2">
    <g id="ytick_1">
     <g id="line2d_3">
      <defs>
       <path id="m98ce9d4045" d="M 0 0 
L -3.5 0 
" style="stroke: #000000; stroke-width: 0.8"/>
      </defs>
      <g>
       <use xlink:href="#m98ce9d4045" x="126" y="360.404191" style="stroke: #000000; stroke-width: 0.8"/>
      </g>
     </g>
     <g id="text_3">
      <!-- 0 -->
      <g transform="translate(107.5475 367.242785) scale(0.18 -0.18)">
       <defs>
        <path id="DejaVuSans-30" d="M 2034 4250 
Q 1547 4250 1301 3770 
Q 1056 3291 1056 2328 
Q 1056 1369 1301 889 
Q 1547 409 2034 409 
Q 2525 409 2770 889 
Q 3016 1369 3016 2328 
Q 3016 3291 2770 3770 
Q 2525 4250 2034 4250 
z
M 2034 4750 
Q 2819 4750 3233 4129 
Q 3647 3509 3647 2328 
Q 3647 1150 3233 529 
Q 2819 -91 2034 -91 
Q 1250 -91 836 529 
Q 422 1150 422 2328 
Q 422 3509 836 4129 
Q 1250 4750 2034 4750 
z
" transform="scale(0.015625)"/>
       </defs>
       <use xlink:href="#DejaVuSans-30"/>
      </g>
     </g>
    </g>
    <g id="ytick_2">
     <g id="line2d_4">
      <g>
       <use xlink:href="#m98ce9d4045" x="126" y="322.61609" style="stroke: #000000; stroke-width: 0.8"/>
      </g>
     </g>
     <g id="text_4">
      <!-- 10 -->
      <g transform="translate(96.095 329.454683) scale(0.18 -0.18)">
       <defs>
        <path id="DejaVuSans-31" d="M 794 531 
L 1825 531 
L 1825 4091 
L 703 3866 
L 703 4441 
L 1819 4666 
L 2450 4666 
L 2450 531 
L 3481 531 
L 3481 0 
L 794 0 
L 794 531 
z
" transform="scale(0.015625)"/>
       </defs>
       <use xlink:href="#DejaVuSans-31"/>
       <use xlink:href="#DejaVuSans-30" x="63.623047"/>
      </g>
     </g>
    </g>
    <g id="ytick_3">
     <g id="line2d_5">
      <g>
       <use xlink:href="#m98ce9d4045" x="126" y="284.827988" style="stroke: #000000; stroke-width: 0.8"/>
      </g>
     </g>
     <g id="text_5">
      <!-- 20 -->
      <g transform="translate(96.095 291.666582) scale(0.18 -0.18)">
       <defs>
        <path id="DejaVuSans-32" d="M 1228 531 
L 3431 531 
L 3431 0 
L 469 0 
L 469 531 
Q 828 903 1448 1529 
Q 2069 2156 2228 2338 
Q 2531 2678 2651 2914 
Q 2772 3150 2772 3378 
Q 2772 3750 2511 3984 
Q 2250 4219 1831 4219 
Q 1534 4219 1204 4116 
Q 875 4013 500 3803 
L 500 4441 
Q 881 4594 1212 4672 
Q 1544 4750 1819 4750 
Q 2544 4750 2975 4387 
Q 3406 4025 3406 3419 
Q 3406 3131 3298 2873 
Q 3191 2616 2906 2266 
Q 2828 2175 2409 1742 
Q 1991 1309 1228 531 
z
" transform="scale(0.015625)"/>
       </defs>
       <use xlink:href="#DejaVuSans-32"/>
       <use xlink:href="#DejaVuSans-30" x="63.623047"/>
      </g>
     </g>
    </g>
    <g id="ytick_4">
     <g id="line2d_6">
      <g>
       <use xlink:href="#m98ce9d4045" x="126" y="247.039886" style="stroke: #000000; stroke-width: 0.8"/>
      </g>
     </g>
     <g id="text_6">
      <!-- 30 -->
      <g transform="translate(96.095 253.87848) scale(0.18 -0.18)">
       <defs>
        <path id="DejaVuSans-33" d="M 2597 2516 
Q 3050 2419 3304 2112 
Q 3559 1806 3559 1356 
Q 3559 666 3084 287 
Q 2609 -91 1734 -91 
Q 1441 -91 1130 -33 
Q 819 25 488 141 
L 488 750 
Q 750 597 1062 519 
Q 1375 441 1716 441 
Q 2309 441 2620 675 
Q 2931 909 2931 1356 
Q 2931 1769 2642 2001 
Q 2353 2234 1838 2234 
L 1294 2234 
L 1294 2753 
L 1863 2753 
Q 2328 2753 2575 2939 
Q 2822 3125 2822 3475 
Q 2822 3834 2567 4026 
Q 2313 4219 1838 4219 
Q 1578 4219 1281 4162 
Q 984 4106 628 3988 
L 628 4550 
Q 988 4650 1302 4700 
Q 1616 4750 1894 4750 
Q 2613 4750 3031 4423 
Q 3450 4097 3450 3541 
Q 3450 3153 3228 2886 
Q 3006 2619 2597 2516 
z
" transform="scale(0.015625)"/>
       </defs>
       <use xlink:href="#DejaVuSans-33"/>
       <use xlink:href="#DejaVuSans-30" x="63.623047"/>
      </g>
     </g>
    </g>
    <g id="ytick_5">
     <g id="line2d_7">
      <g>
       <use xlink:href="#m98ce9d4045" x="126" y="209.251785" style="stroke: #000000; stroke-width: 0.8"/>
      </g>
     </g>
     <g id="text_7">
      <!-- 40 -->
      <g transform="translate(96.095 216.090379) scale(0.18 -0.18)">
       <defs>
        <path id="DejaVuSans-34" d="M 2419 4116 
L 825 1625 
L 2419 1625 
L 2419 4116 
z
M 2253 4666 
L 3047 4666 
L 3047 1625 
L 3713 1625 
L 3713 1100 
L 3047 1100 
L 3047 0 
L 2419 0 
L 2419 1100 
L 313 1100 
L 313 1709 
L 2253 4666 
z
" transform="scale(0.015625)"/>
       </defs>
       <use xlink:href="#DejaVuSans-34"/>
       <use xlink:href="#DejaVuSans-30" x="63.623047"/>
      </g>
     </g>
    </g>
    <g id="ytick_6">
     <g id="line2d_8">
      <g>
       <use xlink:href="#m98ce9d4045" x="126" y="171.463683" style="stroke: #000000; stroke-width: 0.8"/>
      </g>
     </g>
     <g id="text_8">
      <!-- 50 -->
      <g transform="translate(96.095 178.302277) scale(0.18 -0.18)">
       <defs>
        <path id="DejaVuSans-35" d="M 691 4666 
L 3169 4666 
L 3169 4134 
L 1269 4134 
L 1269 2991 
Q 1406 3038 1543 3061 
Q 1681 3084 1819 3084 
Q 2600 3084 3056 2656 
Q 3513 2228 3513 1497 
Q 3513 744 3044 326 
Q 2575 -91 1722 -91 
Q 1428 -91 1123 -41 
Q 819 9 494 109 
L 494 744 
Q 775 591 1075 516 
Q 1375 441 1709 441 
Q 2250 441 2565 725 
Q 2881 1009 2881 1497 
Q 2881 1984 2565 2268 
Q 2250 2553 1709 2553 
Q 1456 2553 1204 2497 
Q 953 2441 691 2322 
L 691 4666 
z
" transform="scale(0.015625)"/>
       </defs>
       <use xlink:href="#DejaVuSans-35"/>
       <use xlink:href="#DejaVuSans-30" x="63.623047"/>
      </g>
     </g>
    </g>
    <g id="ytick_7">
     <g id="line2d_9">
      <g>
       <use xlink:href="#m98ce9d4045" x="126" y="133.675582" style="stroke: #000000; stroke-width: 0.8"/>
      </g>
     </g>
     <g id="text_9">
      <!-- 60 -->
      <g transform="translate(96.095 140.514175) scale(0.18 -0.18)">
       <defs>
        <path id="DejaVuSans-36" d="M 2113 2584 
Q 1688 2584 1439 2293 
Q 1191 2003 1191 1497 
Q 1191 994 1439 701 
Q 1688 409 2113 409 
Q 2538 409 2786 701 
Q 3034 994 3034 1497 
Q 3034 2003 2786 2293 
Q 2538 2584 2113 2584 
z
M 3366 4563 
L 3366 3988 
Q 3128 4100 2886 4159 
Q 2644 4219 2406 4219 
Q 1781 4219 1451 3797 
Q 1122 3375 1075 2522 
Q 1259 2794 1537 2939 
Q 1816 3084 2150 3084 
Q 2853 3084 3261 2657 
Q 3669 2231 3669 1497 
Q 3669 778 3244 343 
Q 2819 -91 2113 -91 
Q 1303 -91 875 529 
Q 447 1150 447 2328 
Q 447 3434 972 4092 
Q 1497 4750 2381 4750 
Q 2619 4750 2861 4703 
Q 3103 4656 3366 4563 
z
" transform="scale(0.015625)"/>
       </defs>
       <use xlink:href="#DejaVuSans-36"/>
       <use xlink:href="#DejaVuSans-30" x="63.623047"/>
      </g>
     </g>
    </g>
    <g id="ytick_8">
     <g id="line2d_10">
      <g>
       <use xlink:href="#m98ce9d4045" x="126" y="95.88748" style="stroke: #000000; stroke-width: 0.8"/>
      </g>
     </g>
     <g id="text_10">
      <!-- 70 -->
      <g transform="translate(96.095 102.726074) scale(0.18 -0.18)">
       <defs>
        <path id="DejaVuSans-37" d="M 525 4666 
L 3525 4666 
L 3525 4397 
L 1831 0 
L 1172 0 
L 2766 4134 
L 525 4134 
L 525 4666 
z
" transform="scale(0.015625)"/>
       </defs>
       <use xlink:href="#DejaVuSans-37"/>
       <use xlink:href="#DejaVuSans-30" x="63.623047"/>
      </g>
     </g>
    </g>
    <g id="ytick_9">
     <g id="line2d_11">
      <g>
       <use xlink:href="#m98ce9d4045" x="126" y="58.099378" style="stroke: #000000; stroke-width: 0.8"/>
      </g>
     </g>
     <g id="text_11">
      <!-- 80 -->
      <g transform="translate(96.095 64.937972) scale(0.18 -0.18)">
       <defs>
        <path id="DejaVuSans-38" d="M 2034 2216 
Q 1584 2216 1326 1975 
Q 1069 1734 1069 1313 
Q 1069 891 1326 650 
Q 1584 409 2034 409 
Q 2484 409 2743 651 
Q 3003 894 3003 1313 
Q 3003 1734 2745 1975 
Q 2488 2216 2034 2216 
z
M 1403 2484 
Q 997 2584 770 2862 
Q 544 3141 544 3541 
Q 544 4100 942 4425 
Q 1341 4750 2034 4750 
Q 2731 4750 3128 4425 
Q 3525 4100 3525 3541 
Q 3525 3141 3298 2862 
Q 3072 2584 2669 2484 
Q 3125 2378 3379 2068 
Q 3634 1759 3634 1313 
Q 3634 634 3220 271 
Q 2806 -91 2034 -91 
Q 1263 -91 848 271 
Q 434 634 434 1313 
Q 434 1759 690 2068 
Q 947 2378 1403 2484 
z
M 1172 3481 
Q 1172 3119 1398 2916 
Q 1625 2713 2034 2713 
Q 2441 2713 2670 2916 
Q 2900 3119 2900 3481 
Q 2900 3844 2670 4047 
Q 2441 4250 2034 4250 
Q 1625 4250 1398 4047 
Q 1172 3844 1172 3481 
z
" transform="scale(0.015625)"/>
       </defs>
       <use xlink:href="#DejaVuSans-38"/>
       <use xlink:href="#DejaVuSans-30" x="63.623047"/>
      </g>
     </g>
    </g>
    <g id="text_12">
     <!-- CDR-H3 length -->
     <g transform="translate(88.351562 281.3175) rotate(-90) scale(0.18 -0.18)">
      <defs>
       <path id="DejaVuSans-43" d="M 4122 4306 
L 4122 3641 
Q 3803 3938 3442 4084 
Q 3081 4231 2675 4231 
Q 1875 4231 1450 3742 
Q 1025 3253 1025 2328 
Q 1025 1406 1450 917 
Q 1875 428 2675 428 
Q 3081 428 3442 575 
Q 3803 722 4122 1019 
L 4122 359 
Q 3791 134 3420 21 
Q 3050 -91 2638 -91 
Q 1578 -91 968 557 
Q 359 1206 359 2328 
Q 359 3453 968 4101 
Q 1578 4750 2638 4750 
Q 3056 4750 3426 4639 
Q 3797 4528 4122 4306 
z
" transform="scale(0.015625)"/>
       <path id="DejaVuSans-44" d="M 1259 4147 
L 1259 519 
L 2022 519 
Q 2988 519 3436 956 
Q 3884 1394 3884 2338 
Q 3884 3275 3436 3711 
Q 2988 4147 2022 4147 
L 1259 4147 
z
M 628 4666 
L 1925 4666 
Q 3281 4666 3915 4102 
Q 4550 3538 4550 2338 
Q 4550 1131 3912 565 
Q 3275 0 1925 0 
L 628 0 
L 628 4666 
z
" transform="scale(0.015625)"/>
       <path id="DejaVuSans-2d" d="M 313 2009 
L 1997 2009 
L 1997 1497 
L 313 1497 
L 313 2009 
z
" transform="scale(0.015625)"/>
       <path id="DejaVuSans-48" d="M 628 4666 
L 1259 4666 
L 1259 2753 
L 3553 2753 
L 3553 4666 
L 4184 4666 
L 4184 0 
L 3553 0 
L 3553 2222 
L 1259 2222 
L 1259 0 
L 628 0 
L 628 4666 
z
" transform="scale(0.015625)"/>
       <path id="DejaVuSans-20" transform="scale(0.015625)"/>
       <path id="DejaVuSans-6c" d="M 603 4863 
L 1178 4863 
L 1178 0 
L 603 0 
L 603 4863 
z
" transform="scale(0.015625)"/>
       <path id="DejaVuSans-65" d="M 3597 1894 
L 3597 1613 
L 953 1613 
Q 991 1019 1311 708 
Q 1631 397 2203 397 
Q 2534 397 2845 478 
Q 3156 559 3463 722 
L 3463 178 
Q 3153 47 2828 -22 
Q 2503 -91 2169 -91 
Q 1331 -91 842 396 
Q 353 884 353 1716 
Q 353 2575 817 3079 
Q 1281 3584 2069 3584 
Q 2775 3584 3186 3129 
Q 3597 2675 3597 1894 
z
M 3022 2063 
Q 3016 2534 2758 2815 
Q 2500 3097 2075 3097 
Q 1594 3097 1305 2825 
Q 1016 2553 972 2059 
L 3022 2063 
z
" transform="scale(0.015625)"/>
       <path id="DejaVuSans-6e" d="M 3513 2113 
L 3513 0 
L 2938 0 
L 2938 2094 
Q 2938 2591 2744 2837 
Q 2550 3084 2163 3084 
Q 1697 3084 1428 2787 
Q 1159 2491 1159 1978 
L 1159 0 
L 581 0 
L 581 3500 
L 1159 3500 
L 1159 2956 
Q 1366 3272 1645 3428 
Q 1925 3584 2291 3584 
Q 2894 3584 3203 3211 
Q 3513 2838 3513 2113 
z
" transform="scale(0.015625)"/>
       <path id="DejaVuSans-67" d="M 2906 1791 
Q 2906 2416 2648 2759 
Q 2391 3103 1925 3103 
Q 1463 3103 1205 2759 
Q 947 2416 947 1791 
Q 947 1169 1205 825 
Q 1463 481 1925 481 
Q 2391 481 2648 825 
Q 2906 1169 2906 1791 
z
M 3481 434 
Q 3481 -459 3084 -895 
Q 2688 -1331 1869 -1331 
Q 1566 -1331 1297 -1286 
Q 1028 -1241 775 -1147 
L 775 -588 
Q 1028 -725 1275 -790 
Q 1522 -856 1778 -856 
Q 2344 -856 2625 -561 
Q 2906 -266 2906 331 
L 2906 616 
Q 2728 306 2450 153 
Q 2172 0 1784 0 
Q 1141 0 747 490 
Q 353 981 353 1791 
Q 353 2603 747 3093 
Q 1141 3584 1784 3584 
Q 2172 3584 2450 3431 
Q 2728 3278 2906 2969 
L 2906 3500 
L 3481 3500 
L 3481 434 
z
" transform="scale(0.015625)"/>
       <path id="DejaVuSans-74" d="M 1172 4494 
L 1172 3500 
L 2356 3500 
L 2356 3053 
L 1172 3053 
L 1172 1153 
Q 1172 725 1289 603 
Q 1406 481 1766 481 
L 2356 481 
L 2356 0 
L 1766 0 
Q 1100 0 847 248 
Q 594 497 594 1153 
L 594 3053 
L 172 3053 
L 172 3500 
L 594 3500 
L 594 4494 
L 1172 4494 
z
" transform="scale(0.015625)"/>
       <path id="DejaVuSans-68" d="M 3513 2113 
L 3513 0 
L 2938 0 
L 2938 2094 
Q 2938 2591 2744 2837 
Q 2550 3084 2163 3084 
Q 1697 3084 1428 2787 
Q 1159 2491 1159 1978 
L 1159 0 
L 581 0 
L 581 4863 
L 1159 4863 
L 1159 2956 
Q 1366 3272 1645 3428 
Q 1925 3584 2291 3584 
Q 2894 3584 3203 3211 
Q 3513 2838 3513 2113 
z
" transform="scale(0.015625)"/>
      </defs>
      <use xlink:href="#DejaVuSans-43"/>
      <use xlink:href="#DejaVuSans-44" x="69.824219"/>
      <use xlink:href="#DejaVuSans-52" x="146.826172"/>
      <use xlink:href="#DejaVuSans-2d" x="212.308594"/>
      <use xlink:href="#DejaVuSans-48" x="248.392578"/>
      <use xlink:href="#DejaVuSans-33" x="323.587891"/>
      <use xlink:href="#DejaVuSans-20" x="387.210938"/>
      <use xlink:href="#DejaVuSans-6c" x="418.998047"/>
      <use xlink:href="#DejaVuSans-65" x="446.78125"/>
      <use xlink:href="#DejaVuSans-6e" x="508.304688"/>
      <use xlink:href="#DejaVuSans-67" x="571.683594"/>
      <use xlink:href="#DejaVuSans-74" x="635.160156"/>
      <use xlink:href="#DejaVuSans-68" x="674.369141"/>
     </g>
    </g>
   </g>
   <g id="line2d_12">
    <path d="M 321.3 345.288951 
L 321.3 254.597507 
" clip-path="url(#p4110cc80d7)" style="fill: none; stroke: #4c4c4c; stroke-width: 1.875; stroke-linecap: square"/>
   </g>
   <g id="line2d_13">
    <path d="M 321.3 311.279659 
L 321.3 288.606798 
" clip-path="url(#p4110cc80d7)" style="fill: none; stroke: #4c4c4c; stroke-width: 5.625; stroke-linecap: square"/>
   </g>
   <g id="line2d_14">
    <path d="M 321.3 299.943229 
" clip-path="url(#p4110cc80d7)" style="fill: none; stroke: #4c4c4c; stroke-width: 1.5; stroke-linecap: square"/>
    <defs>
     <path id="m803335ef81" d="M 2.34375 0 
L -2.34375 -0 
" style="stroke: #ffffff; stroke-width: 1.125"/>
    </defs>
    <g clip-path="url(#p4110cc80d7)">
     <use xlink:href="#m803335ef81" x="321.3" y="299.943229" style="fill: #ffffff; stroke: #ffffff; stroke-width: 1.125"/>
    </g>
   </g>
   <g id="line2d_15">
    <path d="M 711.9 345.288951 
L 711.9 254.597507 
" clip-path="url(#p4110cc80d7)" style="fill: none; stroke: #4c4c4c; stroke-width: 1.875; stroke-linecap: square"/>
   </g>
   <g id="line2d_16">
    <path d="M 711.9 311.279659 
L 711.9 288.606798 
" clip-path="url(#p4110cc80d7)" style="fill: none; stroke: #4c4c4c; stroke-width: 5.625; stroke-linecap: square"/>
   </g>
   <g id="line2d_17">
    <path d="M 711.9 299.943229 
" clip-path="url(#p4110cc80d7)" style="fill: none; stroke: #4c4c4c; stroke-width: 1.5; stroke-linecap: square"/>
    <g clip-path="url(#p4110cc80d7)">
     <use xlink:href="#m803335ef81" x="711.9" y="299.943229" style="fill: #ffffff; stroke: #ffffff; stroke-width: 1.125"/>
    </g>
   </g>
   <g id="patch_3">
    <path d="M 126 378 
L 126 51.84 
" style="fill: none; stroke: #000000; stroke-width: 0.8; stroke-linejoin: miter; stroke-linecap: square"/>
   </g>
   <g id="patch_4">
    <path d="M 907.2 378 
L 907.2 51.84 
" style="fill: none; stroke: #000000; stroke-width: 0.8; stroke-linejoin: miter; stroke-linecap: square"/>
   </g>
   <g id="patch_5">
    <path d="M 126 378 
L 907.2 378 
" style="fill: none; stroke: #000000; stroke-width: 0.8; stroke-linejoin: miter; stroke-linecap: square"/>
   </g>
   <g id="patch_6">
    <path d="M 126 51.84 
L 907.2 51.84 
" style="fill: none; stroke: #000000; stroke-width: 0.8; stroke-linejoin: miter; stroke-linecap: square"/>
   </g>
   <g id="text_13">
    <g id="patch_7">
     <path d="M 182.003281 191.370845 
L 265.296719 191.370845 
L 265.296719 169.70147 
L 182.003281 169.70147 
z
" style="fill: #ffffff; opacity: 0.7; stroke: #000000; stroke-linejoin: miter"/>
    </g>
    <!-- Avg: 16.58 -->
    <g transform="translate(186.063281 184.399282) scale(0.14 -0.14)">
     <defs>
      <path id="DejaVuSans-41" d="M 2188 4044 
L 1331 1722 
L 3047 1722 
L 2188 4044 
z
M 1831 4666 
L 2547 4666 
L 4325 0 
L 3669 0 
L 3244 1197 
L 1141 1197 
L 716 0 
L 50 0 
L 1831 4666 
z
" transform="scale(0.015625)"/>
      <path id="DejaVuSans-76" d="M 191 3500 
L 800 3500 
L 1894 563 
L 2988 3500 
L 3597 3500 
L 2284 0 
L 1503 0 
L 191 3500 
z
" transform="scale(0.015625)"/>
      <path id="DejaVuSans-3a" d="M 750 794 
L 1409 794 
L 1409 0 
L 750 0 
L 750 794 
z
M 750 3309 
L 1409 3309 
L 1409 2516 
L 750 2516 
L 750 3309 
z
" transform="scale(0.015625)"/>
      <path id="DejaVuSans-2e" d="M 684 794 
L 1344 794 
L 1344 0 
L 684 0 
L 684 794 
z
" transform="scale(0.015625)"/>
     </defs>
     <use xlink:href="#DejaVuSans-41"/>
     <use xlink:href="#DejaVuSans-76" x="62.533203"/>
     <use xlink:href="#DejaVuSans-67" x="121.712891"/>
     <use xlink:href="#DejaVuSans-3a" x="185.189453"/>
     <use xlink:href="#DejaVuSans-20" x="218.880859"/>
     <use xlink:href="#DejaVuSans-31" x="250.667969"/>
     <use xlink:href="#DejaVuSans-36" x="314.291016"/>
     <use xlink:href="#DejaVuSans-2e" x="377.914062"/>
     <use xlink:href="#DejaVuSans-35" x="409.701172"/>
     <use xlink:href="#DejaVuSans-38" x="473.324219"/>
    </g>
   </g>
   <g id="text_14">
    <g id="patch_8">
     <path d="M 168.60375 161.140364 
L 278.69625 161.140364 
L 278.69625 139.470989 
L 168.60375 139.470989 
z
" style="fill: #ffffff; opacity: 0.7; stroke: #000000; stroke-linejoin: miter"/>
    </g>
    <!-- # seqs: 10865 -->
    <g transform="translate(172.66375 154.168801) scale(0.14 -0.14)">
     <defs>
      <path id="DejaVuSans-23" d="M 3272 2816 
L 2363 2816 
L 2100 1772 
L 3016 1772 
L 3272 2816 
z
M 2803 4594 
L 2478 3297 
L 3391 3297 
L 3719 4594 
L 4219 4594 
L 3897 3297 
L 4872 3297 
L 4872 2816 
L 3775 2816 
L 3519 1772 
L 4513 1772 
L 4513 1294 
L 3397 1294 
L 3072 0 
L 2572 0 
L 2894 1294 
L 1978 1294 
L 1656 0 
L 1153 0 
L 1478 1294 
L 494 1294 
L 494 1772 
L 1594 1772 
L 1856 2816 
L 850 2816 
L 850 3297 
L 1978 3297 
L 2297 4594 
L 2803 4594 
z
" transform="scale(0.015625)"/>
      <path id="DejaVuSans-73" d="M 2834 3397 
L 2834 2853 
Q 2591 2978 2328 3040 
Q 2066 3103 1784 3103 
Q 1356 3103 1142 2972 
Q 928 2841 928 2578 
Q 928 2378 1081 2264 
Q 1234 2150 1697 2047 
L 1894 2003 
Q 2506 1872 2764 1633 
Q 3022 1394 3022 966 
Q 3022 478 2636 193 
Q 2250 -91 1575 -91 
Q 1294 -91 989 -36 
Q 684 19 347 128 
L 347 722 
Q 666 556 975 473 
Q 1284 391 1588 391 
Q 1994 391 2212 530 
Q 2431 669 2431 922 
Q 2431 1156 2273 1281 
Q 2116 1406 1581 1522 
L 1381 1569 
Q 847 1681 609 1914 
Q 372 2147 372 2553 
Q 372 3047 722 3315 
Q 1072 3584 1716 3584 
Q 2034 3584 2315 3537 
Q 2597 3491 2834 3397 
z
" transform="scale(0.015625)"/>
      <path id="DejaVuSans-71" d="M 947 1747 
Q 947 1113 1208 752 
Q 1469 391 1925 391 
Q 2381 391 2643 752 
Q 2906 1113 2906 1747 
Q 2906 2381 2643 2742 
Q 2381 3103 1925 3103 
Q 1469 3103 1208 2742 
Q 947 2381 947 1747 
z
M 2906 525 
Q 2725 213 2448 61 
Q 2172 -91 1784 -91 
Q 1150 -91 751 415 
Q 353 922 353 1747 
Q 353 2572 751 3078 
Q 1150 3584 1784 3584 
Q 2172 3584 2448 3432 
Q 2725 3281 2906 2969 
L 2906 3500 
L 3481 3500 
L 3481 -1331 
L 2906 -1331 
L 2906 525 
z
" transform="scale(0.015625)"/>
     </defs>
     <use xlink:href="#DejaVuSans-23"/>
     <use xlink:href="#DejaVuSans-20" x="83.789062"/>
     <use xlink:href="#DejaVuSans-73" x="115.576172"/>
     <use xlink:href="#DejaVuSans-65" x="167.675781"/>
     <use xlink:href="#DejaVuSans-71" x="229.199219"/>
     <use xlink:href="#DejaVuSans-73" x="292.675781"/>
     <use xlink:href="#DejaVuSans-3a" x="344.775391"/>
     <use xlink:href="#DejaVuSans-20" x="378.466797"/>
     <use xlink:href="#DejaVuSans-31" x="410.253906"/>
     <use xlink:href="#DejaVuSans-30" x="473.876953"/>
     <use xlink:href="#DejaVuSans-38" x="537.5"/>
     <use xlink:href="#DejaVuSans-36" x="601.123047"/>
     <use xlink:href="#DejaVuSans-35" x="664.746094"/>
    </g>
   </g>
   <g id="text_15">
    <g id="patch_9">
     <path d="M 572.603281 191.975879 
L 655.896719 191.975879 
L 655.896719 170.306504 
L 572.603281 170.306504 
z
" style="fill: #ffffff; opacity: 0.7; stroke: #000000; stroke-linejoin: miter"/>
    </g>
    <!-- Avg: 16.42 -->
    <g transform="translate(576.663281 185.004317) scale(0.14 -0.14)">
     <use xlink:href="#DejaVuSans-41"/>
     <use xlink:href="#DejaVuSans-76" x="62.533203"/>
     <use xlink:href="#DejaVuSans-67" x="121.712891"/>
     <use xlink:href="#DejaVuSans-3a" x="185.189453"/>
     <use xlink:href="#DejaVuSans-20" x="218.880859"/>
     <use xlink:href="#DejaVuSans-31" x="250.667969"/>
     <use xlink:href="#DejaVuSans-36" x="314.291016"/>
     <use xlink:href="#DejaVuSans-2e" x="377.914062"/>
     <use xlink:href="#DejaVuSans-34" x="409.701172"/>
     <use xlink:href="#DejaVuSans-32" x="473.324219"/>
    </g>
   </g>
   <g id="text_16">
    <g id="patch_10">
     <path d="M 559.20375 161.745398 
L 669.29625 161.745398 
L 669.29625 140.076023 
L 559.20375 140.076023 
z
" style="fill: #ffffff; opacity: 0.7; stroke: #000000; stroke-linejoin: miter"/>
    </g>
    <!-- # seqs: 15347 -->
    <g transform="translate(563.26375 154.773836) scale(0.14 -0.14)">
     <use xlink:href="#DejaVuSans-23"/>
     <use xlink:href="#DejaVuSans-20" x="83.789062"/>
     <use xlink:href="#DejaVuSans-73" x="115.576172"/>
     <use xlink:href="#DejaVuSans-65" x="167.675781"/>
     <use xlink:href="#DejaVuSans-71" x="229.199219"/>
     <use xlink:href="#DejaVuSans-73" x="292.675781"/>
     <use xlink:href="#DejaVuSans-3a" x="344.775391"/>
     <use xlink:href="#DejaVuSans-20" x="378.466797"/>
     <use xlink:href="#DejaVuSans-31" x="410.253906"/>
     <use xlink:href="#DejaVuSans-35" x="473.876953"/>
     <use xlink:href="#DejaVuSans-33" x="537.5"/>
     <use xlink:href="#DejaVuSans-34" x="601.123047"/>
     <use xlink:href="#DejaVuSans-37" x="664.746094"/>
    </g>
   </g>
  </g>
 </g>
 <defs>
  <clipPath id="p4110cc80d7">
   <rect x="126" y="51.84" width="781.2" height="326.16"/>
  </clipPath>
 </defs>
</svg>
