<?xml version="1.0" encoding="utf-8" standalone="no"?>
<!DOCTYPE svg PUBLIC "-//W3C//DTD SVG 1.1//EN"
  "http://www.w3.org/Graphics/SVG/1.1/DTD/svg11.dtd">
<svg xmlns:xlink="http://www.w3.org/1999/xlink" width="1008pt" height="432pt" viewBox="0 0 1008 432" xmlns="http://www.w3.org/2000/svg" version="1.1">
 <metadata>
  <rdf:RDF xmlns:dc="http://purl.org/dc/elements/1.1/" xmlns:cc="http://creativecommons.org/ns#" xmlns:rdf="http://www.w3.org/1999/02/22-rdf-syntax-ns#">
   <cc:Work>
    <dc:type rdf:resource="http://purl.org/dc/dcmitype/StillImage"/>
    <dc:date>2024-10-11T23:35:19.791392</dc:date>
    <dc:format>image/svg+xml</dc:format>
    <dc:creator>
     <cc:Agent>
      <dc:title>Matplotlib v3.7.5, https://matplotlib.org/</dc:title>
     </cc:Agent>
    </dc:creator>
   </cc:Work>
  </rdf:RDF>
 </metadata>
 <defs>
  <style type="text/css">*{stroke-linejoin: round; stroke-linecap: butt}</style>
 </defs>
 <g id="figure_1">
  <g id="patch_1">
   <path d="M 0 432 
L 1008 432 
L 1008 0 
L 0 0 
L 0 432 
z
" style="fill: none"/>
  </g>
  <g id="axes_1">
   <g id="patch_2">
    <path d="M 126 378 
L 907.2 378 
L 907.2 51.84 
L 126 51.84 
z
" style="fill: #ffffff"/>
   </g>
   <g id="PolyCollection_1">
    <defs>
     <path id="m25afb5a22b" d="M 321.306841 -68.825455 
L 321.293159 -68.825455 
L 321.272561 -71.14337 
L 321.250562 -73.461286 
L 321.259989 -75.779201 
L 321.285454 -78.097117 
L 321.297625 -80.415032 
L 321.299826 -82.732948 
L 321.299994 -85.050863 
L 321.3 -87.368779 
L 321.3 -89.686694 
L 321.3 -92.00461 
L 321.3 -94.322525 
L 321.3 -96.640441 
L 321.3 -98.958356 
L 321.3 -101.276272 
L 321.3 -103.594187 
L 321.3 -105.912103 
L 321.3 -108.230018 
L 321.3 -110.547934 
L 321.3 -112.865849 
L 321.3 -115.183765 
L 321.3 -117.50168 
L 321.3 -119.819596 
L 321.3 -122.137511 
L 321.3 -124.455427 
L 321.3 -126.773342 
L 321.3 -129.091258 
L 321.3 -131.409173 
L 321.3 -133.727089 
L 321.3 -136.045004 
L 321.3 -138.36292 
L 321.3 -140.680835 
L 321.3 -142.998751 
L 321.3 -145.316666 
L 321.299998 -147.634582 
L 321.299927 -149.952497 
L 321.298754 -152.270413 
L 321.290471 -154.588328 
L 321.267266 -156.906244 
L 321.249486 -159.224159 
L 321.264938 -161.542075 
L 321.288182 -163.85999 
L 321.290739 -166.177906 
L 321.270561 -168.495821 
L 321.249993 -170.813737 
L 321.261455 -173.131652 
L 321.28289 -175.449568 
L 321.272089 -177.767483 
L 321.218064 -180.085399 
L 321.157851 -182.403314 
L 321.1133 -184.72123 
L 321.048092 -187.039145 
L 320.961298 -189.357061 
L 320.900579 -191.674976 
L 320.914606 -193.992892 
L 320.928321 -196.310807 
L 320.841608 -198.628723 
L 320.690798 -200.946638 
L 320.470306 -203.264554 
L 320.237204 -205.582469 
L 320.097114 -207.900385 
L 319.931398 -210.2183 
L 319.74987 -212.536216 
L 319.512554 -214.854131 
L 318.907708 -217.172047 
L 318.129516 -219.489962 
L 317.628941 -221.807878 
L 317.190898 -224.125793 
L 316.475643 -226.443709 
L 316.043882 -228.761624 
L 315.924116 -231.07954 
L 315.168831 -233.397455 
L 313.662921 -235.715371 
L 312.227058 -238.033286 
L 310.988506 -240.351202 
L 309.570769 -242.669117 
L 307.84959 -244.987033 
L 305.929255 -247.304948 
L 303.721322 -249.622864 
L 301.05857 -251.940779 
L 297.819961 -254.258695 
L 294.190512 -256.576611 
L 290.612896 -258.894526 
L 287.283568 -261.212442 
L 284.061709 -263.530357 
L 279.918197 -265.848273 
L 274.072027 -268.166188 
L 266.479053 -270.484104 
L 257.849462 -272.802019 
L 249.415156 -275.119935 
L 240.761704 -277.43785 
L 230.160425 -279.755766 
L 216.253965 -282.073681 
L 198.08729 -284.391597 
L 177.632003 -286.709512 
L 165.06 -289.027428 
L 182.623546 -291.345343 
L 238.189826 -293.663259 
L 292.716727 -295.981174 
L 316.2031 -298.29909 
L 326.3969 -298.29909 
L 326.3969 -298.29909 
L 349.883273 -295.981174 
L 404.410174 -293.663259 
L 459.976454 -291.345343 
L 477.54 -289.027428 
L 464.967997 -286.709512 
L 444.51271 -284.391597 
L 426.346035 -282.073681 
L 412.439575 -279.755766 
L 401.838296 -277.43785 
L 393.184844 -275.119935 
L 384.750538 -272.802019 
L 376.120947 -270.484104 
L 368.527973 -268.166188 
L 362.681803 -265.848273 
L 358.538291 -263.530357 
L 355.316432 -261.212442 
L 351.987104 -258.894526 
L 348.409488 -256.576611 
L 344.780039 -254.258695 
L 341.54143 -251.940779 
L 338.878678 -249.622864 
L 336.670745 -247.304948 
L 334.75041 -244.987033 
L 333.029231 -242.669117 
L 331.611494 -240.351202 
L 330.372942 -238.033286 
L 328.937079 -235.715371 
L 327.431169 -233.397455 
L 326.675884 -231.07954 
L 326.556118 -228.761624 
L 326.124357 -226.443709 
L 325.409102 -224.125793 
L 324.971059 -221.807878 
L 324.470484 -219.489962 
L 323.692292 -217.172047 
L 323.087446 -214.854131 
L 322.85013 -212.536216 
L 322.668602 -210.2183 
L 322.502886 -207.900385 
L 322.362796 -205.582469 
L 322.129694 -203.264554 
L 321.909202 -200.946638 
L 321.758392 -198.628723 
L 321.671679 -196.310807 
L 321.685394 -193.992892 
L 321.699421 -191.674976 
L 321.638702 -189.357061 
L 321.551908 -187.039145 
L 321.4867 -184.72123 
L 321.442149 -182.403314 
L 321.381936 -180.085399 
L 321.327911 -177.767483 
L 321.31711 -175.449568 
L 321.338545 -173.131652 
L 321.350007 -170.813737 
L 321.329439 -168.495821 
L 321.309261 -166.177906 
L 321.311818 -163.85999 
L 321.335062 -161.542075 
L 321.350514 -159.224159 
L 321.332734 -156.906244 
L 321.309529 -154.588328 
L 321.301246 -152.270413 
L 321.300073 -149.952497 
L 321.300002 -147.634582 
L 321.3 -145.316666 
L 321.3 -142.998751 
L 321.3 -140.680835 
L 321.3 -138.36292 
L 321.3 -136.045004 
L 321.3 -133.727089 
L 321.3 -131.409173 
L 321.3 -129.091258 
L 321.3 -126.773342 
L 321.3 -124.455427 
L 321.3 -122.137511 
L 321.3 -119.819596 
L 321.3 -117.50168 
L 321.3 -115.183765 
L 321.3 -112.865849 
L 321.3 -110.547934 
L 321.3 -108.230018 
L 321.3 -105.912103 
L 321.3 -103.594187 
L 321.3 -101.276272 
L 321.3 -98.958356 
L 321.3 -96.640441 
L 321.3 -94.322525 
L 321.3 -92.00461 
L 321.3 -89.686694 
L 321.3 -87.368779 
L 321.300006 -85.050863 
L 321.300174 -82.732948 
L 321.302375 -80.415032 
L 321.314546 -78.097117 
L 321.340011 -75.779201 
L 321.349438 -73.461286 
L 321.327439 -71.14337 
L 321.306841 -68.825455 
z
" style="stroke: #4c4c4c; stroke-opacity: 0.5; stroke-width: 1.25"/>
    </defs>
    <g clip-path="url(#p5499d2dc9d)">
     <use xlink:href="#m25afb5a22b" x="0" y="432" style="fill: #72b6a1; fill-opacity: 0.5; stroke: #4c4c4c; stroke-opacity: 0.5; stroke-width: 1.25"/>
    </g>
   </g>
   <g id="PolyCollection_2">
    <defs>
     <path id="m3a50638dfe" d="M 711.904779 -195.021694 
L 711.895221 -195.021694 
L 711.885166 -196.742026 
L 711.871118 -198.462358 
L 711.864729 -200.182689 
L 711.872982 -201.903021 
L 711.887018 -203.623353 
L 711.896088 -205.343685 
L 711.89926 -207.064017 
L 711.899912 -208.784349 
L 711.899993 -210.50468 
L 711.9 -212.225012 
L 711.899999 -213.945344 
L 711.899973 -215.665676 
L 711.899679 -217.386008 
L 711.897608 -219.10634 
L 711.888792 -220.826671 
L 711.866906 -222.547003 
L 711.837763 -224.267335 
L 711.822499 -225.987667 
L 711.82737 -227.707999 
L 711.830766 -229.428331 
L 711.812034 -231.148662 
L 711.770535 -232.868994 
L 711.731767 -234.589326 
L 711.726729 -236.309658 
L 711.749251 -238.02999 
L 711.764399 -239.750322 
L 711.749987 -241.470653 
L 711.719847 -243.190985 
L 711.707302 -244.911317 
L 711.719534 -246.631649 
L 711.726663 -248.351981 
L 711.693203 -250.072313 
L 711.61805 -251.792644 
L 711.547413 -253.512976 
L 711.518242 -255.233308 
L 711.503274 -256.95364 
L 711.455511 -258.673972 
L 711.369512 -260.394304 
L 711.278512 -262.114635 
L 711.237198 -263.834967 
L 711.27009 -265.555299 
L 711.304316 -267.275631 
L 711.257718 -268.995963 
L 711.155023 -270.716295 
L 711.044696 -272.436626 
L 710.924112 -274.156958 
L 710.799456 -275.87729 
L 710.678159 -277.597622 
L 710.505866 -279.317954 
L 710.221048 -281.038286 
L 709.834618 -282.758617 
L 709.39203 -284.478949 
L 708.952801 -286.199281 
L 708.612688 -287.919613 
L 708.377164 -289.639945 
L 708.13303 -291.360277 
L 707.826279 -293.080608 
L 707.452461 -294.80094 
L 706.980661 -296.521272 
L 706.401717 -298.241604 
L 705.706935 -299.961936 
L 704.880802 -301.682268 
L 703.968513 -303.402599 
L 702.998217 -305.122931 
L 701.85141 -306.843263 
L 700.474497 -308.563595 
L 699.10565 -310.283927 
L 697.922661 -312.004259 
L 696.7541 -313.72459 
L 695.427921 -315.444922 
L 693.980342 -317.165254 
L 692.437227 -318.885586 
L 690.742606 -320.605918 
L 688.807201 -322.32625 
L 686.5317 -324.046581 
L 684.009875 -325.766913 
L 681.564796 -327.487245 
L 679.433907 -329.207577 
L 677.47479 -330.927909 
L 675.239961 -332.648241 
L 672.423067 -334.368572 
L 669.052065 -336.088904 
L 665.038712 -337.809236 
L 659.645166 -339.529568 
L 651.642773 -341.2499 
L 640.250833 -342.970232 
L 626.596297 -344.690563 
L 614.989608 -346.410895 
L 611.115525 -348.131227 
L 615.941608 -349.851559 
L 621.288649 -351.571891 
L 614.86539 -353.292223 
L 592.290149 -355.012554 
L 564.791162 -356.732886 
L 555.66 -358.453218 
L 581.849966 -360.17355 
L 632.632536 -361.893882 
L 678.240848 -363.614214 
L 702.292011 -365.334545 
L 721.507989 -365.334545 
L 721.507989 -365.334545 
L 745.559152 -363.614214 
L 791.167464 -361.893882 
L 841.950034 -360.17355 
L 868.14 -358.453218 
L 859.008838 -356.732886 
L 831.509851 -355.012554 
L 808.93461 -353.292223 
L 802.511351 -351.571891 
L 807.858392 -349.851559 
L 812.684475 -348.131227 
L 808.810392 -346.410895 
L 797.203703 -344.690563 
L 783.549167 -342.970232 
L 772.157227 -341.2499 
L 764.154834 -339.529568 
L 758.761288 -337.809236 
L 754.747935 -336.088904 
L 751.376933 -334.368572 
L 748.560039 -332.648241 
L 746.32521 -330.927909 
L 744.366093 -329.207577 
L 742.235204 -327.487245 
L 739.790125 -325.766913 
L 737.2683 -324.046581 
L 734.992799 -322.32625 
L 733.057394 -320.605918 
L 731.362773 -318.885586 
L 729.819658 -317.165254 
L 728.372079 -315.444922 
L 727.0459 -313.72459 
L 725.877339 -312.004259 
L 724.69435 -310.283927 
L 723.325503 -308.563595 
L 721.94859 -306.843263 
L 720.801783 -305.122931 
L 719.831487 -303.402599 
L 718.919198 -301.682268 
L 718.093065 -299.961936 
L 717.398283 -298.241604 
L 716.819339 -296.521272 
L 716.347539 -294.80094 
L 715.973721 -293.080608 
L 715.66697 -291.360277 
L 715.422836 -289.639945 
L 715.187312 -287.919613 
L 714.847199 -286.199281 
L 714.40797 -284.478949 
L 713.965382 -282.758617 
L 713.578952 -281.038286 
L 713.294134 -279.317954 
L 713.121841 -277.597622 
L 713.000544 -275.87729 
L 712.875888 -274.156958 
L 712.755304 -272.436626 
L 712.644977 -270.716295 
L 712.542282 -268.995963 
L 712.495684 -267.275631 
L 712.52991 -265.555299 
L 712.562802 -263.834967 
L 712.521488 -262.114635 
L 712.430488 -260.394304 
L 712.344489 -258.673972 
L 712.296726 -256.95364 
L 712.281758 -255.233308 
L 712.252587 -253.512976 
L 712.18195 -251.792644 
L 712.106797 -250.072313 
L 712.073337 -248.351981 
L 712.080466 -246.631649 
L 712.092698 -244.911317 
L 712.080153 -243.190985 
L 712.050013 -241.470653 
L 712.035601 -239.750322 
L 712.050749 -238.02999 
L 712.073271 -236.309658 
L 712.068233 -234.589326 
L 712.029465 -232.868994 
L 711.987966 -231.148662 
L 711.969234 -229.428331 
L 711.97263 -227.707999 
L 711.977501 -225.987667 
L 711.962237 -224.267335 
L 711.933094 -222.547003 
L 711.911208 -220.826671 
L 711.902392 -219.10634 
L 711.900321 -217.386008 
L 711.900027 -215.665676 
L 711.900001 -213.945344 
L 711.9 -212.225012 
L 711.900007 -210.50468 
L 711.900088 -208.784349 
L 711.90074 -207.064017 
L 711.903912 -205.343685 
L 711.912982 -203.623353 
L 711.927018 -201.903021 
L 711.935271 -200.182689 
L 711.928882 -198.462358 
L 711.914834 -196.742026 
L 711.904779 -195.021694 
z
" style="stroke: #4c4c4c; stroke-opacity: 0.5; stroke-width: 1.25"/>
    </defs>
    <g clip-path="url(#p5499d2dc9d)">
     <use xlink:href="#m3a50638dfe" x="0" y="432" style="fill: #cb3335; fill-opacity: 0.5; stroke: #4c4c4c; stroke-opacity: 0.5; stroke-width: 1.25"/>
    </g>
   </g>
   <g id="matplotlib.axis_1">
    <g id="xtick_1">
     <g id="line2d_1">
      <defs>
       <path id="mdfa5b52fb6" d="M 0 0 
L 0 3.5 
" style="stroke: #000000; stroke-width: 0.8"/>
      </defs>
      <g>
       <use xlink:href="#mdfa5b52fb6" x="321.3" y="378" style="stroke: #000000; stroke-width: 0.8"/>
      </g>
     </g>
     <g id="text_1">
      <!-- BRO -->
      <g transform="translate(301.786875 398.677188) scale(0.18 -0.18)">
       <defs>
        <path id="DejaVuSans-42" d="M 1259 2228 
L 1259 519 
L 2272 519 
Q 2781 519 3026 730 
Q 3272 941 3272 1375 
Q 3272 1813 3026 2020 
Q 2781 2228 2272 2228 
L 1259 2228 
z
M 1259 4147 
L 1259 2741 
L 2194 2741 
Q 2656 2741 2882 2914 
Q 3109 3088 3109 3444 
Q 3109 3797 2882 3972 
Q 2656 4147 2194 4147 
L 1259 4147 
z
M 628 4666 
L 2241 4666 
Q 2963 4666 3353 4366 
Q 3744 4066 3744 3513 
Q 3744 3084 3544 2831 
Q 3344 2578 2956 2516 
Q 3422 2416 3680 2098 
Q 3938 1781 3938 1306 
Q 3938 681 3513 340 
Q 3088 0 2303 0 
L 628 0 
L 628 4666 
z
" transform="scale(0.015625)"/>
        <path id="DejaVuSans-52" d="M 2841 2188 
Q 3044 2119 3236 1894 
Q 3428 1669 3622 1275 
L 4263 0 
L 3584 0 
L 2988 1197 
Q 2756 1666 2539 1819 
Q 2322 1972 1947 1972 
L 1259 1972 
L 1259 0 
L 628 0 
L 628 4666 
L 2053 4666 
Q 2853 4666 3247 4331 
Q 3641 3997 3641 3322 
Q 3641 2881 3436 2590 
Q 3231 2300 2841 2188 
z
M 1259 4147 
L 1259 2491 
L 2053 2491 
Q 2509 2491 2742 2702 
Q 2975 2913 2975 3322 
Q 2975 3731 2742 3939 
Q 2509 4147 2053 4147 
L 1259 4147 
z
" transform="scale(0.015625)"/>
        <path id="DejaVuSans-4f" d="M 2522 4238 
Q 1834 4238 1429 3725 
Q 1025 3213 1025 2328 
Q 1025 1447 1429 934 
Q 1834 422 2522 422 
Q 3209 422 3611 934 
Q 4013 1447 4013 2328 
Q 4013 3213 3611 3725 
Q 3209 4238 2522 4238 
z
M 2522 4750 
Q 3503 4750 4090 4092 
Q 4678 3434 4678 2328 
Q 4678 1225 4090 567 
Q 3503 -91 2522 -91 
Q 1538 -91 948 565 
Q 359 1222 359 2328 
Q 359 3434 948 4092 
Q 1538 4750 2522 4750 
z
" transform="scale(0.015625)"/>
       </defs>
       <use xlink:href="#DejaVuSans-42"/>
       <use xlink:href="#DejaVuSans-52" x="68.603516"/>
       <use xlink:href="#DejaVuSans-4f" x="138.085938"/>
      </g>
     </g>
    </g>
    <g id="xtick_2">
     <g id="line2d_2">
      <g>
       <use xlink:href="#mdfa5b52fb6" x="711.9" y="378" style="stroke: #000000; stroke-width: 0.8"/>
      </g>
     </g>
     <g id="text_2">
      <!-- NON -->
      <g transform="translate(691.349063 398.677188) scale(0.18 -0.18)">
       <defs>
        <path id="DejaVuSans-4e" d="M 628 4666 
L 1478 4666 
L 3547 763 
L 3547 4666 
L 4159 4666 
L 4159 0 
L 3309 0 
L 1241 3903 
L 1241 0 
L 628 0 
L 628 4666 
z
" transform="scale(0.015625)"/>
       </defs>
       <use xlink:href="#DejaVuSans-4e"/>
       <use xlink:href="#DejaVuSans-4f" x="74.804688"/>
       <use xlink:href="#DejaVuSans-4e" x="153.515625"/>
      </g>
     </g>
    </g>
   </g>
   <g id="matplotlib.axis_2">
    <g id="ytick_1">
     <g id="line2d_3">
      <defs>
       <path id="m8f2392fec7" d="M 0 0 
L -3.5 0 
" style="stroke: #000000; stroke-width: 0.8"/>
      </defs>
      <g>
       <use xlink:href="#m8f2392fec7" x="126" y="340.099433" style="stroke: #000000; stroke-width: 0.8"/>
      </g>
     </g>
     <g id="text_3">
      <!-- 40 -->
      <g transform="translate(96.095 346.938027) scale(0.18 -0.18)">
       <defs>
        <path id="DejaVuSans-34" d="M 2419 4116 
L 825 1625 
L 2419 1625 
L 2419 4116 
z
M 2253 4666 
L 3047 4666 
L 3047 1625 
L 3713 1625 
L 3713 1100 
L 3047 1100 
L 3047 0 
L 2419 0 
L 2419 1100 
L 313 1100 
L 313 1709 
L 2253 4666 
z
" transform="scale(0.015625)"/>
        <path id="DejaVuSans-30" d="M 2034 4250 
Q 1547 4250 1301 3770 
Q 1056 3291 1056 2328 
Q 1056 1369 1301 889 
Q 1547 409 2034 409 
Q 2525 409 2770 889 
Q 3016 1369 3016 2328 
Q 3016 3291 2770 3770 
Q 2525 4250 2034 4250 
z
M 2034 4750 
Q 2819 4750 3233 4129 
Q 3647 3509 3647 2328 
Q 3647 1150 3233 529 
Q 2819 -91 2034 -91 
Q 1250 -91 836 529 
Q 422 1150 422 2328 
Q 422 3509 836 4129 
Q 1250 4750 2034 4750 
z
" transform="scale(0.015625)"/>
       </defs>
       <use xlink:href="#DejaVuSans-34"/>
       <use xlink:href="#DejaVuSans-30" x="63.623047"/>
      </g>
     </g>
    </g>
    <g id="ytick_2">
     <g id="line2d_4">
      <g>
       <use xlink:href="#m8f2392fec7" x="126" y="295.366767" style="stroke: #000000; stroke-width: 0.8"/>
      </g>
     </g>
     <g id="text_4">
      <!-- 50 -->
      <g transform="translate(96.095 302.205361) scale(0.18 -0.18)">
       <defs>
        <path id="DejaVuSans-35" d="M 691 4666 
L 3169 4666 
L 3169 4134 
L 1269 4134 
L 1269 2991 
Q 1406 3038 1543 3061 
Q 1681 3084 1819 3084 
Q 2600 3084 3056 2656 
Q 3513 2228 3513 1497 
Q 3513 744 3044 326 
Q 2575 -91 1722 -91 
Q 1428 -91 1123 -41 
Q 819 9 494 109 
L 494 744 
Q 775 591 1075 516 
Q 1375 441 1709 441 
Q 2250 441 2565 725 
Q 2881 1009 2881 1497 
Q 2881 1984 2565 2268 
Q 2250 2553 1709 2553 
Q 1456 2553 1204 2497 
Q 953 2441 691 2322 
L 691 4666 
z
" transform="scale(0.015625)"/>
       </defs>
       <use xlink:href="#DejaVuSans-35"/>
       <use xlink:href="#DejaVuSans-30" x="63.623047"/>
      </g>
     </g>
    </g>
    <g id="ytick_3">
     <g id="line2d_5">
      <g>
       <use xlink:href="#m8f2392fec7" x="126" y="250.634102" style="stroke: #000000; stroke-width: 0.8"/>
      </g>
     </g>
     <g id="text_5">
      <!-- 60 -->
      <g transform="translate(96.095 257.472696) scale(0.18 -0.18)">
       <defs>
        <path id="DejaVuSans-36" d="M 2113 2584 
Q 1688 2584 1439 2293 
Q 1191 2003 1191 1497 
Q 1191 994 1439 701 
Q 1688 409 2113 409 
Q 2538 409 2786 701 
Q 3034 994 3034 1497 
Q 3034 2003 2786 2293 
Q 2538 2584 2113 2584 
z
M 3366 4563 
L 3366 3988 
Q 3128 4100 2886 4159 
Q 2644 4219 2406 4219 
Q 1781 4219 1451 3797 
Q 1122 3375 1075 2522 
Q 1259 2794 1537 2939 
Q 1816 3084 2150 3084 
Q 2853 3084 3261 2657 
Q 3669 2231 3669 1497 
Q 3669 778 3244 343 
Q 2819 -91 2113 -91 
Q 1303 -91 875 529 
Q 447 1150 447 2328 
Q 447 3434 972 4092 
Q 1497 4750 2381 4750 
Q 2619 4750 2861 4703 
Q 3103 4656 3366 4563 
z
" transform="scale(0.015625)"/>
       </defs>
       <use xlink:href="#DejaVuSans-36"/>
       <use xlink:href="#DejaVuSans-30" x="63.623047"/>
      </g>
     </g>
    </g>
    <g id="ytick_4">
     <g id="line2d_6">
      <g>
       <use xlink:href="#m8f2392fec7" x="126" y="205.901436" style="stroke: #000000; stroke-width: 0.8"/>
      </g>
     </g>
     <g id="text_6">
      <!-- 70 -->
      <g transform="translate(96.095 212.74003) scale(0.18 -0.18)">
       <defs>
        <path id="DejaVuSans-37" d="M 525 4666 
L 3525 4666 
L 3525 4397 
L 1831 0 
L 1172 0 
L 2766 4134 
L 525 4134 
L 525 4666 
z
" transform="scale(0.015625)"/>
       </defs>
       <use xlink:href="#DejaVuSans-37"/>
       <use xlink:href="#DejaVuSans-30" x="63.623047"/>
      </g>
     </g>
    </g>
    <g id="ytick_5">
     <g id="line2d_7">
      <g>
       <use xlink:href="#m8f2392fec7" x="126" y="161.168771" style="stroke: #000000; stroke-width: 0.8"/>
      </g>
     </g>
     <g id="text_7">
      <!-- 80 -->
      <g transform="translate(96.095 168.007365) scale(0.18 -0.18)">
       <defs>
        <path id="DejaVuSans-38" d="M 2034 2216 
Q 1584 2216 1326 1975 
Q 1069 1734 1069 1313 
Q 1069 891 1326 650 
Q 1584 409 2034 409 
Q 2484 409 2743 651 
Q 3003 894 3003 1313 
Q 3003 1734 2745 1975 
Q 2488 2216 2034 2216 
z
M 1403 2484 
Q 997 2584 770 2862 
Q 544 3141 544 3541 
Q 544 4100 942 4425 
Q 1341 4750 2034 4750 
Q 2731 4750 3128 4425 
Q 3525 4100 3525 3541 
Q 3525 3141 3298 2862 
Q 3072 2584 2669 2484 
Q 3125 2378 3379 2068 
Q 3634 1759 3634 1313 
Q 3634 634 3220 271 
Q 2806 -91 2034 -91 
Q 1263 -91 848 271 
Q 434 634 434 1313 
Q 434 1759 690 2068 
Q 947 2378 1403 2484 
z
M 1172 3481 
Q 1172 3119 1398 2916 
Q 1625 2713 2034 2713 
Q 2441 2713 2670 2916 
Q 2900 3119 2900 3481 
Q 2900 3844 2670 4047 
Q 2441 4250 2034 4250 
Q 1625 4250 1398 4047 
Q 1172 3844 1172 3481 
z
" transform="scale(0.015625)"/>
       </defs>
       <use xlink:href="#DejaVuSans-38"/>
       <use xlink:href="#DejaVuSans-30" x="63.623047"/>
      </g>
     </g>
    </g>
    <g id="ytick_6">
     <g id="line2d_8">
      <g>
       <use xlink:href="#m8f2392fec7" x="126" y="116.436105" style="stroke: #000000; stroke-width: 0.8"/>
      </g>
     </g>
     <g id="text_8">
      <!-- 90 -->
      <g transform="translate(96.095 123.274699) scale(0.18 -0.18)">
       <defs>
        <path id="DejaVuSans-39" d="M 703 97 
L 703 672 
Q 941 559 1184 500 
Q 1428 441 1663 441 
Q 2288 441 2617 861 
Q 2947 1281 2994 2138 
Q 2813 1869 2534 1725 
Q 2256 1581 1919 1581 
Q 1219 1581 811 2004 
Q 403 2428 403 3163 
Q 403 3881 828 4315 
Q 1253 4750 1959 4750 
Q 2769 4750 3195 4129 
Q 3622 3509 3622 2328 
Q 3622 1225 3098 567 
Q 2575 -91 1691 -91 
Q 1453 -91 1209 -44 
Q 966 3 703 97 
z
M 1959 2075 
Q 2384 2075 2632 2365 
Q 2881 2656 2881 3163 
Q 2881 3666 2632 3958 
Q 2384 4250 1959 4250 
Q 1534 4250 1286 3958 
Q 1038 3666 1038 3163 
Q 1038 2656 1286 2365 
Q 1534 2075 1959 2075 
z
" transform="scale(0.015625)"/>
       </defs>
       <use xlink:href="#DejaVuSans-39"/>
       <use xlink:href="#DejaVuSans-30" x="63.623047"/>
      </g>
     </g>
    </g>
    <g id="ytick_7">
     <g id="line2d_9">
      <g>
       <use xlink:href="#m8f2392fec7" x="126" y="71.70344" style="stroke: #000000; stroke-width: 0.8"/>
      </g>
     </g>
     <g id="text_9">
      <!-- 100 -->
      <g transform="translate(84.6425 78.542033) scale(0.18 -0.18)">
       <defs>
        <path id="DejaVuSans-31" d="M 794 531 
L 1825 531 
L 1825 4091 
L 703 3866 
L 703 4441 
L 1819 4666 
L 2450 4666 
L 2450 531 
L 3481 531 
L 3481 0 
L 794 0 
L 794 531 
z
" transform="scale(0.015625)"/>
       </defs>
       <use xlink:href="#DejaVuSans-31"/>
       <use xlink:href="#DejaVuSans-30" x="63.623047"/>
       <use xlink:href="#DejaVuSans-30" x="127.246094"/>
      </g>
     </g>
    </g>
    <g id="text_10">
     <!-- v_identity -->
     <g transform="translate(76.398438 259.086094) rotate(-90) scale(0.18 -0.18)">
      <defs>
       <path id="DejaVuSans-76" d="M 191 3500 
L 800 3500 
L 1894 563 
L 2988 3500 
L 3597 3500 
L 2284 0 
L 1503 0 
L 191 3500 
z
" transform="scale(0.015625)"/>
       <path id="DejaVuSans-5f" d="M 3263 -1063 
L 3263 -1509 
L -63 -1509 
L -63 -1063 
L 3263 -1063 
z
" transform="scale(0.015625)"/>
       <path id="DejaVuSans-69" d="M 603 3500 
L 1178 3500 
L 1178 0 
L 603 0 
L 603 3500 
z
M 603 4863 
L 1178 4863 
L 1178 4134 
L 603 4134 
L 603 4863 
z
" transform="scale(0.015625)"/>
       <path id="DejaVuSans-64" d="M 2906 2969 
L 2906 4863 
L 3481 4863 
L 3481 0 
L 2906 0 
L 2906 525 
Q 2725 213 2448 61 
Q 2172 -91 1784 -91 
Q 1150 -91 751 415 
Q 353 922 353 1747 
Q 353 2572 751 3078 
Q 1150 3584 1784 3584 
Q 2172 3584 2448 3432 
Q 2725 3281 2906 2969 
z
M 947 1747 
Q 947 1113 1208 752 
Q 1469 391 1925 391 
Q 2381 391 2643 752 
Q 2906 1113 2906 1747 
Q 2906 2381 2643 2742 
Q 2381 3103 1925 3103 
Q 1469 3103 1208 2742 
Q 947 2381 947 1747 
z
" transform="scale(0.015625)"/>
       <path id="DejaVuSans-65" d="M 3597 1894 
L 3597 1613 
L 953 1613 
Q 991 1019 1311 708 
Q 1631 397 2203 397 
Q 2534 397 2845 478 
Q 3156 559 3463 722 
L 3463 178 
Q 3153 47 2828 -22 
Q 2503 -91 2169 -91 
Q 1331 -91 842 396 
Q 353 884 353 1716 
Q 353 2575 817 3079 
Q 1281 3584 2069 3584 
Q 2775 3584 3186 3129 
Q 3597 2675 3597 1894 
z
M 3022 2063 
Q 3016 2534 2758 2815 
Q 2500 3097 2075 3097 
Q 1594 3097 1305 2825 
Q 1016 2553 972 2059 
L 3022 2063 
z
" transform="scale(0.015625)"/>
       <path id="DejaVuSans-6e" d="M 3513 2113 
L 3513 0 
L 2938 0 
L 2938 2094 
Q 2938 2591 2744 2837 
Q 2550 3084 2163 3084 
Q 1697 3084 1428 2787 
Q 1159 2491 1159 1978 
L 1159 0 
L 581 0 
L 581 3500 
L 1159 3500 
L 1159 2956 
Q 1366 3272 1645 3428 
Q 1925 3584 2291 3584 
Q 2894 3584 3203 3211 
Q 3513 2838 3513 2113 
z
" transform="scale(0.015625)"/>
       <path id="DejaVuSans-74" d="M 1172 4494 
L 1172 3500 
L 2356 3500 
L 2356 3053 
L 1172 3053 
L 1172 1153 
Q 1172 725 1289 603 
Q 1406 481 1766 481 
L 2356 481 
L 2356 0 
L 1766 0 
Q 1100 0 847 248 
Q 594 497 594 1153 
L 594 3053 
L 172 3053 
L 172 3500 
L 594 3500 
L 594 4494 
L 1172 4494 
z
" transform="scale(0.015625)"/>
       <path id="DejaVuSans-79" d="M 2059 -325 
Q 1816 -950 1584 -1140 
Q 1353 -1331 966 -1331 
L 506 -1331 
L 506 -850 
L 844 -850 
Q 1081 -850 1212 -737 
Q 1344 -625 1503 -206 
L 1606 56 
L 191 3500 
L 800 3500 
L 1894 763 
L 2988 3500 
L 3597 3500 
L 2059 -325 
z
" transform="scale(0.015625)"/>
      </defs>
      <use xlink:href="#DejaVuSans-76"/>
      <use xlink:href="#DejaVuSans-5f" x="59.179688"/>
      <use xlink:href="#DejaVuSans-69" x="109.179688"/>
      <use xlink:href="#DejaVuSans-64" x="136.962891"/>
      <use xlink:href="#DejaVuSans-65" x="200.439453"/>
      <use xlink:href="#DejaVuSans-6e" x="261.962891"/>
      <use xlink:href="#DejaVuSans-74" x="325.341797"/>
      <use xlink:href="#DejaVuSans-69" x="364.550781"/>
      <use xlink:href="#DejaVuSans-74" x="392.333984"/>
      <use xlink:href="#DejaVuSans-79" x="431.542969"/>
     </g>
    </g>
   </g>
   <g id="line2d_10">
    <path d="M 321.3 191.819593 
L 321.3 138.882957 
" clip-path="url(#p5499d2dc9d)" style="fill: none; stroke: #4c4c4c; stroke-width: 1.875; stroke-linecap: square"/>
   </g>
   <g id="line2d_11">
    <path d="M 321.3 162.922291 
L 321.3 143.624619 
" clip-path="url(#p5499d2dc9d)" style="fill: none; stroke: #4c4c4c; stroke-width: 5.625; stroke-linecap: square"/>
   </g>
   <g id="line2d_12">
    <path d="M 321.3 150.643175 
" clip-path="url(#p5499d2dc9d)" style="fill: none; stroke: #4c4c4c; stroke-width: 1.5; stroke-linecap: square"/>
    <defs>
     <path id="m127e2517db" d="M 2.34375 0 
L -2.34375 -0 
" style="stroke: #ffffff; stroke-width: 1.125"/>
    </defs>
    <g clip-path="url(#p5499d2dc9d)">
     <use xlink:href="#m127e2517db" x="321.3" y="150.643175" style="fill: #ffffff; stroke: #ffffff; stroke-width: 1.125"/>
    </g>
   </g>
   <g id="line2d_13">
    <path d="M 711.9 126.782771 
L 711.9 71.70344 
" clip-path="url(#p5499d2dc9d)" style="fill: none; stroke: #4c4c4c; stroke-width: 1.875; stroke-linecap: square"/>
   </g>
   <g id="line2d_14">
    <path d="M 711.9 95.881445 
L 711.9 75.210481 
" clip-path="url(#p5499d2dc9d)" style="fill: none; stroke: #4c4c4c; stroke-width: 5.625; stroke-linecap: square"/>
   </g>
   <g id="line2d_15">
    <path d="M 711.9 83.982556 
" clip-path="url(#p5499d2dc9d)" style="fill: none; stroke: #4c4c4c; stroke-width: 1.5; stroke-linecap: square"/>
    <g clip-path="url(#p5499d2dc9d)">
     <use xlink:href="#m127e2517db" x="711.9" y="83.982556" style="fill: #ffffff; stroke: #ffffff; stroke-width: 1.125"/>
    </g>
   </g>
   <g id="patch_3">
    <path d="M 126 378 
L 126 51.84 
" style="fill: none; stroke: #000000; stroke-width: 0.8; stroke-linejoin: miter; stroke-linecap: square"/>
   </g>
   <g id="patch_4">
    <path d="M 907.2 378 
L 907.2 51.84 
" style="fill: none; stroke: #000000; stroke-width: 0.8; stroke-linejoin: miter; stroke-linecap: square"/>
   </g>
   <g id="patch_5">
    <path d="M 126 378 
L 907.2 378 
" style="fill: none; stroke: #000000; stroke-width: 0.8; stroke-linejoin: miter; stroke-linecap: square"/>
   </g>
   <g id="patch_6">
    <path d="M 126 51.84 
L 907.2 51.84 
" style="fill: none; stroke: #000000; stroke-width: 0.8; stroke-linejoin: miter; stroke-linecap: square"/>
   </g>
   <g id="text_11">
    <g id="patch_7">
     <path d="M 182.003281 332.745781 
L 265.296719 332.745781 
L 265.296719 311.076406 
L 182.003281 311.076406 
z
" style="fill: #ffffff; opacity: 0.7; stroke: #000000; stroke-linejoin: miter"/>
    </g>
    <!-- Avg: 81.20 -->
    <g transform="translate(186.063281 325.774219) scale(0.14 -0.14)">
     <defs>
      <path id="DejaVuSans-41" d="M 2188 4044 
L 1331 1722 
L 3047 1722 
L 2188 4044 
z
M 1831 4666 
L 2547 4666 
L 4325 0 
L 3669 0 
L 3244 1197 
L 1141 1197 
L 716 0 
L 50 0 
L 1831 4666 
z
" transform="scale(0.015625)"/>
      <path id="DejaVuSans-67" d="M 2906 1791 
Q 2906 2416 2648 2759 
Q 2391 3103 1925 3103 
Q 1463 3103 1205 2759 
Q 947 2416 947 1791 
Q 947 1169 1205 825 
Q 1463 481 1925 481 
Q 2391 481 2648 825 
Q 2906 1169 2906 1791 
z
M 3481 434 
Q 3481 -459 3084 -895 
Q 2688 -1331 1869 -1331 
Q 1566 -1331 1297 -1286 
Q 1028 -1241 775 -1147 
L 775 -588 
Q 1028 -725 1275 -790 
Q 1522 -856 1778 -856 
Q 2344 -856 2625 -561 
Q 2906 -266 2906 331 
L 2906 616 
Q 2728 306 2450 153 
Q 2172 0 1784 0 
Q 1141 0 747 490 
Q 353 981 353 1791 
Q 353 2603 747 3093 
Q 1141 3584 1784 3584 
Q 2172 3584 2450 3431 
Q 2728 3278 2906 2969 
L 2906 3500 
L 3481 3500 
L 3481 434 
z
" transform="scale(0.015625)"/>
      <path id="DejaVuSans-3a" d="M 750 794 
L 1409 794 
L 1409 0 
L 750 0 
L 750 794 
z
M 750 3309 
L 1409 3309 
L 1409 2516 
L 750 2516 
L 750 3309 
z
" transform="scale(0.015625)"/>
      <path id="DejaVuSans-20" transform="scale(0.015625)"/>
      <path id="DejaVuSans-2e" d="M 684 794 
L 1344 794 
L 1344 0 
L 684 0 
L 684 794 
z
" transform="scale(0.015625)"/>
      <path id="DejaVuSans-32" d="M 1228 531 
L 3431 531 
L 3431 0 
L 469 0 
L 469 531 
Q 828 903 1448 1529 
Q 2069 2156 2228 2338 
Q 2531 2678 2651 2914 
Q 2772 3150 2772 3378 
Q 2772 3750 2511 3984 
Q 2250 4219 1831 4219 
Q 1534 4219 1204 4116 
Q 875 4013 500 3803 
L 500 4441 
Q 881 4594 1212 4672 
Q 1544 4750 1819 4750 
Q 2544 4750 2975 4387 
Q 3406 4025 3406 3419 
Q 3406 3131 3298 2873 
Q 3191 2616 2906 2266 
Q 2828 2175 2409 1742 
Q 1991 1309 1228 531 
z
" transform="scale(0.015625)"/>
     </defs>
     <use xlink:href="#DejaVuSans-41"/>
     <use xlink:href="#DejaVuSans-76" x="62.533203"/>
     <use xlink:href="#DejaVuSans-67" x="121.712891"/>
     <use xlink:href="#DejaVuSans-3a" x="185.189453"/>
     <use xlink:href="#DejaVuSans-20" x="218.880859"/>
     <use xlink:href="#DejaVuSans-38" x="250.667969"/>
     <use xlink:href="#DejaVuSans-31" x="314.291016"/>
     <use xlink:href="#DejaVuSans-2e" x="377.914062"/>
     <use xlink:href="#DejaVuSans-32" x="409.701172"/>
     <use xlink:href="#DejaVuSans-30" x="473.324219"/>
    </g>
   </g>
   <g id="text_12">
    <g id="patch_8">
     <path d="M 168.60375 296.959649 
L 278.69625 296.959649 
L 278.69625 275.290274 
L 168.60375 275.290274 
z
" style="fill: #ffffff; opacity: 0.7; stroke: #000000; stroke-linejoin: miter"/>
    </g>
    <!-- # seqs: 10865 -->
    <g transform="translate(172.66375 289.988087) scale(0.14 -0.14)">
     <defs>
      <path id="DejaVuSans-23" d="M 3272 2816 
L 2363 2816 
L 2100 1772 
L 3016 1772 
L 3272 2816 
z
M 2803 4594 
L 2478 3297 
L 3391 3297 
L 3719 4594 
L 4219 4594 
L 3897 3297 
L 4872 3297 
L 4872 2816 
L 3775 2816 
L 3519 1772 
L 4513 1772 
L 4513 1294 
L 3397 1294 
L 3072 0 
L 2572 0 
L 2894 1294 
L 1978 1294 
L 1656 0 
L 1153 0 
L 1478 1294 
L 494 1294 
L 494 1772 
L 1594 1772 
L 1856 2816 
L 850 2816 
L 850 3297 
L 1978 3297 
L 2297 4594 
L 2803 4594 
z
" transform="scale(0.015625)"/>
      <path id="DejaVuSans-73" d="M 2834 3397 
L 2834 2853 
Q 2591 2978 2328 3040 
Q 2066 3103 1784 3103 
Q 1356 3103 1142 2972 
Q 928 2841 928 2578 
Q 928 2378 1081 2264 
Q 1234 2150 1697 2047 
L 1894 2003 
Q 2506 1872 2764 1633 
Q 3022 1394 3022 966 
Q 3022 478 2636 193 
Q 2250 -91 1575 -91 
Q 1294 -91 989 -36 
Q 684 19 347 128 
L 347 722 
Q 666 556 975 473 
Q 1284 391 1588 391 
Q 1994 391 2212 530 
Q 2431 669 2431 922 
Q 2431 1156 2273 1281 
Q 2116 1406 1581 1522 
L 1381 1569 
Q 847 1681 609 1914 
Q 372 2147 372 2553 
Q 372 3047 722 3315 
Q 1072 3584 1716 3584 
Q 2034 3584 2315 3537 
Q 2597 3491 2834 3397 
z
" transform="scale(0.015625)"/>
      <path id="DejaVuSans-71" d="M 947 1747 
Q 947 1113 1208 752 
Q 1469 391 1925 391 
Q 2381 391 2643 752 
Q 2906 1113 2906 1747 
Q 2906 2381 2643 2742 
Q 2381 3103 1925 3103 
Q 1469 3103 1208 2742 
Q 947 2381 947 1747 
z
M 2906 525 
Q 2725 213 2448 61 
Q 2172 -91 1784 -91 
Q 1150 -91 751 415 
Q 353 922 353 1747 
Q 353 2572 751 3078 
Q 1150 3584 1784 3584 
Q 2172 3584 2448 3432 
Q 2725 3281 2906 2969 
L 2906 3500 
L 3481 3500 
L 3481 -1331 
L 2906 -1331 
L 2906 525 
z
" transform="scale(0.015625)"/>
     </defs>
     <use xlink:href="#DejaVuSans-23"/>
     <use xlink:href="#DejaVuSans-20" x="83.789062"/>
     <use xlink:href="#DejaVuSans-73" x="115.576172"/>
     <use xlink:href="#DejaVuSans-65" x="167.675781"/>
     <use xlink:href="#DejaVuSans-71" x="229.199219"/>
     <use xlink:href="#DejaVuSans-73" x="292.675781"/>
     <use xlink:href="#DejaVuSans-3a" x="344.775391"/>
     <use xlink:href="#DejaVuSans-20" x="378.466797"/>
     <use xlink:href="#DejaVuSans-31" x="410.253906"/>
     <use xlink:href="#DejaVuSans-30" x="473.876953"/>
     <use xlink:href="#DejaVuSans-38" x="537.5"/>
     <use xlink:href="#DejaVuSans-36" x="601.123047"/>
     <use xlink:href="#DejaVuSans-35" x="664.746094"/>
    </g>
   </g>
   <g id="text_13">
    <g id="patch_9">
     <path d="M 572.603281 265.242651 
L 655.896719 265.242651 
L 655.896719 243.573276 
L 572.603281 243.573276 
z
" style="fill: #ffffff; opacity: 0.7; stroke: #000000; stroke-linejoin: miter"/>
    </g>
    <!-- Avg: 96.29 -->
    <g transform="translate(576.663281 258.271089) scale(0.14 -0.14)">
     <use xlink:href="#DejaVuSans-41"/>
     <use xlink:href="#DejaVuSans-76" x="62.533203"/>
     <use xlink:href="#DejaVuSans-67" x="121.712891"/>
     <use xlink:href="#DejaVuSans-3a" x="185.189453"/>
     <use xlink:href="#DejaVuSans-20" x="218.880859"/>
     <use xlink:href="#DejaVuSans-39" x="250.667969"/>
     <use xlink:href="#DejaVuSans-36" x="314.291016"/>
     <use xlink:href="#DejaVuSans-2e" x="377.914062"/>
     <use xlink:href="#DejaVuSans-32" x="409.701172"/>
     <use xlink:href="#DejaVuSans-39" x="473.324219"/>
    </g>
   </g>
   <g id="text_14">
    <g id="patch_10">
     <path d="M 559.20375 229.456519 
L 669.29625 229.456519 
L 669.29625 207.787144 
L 559.20375 207.787144 
z
" style="fill: #ffffff; opacity: 0.7; stroke: #000000; stroke-linejoin: miter"/>
    </g>
    <!-- # seqs: 15347 -->
    <g transform="translate(563.26375 222.484956) scale(0.14 -0.14)">
     <defs>
      <path id="DejaVuSans-33" d="M 2597 2516 
Q 3050 2419 3304 2112 
Q 3559 1806 3559 1356 
Q 3559 666 3084 287 
Q 2609 -91 1734 -91 
Q 1441 -91 1130 -33 
Q 819 25 488 141 
L 488 750 
Q 750 597 1062 519 
Q 1375 441 1716 441 
Q 2309 441 2620 675 
Q 2931 909 2931 1356 
Q 2931 1769 2642 2001 
Q 2353 2234 1838 2234 
L 1294 2234 
L 1294 2753 
L 1863 2753 
Q 2328 2753 2575 2939 
Q 2822 3125 2822 3475 
Q 2822 3834 2567 4026 
Q 2313 4219 1838 4219 
Q 1578 4219 1281 4162 
Q 984 4106 628 3988 
L 628 4550 
Q 988 4650 1302 4700 
Q 1616 4750 1894 4750 
Q 2613 4750 3031 4423 
Q 3450 4097 3450 3541 
Q 3450 3153 3228 2886 
Q 3006 2619 2597 2516 
z
" transform="scale(0.015625)"/>
     </defs>
     <use xlink:href="#DejaVuSans-23"/>
     <use xlink:href="#DejaVuSans-20" x="83.789062"/>
     <use xlink:href="#DejaVuSans-73" x="115.576172"/>
     <use xlink:href="#DejaVuSans-65" x="167.675781"/>
     <use xlink:href="#DejaVuSans-71" x="229.199219"/>
     <use xlink:href="#DejaVuSans-73" x="292.675781"/>
     <use xlink:href="#DejaVuSans-3a" x="344.775391"/>
     <use xlink:href="#DejaVuSans-20" x="378.466797"/>
     <use xlink:href="#DejaVuSans-31" x="410.253906"/>
     <use xlink:href="#DejaVuSans-35" x="473.876953"/>
     <use xlink:href="#DejaVuSans-33" x="537.5"/>
     <use xlink:href="#DejaVuSans-34" x="601.123047"/>
     <use xlink:href="#DejaVuSans-37" x="664.746094"/>
    </g>
   </g>
  </g>
 </g>
 <defs>
  <clipPath id="p5499d2dc9d">
   <rect x="126" y="51.84" width="781.2" height="326.16"/>
  </clipPath>
 </defs>
</svg>
