<?xml version="1.0" encoding="utf-8" standalone="no"?>
<!DOCTYPE svg PUBLIC "-//W3C//DTD SVG 1.1//EN"
  "http://www.w3.org/Graphics/SVG/1.1/DTD/svg11.dtd">
<svg xmlns:xlink="http://www.w3.org/1999/xlink" width="1008pt" height="432pt" viewBox="0 0 1008 432" xmlns="http://www.w3.org/2000/svg" version="1.1">
 <metadata>
  <rdf:RDF xmlns:dc="http://purl.org/dc/elements/1.1/" xmlns:cc="http://creativecommons.org/ns#" xmlns:rdf="http://www.w3.org/1999/02/22-rdf-syntax-ns#">
   <cc:Work>
    <dc:type rdf:resource="http://purl.org/dc/dcmitype/StillImage"/>
    <dc:date>2024-10-11T23:35:13.101065</dc:date>
    <dc:format>image/svg+xml</dc:format>
    <dc:creator>
     <cc:Agent>
      <dc:title>Matplotlib v3.7.5, https://matplotlib.org/</dc:title>
     </cc:Agent>
    </dc:creator>
   </cc:Work>
  </rdf:RDF>
 </metadata>
 <defs>
  <style type="text/css">*{stroke-linejoin: round; stroke-linecap: butt}</style>
 </defs>
 <g id="figure_1">
  <g id="patch_1">
   <path d="M 0 432 
L 1008 432 
L 1008 0 
L 0 0 
L 0 432 
z
" style="fill: none"/>
  </g>
  <g id="axes_1">
   <g id="patch_2">
    <path d="M 126 378 
L 907.2 378 
L 907.2 51.84 
L 126 51.84 
z
" style="fill: #ffffff"/>
   </g>
   <g id="PolyCollection_1">
    <defs>
     <path id="m1f00e5526d" d="M 256.204561 -154.692128 
L 256.195439 -154.692128 
L 256.181707 -156.340372 
L 256.167041 -157.988617 
L 256.173326 -159.636861 
L 256.190303 -161.285105 
L 256.198416 -162.933349 
L 256.199884 -164.581593 
L 256.199996 -166.229837 
L 256.2 -167.878081 
L 256.2 -169.526325 
L 256.2 -171.17457 
L 256.2 -172.822814 
L 256.2 -174.471058 
L 256.2 -176.119302 
L 256.2 -177.767546 
L 256.2 -179.41579 
L 256.2 -181.064034 
L 256.2 -182.712279 
L 256.2 -184.360523 
L 256.2 -186.008767 
L 256.2 -187.657011 
L 256.2 -189.305255 
L 256.2 -190.953499 
L 256.2 -192.601743 
L 256.2 -194.249987 
L 256.2 -195.898232 
L 256.2 -197.546476 
L 256.2 -199.19472 
L 256.2 -200.842964 
L 256.2 -202.491208 
L 256.2 -204.139452 
L 256.2 -205.787696 
L 256.2 -207.435941 
L 256.2 -209.084185 
L 256.199999 -210.732429 
L 256.199951 -212.380673 
L 256.199169 -214.028917 
L 256.193647 -215.677161 
L 256.178177 -217.325405 
L 256.166324 -218.973649 
L 256.176625 -220.621894 
L 256.192121 -222.270138 
L 256.193826 -223.918382 
L 256.180374 -225.566626 
L 256.166662 -227.21487 
L 256.174303 -228.863114 
L 256.188593 -230.511358 
L 256.181393 -232.159603 
L 256.145376 -233.807847 
L 256.105234 -235.456091 
L 256.075534 -237.104335 
L 256.032061 -238.752579 
L 255.974199 -240.400823 
L 255.933719 -242.049067 
L 255.94307 -243.697311 
L 255.952214 -245.345556 
L 255.894405 -246.9938 
L 255.793866 -248.642044 
L 255.646871 -250.290288 
L 255.49147 -251.938532 
L 255.398076 -253.586776 
L 255.287599 -255.23502 
L 255.16658 -256.883265 
L 255.00837 -258.531509 
L 254.605139 -260.179753 
L 254.086344 -261.827997 
L 253.752627 -263.476241 
L 253.460598 -265.124485 
L 252.983762 -266.772729 
L 252.695921 -268.420973 
L 252.616078 -270.069218 
L 252.112554 -271.717462 
L 251.108614 -273.365706 
L 250.151372 -275.01395 
L 249.32567 -276.662194 
L 248.380512 -278.310438 
L 247.23306 -279.958682 
L 245.952837 -281.606926 
L 244.480881 -283.255171 
L 242.705713 -284.903415 
L 240.54664 -286.551659 
L 238.127008 -288.199903 
L 235.741931 -289.848147 
L 233.522379 -291.496391 
L 231.374473 -293.144635 
L 228.612131 -294.79288 
L 224.714684 -296.441124 
L 219.652702 -298.089368 
L 213.899641 -299.737612 
L 208.276771 -301.385856 
L 202.507802 -303.0341 
L 195.440284 -304.682344 
L 186.16931 -306.330588 
L 174.058194 -307.978833 
L 160.421335 -309.627077 
L 152.04 -311.275321 
L 163.74903 -312.923565 
L 200.793217 -314.571809 
L 237.144485 -316.220053 
L 252.802067 -317.868297 
L 259.597933 -317.868297 
L 259.597933 -317.868297 
L 275.255515 -316.220053 
L 311.606783 -314.571809 
L 348.65097 -312.923565 
L 360.36 -311.275321 
L 351.978665 -309.627077 
L 338.341806 -307.978833 
L 326.23069 -306.330588 
L 316.959716 -304.682344 
L 309.892198 -303.0341 
L 304.123229 -301.385856 
L 298.500359 -299.737612 
L 292.747298 -298.089368 
L 287.685316 -296.441124 
L 283.787869 -294.79288 
L 281.025527 -293.144635 
L 278.877621 -291.496391 
L 276.658069 -289.848147 
L 274.272992 -288.199903 
L 271.85336 -286.551659 
L 269.694287 -284.903415 
L 267.919119 -283.255171 
L 266.447163 -281.606926 
L 265.16694 -279.958682 
L 264.019488 -278.310438 
L 263.07433 -276.662194 
L 262.248628 -275.01395 
L 261.291386 -273.365706 
L 260.287446 -271.717462 
L 259.783922 -270.069218 
L 259.704079 -268.420973 
L 259.416238 -266.772729 
L 258.939402 -265.124485 
L 258.647373 -263.476241 
L 258.313656 -261.827997 
L 257.794861 -260.179753 
L 257.39163 -258.531509 
L 257.23342 -256.883265 
L 257.112401 -255.23502 
L 257.001924 -253.586776 
L 256.90853 -251.938532 
L 256.753129 -250.290288 
L 256.606134 -248.642044 
L 256.505595 -246.9938 
L 256.447786 -245.345556 
L 256.45693 -243.697311 
L 256.466281 -242.049067 
L 256.425801 -240.400823 
L 256.367939 -238.752579 
L 256.324466 -237.104335 
L 256.294766 -235.456091 
L 256.254624 -233.807847 
L 256.218607 -232.159603 
L 256.211407 -230.511358 
L 256.225697 -228.863114 
L 256.233338 -227.21487 
L 256.219626 -225.566626 
L 256.206174 -223.918382 
L 256.207879 -222.270138 
L 256.223375 -220.621894 
L 256.233676 -218.973649 
L 256.221823 -217.325405 
L 256.206353 -215.677161 
L 256.200831 -214.028917 
L 256.200049 -212.380673 
L 256.200001 -210.732429 
L 256.2 -209.084185 
L 256.2 -207.435941 
L 256.2 -205.787696 
L 256.2 -204.139452 
L 256.2 -202.491208 
L 256.2 -200.842964 
L 256.2 -199.19472 
L 256.2 -197.546476 
L 256.2 -195.898232 
L 256.2 -194.249987 
L 256.2 -192.601743 
L 256.2 -190.953499 
L 256.2 -189.305255 
L 256.2 -187.657011 
L 256.2 -186.008767 
L 256.2 -184.360523 
L 256.2 -182.712279 
L 256.2 -181.064034 
L 256.2 -179.41579 
L 256.2 -177.767546 
L 256.2 -176.119302 
L 256.2 -174.471058 
L 256.2 -172.822814 
L 256.2 -171.17457 
L 256.2 -169.526325 
L 256.2 -167.878081 
L 256.200004 -166.229837 
L 256.200116 -164.581593 
L 256.201584 -162.933349 
L 256.209697 -161.285105 
L 256.226674 -159.636861 
L 256.232959 -157.988617 
L 256.218293 -156.340372 
L 256.204561 -154.692128 
z
" style="stroke: #484848; stroke-opacity: 0.5; stroke-width: 1.25"/>
    </defs>
    <g clip-path="url(#p8d91fc628f)">
     <use xlink:href="#m1f00e5526d" x="0" y="432" style="fill: #72b6a1; fill-opacity: 0.5; stroke: #484848; stroke-opacity: 0.5; stroke-width: 1.25"/>
    </g>
   </g>
   <g id="PolyCollection_2">
    <defs>
     <path id="m27b64fb673" d="M 516.604472 -68.825455 
L 516.595528 -68.825455 
L 516.572875 -71.340799 
L 516.574933 -73.856144 
L 516.596471 -76.371488 
L 516.599924 -78.886833 
L 516.6 -81.402177 
L 516.6 -83.917522 
L 516.6 -86.432867 
L 516.6 -88.948211 
L 516.6 -91.463556 
L 516.6 -93.9789 
L 516.6 -96.494245 
L 516.6 -99.009589 
L 516.6 -101.524934 
L 516.6 -104.040278 
L 516.6 -106.555623 
L 516.6 -109.070968 
L 516.6 -111.586312 
L 516.6 -114.101657 
L 516.6 -116.617001 
L 516.6 -119.132346 
L 516.6 -121.64769 
L 516.6 -124.163035 
L 516.6 -126.67838 
L 516.6 -129.193724 
L 516.6 -131.709069 
L 516.6 -134.224413 
L 516.6 -136.739758 
L 516.6 -139.255102 
L 516.6 -141.770447 
L 516.6 -144.285792 
L 516.6 -146.801136 
L 516.6 -149.316481 
L 516.6 -151.831825 
L 516.6 -154.34717 
L 516.6 -156.862514 
L 516.6 -159.377859 
L 516.6 -161.893203 
L 516.6 -164.408548 
L 516.6 -166.923893 
L 516.6 -169.439237 
L 516.6 -171.954582 
L 516.6 -174.469926 
L 516.6 -176.985271 
L 516.6 -179.500615 
L 516.6 -182.01596 
L 516.6 -184.531305 
L 516.6 -187.046649 
L 516.6 -189.561994 
L 516.6 -192.077338 
L 516.6 -194.592683 
L 516.599999 -197.108027 
L 516.599811 -199.623372 
L 516.59395 -202.138717 
L 516.570425 -204.654061 
L 516.577973 -207.169406 
L 516.5975 -209.68475 
L 516.599957 -212.200095 
L 516.6 -214.715439 
L 516.6 -217.230784 
L 516.599994 -219.746129 
L 516.599325 -222.261473 
L 516.587907 -224.776818 
L 516.566991 -227.292162 
L 516.586238 -229.807507 
L 516.595809 -232.322851 
L 516.538282 -234.838196 
L 516.340532 -237.35354 
L 516.270418 -239.868885 
L 516.291069 -242.38423 
L 516.337759 -244.899574 
L 516.266644 -247.414919 
L 516.082171 -249.930263 
L 515.986942 -252.445608 
L 515.867141 -254.960952 
L 515.636311 -257.476297 
L 515.328204 -259.991642 
L 515.031458 -262.506986 
L 514.646537 -265.022331 
L 513.943544 -267.537675 
L 512.670765 -270.05302 
L 511.707922 -272.568364 
L 510.629554 -275.083709 
L 509.340728 -277.599054 
L 508.243629 -280.114398 
L 506.646239 -282.629743 
L 504.94148 -285.145087 
L 503.051192 -287.660432 
L 499.413498 -290.175776 
L 494.379547 -292.691121 
L 488.93881 -295.206466 
L 482.397375 -297.72181 
L 475.509961 -300.237155 
L 467.457851 -302.752499 
L 454.288859 -305.267844 
L 434.571415 -307.783188 
L 412.44 -310.298533 
L 419.419065 -312.813877 
L 479.402128 -315.329222 
L 513.140744 -317.844567 
L 520.059256 -317.844567 
L 520.059256 -317.844567 
L 553.797872 -315.329222 
L 613.780935 -312.813877 
L 620.76 -310.298533 
L 598.628585 -307.783188 
L 578.911141 -305.267844 
L 565.742149 -302.752499 
L 557.690039 -300.237155 
L 550.802625 -297.72181 
L 544.26119 -295.206466 
L 538.820453 -292.691121 
L 533.786502 -290.175776 
L 530.148808 -287.660432 
L 528.25852 -285.145087 
L 526.553761 -282.629743 
L 524.956371 -280.114398 
L 523.859272 -277.599054 
L 522.570446 -275.083709 
L 521.492078 -272.568364 
L 520.529235 -270.05302 
L 519.256456 -267.537675 
L 518.553463 -265.022331 
L 518.168542 -262.506986 
L 517.871796 -259.991642 
L 517.563689 -257.476297 
L 517.332859 -254.960952 
L 517.213058 -252.445608 
L 517.117829 -249.930263 
L 516.933356 -247.414919 
L 516.862241 -244.899574 
L 516.908931 -242.38423 
L 516.929582 -239.868885 
L 516.859468 -237.35354 
L 516.661718 -234.838196 
L 516.604191 -232.322851 
L 516.613762 -229.807507 
L 516.633009 -227.292162 
L 516.612093 -224.776818 
L 516.600675 -222.261473 
L 516.600006 -219.746129 
L 516.6 -217.230784 
L 516.6 -214.715439 
L 516.600043 -212.200095 
L 516.6025 -209.68475 
L 516.622027 -207.169406 
L 516.629575 -204.654061 
L 516.60605 -202.138717 
L 516.600189 -199.623372 
L 516.600001 -197.108027 
L 516.6 -194.592683 
L 516.6 -192.077338 
L 516.6 -189.561994 
L 516.6 -187.046649 
L 516.6 -184.531305 
L 516.6 -182.01596 
L 516.6 -179.500615 
L 516.6 -176.985271 
L 516.6 -174.469926 
L 516.6 -171.954582 
L 516.6 -169.439237 
L 516.6 -166.923893 
L 516.6 -164.408548 
L 516.6 -161.893203 
L 516.6 -159.377859 
L 516.6 -156.862514 
L 516.6 -154.34717 
L 516.6 -151.831825 
L 516.6 -149.316481 
L 516.6 -146.801136 
L 516.6 -144.285792 
L 516.6 -141.770447 
L 516.6 -139.255102 
L 516.6 -136.739758 
L 516.6 -134.224413 
L 516.6 -131.709069 
L 516.6 -129.193724 
L 516.6 -126.67838 
L 516.6 -124.163035 
L 516.6 -121.64769 
L 516.6 -119.132346 
L 516.6 -116.617001 
L 516.6 -114.101657 
L 516.6 -111.586312 
L 516.6 -109.070968 
L 516.6 -106.555623 
L 516.6 -104.040278 
L 516.6 -101.524934 
L 516.6 -99.009589 
L 516.6 -96.494245 
L 516.6 -93.9789 
L 516.6 -91.463556 
L 516.6 -88.948211 
L 516.6 -86.432867 
L 516.6 -83.917522 
L 516.6 -81.402177 
L 516.600076 -78.886833 
L 516.603529 -76.371488 
L 516.625067 -73.856144 
L 516.627125 -71.340799 
L 516.604472 -68.825455 
z
" style="stroke: #484848; stroke-opacity: 0.5; stroke-width: 1.25"/>
    </defs>
    <g clip-path="url(#p8d91fc628f)">
     <use xlink:href="#m27b64fb673" x="0" y="432" style="fill: #477ca8; fill-opacity: 0.5; stroke: #484848; stroke-opacity: 0.5; stroke-width: 1.25"/>
    </g>
   </g>
   <g id="PolyCollection_3">
    <defs>
     <path id="m9cba97b5d6" d="M 777.002577 -244.630806 
L 776.997423 -244.630806 
L 776.991088 -245.850036 
L 776.98042 -247.069265 
L 776.97122 -248.288495 
L 776.970302 -249.507725 
L 776.978377 -250.726954 
L 776.989359 -251.946184 
L 776.996645 -253.165414 
L 776.999348 -254.384644 
L 776.999923 -255.603873 
L 776.999995 -256.823103 
L 776.999999 -258.042333 
L 776.999992 -259.261562 
L 776.999885 -260.480792 
L 776.998975 -261.700022 
L 776.994563 -262.919251 
L 776.982741 -264.138481 
L 776.966504 -265.357711 
L 776.957018 -266.57694 
L 776.95482 -267.79617 
L 776.949497 -269.0154 
L 776.936805 -270.23463 
L 776.914771 -271.453859 
L 776.89345 -272.673089 
L 776.892651 -273.892319 
L 776.906093 -275.111548 
L 776.910708 -276.330778 
L 776.898566 -277.550008 
L 776.883313 -278.769237 
L 776.885391 -279.988467 
L 776.903277 -281.207697 
L 776.912536 -282.426926 
L 776.888449 -283.646156 
L 776.828302 -284.865386 
L 776.76745 -286.084615 
L 776.740449 -287.303845 
L 776.725015 -288.523075 
L 776.681368 -289.742305 
L 776.616677 -290.961534 
L 776.566199 -292.180764 
L 776.557373 -293.399994 
L 776.590883 -294.619223 
L 776.621214 -295.838453 
L 776.605394 -297.057683 
L 776.550271 -298.276912 
L 776.468556 -299.496142 
L 776.366499 -300.715372 
L 776.271771 -301.934601 
L 776.196719 -303.153831 
L 776.096071 -304.373061 
L 775.917178 -305.592291 
L 775.678908 -306.81152 
L 775.432183 -308.03075 
L 775.190736 -309.24998 
L 774.979856 -310.469209 
L 774.806468 -311.688439 
L 774.603558 -312.907669 
L 774.354991 -314.126898 
L 774.090515 -315.346128 
L 773.793254 -316.565358 
L 773.460286 -317.784587 
L 773.089374 -319.003817 
L 772.634998 -320.223047 
L 772.097642 -321.442277 
L 771.527573 -322.661506 
L 770.872923 -323.880736 
L 770.041295 -325.099966 
L 769.125476 -326.319195 
L 768.286256 -327.538425 
L 767.514284 -328.757655 
L 766.731396 -329.976884 
L 765.877159 -331.196114 
L 764.839018 -332.415344 
L 763.578124 -333.634573 
L 762.163378 -334.853803 
L 760.578418 -336.073033 
L 758.860914 -337.292263 
L 757.229242 -338.511492 
L 755.797014 -339.730722 
L 754.426566 -340.949952 
L 752.971478 -342.169181 
L 751.395264 -343.388411 
L 749.582049 -344.607641 
L 747.228953 -345.82687 
L 743.899823 -347.0461 
L 739.06175 -348.26533 
L 732.153776 -349.484559 
L 723.352663 -350.703789 
L 715.080009 -351.923019 
L 711.584986 -353.142249 
L 714.775568 -354.361478 
L 719.972178 -355.580708 
L 718.074776 -356.799938 
L 704.162808 -358.019167 
L 683.85831 -359.238397 
L 672.84 -360.457627 
L 686.196582 -361.676856 
L 720.216834 -362.896086 
L 753.082977 -364.115316 
L 770.515386 -365.334545 
L 783.484614 -365.334545 
L 783.484614 -365.334545 
L 800.917023 -364.115316 
L 833.783166 -362.896086 
L 867.803418 -361.676856 
L 881.16 -360.457627 
L 870.14169 -359.238397 
L 849.837192 -358.019167 
L 835.925224 -356.799938 
L 834.027822 -355.580708 
L 839.224432 -354.361478 
L 842.415014 -353.142249 
L 838.919991 -351.923019 
L 830.647337 -350.703789 
L 821.846224 -349.484559 
L 814.93825 -348.26533 
L 810.100177 -347.0461 
L 806.771047 -345.82687 
L 804.417951 -344.607641 
L 802.604736 -343.388411 
L 801.028522 -342.169181 
L 799.573434 -340.949952 
L 798.202986 -339.730722 
L 796.770758 -338.511492 
L 795.139086 -337.292263 
L 793.421582 -336.073033 
L 791.836622 -334.853803 
L 790.421876 -333.634573 
L 789.160982 -332.415344 
L 788.122841 -331.196114 
L 787.268604 -329.976884 
L 786.485716 -328.757655 
L 785.713744 -327.538425 
L 784.874524 -326.319195 
L 783.958705 -325.099966 
L 783.127077 -323.880736 
L 782.472427 -322.661506 
L 781.902358 -321.442277 
L 781.365002 -320.223047 
L 780.910626 -319.003817 
L 780.539714 -317.784587 
L 780.206746 -316.565358 
L 779.909485 -315.346128 
L 779.645009 -314.126898 
L 779.396442 -312.907669 
L 779.193532 -311.688439 
L 779.020144 -310.469209 
L 778.809264 -309.24998 
L 778.567817 -308.03075 
L 778.321092 -306.81152 
L 778.082822 -305.592291 
L 777.903929 -304.373061 
L 777.803281 -303.153831 
L 777.728229 -301.934601 
L 777.633501 -300.715372 
L 777.531444 -299.496142 
L 777.449729 -298.276912 
L 777.394606 -297.057683 
L 777.378786 -295.838453 
L 777.409117 -294.619223 
L 777.442627 -293.399994 
L 777.433801 -292.180764 
L 777.383323 -290.961534 
L 777.318632 -289.742305 
L 777.274985 -288.523075 
L 777.259551 -287.303845 
L 777.23255 -286.084615 
L 777.171698 -284.865386 
L 777.111551 -283.646156 
L 777.087464 -282.426926 
L 777.096723 -281.207697 
L 777.114609 -279.988467 
L 777.116687 -278.769237 
L 777.101434 -277.550008 
L 777.089292 -276.330778 
L 777.093907 -275.111548 
L 777.107349 -273.892319 
L 777.10655 -272.673089 
L 777.085229 -271.453859 
L 777.063195 -270.23463 
L 777.050503 -269.0154 
L 777.04518 -267.79617 
L 777.042982 -266.57694 
L 777.033496 -265.357711 
L 777.017259 -264.138481 
L 777.005437 -262.919251 
L 777.001025 -261.700022 
L 777.000115 -260.480792 
L 777.000008 -259.261562 
L 777.000001 -258.042333 
L 777.000005 -256.823103 
L 777.000077 -255.603873 
L 777.000652 -254.384644 
L 777.003355 -253.165414 
L 777.010641 -251.946184 
L 777.021623 -250.726954 
L 777.029698 -249.507725 
L 777.02878 -248.288495 
L 777.01958 -247.069265 
L 777.008912 -245.850036 
L 777.002577 -244.630806 
z
" style="stroke: #484848; stroke-opacity: 0.5; stroke-width: 1.25"/>
    </defs>
    <g clip-path="url(#p8d91fc628f)">
     <use xlink:href="#m9cba97b5d6" x="0" y="432" style="fill: #cb3335; fill-opacity: 0.5; stroke: #484848; stroke-opacity: 0.5; stroke-width: 1.25"/>
    </g>
   </g>
   <g id="matplotlib.axis_1">
    <g id="xtick_1">
     <g id="line2d_1">
      <defs>
       <path id="m4e63d9e9d1" d="M 0 0 
L 0 3.5 
" style="stroke: #000000; stroke-width: 0.8"/>
      </defs>
      <g>
       <use xlink:href="#m4e63d9e9d1" x="256.2" y="378" style="stroke: #000000; stroke-width: 0.8"/>
      </g>
     </g>
     <g id="text_1">
      <!-- BRO -->
      <g transform="translate(236.686875 398.677188) scale(0.18 -0.18)">
       <defs>
        <path id="DejaVuSans-42" d="M 1259 2228 
L 1259 519 
L 2272 519 
Q 2781 519 3026 730 
Q 3272 941 3272 1375 
Q 3272 1813 3026 2020 
Q 2781 2228 2272 2228 
L 1259 2228 
z
M 1259 4147 
L 1259 2741 
L 2194 2741 
Q 2656 2741 2882 2914 
Q 3109 3088 3109 3444 
Q 3109 3797 2882 3972 
Q 2656 4147 2194 4147 
L 1259 4147 
z
M 628 4666 
L 2241 4666 
Q 2963 4666 3353 4366 
Q 3744 4066 3744 3513 
Q 3744 3084 3544 2831 
Q 3344 2578 2956 2516 
Q 3422 2416 3680 2098 
Q 3938 1781 3938 1306 
Q 3938 681 3513 340 
Q 3088 0 2303 0 
L 628 0 
L 628 4666 
z
" transform="scale(0.015625)"/>
        <path id="DejaVuSans-52" d="M 2841 2188 
Q 3044 2119 3236 1894 
Q 3428 1669 3622 1275 
L 4263 0 
L 3584 0 
L 2988 1197 
Q 2756 1666 2539 1819 
Q 2322 1972 1947 1972 
L 1259 1972 
L 1259 0 
L 628 0 
L 628 4666 
L 2053 4666 
Q 2853 4666 3247 4331 
Q 3641 3997 3641 3322 
Q 3641 2881 3436 2590 
Q 3231 2300 2841 2188 
z
M 1259 4147 
L 1259 2491 
L 2053 2491 
Q 2509 2491 2742 2702 
Q 2975 2913 2975 3322 
Q 2975 3731 2742 3939 
Q 2509 4147 2053 4147 
L 1259 4147 
z
" transform="scale(0.015625)"/>
        <path id="DejaVuSans-4f" d="M 2522 4238 
Q 1834 4238 1429 3725 
Q 1025 3213 1025 2328 
Q 1025 1447 1429 934 
Q 1834 422 2522 422 
Q 3209 422 3611 934 
Q 4013 1447 4013 2328 
Q 4013 3213 3611 3725 
Q 3209 4238 2522 4238 
z
M 2522 4750 
Q 3503 4750 4090 4092 
Q 4678 3434 4678 2328 
Q 4678 1225 4090 567 
Q 3503 -91 2522 -91 
Q 1538 -91 948 565 
Q 359 1222 359 2328 
Q 359 3434 948 4092 
Q 1538 4750 2522 4750 
z
" transform="scale(0.015625)"/>
       </defs>
       <use xlink:href="#DejaVuSans-42"/>
       <use xlink:href="#DejaVuSans-52" x="68.603516"/>
       <use xlink:href="#DejaVuSans-4f" x="138.085938"/>
      </g>
     </g>
    </g>
    <g id="xtick_2">
     <g id="line2d_2">
      <g>
       <use xlink:href="#m4e63d9e9d1" x="516.6" y="378" style="stroke: #000000; stroke-width: 0.8"/>
      </g>
     </g>
     <g id="text_2">
      <!-- NEU -->
      <g transform="translate(497.593125 398.677188) scale(0.18 -0.18)">
       <defs>
        <path id="DejaVuSans-4e" d="M 628 4666 
L 1478 4666 
L 3547 763 
L 3547 4666 
L 4159 4666 
L 4159 0 
L 3309 0 
L 1241 3903 
L 1241 0 
L 628 0 
L 628 4666 
z
" transform="scale(0.015625)"/>
        <path id="DejaVuSans-45" d="M 628 4666 
L 3578 4666 
L 3578 4134 
L 1259 4134 
L 1259 2753 
L 3481 2753 
L 3481 2222 
L 1259 2222 
L 1259 531 
L 3634 531 
L 3634 0 
L 628 0 
L 628 4666 
z
" transform="scale(0.015625)"/>
        <path id="DejaVuSans-55" d="M 556 4666 
L 1191 4666 
L 1191 1831 
Q 1191 1081 1462 751 
Q 1734 422 2344 422 
Q 2950 422 3222 751 
Q 3494 1081 3494 1831 
L 3494 4666 
L 4128 4666 
L 4128 1753 
Q 4128 841 3676 375 
Q 3225 -91 2344 -91 
Q 1459 -91 1007 375 
Q 556 841 556 1753 
L 556 4666 
z
" transform="scale(0.015625)"/>
       </defs>
       <use xlink:href="#DejaVuSans-4e"/>
       <use xlink:href="#DejaVuSans-45" x="74.804688"/>
       <use xlink:href="#DejaVuSans-55" x="137.988281"/>
      </g>
     </g>
    </g>
    <g id="xtick_3">
     <g id="line2d_3">
      <g>
       <use xlink:href="#m4e63d9e9d1" x="777" y="378" style="stroke: #000000; stroke-width: 0.8"/>
      </g>
     </g>
     <g id="text_3">
      <!-- NON -->
      <g transform="translate(756.449062 398.677188) scale(0.18 -0.18)">
       <use xlink:href="#DejaVuSans-4e"/>
       <use xlink:href="#DejaVuSans-4f" x="74.804688"/>
       <use xlink:href="#DejaVuSans-4e" x="153.515625"/>
      </g>
     </g>
    </g>
   </g>
   <g id="matplotlib.axis_2">
    <g id="ytick_1">
     <g id="line2d_4">
      <defs>
       <path id="ma0a80dda9a" d="M 0 0 
L -3.5 0 
" style="stroke: #000000; stroke-width: 0.8"/>
      </defs>
      <g>
       <use xlink:href="#ma0a80dda9a" x="126" y="324.517223" style="stroke: #000000; stroke-width: 0.8"/>
      </g>
     </g>
     <g id="text_4">
      <!-- 20 -->
      <g transform="translate(96.095 331.355817) scale(0.18 -0.18)">
       <defs>
        <path id="DejaVuSans-32" d="M 1228 531 
L 3431 531 
L 3431 0 
L 469 0 
L 469 531 
Q 828 903 1448 1529 
Q 2069 2156 2228 2338 
Q 2531 2678 2651 2914 
Q 2772 3150 2772 3378 
Q 2772 3750 2511 3984 
Q 2250 4219 1831 4219 
Q 1534 4219 1204 4116 
Q 875 4013 500 3803 
L 500 4441 
Q 881 4594 1212 4672 
Q 1544 4750 1819 4750 
Q 2544 4750 2975 4387 
Q 3406 4025 3406 3419 
Q 3406 3131 3298 2873 
Q 3191 2616 2906 2266 
Q 2828 2175 2409 1742 
Q 1991 1309 1228 531 
z
" transform="scale(0.015625)"/>
        <path id="DejaVuSans-30" d="M 2034 4250 
Q 1547 4250 1301 3770 
Q 1056 3291 1056 2328 
Q 1056 1369 1301 889 
Q 1547 409 2034 409 
Q 2525 409 2770 889 
Q 3016 1369 3016 2328 
Q 3016 3291 2770 3770 
Q 2525 4250 2034 4250 
z
M 2034 4750 
Q 2819 4750 3233 4129 
Q 3647 3509 3647 2328 
Q 3647 1150 3233 529 
Q 2819 -91 2034 -91 
Q 1250 -91 836 529 
Q 422 1150 422 2328 
Q 422 3509 836 4129 
Q 1250 4750 2034 4750 
z
" transform="scale(0.015625)"/>
       </defs>
       <use xlink:href="#DejaVuSans-32"/>
       <use xlink:href="#DejaVuSans-30" x="63.623047"/>
      </g>
     </g>
    </g>
    <g id="ytick_2">
     <g id="line2d_5">
      <g>
       <use xlink:href="#ma0a80dda9a" x="126" y="260.899414" style="stroke: #000000; stroke-width: 0.8"/>
      </g>
     </g>
     <g id="text_5">
      <!-- 40 -->
      <g transform="translate(96.095 267.738008) scale(0.18 -0.18)">
       <defs>
        <path id="DejaVuSans-34" d="M 2419 4116 
L 825 1625 
L 2419 1625 
L 2419 4116 
z
M 2253 4666 
L 3047 4666 
L 3047 1625 
L 3713 1625 
L 3713 1100 
L 3047 1100 
L 3047 0 
L 2419 0 
L 2419 1100 
L 313 1100 
L 313 1709 
L 2253 4666 
z
" transform="scale(0.015625)"/>
       </defs>
       <use xlink:href="#DejaVuSans-34"/>
       <use xlink:href="#DejaVuSans-30" x="63.623047"/>
      </g>
     </g>
    </g>
    <g id="ytick_3">
     <g id="line2d_6">
      <g>
       <use xlink:href="#ma0a80dda9a" x="126" y="197.281604" style="stroke: #000000; stroke-width: 0.8"/>
      </g>
     </g>
     <g id="text_6">
      <!-- 60 -->
      <g transform="translate(96.095 204.120198) scale(0.18 -0.18)">
       <defs>
        <path id="DejaVuSans-36" d="M 2113 2584 
Q 1688 2584 1439 2293 
Q 1191 2003 1191 1497 
Q 1191 994 1439 701 
Q 1688 409 2113 409 
Q 2538 409 2786 701 
Q 3034 994 3034 1497 
Q 3034 2003 2786 2293 
Q 2538 2584 2113 2584 
z
M 3366 4563 
L 3366 3988 
Q 3128 4100 2886 4159 
Q 2644 4219 2406 4219 
Q 1781 4219 1451 3797 
Q 1122 3375 1075 2522 
Q 1259 2794 1537 2939 
Q 1816 3084 2150 3084 
Q 2853 3084 3261 2657 
Q 3669 2231 3669 1497 
Q 3669 778 3244 343 
Q 2819 -91 2113 -91 
Q 1303 -91 875 529 
Q 447 1150 447 2328 
Q 447 3434 972 4092 
Q 1497 4750 2381 4750 
Q 2619 4750 2861 4703 
Q 3103 4656 3366 4563 
z
" transform="scale(0.015625)"/>
       </defs>
       <use xlink:href="#DejaVuSans-36"/>
       <use xlink:href="#DejaVuSans-30" x="63.623047"/>
      </g>
     </g>
    </g>
    <g id="ytick_4">
     <g id="line2d_7">
      <g>
       <use xlink:href="#ma0a80dda9a" x="126" y="133.663795" style="stroke: #000000; stroke-width: 0.8"/>
      </g>
     </g>
     <g id="text_7">
      <!-- 80 -->
      <g transform="translate(96.095 140.502389) scale(0.18 -0.18)">
       <defs>
        <path id="DejaVuSans-38" d="M 2034 2216 
Q 1584 2216 1326 1975 
Q 1069 1734 1069 1313 
Q 1069 891 1326 650 
Q 1584 409 2034 409 
Q 2484 409 2743 651 
Q 3003 894 3003 1313 
Q 3003 1734 2745 1975 
Q 2488 2216 2034 2216 
z
M 1403 2484 
Q 997 2584 770 2862 
Q 544 3141 544 3541 
Q 544 4100 942 4425 
Q 1341 4750 2034 4750 
Q 2731 4750 3128 4425 
Q 3525 4100 3525 3541 
Q 3525 3141 3298 2862 
Q 3072 2584 2669 2484 
Q 3125 2378 3379 2068 
Q 3634 1759 3634 1313 
Q 3634 634 3220 271 
Q 2806 -91 2034 -91 
Q 1263 -91 848 271 
Q 434 634 434 1313 
Q 434 1759 690 2068 
Q 947 2378 1403 2484 
z
M 1172 3481 
Q 1172 3119 1398 2916 
Q 1625 2713 2034 2713 
Q 2441 2713 2670 2916 
Q 2900 3119 2900 3481 
Q 2900 3844 2670 4047 
Q 2441 4250 2034 4250 
Q 1625 4250 1398 4047 
Q 1172 3844 1172 3481 
z
" transform="scale(0.015625)"/>
       </defs>
       <use xlink:href="#DejaVuSans-38"/>
       <use xlink:href="#DejaVuSans-30" x="63.623047"/>
      </g>
     </g>
    </g>
    <g id="ytick_5">
     <g id="line2d_8">
      <g>
       <use xlink:href="#ma0a80dda9a" x="126" y="70.045985" style="stroke: #000000; stroke-width: 0.8"/>
      </g>
     </g>
     <g id="text_8">
      <!-- 100 -->
      <g transform="translate(84.6425 76.884579) scale(0.18 -0.18)">
       <defs>
        <path id="DejaVuSans-31" d="M 794 531 
L 1825 531 
L 1825 4091 
L 703 3866 
L 703 4441 
L 1819 4666 
L 2450 4666 
L 2450 531 
L 3481 531 
L 3481 0 
L 794 0 
L 794 531 
z
" transform="scale(0.015625)"/>
       </defs>
       <use xlink:href="#DejaVuSans-31"/>
       <use xlink:href="#DejaVuSans-30" x="63.623047"/>
       <use xlink:href="#DejaVuSans-30" x="127.246094"/>
      </g>
     </g>
    </g>
    <g id="text_9">
     <!-- v_identity -->
     <g transform="translate(76.398438 259.086094) rotate(-90) scale(0.18 -0.18)">
      <defs>
       <path id="DejaVuSans-76" d="M 191 3500 
L 800 3500 
L 1894 563 
L 2988 3500 
L 3597 3500 
L 2284 0 
L 1503 0 
L 191 3500 
z
" transform="scale(0.015625)"/>
       <path id="DejaVuSans-5f" d="M 3263 -1063 
L 3263 -1509 
L -63 -1509 
L -63 -1063 
L 3263 -1063 
z
" transform="scale(0.015625)"/>
       <path id="DejaVuSans-69" d="M 603 3500 
L 1178 3500 
L 1178 0 
L 603 0 
L 603 3500 
z
M 603 4863 
L 1178 4863 
L 1178 4134 
L 603 4134 
L 603 4863 
z
" transform="scale(0.015625)"/>
       <path id="DejaVuSans-64" d="M 2906 2969 
L 2906 4863 
L 3481 4863 
L 3481 0 
L 2906 0 
L 2906 525 
Q 2725 213 2448 61 
Q 2172 -91 1784 -91 
Q 1150 -91 751 415 
Q 353 922 353 1747 
Q 353 2572 751 3078 
Q 1150 3584 1784 3584 
Q 2172 3584 2448 3432 
Q 2725 3281 2906 2969 
z
M 947 1747 
Q 947 1113 1208 752 
Q 1469 391 1925 391 
Q 2381 391 2643 752 
Q 2906 1113 2906 1747 
Q 2906 2381 2643 2742 
Q 2381 3103 1925 3103 
Q 1469 3103 1208 2742 
Q 947 2381 947 1747 
z
" transform="scale(0.015625)"/>
       <path id="DejaVuSans-65" d="M 3597 1894 
L 3597 1613 
L 953 1613 
Q 991 1019 1311 708 
Q 1631 397 2203 397 
Q 2534 397 2845 478 
Q 3156 559 3463 722 
L 3463 178 
Q 3153 47 2828 -22 
Q 2503 -91 2169 -91 
Q 1331 -91 842 396 
Q 353 884 353 1716 
Q 353 2575 817 3079 
Q 1281 3584 2069 3584 
Q 2775 3584 3186 3129 
Q 3597 2675 3597 1894 
z
M 3022 2063 
Q 3016 2534 2758 2815 
Q 2500 3097 2075 3097 
Q 1594 3097 1305 2825 
Q 1016 2553 972 2059 
L 3022 2063 
z
" transform="scale(0.015625)"/>
       <path id="DejaVuSans-6e" d="M 3513 2113 
L 3513 0 
L 2938 0 
L 2938 2094 
Q 2938 2591 2744 2837 
Q 2550 3084 2163 3084 
Q 1697 3084 1428 2787 
Q 1159 2491 1159 1978 
L 1159 0 
L 581 0 
L 581 3500 
L 1159 3500 
L 1159 2956 
Q 1366 3272 1645 3428 
Q 1925 3584 2291 3584 
Q 2894 3584 3203 3211 
Q 3513 2838 3513 2113 
z
" transform="scale(0.015625)"/>
       <path id="DejaVuSans-74" d="M 1172 4494 
L 1172 3500 
L 2356 3500 
L 2356 3053 
L 1172 3053 
L 1172 1153 
Q 1172 725 1289 603 
Q 1406 481 1766 481 
L 2356 481 
L 2356 0 
L 1766 0 
Q 1100 0 847 248 
Q 594 497 594 1153 
L 594 3053 
L 172 3053 
L 172 3500 
L 594 3500 
L 594 4494 
L 1172 4494 
z
" transform="scale(0.015625)"/>
       <path id="DejaVuSans-79" d="M 2059 -325 
Q 1816 -950 1584 -1140 
Q 1353 -1331 966 -1331 
L 506 -1331 
L 506 -850 
L 844 -850 
Q 1081 -850 1212 -737 
Q 1344 -625 1503 -206 
L 1606 56 
L 191 3500 
L 800 3500 
L 1894 763 
L 2988 3500 
L 3597 3500 
L 2059 -325 
z
" transform="scale(0.015625)"/>
      </defs>
      <use xlink:href="#DejaVuSans-76"/>
      <use xlink:href="#DejaVuSans-5f" x="59.179688"/>
      <use xlink:href="#DejaVuSans-69" x="109.179688"/>
      <use xlink:href="#DejaVuSans-64" x="136.962891"/>
      <use xlink:href="#DejaVuSans-65" x="200.439453"/>
      <use xlink:href="#DejaVuSans-6e" x="261.962891"/>
      <use xlink:href="#DejaVuSans-74" x="325.341797"/>
      <use xlink:href="#DejaVuSans-69" x="364.550781"/>
      <use xlink:href="#DejaVuSans-74" x="392.333984"/>
      <use xlink:href="#DejaVuSans-79" x="431.542969"/>
     </g>
    </g>
   </g>
   <g id="line2d_9">
    <path d="M 256.2 155.459256 
L 256.2 117.816599 
" clip-path="url(#p8d91fc628f)" style="fill: none; stroke: #484848; stroke-width: 1.875; stroke-linecap: square"/>
   </g>
   <g id="line2d_10">
    <path d="M 256.2 134.910704 
L 256.2 121.188342 
" clip-path="url(#p8d91fc628f)" style="fill: none; stroke: #484848; stroke-width: 5.625; stroke-linecap: square"/>
   </g>
   <g id="line2d_11">
    <path d="M 256.2 126.17916 
" clip-path="url(#p8d91fc628f)" style="fill: none; stroke: #484848; stroke-width: 1.5; stroke-linecap: square"/>
    <defs>
     <path id="mc12fb077b8" d="M 2.34375 0 
L -2.34375 -0 
" style="stroke: #ffffff; stroke-width: 1.125"/>
    </defs>
    <g clip-path="url(#p8d91fc628f)">
     <use xlink:href="#mc12fb077b8" x="256.2" y="126.17916" style="fill: #ffffff; stroke: #ffffff; stroke-width: 1.125"/>
    </g>
   </g>
   <g id="line2d_12">
    <path d="M 516.6 153.754299 
L 516.6 117.82296 
" clip-path="url(#p8d91fc628f)" style="fill: none; stroke: #484848; stroke-width: 1.875; stroke-linecap: square"/>
   </g>
   <g id="line2d_13">
    <path d="M 516.6 134.1123 
L 516.6 120.991127 
" clip-path="url(#p8d91fc628f)" style="fill: none; stroke: #484848; stroke-width: 5.625; stroke-linecap: square"/>
   </g>
   <g id="line2d_14">
    <path d="M 516.6 125.422108 
" clip-path="url(#p8d91fc628f)" style="fill: none; stroke: #484848; stroke-width: 1.5; stroke-linecap: square"/>
    <g clip-path="url(#p8d91fc628f)">
     <use xlink:href="#mc12fb077b8" x="516.6" y="125.422108" style="fill: #ffffff; stroke: #ffffff; stroke-width: 1.125"/>
    </g>
   </g>
   <g id="line2d_15">
    <path d="M 777 109.298174 
L 777 70.045985 
" clip-path="url(#p8d91fc628f)" style="fill: none; stroke: #484848; stroke-width: 1.875; stroke-linecap: square"/>
   </g>
   <g id="line2d_16">
    <path d="M 777 87.238698 
L 777 72.530261 
" clip-path="url(#p8d91fc628f)" style="fill: none; stroke: #484848; stroke-width: 5.625; stroke-linecap: square"/>
   </g>
   <g id="line2d_17">
    <path d="M 777 78.77753 
" clip-path="url(#p8d91fc628f)" style="fill: none; stroke: #484848; stroke-width: 1.5; stroke-linecap: square"/>
    <g clip-path="url(#p8d91fc628f)">
     <use xlink:href="#mc12fb077b8" x="777" y="78.77753" style="fill: #ffffff; stroke: #ffffff; stroke-width: 1.125"/>
    </g>
   </g>
   <g id="patch_3">
    <path d="M 126 378 
L 126 51.84 
" style="fill: none; stroke: #000000; stroke-width: 0.8; stroke-linejoin: miter; stroke-linecap: square"/>
   </g>
   <g id="patch_4">
    <path d="M 907.2 378 
L 907.2 51.84 
" style="fill: none; stroke: #000000; stroke-width: 0.8; stroke-linejoin: miter; stroke-linecap: square"/>
   </g>
   <g id="patch_5">
    <path d="M 126 378 
L 907.2 378 
" style="fill: none; stroke: #000000; stroke-width: 0.8; stroke-linejoin: miter; stroke-linecap: square"/>
   </g>
   <g id="patch_6">
    <path d="M 126 51.84 
L 907.2 51.84 
" style="fill: none; stroke: #000000; stroke-width: 0.8; stroke-linejoin: miter; stroke-linecap: square"/>
   </g>
   <g id="text_10">
    <g id="patch_7">
     <path d="M 149.453281 257.684475 
L 232.746719 257.684475 
L 232.746719 236.0151 
L 149.453281 236.0151 
z
" style="fill: #ffffff; opacity: 0.7; stroke: #000000; stroke-linejoin: miter"/>
    </g>
    <!-- Avg: 81.20 -->
    <g transform="translate(153.513281 250.712912) scale(0.14 -0.14)">
     <defs>
      <path id="DejaVuSans-41" d="M 2188 4044 
L 1331 1722 
L 3047 1722 
L 2188 4044 
z
M 1831 4666 
L 2547 4666 
L 4325 0 
L 3669 0 
L 3244 1197 
L 1141 1197 
L 716 0 
L 50 0 
L 1831 4666 
z
" transform="scale(0.015625)"/>
      <path id="DejaVuSans-67" d="M 2906 1791 
Q 2906 2416 2648 2759 
Q 2391 3103 1925 3103 
Q 1463 3103 1205 2759 
Q 947 2416 947 1791 
Q 947 1169 1205 825 
Q 1463 481 1925 481 
Q 2391 481 2648 825 
Q 2906 1169 2906 1791 
z
M 3481 434 
Q 3481 -459 3084 -895 
Q 2688 -1331 1869 -1331 
Q 1566 -1331 1297 -1286 
Q 1028 -1241 775 -1147 
L 775 -588 
Q 1028 -725 1275 -790 
Q 1522 -856 1778 -856 
Q 2344 -856 2625 -561 
Q 2906 -266 2906 331 
L 2906 616 
Q 2728 306 2450 153 
Q 2172 0 1784 0 
Q 1141 0 747 490 
Q 353 981 353 1791 
Q 353 2603 747 3093 
Q 1141 3584 1784 3584 
Q 2172 3584 2450 3431 
Q 2728 3278 2906 2969 
L 2906 3500 
L 3481 3500 
L 3481 434 
z
" transform="scale(0.015625)"/>
      <path id="DejaVuSans-3a" d="M 750 794 
L 1409 794 
L 1409 0 
L 750 0 
L 750 794 
z
M 750 3309 
L 1409 3309 
L 1409 2516 
L 750 2516 
L 750 3309 
z
" transform="scale(0.015625)"/>
      <path id="DejaVuSans-20" transform="scale(0.015625)"/>
      <path id="DejaVuSans-2e" d="M 684 794 
L 1344 794 
L 1344 0 
L 684 0 
L 684 794 
z
" transform="scale(0.015625)"/>
     </defs>
     <use xlink:href="#DejaVuSans-41"/>
     <use xlink:href="#DejaVuSans-76" x="62.533203"/>
     <use xlink:href="#DejaVuSans-67" x="121.712891"/>
     <use xlink:href="#DejaVuSans-3a" x="185.189453"/>
     <use xlink:href="#DejaVuSans-20" x="218.880859"/>
     <use xlink:href="#DejaVuSans-38" x="250.667969"/>
     <use xlink:href="#DejaVuSans-31" x="314.291016"/>
     <use xlink:href="#DejaVuSans-2e" x="377.914062"/>
     <use xlink:href="#DejaVuSans-32" x="409.701172"/>
     <use xlink:href="#DejaVuSans-30" x="473.324219"/>
    </g>
   </g>
   <g id="text_11">
    <g id="patch_8">
     <path d="M 136.05375 232.237351 
L 246.14625 232.237351 
L 246.14625 210.567976 
L 136.05375 210.567976 
z
" style="fill: #ffffff; opacity: 0.7; stroke: #000000; stroke-linejoin: miter"/>
    </g>
    <!-- # seqs: 10865 -->
    <g transform="translate(140.11375 225.265789) scale(0.14 -0.14)">
     <defs>
      <path id="DejaVuSans-23" d="M 3272 2816 
L 2363 2816 
L 2100 1772 
L 3016 1772 
L 3272 2816 
z
M 2803 4594 
L 2478 3297 
L 3391 3297 
L 3719 4594 
L 4219 4594 
L 3897 3297 
L 4872 3297 
L 4872 2816 
L 3775 2816 
L 3519 1772 
L 4513 1772 
L 4513 1294 
L 3397 1294 
L 3072 0 
L 2572 0 
L 2894 1294 
L 1978 1294 
L 1656 0 
L 1153 0 
L 1478 1294 
L 494 1294 
L 494 1772 
L 1594 1772 
L 1856 2816 
L 850 2816 
L 850 3297 
L 1978 3297 
L 2297 4594 
L 2803 4594 
z
" transform="scale(0.015625)"/>
      <path id="DejaVuSans-73" d="M 2834 3397 
L 2834 2853 
Q 2591 2978 2328 3040 
Q 2066 3103 1784 3103 
Q 1356 3103 1142 2972 
Q 928 2841 928 2578 
Q 928 2378 1081 2264 
Q 1234 2150 1697 2047 
L 1894 2003 
Q 2506 1872 2764 1633 
Q 3022 1394 3022 966 
Q 3022 478 2636 193 
Q 2250 -91 1575 -91 
Q 1294 -91 989 -36 
Q 684 19 347 128 
L 347 722 
Q 666 556 975 473 
Q 1284 391 1588 391 
Q 1994 391 2212 530 
Q 2431 669 2431 922 
Q 2431 1156 2273 1281 
Q 2116 1406 1581 1522 
L 1381 1569 
Q 847 1681 609 1914 
Q 372 2147 372 2553 
Q 372 3047 722 3315 
Q 1072 3584 1716 3584 
Q 2034 3584 2315 3537 
Q 2597 3491 2834 3397 
z
" transform="scale(0.015625)"/>
      <path id="DejaVuSans-71" d="M 947 1747 
Q 947 1113 1208 752 
Q 1469 391 1925 391 
Q 2381 391 2643 752 
Q 2906 1113 2906 1747 
Q 2906 2381 2643 2742 
Q 2381 3103 1925 3103 
Q 1469 3103 1208 2742 
Q 947 2381 947 1747 
z
M 2906 525 
Q 2725 213 2448 61 
Q 2172 -91 1784 -91 
Q 1150 -91 751 415 
Q 353 922 353 1747 
Q 353 2572 751 3078 
Q 1150 3584 1784 3584 
Q 2172 3584 2448 3432 
Q 2725 3281 2906 2969 
L 2906 3500 
L 3481 3500 
L 3481 -1331 
L 2906 -1331 
L 2906 525 
z
" transform="scale(0.015625)"/>
      <path id="DejaVuSans-35" d="M 691 4666 
L 3169 4666 
L 3169 4134 
L 1269 4134 
L 1269 2991 
Q 1406 3038 1543 3061 
Q 1681 3084 1819 3084 
Q 2600 3084 3056 2656 
Q 3513 2228 3513 1497 
Q 3513 744 3044 326 
Q 2575 -91 1722 -91 
Q 1428 -91 1123 -41 
Q 819 9 494 109 
L 494 744 
Q 775 591 1075 516 
Q 1375 441 1709 441 
Q 2250 441 2565 725 
Q 2881 1009 2881 1497 
Q 2881 1984 2565 2268 
Q 2250 2553 1709 2553 
Q 1456 2553 1204 2497 
Q 953 2441 691 2322 
L 691 4666 
z
" transform="scale(0.015625)"/>
     </defs>
     <use xlink:href="#DejaVuSans-23"/>
     <use xlink:href="#DejaVuSans-20" x="83.789062"/>
     <use xlink:href="#DejaVuSans-73" x="115.576172"/>
     <use xlink:href="#DejaVuSans-65" x="167.675781"/>
     <use xlink:href="#DejaVuSans-71" x="229.199219"/>
     <use xlink:href="#DejaVuSans-73" x="292.675781"/>
     <use xlink:href="#DejaVuSans-3a" x="344.775391"/>
     <use xlink:href="#DejaVuSans-20" x="378.466797"/>
     <use xlink:href="#DejaVuSans-31" x="410.253906"/>
     <use xlink:href="#DejaVuSans-30" x="473.876953"/>
     <use xlink:href="#DejaVuSans-38" x="537.5"/>
     <use xlink:href="#DejaVuSans-36" x="601.123047"/>
     <use xlink:href="#DejaVuSans-35" x="664.746094"/>
    </g>
   </g>
   <g id="text_12">
    <g id="patch_9">
     <path d="M 409.853281 257.143365 
L 493.146719 257.143365 
L 493.146719 235.47399 
L 409.853281 235.47399 
z
" style="fill: #ffffff; opacity: 0.7; stroke: #000000; stroke-linejoin: miter"/>
    </g>
    <!-- Avg: 81.37 -->
    <g transform="translate(413.913281 250.171803) scale(0.14 -0.14)">
     <defs>
      <path id="DejaVuSans-33" d="M 2597 2516 
Q 3050 2419 3304 2112 
Q 3559 1806 3559 1356 
Q 3559 666 3084 287 
Q 2609 -91 1734 -91 
Q 1441 -91 1130 -33 
Q 819 25 488 141 
L 488 750 
Q 750 597 1062 519 
Q 1375 441 1716 441 
Q 2309 441 2620 675 
Q 2931 909 2931 1356 
Q 2931 1769 2642 2001 
Q 2353 2234 1838 2234 
L 1294 2234 
L 1294 2753 
L 1863 2753 
Q 2328 2753 2575 2939 
Q 2822 3125 2822 3475 
Q 2822 3834 2567 4026 
Q 2313 4219 1838 4219 
Q 1578 4219 1281 4162 
Q 984 4106 628 3988 
L 628 4550 
Q 988 4650 1302 4700 
Q 1616 4750 1894 4750 
Q 2613 4750 3031 4423 
Q 3450 4097 3450 3541 
Q 3450 3153 3228 2886 
Q 3006 2619 2597 2516 
z
" transform="scale(0.015625)"/>
      <path id="DejaVuSans-37" d="M 525 4666 
L 3525 4666 
L 3525 4397 
L 1831 0 
L 1172 0 
L 2766 4134 
L 525 4134 
L 525 4666 
z
" transform="scale(0.015625)"/>
     </defs>
     <use xlink:href="#DejaVuSans-41"/>
     <use xlink:href="#DejaVuSans-76" x="62.533203"/>
     <use xlink:href="#DejaVuSans-67" x="121.712891"/>
     <use xlink:href="#DejaVuSans-3a" x="185.189453"/>
     <use xlink:href="#DejaVuSans-20" x="218.880859"/>
     <use xlink:href="#DejaVuSans-38" x="250.667969"/>
     <use xlink:href="#DejaVuSans-31" x="314.291016"/>
     <use xlink:href="#DejaVuSans-2e" x="377.914062"/>
     <use xlink:href="#DejaVuSans-33" x="409.701172"/>
     <use xlink:href="#DejaVuSans-37" x="473.324219"/>
    </g>
   </g>
   <g id="text_13">
    <g id="patch_10">
     <path d="M 396.45375 231.696241 
L 506.54625 231.696241 
L 506.54625 210.026866 
L 396.45375 210.026866 
z
" style="fill: #ffffff; opacity: 0.7; stroke: #000000; stroke-linejoin: miter"/>
    </g>
    <!-- # seqs: 10855 -->
    <g transform="translate(400.51375 224.724679) scale(0.14 -0.14)">
     <use xlink:href="#DejaVuSans-23"/>
     <use xlink:href="#DejaVuSans-20" x="83.789062"/>
     <use xlink:href="#DejaVuSans-73" x="115.576172"/>
     <use xlink:href="#DejaVuSans-65" x="167.675781"/>
     <use xlink:href="#DejaVuSans-71" x="229.199219"/>
     <use xlink:href="#DejaVuSans-73" x="292.675781"/>
     <use xlink:href="#DejaVuSans-3a" x="344.775391"/>
     <use xlink:href="#DejaVuSans-20" x="378.466797"/>
     <use xlink:href="#DejaVuSans-31" x="410.253906"/>
     <use xlink:href="#DejaVuSans-30" x="473.876953"/>
     <use xlink:href="#DejaVuSans-38" x="537.5"/>
     <use xlink:href="#DejaVuSans-35" x="601.123047"/>
     <use xlink:href="#DejaVuSans-35" x="664.746094"/>
    </g>
   </g>
   <g id="text_14">
    <g id="patch_11">
     <path d="M 670.253281 209.656932 
L 753.546719 209.656932 
L 753.546719 187.987557 
L 670.253281 187.987557 
z
" style="fill: #ffffff; opacity: 0.7; stroke: #000000; stroke-linejoin: miter"/>
    </g>
    <!-- Avg: 96.30 -->
    <g transform="translate(674.313281 202.68537) scale(0.14 -0.14)">
     <defs>
      <path id="DejaVuSans-39" d="M 703 97 
L 703 672 
Q 941 559 1184 500 
Q 1428 441 1663 441 
Q 2288 441 2617 861 
Q 2947 1281 2994 2138 
Q 2813 1869 2534 1725 
Q 2256 1581 1919 1581 
Q 1219 1581 811 2004 
Q 403 2428 403 3163 
Q 403 3881 828 4315 
Q 1253 4750 1959 4750 
Q 2769 4750 3195 4129 
Q 3622 3509 3622 2328 
Q 3622 1225 3098 567 
Q 2575 -91 1691 -91 
Q 1453 -91 1209 -44 
Q 966 3 703 97 
z
M 1959 2075 
Q 2384 2075 2632 2365 
Q 2881 2656 2881 3163 
Q 2881 3666 2632 3958 
Q 2384 4250 1959 4250 
Q 1534 4250 1286 3958 
Q 1038 3666 1038 3163 
Q 1038 2656 1286 2365 
Q 1534 2075 1959 2075 
z
" transform="scale(0.015625)"/>
     </defs>
     <use xlink:href="#DejaVuSans-41"/>
     <use xlink:href="#DejaVuSans-76" x="62.533203"/>
     <use xlink:href="#DejaVuSans-67" x="121.712891"/>
     <use xlink:href="#DejaVuSans-3a" x="185.189453"/>
     <use xlink:href="#DejaVuSans-20" x="218.880859"/>
     <use xlink:href="#DejaVuSans-39" x="250.667969"/>
     <use xlink:href="#DejaVuSans-36" x="314.291016"/>
     <use xlink:href="#DejaVuSans-2e" x="377.914062"/>
     <use xlink:href="#DejaVuSans-33" x="409.701172"/>
     <use xlink:href="#DejaVuSans-30" x="473.324219"/>
    </g>
   </g>
   <g id="text_15">
    <g id="patch_12">
     <path d="M 656.85375 184.209809 
L 766.94625 184.209809 
L 766.94625 162.540434 
L 656.85375 162.540434 
z
" style="fill: #ffffff; opacity: 0.7; stroke: #000000; stroke-linejoin: miter"/>
    </g>
    <!-- # seqs: 20297 -->
    <g transform="translate(660.91375 177.238246) scale(0.14 -0.14)">
     <use xlink:href="#DejaVuSans-23"/>
     <use xlink:href="#DejaVuSans-20" x="83.789062"/>
     <use xlink:href="#DejaVuSans-73" x="115.576172"/>
     <use xlink:href="#DejaVuSans-65" x="167.675781"/>
     <use xlink:href="#DejaVuSans-71" x="229.199219"/>
     <use xlink:href="#DejaVuSans-73" x="292.675781"/>
     <use xlink:href="#DejaVuSans-3a" x="344.775391"/>
     <use xlink:href="#DejaVuSans-20" x="378.466797"/>
     <use xlink:href="#DejaVuSans-32" x="410.253906"/>
     <use xlink:href="#DejaVuSans-30" x="473.876953"/>
     <use xlink:href="#DejaVuSans-32" x="537.5"/>
     <use xlink:href="#DejaVuSans-39" x="601.123047"/>
     <use xlink:href="#DejaVuSans-37" x="664.746094"/>
    </g>
   </g>
  </g>
 </g>
 <defs>
  <clipPath id="p8d91fc628f">
   <rect x="126" y="51.84" width="781.2" height="326.16"/>
  </clipPath>
 </defs>
</svg>
