<?xml version="1.0" encoding="utf-8" standalone="no"?>
<!DOCTYPE svg PUBLIC "-//W3C//DTD SVG 1.1//EN"
  "http://www.w3.org/Graphics/SVG/1.1/DTD/svg11.dtd">
<svg xmlns:xlink="http://www.w3.org/1999/xlink" width="1008pt" height="432pt" viewBox="0 0 1008 432" xmlns="http://www.w3.org/2000/svg" version="1.1">
 <metadata>
  <rdf:RDF xmlns:dc="http://purl.org/dc/elements/1.1/" xmlns:cc="http://creativecommons.org/ns#" xmlns:rdf="http://www.w3.org/1999/02/22-rdf-syntax-ns#">
   <cc:Work>
    <dc:type rdf:resource="http://purl.org/dc/dcmitype/StillImage"/>
    <dc:date>2025-05-25T19:49:43.584008</dc:date>
    <dc:format>image/svg+xml</dc:format>
    <dc:creator>
     <cc:Agent>
      <dc:title>Matplotlib v3.7.5, https://matplotlib.org/</dc:title>
     </cc:Agent>
    </dc:creator>
   </cc:Work>
  </rdf:RDF>
 </metadata>
 <defs>
  <style type="text/css">*{stroke-linejoin: round; stroke-linecap: butt}</style>
 </defs>
 <g id="figure_1">
  <g id="patch_1">
   <path d="M 0 432 
L 1008 432 
L 1008 0 
L 0 0 
z
" style="fill: #ffffff"/>
  </g>
  <g id="axes_1">
   <g id="patch_2">
    <path d="M 126 384.48 
L 907.2 384.48 
L 907.2 51.84 
L 126 51.84 
z
" style="fill: #ffffff"/>
   </g>
   <g id="PolyCollection_1">
    <defs>
     <path id="m0229b79746" d="M 256.200178 -168.116331 
L 256.199822 -168.116331 
L 256.198703 -170.105459 
L 256.199908 -172.094586 
L 256.2 -174.083714 
L 256.2 -176.072842 
L 256.2 -178.06197 
L 256.2 -180.051098 
L 256.2 -182.040226 
L 256.2 -184.029354 
L 256.2 -186.018482 
L 256.2 -188.00761 
L 256.2 -189.996738 
L 256.2 -191.985866 
L 256.2 -193.974994 
L 256.2 -195.964122 
L 256.2 -197.95325 
L 256.2 -199.942378 
L 256.2 -201.931506 
L 256.2 -203.920634 
L 256.2 -205.909762 
L 256.2 -207.89889 
L 256.2 -209.888018 
L 256.2 -211.877146 
L 256.2 -213.866274 
L 256.2 -215.855402 
L 256.2 -217.84453 
L 256.2 -219.833658 
L 256.2 -221.822786 
L 256.2 -223.811914 
L 256.19978 -225.801042 
L 256.198733 -227.79017 
L 256.19993 -229.779298 
L 256.2 -231.768426 
L 256.199805 -233.757554 
L 256.198714 -235.746682 
L 256.199918 -237.73581 
L 256.19999 -239.724938 
L 256.198872 -241.714066 
L 256.197746 -243.703194 
L 256.197138 -245.692322 
L 256.195615 -247.68145 
L 256.193321 -249.670577 
L 256.195584 -251.659705 
L 256.194565 -253.648833 
L 256.19205 -255.637961 
L 256.187603 -257.627089 
L 256.183468 -259.616217 
L 256.183159 -261.605345 
L 256.176343 -263.594473 
L 256.179471 -265.583601 
L 256.158061 -267.572729 
L 256.145568 -269.561857 
L 256.150464 -271.550985 
L 256.12107 -273.540113 
L 256.131149 -275.529241 
L 256.125099 -277.518369 
L 256.081782 -279.507497 
L 256.07019 -281.496625 
L 256.045771 -283.485753 
L 256.012034 -285.474881 
L 255.984995 -287.464009 
L 255.937621 -289.453137 
L 255.889805 -291.442265 
L 255.818257 -293.431393 
L 255.758424 -295.420521 
L 255.706241 -297.409649 
L 255.646283 -299.398777 
L 255.541848 -301.387905 
L 255.390625 -303.377033 
L 255.232371 -305.366161 
L 255.102349 -307.355289 
L 254.912003 -309.344417 
L 254.660292 -311.333545 
L 254.244602 -313.322673 
L 253.865503 -315.311801 
L 253.382969 -317.300929 
L 252.888638 -319.290057 
L 252.209959 -321.279185 
L 251.446115 -323.268313 
L 250.374912 -325.257441 
L 249.624364 -327.246568 
L 248.625723 -329.235696 
L 247.223165 -331.224824 
L 246.033434 -333.213952 
L 244.849297 -335.20308 
L 243.531341 -337.192208 
L 241.854506 -339.181336 
L 239.862294 -341.170464 
L 237.252062 -343.159592 
L 234.847613 -345.14872 
L 231.654977 -347.137848 
L 226.629366 -349.126976 
L 218.556498 -351.116104 
L 203.167091 -353.105232 
L 189.187012 -355.09436 
L 208.04431 -357.083488 
L 202.007494 -359.072616 
L 152.04 -361.061744 
L 152.55335 -363.050872 
L 246.955592 -365.04 
L 265.444408 -365.04 
L 265.444408 -365.04 
L 359.84665 -363.050872 
L 360.36 -361.061744 
L 310.392506 -359.072616 
L 304.35569 -357.083488 
L 323.212988 -355.09436 
L 309.232909 -353.105232 
L 293.843502 -351.116104 
L 285.770634 -349.126976 
L 280.745023 -347.137848 
L 277.552387 -345.14872 
L 275.147938 -343.159592 
L 272.537706 -341.170464 
L 270.545494 -339.181336 
L 268.868659 -337.192208 
L 267.550703 -335.20308 
L 266.366566 -333.213952 
L 265.176835 -331.224824 
L 263.774277 -329.235696 
L 262.775636 -327.246568 
L 262.025088 -325.257441 
L 260.953885 -323.268313 
L 260.190041 -321.279185 
L 259.511362 -319.290057 
L 259.017031 -317.300929 
L 258.534497 -315.311801 
L 258.155398 -313.322673 
L 257.739708 -311.333545 
L 257.487997 -309.344417 
L 257.297651 -307.355289 
L 257.167629 -305.366161 
L 257.009375 -303.377033 
L 256.858152 -301.387905 
L 256.753717 -299.398777 
L 256.693759 -297.409649 
L 256.641576 -295.420521 
L 256.581743 -293.431393 
L 256.510195 -291.442265 
L 256.462379 -289.453137 
L 256.415005 -287.464009 
L 256.387966 -285.474881 
L 256.354229 -283.485753 
L 256.32981 -281.496625 
L 256.318218 -279.507497 
L 256.274901 -277.518369 
L 256.268851 -275.529241 
L 256.27893 -273.540113 
L 256.249536 -271.550985 
L 256.254432 -269.561857 
L 256.241939 -267.572729 
L 256.220529 -265.583601 
L 256.223657 -263.594473 
L 256.216841 -261.605345 
L 256.216532 -259.616217 
L 256.212397 -257.627089 
L 256.20795 -255.637961 
L 256.205435 -253.648833 
L 256.204416 -251.659705 
L 256.206679 -249.670577 
L 256.204385 -247.68145 
L 256.202862 -245.692322 
L 256.202254 -243.703194 
L 256.201128 -241.714066 
L 256.20001 -239.724938 
L 256.200082 -237.73581 
L 256.201286 -235.746682 
L 256.200195 -233.757554 
L 256.2 -231.768426 
L 256.20007 -229.779298 
L 256.201267 -227.79017 
L 256.20022 -225.801042 
L 256.2 -223.811914 
L 256.2 -221.822786 
L 256.2 -219.833658 
L 256.2 -217.84453 
L 256.2 -215.855402 
L 256.2 -213.866274 
L 256.2 -211.877146 
L 256.2 -209.888018 
L 256.2 -207.89889 
L 256.2 -205.909762 
L 256.2 -203.920634 
L 256.2 -201.931506 
L 256.2 -199.942378 
L 256.2 -197.95325 
L 256.2 -195.964122 
L 256.2 -193.974994 
L 256.2 -191.985866 
L 256.2 -189.996738 
L 256.2 -188.00761 
L 256.2 -186.018482 
L 256.2 -184.029354 
L 256.2 -182.040226 
L 256.2 -180.051098 
L 256.2 -178.06197 
L 256.2 -176.072842 
L 256.2 -174.083714 
L 256.200092 -172.094586 
L 256.201297 -170.105459 
L 256.200178 -168.116331 
z
" style="stroke: #484848; stroke-opacity: 0.5; stroke-width: 1.25"/>
    </defs>
    <g clip-path="url(#p661ec73775)">
     <use xlink:href="#m0229b79746" x="0" y="432" style="fill: #59a257; fill-opacity: 0.5; stroke: #484848; stroke-opacity: 0.5; stroke-width: 1.25"/>
    </g>
   </g>
   <g id="PolyCollection_2">
    <defs>
     <path id="m1efe5fc8e6" d="M 516.600134 -86.831104 
L 516.599866 -86.831104 
L 516.599669 -89.638935 
L 516.6 -92.446766 
L 516.6 -95.254598 
L 516.6 -98.062429 
L 516.6 -100.87026 
L 516.6 -103.678092 
L 516.6 -106.485923 
L 516.6 -109.293754 
L 516.6 -112.101586 
L 516.6 -114.909417 
L 516.6 -117.717248 
L 516.6 -120.52508 
L 516.6 -123.332911 
L 516.6 -126.140743 
L 516.6 -128.948574 
L 516.6 -131.756405 
L 516.6 -134.564237 
L 516.6 -137.372068 
L 516.6 -140.179899 
L 516.6 -142.987731 
L 516.6 -145.795562 
L 516.6 -148.603393 
L 516.6 -151.411225 
L 516.6 -154.219056 
L 516.6 -157.026887 
L 516.6 -159.834719 
L 516.6 -162.64255 
L 516.6 -165.450381 
L 516.6 -168.258213 
L 516.6 -171.066044 
L 516.6 -173.873876 
L 516.6 -176.681707 
L 516.6 -179.489538 
L 516.6 -182.29737 
L 516.6 -185.105201 
L 516.6 -187.913032 
L 516.6 -190.720864 
L 516.6 -193.528695 
L 516.6 -196.336526 
L 516.6 -199.144358 
L 516.6 -201.952189 
L 516.6 -204.76002 
L 516.6 -207.567852 
L 516.6 -210.375683 
L 516.599834 -213.183514 
L 516.59972 -215.991346 
L 516.6 -218.799177 
L 516.6 -221.607008 
L 516.6 -224.41484 
L 516.6 -227.222671 
L 516.6 -230.030503 
L 516.599995 -232.838334 
L 516.599035 -235.646165 
L 516.599999 -238.453997 
L 516.6 -241.261828 
L 516.59804 -244.069659 
L 516.594691 -246.877491 
L 516.595247 -249.685322 
L 516.597877 -252.493153 
L 516.594609 -255.300985 
L 516.593192 -258.108816 
L 516.590399 -260.916647 
L 516.588471 -263.724479 
L 516.581725 -266.53231 
L 516.576475 -269.340141 
L 516.572239 -272.147973 
L 516.558114 -274.955804 
L 516.531433 -277.763636 
L 516.517813 -280.571467 
L 516.496823 -283.379298 
L 516.48411 -286.18713 
L 516.446669 -288.994961 
L 516.432473 -291.802792 
L 516.38144 -294.610624 
L 516.283553 -297.418455 
L 516.208462 -300.226286 
L 516.105584 -303.034118 
L 515.982443 -305.841949 
L 515.821552 -308.64978 
L 515.516548 -311.457612 
L 515.072876 -314.265443 
L 514.684036 -317.073274 
L 513.962552 -319.881106 
L 512.994003 -322.688937 
L 511.821728 -325.496769 
L 510.671304 -328.3046 
L 509.09744 -331.112431 
L 507.257537 -333.920263 
L 504.804291 -336.728094 
L 502.042483 -339.535925 
L 498.618314 -342.343757 
L 494.37158 -345.151588 
L 489.254339 -347.959419 
L 480.875686 -350.767251 
L 462.999326 -353.575082 
L 463.915775 -356.382913 
L 464.645998 -359.190745 
L 412.44 -361.998576 
L 507.84886 -364.806407 
L 525.35114 -364.806407 
L 525.35114 -364.806407 
L 620.76 -361.998576 
L 568.554002 -359.190745 
L 569.284225 -356.382913 
L 570.200674 -353.575082 
L 552.324314 -350.767251 
L 543.945661 -347.959419 
L 538.82842 -345.151588 
L 534.581686 -342.343757 
L 531.157517 -339.535925 
L 528.395709 -336.728094 
L 525.942463 -333.920263 
L 524.10256 -331.112431 
L 522.528696 -328.3046 
L 521.378272 -325.496769 
L 520.205997 -322.688937 
L 519.237448 -319.881106 
L 518.515964 -317.073274 
L 518.127124 -314.265443 
L 517.683452 -311.457612 
L 517.378448 -308.64978 
L 517.217557 -305.841949 
L 517.094416 -303.034118 
L 516.991538 -300.226286 
L 516.916447 -297.418455 
L 516.81856 -294.610624 
L 516.767527 -291.802792 
L 516.753331 -288.994961 
L 516.71589 -286.18713 
L 516.703177 -283.379298 
L 516.682187 -280.571467 
L 516.668567 -277.763636 
L 516.641886 -274.955804 
L 516.627761 -272.147973 
L 516.623525 -269.340141 
L 516.618275 -266.53231 
L 516.611529 -263.724479 
L 516.609601 -260.916647 
L 516.606808 -258.108816 
L 516.605391 -255.300985 
L 516.602123 -252.493153 
L 516.604753 -249.685322 
L 516.605309 -246.877491 
L 516.60196 -244.069659 
L 516.6 -241.261828 
L 516.600001 -238.453997 
L 516.600965 -235.646165 
L 516.600005 -232.838334 
L 516.6 -230.030503 
L 516.6 -227.222671 
L 516.6 -224.41484 
L 516.6 -221.607008 
L 516.6 -218.799177 
L 516.60028 -215.991346 
L 516.600166 -213.183514 
L 516.6 -210.375683 
L 516.6 -207.567852 
L 516.6 -204.76002 
L 516.6 -201.952189 
L 516.6 -199.144358 
L 516.6 -196.336526 
L 516.6 -193.528695 
L 516.6 -190.720864 
L 516.6 -187.913032 
L 516.6 -185.105201 
L 516.6 -182.29737 
L 516.6 -179.489538 
L 516.6 -176.681707 
L 516.6 -173.873876 
L 516.6 -171.066044 
L 516.6 -168.258213 
L 516.6 -165.450381 
L 516.6 -162.64255 
L 516.6 -159.834719 
L 516.6 -157.026887 
L 516.6 -154.219056 
L 516.6 -151.411225 
L 516.6 -148.603393 
L 516.6 -145.795562 
L 516.6 -142.987731 
L 516.6 -140.179899 
L 516.6 -137.372068 
L 516.6 -134.564237 
L 516.6 -131.756405 
L 516.6 -128.948574 
L 516.6 -126.140743 
L 516.6 -123.332911 
L 516.6 -120.52508 
L 516.6 -117.717248 
L 516.6 -114.909417 
L 516.6 -112.101586 
L 516.6 -109.293754 
L 516.6 -106.485923 
L 516.6 -103.678092 
L 516.6 -100.87026 
L 516.6 -98.062429 
L 516.6 -95.254598 
L 516.6 -92.446766 
L 516.600331 -89.638935 
L 516.600134 -86.831104 
z
" style="stroke: #484848; stroke-opacity: 0.5; stroke-width: 1.25"/>
    </defs>
    <g clip-path="url(#p661ec73775)">
     <use xlink:href="#m1efe5fc8e6" x="0" y="432" style="fill: #477ca8; fill-opacity: 0.5; stroke: #484848; stroke-opacity: 0.5; stroke-width: 1.25"/>
    </g>
   </g>
   <g id="PolyCollection_3">
    <defs>
     <path id="m92517876e4" d="M 777.000136 -62.64 
L 776.999864 -62.64 
L 776.999763 -65.692564 
L 777 -68.745127 
L 777 -71.797691 
L 777 -74.850254 
L 777 -77.902818 
L 777 -80.955381 
L 777 -84.007945 
L 777 -87.060508 
L 777 -90.113072 
L 777 -93.165635 
L 777 -96.218199 
L 777 -99.270762 
L 777 -102.323326 
L 777 -105.375889 
L 777 -108.428453 
L 777 -111.481016 
L 777 -114.53358 
L 777 -117.586143 
L 777 -120.638707 
L 777 -123.69127 
L 777 -126.743834 
L 777 -129.796397 
L 777 -132.848961 
L 777 -135.901524 
L 777 -138.954088 
L 777 -142.006651 
L 777 -145.059215 
L 777 -148.111778 
L 777 -151.164342 
L 777 -154.216905 
L 777 -157.269469 
L 777 -160.322032 
L 777 -163.374596 
L 777 -166.427159 
L 777 -169.479723 
L 777 -172.532286 
L 777 -175.58485 
L 777 -178.637413 
L 777 -181.689977 
L 777 -184.74254 
L 777 -187.795104 
L 777 -190.847667 
L 777 -193.900231 
L 777 -196.952794 
L 777 -200.005358 
L 777 -203.057921 
L 777 -206.110485 
L 777 -209.163048 
L 777 -212.215612 
L 777 -215.268175 
L 777 -218.320739 
L 777 -221.373302 
L 777 -224.425866 
L 777 -227.478429 
L 777 -230.530993 
L 776.999942 -233.583556 
L 776.999577 -236.63612 
L 776.999521 -239.688683 
L 776.999942 -242.741247 
L 776.998757 -245.79381 
L 776.998389 -248.846374 
L 776.996387 -251.898937 
L 776.997035 -254.951501 
L 776.99469 -258.004064 
L 776.993583 -261.056628 
L 776.988468 -264.109191 
L 776.976045 -267.161755 
L 776.969944 -270.214318 
L 776.969298 -273.266882 
L 776.949606 -276.319445 
L 776.936281 -279.372009 
L 776.912613 -282.424572 
L 776.875439 -285.477136 
L 776.86308 -288.529699 
L 776.805877 -291.582263 
L 776.766675 -294.634826 
L 776.722715 -297.68739 
L 776.635114 -300.739953 
L 776.472031 -303.792517 
L 776.295687 -306.84508 
L 776.011761 -309.897644 
L 775.703319 -312.950207 
L 775.320446 -316.002771 
L 774.726945 -319.055334 
L 773.786506 -322.107898 
L 772.676291 -325.160461 
L 771.372167 -328.213025 
L 769.722147 -331.265588 
L 767.698791 -334.318152 
L 765.520256 -337.370715 
L 762.518149 -340.423279 
L 758.99785 -343.475842 
L 754.936758 -346.528406 
L 748.579139 -349.580969 
L 734.19622 -352.633533 
L 719.466347 -355.686096 
L 734.827291 -358.73866 
L 672.84 -361.791223 
L 768.152999 -364.843787 
L 785.847001 -364.843787 
L 785.847001 -364.843787 
L 881.16 -361.791223 
L 819.172709 -358.73866 
L 834.533653 -355.686096 
L 819.80378 -352.633533 
L 805.420861 -349.580969 
L 799.063242 -346.528406 
L 795.00215 -343.475842 
L 791.481851 -340.423279 
L 788.479744 -337.370715 
L 786.301209 -334.318152 
L 784.277853 -331.265588 
L 782.627833 -328.213025 
L 781.323709 -325.160461 
L 780.213494 -322.107898 
L 779.273055 -319.055334 
L 778.679554 -316.002771 
L 778.296681 -312.950207 
L 777.988239 -309.897644 
L 777.704313 -306.84508 
L 777.527969 -303.792517 
L 777.364886 -300.739953 
L 777.277285 -297.68739 
L 777.233325 -294.634826 
L 777.194123 -291.582263 
L 777.13692 -288.529699 
L 777.124561 -285.477136 
L 777.087387 -282.424572 
L 777.063719 -279.372009 
L 777.050394 -276.319445 
L 777.030702 -273.266882 
L 777.030056 -270.214318 
L 777.023955 -267.161755 
L 777.011532 -264.109191 
L 777.006417 -261.056628 
L 777.00531 -258.004064 
L 777.002965 -254.951501 
L 777.003613 -251.898937 
L 777.001611 -248.846374 
L 777.001243 -245.79381 
L 777.000058 -242.741247 
L 777.000479 -239.688683 
L 777.000423 -236.63612 
L 777.000058 -233.583556 
L 777 -230.530993 
L 777 -227.478429 
L 777 -224.425866 
L 777 -221.373302 
L 777 -218.320739 
L 777 -215.268175 
L 777 -212.215612 
L 777 -209.163048 
L 777 -206.110485 
L 777 -203.057921 
L 777 -200.005358 
L 777 -196.952794 
L 777 -193.900231 
L 777 -190.847667 
L 777 -187.795104 
L 777 -184.74254 
L 777 -181.689977 
L 777 -178.637413 
L 777 -175.58485 
L 777 -172.532286 
L 777 -169.479723 
L 777 -166.427159 
L 777 -163.374596 
L 777 -160.322032 
L 777 -157.269469 
L 777 -154.216905 
L 777 -151.164342 
L 777 -148.111778 
L 777 -145.059215 
L 777 -142.006651 
L 777 -138.954088 
L 777 -135.901524 
L 777 -132.848961 
L 777 -129.796397 
L 777 -126.743834 
L 777 -123.69127 
L 777 -120.638707 
L 777 -117.586143 
L 777 -114.53358 
L 777 -111.481016 
L 777 -108.428453 
L 777 -105.375889 
L 777 -102.323326 
L 777 -99.270762 
L 777 -96.218199 
L 777 -93.165635 
L 777 -90.113072 
L 777 -87.060508 
L 777 -84.007945 
L 777 -80.955381 
L 777 -77.902818 
L 777 -74.850254 
L 777 -71.797691 
L 777 -68.745127 
L 777.000237 -65.692564 
L 777.000136 -62.64 
z
" style="stroke: #484848; stroke-opacity: 0.5; stroke-width: 1.25"/>
    </defs>
    <g clip-path="url(#p661ec73775)">
     <use xlink:href="#m92517876e4" x="0" y="432" style="fill: #cb3335; fill-opacity: 0.5; stroke: #484848; stroke-opacity: 0.5; stroke-width: 1.25"/>
    </g>
   </g>
   <g id="matplotlib.axis_1">
    <g id="xtick_1">
     <g id="line2d_1">
      <defs>
       <path id="mc181ceafda" d="M 0 0 
L 0 3.5 
" style="stroke: #000000; stroke-width: 0.8"/>
      </defs>
      <g>
       <use xlink:href="#mc181ceafda" x="256.2" y="384.48" style="stroke: #000000; stroke-width: 0.8"/>
      </g>
     </g>
     <g id="text_1">
      <!-- BRO -->
      <g transform="translate(236.686875 405.157188) scale(0.18 -0.18)">
       <defs>
        <path id="DejaVuSans-42" d="M 1259 2228 
L 1259 519 
L 2272 519 
Q 2781 519 3026 730 
Q 3272 941 3272 1375 
Q 3272 1813 3026 2020 
Q 2781 2228 2272 2228 
L 1259 2228 
z
M 1259 4147 
L 1259 2741 
L 2194 2741 
Q 2656 2741 2882 2914 
Q 3109 3088 3109 3444 
Q 3109 3797 2882 3972 
Q 2656 4147 2194 4147 
L 1259 4147 
z
M 628 4666 
L 2241 4666 
Q 2963 4666 3353 4366 
Q 3744 4066 3744 3513 
Q 3744 3084 3544 2831 
Q 3344 2578 2956 2516 
Q 3422 2416 3680 2098 
Q 3938 1781 3938 1306 
Q 3938 681 3513 340 
Q 3088 0 2303 0 
L 628 0 
L 628 4666 
z
" transform="scale(0.015625)"/>
        <path id="DejaVuSans-52" d="M 2841 2188 
Q 3044 2119 3236 1894 
Q 3428 1669 3622 1275 
L 4263 0 
L 3584 0 
L 2988 1197 
Q 2756 1666 2539 1819 
Q 2322 1972 1947 1972 
L 1259 1972 
L 1259 0 
L 628 0 
L 628 4666 
L 2053 4666 
Q 2853 4666 3247 4331 
Q 3641 3997 3641 3322 
Q 3641 2881 3436 2590 
Q 3231 2300 2841 2188 
z
M 1259 4147 
L 1259 2491 
L 2053 2491 
Q 2509 2491 2742 2702 
Q 2975 2913 2975 3322 
Q 2975 3731 2742 3939 
Q 2509 4147 2053 4147 
L 1259 4147 
z
" transform="scale(0.015625)"/>
        <path id="DejaVuSans-4f" d="M 2522 4238 
Q 1834 4238 1429 3725 
Q 1025 3213 1025 2328 
Q 1025 1447 1429 934 
Q 1834 422 2522 422 
Q 3209 422 3611 934 
Q 4013 1447 4013 2328 
Q 4013 3213 3611 3725 
Q 3209 4238 2522 4238 
z
M 2522 4750 
Q 3503 4750 4090 4092 
Q 4678 3434 4678 2328 
Q 4678 1225 4090 567 
Q 3503 -91 2522 -91 
Q 1538 -91 948 565 
Q 359 1222 359 2328 
Q 359 3434 948 4092 
Q 1538 4750 2522 4750 
z
" transform="scale(0.015625)"/>
       </defs>
       <use xlink:href="#DejaVuSans-42"/>
       <use xlink:href="#DejaVuSans-52" x="68.603516"/>
       <use xlink:href="#DejaVuSans-4f" x="138.085938"/>
      </g>
     </g>
    </g>
    <g id="xtick_2">
     <g id="line2d_2">
      <g>
       <use xlink:href="#mc181ceafda" x="516.6" y="384.48" style="stroke: #000000; stroke-width: 0.8"/>
      </g>
     </g>
     <g id="text_2">
      <!-- NEU -->
      <g transform="translate(497.593125 405.157188) scale(0.18 -0.18)">
       <defs>
        <path id="DejaVuSans-4e" d="M 628 4666 
L 1478 4666 
L 3547 763 
L 3547 4666 
L 4159 4666 
L 4159 0 
L 3309 0 
L 1241 3903 
L 1241 0 
L 628 0 
L 628 4666 
z
" transform="scale(0.015625)"/>
        <path id="DejaVuSans-45" d="M 628 4666 
L 3578 4666 
L 3578 4134 
L 1259 4134 
L 1259 2753 
L 3481 2753 
L 3481 2222 
L 1259 2222 
L 1259 531 
L 3634 531 
L 3634 0 
L 628 0 
L 628 4666 
z
" transform="scale(0.015625)"/>
        <path id="DejaVuSans-55" d="M 556 4666 
L 1191 4666 
L 1191 1831 
Q 1191 1081 1462 751 
Q 1734 422 2344 422 
Q 2950 422 3222 751 
Q 3494 1081 3494 1831 
L 3494 4666 
L 4128 4666 
L 4128 1753 
Q 4128 841 3676 375 
Q 3225 -91 2344 -91 
Q 1459 -91 1007 375 
Q 556 841 556 1753 
L 556 4666 
z
" transform="scale(0.015625)"/>
       </defs>
       <use xlink:href="#DejaVuSans-4e"/>
       <use xlink:href="#DejaVuSans-45" x="74.804688"/>
       <use xlink:href="#DejaVuSans-55" x="137.988281"/>
      </g>
     </g>
    </g>
    <g id="xtick_3">
     <g id="line2d_3">
      <g>
       <use xlink:href="#mc181ceafda" x="777" y="384.48" style="stroke: #000000; stroke-width: 0.8"/>
      </g>
     </g>
     <g id="text_3">
      <!-- NON -->
      <g transform="translate(756.449062 405.157188) scale(0.18 -0.18)">
       <use xlink:href="#DejaVuSans-4e"/>
       <use xlink:href="#DejaVuSans-4f" x="74.804688"/>
       <use xlink:href="#DejaVuSans-4e" x="153.515625"/>
      </g>
     </g>
    </g>
   </g>
   <g id="matplotlib.axis_2">
    <g id="ytick_1">
     <g id="line2d_4">
      <defs>
       <path id="m186de959ee" d="M 0 0 
L -3.5 0 
" style="stroke: #000000; stroke-width: 0.8"/>
      </defs>
      <g>
       <use xlink:href="#m186de959ee" x="126" y="370.728491" style="stroke: #000000; stroke-width: 0.8"/>
      </g>
     </g>
     <g id="text_4">
      <!-- 0 -->
      <g transform="translate(107.5475 377.567085) scale(0.18 -0.18)">
       <defs>
        <path id="DejaVuSans-30" d="M 2034 4250 
Q 1547 4250 1301 3770 
Q 1056 3291 1056 2328 
Q 1056 1369 1301 889 
Q 1547 409 2034 409 
Q 2525 409 2770 889 
Q 3016 1369 3016 2328 
Q 3016 3291 2770 3770 
Q 2525 4250 2034 4250 
z
M 2034 4750 
Q 2819 4750 3233 4129 
Q 3647 3509 3647 2328 
Q 3647 1150 3233 529 
Q 2819 -91 2034 -91 
Q 1250 -91 836 529 
Q 422 1150 422 2328 
Q 422 3509 836 4129 
Q 1250 4750 2034 4750 
z
" transform="scale(0.015625)"/>
       </defs>
       <use xlink:href="#DejaVuSans-30"/>
      </g>
     </g>
    </g>
    <g id="ytick_2">
     <g id="line2d_5">
      <g>
       <use xlink:href="#m186de959ee" x="126" y="310.34418" style="stroke: #000000; stroke-width: 0.8"/>
      </g>
     </g>
     <g id="text_5">
      <!-- 20 -->
      <g transform="translate(96.095 317.182774) scale(0.18 -0.18)">
       <defs>
        <path id="DejaVuSans-32" d="M 1228 531 
L 3431 531 
L 3431 0 
L 469 0 
L 469 531 
Q 828 903 1448 1529 
Q 2069 2156 2228 2338 
Q 2531 2678 2651 2914 
Q 2772 3150 2772 3378 
Q 2772 3750 2511 3984 
Q 2250 4219 1831 4219 
Q 1534 4219 1204 4116 
Q 875 4013 500 3803 
L 500 4441 
Q 881 4594 1212 4672 
Q 1544 4750 1819 4750 
Q 2544 4750 2975 4387 
Q 3406 4025 3406 3419 
Q 3406 3131 3298 2873 
Q 3191 2616 2906 2266 
Q 2828 2175 2409 1742 
Q 1991 1309 1228 531 
z
" transform="scale(0.015625)"/>
       </defs>
       <use xlink:href="#DejaVuSans-32"/>
       <use xlink:href="#DejaVuSans-30" x="63.623047"/>
      </g>
     </g>
    </g>
    <g id="ytick_3">
     <g id="line2d_6">
      <g>
       <use xlink:href="#m186de959ee" x="126" y="249.95987" style="stroke: #000000; stroke-width: 0.8"/>
      </g>
     </g>
     <g id="text_6">
      <!-- 40 -->
      <g transform="translate(96.095 256.798464) scale(0.18 -0.18)">
       <defs>
        <path id="DejaVuSans-34" d="M 2419 4116 
L 825 1625 
L 2419 1625 
L 2419 4116 
z
M 2253 4666 
L 3047 4666 
L 3047 1625 
L 3713 1625 
L 3713 1100 
L 3047 1100 
L 3047 0 
L 2419 0 
L 2419 1100 
L 313 1100 
L 313 1709 
L 2253 4666 
z
" transform="scale(0.015625)"/>
       </defs>
       <use xlink:href="#DejaVuSans-34"/>
       <use xlink:href="#DejaVuSans-30" x="63.623047"/>
      </g>
     </g>
    </g>
    <g id="ytick_4">
     <g id="line2d_7">
      <g>
       <use xlink:href="#m186de959ee" x="126" y="189.575559" style="stroke: #000000; stroke-width: 0.8"/>
      </g>
     </g>
     <g id="text_7">
      <!-- 60 -->
      <g transform="translate(96.095 196.414153) scale(0.18 -0.18)">
       <defs>
        <path id="DejaVuSans-36" d="M 2113 2584 
Q 1688 2584 1439 2293 
Q 1191 2003 1191 1497 
Q 1191 994 1439 701 
Q 1688 409 2113 409 
Q 2538 409 2786 701 
Q 3034 994 3034 1497 
Q 3034 2003 2786 2293 
Q 2538 2584 2113 2584 
z
M 3366 4563 
L 3366 3988 
Q 3128 4100 2886 4159 
Q 2644 4219 2406 4219 
Q 1781 4219 1451 3797 
Q 1122 3375 1075 2522 
Q 1259 2794 1537 2939 
Q 1816 3084 2150 3084 
Q 2853 3084 3261 2657 
Q 3669 2231 3669 1497 
Q 3669 778 3244 343 
Q 2819 -91 2113 -91 
Q 1303 -91 875 529 
Q 447 1150 447 2328 
Q 447 3434 972 4092 
Q 1497 4750 2381 4750 
Q 2619 4750 2861 4703 
Q 3103 4656 3366 4563 
z
" transform="scale(0.015625)"/>
       </defs>
       <use xlink:href="#DejaVuSans-36"/>
       <use xlink:href="#DejaVuSans-30" x="63.623047"/>
      </g>
     </g>
    </g>
    <g id="ytick_5">
     <g id="line2d_8">
      <g>
       <use xlink:href="#m186de959ee" x="126" y="129.191248" style="stroke: #000000; stroke-width: 0.8"/>
      </g>
     </g>
     <g id="text_8">
      <!-- 80 -->
      <g transform="translate(96.095 136.029842) scale(0.18 -0.18)">
       <defs>
        <path id="DejaVuSans-38" d="M 2034 2216 
Q 1584 2216 1326 1975 
Q 1069 1734 1069 1313 
Q 1069 891 1326 650 
Q 1584 409 2034 409 
Q 2484 409 2743 651 
Q 3003 894 3003 1313 
Q 3003 1734 2745 1975 
Q 2488 2216 2034 2216 
z
M 1403 2484 
Q 997 2584 770 2862 
Q 544 3141 544 3541 
Q 544 4100 942 4425 
Q 1341 4750 2034 4750 
Q 2731 4750 3128 4425 
Q 3525 4100 3525 3541 
Q 3525 3141 3298 2862 
Q 3072 2584 2669 2484 
Q 3125 2378 3379 2068 
Q 3634 1759 3634 1313 
Q 3634 634 3220 271 
Q 2806 -91 2034 -91 
Q 1263 -91 848 271 
Q 434 634 434 1313 
Q 434 1759 690 2068 
Q 947 2378 1403 2484 
z
M 1172 3481 
Q 1172 3119 1398 2916 
Q 1625 2713 2034 2713 
Q 2441 2713 2670 2916 
Q 2900 3119 2900 3481 
Q 2900 3844 2670 4047 
Q 2441 4250 2034 4250 
Q 1625 4250 1398 4047 
Q 1172 3844 1172 3481 
z
" transform="scale(0.015625)"/>
       </defs>
       <use xlink:href="#DejaVuSans-38"/>
       <use xlink:href="#DejaVuSans-30" x="63.623047"/>
      </g>
     </g>
    </g>
    <g id="ytick_6">
     <g id="line2d_9">
      <g>
       <use xlink:href="#m186de959ee" x="126" y="68.806938" style="stroke: #000000; stroke-width: 0.8"/>
      </g>
     </g>
     <g id="text_9">
      <!-- 100 -->
      <g transform="translate(84.6425 75.645531) scale(0.18 -0.18)">
       <defs>
        <path id="DejaVuSans-31" d="M 794 531 
L 1825 531 
L 1825 4091 
L 703 3866 
L 703 4441 
L 1819 4666 
L 2450 4666 
L 2450 531 
L 3481 531 
L 3481 0 
L 794 0 
L 794 531 
z
" transform="scale(0.015625)"/>
       </defs>
       <use xlink:href="#DejaVuSans-31"/>
       <use xlink:href="#DejaVuSans-30" x="63.623047"/>
       <use xlink:href="#DejaVuSans-30" x="127.246094"/>
      </g>
     </g>
    </g>
    <g id="text_10">
     <!-- v_identity -->
     <g transform="translate(76.398438 262.326094) rotate(-90) scale(0.18 -0.18)">
      <defs>
       <path id="DejaVuSans-76" d="M 191 3500 
L 800 3500 
L 1894 563 
L 2988 3500 
L 3597 3500 
L 2284 0 
L 1503 0 
L 191 3500 
z
" transform="scale(0.015625)"/>
       <path id="DejaVuSans-5f" d="M 3263 -1063 
L 3263 -1509 
L -63 -1509 
L -63 -1063 
L 3263 -1063 
z
" transform="scale(0.015625)"/>
       <path id="DejaVuSans-69" d="M 603 3500 
L 1178 3500 
L 1178 0 
L 603 0 
L 603 3500 
z
M 603 4863 
L 1178 4863 
L 1178 4134 
L 603 4134 
L 603 4863 
z
" transform="scale(0.015625)"/>
       <path id="DejaVuSans-64" d="M 2906 2969 
L 2906 4863 
L 3481 4863 
L 3481 0 
L 2906 0 
L 2906 525 
Q 2725 213 2448 61 
Q 2172 -91 1784 -91 
Q 1150 -91 751 415 
Q 353 922 353 1747 
Q 353 2572 751 3078 
Q 1150 3584 1784 3584 
Q 2172 3584 2448 3432 
Q 2725 3281 2906 2969 
z
M 947 1747 
Q 947 1113 1208 752 
Q 1469 391 1925 391 
Q 2381 391 2643 752 
Q 2906 1113 2906 1747 
Q 2906 2381 2643 2742 
Q 2381 3103 1925 3103 
Q 1469 3103 1208 2742 
Q 947 2381 947 1747 
z
" transform="scale(0.015625)"/>
       <path id="DejaVuSans-65" d="M 3597 1894 
L 3597 1613 
L 953 1613 
Q 991 1019 1311 708 
Q 1631 397 2203 397 
Q 2534 397 2845 478 
Q 3156 559 3463 722 
L 3463 178 
Q 3153 47 2828 -22 
Q 2503 -91 2169 -91 
Q 1331 -91 842 396 
Q 353 884 353 1716 
Q 353 2575 817 3079 
Q 1281 3584 2069 3584 
Q 2775 3584 3186 3129 
Q 3597 2675 3597 1894 
z
M 3022 2063 
Q 3016 2534 2758 2815 
Q 2500 3097 2075 3097 
Q 1594 3097 1305 2825 
Q 1016 2553 972 2059 
L 3022 2063 
z
" transform="scale(0.015625)"/>
       <path id="DejaVuSans-6e" d="M 3513 2113 
L 3513 0 
L 2938 0 
L 2938 2094 
Q 2938 2591 2744 2837 
Q 2550 3084 2163 3084 
Q 1697 3084 1428 2787 
Q 1159 2491 1159 1978 
L 1159 0 
L 581 0 
L 581 3500 
L 1159 3500 
L 1159 2956 
Q 1366 3272 1645 3428 
Q 1925 3584 2291 3584 
Q 2894 3584 3203 3211 
Q 3513 2838 3513 2113 
z
" transform="scale(0.015625)"/>
       <path id="DejaVuSans-74" d="M 1172 4494 
L 1172 3500 
L 2356 3500 
L 2356 3053 
L 1172 3053 
L 1172 1153 
Q 1172 725 1289 603 
Q 1406 481 1766 481 
L 2356 481 
L 2356 0 
L 1766 0 
Q 1100 0 847 248 
Q 594 497 594 1153 
L 594 3053 
L 172 3053 
L 172 3500 
L 594 3500 
L 594 4494 
L 1172 4494 
z
" transform="scale(0.015625)"/>
       <path id="DejaVuSans-79" d="M 2059 -325 
Q 1816 -950 1584 -1140 
Q 1353 -1331 966 -1331 
L 506 -1331 
L 506 -850 
L 844 -850 
Q 1081 -850 1212 -737 
Q 1344 -625 1503 -206 
L 1606 56 
L 191 3500 
L 800 3500 
L 1894 763 
L 2988 3500 
L 3597 3500 
L 2059 -325 
z
" transform="scale(0.015625)"/>
      </defs>
      <use xlink:href="#DejaVuSans-76"/>
      <use xlink:href="#DejaVuSans-5f" x="59.179688"/>
      <use xlink:href="#DejaVuSans-69" x="109.179688"/>
      <use xlink:href="#DejaVuSans-64" x="136.962891"/>
      <use xlink:href="#DejaVuSans-65" x="200.439453"/>
      <use xlink:href="#DejaVuSans-6e" x="261.962891"/>
      <use xlink:href="#DejaVuSans-74" x="325.341797"/>
      <use xlink:href="#DejaVuSans-69" x="364.550781"/>
      <use xlink:href="#DejaVuSans-74" x="392.333984"/>
      <use xlink:href="#DejaVuSans-79" x="431.542969"/>
     </g>
    </g>
   </g>
   <g id="line2d_10">
    <path d="M 256.2 106.199922 
L 256.2 68.806938 
" clip-path="url(#p661ec73775)" style="fill: none; stroke: #484848; stroke-width: 1.875; stroke-linecap: square"/>
   </g>
   <g id="line2d_11">
    <path d="M 256.2 85.189201 
L 256.2 71.164945 
" clip-path="url(#p661ec73775)" style="fill: none; stroke: #484848; stroke-width: 5.625; stroke-linecap: square"/>
   </g>
   <g id="line2d_12">
    <path d="M 256.2 77.061473 
" clip-path="url(#p661ec73775)" style="fill: none; stroke: #484848; stroke-width: 1.5; stroke-linecap: square"/>
    <defs>
     <path id="m93987d8b3d" d="M 2.34375 0 
L -2.34375 -0 
" style="stroke: #ffffff; stroke-width: 1.125"/>
    </defs>
    <g clip-path="url(#p661ec73775)">
     <use xlink:href="#m93987d8b3d" x="256.2" y="77.061473" style="fill: #ffffff; stroke: #ffffff; stroke-width: 1.125"/>
    </g>
   </g>
   <g id="line2d_13">
    <path d="M 516.6 106.423344 
L 516.6 68.806938 
" clip-path="url(#p661ec73775)" style="fill: none; stroke: #484848; stroke-width: 1.875; stroke-linecap: square"/>
   </g>
   <g id="line2d_14">
    <path d="M 516.6 85.319027 
L 516.6 71.195137 
" clip-path="url(#p661ec73775)" style="fill: none; stroke: #484848; stroke-width: 5.625; stroke-linecap: square"/>
   </g>
   <g id="line2d_15">
    <path d="M 516.6 77.127896 
" clip-path="url(#p661ec73775)" style="fill: none; stroke: #484848; stroke-width: 1.5; stroke-linecap: square"/>
    <g clip-path="url(#p661ec73775)">
     <use xlink:href="#m93987d8b3d" x="516.6" y="77.127896" style="fill: #ffffff; stroke: #ffffff; stroke-width: 1.125"/>
    </g>
   </g>
   <g id="line2d_16">
    <path d="M 777 104.518219 
L 777 68.806938 
" clip-path="url(#p661ec73775)" style="fill: none; stroke: #484848; stroke-width: 1.875; stroke-linecap: square"/>
   </g>
   <g id="line2d_17">
    <path d="M 777 84.506858 
L 777 71.164945 
" clip-path="url(#p661ec73775)" style="fill: none; stroke: #484848; stroke-width: 5.625; stroke-linecap: square"/>
   </g>
   <g id="line2d_18">
    <path d="M 777 77.094684 
" clip-path="url(#p661ec73775)" style="fill: none; stroke: #484848; stroke-width: 1.5; stroke-linecap: square"/>
    <g clip-path="url(#p661ec73775)">
     <use xlink:href="#m93987d8b3d" x="777" y="77.094684" style="fill: #ffffff; stroke: #ffffff; stroke-width: 1.125"/>
    </g>
   </g>
   <g id="patch_3">
    <path d="M 126 384.48 
L 126 51.84 
" style="fill: none; stroke: #000000; stroke-width: 0.8; stroke-linejoin: miter; stroke-linecap: square"/>
   </g>
   <g id="patch_4">
    <path d="M 907.2 384.48 
L 907.2 51.84 
" style="fill: none; stroke: #000000; stroke-width: 0.8; stroke-linejoin: miter; stroke-linecap: square"/>
   </g>
   <g id="patch_5">
    <path d="M 126 384.48 
L 907.2 384.48 
" style="fill: none; stroke: #000000; stroke-width: 0.8; stroke-linejoin: miter; stroke-linecap: square"/>
   </g>
   <g id="patch_6">
    <path d="M 126 51.84 
L 907.2 51.84 
" style="fill: none; stroke: #000000; stroke-width: 0.8; stroke-linejoin: miter; stroke-linecap: square"/>
   </g>
   <g id="text_11">
    <g id="patch_7">
     <path d="M 149.453281 201.997877 
L 232.746719 201.997877 
L 232.746719 180.328502 
L 149.453281 180.328502 
z
" style="fill: #ffffff; opacity: 0.7; stroke: #000000; stroke-linejoin: miter"/>
    </g>
    <!-- Avg: 96.19 -->
    <g transform="translate(153.513281 195.026315) scale(0.14 -0.14)">
     <defs>
      <path id="DejaVuSans-41" d="M 2188 4044 
L 1331 1722 
L 3047 1722 
L 2188 4044 
z
M 1831 4666 
L 2547 4666 
L 4325 0 
L 3669 0 
L 3244 1197 
L 1141 1197 
L 716 0 
L 50 0 
L 1831 4666 
z
" transform="scale(0.015625)"/>
      <path id="DejaVuSans-67" d="M 2906 1791 
Q 2906 2416 2648 2759 
Q 2391 3103 1925 3103 
Q 1463 3103 1205 2759 
Q 947 2416 947 1791 
Q 947 1169 1205 825 
Q 1463 481 1925 481 
Q 2391 481 2648 825 
Q 2906 1169 2906 1791 
z
M 3481 434 
Q 3481 -459 3084 -895 
Q 2688 -1331 1869 -1331 
Q 1566 -1331 1297 -1286 
Q 1028 -1241 775 -1147 
L 775 -588 
Q 1028 -725 1275 -790 
Q 1522 -856 1778 -856 
Q 2344 -856 2625 -561 
Q 2906 -266 2906 331 
L 2906 616 
Q 2728 306 2450 153 
Q 2172 0 1784 0 
Q 1141 0 747 490 
Q 353 981 353 1791 
Q 353 2603 747 3093 
Q 1141 3584 1784 3584 
Q 2172 3584 2450 3431 
Q 2728 3278 2906 2969 
L 2906 3500 
L 3481 3500 
L 3481 434 
z
" transform="scale(0.015625)"/>
      <path id="DejaVuSans-3a" d="M 750 794 
L 1409 794 
L 1409 0 
L 750 0 
L 750 794 
z
M 750 3309 
L 1409 3309 
L 1409 2516 
L 750 2516 
L 750 3309 
z
" transform="scale(0.015625)"/>
      <path id="DejaVuSans-20" transform="scale(0.015625)"/>
      <path id="DejaVuSans-39" d="M 703 97 
L 703 672 
Q 941 559 1184 500 
Q 1428 441 1663 441 
Q 2288 441 2617 861 
Q 2947 1281 2994 2138 
Q 2813 1869 2534 1725 
Q 2256 1581 1919 1581 
Q 1219 1581 811 2004 
Q 403 2428 403 3163 
Q 403 3881 828 4315 
Q 1253 4750 1959 4750 
Q 2769 4750 3195 4129 
Q 3622 3509 3622 2328 
Q 3622 1225 3098 567 
Q 2575 -91 1691 -91 
Q 1453 -91 1209 -44 
Q 966 3 703 97 
z
M 1959 2075 
Q 2384 2075 2632 2365 
Q 2881 2656 2881 3163 
Q 2881 3666 2632 3958 
Q 2384 4250 1959 4250 
Q 1534 4250 1286 3958 
Q 1038 3666 1038 3163 
Q 1038 2656 1286 2365 
Q 1534 2075 1959 2075 
z
" transform="scale(0.015625)"/>
      <path id="DejaVuSans-2e" d="M 684 794 
L 1344 794 
L 1344 0 
L 684 0 
L 684 794 
z
" transform="scale(0.015625)"/>
     </defs>
     <use xlink:href="#DejaVuSans-41"/>
     <use xlink:href="#DejaVuSans-76" x="62.533203"/>
     <use xlink:href="#DejaVuSans-67" x="121.712891"/>
     <use xlink:href="#DejaVuSans-3a" x="185.189453"/>
     <use xlink:href="#DejaVuSans-20" x="218.880859"/>
     <use xlink:href="#DejaVuSans-39" x="250.667969"/>
     <use xlink:href="#DejaVuSans-36" x="314.291016"/>
     <use xlink:href="#DejaVuSans-2e" x="377.914062"/>
     <use xlink:href="#DejaVuSans-31" x="409.701172"/>
     <use xlink:href="#DejaVuSans-39" x="473.324219"/>
    </g>
   </g>
   <g id="text_12">
    <g id="patch_8">
     <path d="M 131.6 177.844153 
L 250.6 177.844153 
L 250.6 156.174778 
L 131.6 156.174778 
z
" style="fill: #ffffff; opacity: 0.7; stroke: #000000; stroke-linejoin: miter"/>
    </g>
    <!-- # seqs: 454462 -->
    <g transform="translate(135.66 170.87259) scale(0.14 -0.14)">
     <defs>
      <path id="DejaVuSans-23" d="M 3272 2816 
L 2363 2816 
L 2100 1772 
L 3016 1772 
L 3272 2816 
z
M 2803 4594 
L 2478 3297 
L 3391 3297 
L 3719 4594 
L 4219 4594 
L 3897 3297 
L 4872 3297 
L 4872 2816 
L 3775 2816 
L 3519 1772 
L 4513 1772 
L 4513 1294 
L 3397 1294 
L 3072 0 
L 2572 0 
L 2894 1294 
L 1978 1294 
L 1656 0 
L 1153 0 
L 1478 1294 
L 494 1294 
L 494 1772 
L 1594 1772 
L 1856 2816 
L 850 2816 
L 850 3297 
L 1978 3297 
L 2297 4594 
L 2803 4594 
z
" transform="scale(0.015625)"/>
      <path id="DejaVuSans-73" d="M 2834 3397 
L 2834 2853 
Q 2591 2978 2328 3040 
Q 2066 3103 1784 3103 
Q 1356 3103 1142 2972 
Q 928 2841 928 2578 
Q 928 2378 1081 2264 
Q 1234 2150 1697 2047 
L 1894 2003 
Q 2506 1872 2764 1633 
Q 3022 1394 3022 966 
Q 3022 478 2636 193 
Q 2250 -91 1575 -91 
Q 1294 -91 989 -36 
Q 684 19 347 128 
L 347 722 
Q 666 556 975 473 
Q 1284 391 1588 391 
Q 1994 391 2212 530 
Q 2431 669 2431 922 
Q 2431 1156 2273 1281 
Q 2116 1406 1581 1522 
L 1381 1569 
Q 847 1681 609 1914 
Q 372 2147 372 2553 
Q 372 3047 722 3315 
Q 1072 3584 1716 3584 
Q 2034 3584 2315 3537 
Q 2597 3491 2834 3397 
z
" transform="scale(0.015625)"/>
      <path id="DejaVuSans-71" d="M 947 1747 
Q 947 1113 1208 752 
Q 1469 391 1925 391 
Q 2381 391 2643 752 
Q 2906 1113 2906 1747 
Q 2906 2381 2643 2742 
Q 2381 3103 1925 3103 
Q 1469 3103 1208 2742 
Q 947 2381 947 1747 
z
M 2906 525 
Q 2725 213 2448 61 
Q 2172 -91 1784 -91 
Q 1150 -91 751 415 
Q 353 922 353 1747 
Q 353 2572 751 3078 
Q 1150 3584 1784 3584 
Q 2172 3584 2448 3432 
Q 2725 3281 2906 2969 
L 2906 3500 
L 3481 3500 
L 3481 -1331 
L 2906 -1331 
L 2906 525 
z
" transform="scale(0.015625)"/>
      <path id="DejaVuSans-35" d="M 691 4666 
L 3169 4666 
L 3169 4134 
L 1269 4134 
L 1269 2991 
Q 1406 3038 1543 3061 
Q 1681 3084 1819 3084 
Q 2600 3084 3056 2656 
Q 3513 2228 3513 1497 
Q 3513 744 3044 326 
Q 2575 -91 1722 -91 
Q 1428 -91 1123 -41 
Q 819 9 494 109 
L 494 744 
Q 775 591 1075 516 
Q 1375 441 1709 441 
Q 2250 441 2565 725 
Q 2881 1009 2881 1497 
Q 2881 1984 2565 2268 
Q 2250 2553 1709 2553 
Q 1456 2553 1204 2497 
Q 953 2441 691 2322 
L 691 4666 
z
" transform="scale(0.015625)"/>
     </defs>
     <use xlink:href="#DejaVuSans-23"/>
     <use xlink:href="#DejaVuSans-20" x="83.789062"/>
     <use xlink:href="#DejaVuSans-73" x="115.576172"/>
     <use xlink:href="#DejaVuSans-65" x="167.675781"/>
     <use xlink:href="#DejaVuSans-71" x="229.199219"/>
     <use xlink:href="#DejaVuSans-73" x="292.675781"/>
     <use xlink:href="#DejaVuSans-3a" x="344.775391"/>
     <use xlink:href="#DejaVuSans-20" x="378.466797"/>
     <use xlink:href="#DejaVuSans-34" x="410.253906"/>
     <use xlink:href="#DejaVuSans-35" x="473.876953"/>
     <use xlink:href="#DejaVuSans-34" x="537.5"/>
     <use xlink:href="#DejaVuSans-34" x="601.123047"/>
     <use xlink:href="#DejaVuSans-36" x="664.746094"/>
     <use xlink:href="#DejaVuSans-32" x="728.369141"/>
    </g>
   </g>
   <g id="text_13">
    <g id="patch_9">
     <path d="M 409.853281 201.867055 
L 493.146719 201.867055 
L 493.146719 180.19768 
L 409.853281 180.19768 
z
" style="fill: #ffffff; opacity: 0.7; stroke: #000000; stroke-linejoin: miter"/>
    </g>
    <!-- Avg: 96.24 -->
    <g transform="translate(413.913281 194.895493) scale(0.14 -0.14)">
     <use xlink:href="#DejaVuSans-41"/>
     <use xlink:href="#DejaVuSans-76" x="62.533203"/>
     <use xlink:href="#DejaVuSans-67" x="121.712891"/>
     <use xlink:href="#DejaVuSans-3a" x="185.189453"/>
     <use xlink:href="#DejaVuSans-20" x="218.880859"/>
     <use xlink:href="#DejaVuSans-39" x="250.667969"/>
     <use xlink:href="#DejaVuSans-36" x="314.291016"/>
     <use xlink:href="#DejaVuSans-2e" x="377.914062"/>
     <use xlink:href="#DejaVuSans-32" x="409.701172"/>
     <use xlink:href="#DejaVuSans-34" x="473.324219"/>
    </g>
   </g>
   <g id="text_14">
    <g id="patch_10">
     <path d="M 392 177.713331 
L 511 177.713331 
L 511 156.043956 
L 392 156.043956 
z
" style="fill: #ffffff; opacity: 0.7; stroke: #000000; stroke-linejoin: miter"/>
    </g>
    <!-- # seqs: 626718 -->
    <g transform="translate(396.06 170.741769) scale(0.14 -0.14)">
     <defs>
      <path id="DejaVuSans-37" d="M 525 4666 
L 3525 4666 
L 3525 4397 
L 1831 0 
L 1172 0 
L 2766 4134 
L 525 4134 
L 525 4666 
z
" transform="scale(0.015625)"/>
     </defs>
     <use xlink:href="#DejaVuSans-23"/>
     <use xlink:href="#DejaVuSans-20" x="83.789062"/>
     <use xlink:href="#DejaVuSans-73" x="115.576172"/>
     <use xlink:href="#DejaVuSans-65" x="167.675781"/>
     <use xlink:href="#DejaVuSans-71" x="229.199219"/>
     <use xlink:href="#DejaVuSans-73" x="292.675781"/>
     <use xlink:href="#DejaVuSans-3a" x="344.775391"/>
     <use xlink:href="#DejaVuSans-20" x="378.466797"/>
     <use xlink:href="#DejaVuSans-36" x="410.253906"/>
     <use xlink:href="#DejaVuSans-32" x="473.876953"/>
     <use xlink:href="#DejaVuSans-36" x="537.5"/>
     <use xlink:href="#DejaVuSans-37" x="601.123047"/>
     <use xlink:href="#DejaVuSans-31" x="664.746094"/>
     <use xlink:href="#DejaVuSans-38" x="728.369141"/>
    </g>
   </g>
   <g id="text_15">
    <g id="patch_11">
     <path d="M 670.253281 201.654954 
L 753.546719 201.654954 
L 753.546719 179.985579 
L 670.253281 179.985579 
z
" style="fill: #ffffff; opacity: 0.7; stroke: #000000; stroke-linejoin: miter"/>
    </g>
    <!-- Avg: 96.31 -->
    <g transform="translate(674.313281 194.683392) scale(0.14 -0.14)">
     <defs>
      <path id="DejaVuSans-33" d="M 2597 2516 
Q 3050 2419 3304 2112 
Q 3559 1806 3559 1356 
Q 3559 666 3084 287 
Q 2609 -91 1734 -91 
Q 1441 -91 1130 -33 
Q 819 25 488 141 
L 488 750 
Q 750 597 1062 519 
Q 1375 441 1716 441 
Q 2309 441 2620 675 
Q 2931 909 2931 1356 
Q 2931 1769 2642 2001 
Q 2353 2234 1838 2234 
L 1294 2234 
L 1294 2753 
L 1863 2753 
Q 2328 2753 2575 2939 
Q 2822 3125 2822 3475 
Q 2822 3834 2567 4026 
Q 2313 4219 1838 4219 
Q 1578 4219 1281 4162 
Q 984 4106 628 3988 
L 628 4550 
Q 988 4650 1302 4700 
Q 1616 4750 1894 4750 
Q 2613 4750 3031 4423 
Q 3450 4097 3450 3541 
Q 3450 3153 3228 2886 
Q 3006 2619 2597 2516 
z
" transform="scale(0.015625)"/>
     </defs>
     <use xlink:href="#DejaVuSans-41"/>
     <use xlink:href="#DejaVuSans-76" x="62.533203"/>
     <use xlink:href="#DejaVuSans-67" x="121.712891"/>
     <use xlink:href="#DejaVuSans-3a" x="185.189453"/>
     <use xlink:href="#DejaVuSans-20" x="218.880859"/>
     <use xlink:href="#DejaVuSans-39" x="250.667969"/>
     <use xlink:href="#DejaVuSans-36" x="314.291016"/>
     <use xlink:href="#DejaVuSans-2e" x="377.914062"/>
     <use xlink:href="#DejaVuSans-33" x="409.701172"/>
     <use xlink:href="#DejaVuSans-31" x="473.324219"/>
    </g>
   </g>
   <g id="text_16">
    <g id="patch_12">
     <path d="M 652.4 177.50123 
L 771.4 177.50123 
L 771.4 155.831855 
L 652.4 155.831855 
z
" style="fill: #ffffff; opacity: 0.7; stroke: #000000; stroke-linejoin: miter"/>
    </g>
    <!-- # seqs: 580748 -->
    <g transform="translate(656.46 170.529667) scale(0.14 -0.14)">
     <use xlink:href="#DejaVuSans-23"/>
     <use xlink:href="#DejaVuSans-20" x="83.789062"/>
     <use xlink:href="#DejaVuSans-73" x="115.576172"/>
     <use xlink:href="#DejaVuSans-65" x="167.675781"/>
     <use xlink:href="#DejaVuSans-71" x="229.199219"/>
     <use xlink:href="#DejaVuSans-73" x="292.675781"/>
     <use xlink:href="#DejaVuSans-3a" x="344.775391"/>
     <use xlink:href="#DejaVuSans-20" x="378.466797"/>
     <use xlink:href="#DejaVuSans-35" x="410.253906"/>
     <use xlink:href="#DejaVuSans-38" x="473.876953"/>
     <use xlink:href="#DejaVuSans-30" x="537.5"/>
     <use xlink:href="#DejaVuSans-37" x="601.123047"/>
     <use xlink:href="#DejaVuSans-34" x="664.746094"/>
     <use xlink:href="#DejaVuSans-38" x="728.369141"/>
    </g>
   </g>
  </g>
 </g>
 <defs>
  <clipPath id="p661ec73775">
   <rect x="126" y="51.84" width="781.2" height="332.64"/>
  </clipPath>
 </defs>
</svg>
