<?xml version="1.0" encoding="utf-8" standalone="no"?>
<!DOCTYPE svg PUBLIC "-//W3C//DTD SVG 1.1//EN"
  "http://www.w3.org/Graphics/SVG/1.1/DTD/svg11.dtd">
<svg xmlns:xlink="http://www.w3.org/1999/xlink" width="1008pt" height="432pt" viewBox="0 0 1008 432" xmlns="http://www.w3.org/2000/svg" version="1.1">
 <metadata>
  <rdf:RDF xmlns:dc="http://purl.org/dc/elements/1.1/" xmlns:cc="http://creativecommons.org/ns#" xmlns:rdf="http://www.w3.org/1999/02/22-rdf-syntax-ns#">
   <cc:Work>
    <dc:type rdf:resource="http://purl.org/dc/dcmitype/StillImage"/>
    <dc:date>2025-05-25T19:47:36.385127</dc:date>
    <dc:format>image/svg+xml</dc:format>
    <dc:creator>
     <cc:Agent>
      <dc:title>Matplotlib v3.7.5, https://matplotlib.org/</dc:title>
     </cc:Agent>
    </dc:creator>
   </cc:Work>
  </rdf:RDF>
 </metadata>
 <defs>
  <style type="text/css">*{stroke-linejoin: round; stroke-linecap: butt}</style>
 </defs>
 <g id="figure_1">
  <g id="patch_1">
   <path d="M 0 432 
L 1008 432 
L 1008 0 
L 0 0 
z
" style="fill: #ffffff"/>
  </g>
  <g id="axes_1">
   <g id="patch_2">
    <path d="M 126 384.48 
L 907.2 384.48 
L 907.2 51.84 
L 126 51.84 
z
" style="fill: #ffffff"/>
   </g>
   <g id="PolyCollection_1">
    <defs>
     <path id="m0d3af62530" d="M 256.200136 -62.64 
L 256.199864 -62.64 
L 256.199763 -65.692564 
L 256.2 -68.745127 
L 256.2 -71.797691 
L 256.2 -74.850254 
L 256.2 -77.902818 
L 256.2 -80.955381 
L 256.2 -84.007945 
L 256.2 -87.060508 
L 256.2 -90.113072 
L 256.2 -93.165635 
L 256.2 -96.218199 
L 256.2 -99.270762 
L 256.2 -102.323326 
L 256.2 -105.375889 
L 256.2 -108.428453 
L 256.2 -111.481016 
L 256.2 -114.53358 
L 256.2 -117.586143 
L 256.2 -120.638707 
L 256.2 -123.69127 
L 256.2 -126.743834 
L 256.2 -129.796397 
L 256.2 -132.848961 
L 256.2 -135.901524 
L 256.2 -138.954088 
L 256.2 -142.006651 
L 256.2 -145.059215 
L 256.2 -148.111778 
L 256.2 -151.164342 
L 256.2 -154.216905 
L 256.2 -157.269469 
L 256.2 -160.322032 
L 256.2 -163.374596 
L 256.2 -166.427159 
L 256.2 -169.479723 
L 256.2 -172.532286 
L 256.2 -175.58485 
L 256.2 -178.637413 
L 256.2 -181.689977 
L 256.2 -184.74254 
L 256.2 -187.795104 
L 256.2 -190.847667 
L 256.2 -193.900231 
L 256.2 -196.952794 
L 256.2 -200.005358 
L 256.2 -203.057921 
L 256.2 -206.110485 
L 256.2 -209.163048 
L 256.2 -212.215612 
L 256.2 -215.268175 
L 256.2 -218.320739 
L 256.2 -221.373302 
L 256.2 -224.425866 
L 256.2 -227.478429 
L 256.2 -230.530993 
L 256.199942 -233.583556 
L 256.199577 -236.63612 
L 256.199521 -239.688683 
L 256.199942 -242.741247 
L 256.198757 -245.79381 
L 256.198389 -248.846374 
L 256.196387 -251.898937 
L 256.197035 -254.951501 
L 256.19469 -258.004064 
L 256.193583 -261.056628 
L 256.188468 -264.109191 
L 256.176045 -267.161755 
L 256.169944 -270.214318 
L 256.169298 -273.266882 
L 256.149606 -276.319445 
L 256.136281 -279.372009 
L 256.112613 -282.424572 
L 256.075439 -285.477136 
L 256.06308 -288.529699 
L 256.005877 -291.582263 
L 255.966675 -294.634826 
L 255.922715 -297.68739 
L 255.835114 -300.739953 
L 255.672031 -303.792517 
L 255.495687 -306.84508 
L 255.211761 -309.897644 
L 254.903319 -312.950207 
L 254.520446 -316.002771 
L 253.926945 -319.055334 
L 252.986506 -322.107898 
L 251.876291 -325.160461 
L 250.572167 -328.213025 
L 248.922147 -331.265588 
L 246.898791 -334.318152 
L 244.720256 -337.370715 
L 241.718149 -340.423279 
L 238.19785 -343.475842 
L 234.136758 -346.528406 
L 227.779139 -349.580969 
L 213.39622 -352.633533 
L 198.666347 -355.686096 
L 214.027291 -358.73866 
L 152.04 -361.791223 
L 247.352999 -364.843787 
L 265.047001 -364.843787 
L 265.047001 -364.843787 
L 360.36 -361.791223 
L 298.372709 -358.73866 
L 313.733653 -355.686096 
L 299.00378 -352.633533 
L 284.620861 -349.580969 
L 278.263242 -346.528406 
L 274.20215 -343.475842 
L 270.681851 -340.423279 
L 267.679744 -337.370715 
L 265.501209 -334.318152 
L 263.477853 -331.265588 
L 261.827833 -328.213025 
L 260.523709 -325.160461 
L 259.413494 -322.107898 
L 258.473055 -319.055334 
L 257.879554 -316.002771 
L 257.496681 -312.950207 
L 257.188239 -309.897644 
L 256.904313 -306.84508 
L 256.727969 -303.792517 
L 256.564886 -300.739953 
L 256.477285 -297.68739 
L 256.433325 -294.634826 
L 256.394123 -291.582263 
L 256.33692 -288.529699 
L 256.324561 -285.477136 
L 256.287387 -282.424572 
L 256.263719 -279.372009 
L 256.250394 -276.319445 
L 256.230702 -273.266882 
L 256.230056 -270.214318 
L 256.223955 -267.161755 
L 256.211532 -264.109191 
L 256.206417 -261.056628 
L 256.20531 -258.004064 
L 256.202965 -254.951501 
L 256.203613 -251.898937 
L 256.201611 -248.846374 
L 256.201243 -245.79381 
L 256.200058 -242.741247 
L 256.200479 -239.688683 
L 256.200423 -236.63612 
L 256.200058 -233.583556 
L 256.2 -230.530993 
L 256.2 -227.478429 
L 256.2 -224.425866 
L 256.2 -221.373302 
L 256.2 -218.320739 
L 256.2 -215.268175 
L 256.2 -212.215612 
L 256.2 -209.163048 
L 256.2 -206.110485 
L 256.2 -203.057921 
L 256.2 -200.005358 
L 256.2 -196.952794 
L 256.2 -193.900231 
L 256.2 -190.847667 
L 256.2 -187.795104 
L 256.2 -184.74254 
L 256.2 -181.689977 
L 256.2 -178.637413 
L 256.2 -175.58485 
L 256.2 -172.532286 
L 256.2 -169.479723 
L 256.2 -166.427159 
L 256.2 -163.374596 
L 256.2 -160.322032 
L 256.2 -157.269469 
L 256.2 -154.216905 
L 256.2 -151.164342 
L 256.2 -148.111778 
L 256.2 -145.059215 
L 256.2 -142.006651 
L 256.2 -138.954088 
L 256.2 -135.901524 
L 256.2 -132.848961 
L 256.2 -129.796397 
L 256.2 -126.743834 
L 256.2 -123.69127 
L 256.2 -120.638707 
L 256.2 -117.586143 
L 256.2 -114.53358 
L 256.2 -111.481016 
L 256.2 -108.428453 
L 256.2 -105.375889 
L 256.2 -102.323326 
L 256.2 -99.270762 
L 256.2 -96.218199 
L 256.2 -93.165635 
L 256.2 -90.113072 
L 256.2 -87.060508 
L 256.2 -84.007945 
L 256.2 -80.955381 
L 256.2 -77.902818 
L 256.2 -74.850254 
L 256.2 -71.797691 
L 256.2 -68.745127 
L 256.200237 -65.692564 
L 256.200136 -62.64 
z
" style="stroke: #484848; stroke-opacity: 0.5; stroke-width: 1.25"/>
    </defs>
    <g clip-path="url(#p75adbd1c8f)">
     <use xlink:href="#m0d3af62530" x="0" y="432" style="fill: #cb3335; fill-opacity: 0.5; stroke: #484848; stroke-opacity: 0.5; stroke-width: 1.25"/>
    </g>
   </g>
   <g id="PolyCollection_2">
    <defs>
     <path id="mdf9120d59a" d="M 516.600134 -86.831104 
L 516.599866 -86.831104 
L 516.599669 -89.638935 
L 516.6 -92.446766 
L 516.6 -95.254598 
L 516.6 -98.062429 
L 516.6 -100.87026 
L 516.6 -103.678092 
L 516.6 -106.485923 
L 516.6 -109.293754 
L 516.6 -112.101586 
L 516.6 -114.909417 
L 516.6 -117.717248 
L 516.6 -120.52508 
L 516.6 -123.332911 
L 516.6 -126.140743 
L 516.6 -128.948574 
L 516.6 -131.756405 
L 516.6 -134.564237 
L 516.6 -137.372068 
L 516.6 -140.179899 
L 516.6 -142.987731 
L 516.6 -145.795562 
L 516.6 -148.603393 
L 516.6 -151.411225 
L 516.6 -154.219056 
L 516.6 -157.026887 
L 516.6 -159.834719 
L 516.6 -162.64255 
L 516.6 -165.450381 
L 516.6 -168.258213 
L 516.6 -171.066044 
L 516.6 -173.873876 
L 516.6 -176.681707 
L 516.6 -179.489538 
L 516.6 -182.29737 
L 516.6 -185.105201 
L 516.6 -187.913032 
L 516.6 -190.720864 
L 516.6 -193.528695 
L 516.6 -196.336526 
L 516.6 -199.144358 
L 516.6 -201.952189 
L 516.6 -204.76002 
L 516.6 -207.567852 
L 516.6 -210.375683 
L 516.599834 -213.183514 
L 516.59972 -215.991346 
L 516.6 -218.799177 
L 516.6 -221.607008 
L 516.6 -224.41484 
L 516.6 -227.222671 
L 516.6 -230.030503 
L 516.599995 -232.838334 
L 516.599035 -235.646165 
L 516.599999 -238.453997 
L 516.6 -241.261828 
L 516.59804 -244.069659 
L 516.594691 -246.877491 
L 516.595247 -249.685322 
L 516.597877 -252.493153 
L 516.594609 -255.300985 
L 516.593192 -258.108816 
L 516.590399 -260.916647 
L 516.588471 -263.724479 
L 516.581725 -266.53231 
L 516.576475 -269.340141 
L 516.572239 -272.147973 
L 516.558114 -274.955804 
L 516.531433 -277.763636 
L 516.517813 -280.571467 
L 516.496823 -283.379298 
L 516.48411 -286.18713 
L 516.446669 -288.994961 
L 516.432473 -291.802792 
L 516.38144 -294.610624 
L 516.283553 -297.418455 
L 516.208462 -300.226286 
L 516.105584 -303.034118 
L 515.982443 -305.841949 
L 515.821552 -308.64978 
L 515.516548 -311.457612 
L 515.072876 -314.265443 
L 514.684036 -317.073274 
L 513.962552 -319.881106 
L 512.994003 -322.688937 
L 511.821728 -325.496769 
L 510.671304 -328.3046 
L 509.09744 -331.112431 
L 507.257537 -333.920263 
L 504.804291 -336.728094 
L 502.042483 -339.535925 
L 498.618314 -342.343757 
L 494.37158 -345.151588 
L 489.254339 -347.959419 
L 480.875686 -350.767251 
L 462.999326 -353.575082 
L 463.915775 -356.382913 
L 464.645998 -359.190745 
L 412.44 -361.998576 
L 507.84886 -364.806407 
L 525.35114 -364.806407 
L 525.35114 -364.806407 
L 620.76 -361.998576 
L 568.554002 -359.190745 
L 569.284225 -356.382913 
L 570.200674 -353.575082 
L 552.324314 -350.767251 
L 543.945661 -347.959419 
L 538.82842 -345.151588 
L 534.581686 -342.343757 
L 531.157517 -339.535925 
L 528.395709 -336.728094 
L 525.942463 -333.920263 
L 524.10256 -331.112431 
L 522.528696 -328.3046 
L 521.378272 -325.496769 
L 520.205997 -322.688937 
L 519.237448 -319.881106 
L 518.515964 -317.073274 
L 518.127124 -314.265443 
L 517.683452 -311.457612 
L 517.378448 -308.64978 
L 517.217557 -305.841949 
L 517.094416 -303.034118 
L 516.991538 -300.226286 
L 516.916447 -297.418455 
L 516.81856 -294.610624 
L 516.767527 -291.802792 
L 516.753331 -288.994961 
L 516.71589 -286.18713 
L 516.703177 -283.379298 
L 516.682187 -280.571467 
L 516.668567 -277.763636 
L 516.641886 -274.955804 
L 516.627761 -272.147973 
L 516.623525 -269.340141 
L 516.618275 -266.53231 
L 516.611529 -263.724479 
L 516.609601 -260.916647 
L 516.606808 -258.108816 
L 516.605391 -255.300985 
L 516.602123 -252.493153 
L 516.604753 -249.685322 
L 516.605309 -246.877491 
L 516.60196 -244.069659 
L 516.6 -241.261828 
L 516.600001 -238.453997 
L 516.600965 -235.646165 
L 516.600005 -232.838334 
L 516.6 -230.030503 
L 516.6 -227.222671 
L 516.6 -224.41484 
L 516.6 -221.607008 
L 516.6 -218.799177 
L 516.60028 -215.991346 
L 516.600166 -213.183514 
L 516.6 -210.375683 
L 516.6 -207.567852 
L 516.6 -204.76002 
L 516.6 -201.952189 
L 516.6 -199.144358 
L 516.6 -196.336526 
L 516.6 -193.528695 
L 516.6 -190.720864 
L 516.6 -187.913032 
L 516.6 -185.105201 
L 516.6 -182.29737 
L 516.6 -179.489538 
L 516.6 -176.681707 
L 516.6 -173.873876 
L 516.6 -171.066044 
L 516.6 -168.258213 
L 516.6 -165.450381 
L 516.6 -162.64255 
L 516.6 -159.834719 
L 516.6 -157.026887 
L 516.6 -154.219056 
L 516.6 -151.411225 
L 516.6 -148.603393 
L 516.6 -145.795562 
L 516.6 -142.987731 
L 516.6 -140.179899 
L 516.6 -137.372068 
L 516.6 -134.564237 
L 516.6 -131.756405 
L 516.6 -128.948574 
L 516.6 -126.140743 
L 516.6 -123.332911 
L 516.6 -120.52508 
L 516.6 -117.717248 
L 516.6 -114.909417 
L 516.6 -112.101586 
L 516.6 -109.293754 
L 516.6 -106.485923 
L 516.6 -103.678092 
L 516.6 -100.87026 
L 516.6 -98.062429 
L 516.6 -95.254598 
L 516.6 -92.446766 
L 516.600331 -89.638935 
L 516.600134 -86.831104 
z
" style="stroke: #484848; stroke-opacity: 0.5; stroke-width: 1.25"/>
    </defs>
    <g clip-path="url(#p75adbd1c8f)">
     <use xlink:href="#mdf9120d59a" x="0" y="432" style="fill: #477ca8; fill-opacity: 0.5; stroke: #484848; stroke-opacity: 0.5; stroke-width: 1.25"/>
    </g>
   </g>
   <g id="PolyCollection_3">
    <defs>
     <path id="m95a8ec0cfd" d="M 777.000178 -168.116331 
L 776.999822 -168.116331 
L 776.998703 -170.105459 
L 776.999908 -172.094586 
L 777 -174.083714 
L 777 -176.072842 
L 777 -178.06197 
L 777 -180.051098 
L 777 -182.040226 
L 777 -184.029354 
L 777 -186.018482 
L 777 -188.00761 
L 777 -189.996738 
L 777 -191.985866 
L 777 -193.974994 
L 777 -195.964122 
L 777 -197.95325 
L 777 -199.942378 
L 777 -201.931506 
L 777 -203.920634 
L 777 -205.909762 
L 777 -207.89889 
L 777 -209.888018 
L 777 -211.877146 
L 777 -213.866274 
L 777 -215.855402 
L 777 -217.84453 
L 777 -219.833658 
L 777 -221.822786 
L 777 -223.811914 
L 776.99978 -225.801042 
L 776.998733 -227.79017 
L 776.99993 -229.779298 
L 777 -231.768426 
L 776.999805 -233.757554 
L 776.998714 -235.746682 
L 776.999918 -237.73581 
L 776.99999 -239.724938 
L 776.998872 -241.714066 
L 776.997746 -243.703194 
L 776.997138 -245.692322 
L 776.995615 -247.68145 
L 776.993321 -249.670577 
L 776.995584 -251.659705 
L 776.994565 -253.648833 
L 776.99205 -255.637961 
L 776.987603 -257.627089 
L 776.983468 -259.616217 
L 776.983159 -261.605345 
L 776.976343 -263.594473 
L 776.979471 -265.583601 
L 776.958061 -267.572729 
L 776.945568 -269.561857 
L 776.950464 -271.550985 
L 776.92107 -273.540113 
L 776.931149 -275.529241 
L 776.925099 -277.518369 
L 776.881782 -279.507497 
L 776.87019 -281.496625 
L 776.845771 -283.485753 
L 776.812034 -285.474881 
L 776.784995 -287.464009 
L 776.737621 -289.453137 
L 776.689805 -291.442265 
L 776.618257 -293.431393 
L 776.558424 -295.420521 
L 776.506241 -297.409649 
L 776.446283 -299.398777 
L 776.341848 -301.387905 
L 776.190625 -303.377033 
L 776.032371 -305.366161 
L 775.902349 -307.355289 
L 775.712003 -309.344417 
L 775.460292 -311.333545 
L 775.044602 -313.322673 
L 774.665503 -315.311801 
L 774.182969 -317.300929 
L 773.688638 -319.290057 
L 773.009959 -321.279185 
L 772.246115 -323.268313 
L 771.174912 -325.257441 
L 770.424364 -327.246568 
L 769.425723 -329.235696 
L 768.023165 -331.224824 
L 766.833434 -333.213952 
L 765.649297 -335.20308 
L 764.331341 -337.192208 
L 762.654506 -339.181336 
L 760.662294 -341.170464 
L 758.052062 -343.159592 
L 755.647613 -345.14872 
L 752.454977 -347.137848 
L 747.429366 -349.126976 
L 739.356498 -351.116104 
L 723.967091 -353.105232 
L 709.987012 -355.09436 
L 728.84431 -357.083488 
L 722.807494 -359.072616 
L 672.84 -361.061744 
L 673.35335 -363.050872 
L 767.755592 -365.04 
L 786.244408 -365.04 
L 786.244408 -365.04 
L 880.64665 -363.050872 
L 881.16 -361.061744 
L 831.192506 -359.072616 
L 825.15569 -357.083488 
L 844.012988 -355.09436 
L 830.032909 -353.105232 
L 814.643502 -351.116104 
L 806.570634 -349.126976 
L 801.545023 -347.137848 
L 798.352387 -345.14872 
L 795.947938 -343.159592 
L 793.337706 -341.170464 
L 791.345494 -339.181336 
L 789.668659 -337.192208 
L 788.350703 -335.20308 
L 787.166566 -333.213952 
L 785.976835 -331.224824 
L 784.574277 -329.235696 
L 783.575636 -327.246568 
L 782.825088 -325.257441 
L 781.753885 -323.268313 
L 780.990041 -321.279185 
L 780.311362 -319.290057 
L 779.817031 -317.300929 
L 779.334497 -315.311801 
L 778.955398 -313.322673 
L 778.539708 -311.333545 
L 778.287997 -309.344417 
L 778.097651 -307.355289 
L 777.967629 -305.366161 
L 777.809375 -303.377033 
L 777.658152 -301.387905 
L 777.553717 -299.398777 
L 777.493759 -297.409649 
L 777.441576 -295.420521 
L 777.381743 -293.431393 
L 777.310195 -291.442265 
L 777.262379 -289.453137 
L 777.215005 -287.464009 
L 777.187966 -285.474881 
L 777.154229 -283.485753 
L 777.12981 -281.496625 
L 777.118218 -279.507497 
L 777.074901 -277.518369 
L 777.068851 -275.529241 
L 777.07893 -273.540113 
L 777.049536 -271.550985 
L 777.054432 -269.561857 
L 777.041939 -267.572729 
L 777.020529 -265.583601 
L 777.023657 -263.594473 
L 777.016841 -261.605345 
L 777.016532 -259.616217 
L 777.012397 -257.627089 
L 777.00795 -255.637961 
L 777.005435 -253.648833 
L 777.004416 -251.659705 
L 777.006679 -249.670577 
L 777.004385 -247.68145 
L 777.002862 -245.692322 
L 777.002254 -243.703194 
L 777.001128 -241.714066 
L 777.00001 -239.724938 
L 777.000082 -237.73581 
L 777.001286 -235.746682 
L 777.000195 -233.757554 
L 777 -231.768426 
L 777.00007 -229.779298 
L 777.001267 -227.79017 
L 777.00022 -225.801042 
L 777 -223.811914 
L 777 -221.822786 
L 777 -219.833658 
L 777 -217.84453 
L 777 -215.855402 
L 777 -213.866274 
L 777 -211.877146 
L 777 -209.888018 
L 777 -207.89889 
L 777 -205.909762 
L 777 -203.920634 
L 777 -201.931506 
L 777 -199.942378 
L 777 -197.95325 
L 777 -195.964122 
L 777 -193.974994 
L 777 -191.985866 
L 777 -189.996738 
L 777 -188.00761 
L 777 -186.018482 
L 777 -184.029354 
L 777 -182.040226 
L 777 -180.051098 
L 777 -178.06197 
L 777 -176.072842 
L 777 -174.083714 
L 777.000092 -172.094586 
L 777.001297 -170.105459 
L 777.000178 -168.116331 
z
" style="stroke: #484848; stroke-opacity: 0.5; stroke-width: 1.25"/>
    </defs>
    <g clip-path="url(#p75adbd1c8f)">
     <use xlink:href="#m95a8ec0cfd" x="0" y="432" style="fill: #59a257; fill-opacity: 0.5; stroke: #484848; stroke-opacity: 0.5; stroke-width: 1.25"/>
    </g>
   </g>
   <g id="matplotlib.axis_1">
    <g id="xtick_1">
     <g id="line2d_1">
      <defs>
       <path id="ma6066eb3d7" d="M 0 0 
L 0 3.5 
" style="stroke: #000000; stroke-width: 0.8"/>
      </defs>
      <g>
       <use xlink:href="#ma6066eb3d7" x="256.2" y="384.48" style="stroke: #000000; stroke-width: 0.8"/>
      </g>
     </g>
     <g id="text_1">
      <!-- NON -->
      <g transform="translate(235.649062 405.157188) scale(0.18 -0.18)">
       <defs>
        <path id="DejaVuSans-4e" d="M 628 4666 
L 1478 4666 
L 3547 763 
L 3547 4666 
L 4159 4666 
L 4159 0 
L 3309 0 
L 1241 3903 
L 1241 0 
L 628 0 
L 628 4666 
z
" transform="scale(0.015625)"/>
        <path id="DejaVuSans-4f" d="M 2522 4238 
Q 1834 4238 1429 3725 
Q 1025 3213 1025 2328 
Q 1025 1447 1429 934 
Q 1834 422 2522 422 
Q 3209 422 3611 934 
Q 4013 1447 4013 2328 
Q 4013 3213 3611 3725 
Q 3209 4238 2522 4238 
z
M 2522 4750 
Q 3503 4750 4090 4092 
Q 4678 3434 4678 2328 
Q 4678 1225 4090 567 
Q 3503 -91 2522 -91 
Q 1538 -91 948 565 
Q 359 1222 359 2328 
Q 359 3434 948 4092 
Q 1538 4750 2522 4750 
z
" transform="scale(0.015625)"/>
       </defs>
       <use xlink:href="#DejaVuSans-4e"/>
       <use xlink:href="#DejaVuSans-4f" x="74.804688"/>
       <use xlink:href="#DejaVuSans-4e" x="153.515625"/>
      </g>
     </g>
    </g>
    <g id="xtick_2">
     <g id="line2d_2">
      <g>
       <use xlink:href="#ma6066eb3d7" x="516.6" y="384.48" style="stroke: #000000; stroke-width: 0.8"/>
      </g>
     </g>
     <g id="text_2">
      <!-- NEU -->
      <g transform="translate(497.593125 405.157188) scale(0.18 -0.18)">
       <defs>
        <path id="DejaVuSans-45" d="M 628 4666 
L 3578 4666 
L 3578 4134 
L 1259 4134 
L 1259 2753 
L 3481 2753 
L 3481 2222 
L 1259 2222 
L 1259 531 
L 3634 531 
L 3634 0 
L 628 0 
L 628 4666 
z
" transform="scale(0.015625)"/>
        <path id="DejaVuSans-55" d="M 556 4666 
L 1191 4666 
L 1191 1831 
Q 1191 1081 1462 751 
Q 1734 422 2344 422 
Q 2950 422 3222 751 
Q 3494 1081 3494 1831 
L 3494 4666 
L 4128 4666 
L 4128 1753 
Q 4128 841 3676 375 
Q 3225 -91 2344 -91 
Q 1459 -91 1007 375 
Q 556 841 556 1753 
L 556 4666 
z
" transform="scale(0.015625)"/>
       </defs>
       <use xlink:href="#DejaVuSans-4e"/>
       <use xlink:href="#DejaVuSans-45" x="74.804688"/>
       <use xlink:href="#DejaVuSans-55" x="137.988281"/>
      </g>
     </g>
    </g>
    <g id="xtick_3">
     <g id="line2d_3">
      <g>
       <use xlink:href="#ma6066eb3d7" x="777" y="384.48" style="stroke: #000000; stroke-width: 0.8"/>
      </g>
     </g>
     <g id="text_3">
      <!-- BRO -->
      <g transform="translate(757.486875 405.157188) scale(0.18 -0.18)">
       <defs>
        <path id="DejaVuSans-42" d="M 1259 2228 
L 1259 519 
L 2272 519 
Q 2781 519 3026 730 
Q 3272 941 3272 1375 
Q 3272 1813 3026 2020 
Q 2781 2228 2272 2228 
L 1259 2228 
z
M 1259 4147 
L 1259 2741 
L 2194 2741 
Q 2656 2741 2882 2914 
Q 3109 3088 3109 3444 
Q 3109 3797 2882 3972 
Q 2656 4147 2194 4147 
L 1259 4147 
z
M 628 4666 
L 2241 4666 
Q 2963 4666 3353 4366 
Q 3744 4066 3744 3513 
Q 3744 3084 3544 2831 
Q 3344 2578 2956 2516 
Q 3422 2416 3680 2098 
Q 3938 1781 3938 1306 
Q 3938 681 3513 340 
Q 3088 0 2303 0 
L 628 0 
L 628 4666 
z
" transform="scale(0.015625)"/>
        <path id="DejaVuSans-52" d="M 2841 2188 
Q 3044 2119 3236 1894 
Q 3428 1669 3622 1275 
L 4263 0 
L 3584 0 
L 2988 1197 
Q 2756 1666 2539 1819 
Q 2322 1972 1947 1972 
L 1259 1972 
L 1259 0 
L 628 0 
L 628 4666 
L 2053 4666 
Q 2853 4666 3247 4331 
Q 3641 3997 3641 3322 
Q 3641 2881 3436 2590 
Q 3231 2300 2841 2188 
z
M 1259 4147 
L 1259 2491 
L 2053 2491 
Q 2509 2491 2742 2702 
Q 2975 2913 2975 3322 
Q 2975 3731 2742 3939 
Q 2509 4147 2053 4147 
L 1259 4147 
z
" transform="scale(0.015625)"/>
       </defs>
       <use xlink:href="#DejaVuSans-42"/>
       <use xlink:href="#DejaVuSans-52" x="68.603516"/>
       <use xlink:href="#DejaVuSans-4f" x="138.085938"/>
      </g>
     </g>
    </g>
   </g>
   <g id="matplotlib.axis_2">
    <g id="ytick_1">
     <g id="line2d_4">
      <defs>
       <path id="m7289024511" d="M 0 0 
L -3.5 0 
" style="stroke: #000000; stroke-width: 0.8"/>
      </defs>
      <g>
       <use xlink:href="#m7289024511" x="126" y="370.728491" style="stroke: #000000; stroke-width: 0.8"/>
      </g>
     </g>
     <g id="text_4">
      <!-- 0 -->
      <g transform="translate(107.5475 377.567085) scale(0.18 -0.18)">
       <defs>
        <path id="DejaVuSans-30" d="M 2034 4250 
Q 1547 4250 1301 3770 
Q 1056 3291 1056 2328 
Q 1056 1369 1301 889 
Q 1547 409 2034 409 
Q 2525 409 2770 889 
Q 3016 1369 3016 2328 
Q 3016 3291 2770 3770 
Q 2525 4250 2034 4250 
z
M 2034 4750 
Q 2819 4750 3233 4129 
Q 3647 3509 3647 2328 
Q 3647 1150 3233 529 
Q 2819 -91 2034 -91 
Q 1250 -91 836 529 
Q 422 1150 422 2328 
Q 422 3509 836 4129 
Q 1250 4750 2034 4750 
z
" transform="scale(0.015625)"/>
       </defs>
       <use xlink:href="#DejaVuSans-30"/>
      </g>
     </g>
    </g>
    <g id="ytick_2">
     <g id="line2d_5">
      <g>
       <use xlink:href="#m7289024511" x="126" y="310.34418" style="stroke: #000000; stroke-width: 0.8"/>
      </g>
     </g>
     <g id="text_5">
      <!-- 20 -->
      <g transform="translate(96.095 317.182774) scale(0.18 -0.18)">
       <defs>
        <path id="DejaVuSans-32" d="M 1228 531 
L 3431 531 
L 3431 0 
L 469 0 
L 469 531 
Q 828 903 1448 1529 
Q 2069 2156 2228 2338 
Q 2531 2678 2651 2914 
Q 2772 3150 2772 3378 
Q 2772 3750 2511 3984 
Q 2250 4219 1831 4219 
Q 1534 4219 1204 4116 
Q 875 4013 500 3803 
L 500 4441 
Q 881 4594 1212 4672 
Q 1544 4750 1819 4750 
Q 2544 4750 2975 4387 
Q 3406 4025 3406 3419 
Q 3406 3131 3298 2873 
Q 3191 2616 2906 2266 
Q 2828 2175 2409 1742 
Q 1991 1309 1228 531 
z
" transform="scale(0.015625)"/>
       </defs>
       <use xlink:href="#DejaVuSans-32"/>
       <use xlink:href="#DejaVuSans-30" x="63.623047"/>
      </g>
     </g>
    </g>
    <g id="ytick_3">
     <g id="line2d_6">
      <g>
       <use xlink:href="#m7289024511" x="126" y="249.95987" style="stroke: #000000; stroke-width: 0.8"/>
      </g>
     </g>
     <g id="text_6">
      <!-- 40 -->
      <g transform="translate(96.095 256.798464) scale(0.18 -0.18)">
       <defs>
        <path id="DejaVuSans-34" d="M 2419 4116 
L 825 1625 
L 2419 1625 
L 2419 4116 
z
M 2253 4666 
L 3047 4666 
L 3047 1625 
L 3713 1625 
L 3713 1100 
L 3047 1100 
L 3047 0 
L 2419 0 
L 2419 1100 
L 313 1100 
L 313 1709 
L 2253 4666 
z
" transform="scale(0.015625)"/>
       </defs>
       <use xlink:href="#DejaVuSans-34"/>
       <use xlink:href="#DejaVuSans-30" x="63.623047"/>
      </g>
     </g>
    </g>
    <g id="ytick_4">
     <g id="line2d_7">
      <g>
       <use xlink:href="#m7289024511" x="126" y="189.575559" style="stroke: #000000; stroke-width: 0.8"/>
      </g>
     </g>
     <g id="text_7">
      <!-- 60 -->
      <g transform="translate(96.095 196.414153) scale(0.18 -0.18)">
       <defs>
        <path id="DejaVuSans-36" d="M 2113 2584 
Q 1688 2584 1439 2293 
Q 1191 2003 1191 1497 
Q 1191 994 1439 701 
Q 1688 409 2113 409 
Q 2538 409 2786 701 
Q 3034 994 3034 1497 
Q 3034 2003 2786 2293 
Q 2538 2584 2113 2584 
z
M 3366 4563 
L 3366 3988 
Q 3128 4100 2886 4159 
Q 2644 4219 2406 4219 
Q 1781 4219 1451 3797 
Q 1122 3375 1075 2522 
Q 1259 2794 1537 2939 
Q 1816 3084 2150 3084 
Q 2853 3084 3261 2657 
Q 3669 2231 3669 1497 
Q 3669 778 3244 343 
Q 2819 -91 2113 -91 
Q 1303 -91 875 529 
Q 447 1150 447 2328 
Q 447 3434 972 4092 
Q 1497 4750 2381 4750 
Q 2619 4750 2861 4703 
Q 3103 4656 3366 4563 
z
" transform="scale(0.015625)"/>
       </defs>
       <use xlink:href="#DejaVuSans-36"/>
       <use xlink:href="#DejaVuSans-30" x="63.623047"/>
      </g>
     </g>
    </g>
    <g id="ytick_5">
     <g id="line2d_8">
      <g>
       <use xlink:href="#m7289024511" x="126" y="129.191248" style="stroke: #000000; stroke-width: 0.8"/>
      </g>
     </g>
     <g id="text_8">
      <!-- 80 -->
      <g transform="translate(96.095 136.029842) scale(0.18 -0.18)">
       <defs>
        <path id="DejaVuSans-38" d="M 2034 2216 
Q 1584 2216 1326 1975 
Q 1069 1734 1069 1313 
Q 1069 891 1326 650 
Q 1584 409 2034 409 
Q 2484 409 2743 651 
Q 3003 894 3003 1313 
Q 3003 1734 2745 1975 
Q 2488 2216 2034 2216 
z
M 1403 2484 
Q 997 2584 770 2862 
Q 544 3141 544 3541 
Q 544 4100 942 4425 
Q 1341 4750 2034 4750 
Q 2731 4750 3128 4425 
Q 3525 4100 3525 3541 
Q 3525 3141 3298 2862 
Q 3072 2584 2669 2484 
Q 3125 2378 3379 2068 
Q 3634 1759 3634 1313 
Q 3634 634 3220 271 
Q 2806 -91 2034 -91 
Q 1263 -91 848 271 
Q 434 634 434 1313 
Q 434 1759 690 2068 
Q 947 2378 1403 2484 
z
M 1172 3481 
Q 1172 3119 1398 2916 
Q 1625 2713 2034 2713 
Q 2441 2713 2670 2916 
Q 2900 3119 2900 3481 
Q 2900 3844 2670 4047 
Q 2441 4250 2034 4250 
Q 1625 4250 1398 4047 
Q 1172 3844 1172 3481 
z
" transform="scale(0.015625)"/>
       </defs>
       <use xlink:href="#DejaVuSans-38"/>
       <use xlink:href="#DejaVuSans-30" x="63.623047"/>
      </g>
     </g>
    </g>
    <g id="ytick_6">
     <g id="line2d_9">
      <g>
       <use xlink:href="#m7289024511" x="126" y="68.806938" style="stroke: #000000; stroke-width: 0.8"/>
      </g>
     </g>
     <g id="text_9">
      <!-- 100 -->
      <g transform="translate(84.6425 75.645531) scale(0.18 -0.18)">
       <defs>
        <path id="DejaVuSans-31" d="M 794 531 
L 1825 531 
L 1825 4091 
L 703 3866 
L 703 4441 
L 1819 4666 
L 2450 4666 
L 2450 531 
L 3481 531 
L 3481 0 
L 794 0 
L 794 531 
z
" transform="scale(0.015625)"/>
       </defs>
       <use xlink:href="#DejaVuSans-31"/>
       <use xlink:href="#DejaVuSans-30" x="63.623047"/>
       <use xlink:href="#DejaVuSans-30" x="127.246094"/>
      </g>
     </g>
    </g>
    <g id="text_10">
     <!-- v_identity -->
     <g transform="translate(76.398438 262.326094) rotate(-90) scale(0.18 -0.18)">
      <defs>
       <path id="DejaVuSans-76" d="M 191 3500 
L 800 3500 
L 1894 563 
L 2988 3500 
L 3597 3500 
L 2284 0 
L 1503 0 
L 191 3500 
z
" transform="scale(0.015625)"/>
       <path id="DejaVuSans-5f" d="M 3263 -1063 
L 3263 -1509 
L -63 -1509 
L -63 -1063 
L 3263 -1063 
z
" transform="scale(0.015625)"/>
       <path id="DejaVuSans-69" d="M 603 3500 
L 1178 3500 
L 1178 0 
L 603 0 
L 603 3500 
z
M 603 4863 
L 1178 4863 
L 1178 4134 
L 603 4134 
L 603 4863 
z
" transform="scale(0.015625)"/>
       <path id="DejaVuSans-64" d="M 2906 2969 
L 2906 4863 
L 3481 4863 
L 3481 0 
L 2906 0 
L 2906 525 
Q 2725 213 2448 61 
Q 2172 -91 1784 -91 
Q 1150 -91 751 415 
Q 353 922 353 1747 
Q 353 2572 751 3078 
Q 1150 3584 1784 3584 
Q 2172 3584 2448 3432 
Q 2725 3281 2906 2969 
z
M 947 1747 
Q 947 1113 1208 752 
Q 1469 391 1925 391 
Q 2381 391 2643 752 
Q 2906 1113 2906 1747 
Q 2906 2381 2643 2742 
Q 2381 3103 1925 3103 
Q 1469 3103 1208 2742 
Q 947 2381 947 1747 
z
" transform="scale(0.015625)"/>
       <path id="DejaVuSans-65" d="M 3597 1894 
L 3597 1613 
L 953 1613 
Q 991 1019 1311 708 
Q 1631 397 2203 397 
Q 2534 397 2845 478 
Q 3156 559 3463 722 
L 3463 178 
Q 3153 47 2828 -22 
Q 2503 -91 2169 -91 
Q 1331 -91 842 396 
Q 353 884 353 1716 
Q 353 2575 817 3079 
Q 1281 3584 2069 3584 
Q 2775 3584 3186 3129 
Q 3597 2675 3597 1894 
z
M 3022 2063 
Q 3016 2534 2758 2815 
Q 2500 3097 2075 3097 
Q 1594 3097 1305 2825 
Q 1016 2553 972 2059 
L 3022 2063 
z
" transform="scale(0.015625)"/>
       <path id="DejaVuSans-6e" d="M 3513 2113 
L 3513 0 
L 2938 0 
L 2938 2094 
Q 2938 2591 2744 2837 
Q 2550 3084 2163 3084 
Q 1697 3084 1428 2787 
Q 1159 2491 1159 1978 
L 1159 0 
L 581 0 
L 581 3500 
L 1159 3500 
L 1159 2956 
Q 1366 3272 1645 3428 
Q 1925 3584 2291 3584 
Q 2894 3584 3203 3211 
Q 3513 2838 3513 2113 
z
" transform="scale(0.015625)"/>
       <path id="DejaVuSans-74" d="M 1172 4494 
L 1172 3500 
L 2356 3500 
L 2356 3053 
L 1172 3053 
L 1172 1153 
Q 1172 725 1289 603 
Q 1406 481 1766 481 
L 2356 481 
L 2356 0 
L 1766 0 
Q 1100 0 847 248 
Q 594 497 594 1153 
L 594 3053 
L 172 3053 
L 172 3500 
L 594 3500 
L 594 4494 
L 1172 4494 
z
" transform="scale(0.015625)"/>
       <path id="DejaVuSans-79" d="M 2059 -325 
Q 1816 -950 1584 -1140 
Q 1353 -1331 966 -1331 
L 506 -1331 
L 506 -850 
L 844 -850 
Q 1081 -850 1212 -737 
Q 1344 -625 1503 -206 
L 1606 56 
L 191 3500 
L 800 3500 
L 1894 763 
L 2988 3500 
L 3597 3500 
L 2059 -325 
z
" transform="scale(0.015625)"/>
      </defs>
      <use xlink:href="#DejaVuSans-76"/>
      <use xlink:href="#DejaVuSans-5f" x="59.179688"/>
      <use xlink:href="#DejaVuSans-69" x="109.179688"/>
      <use xlink:href="#DejaVuSans-64" x="136.962891"/>
      <use xlink:href="#DejaVuSans-65" x="200.439453"/>
      <use xlink:href="#DejaVuSans-6e" x="261.962891"/>
      <use xlink:href="#DejaVuSans-74" x="325.341797"/>
      <use xlink:href="#DejaVuSans-69" x="364.550781"/>
      <use xlink:href="#DejaVuSans-74" x="392.333984"/>
      <use xlink:href="#DejaVuSans-79" x="431.542969"/>
     </g>
    </g>
   </g>
   <g id="line2d_10">
    <path d="M 256.2 104.518219 
L 256.2 68.806938 
" clip-path="url(#p75adbd1c8f)" style="fill: none; stroke: #484848; stroke-width: 1.875; stroke-linecap: square"/>
   </g>
   <g id="line2d_11">
    <path d="M 256.2 84.506858 
L 256.2 71.164945 
" clip-path="url(#p75adbd1c8f)" style="fill: none; stroke: #484848; stroke-width: 5.625; stroke-linecap: square"/>
   </g>
   <g id="line2d_12">
    <path d="M 256.2 77.094684 
" clip-path="url(#p75adbd1c8f)" style="fill: none; stroke: #484848; stroke-width: 1.5; stroke-linecap: square"/>
    <defs>
     <path id="meaafa1391f" d="M 2.34375 0 
L -2.34375 -0 
" style="stroke: #ffffff; stroke-width: 1.125"/>
    </defs>
    <g clip-path="url(#p75adbd1c8f)">
     <use xlink:href="#meaafa1391f" x="256.2" y="77.094684" style="fill: #ffffff; stroke: #ffffff; stroke-width: 1.125"/>
    </g>
   </g>
   <g id="line2d_13">
    <path d="M 516.6 106.423344 
L 516.6 68.806938 
" clip-path="url(#p75adbd1c8f)" style="fill: none; stroke: #484848; stroke-width: 1.875; stroke-linecap: square"/>
   </g>
   <g id="line2d_14">
    <path d="M 516.6 85.319027 
L 516.6 71.195137 
" clip-path="url(#p75adbd1c8f)" style="fill: none; stroke: #484848; stroke-width: 5.625; stroke-linecap: square"/>
   </g>
   <g id="line2d_15">
    <path d="M 516.6 77.127896 
" clip-path="url(#p75adbd1c8f)" style="fill: none; stroke: #484848; stroke-width: 1.5; stroke-linecap: square"/>
    <g clip-path="url(#p75adbd1c8f)">
     <use xlink:href="#meaafa1391f" x="516.6" y="77.127896" style="fill: #ffffff; stroke: #ffffff; stroke-width: 1.125"/>
    </g>
   </g>
   <g id="line2d_16">
    <path d="M 777 106.199922 
L 777 68.806938 
" clip-path="url(#p75adbd1c8f)" style="fill: none; stroke: #484848; stroke-width: 1.875; stroke-linecap: square"/>
   </g>
   <g id="line2d_17">
    <path d="M 777 85.189201 
L 777 71.164945 
" clip-path="url(#p75adbd1c8f)" style="fill: none; stroke: #484848; stroke-width: 5.625; stroke-linecap: square"/>
   </g>
   <g id="line2d_18">
    <path d="M 777 77.061473 
" clip-path="url(#p75adbd1c8f)" style="fill: none; stroke: #484848; stroke-width: 1.5; stroke-linecap: square"/>
    <g clip-path="url(#p75adbd1c8f)">
     <use xlink:href="#meaafa1391f" x="777" y="77.061473" style="fill: #ffffff; stroke: #ffffff; stroke-width: 1.125"/>
    </g>
   </g>
   <g id="patch_3">
    <path d="M 126 384.48 
L 126 51.84 
" style="fill: none; stroke: #000000; stroke-width: 0.8; stroke-linejoin: miter; stroke-linecap: square"/>
   </g>
   <g id="patch_4">
    <path d="M 907.2 384.48 
L 907.2 51.84 
" style="fill: none; stroke: #000000; stroke-width: 0.8; stroke-linejoin: miter; stroke-linecap: square"/>
   </g>
   <g id="patch_5">
    <path d="M 126 384.48 
L 907.2 384.48 
" style="fill: none; stroke: #000000; stroke-width: 0.8; stroke-linejoin: miter; stroke-linecap: square"/>
   </g>
   <g id="patch_6">
    <path d="M 126 51.84 
L 907.2 51.84 
" style="fill: none; stroke: #000000; stroke-width: 0.8; stroke-linejoin: miter; stroke-linecap: square"/>
   </g>
  </g>
 </g>
 <defs>
  <clipPath id="p75adbd1c8f">
   <rect x="126" y="51.84" width="781.2" height="332.64"/>
  </clipPath>
 </defs>
</svg>
