<?xml version="1.0" encoding="utf-8" standalone="no"?>
<!DOCTYPE svg PUBLIC "-//W3C//DTD SVG 1.1//EN"
  "http://www.w3.org/Graphics/SVG/1.1/DTD/svg11.dtd">
<svg xmlns:xlink="http://www.w3.org/1999/xlink" width="1584pt" height="720pt" viewBox="0 0 1584 720" xmlns="http://www.w3.org/2000/svg" version="1.1">
 <metadata>
  <rdf:RDF xmlns:dc="http://purl.org/dc/elements/1.1/" xmlns:cc="http://creativecommons.org/ns#" xmlns:rdf="http://www.w3.org/1999/02/22-rdf-syntax-ns#">
   <cc:Work>
    <dc:type rdf:resource="http://purl.org/dc/dcmitype/StillImage"/>
    <dc:date>2023-11-17T11:28:16.165232</dc:date>
    <dc:format>image/svg+xml</dc:format>
    <dc:creator>
     <cc:Agent>
      <dc:title>Matplotlib v3.7.1, https://matplotlib.org/</dc:title>
     </cc:Agent>
    </dc:creator>
   </cc:Work>
  </rdf:RDF>
 </metadata>
 <defs>
  <style type="text/css">*{stroke-linejoin: round; stroke-linecap: butt}</style>
 </defs>
 <g id="figure_1">
  <g id="patch_1">
   <path d="M 0 720 
L 1584 720 
L 1584 0 
L 0 0 
z
" style="fill: #ffffff"/>
  </g>
  <g id="axes_1">
   <g id="patch_2">
    <path d="M 198 640.8 
L 559.058824 640.8 
L 559.058824 86.4 
L 198 86.4 
z
" style="fill: #ffffff"/>
   </g>
   <g id="matplotlib.axis_1"/>
   <g id="matplotlib.axis_2">
    <g id="ytick_1">
     <g id="line2d_1">
      <path d="M 198 565.2 
L 559.058824 565.2 
" clip-path="url(#pec1f59fb87)" style="fill: none; stroke: #cccccc; stroke-linecap: round"/>
     </g>
     <g id="text_1">
      <!-- −0.04 -->
      <g style="fill: #262626" transform="translate(127.209375 572.798437) scale(0.2 -0.2)">
       <defs>
        <path id="DejaVuSans-2212" d="M 678 2272 
L 4684 2272 
L 4684 1741 
L 678 1741 
L 678 2272 
z
" transform="scale(0.015625)"/>
        <path id="DejaVuSans-30" d="M 2034 4250 
Q 1547 4250 1301 3770 
Q 1056 3291 1056 2328 
Q 1056 1369 1301 889 
Q 1547 409 2034 409 
Q 2525 409 2770 889 
Q 3016 1369 3016 2328 
Q 3016 3291 2770 3770 
Q 2525 4250 2034 4250 
z
M 2034 4750 
Q 2819 4750 3233 4129 
Q 3647 3509 3647 2328 
Q 3647 1150 3233 529 
Q 2819 -91 2034 -91 
Q 1250 -91 836 529 
Q 422 1150 422 2328 
Q 422 3509 836 4129 
Q 1250 4750 2034 4750 
z
" transform="scale(0.015625)"/>
        <path id="DejaVuSans-2e" d="M 684 794 
L 1344 794 
L 1344 0 
L 684 0 
L 684 794 
z
" transform="scale(0.015625)"/>
        <path id="DejaVuSans-34" d="M 2419 4116 
L 825 1625 
L 2419 1625 
L 2419 4116 
z
M 2253 4666 
L 3047 4666 
L 3047 1625 
L 3713 1625 
L 3713 1100 
L 3047 1100 
L 3047 0 
L 2419 0 
L 2419 1100 
L 313 1100 
L 313 1709 
L 2253 4666 
z
" transform="scale(0.015625)"/>
       </defs>
       <use xlink:href="#DejaVuSans-2212"/>
       <use xlink:href="#DejaVuSans-30" x="83.789062"/>
       <use xlink:href="#DejaVuSans-2e" x="147.412109"/>
       <use xlink:href="#DejaVuSans-30" x="179.199219"/>
       <use xlink:href="#DejaVuSans-34" x="242.822266"/>
      </g>
     </g>
    </g>
    <g id="ytick_2">
     <g id="line2d_2">
      <path d="M 198 464.4 
L 559.058824 464.4 
" clip-path="url(#pec1f59fb87)" style="fill: none; stroke: #cccccc; stroke-linecap: round"/>
     </g>
     <g id="text_2">
      <!-- −0.02 -->
      <g style="fill: #262626" transform="translate(127.209375 471.998437) scale(0.2 -0.2)">
       <defs>
        <path id="DejaVuSans-32" d="M 1228 531 
L 3431 531 
L 3431 0 
L 469 0 
L 469 531 
Q 828 903 1448 1529 
Q 2069 2156 2228 2338 
Q 2531 2678 2651 2914 
Q 2772 3150 2772 3378 
Q 2772 3750 2511 3984 
Q 2250 4219 1831 4219 
Q 1534 4219 1204 4116 
Q 875 4013 500 3803 
L 500 4441 
Q 881 4594 1212 4672 
Q 1544 4750 1819 4750 
Q 2544 4750 2975 4387 
Q 3406 4025 3406 3419 
Q 3406 3131 3298 2873 
Q 3191 2616 2906 2266 
Q 2828 2175 2409 1742 
Q 1991 1309 1228 531 
z
" transform="scale(0.015625)"/>
       </defs>
       <use xlink:href="#DejaVuSans-2212"/>
       <use xlink:href="#DejaVuSans-30" x="83.789062"/>
       <use xlink:href="#DejaVuSans-2e" x="147.412109"/>
       <use xlink:href="#DejaVuSans-30" x="179.199219"/>
       <use xlink:href="#DejaVuSans-32" x="242.822266"/>
      </g>
     </g>
    </g>
    <g id="ytick_3">
     <g id="line2d_3">
      <path d="M 198 363.6 
L 559.058824 363.6 
" clip-path="url(#pec1f59fb87)" style="fill: none; stroke: #cccccc; stroke-linecap: round"/>
     </g>
     <g id="text_3">
      <!-- 0.00 -->
      <g style="fill: #262626" transform="translate(143.96875 371.198437) scale(0.2 -0.2)">
       <use xlink:href="#DejaVuSans-30"/>
       <use xlink:href="#DejaVuSans-2e" x="63.623047"/>
       <use xlink:href="#DejaVuSans-30" x="95.410156"/>
       <use xlink:href="#DejaVuSans-30" x="159.033203"/>
      </g>
     </g>
    </g>
    <g id="ytick_4">
     <g id="line2d_4">
      <path d="M 198 262.8 
L 559.058824 262.8 
" clip-path="url(#pec1f59fb87)" style="fill: none; stroke: #cccccc; stroke-linecap: round"/>
     </g>
     <g id="text_4">
      <!-- 0.02 -->
      <g style="fill: #262626" transform="translate(143.96875 270.398437) scale(0.2 -0.2)">
       <use xlink:href="#DejaVuSans-30"/>
       <use xlink:href="#DejaVuSans-2e" x="63.623047"/>
       <use xlink:href="#DejaVuSans-30" x="95.410156"/>
       <use xlink:href="#DejaVuSans-32" x="159.033203"/>
      </g>
     </g>
    </g>
    <g id="ytick_5">
     <g id="line2d_5">
      <path d="M 198 162 
L 559.058824 162 
" clip-path="url(#pec1f59fb87)" style="fill: none; stroke: #cccccc; stroke-linecap: round"/>
     </g>
     <g id="text_5">
      <!-- 0.04 -->
      <g style="fill: #262626" transform="translate(143.96875 169.598437) scale(0.2 -0.2)">
       <use xlink:href="#DejaVuSans-30"/>
       <use xlink:href="#DejaVuSans-2e" x="63.623047"/>
       <use xlink:href="#DejaVuSans-30" x="95.410156"/>
       <use xlink:href="#DejaVuSans-34" x="159.033203"/>
      </g>
     </g>
    </g>
    <g id="text_6">
     <!-- % detected -->
     <g style="fill: #262626" transform="translate(111.05 420.775) rotate(-90) scale(0.2 -0.2)">
      <defs>
       <path id="DejaVuSans-25" d="M 4653 2053 
Q 4381 2053 4226 1822 
Q 4072 1591 4072 1178 
Q 4072 772 4226 539 
Q 4381 306 4653 306 
Q 4919 306 5073 539 
Q 5228 772 5228 1178 
Q 5228 1588 5073 1820 
Q 4919 2053 4653 2053 
z
M 4653 2450 
Q 5147 2450 5437 2106 
Q 5728 1763 5728 1178 
Q 5728 594 5436 251 
Q 5144 -91 4653 -91 
Q 4153 -91 3862 251 
Q 3572 594 3572 1178 
Q 3572 1766 3864 2108 
Q 4156 2450 4653 2450 
z
M 1428 4353 
Q 1159 4353 1004 4120 
Q 850 3888 850 3481 
Q 850 3069 1003 2837 
Q 1156 2606 1428 2606 
Q 1700 2606 1854 2837 
Q 2009 3069 2009 3481 
Q 2009 3884 1853 4118 
Q 1697 4353 1428 4353 
z
M 4250 4750 
L 4750 4750 
L 1831 -91 
L 1331 -91 
L 4250 4750 
z
M 1428 4750 
Q 1922 4750 2215 4408 
Q 2509 4066 2509 3481 
Q 2509 2891 2217 2550 
Q 1925 2209 1428 2209 
Q 931 2209 642 2551 
Q 353 2894 353 3481 
Q 353 4063 643 4406 
Q 934 4750 1428 4750 
z
" transform="scale(0.015625)"/>
       <path id="DejaVuSans-20" transform="scale(0.015625)"/>
       <path id="DejaVuSans-64" d="M 2906 2969 
L 2906 4863 
L 3481 4863 
L 3481 0 
L 2906 0 
L 2906 525 
Q 2725 213 2448 61 
Q 2172 -91 1784 -91 
Q 1150 -91 751 415 
Q 353 922 353 1747 
Q 353 2572 751 3078 
Q 1150 3584 1784 3584 
Q 2172 3584 2448 3432 
Q 2725 3281 2906 2969 
z
M 947 1747 
Q 947 1113 1208 752 
Q 1469 391 1925 391 
Q 2381 391 2643 752 
Q 2906 1113 2906 1747 
Q 2906 2381 2643 2742 
Q 2381 3103 1925 3103 
Q 1469 3103 1208 2742 
Q 947 2381 947 1747 
z
" transform="scale(0.015625)"/>
       <path id="DejaVuSans-65" d="M 3597 1894 
L 3597 1613 
L 953 1613 
Q 991 1019 1311 708 
Q 1631 397 2203 397 
Q 2534 397 2845 478 
Q 3156 559 3463 722 
L 3463 178 
Q 3153 47 2828 -22 
Q 2503 -91 2169 -91 
Q 1331 -91 842 396 
Q 353 884 353 1716 
Q 353 2575 817 3079 
Q 1281 3584 2069 3584 
Q 2775 3584 3186 3129 
Q 3597 2675 3597 1894 
z
M 3022 2063 
Q 3016 2534 2758 2815 
Q 2500 3097 2075 3097 
Q 1594 3097 1305 2825 
Q 1016 2553 972 2059 
L 3022 2063 
z
" transform="scale(0.015625)"/>
       <path id="DejaVuSans-74" d="M 1172 4494 
L 1172 3500 
L 2356 3500 
L 2356 3053 
L 1172 3053 
L 1172 1153 
Q 1172 725 1289 603 
Q 1406 481 1766 481 
L 2356 481 
L 2356 0 
L 1766 0 
Q 1100 0 847 248 
Q 594 497 594 1153 
L 594 3053 
L 172 3053 
L 172 3500 
L 594 3500 
L 594 4494 
L 1172 4494 
z
" transform="scale(0.015625)"/>
       <path id="DejaVuSans-63" d="M 3122 3366 
L 3122 2828 
Q 2878 2963 2633 3030 
Q 2388 3097 2138 3097 
Q 1578 3097 1268 2742 
Q 959 2388 959 1747 
Q 959 1106 1268 751 
Q 1578 397 2138 397 
Q 2388 397 2633 464 
Q 2878 531 3122 666 
L 3122 134 
Q 2881 22 2623 -34 
Q 2366 -91 2075 -91 
Q 1284 -91 818 406 
Q 353 903 353 1747 
Q 353 2603 823 3093 
Q 1294 3584 2113 3584 
Q 2378 3584 2631 3529 
Q 2884 3475 3122 3366 
z
" transform="scale(0.015625)"/>
      </defs>
      <use xlink:href="#DejaVuSans-25"/>
      <use xlink:href="#DejaVuSans-20" x="95.019531"/>
      <use xlink:href="#DejaVuSans-64" x="126.806641"/>
      <use xlink:href="#DejaVuSans-65" x="190.283203"/>
      <use xlink:href="#DejaVuSans-74" x="251.806641"/>
      <use xlink:href="#DejaVuSans-65" x="291.015625"/>
      <use xlink:href="#DejaVuSans-63" x="352.539062"/>
      <use xlink:href="#DejaVuSans-74" x="407.519531"/>
      <use xlink:href="#DejaVuSans-65" x="446.728516"/>
      <use xlink:href="#DejaVuSans-64" x="508.251953"/>
     </g>
    </g>
   </g>
   <g id="PolyCollection_1">
    <defs>
     <path id="me4277906de" d="M 542.647059 -356.4 
L 214.411765 -356.4 
L 214.411765 -356.4 
L 214.411765 -356.4 
L 214.411765 -356.4 
L 214.411765 -356.4 
L 214.411765 -356.4 
L 214.411765 -356.4 
L 214.411765 -356.4 
L 214.411765 -356.4 
L 214.411765 -356.4 
L 214.411765 -356.4 
L 214.411765 -356.4 
L 214.411765 -356.4 
L 214.411765 -356.4 
L 214.411765 -356.4 
L 214.411765 -356.4 
L 214.411765 -356.4 
L 214.411765 -356.4 
L 214.411765 -356.4 
L 214.411765 -356.4 
L 214.411765 -356.4 
L 214.411765 -356.4 
L 214.411765 -356.4 
L 214.411765 -356.4 
L 214.411765 -356.4 
L 214.411765 -356.4 
L 214.411765 -356.4 
L 214.411765 -356.4 
L 214.411765 -356.4 
L 214.411765 -356.4 
L 214.411765 -356.4 
L 214.411765 -356.4 
L 214.411765 -356.4 
L 214.411765 -356.4 
L 214.411765 -356.4 
L 214.411765 -356.4 
L 214.411765 -356.4 
L 214.411765 -356.4 
L 214.411765 -356.4 
L 214.411765 -356.4 
L 214.411765 -356.4 
L 214.411765 -356.4 
L 214.411765 -356.4 
L 214.411765 -356.4 
L 214.411765 -356.4 
L 214.411765 -356.4 
L 214.411765 -356.4 
L 214.411765 -356.4 
L 214.411765 -356.4 
L 214.411765 -356.4 
L 214.411765 -356.4 
L 214.411765 -356.4 
L 214.411765 -356.4 
L 214.411765 -356.4 
L 214.411765 -356.4 
L 214.411765 -356.4 
L 214.411765 -356.4 
L 214.411765 -356.4 
L 214.411765 -356.4 
L 214.411765 -356.4 
L 214.411765 -356.4 
L 214.411765 -356.4 
L 214.411765 -356.4 
L 214.411765 -356.4 
L 214.411765 -356.4 
L 214.411765 -356.4 
L 214.411765 -356.4 
L 214.411765 -356.4 
L 214.411765 -356.4 
L 214.411765 -356.4 
L 214.411765 -356.4 
L 214.411765 -356.4 
L 214.411765 -356.4 
L 214.411765 -356.4 
L 214.411765 -356.4 
L 214.411765 -356.4 
L 214.411765 -356.4 
L 214.411765 -356.4 
L 214.411765 -356.4 
L 214.411765 -356.4 
L 214.411765 -356.4 
L 214.411765 -356.4 
L 214.411765 -356.4 
L 214.411765 -356.4 
L 214.411765 -356.4 
L 214.411765 -356.4 
L 214.411765 -356.4 
L 214.411765 -356.4 
L 214.411765 -356.4 
L 214.411765 -356.4 
L 214.411765 -356.4 
L 214.411765 -356.4 
L 214.411765 -356.4 
L 214.411765 -356.4 
L 214.411765 -356.4 
L 214.411765 -356.4 
L 214.411765 -356.4 
L 214.411765 -356.4 
L 214.411765 -356.4 
L 214.411765 -356.4 
L 542.647059 -356.4 
L 542.647059 -356.4 
L 542.647059 -356.4 
L 542.647059 -356.4 
L 542.647059 -356.4 
L 542.647059 -356.4 
L 542.647059 -356.4 
L 542.647059 -356.4 
L 542.647059 -356.4 
L 542.647059 -356.4 
L 542.647059 -356.4 
L 542.647059 -356.4 
L 542.647059 -356.4 
L 542.647059 -356.4 
L 542.647059 -356.4 
L 542.647059 -356.4 
L 542.647059 -356.4 
L 542.647059 -356.4 
L 542.647059 -356.4 
L 542.647059 -356.4 
L 542.647059 -356.4 
L 542.647059 -356.4 
L 542.647059 -356.4 
L 542.647059 -356.4 
L 542.647059 -356.4 
L 542.647059 -356.4 
L 542.647059 -356.4 
L 542.647059 -356.4 
L 542.647059 -356.4 
L 542.647059 -356.4 
L 542.647059 -356.4 
L 542.647059 -356.4 
L 542.647059 -356.4 
L 542.647059 -356.4 
L 542.647059 -356.4 
L 542.647059 -356.4 
L 542.647059 -356.4 
L 542.647059 -356.4 
L 542.647059 -356.4 
L 542.647059 -356.4 
L 542.647059 -356.4 
L 542.647059 -356.4 
L 542.647059 -356.4 
L 542.647059 -356.4 
L 542.647059 -356.4 
L 542.647059 -356.4 
L 542.647059 -356.4 
L 542.647059 -356.4 
L 542.647059 -356.4 
L 542.647059 -356.4 
L 542.647059 -356.4 
L 542.647059 -356.4 
L 542.647059 -356.4 
L 542.647059 -356.4 
L 542.647059 -356.4 
L 542.647059 -356.4 
L 542.647059 -356.4 
L 542.647059 -356.4 
L 542.647059 -356.4 
L 542.647059 -356.4 
L 542.647059 -356.4 
L 542.647059 -356.4 
L 542.647059 -356.4 
L 542.647059 -356.4 
L 542.647059 -356.4 
L 542.647059 -356.4 
L 542.647059 -356.4 
L 542.647059 -356.4 
L 542.647059 -356.4 
L 542.647059 -356.4 
L 542.647059 -356.4 
L 542.647059 -356.4 
L 542.647059 -356.4 
L 542.647059 -356.4 
L 542.647059 -356.4 
L 542.647059 -356.4 
L 542.647059 -356.4 
L 542.647059 -356.4 
L 542.647059 -356.4 
L 542.647059 -356.4 
L 542.647059 -356.4 
L 542.647059 -356.4 
L 542.647059 -356.4 
L 542.647059 -356.4 
L 542.647059 -356.4 
L 542.647059 -356.4 
L 542.647059 -356.4 
L 542.647059 -356.4 
L 542.647059 -356.4 
L 542.647059 -356.4 
L 542.647059 -356.4 
L 542.647059 -356.4 
L 542.647059 -356.4 
L 542.647059 -356.4 
L 542.647059 -356.4 
L 542.647059 -356.4 
L 542.647059 -356.4 
L 542.647059 -356.4 
L 542.647059 -356.4 
L 542.647059 -356.4 
L 542.647059 -356.4 
z
" style="stroke: #ffffff; stroke-opacity: 0.3"/>
    </defs>
    <g clip-path="url(#pec1f59fb87)">
     <use xlink:href="#me4277906de" x="0" y="720" style="fill: #e41a1c; fill-opacity: 0.3; stroke: #ffffff; stroke-opacity: 0.3"/>
    </g>
   </g>
   <g id="LineCollection_1">
    <path d="M 296.470588 363.6 
L 460.588235 363.6 
" clip-path="url(#pec1f59fb87)" style="fill: none; stroke: #4c72b0; stroke-width: 1.5"/>
   </g>
   <g id="LineCollection_2">
    <path d="M 296.470588 363.6 
L 460.588235 363.6 
" clip-path="url(#pec1f59fb87)" style="fill: none; stroke: #4c72b0; stroke-width: 1.5"/>
   </g>
   <g id="LineCollection_3">
    <path d="M 378.529412 363.6 
L 378.529412 363.6 
" clip-path="url(#pec1f59fb87)" style="fill: none; stroke: #4c72b0; stroke-width: 1.5"/>
   </g>
   <g id="patch_3">
    <path d="M 198 640.8 
L 198 86.4 
" style="fill: none; stroke: #cccccc; stroke-width: 1.25; stroke-linejoin: miter; stroke-linecap: square"/>
   </g>
   <g id="patch_4">
    <path d="M 559.058824 640.8 
L 559.058824 86.4 
" style="fill: none; stroke: #cccccc; stroke-width: 1.25; stroke-linejoin: miter; stroke-linecap: square"/>
   </g>
   <g id="patch_5">
    <path d="M 198 640.8 
L 559.058824 640.8 
" style="fill: none; stroke: #cccccc; stroke-width: 1.25; stroke-linejoin: miter; stroke-linecap: square"/>
   </g>
   <g id="patch_6">
    <path d="M 198 86.4 
L 559.058824 86.4 
" style="fill: none; stroke: #cccccc; stroke-width: 1.25; stroke-linejoin: miter; stroke-linecap: square"/>
   </g>
   <g id="text_7">
    <g id="patch_7">
     <path d="M 246.354706 153.5825 
L 330.174706 153.5825 
L 330.174706 130.0975 
L 246.354706 130.0975 
z
" style="fill: #ffffff; stroke: #000000; stroke-linejoin: miter"/>
    </g>
    <!-- # seqs: 6 -->
    <g style="fill: #262626" transform="translate(250.354706 146.255) scale(0.16 -0.16)">
     <defs>
      <path id="DejaVuSans-23" d="M 3272 2816 
L 2363 2816 
L 2100 1772 
L 3016 1772 
L 3272 2816 
z
M 2803 4594 
L 2478 3297 
L 3391 3297 
L 3719 4594 
L 4219 4594 
L 3897 3297 
L 4872 3297 
L 4872 2816 
L 3775 2816 
L 3519 1772 
L 4513 1772 
L 4513 1294 
L 3397 1294 
L 3072 0 
L 2572 0 
L 2894 1294 
L 1978 1294 
L 1656 0 
L 1153 0 
L 1478 1294 
L 494 1294 
L 494 1772 
L 1594 1772 
L 1856 2816 
L 850 2816 
L 850 3297 
L 1978 3297 
L 2297 4594 
L 2803 4594 
z
" transform="scale(0.015625)"/>
      <path id="DejaVuSans-73" d="M 2834 3397 
L 2834 2853 
Q 2591 2978 2328 3040 
Q 2066 3103 1784 3103 
Q 1356 3103 1142 2972 
Q 928 2841 928 2578 
Q 928 2378 1081 2264 
Q 1234 2150 1697 2047 
L 1894 2003 
Q 2506 1872 2764 1633 
Q 3022 1394 3022 966 
Q 3022 478 2636 193 
Q 2250 -91 1575 -91 
Q 1294 -91 989 -36 
Q 684 19 347 128 
L 347 722 
Q 666 556 975 473 
Q 1284 391 1588 391 
Q 1994 391 2212 530 
Q 2431 669 2431 922 
Q 2431 1156 2273 1281 
Q 2116 1406 1581 1522 
L 1381 1569 
Q 847 1681 609 1914 
Q 372 2147 372 2553 
Q 372 3047 722 3315 
Q 1072 3584 1716 3584 
Q 2034 3584 2315 3537 
Q 2597 3491 2834 3397 
z
" transform="scale(0.015625)"/>
      <path id="DejaVuSans-71" d="M 947 1747 
Q 947 1113 1208 752 
Q 1469 391 1925 391 
Q 2381 391 2643 752 
Q 2906 1113 2906 1747 
Q 2906 2381 2643 2742 
Q 2381 3103 1925 3103 
Q 1469 3103 1208 2742 
Q 947 2381 947 1747 
z
M 2906 525 
Q 2725 213 2448 61 
Q 2172 -91 1784 -91 
Q 1150 -91 751 415 
Q 353 922 353 1747 
Q 353 2572 751 3078 
Q 1150 3584 1784 3584 
Q 2172 3584 2448 3432 
Q 2725 3281 2906 2969 
L 2906 3500 
L 3481 3500 
L 3481 -1331 
L 2906 -1331 
L 2906 525 
z
" transform="scale(0.015625)"/>
      <path id="DejaVuSans-3a" d="M 750 794 
L 1409 794 
L 1409 0 
L 750 0 
L 750 794 
z
M 750 3309 
L 1409 3309 
L 1409 2516 
L 750 2516 
L 750 3309 
z
" transform="scale(0.015625)"/>
      <path id="DejaVuSans-36" d="M 2113 2584 
Q 1688 2584 1439 2293 
Q 1191 2003 1191 1497 
Q 1191 994 1439 701 
Q 1688 409 2113 409 
Q 2538 409 2786 701 
Q 3034 994 3034 1497 
Q 3034 2003 2786 2293 
Q 2538 2584 2113 2584 
z
M 3366 4563 
L 3366 3988 
Q 3128 4100 2886 4159 
Q 2644 4219 2406 4219 
Q 1781 4219 1451 3797 
Q 1122 3375 1075 2522 
Q 1259 2794 1537 2939 
Q 1816 3084 2150 3084 
Q 2853 3084 3261 2657 
Q 3669 2231 3669 1497 
Q 3669 778 3244 343 
Q 2819 -91 2113 -91 
Q 1303 -91 875 529 
Q 447 1150 447 2328 
Q 447 3434 972 4092 
Q 1497 4750 2381 4750 
Q 2619 4750 2861 4703 
Q 3103 4656 3366 4563 
z
" transform="scale(0.015625)"/>
     </defs>
     <use xlink:href="#DejaVuSans-23"/>
     <use xlink:href="#DejaVuSans-20" x="83.789062"/>
     <use xlink:href="#DejaVuSans-73" x="115.576172"/>
     <use xlink:href="#DejaVuSans-65" x="167.675781"/>
     <use xlink:href="#DejaVuSans-71" x="229.199219"/>
     <use xlink:href="#DejaVuSans-73" x="292.675781"/>
     <use xlink:href="#DejaVuSans-3a" x="344.775391"/>
     <use xlink:href="#DejaVuSans-20" x="378.466797"/>
     <use xlink:href="#DejaVuSans-36" x="410.253906"/>
    </g>
   </g>
   <g id="text_8">
    <g id="patch_8">
     <path d="M 209.020956 181.3025 
L 367.508456 181.3025 
L 367.508456 157.8175 
L 209.020956 157.8175 
z
" style="fill: #ffffff; stroke: #000000; stroke-linejoin: miter"/>
    </g>
    <!-- AVG % detected: 0 -->
    <g style="fill: #262626" transform="translate(213.020956 173.975) scale(0.16 -0.16)">
     <defs>
      <path id="DejaVuSans-41" d="M 2188 4044 
L 1331 1722 
L 3047 1722 
L 2188 4044 
z
M 1831 4666 
L 2547 4666 
L 4325 0 
L 3669 0 
L 3244 1197 
L 1141 1197 
L 716 0 
L 50 0 
L 1831 4666 
z
" transform="scale(0.015625)"/>
      <path id="DejaVuSans-56" d="M 1831 0 
L 50 4666 
L 709 4666 
L 2188 738 
L 3669 4666 
L 4325 4666 
L 2547 0 
L 1831 0 
z
" transform="scale(0.015625)"/>
      <path id="DejaVuSans-47" d="M 3809 666 
L 3809 1919 
L 2778 1919 
L 2778 2438 
L 4434 2438 
L 4434 434 
Q 4069 175 3628 42 
Q 3188 -91 2688 -91 
Q 1594 -91 976 548 
Q 359 1188 359 2328 
Q 359 3472 976 4111 
Q 1594 4750 2688 4750 
Q 3144 4750 3555 4637 
Q 3966 4525 4313 4306 
L 4313 3634 
Q 3963 3931 3569 4081 
Q 3175 4231 2741 4231 
Q 1884 4231 1454 3753 
Q 1025 3275 1025 2328 
Q 1025 1384 1454 906 
Q 1884 428 2741 428 
Q 3075 428 3337 486 
Q 3600 544 3809 666 
z
" transform="scale(0.015625)"/>
     </defs>
     <use xlink:href="#DejaVuSans-41"/>
     <use xlink:href="#DejaVuSans-56" x="62.033203"/>
     <use xlink:href="#DejaVuSans-47" x="130.441406"/>
     <use xlink:href="#DejaVuSans-20" x="207.931641"/>
     <use xlink:href="#DejaVuSans-25" x="239.71875"/>
     <use xlink:href="#DejaVuSans-20" x="334.738281"/>
     <use xlink:href="#DejaVuSans-64" x="366.525391"/>
     <use xlink:href="#DejaVuSans-65" x="430.001953"/>
     <use xlink:href="#DejaVuSans-74" x="491.525391"/>
     <use xlink:href="#DejaVuSans-65" x="530.734375"/>
     <use xlink:href="#DejaVuSans-63" x="592.257812"/>
     <use xlink:href="#DejaVuSans-74" x="647.238281"/>
     <use xlink:href="#DejaVuSans-65" x="686.447266"/>
     <use xlink:href="#DejaVuSans-64" x="747.970703"/>
     <use xlink:href="#DejaVuSans-3a" x="811.447266"/>
     <use xlink:href="#DejaVuSans-20" x="845.138672"/>
     <use xlink:href="#DejaVuSans-30" x="876.925781"/>
    </g>
   </g>
   <g id="text_9">
    <!-- NON -->
    <g style="fill: #262626" transform="translate(355.695037 74.856) scale(0.2 -0.2)">
     <defs>
      <path id="DejaVuSans-4e" d="M 628 4666 
L 1478 4666 
L 3547 763 
L 3547 4666 
L 4159 4666 
L 4159 0 
L 3309 0 
L 1241 3903 
L 1241 0 
L 628 0 
L 628 4666 
z
" transform="scale(0.015625)"/>
      <path id="DejaVuSans-4f" d="M 2522 4238 
Q 1834 4238 1429 3725 
Q 1025 3213 1025 2328 
Q 1025 1447 1429 934 
Q 1834 422 2522 422 
Q 3209 422 3611 934 
Q 4013 1447 4013 2328 
Q 4013 3213 3611 3725 
Q 3209 4238 2522 4238 
z
M 2522 4750 
Q 3503 4750 4090 4092 
Q 4678 3434 4678 2328 
Q 4678 1225 4090 567 
Q 3503 -91 2522 -91 
Q 1538 -91 948 565 
Q 359 1222 359 2328 
Q 359 3434 948 4092 
Q 1538 4750 2522 4750 
z
" transform="scale(0.015625)"/>
     </defs>
     <use xlink:href="#DejaVuSans-4e"/>
     <use xlink:href="#DejaVuSans-4f" x="74.804688"/>
     <use xlink:href="#DejaVuSans-4e" x="153.515625"/>
    </g>
   </g>
  </g>
  <g id="axes_2">
   <g id="patch_9">
    <path d="M 631.270588 640.8 
L 992.329412 640.8 
L 992.329412 86.4 
L 631.270588 86.4 
z
" style="fill: #ffffff"/>
   </g>
   <g id="matplotlib.axis_3">
    <g id="text_10">
     <!-- Abs -->
     <g style="fill: #262626" transform="translate(793.401563 667.996875) scale(0.2 -0.2)">
      <defs>
       <path id="DejaVuSans-62" d="M 3116 1747 
Q 3116 2381 2855 2742 
Q 2594 3103 2138 3103 
Q 1681 3103 1420 2742 
Q 1159 2381 1159 1747 
Q 1159 1113 1420 752 
Q 1681 391 2138 391 
Q 2594 391 2855 752 
Q 3116 1113 3116 1747 
z
M 1159 2969 
Q 1341 3281 1617 3432 
Q 1894 3584 2278 3584 
Q 2916 3584 3314 3078 
Q 3713 2572 3713 1747 
Q 3713 922 3314 415 
Q 2916 -91 2278 -91 
Q 1894 -91 1617 61 
Q 1341 213 1159 525 
L 1159 0 
L 581 0 
L 581 4863 
L 1159 4863 
L 1159 2969 
z
" transform="scale(0.015625)"/>
      </defs>
      <use xlink:href="#DejaVuSans-41"/>
      <use xlink:href="#DejaVuSans-62" x="68.408203"/>
      <use xlink:href="#DejaVuSans-73" x="131.884766"/>
     </g>
    </g>
   </g>
   <g id="matplotlib.axis_4">
    <g id="ytick_6">
     <g id="line2d_6">
      <path d="M 631.270588 638.509091 
L 992.329412 638.509091 
" clip-path="url(#pecdaed3197)" style="fill: none; stroke: #cccccc; stroke-linecap: round"/>
     </g>
     <g id="text_11">
      <!-- 0 -->
      <g style="fill: #262626" transform="translate(609.045588 646.107528) scale(0.2 -0.2)">
       <use xlink:href="#DejaVuSans-30"/>
      </g>
     </g>
    </g>
    <g id="ytick_7">
     <g id="line2d_7">
      <path d="M 631.270588 523.963636 
L 992.329412 523.963636 
" clip-path="url(#pecdaed3197)" style="fill: none; stroke: #cccccc; stroke-linecap: round"/>
     </g>
     <g id="text_12">
      <!-- 5 -->
      <g style="fill: #262626" transform="translate(609.045588 531.562074) scale(0.2 -0.2)">
       <defs>
        <path id="DejaVuSans-35" d="M 691 4666 
L 3169 4666 
L 3169 4134 
L 1269 4134 
L 1269 2991 
Q 1406 3038 1543 3061 
Q 1681 3084 1819 3084 
Q 2600 3084 3056 2656 
Q 3513 2228 3513 1497 
Q 3513 744 3044 326 
Q 2575 -91 1722 -91 
Q 1428 -91 1123 -41 
Q 819 9 494 109 
L 494 744 
Q 775 591 1075 516 
Q 1375 441 1709 441 
Q 2250 441 2565 725 
Q 2881 1009 2881 1497 
Q 2881 1984 2565 2268 
Q 2250 2553 1709 2553 
Q 1456 2553 1204 2497 
Q 953 2441 691 2322 
L 691 4666 
z
" transform="scale(0.015625)"/>
       </defs>
       <use xlink:href="#DejaVuSans-35"/>
      </g>
     </g>
    </g>
    <g id="ytick_8">
     <g id="line2d_8">
      <path d="M 631.270588 409.418182 
L 992.329412 409.418182 
" clip-path="url(#pecdaed3197)" style="fill: none; stroke: #cccccc; stroke-linecap: round"/>
     </g>
     <g id="text_13">
      <!-- 10 -->
      <g style="fill: #262626" transform="translate(596.320588 417.016619) scale(0.2 -0.2)">
       <defs>
        <path id="DejaVuSans-31" d="M 794 531 
L 1825 531 
L 1825 4091 
L 703 3866 
L 703 4441 
L 1819 4666 
L 2450 4666 
L 2450 531 
L 3481 531 
L 3481 0 
L 794 0 
L 794 531 
z
" transform="scale(0.015625)"/>
       </defs>
       <use xlink:href="#DejaVuSans-31"/>
       <use xlink:href="#DejaVuSans-30" x="63.623047"/>
      </g>
     </g>
    </g>
    <g id="ytick_9">
     <g id="line2d_9">
      <path d="M 631.270588 294.872727 
L 992.329412 294.872727 
" clip-path="url(#pecdaed3197)" style="fill: none; stroke: #cccccc; stroke-linecap: round"/>
     </g>
     <g id="text_14">
      <!-- 15 -->
      <g style="fill: #262626" transform="translate(596.320588 302.471165) scale(0.2 -0.2)">
       <use xlink:href="#DejaVuSans-31"/>
       <use xlink:href="#DejaVuSans-35" x="63.623047"/>
      </g>
     </g>
    </g>
    <g id="ytick_10">
     <g id="line2d_10">
      <path d="M 631.270588 180.327273 
L 992.329412 180.327273 
" clip-path="url(#pecdaed3197)" style="fill: none; stroke: #cccccc; stroke-linecap: round"/>
     </g>
     <g id="text_15">
      <!-- 20 -->
      <g style="fill: #262626" transform="translate(596.320588 187.92571) scale(0.2 -0.2)">
       <use xlink:href="#DejaVuSans-32"/>
       <use xlink:href="#DejaVuSans-30" x="63.623047"/>
      </g>
     </g>
    </g>
   </g>
   <g id="PolyCollection_2">
    <defs>
     <path id="m243259a754" d="M 834.341417 -104.4 
L 789.258583 -104.4 
L 788.167053 -109.490909 
L 787.10121 -114.581818 
L 786.057906 -119.672727 
L 785.03178 -124.763636 
L 784.015421 -129.854545 
L 782.999658 -134.945455 
L 781.973939 -140.036364 
L 780.926805 -145.127273 
L 779.846432 -150.218182 
L 778.721212 -155.309091 
L 777.54036 -160.4 
L 776.294498 -165.490909 
L 774.976202 -170.581818 
L 773.580478 -175.672727 
L 772.105133 -180.763636 
L 770.551039 -185.854545 
L 768.922249 -190.945455 
L 767.225974 -196.036364 
L 765.472412 -201.127273 
L 763.674429 -206.218182 
L 761.847111 -211.309091 
L 760.0072 -216.4 
L 758.17244 -221.490909 
L 756.360855 -226.581818 
L 754.59001 -231.672727 
L 752.876254 -236.763636 
L 751.234016 -241.854545 
L 749.675153 -246.945455 
L 748.208403 -252.036364 
L 746.838944 -257.127273 
L 745.568097 -262.218182 
L 744.39317 -267.309091 
L 743.307452 -272.4 
L 742.300364 -277.490909 
L 741.357737 -282.581818 
L 740.462237 -287.672727 
L 739.593876 -292.763636 
L 738.730633 -297.854545 
L 737.849121 -302.945455 
L 736.925301 -308.036364 
L 735.935203 -313.127273 
L 734.855632 -318.218182 
L 733.664844 -323.309091 
L 732.343158 -328.4 
L 730.873498 -333.490909 
L 729.241843 -338.581818 
L 727.437578 -343.672727 
L 725.453744 -348.763636 
L 723.287168 -353.854545 
L 720.938502 -358.945455 
L 718.41214 -364.036364 
L 715.716051 -369.127273 
L 712.861526 -374.218182 
L 709.862843 -379.309091 
L 706.736886 -384.4 
L 703.502714 -389.490909 
L 700.181113 -394.581818 
L 696.79413 -399.672727 
L 693.364631 -404.763636 
L 689.915875 -409.854545 
L 686.471132 -414.945455 
L 683.053349 -420.036364 
L 679.684882 -425.127273 
L 676.387293 -430.218182 
L 673.181216 -435.309091 
L 670.086299 -440.4 
L 667.121205 -445.490909 
L 664.303684 -450.581818 
L 661.650693 -455.672727 
L 659.178556 -460.763636 
L 656.903152 -465.854545 
L 654.840121 -470.945455 
L 653.005054 -476.036364 
L 651.413667 -481.127273 
L 650.081937 -486.218182 
L 649.026177 -491.309091 
L 648.263037 -496.4 
L 647.80943 -501.490909 
L 647.682353 -506.581818 
L 647.898622 -511.672727 
L 648.474504 -516.763636 
L 649.425258 -521.854545 
L 650.764604 -526.945455 
L 652.504128 -532.036364 
L 654.652654 -537.127273 
L 657.215608 -542.218182 
L 660.194402 -547.309091 
L 663.585882 -552.4 
L 667.381858 -557.490909 
L 671.568756 -562.581818 
L 676.127418 -567.672727 
L 681.033062 -572.763636 
L 686.255428 -577.854545 
L 691.759105 -582.945455 
L 697.504034 -588.036364 
L 703.446188 -593.127273 
L 709.538389 -598.218182 
L 715.731242 -603.309091 
L 721.974158 -608.4 
L 901.625842 -608.4 
L 901.625842 -608.4 
L 907.868758 -603.309091 
L 914.061611 -598.218182 
L 920.153812 -593.127273 
L 926.095966 -588.036364 
L 931.840895 -582.945455 
L 937.344572 -577.854545 
L 942.566938 -572.763636 
L 947.472582 -567.672727 
L 952.031244 -562.581818 
L 956.218142 -557.490909 
L 960.014118 -552.4 
L 963.405598 -547.309091 
L 966.384392 -542.218182 
L 968.947346 -537.127273 
L 971.095872 -532.036364 
L 972.835396 -526.945455 
L 974.174742 -521.854545 
L 975.125496 -516.763636 
L 975.701378 -511.672727 
L 975.917647 -506.581818 
L 975.79057 -501.490909 
L 975.336963 -496.4 
L 974.573823 -491.309091 
L 973.518063 -486.218182 
L 972.186333 -481.127273 
L 970.594946 -476.036364 
L 968.759879 -470.945455 
L 966.696848 -465.854545 
L 964.421444 -460.763636 
L 961.949307 -455.672727 
L 959.296316 -450.581818 
L 956.478795 -445.490909 
L 953.513701 -440.4 
L 950.418784 -435.309091 
L 947.212707 -430.218182 
L 943.915118 -425.127273 
L 940.546651 -420.036364 
L 937.128868 -414.945455 
L 933.684125 -409.854545 
L 930.235369 -404.763636 
L 926.80587 -399.672727 
L 923.418887 -394.581818 
L 920.097286 -389.490909 
L 916.863114 -384.4 
L 913.737157 -379.309091 
L 910.738474 -374.218182 
L 907.883949 -369.127273 
L 905.18786 -364.036364 
L 902.661498 -358.945455 
L 900.312832 -353.854545 
L 898.146256 -348.763636 
L 896.162422 -343.672727 
L 894.358157 -338.581818 
L 892.726502 -333.490909 
L 891.256842 -328.4 
L 889.935156 -323.309091 
L 888.744368 -318.218182 
L 887.664797 -313.127273 
L 886.674699 -308.036364 
L 885.750879 -302.945455 
L 884.869367 -297.854545 
L 884.006124 -292.763636 
L 883.137763 -287.672727 
L 882.242263 -282.581818 
L 881.299636 -277.490909 
L 880.292548 -272.4 
L 879.20683 -267.309091 
L 878.031903 -262.218182 
L 876.761056 -257.127273 
L 875.391597 -252.036364 
L 873.924847 -246.945455 
L 872.365984 -241.854545 
L 870.723746 -236.763636 
L 869.00999 -231.672727 
L 867.239145 -226.581818 
L 865.42756 -221.490909 
L 863.5928 -216.4 
L 861.752889 -211.309091 
L 859.925571 -206.218182 
L 858.127588 -201.127273 
L 856.374026 -196.036364 
L 854.677751 -190.945455 
L 853.048961 -185.854545 
L 851.494867 -180.763636 
L 850.019522 -175.672727 
L 848.623798 -170.581818 
L 847.305502 -165.490909 
L 846.05964 -160.4 
L 844.878788 -155.309091 
L 843.753568 -150.218182 
L 842.673195 -145.127273 
L 841.626061 -140.036364 
L 840.600342 -134.945455 
L 839.584579 -129.854545 
L 838.56822 -124.763636 
L 837.542094 -119.672727 
L 836.49879 -114.581818 
L 835.432947 -109.490909 
L 834.341417 -104.4 
z
" style="stroke: #ffffff; stroke-opacity: 0.3"/>
    </defs>
    <g clip-path="url(#pecdaed3197)">
     <use xlink:href="#m243259a754" x="0" y="720" style="fill: #377eb8; fill-opacity: 0.3; stroke: #ffffff; stroke-opacity: 0.3"/>
    </g>
   </g>
   <g id="LineCollection_4">
    <path d="M 729.741176 111.6 
L 893.858824 111.6 
" clip-path="url(#pecdaed3197)" style="fill: none; stroke: #4c72b0; stroke-width: 1.5"/>
   </g>
   <g id="LineCollection_5">
    <path d="M 729.741176 615.6 
L 893.858824 615.6 
" clip-path="url(#pecdaed3197)" style="fill: none; stroke: #4c72b0; stroke-width: 1.5"/>
   </g>
   <g id="LineCollection_6">
    <path d="M 811.8 615.6 
L 811.8 111.6 
" clip-path="url(#pecdaed3197)" style="fill: none; stroke: #4c72b0; stroke-width: 1.5"/>
   </g>
   <g id="patch_10">
    <path d="M 631.270588 640.8 
L 631.270588 86.4 
" style="fill: none; stroke: #cccccc; stroke-width: 1.25; stroke-linejoin: miter; stroke-linecap: square"/>
   </g>
   <g id="patch_11">
    <path d="M 992.329412 640.8 
L 992.329412 86.4 
" style="fill: none; stroke: #cccccc; stroke-width: 1.25; stroke-linejoin: miter; stroke-linecap: square"/>
   </g>
   <g id="patch_12">
    <path d="M 631.270588 640.8 
L 992.329412 640.8 
" style="fill: none; stroke: #cccccc; stroke-width: 1.25; stroke-linejoin: miter; stroke-linecap: square"/>
   </g>
   <g id="patch_13">
    <path d="M 631.270588 86.4 
L 992.329412 86.4 
" style="fill: none; stroke: #cccccc; stroke-width: 1.25; stroke-linejoin: miter; stroke-linecap: square"/>
   </g>
   <g id="text_16">
    <g id="patch_14">
     <path d="M 674.535294 153.5825 
L 768.535294 153.5825 
L 768.535294 130.0975 
L 674.535294 130.0975 
z
" style="fill: #ffffff; stroke: #000000; stroke-linejoin: miter"/>
    </g>
    <!-- # seqs: 56 -->
    <g style="fill: #262626" transform="translate(678.535294 146.255) scale(0.16 -0.16)">
     <use xlink:href="#DejaVuSans-23"/>
     <use xlink:href="#DejaVuSans-20" x="83.789062"/>
     <use xlink:href="#DejaVuSans-73" x="115.576172"/>
     <use xlink:href="#DejaVuSans-65" x="167.675781"/>
     <use xlink:href="#DejaVuSans-71" x="229.199219"/>
     <use xlink:href="#DejaVuSans-73" x="292.675781"/>
     <use xlink:href="#DejaVuSans-3a" x="344.775391"/>
     <use xlink:href="#DejaVuSans-20" x="378.466797"/>
     <use xlink:href="#DejaVuSans-35" x="410.253906"/>
     <use xlink:href="#DejaVuSans-36" x="473.876953"/>
    </g>
   </g>
   <g id="text_17">
    <g id="patch_15">
     <path d="M 637.201544 181.3025 
L 805.869044 181.3025 
L 805.869044 157.8175 
L 637.201544 157.8175 
z
" style="fill: #ffffff; stroke: #000000; stroke-linejoin: miter"/>
    </g>
    <!-- AVG % detected: 15 -->
    <g style="fill: #262626" transform="translate(641.201544 173.975) scale(0.16 -0.16)">
     <use xlink:href="#DejaVuSans-41"/>
     <use xlink:href="#DejaVuSans-56" x="62.033203"/>
     <use xlink:href="#DejaVuSans-47" x="130.441406"/>
     <use xlink:href="#DejaVuSans-20" x="207.931641"/>
     <use xlink:href="#DejaVuSans-25" x="239.71875"/>
     <use xlink:href="#DejaVuSans-20" x="334.738281"/>
     <use xlink:href="#DejaVuSans-64" x="366.525391"/>
     <use xlink:href="#DejaVuSans-65" x="430.001953"/>
     <use xlink:href="#DejaVuSans-74" x="491.525391"/>
     <use xlink:href="#DejaVuSans-65" x="530.734375"/>
     <use xlink:href="#DejaVuSans-63" x="592.257812"/>
     <use xlink:href="#DejaVuSans-74" x="647.238281"/>
     <use xlink:href="#DejaVuSans-65" x="686.447266"/>
     <use xlink:href="#DejaVuSans-64" x="747.970703"/>
     <use xlink:href="#DejaVuSans-3a" x="811.447266"/>
     <use xlink:href="#DejaVuSans-20" x="845.138672"/>
     <use xlink:href="#DejaVuSans-31" x="876.925781"/>
     <use xlink:href="#DejaVuSans-35" x="940.548828"/>
    </g>
   </g>
   <g id="text_18">
    <!-- NEU -->
    <g style="fill: #262626" transform="translate(790.68125 74.856) scale(0.2 -0.2)">
     <defs>
      <path id="DejaVuSans-45" d="M 628 4666 
L 3578 4666 
L 3578 4134 
L 1259 4134 
L 1259 2753 
L 3481 2753 
L 3481 2222 
L 1259 2222 
L 1259 531 
L 3634 531 
L 3634 0 
L 628 0 
L 628 4666 
z
" transform="scale(0.015625)"/>
      <path id="DejaVuSans-55" d="M 556 4666 
L 1191 4666 
L 1191 1831 
Q 1191 1081 1462 751 
Q 1734 422 2344 422 
Q 2950 422 3222 751 
Q 3494 1081 3494 1831 
L 3494 4666 
L 4128 4666 
L 4128 1753 
Q 4128 841 3676 375 
Q 3225 -91 2344 -91 
Q 1459 -91 1007 375 
Q 556 841 556 1753 
L 556 4666 
z
" transform="scale(0.015625)"/>
     </defs>
     <use xlink:href="#DejaVuSans-4e"/>
     <use xlink:href="#DejaVuSans-45" x="74.804688"/>
     <use xlink:href="#DejaVuSans-55" x="137.988281"/>
    </g>
   </g>
  </g>
  <g id="axes_3">
   <g id="patch_16">
    <path d="M 1064.541176 640.8 
L 1425.6 640.8 
L 1425.6 86.4 
L 1064.541176 86.4 
z
" style="fill: #ffffff"/>
   </g>
   <g id="matplotlib.axis_5"/>
   <g id="matplotlib.axis_6">
    <g id="ytick_11">
     <g id="line2d_11">
      <path d="M 1064.541176 582 
L 1425.6 582 
" clip-path="url(#p8d658421f8)" style="fill: none; stroke: #cccccc; stroke-linecap: round"/>
     </g>
     <g id="text_19">
      <!-- 30 -->
      <g style="fill: #262626" transform="translate(1029.591176 589.598437) scale(0.2 -0.2)">
       <defs>
        <path id="DejaVuSans-33" d="M 2597 2516 
Q 3050 2419 3304 2112 
Q 3559 1806 3559 1356 
Q 3559 666 3084 287 
Q 2609 -91 1734 -91 
Q 1441 -91 1130 -33 
Q 819 25 488 141 
L 488 750 
Q 750 597 1062 519 
Q 1375 441 1716 441 
Q 2309 441 2620 675 
Q 2931 909 2931 1356 
Q 2931 1769 2642 2001 
Q 2353 2234 1838 2234 
L 1294 2234 
L 1294 2753 
L 1863 2753 
Q 2328 2753 2575 2939 
Q 2822 3125 2822 3475 
Q 2822 3834 2567 4026 
Q 2313 4219 1838 4219 
Q 1578 4219 1281 4162 
Q 984 4106 628 3988 
L 628 4550 
Q 988 4650 1302 4700 
Q 1616 4750 1894 4750 
Q 2613 4750 3031 4423 
Q 3450 4097 3450 3541 
Q 3450 3153 3228 2886 
Q 3006 2619 2597 2516 
z
" transform="scale(0.015625)"/>
       </defs>
       <use xlink:href="#DejaVuSans-33"/>
       <use xlink:href="#DejaVuSans-30" x="63.623047"/>
      </g>
     </g>
    </g>
    <g id="ytick_12">
     <g id="line2d_12">
      <path d="M 1064.541176 514.8 
L 1425.6 514.8 
" clip-path="url(#p8d658421f8)" style="fill: none; stroke: #cccccc; stroke-linecap: round"/>
     </g>
     <g id="text_20">
      <!-- 40 -->
      <g style="fill: #262626" transform="translate(1029.591176 522.398438) scale(0.2 -0.2)">
       <use xlink:href="#DejaVuSans-34"/>
       <use xlink:href="#DejaVuSans-30" x="63.623047"/>
      </g>
     </g>
    </g>
    <g id="ytick_13">
     <g id="line2d_13">
      <path d="M 1064.541176 447.6 
L 1425.6 447.6 
" clip-path="url(#p8d658421f8)" style="fill: none; stroke: #cccccc; stroke-linecap: round"/>
     </g>
     <g id="text_21">
      <!-- 50 -->
      <g style="fill: #262626" transform="translate(1029.591176 455.198437) scale(0.2 -0.2)">
       <use xlink:href="#DejaVuSans-35"/>
       <use xlink:href="#DejaVuSans-30" x="63.623047"/>
      </g>
     </g>
    </g>
    <g id="ytick_14">
     <g id="line2d_14">
      <path d="M 1064.541176 380.4 
L 1425.6 380.4 
" clip-path="url(#p8d658421f8)" style="fill: none; stroke: #cccccc; stroke-linecap: round"/>
     </g>
     <g id="text_22">
      <!-- 60 -->
      <g style="fill: #262626" transform="translate(1029.591176 387.998437) scale(0.2 -0.2)">
       <use xlink:href="#DejaVuSans-36"/>
       <use xlink:href="#DejaVuSans-30" x="63.623047"/>
      </g>
     </g>
    </g>
    <g id="ytick_15">
     <g id="line2d_15">
      <path d="M 1064.541176 313.2 
L 1425.6 313.2 
" clip-path="url(#p8d658421f8)" style="fill: none; stroke: #cccccc; stroke-linecap: round"/>
     </g>
     <g id="text_23">
      <!-- 70 -->
      <g style="fill: #262626" transform="translate(1029.591176 320.798437) scale(0.2 -0.2)">
       <defs>
        <path id="DejaVuSans-37" d="M 525 4666 
L 3525 4666 
L 3525 4397 
L 1831 0 
L 1172 0 
L 2766 4134 
L 525 4134 
L 525 4666 
z
" transform="scale(0.015625)"/>
       </defs>
       <use xlink:href="#DejaVuSans-37"/>
       <use xlink:href="#DejaVuSans-30" x="63.623047"/>
      </g>
     </g>
    </g>
    <g id="ytick_16">
     <g id="line2d_16">
      <path d="M 1064.541176 246 
L 1425.6 246 
" clip-path="url(#p8d658421f8)" style="fill: none; stroke: #cccccc; stroke-linecap: round"/>
     </g>
     <g id="text_24">
      <!-- 80 -->
      <g style="fill: #262626" transform="translate(1029.591176 253.598437) scale(0.2 -0.2)">
       <defs>
        <path id="DejaVuSans-38" d="M 2034 2216 
Q 1584 2216 1326 1975 
Q 1069 1734 1069 1313 
Q 1069 891 1326 650 
Q 1584 409 2034 409 
Q 2484 409 2743 651 
Q 3003 894 3003 1313 
Q 3003 1734 2745 1975 
Q 2488 2216 2034 2216 
z
M 1403 2484 
Q 997 2584 770 2862 
Q 544 3141 544 3541 
Q 544 4100 942 4425 
Q 1341 4750 2034 4750 
Q 2731 4750 3128 4425 
Q 3525 4100 3525 3541 
Q 3525 3141 3298 2862 
Q 3072 2584 2669 2484 
Q 3125 2378 3379 2068 
Q 3634 1759 3634 1313 
Q 3634 634 3220 271 
Q 2806 -91 2034 -91 
Q 1263 -91 848 271 
Q 434 634 434 1313 
Q 434 1759 690 2068 
Q 947 2378 1403 2484 
z
M 1172 3481 
Q 1172 3119 1398 2916 
Q 1625 2713 2034 2713 
Q 2441 2713 2670 2916 
Q 2900 3119 2900 3481 
Q 2900 3844 2670 4047 
Q 2441 4250 2034 4250 
Q 1625 4250 1398 4047 
Q 1172 3844 1172 3481 
z
" transform="scale(0.015625)"/>
       </defs>
       <use xlink:href="#DejaVuSans-38"/>
       <use xlink:href="#DejaVuSans-30" x="63.623047"/>
      </g>
     </g>
    </g>
    <g id="ytick_17">
     <g id="line2d_17">
      <path d="M 1064.541176 178.8 
L 1425.6 178.8 
" clip-path="url(#p8d658421f8)" style="fill: none; stroke: #cccccc; stroke-linecap: round"/>
     </g>
     <g id="text_25">
      <!-- 90 -->
      <g style="fill: #262626" transform="translate(1029.591176 186.398437) scale(0.2 -0.2)">
       <defs>
        <path id="DejaVuSans-39" d="M 703 97 
L 703 672 
Q 941 559 1184 500 
Q 1428 441 1663 441 
Q 2288 441 2617 861 
Q 2947 1281 2994 2138 
Q 2813 1869 2534 1725 
Q 2256 1581 1919 1581 
Q 1219 1581 811 2004 
Q 403 2428 403 3163 
Q 403 3881 828 4315 
Q 1253 4750 1959 4750 
Q 2769 4750 3195 4129 
Q 3622 3509 3622 2328 
Q 3622 1225 3098 567 
Q 2575 -91 1691 -91 
Q 1453 -91 1209 -44 
Q 966 3 703 97 
z
M 1959 2075 
Q 2384 2075 2632 2365 
Q 2881 2656 2881 3163 
Q 2881 3666 2632 3958 
Q 2384 4250 1959 4250 
Q 1534 4250 1286 3958 
Q 1038 3666 1038 3163 
Q 1038 2656 1286 2365 
Q 1534 2075 1959 2075 
z
" transform="scale(0.015625)"/>
       </defs>
       <use xlink:href="#DejaVuSans-39"/>
       <use xlink:href="#DejaVuSans-30" x="63.623047"/>
      </g>
     </g>
    </g>
    <g id="ytick_18">
     <g id="line2d_18">
      <path d="M 1064.541176 111.6 
L 1425.6 111.6 
" clip-path="url(#p8d658421f8)" style="fill: none; stroke: #cccccc; stroke-linecap: round"/>
     </g>
     <g id="text_26">
      <!-- 100 -->
      <g style="fill: #262626" transform="translate(1016.866176 119.198437) scale(0.2 -0.2)">
       <use xlink:href="#DejaVuSans-31"/>
       <use xlink:href="#DejaVuSans-30" x="63.623047"/>
       <use xlink:href="#DejaVuSans-30" x="127.246094"/>
      </g>
     </g>
    </g>
   </g>
   <g id="PolyCollection_3">
    <defs>
     <path id="m4915d8a8ff" d="M 1354.310483 -104.4 
L 1135.830693 -104.4 
L 1128.863565 -109.490909 
L 1122.130763 -114.581818 
L 1115.708408 -119.672727 
L 1109.669079 -124.763636 
L 1104.080157 -129.854545 
L 1099.002326 -134.945455 
L 1094.488237 -140.036364 
L 1090.581409 -145.127273 
L 1087.31536 -150.218182 
L 1084.713004 -155.309091 
L 1082.786316 -160.4 
L 1081.536254 -165.490909 
L 1080.952941 -170.581818 
L 1081.01608 -175.672727 
L 1081.695591 -180.763636 
L 1082.952438 -185.854545 
L 1084.739634 -190.945455 
L 1087.003381 -196.036364 
L 1089.684335 -201.127273 
L 1092.718956 -206.218182 
L 1096.040925 -211.309091 
L 1099.582586 -216.4 
L 1103.276396 -221.490909 
L 1107.056345 -226.581818 
L 1110.859305 -231.672727 
L 1114.626289 -236.763636 
L 1118.303582 -241.854545 
L 1121.843712 -246.945455 
L 1125.206226 -252.036364 
L 1128.358274 -257.127273 
L 1131.274949 -262.218182 
L 1133.939411 -267.309091 
L 1136.342766 -272.4 
L 1138.483722 -277.490909 
L 1140.368043 -282.581818 
L 1142.007815 -287.672727 
L 1143.420564 -292.763636 
L 1144.628259 -297.854545 
L 1145.656248 -302.945455 
L 1146.532157 -308.036364 
L 1147.284806 -313.127273 
L 1147.943175 -318.218182 
L 1148.535445 -323.309091 
L 1149.088163 -328.4 
L 1149.625535 -333.490909 
L 1150.168857 -338.581818 
L 1150.736115 -343.672727 
L 1151.341717 -348.763636 
L 1151.996385 -353.854545 
L 1152.707161 -358.945455 
L 1153.477538 -364.036364 
L 1154.307669 -369.127273 
L 1155.194659 -374.218182 
L 1156.132896 -379.309091 
L 1157.114413 -384.4 
L 1158.129267 -389.490909 
L 1159.165905 -394.581818 
L 1160.211527 -399.672727 
L 1161.252424 -404.763636 
L 1162.274303 -409.854545 
L 1163.262585 -414.945455 
L 1164.202694 -420.036364 
L 1165.080335 -425.127273 
L 1165.881771 -430.218182 
L 1166.594108 -435.309091 
L 1167.205585 -440.4 
L 1167.705882 -445.490909 
L 1168.086436 -450.581818 
L 1168.340773 -455.672727 
L 1168.464835 -460.763636 
L 1168.4573 -465.854545 
L 1168.319878 -470.945455 
L 1168.05756 -476.036364 
L 1167.678822 -481.127273 
L 1167.195733 -486.218182 
L 1166.623983 -491.309091 
L 1165.982802 -496.4 
L 1165.294752 -501.490909 
L 1164.585412 -506.581818 
L 1163.882927 -511.672727 
L 1163.217455 -516.763636 
L 1162.620503 -521.854545 
L 1162.124186 -526.945455 
L 1161.760425 -532.036364 
L 1161.560107 -537.127273 
L 1161.552249 -542.218182 
L 1161.763183 -547.309091 
L 1162.215791 -552.4 
L 1162.928835 -557.490909 
L 1163.916378 -562.581818 
L 1165.187348 -567.672727 
L 1166.745235 -572.763636 
L 1168.58794 -577.854545 
L 1170.707791 -582.945455 
L 1173.091702 -588.036364 
L 1175.721494 -593.127273 
L 1178.574351 -598.218182 
L 1181.623392 -603.309091 
L 1184.83836 -608.4 
L 1305.302816 -608.4 
L 1305.302816 -608.4 
L 1308.517784 -603.309091 
L 1311.566826 -598.218182 
L 1314.419682 -593.127273 
L 1317.049475 -588.036364 
L 1319.433386 -582.945455 
L 1321.553236 -577.854545 
L 1323.395942 -572.763636 
L 1324.953828 -567.672727 
L 1326.224799 -562.581818 
L 1327.212342 -557.490909 
L 1327.925385 -552.4 
L 1328.377993 -547.309091 
L 1328.588927 -542.218182 
L 1328.58107 -537.127273 
L 1328.380752 -532.036364 
L 1328.01699 -526.945455 
L 1327.520673 -521.854545 
L 1326.923721 -516.763636 
L 1326.258249 -511.672727 
L 1325.555764 -506.581818 
L 1324.846424 -501.490909 
L 1324.158375 -496.4 
L 1323.517193 -491.309091 
L 1322.945444 -486.218182 
L 1322.462354 -481.127273 
L 1322.083616 -476.036364 
L 1321.821299 -470.945455 
L 1321.683876 -465.854545 
L 1321.676341 -460.763636 
L 1321.800404 -455.672727 
L 1322.054741 -450.581818 
L 1322.435295 -445.490909 
L 1322.935591 -440.4 
L 1323.547068 -435.309091 
L 1324.259405 -430.218182 
L 1325.060842 -425.127273 
L 1325.938482 -420.036364 
L 1326.878591 -414.945455 
L 1327.866873 -409.854545 
L 1328.888753 -404.763636 
L 1329.92965 -399.672727 
L 1330.975271 -394.581818 
L 1332.011909 -389.490909 
L 1333.026763 -384.4 
L 1334.008281 -379.309091 
L 1334.946518 -374.218182 
L 1335.833508 -369.127273 
L 1336.663639 -364.036364 
L 1337.434015 -358.945455 
L 1338.144792 -353.854545 
L 1338.799459 -348.763636 
L 1339.405062 -343.672727 
L 1339.972319 -338.581818 
L 1340.515642 -333.490909 
L 1341.053013 -328.4 
L 1341.605732 -323.309091 
L 1342.198002 -318.218182 
L 1342.85637 -313.127273 
L 1343.60902 -308.036364 
L 1344.484929 -302.945455 
L 1345.512917 -297.854545 
L 1346.720612 -292.763636 
L 1348.133361 -287.672727 
L 1349.773133 -282.581818 
L 1351.657455 -277.490909 
L 1353.798411 -272.4 
L 1356.201765 -267.309091 
L 1358.866227 -262.218182 
L 1361.782903 -257.127273 
L 1364.93495 -252.036364 
L 1368.297465 -246.945455 
L 1371.837594 -241.854545 
L 1375.514888 -236.763636 
L 1379.281872 -231.672727 
L 1383.084831 -226.581818 
L 1386.86478 -221.490909 
L 1390.558591 -216.4 
L 1394.100252 -211.309091 
L 1397.42222 -206.218182 
L 1400.456841 -201.127273 
L 1403.137795 -196.036364 
L 1405.401542 -190.945455 
L 1407.188738 -185.854545 
L 1408.445586 -180.763636 
L 1409.125096 -175.672727 
L 1409.188235 -170.581818 
L 1408.604922 -165.490909 
L 1407.35486 -160.4 
L 1405.428172 -155.309091 
L 1402.825817 -150.218182 
L 1399.559768 -145.127273 
L 1395.65294 -140.036364 
L 1391.138851 -134.945455 
L 1386.061019 -129.854545 
L 1380.472098 -124.763636 
L 1374.432768 -119.672727 
L 1368.010414 -114.581818 
L 1361.277611 -109.490909 
L 1354.310483 -104.4 
z
" style="stroke: #ffffff; stroke-opacity: 0.3"/>
    </defs>
    <g clip-path="url(#p8d658421f8)">
     <use xlink:href="#m4915d8a8ff" x="0" y="720" style="fill: #4daf4a; fill-opacity: 0.3; stroke: #ffffff; stroke-opacity: 0.3"/>
    </g>
   </g>
   <g id="LineCollection_7">
    <path d="M 1163.011765 111.6 
L 1327.129412 111.6 
" clip-path="url(#p8d658421f8)" style="fill: none; stroke: #4c72b0; stroke-width: 1.5"/>
   </g>
   <g id="LineCollection_8">
    <path d="M 1163.011765 615.6 
L 1327.129412 615.6 
" clip-path="url(#p8d658421f8)" style="fill: none; stroke: #4c72b0; stroke-width: 1.5"/>
   </g>
   <g id="LineCollection_9">
    <path d="M 1245.070588 615.6 
L 1245.070588 111.6 
" clip-path="url(#p8d658421f8)" style="fill: none; stroke: #4c72b0; stroke-width: 1.5"/>
   </g>
   <g id="patch_17">
    <path d="M 1064.541176 640.8 
L 1064.541176 86.4 
" style="fill: none; stroke: #cccccc; stroke-width: 1.25; stroke-linejoin: miter; stroke-linecap: square"/>
   </g>
   <g id="patch_18">
    <path d="M 1425.6 640.8 
L 1425.6 86.4 
" style="fill: none; stroke: #cccccc; stroke-width: 1.25; stroke-linejoin: miter; stroke-linecap: square"/>
   </g>
   <g id="patch_19">
    <path d="M 1064.541176 640.8 
L 1425.6 640.8 
" style="fill: none; stroke: #cccccc; stroke-width: 1.25; stroke-linejoin: miter; stroke-linecap: square"/>
   </g>
   <g id="patch_20">
    <path d="M 1064.541176 86.4 
L 1425.6 86.4 
" style="fill: none; stroke: #cccccc; stroke-width: 1.25; stroke-linejoin: miter; stroke-linecap: square"/>
   </g>
   <g id="text_27">
    <g id="patch_21">
     <path d="M 1102.715882 153.5825 
L 1206.895882 153.5825 
L 1206.895882 130.0975 
L 1102.715882 130.0975 
z
" style="fill: #ffffff; stroke: #000000; stroke-linejoin: miter"/>
    </g>
    <!-- # seqs: 177 -->
    <g style="fill: #262626" transform="translate(1106.715882 146.255) scale(0.16 -0.16)">
     <use xlink:href="#DejaVuSans-23"/>
     <use xlink:href="#DejaVuSans-20" x="83.789062"/>
     <use xlink:href="#DejaVuSans-73" x="115.576172"/>
     <use xlink:href="#DejaVuSans-65" x="167.675781"/>
     <use xlink:href="#DejaVuSans-71" x="229.199219"/>
     <use xlink:href="#DejaVuSans-73" x="292.675781"/>
     <use xlink:href="#DejaVuSans-3a" x="344.775391"/>
     <use xlink:href="#DejaVuSans-20" x="378.466797"/>
     <use xlink:href="#DejaVuSans-31" x="410.253906"/>
     <use xlink:href="#DejaVuSans-37" x="473.876953"/>
     <use xlink:href="#DejaVuSans-37" x="537.5"/>
    </g>
   </g>
   <g id="text_28">
    <g id="patch_22">
     <path d="M 1070.472132 181.3025 
L 1239.139632 181.3025 
L 1239.139632 157.8175 
L 1070.472132 157.8175 
z
" style="fill: #ffffff; stroke: #000000; stroke-linejoin: miter"/>
    </g>
    <!-- AVG % detected: 56 -->
    <g style="fill: #262626" transform="translate(1074.472132 173.975) scale(0.16 -0.16)">
     <use xlink:href="#DejaVuSans-41"/>
     <use xlink:href="#DejaVuSans-56" x="62.033203"/>
     <use xlink:href="#DejaVuSans-47" x="130.441406"/>
     <use xlink:href="#DejaVuSans-20" x="207.931641"/>
     <use xlink:href="#DejaVuSans-25" x="239.71875"/>
     <use xlink:href="#DejaVuSans-20" x="334.738281"/>
     <use xlink:href="#DejaVuSans-64" x="366.525391"/>
     <use xlink:href="#DejaVuSans-65" x="430.001953"/>
     <use xlink:href="#DejaVuSans-74" x="491.525391"/>
     <use xlink:href="#DejaVuSans-65" x="530.734375"/>
     <use xlink:href="#DejaVuSans-63" x="592.257812"/>
     <use xlink:href="#DejaVuSans-74" x="647.238281"/>
     <use xlink:href="#DejaVuSans-65" x="686.447266"/>
     <use xlink:href="#DejaVuSans-64" x="747.970703"/>
     <use xlink:href="#DejaVuSans-3a" x="811.447266"/>
     <use xlink:href="#DejaVuSans-20" x="845.138672"/>
     <use xlink:href="#DejaVuSans-35" x="876.925781"/>
     <use xlink:href="#DejaVuSans-36" x="940.548828"/>
    </g>
   </g>
   <g id="text_29">
    <!-- BRO -->
    <g style="fill: #262626" transform="translate(1223.389338 74.856) scale(0.2 -0.2)">
     <defs>
      <path id="DejaVuSans-42" d="M 1259 2228 
L 1259 519 
L 2272 519 
Q 2781 519 3026 730 
Q 3272 941 3272 1375 
Q 3272 1813 3026 2020 
Q 2781 2228 2272 2228 
L 1259 2228 
z
M 1259 4147 
L 1259 2741 
L 2194 2741 
Q 2656 2741 2882 2914 
Q 3109 3088 3109 3444 
Q 3109 3797 2882 3972 
Q 2656 4147 2194 4147 
L 1259 4147 
z
M 628 4666 
L 2241 4666 
Q 2963 4666 3353 4366 
Q 3744 4066 3744 3513 
Q 3744 3084 3544 2831 
Q 3344 2578 2956 2516 
Q 3422 2416 3680 2098 
Q 3938 1781 3938 1306 
Q 3938 681 3513 340 
Q 3088 0 2303 0 
L 628 0 
L 628 4666 
z
" transform="scale(0.015625)"/>
      <path id="DejaVuSans-52" d="M 2841 2188 
Q 3044 2119 3236 1894 
Q 3428 1669 3622 1275 
L 4263 0 
L 3584 0 
L 2988 1197 
Q 2756 1666 2539 1819 
Q 2322 1972 1947 1972 
L 1259 1972 
L 1259 0 
L 628 0 
L 628 4666 
L 2053 4666 
Q 2853 4666 3247 4331 
Q 3641 3997 3641 3322 
Q 3641 2881 3436 2590 
Q 3231 2300 2841 2188 
z
M 1259 4147 
L 1259 2491 
L 2053 2491 
Q 2509 2491 2742 2702 
Q 2975 2913 2975 3322 
Q 2975 3731 2742 3939 
Q 2509 4147 2053 4147 
L 1259 4147 
z
" transform="scale(0.015625)"/>
     </defs>
     <use xlink:href="#DejaVuSans-42"/>
     <use xlink:href="#DejaVuSans-52" x="68.603516"/>
     <use xlink:href="#DejaVuSans-4f" x="138.085938"/>
    </g>
   </g>
  </g>
 </g>
 <defs>
  <clipPath id="pec1f59fb87">
   <rect x="198" y="86.4" width="361.058824" height="554.4"/>
  </clipPath>
  <clipPath id="pecdaed3197">
   <rect x="631.270588" y="86.4" width="361.058824" height="554.4"/>
  </clipPath>
  <clipPath id="p8d658421f8">
   <rect x="1064.541176" y="86.4" width="361.058824" height="554.4"/>
  </clipPath>
 </defs>
</svg>
