<?xml version="1.0" encoding="utf-8" standalone="no"?>
<!DOCTYPE svg PUBLIC "-//W3C//DTD SVG 1.1//EN"
  "http://www.w3.org/Graphics/SVG/1.1/DTD/svg11.dtd">
<svg xmlns:xlink="http://www.w3.org/1999/xlink" width="1584pt" height="720pt" viewBox="0 0 1584 720" xmlns="http://www.w3.org/2000/svg" version="1.1">
 <metadata>
  <rdf:RDF xmlns:dc="http://purl.org/dc/elements/1.1/" xmlns:cc="http://creativecommons.org/ns#" xmlns:rdf="http://www.w3.org/1999/02/22-rdf-syntax-ns#">
   <cc:Work>
    <dc:type rdf:resource="http://purl.org/dc/dcmitype/StillImage"/>
    <dc:date>2023-11-27T10:41:44.966353</dc:date>
    <dc:format>image/svg+xml</dc:format>
    <dc:creator>
     <cc:Agent>
      <dc:title>Matplotlib v3.7.1, https://matplotlib.org/</dc:title>
     </cc:Agent>
    </dc:creator>
   </cc:Work>
  </rdf:RDF>
 </metadata>
 <defs>
  <style type="text/css">*{stroke-linejoin: round; stroke-linecap: butt}</style>
 </defs>
 <g id="figure_1">
  <g id="patch_1">
   <path d="M 0 720 
L 1584 720 
L 1584 0 
L 0 0 
z
" style="fill: #ffffff"/>
  </g>
  <g id="axes_1">
   <g id="patch_2">
    <path d="M 198 640.8 
L 559.058824 640.8 
L 559.058824 86.4 
L 198 86.4 
z
" style="fill: #ffffff"/>
   </g>
   <g id="matplotlib.axis_1"/>
   <g id="matplotlib.axis_2">
    <g id="ytick_1">
     <g id="line2d_1">
      <path d="M 198 626.210526 
L 559.058824 626.210526 
" clip-path="url(#p8ef3692110)" style="fill: none; stroke: #cccccc; stroke-linecap: round"/>
     </g>
     <g id="text_1">
      <!-- 65 -->
      <g style="fill: #262626" transform="translate(163.05 633.808964) scale(0.2 -0.2)">
       <defs>
        <path id="DejaVuSans-36" d="M 2113 2584 
Q 1688 2584 1439 2293 
Q 1191 2003 1191 1497 
Q 1191 994 1439 701 
Q 1688 409 2113 409 
Q 2538 409 2786 701 
Q 3034 994 3034 1497 
Q 3034 2003 2786 2293 
Q 2538 2584 2113 2584 
z
M 3366 4563 
L 3366 3988 
Q 3128 4100 2886 4159 
Q 2644 4219 2406 4219 
Q 1781 4219 1451 3797 
Q 1122 3375 1075 2522 
Q 1259 2794 1537 2939 
Q 1816 3084 2150 3084 
Q 2853 3084 3261 2657 
Q 3669 2231 3669 1497 
Q 3669 778 3244 343 
Q 2819 -91 2113 -91 
Q 1303 -91 875 529 
Q 447 1150 447 2328 
Q 447 3434 972 4092 
Q 1497 4750 2381 4750 
Q 2619 4750 2861 4703 
Q 3103 4656 3366 4563 
z
" transform="scale(0.015625)"/>
        <path id="DejaVuSans-35" d="M 691 4666 
L 3169 4666 
L 3169 4134 
L 1269 4134 
L 1269 2991 
Q 1406 3038 1543 3061 
Q 1681 3084 1819 3084 
Q 2600 3084 3056 2656 
Q 3513 2228 3513 1497 
Q 3513 744 3044 326 
Q 2575 -91 1722 -91 
Q 1428 -91 1123 -41 
Q 819 9 494 109 
L 494 744 
Q 775 591 1075 516 
Q 1375 441 1709 441 
Q 2250 441 2565 725 
Q 2881 1009 2881 1497 
Q 2881 1984 2565 2268 
Q 2250 2553 1709 2553 
Q 1456 2553 1204 2497 
Q 953 2441 691 2322 
L 691 4666 
z
" transform="scale(0.015625)"/>
       </defs>
       <use xlink:href="#DejaVuSans-36"/>
       <use xlink:href="#DejaVuSans-35" x="63.623047"/>
      </g>
     </g>
    </g>
    <g id="ytick_2">
     <g id="line2d_2">
      <path d="M 198 553.263158 
L 559.058824 553.263158 
" clip-path="url(#p8ef3692110)" style="fill: none; stroke: #cccccc; stroke-linecap: round"/>
     </g>
     <g id="text_2">
      <!-- 70 -->
      <g style="fill: #262626" transform="translate(163.05 560.861595) scale(0.2 -0.2)">
       <defs>
        <path id="DejaVuSans-37" d="M 525 4666 
L 3525 4666 
L 3525 4397 
L 1831 0 
L 1172 0 
L 2766 4134 
L 525 4134 
L 525 4666 
z
" transform="scale(0.015625)"/>
        <path id="DejaVuSans-30" d="M 2034 4250 
Q 1547 4250 1301 3770 
Q 1056 3291 1056 2328 
Q 1056 1369 1301 889 
Q 1547 409 2034 409 
Q 2525 409 2770 889 
Q 3016 1369 3016 2328 
Q 3016 3291 2770 3770 
Q 2525 4250 2034 4250 
z
M 2034 4750 
Q 2819 4750 3233 4129 
Q 3647 3509 3647 2328 
Q 3647 1150 3233 529 
Q 2819 -91 2034 -91 
Q 1250 -91 836 529 
Q 422 1150 422 2328 
Q 422 3509 836 4129 
Q 1250 4750 2034 4750 
z
" transform="scale(0.015625)"/>
       </defs>
       <use xlink:href="#DejaVuSans-37"/>
       <use xlink:href="#DejaVuSans-30" x="63.623047"/>
      </g>
     </g>
    </g>
    <g id="ytick_3">
     <g id="line2d_3">
      <path d="M 198 480.315789 
L 559.058824 480.315789 
" clip-path="url(#p8ef3692110)" style="fill: none; stroke: #cccccc; stroke-linecap: round"/>
     </g>
     <g id="text_3">
      <!-- 75 -->
      <g style="fill: #262626" transform="translate(163.05 487.914227) scale(0.2 -0.2)">
       <use xlink:href="#DejaVuSans-37"/>
       <use xlink:href="#DejaVuSans-35" x="63.623047"/>
      </g>
     </g>
    </g>
    <g id="ytick_4">
     <g id="line2d_4">
      <path d="M 198 407.368421 
L 559.058824 407.368421 
" clip-path="url(#p8ef3692110)" style="fill: none; stroke: #cccccc; stroke-linecap: round"/>
     </g>
     <g id="text_4">
      <!-- 80 -->
      <g style="fill: #262626" transform="translate(163.05 414.966859) scale(0.2 -0.2)">
       <defs>
        <path id="DejaVuSans-38" d="M 2034 2216 
Q 1584 2216 1326 1975 
Q 1069 1734 1069 1313 
Q 1069 891 1326 650 
Q 1584 409 2034 409 
Q 2484 409 2743 651 
Q 3003 894 3003 1313 
Q 3003 1734 2745 1975 
Q 2488 2216 2034 2216 
z
M 1403 2484 
Q 997 2584 770 2862 
Q 544 3141 544 3541 
Q 544 4100 942 4425 
Q 1341 4750 2034 4750 
Q 2731 4750 3128 4425 
Q 3525 4100 3525 3541 
Q 3525 3141 3298 2862 
Q 3072 2584 2669 2484 
Q 3125 2378 3379 2068 
Q 3634 1759 3634 1313 
Q 3634 634 3220 271 
Q 2806 -91 2034 -91 
Q 1263 -91 848 271 
Q 434 634 434 1313 
Q 434 1759 690 2068 
Q 947 2378 1403 2484 
z
M 1172 3481 
Q 1172 3119 1398 2916 
Q 1625 2713 2034 2713 
Q 2441 2713 2670 2916 
Q 2900 3119 2900 3481 
Q 2900 3844 2670 4047 
Q 2441 4250 2034 4250 
Q 1625 4250 1398 4047 
Q 1172 3844 1172 3481 
z
" transform="scale(0.015625)"/>
       </defs>
       <use xlink:href="#DejaVuSans-38"/>
       <use xlink:href="#DejaVuSans-30" x="63.623047"/>
      </g>
     </g>
    </g>
    <g id="ytick_5">
     <g id="line2d_5">
      <path d="M 198 334.421053 
L 559.058824 334.421053 
" clip-path="url(#p8ef3692110)" style="fill: none; stroke: #cccccc; stroke-linecap: round"/>
     </g>
     <g id="text_5">
      <!-- 85 -->
      <g style="fill: #262626" transform="translate(163.05 342.01949) scale(0.2 -0.2)">
       <use xlink:href="#DejaVuSans-38"/>
       <use xlink:href="#DejaVuSans-35" x="63.623047"/>
      </g>
     </g>
    </g>
    <g id="ytick_6">
     <g id="line2d_6">
      <path d="M 198 261.473684 
L 559.058824 261.473684 
" clip-path="url(#p8ef3692110)" style="fill: none; stroke: #cccccc; stroke-linecap: round"/>
     </g>
     <g id="text_6">
      <!-- 90 -->
      <g style="fill: #262626" transform="translate(163.05 269.072122) scale(0.2 -0.2)">
       <defs>
        <path id="DejaVuSans-39" d="M 703 97 
L 703 672 
Q 941 559 1184 500 
Q 1428 441 1663 441 
Q 2288 441 2617 861 
Q 2947 1281 2994 2138 
Q 2813 1869 2534 1725 
Q 2256 1581 1919 1581 
Q 1219 1581 811 2004 
Q 403 2428 403 3163 
Q 403 3881 828 4315 
Q 1253 4750 1959 4750 
Q 2769 4750 3195 4129 
Q 3622 3509 3622 2328 
Q 3622 1225 3098 567 
Q 2575 -91 1691 -91 
Q 1453 -91 1209 -44 
Q 966 3 703 97 
z
M 1959 2075 
Q 2384 2075 2632 2365 
Q 2881 2656 2881 3163 
Q 2881 3666 2632 3958 
Q 2384 4250 1959 4250 
Q 1534 4250 1286 3958 
Q 1038 3666 1038 3163 
Q 1038 2656 1286 2365 
Q 1534 2075 1959 2075 
z
" transform="scale(0.015625)"/>
       </defs>
       <use xlink:href="#DejaVuSans-39"/>
       <use xlink:href="#DejaVuSans-30" x="63.623047"/>
      </g>
     </g>
    </g>
    <g id="ytick_7">
     <g id="line2d_7">
      <path d="M 198 188.526316 
L 559.058824 188.526316 
" clip-path="url(#p8ef3692110)" style="fill: none; stroke: #cccccc; stroke-linecap: round"/>
     </g>
     <g id="text_7">
      <!-- 95 -->
      <g style="fill: #262626" transform="translate(163.05 196.124753) scale(0.2 -0.2)">
       <use xlink:href="#DejaVuSans-39"/>
       <use xlink:href="#DejaVuSans-35" x="63.623047"/>
      </g>
     </g>
    </g>
    <g id="ytick_8">
     <g id="line2d_8">
      <path d="M 198 115.578947 
L 559.058824 115.578947 
" clip-path="url(#p8ef3692110)" style="fill: none; stroke: #cccccc; stroke-linecap: round"/>
     </g>
     <g id="text_8">
      <!-- 100 -->
      <g style="fill: #262626" transform="translate(150.325 123.177385) scale(0.2 -0.2)">
       <defs>
        <path id="DejaVuSans-31" d="M 794 531 
L 1825 531 
L 1825 4091 
L 703 3866 
L 703 4441 
L 1819 4666 
L 2450 4666 
L 2450 531 
L 3481 531 
L 3481 0 
L 794 0 
L 794 531 
z
" transform="scale(0.015625)"/>
       </defs>
       <use xlink:href="#DejaVuSans-31"/>
       <use xlink:href="#DejaVuSans-30" x="63.623047"/>
       <use xlink:href="#DejaVuSans-30" x="127.246094"/>
      </g>
     </g>
    </g>
    <g id="text_9">
     <!-- CDR-H3 v_idenity -->
     <g style="fill: #262626" transform="translate(133.609375 450.653125) rotate(-90) scale(0.2 -0.2)">
      <defs>
       <path id="DejaVuSans-43" d="M 4122 4306 
L 4122 3641 
Q 3803 3938 3442 4084 
Q 3081 4231 2675 4231 
Q 1875 4231 1450 3742 
Q 1025 3253 1025 2328 
Q 1025 1406 1450 917 
Q 1875 428 2675 428 
Q 3081 428 3442 575 
Q 3803 722 4122 1019 
L 4122 359 
Q 3791 134 3420 21 
Q 3050 -91 2638 -91 
Q 1578 -91 968 557 
Q 359 1206 359 2328 
Q 359 3453 968 4101 
Q 1578 4750 2638 4750 
Q 3056 4750 3426 4639 
Q 3797 4528 4122 4306 
z
" transform="scale(0.015625)"/>
       <path id="DejaVuSans-44" d="M 1259 4147 
L 1259 519 
L 2022 519 
Q 2988 519 3436 956 
Q 3884 1394 3884 2338 
Q 3884 3275 3436 3711 
Q 2988 4147 2022 4147 
L 1259 4147 
z
M 628 4666 
L 1925 4666 
Q 3281 4666 3915 4102 
Q 4550 3538 4550 2338 
Q 4550 1131 3912 565 
Q 3275 0 1925 0 
L 628 0 
L 628 4666 
z
" transform="scale(0.015625)"/>
       <path id="DejaVuSans-52" d="M 2841 2188 
Q 3044 2119 3236 1894 
Q 3428 1669 3622 1275 
L 4263 0 
L 3584 0 
L 2988 1197 
Q 2756 1666 2539 1819 
Q 2322 1972 1947 1972 
L 1259 1972 
L 1259 0 
L 628 0 
L 628 4666 
L 2053 4666 
Q 2853 4666 3247 4331 
Q 3641 3997 3641 3322 
Q 3641 2881 3436 2590 
Q 3231 2300 2841 2188 
z
M 1259 4147 
L 1259 2491 
L 2053 2491 
Q 2509 2491 2742 2702 
Q 2975 2913 2975 3322 
Q 2975 3731 2742 3939 
Q 2509 4147 2053 4147 
L 1259 4147 
z
" transform="scale(0.015625)"/>
       <path id="DejaVuSans-2d" d="M 313 2009 
L 1997 2009 
L 1997 1497 
L 313 1497 
L 313 2009 
z
" transform="scale(0.015625)"/>
       <path id="DejaVuSans-48" d="M 628 4666 
L 1259 4666 
L 1259 2753 
L 3553 2753 
L 3553 4666 
L 4184 4666 
L 4184 0 
L 3553 0 
L 3553 2222 
L 1259 2222 
L 1259 0 
L 628 0 
L 628 4666 
z
" transform="scale(0.015625)"/>
       <path id="DejaVuSans-33" d="M 2597 2516 
Q 3050 2419 3304 2112 
Q 3559 1806 3559 1356 
Q 3559 666 3084 287 
Q 2609 -91 1734 -91 
Q 1441 -91 1130 -33 
Q 819 25 488 141 
L 488 750 
Q 750 597 1062 519 
Q 1375 441 1716 441 
Q 2309 441 2620 675 
Q 2931 909 2931 1356 
Q 2931 1769 2642 2001 
Q 2353 2234 1838 2234 
L 1294 2234 
L 1294 2753 
L 1863 2753 
Q 2328 2753 2575 2939 
Q 2822 3125 2822 3475 
Q 2822 3834 2567 4026 
Q 2313 4219 1838 4219 
Q 1578 4219 1281 4162 
Q 984 4106 628 3988 
L 628 4550 
Q 988 4650 1302 4700 
Q 1616 4750 1894 4750 
Q 2613 4750 3031 4423 
Q 3450 4097 3450 3541 
Q 3450 3153 3228 2886 
Q 3006 2619 2597 2516 
z
" transform="scale(0.015625)"/>
       <path id="DejaVuSans-20" transform="scale(0.015625)"/>
       <path id="DejaVuSans-76" d="M 191 3500 
L 800 3500 
L 1894 563 
L 2988 3500 
L 3597 3500 
L 2284 0 
L 1503 0 
L 191 3500 
z
" transform="scale(0.015625)"/>
       <path id="DejaVuSans-5f" d="M 3263 -1063 
L 3263 -1509 
L -63 -1509 
L -63 -1063 
L 3263 -1063 
z
" transform="scale(0.015625)"/>
       <path id="DejaVuSans-69" d="M 603 3500 
L 1178 3500 
L 1178 0 
L 603 0 
L 603 3500 
z
M 603 4863 
L 1178 4863 
L 1178 4134 
L 603 4134 
L 603 4863 
z
" transform="scale(0.015625)"/>
       <path id="DejaVuSans-64" d="M 2906 2969 
L 2906 4863 
L 3481 4863 
L 3481 0 
L 2906 0 
L 2906 525 
Q 2725 213 2448 61 
Q 2172 -91 1784 -91 
Q 1150 -91 751 415 
Q 353 922 353 1747 
Q 353 2572 751 3078 
Q 1150 3584 1784 3584 
Q 2172 3584 2448 3432 
Q 2725 3281 2906 2969 
z
M 947 1747 
Q 947 1113 1208 752 
Q 1469 391 1925 391 
Q 2381 391 2643 752 
Q 2906 1113 2906 1747 
Q 2906 2381 2643 2742 
Q 2381 3103 1925 3103 
Q 1469 3103 1208 2742 
Q 947 2381 947 1747 
z
" transform="scale(0.015625)"/>
       <path id="DejaVuSans-65" d="M 3597 1894 
L 3597 1613 
L 953 1613 
Q 991 1019 1311 708 
Q 1631 397 2203 397 
Q 2534 397 2845 478 
Q 3156 559 3463 722 
L 3463 178 
Q 3153 47 2828 -22 
Q 2503 -91 2169 -91 
Q 1331 -91 842 396 
Q 353 884 353 1716 
Q 353 2575 817 3079 
Q 1281 3584 2069 3584 
Q 2775 3584 3186 3129 
Q 3597 2675 3597 1894 
z
M 3022 2063 
Q 3016 2534 2758 2815 
Q 2500 3097 2075 3097 
Q 1594 3097 1305 2825 
Q 1016 2553 972 2059 
L 3022 2063 
z
" transform="scale(0.015625)"/>
       <path id="DejaVuSans-6e" d="M 3513 2113 
L 3513 0 
L 2938 0 
L 2938 2094 
Q 2938 2591 2744 2837 
Q 2550 3084 2163 3084 
Q 1697 3084 1428 2787 
Q 1159 2491 1159 1978 
L 1159 0 
L 581 0 
L 581 3500 
L 1159 3500 
L 1159 2956 
Q 1366 3272 1645 3428 
Q 1925 3584 2291 3584 
Q 2894 3584 3203 3211 
Q 3513 2838 3513 2113 
z
" transform="scale(0.015625)"/>
       <path id="DejaVuSans-74" d="M 1172 4494 
L 1172 3500 
L 2356 3500 
L 2356 3053 
L 1172 3053 
L 1172 1153 
Q 1172 725 1289 603 
Q 1406 481 1766 481 
L 2356 481 
L 2356 0 
L 1766 0 
Q 1100 0 847 248 
Q 594 497 594 1153 
L 594 3053 
L 172 3053 
L 172 3500 
L 594 3500 
L 594 4494 
L 1172 4494 
z
" transform="scale(0.015625)"/>
       <path id="DejaVuSans-79" d="M 2059 -325 
Q 1816 -950 1584 -1140 
Q 1353 -1331 966 -1331 
L 506 -1331 
L 506 -850 
L 844 -850 
Q 1081 -850 1212 -737 
Q 1344 -625 1503 -206 
L 1606 56 
L 191 3500 
L 800 3500 
L 1894 763 
L 2988 3500 
L 3597 3500 
L 2059 -325 
z
" transform="scale(0.015625)"/>
      </defs>
      <use xlink:href="#DejaVuSans-43"/>
      <use xlink:href="#DejaVuSans-44" x="69.824219"/>
      <use xlink:href="#DejaVuSans-52" x="146.826172"/>
      <use xlink:href="#DejaVuSans-2d" x="212.308594"/>
      <use xlink:href="#DejaVuSans-48" x="248.392578"/>
      <use xlink:href="#DejaVuSans-33" x="323.587891"/>
      <use xlink:href="#DejaVuSans-20" x="387.210938"/>
      <use xlink:href="#DejaVuSans-76" x="418.998047"/>
      <use xlink:href="#DejaVuSans-5f" x="478.177734"/>
      <use xlink:href="#DejaVuSans-69" x="528.177734"/>
      <use xlink:href="#DejaVuSans-64" x="555.960938"/>
      <use xlink:href="#DejaVuSans-65" x="619.4375"/>
      <use xlink:href="#DejaVuSans-6e" x="680.960938"/>
      <use xlink:href="#DejaVuSans-69" x="744.339844"/>
      <use xlink:href="#DejaVuSans-74" x="772.123047"/>
      <use xlink:href="#DejaVuSans-79" x="811.332031"/>
     </g>
    </g>
   </g>
   <g id="PolyCollection_1">
    <defs>
     <path id="m9bdf5436d1" d="M 471.422466 -272.379221 
L 285.636357 -272.379221 
L 283.966121 -275.733179 
L 282.322893 -279.087137 
L 280.707398 -282.441095 
L 279.120219 -285.795053 
L 277.561788 -289.149011 
L 276.032397 -292.502968 
L 274.53219 -295.856926 
L 273.06117 -299.210884 
L 271.619202 -302.564842 
L 270.206017 -305.9188 
L 268.821215 -309.272758 
L 267.464273 -312.626716 
L 266.13455 -315.980674 
L 264.831296 -319.334632 
L 263.553658 -322.688589 
L 262.300689 -326.042547 
L 261.071359 -329.396505 
L 259.864562 -332.750463 
L 258.679128 -336.104421 
L 257.513833 -339.458379 
L 256.367412 -342.812337 
L 255.238567 -346.166295 
L 254.12598 -349.520253 
L 253.028327 -352.874211 
L 251.944286 -356.228168 
L 250.872553 -359.582126 
L 249.811851 -362.936084 
L 248.760942 -366.290042 
L 247.718642 -369.644 
L 246.68383 -372.997958 
L 245.655457 -376.351916 
L 244.632564 -379.705874 
L 243.614286 -383.059832 
L 242.599864 -386.413789 
L 241.588657 -389.767747 
L 240.58015 -393.121705 
L 239.573961 -396.475663 
L 238.56985 -399.829621 
L 237.567725 -403.183579 
L 236.567653 -406.537537 
L 235.56986 -409.891495 
L 234.574736 -413.245453 
L 233.582845 -416.599411 
L 232.594921 -419.953368 
L 231.611871 -423.307326 
L 230.634782 -426.661284 
L 229.664913 -430.015242 
L 228.703697 -433.3692 
L 227.752742 -436.723158 
L 226.813823 -440.077116 
L 225.88888 -443.431074 
L 224.980012 -446.785032 
L 224.089472 -450.138989 
L 223.219658 -453.492947 
L 222.373103 -456.846905 
L 221.552472 -460.200863 
L 220.760543 -463.554821 
L 220.000203 -466.908779 
L 219.27443 -470.262737 
L 218.586286 -473.616695 
L 217.938896 -476.970653 
L 217.335441 -480.324611 
L 216.779137 -483.678568 
L 216.273224 -487.032526 
L 215.820944 -490.386484 
L 215.425533 -493.740442 
L 215.090195 -497.0944 
L 214.818091 -500.448358 
L 214.612321 -503.802316 
L 214.475904 -507.156274 
L 214.411765 -510.510232 
L 214.422714 -513.864189 
L 214.511434 -517.218147 
L 214.680459 -520.572105 
L 214.932166 -523.926063 
L 215.26875 -527.280021 
L 215.69222 -530.633979 
L 216.204378 -533.987937 
L 216.806808 -537.341895 
L 217.500867 -540.695853 
L 218.28767 -544.049811 
L 219.168084 -547.403768 
L 220.142717 -550.757726 
L 221.211911 -554.111684 
L 222.375738 -557.465642 
L 223.633993 -560.8196 
L 224.986193 -564.173558 
L 226.431574 -567.527516 
L 227.96909 -570.881474 
L 229.597415 -574.235432 
L 231.314945 -577.589389 
L 233.119804 -580.943347 
L 235.009845 -584.297305 
L 236.982662 -587.651263 
L 239.035594 -591.005221 
L 241.165737 -594.359179 
L 243.369952 -597.713137 
L 245.644881 -601.067095 
L 247.986955 -604.421053 
L 509.071868 -604.421053 
L 509.071868 -604.421053 
L 511.413943 -601.067095 
L 513.688871 -597.713137 
L 515.893087 -594.359179 
L 518.023229 -591.005221 
L 520.076161 -587.651263 
L 522.048978 -584.297305 
L 523.93902 -580.943347 
L 525.743878 -577.589389 
L 527.461409 -574.235432 
L 529.089733 -570.881474 
L 530.627249 -567.527516 
L 532.07263 -564.173558 
L 533.424831 -560.8196 
L 534.683086 -557.465642 
L 535.846913 -554.111684 
L 536.916107 -550.757726 
L 537.890739 -547.403768 
L 538.771153 -544.049811 
L 539.557956 -540.695853 
L 540.252015 -537.341895 
L 540.854446 -533.987937 
L 541.366603 -530.633979 
L 541.790073 -527.280021 
L 542.126658 -523.926063 
L 542.378364 -520.572105 
L 542.54739 -517.218147 
L 542.636109 -513.864189 
L 542.647059 -510.510232 
L 542.58292 -507.156274 
L 542.446503 -503.802316 
L 542.240733 -500.448358 
L 541.968629 -497.0944 
L 541.633291 -493.740442 
L 541.237879 -490.386484 
L 540.7856 -487.032526 
L 540.279686 -483.678568 
L 539.723383 -480.324611 
L 539.119927 -476.970653 
L 538.472538 -473.616695 
L 537.784393 -470.262737 
L 537.058621 -466.908779 
L 536.29828 -463.554821 
L 535.506352 -460.200863 
L 534.68572 -456.846905 
L 533.839166 -453.492947 
L 532.969351 -450.138989 
L 532.078811 -446.785032 
L 531.169943 -443.431074 
L 530.245 -440.077116 
L 529.306081 -436.723158 
L 528.355126 -433.3692 
L 527.393911 -430.015242 
L 526.424041 -426.661284 
L 525.446952 -423.307326 
L 524.463903 -419.953368 
L 523.475978 -416.599411 
L 522.484087 -413.245453 
L 521.488964 -409.891495 
L 520.49117 -406.537537 
L 519.491098 -403.183579 
L 518.488974 -399.829621 
L 517.484862 -396.475663 
L 516.478673 -393.121705 
L 515.470166 -389.767747 
L 514.45896 -386.413789 
L 513.444538 -383.059832 
L 512.426259 -379.705874 
L 511.403366 -376.351916 
L 510.374994 -372.997958 
L 509.340181 -369.644 
L 508.297881 -366.290042 
L 507.246973 -362.936084 
L 506.186271 -359.582126 
L 505.114537 -356.228168 
L 504.030497 -352.874211 
L 502.932844 -349.520253 
L 501.820257 -346.166295 
L 500.691412 -342.812337 
L 499.54499 -339.458379 
L 498.379696 -336.104421 
L 497.194262 -332.750463 
L 495.987465 -329.396505 
L 494.758134 -326.042547 
L 493.505165 -322.688589 
L 492.227527 -319.334632 
L 490.924273 -315.980674 
L 489.594551 -312.626716 
L 488.237609 -309.272758 
L 486.852807 -305.9188 
L 485.439621 -302.564842 
L 483.997654 -299.210884 
L 482.526634 -295.856926 
L 481.026427 -292.502968 
L 479.497035 -289.149011 
L 477.938605 -285.795053 
L 476.351425 -282.441095 
L 474.735931 -279.087137 
L 473.092702 -275.733179 
L 471.422466 -272.379221 
z
" style="stroke: #ffffff; stroke-opacity: 0.3"/>
    </defs>
    <g clip-path="url(#p8ef3692110)">
     <use xlink:href="#m9bdf5436d1" x="0" y="720" style="fill: #e41a1c; fill-opacity: 0.3; stroke: #ffffff; stroke-opacity: 0.3"/>
    </g>
   </g>
   <g id="LineCollection_1">
    <path d="M 296.470588 115.578947 
L 460.588235 115.578947 
" clip-path="url(#p8ef3692110)" style="fill: none; stroke: #4c72b0; stroke-width: 1.5"/>
   </g>
   <g id="LineCollection_2">
    <path d="M 296.470588 447.620779 
L 460.588235 447.620779 
" clip-path="url(#p8ef3692110)" style="fill: none; stroke: #4c72b0; stroke-width: 1.5"/>
   </g>
   <g id="LineCollection_3">
    <path d="M 378.529412 447.620779 
L 378.529412 115.578947 
" clip-path="url(#p8ef3692110)" style="fill: none; stroke: #4c72b0; stroke-width: 1.5"/>
   </g>
   <g id="patch_3">
    <path d="M 198 640.8 
L 198 86.4 
" style="fill: none; stroke: #cccccc; stroke-width: 1.25; stroke-linejoin: miter; stroke-linecap: square"/>
   </g>
   <g id="patch_4">
    <path d="M 559.058824 640.8 
L 559.058824 86.4 
" style="fill: none; stroke: #cccccc; stroke-width: 1.25; stroke-linejoin: miter; stroke-linecap: square"/>
   </g>
   <g id="patch_5">
    <path d="M 198 640.8 
L 559.058824 640.8 
" style="fill: none; stroke: #cccccc; stroke-width: 1.25; stroke-linejoin: miter; stroke-linecap: square"/>
   </g>
   <g id="patch_6">
    <path d="M 198 86.4 
L 559.058824 86.4 
" style="fill: none; stroke: #cccccc; stroke-width: 1.25; stroke-linejoin: miter; stroke-linecap: square"/>
   </g>
   <g id="text_10">
    <g id="patch_7">
     <path d="M 239.133529 513.9425 
L 322.953529 513.9425 
L 322.953529 490.4575 
L 239.133529 490.4575 
z
" style="fill: #ffffff; stroke: #000000; stroke-linejoin: miter"/>
    </g>
    <!-- # seqs: 5 -->
    <g style="fill: #262626" transform="translate(243.133529 506.615) scale(0.16 -0.16)">
     <defs>
      <path id="DejaVuSans-23" d="M 3272 2816 
L 2363 2816 
L 2100 1772 
L 3016 1772 
L 3272 2816 
z
M 2803 4594 
L 2478 3297 
L 3391 3297 
L 3719 4594 
L 4219 4594 
L 3897 3297 
L 4872 3297 
L 4872 2816 
L 3775 2816 
L 3519 1772 
L 4513 1772 
L 4513 1294 
L 3397 1294 
L 3072 0 
L 2572 0 
L 2894 1294 
L 1978 1294 
L 1656 0 
L 1153 0 
L 1478 1294 
L 494 1294 
L 494 1772 
L 1594 1772 
L 1856 2816 
L 850 2816 
L 850 3297 
L 1978 3297 
L 2297 4594 
L 2803 4594 
z
" transform="scale(0.015625)"/>
      <path id="DejaVuSans-73" d="M 2834 3397 
L 2834 2853 
Q 2591 2978 2328 3040 
Q 2066 3103 1784 3103 
Q 1356 3103 1142 2972 
Q 928 2841 928 2578 
Q 928 2378 1081 2264 
Q 1234 2150 1697 2047 
L 1894 2003 
Q 2506 1872 2764 1633 
Q 3022 1394 3022 966 
Q 3022 478 2636 193 
Q 2250 -91 1575 -91 
Q 1294 -91 989 -36 
Q 684 19 347 128 
L 347 722 
Q 666 556 975 473 
Q 1284 391 1588 391 
Q 1994 391 2212 530 
Q 2431 669 2431 922 
Q 2431 1156 2273 1281 
Q 2116 1406 1581 1522 
L 1381 1569 
Q 847 1681 609 1914 
Q 372 2147 372 2553 
Q 372 3047 722 3315 
Q 1072 3584 1716 3584 
Q 2034 3584 2315 3537 
Q 2597 3491 2834 3397 
z
" transform="scale(0.015625)"/>
      <path id="DejaVuSans-71" d="M 947 1747 
Q 947 1113 1208 752 
Q 1469 391 1925 391 
Q 2381 391 2643 752 
Q 2906 1113 2906 1747 
Q 2906 2381 2643 2742 
Q 2381 3103 1925 3103 
Q 1469 3103 1208 2742 
Q 947 2381 947 1747 
z
M 2906 525 
Q 2725 213 2448 61 
Q 2172 -91 1784 -91 
Q 1150 -91 751 415 
Q 353 922 353 1747 
Q 353 2572 751 3078 
Q 1150 3584 1784 3584 
Q 2172 3584 2448 3432 
Q 2725 3281 2906 2969 
L 2906 3500 
L 3481 3500 
L 3481 -1331 
L 2906 -1331 
L 2906 525 
z
" transform="scale(0.015625)"/>
      <path id="DejaVuSans-3a" d="M 750 794 
L 1409 794 
L 1409 0 
L 750 0 
L 750 794 
z
M 750 3309 
L 1409 3309 
L 1409 2516 
L 750 2516 
L 750 3309 
z
" transform="scale(0.015625)"/>
     </defs>
     <use xlink:href="#DejaVuSans-23"/>
     <use xlink:href="#DejaVuSans-20" x="83.789062"/>
     <use xlink:href="#DejaVuSans-73" x="115.576172"/>
     <use xlink:href="#DejaVuSans-65" x="167.675781"/>
     <use xlink:href="#DejaVuSans-71" x="229.199219"/>
     <use xlink:href="#DejaVuSans-73" x="292.675781"/>
     <use xlink:href="#DejaVuSans-3a" x="344.775391"/>
     <use xlink:href="#DejaVuSans-20" x="378.466797"/>
     <use xlink:href="#DejaVuSans-35" x="410.253906"/>
    </g>
   </g>
   <g id="text_11">
    <g id="patch_8">
     <path d="M 203.771029 541.885 
L 358.316029 541.885 
L 358.316029 517.955 
L 203.771029 517.955 
z
" style="fill: #ffffff; stroke: #000000; stroke-linejoin: miter"/>
    </g>
    <!-- AVG v_identity: 90 -->
    <g style="fill: #262626" transform="translate(207.771029 534.1125) scale(0.16 -0.16)">
     <defs>
      <path id="DejaVuSans-41" d="M 2188 4044 
L 1331 1722 
L 3047 1722 
L 2188 4044 
z
M 1831 4666 
L 2547 4666 
L 4325 0 
L 3669 0 
L 3244 1197 
L 1141 1197 
L 716 0 
L 50 0 
L 1831 4666 
z
" transform="scale(0.015625)"/>
      <path id="DejaVuSans-56" d="M 1831 0 
L 50 4666 
L 709 4666 
L 2188 738 
L 3669 4666 
L 4325 4666 
L 2547 0 
L 1831 0 
z
" transform="scale(0.015625)"/>
      <path id="DejaVuSans-47" d="M 3809 666 
L 3809 1919 
L 2778 1919 
L 2778 2438 
L 4434 2438 
L 4434 434 
Q 4069 175 3628 42 
Q 3188 -91 2688 -91 
Q 1594 -91 976 548 
Q 359 1188 359 2328 
Q 359 3472 976 4111 
Q 1594 4750 2688 4750 
Q 3144 4750 3555 4637 
Q 3966 4525 4313 4306 
L 4313 3634 
Q 3963 3931 3569 4081 
Q 3175 4231 2741 4231 
Q 1884 4231 1454 3753 
Q 1025 3275 1025 2328 
Q 1025 1384 1454 906 
Q 1884 428 2741 428 
Q 3075 428 3337 486 
Q 3600 544 3809 666 
z
" transform="scale(0.015625)"/>
     </defs>
     <use xlink:href="#DejaVuSans-41"/>
     <use xlink:href="#DejaVuSans-56" x="62.033203"/>
     <use xlink:href="#DejaVuSans-47" x="130.441406"/>
     <use xlink:href="#DejaVuSans-20" x="207.931641"/>
     <use xlink:href="#DejaVuSans-76" x="239.71875"/>
     <use xlink:href="#DejaVuSans-5f" x="298.898438"/>
     <use xlink:href="#DejaVuSans-69" x="348.898438"/>
     <use xlink:href="#DejaVuSans-64" x="376.681641"/>
     <use xlink:href="#DejaVuSans-65" x="440.158203"/>
     <use xlink:href="#DejaVuSans-6e" x="501.681641"/>
     <use xlink:href="#DejaVuSans-74" x="565.060547"/>
     <use xlink:href="#DejaVuSans-69" x="604.269531"/>
     <use xlink:href="#DejaVuSans-74" x="632.052734"/>
     <use xlink:href="#DejaVuSans-79" x="671.261719"/>
     <use xlink:href="#DejaVuSans-3a" x="723.191406"/>
     <use xlink:href="#DejaVuSans-20" x="756.882812"/>
     <use xlink:href="#DejaVuSans-39" x="788.669922"/>
     <use xlink:href="#DejaVuSans-30" x="852.292969"/>
    </g>
   </g>
   <g id="text_12">
    <!-- NON -->
    <g style="fill: #262626" transform="translate(355.695037 74.856) scale(0.2 -0.2)">
     <defs>
      <path id="DejaVuSans-4e" d="M 628 4666 
L 1478 4666 
L 3547 763 
L 3547 4666 
L 4159 4666 
L 4159 0 
L 3309 0 
L 1241 3903 
L 1241 0 
L 628 0 
L 628 4666 
z
" transform="scale(0.015625)"/>
      <path id="DejaVuSans-4f" d="M 2522 4238 
Q 1834 4238 1429 3725 
Q 1025 3213 1025 2328 
Q 1025 1447 1429 934 
Q 1834 422 2522 422 
Q 3209 422 3611 934 
Q 4013 1447 4013 2328 
Q 4013 3213 3611 3725 
Q 3209 4238 2522 4238 
z
M 2522 4750 
Q 3503 4750 4090 4092 
Q 4678 3434 4678 2328 
Q 4678 1225 4090 567 
Q 3503 -91 2522 -91 
Q 1538 -91 948 565 
Q 359 1222 359 2328 
Q 359 3434 948 4092 
Q 1538 4750 2522 4750 
z
" transform="scale(0.015625)"/>
     </defs>
     <use xlink:href="#DejaVuSans-4e"/>
     <use xlink:href="#DejaVuSans-4f" x="74.804688"/>
     <use xlink:href="#DejaVuSans-4e" x="153.515625"/>
    </g>
   </g>
  </g>
  <g id="axes_2">
   <g id="patch_9">
    <path d="M 631.270588 640.8 
L 992.329412 640.8 
L 992.329412 86.4 
L 631.270588 86.4 
z
" style="fill: #ffffff"/>
   </g>
   <g id="matplotlib.axis_3">
    <g id="text_13">
     <!-- CDR-H3 sequences -->
     <g style="fill: #262626" transform="translate(716.5 667.996875) scale(0.2 -0.2)">
      <defs>
       <path id="DejaVuSans-75" d="M 544 1381 
L 544 3500 
L 1119 3500 
L 1119 1403 
Q 1119 906 1312 657 
Q 1506 409 1894 409 
Q 2359 409 2629 706 
Q 2900 1003 2900 1516 
L 2900 3500 
L 3475 3500 
L 3475 0 
L 2900 0 
L 2900 538 
Q 2691 219 2414 64 
Q 2138 -91 1772 -91 
Q 1169 -91 856 284 
Q 544 659 544 1381 
z
M 1991 3584 
L 1991 3584 
z
" transform="scale(0.015625)"/>
       <path id="DejaVuSans-63" d="M 3122 3366 
L 3122 2828 
Q 2878 2963 2633 3030 
Q 2388 3097 2138 3097 
Q 1578 3097 1268 2742 
Q 959 2388 959 1747 
Q 959 1106 1268 751 
Q 1578 397 2138 397 
Q 2388 397 2633 464 
Q 2878 531 3122 666 
L 3122 134 
Q 2881 22 2623 -34 
Q 2366 -91 2075 -91 
Q 1284 -91 818 406 
Q 353 903 353 1747 
Q 353 2603 823 3093 
Q 1294 3584 2113 3584 
Q 2378 3584 2631 3529 
Q 2884 3475 3122 3366 
z
" transform="scale(0.015625)"/>
      </defs>
      <use xlink:href="#DejaVuSans-43"/>
      <use xlink:href="#DejaVuSans-44" x="69.824219"/>
      <use xlink:href="#DejaVuSans-52" x="146.826172"/>
      <use xlink:href="#DejaVuSans-2d" x="212.308594"/>
      <use xlink:href="#DejaVuSans-48" x="248.392578"/>
      <use xlink:href="#DejaVuSans-33" x="323.587891"/>
      <use xlink:href="#DejaVuSans-20" x="387.210938"/>
      <use xlink:href="#DejaVuSans-73" x="418.998047"/>
      <use xlink:href="#DejaVuSans-65" x="471.097656"/>
      <use xlink:href="#DejaVuSans-71" x="532.621094"/>
      <use xlink:href="#DejaVuSans-75" x="596.097656"/>
      <use xlink:href="#DejaVuSans-65" x="659.476562"/>
      <use xlink:href="#DejaVuSans-6e" x="721"/>
      <use xlink:href="#DejaVuSans-63" x="784.378906"/>
      <use xlink:href="#DejaVuSans-65" x="839.359375"/>
      <use xlink:href="#DejaVuSans-73" x="900.882812"/>
     </g>
    </g>
   </g>
   <g id="matplotlib.axis_4">
    <g id="ytick_9">
     <g id="line2d_9">
      <path d="M 631.270588 626.210526 
L 992.329412 626.210526 
" clip-path="url(#p0717b250de)" style="fill: none; stroke: #cccccc; stroke-linecap: round"/>
     </g>
     <g id="text_14">
      <!-- 65 -->
      <g style="fill: #262626" transform="translate(596.320588 633.808964) scale(0.2 -0.2)">
       <use xlink:href="#DejaVuSans-36"/>
       <use xlink:href="#DejaVuSans-35" x="63.623047"/>
      </g>
     </g>
    </g>
    <g id="ytick_10">
     <g id="line2d_10">
      <path d="M 631.270588 553.263158 
L 992.329412 553.263158 
" clip-path="url(#p0717b250de)" style="fill: none; stroke: #cccccc; stroke-linecap: round"/>
     </g>
     <g id="text_15">
      <!-- 70 -->
      <g style="fill: #262626" transform="translate(596.320588 560.861595) scale(0.2 -0.2)">
       <use xlink:href="#DejaVuSans-37"/>
       <use xlink:href="#DejaVuSans-30" x="63.623047"/>
      </g>
     </g>
    </g>
    <g id="ytick_11">
     <g id="line2d_11">
      <path d="M 631.270588 480.315789 
L 992.329412 480.315789 
" clip-path="url(#p0717b250de)" style="fill: none; stroke: #cccccc; stroke-linecap: round"/>
     </g>
     <g id="text_16">
      <!-- 75 -->
      <g style="fill: #262626" transform="translate(596.320588 487.914227) scale(0.2 -0.2)">
       <use xlink:href="#DejaVuSans-37"/>
       <use xlink:href="#DejaVuSans-35" x="63.623047"/>
      </g>
     </g>
    </g>
    <g id="ytick_12">
     <g id="line2d_12">
      <path d="M 631.270588 407.368421 
L 992.329412 407.368421 
" clip-path="url(#p0717b250de)" style="fill: none; stroke: #cccccc; stroke-linecap: round"/>
     </g>
     <g id="text_17">
      <!-- 80 -->
      <g style="fill: #262626" transform="translate(596.320588 414.966859) scale(0.2 -0.2)">
       <use xlink:href="#DejaVuSans-38"/>
       <use xlink:href="#DejaVuSans-30" x="63.623047"/>
      </g>
     </g>
    </g>
    <g id="ytick_13">
     <g id="line2d_13">
      <path d="M 631.270588 334.421053 
L 992.329412 334.421053 
" clip-path="url(#p0717b250de)" style="fill: none; stroke: #cccccc; stroke-linecap: round"/>
     </g>
     <g id="text_18">
      <!-- 85 -->
      <g style="fill: #262626" transform="translate(596.320588 342.01949) scale(0.2 -0.2)">
       <use xlink:href="#DejaVuSans-38"/>
       <use xlink:href="#DejaVuSans-35" x="63.623047"/>
      </g>
     </g>
    </g>
    <g id="ytick_14">
     <g id="line2d_14">
      <path d="M 631.270588 261.473684 
L 992.329412 261.473684 
" clip-path="url(#p0717b250de)" style="fill: none; stroke: #cccccc; stroke-linecap: round"/>
     </g>
     <g id="text_19">
      <!-- 90 -->
      <g style="fill: #262626" transform="translate(596.320588 269.072122) scale(0.2 -0.2)">
       <use xlink:href="#DejaVuSans-39"/>
       <use xlink:href="#DejaVuSans-30" x="63.623047"/>
      </g>
     </g>
    </g>
    <g id="ytick_15">
     <g id="line2d_15">
      <path d="M 631.270588 188.526316 
L 992.329412 188.526316 
" clip-path="url(#p0717b250de)" style="fill: none; stroke: #cccccc; stroke-linecap: round"/>
     </g>
     <g id="text_20">
      <!-- 95 -->
      <g style="fill: #262626" transform="translate(596.320588 196.124753) scale(0.2 -0.2)">
       <use xlink:href="#DejaVuSans-39"/>
       <use xlink:href="#DejaVuSans-35" x="63.623047"/>
      </g>
     </g>
    </g>
    <g id="ytick_16">
     <g id="line2d_16">
      <path d="M 631.270588 115.578947 
L 992.329412 115.578947 
" clip-path="url(#p0717b250de)" style="fill: none; stroke: #cccccc; stroke-linecap: round"/>
     </g>
     <g id="text_21">
      <!-- 100 -->
      <g style="fill: #262626" transform="translate(583.595588 123.177385) scale(0.2 -0.2)">
       <use xlink:href="#DejaVuSans-31"/>
       <use xlink:href="#DejaVuSans-30" x="63.623047"/>
       <use xlink:href="#DejaVuSans-30" x="127.246094"/>
      </g>
     </g>
    </g>
   </g>
   <g id="PolyCollection_2">
    <defs>
     <path id="m026f1e218d" d="M 822.161313 -183.660632 
L 801.438687 -183.660632 
L 801.039789 -187.610989 
L 800.706917 -191.561347 
L 800.441155 -195.511705 
L 800.240519 -199.462063 
L 800.099865 -203.412421 
L 800.010942 -207.362779 
L 799.962599 -211.313137 
L 799.941139 -215.263495 
L 799.930793 -219.213853 
L 799.914315 -223.164211 
L 799.873629 -227.114568 
L 799.790527 -231.064926 
L 799.64734 -235.015284 
L 799.427578 -238.965642 
L 799.116466 -242.916 
L 798.701379 -246.866358 
L 798.172126 -250.816716 
L 797.521099 -254.767074 
L 796.74327 -258.717432 
L 795.836072 -262.667789 
L 794.799165 -266.618147 
L 793.63415 -270.568505 
L 792.344236 -274.518863 
L 790.93392 -278.469221 
L 789.408701 -282.419579 
L 787.774839 -286.369937 
L 786.039192 -290.320295 
L 784.209104 -294.270653 
L 782.29236 -298.221011 
L 780.297151 -302.171368 
L 778.232059 -306.121726 
L 776.106005 -310.072084 
L 773.928149 -314.022442 
L 771.707726 -317.9728 
L 769.453795 -321.923158 
L 767.174924 -325.873516 
L 764.878807 -329.823874 
L 762.571844 -333.774232 
L 760.258723 -337.724589 
L 757.942007 -341.674947 
L 755.621797 -345.625305 
L 753.295469 -349.575663 
L 750.957518 -353.526021 
L 748.599529 -357.476379 
L 746.210278 -361.426737 
L 743.775964 -365.377095 
L 741.280573 -369.327453 
L 738.706358 -373.277811 
L 736.034441 -377.228168 
L 733.245507 -381.178526 
L 730.320594 -385.128884 
L 727.24195 -389.079242 
L 723.993955 -393.0296 
L 720.564078 -396.979958 
L 716.943855 -400.930316 
L 713.129847 -404.880674 
L 709.124552 -408.831032 
L 704.937238 -412.781389 
L 700.584629 -416.731747 
L 696.091427 -420.682105 
L 691.490598 -424.632463 
L 686.823374 -428.582821 
L 682.138952 -432.533179 
L 677.493814 -436.483537 
L 672.950694 -440.433895 
L 668.577142 -444.384253 
L 664.443739 -448.334611 
L 660.621986 -452.284968 
L 657.181949 -456.235326 
L 654.189757 -460.185684 
L 651.705071 -464.136042 
L 649.778681 -468.0864 
L 648.45037 -472.036758 
L 647.7472 -475.987116 
L 647.682353 -479.937474 
L 648.254633 -483.887832 
L 649.448695 -487.838189 
L 651.236002 -491.788547 
L 653.576483 -495.738905 
L 656.420781 -499.689263 
L 659.712942 -503.639621 
L 663.393372 -507.589979 
L 667.401824 -511.540337 
L 671.680232 -515.490695 
L 676.17516 -519.441053 
L 680.83972 -523.391411 
L 685.634829 -527.341768 
L 690.529733 -531.292126 
L 695.50182 -535.242484 
L 700.535755 -539.192842 
L 705.622077 -543.1432 
L 710.755392 -547.093558 
L 715.932365 -551.043916 
L 721.149681 -554.994274 
L 726.402176 -558.944632 
L 731.681285 -562.894989 
L 736.973928 -566.845347 
L 742.261916 -570.795705 
L 747.521902 -574.746063 
L 876.078098 -574.746063 
L 876.078098 -574.746063 
L 881.338084 -570.795705 
L 886.626072 -566.845347 
L 891.918715 -562.894989 
L 897.197824 -558.944632 
L 902.450319 -554.994274 
L 907.667635 -551.043916 
L 912.844608 -547.093558 
L 917.977923 -543.1432 
L 923.064245 -539.192842 
L 928.09818 -535.242484 
L 933.070267 -531.292126 
L 937.965171 -527.341768 
L 942.76028 -523.391411 
L 947.42484 -519.441053 
L 951.919768 -515.490695 
L 956.198176 -511.540337 
L 960.206628 -507.589979 
L 963.887058 -503.639621 
L 967.179219 -499.689263 
L 970.023517 -495.738905 
L 972.363998 -491.788547 
L 974.151305 -487.838189 
L 975.345367 -483.887832 
L 975.917647 -479.937474 
L 975.8528 -475.987116 
L 975.14963 -472.036758 
L 973.821319 -468.0864 
L 971.894929 -464.136042 
L 969.410243 -460.185684 
L 966.418051 -456.235326 
L 962.978014 -452.284968 
L 959.156261 -448.334611 
L 955.022858 -444.384253 
L 950.649306 -440.433895 
L 946.106186 -436.483537 
L 941.461048 -432.533179 
L 936.776626 -428.582821 
L 932.109402 -424.632463 
L 927.508573 -420.682105 
L 923.015371 -416.731747 
L 918.662762 -412.781389 
L 914.475448 -408.831032 
L 910.470153 -404.880674 
L 906.656145 -400.930316 
L 903.035922 -396.979958 
L 899.606045 -393.0296 
L 896.35805 -389.079242 
L 893.279406 -385.128884 
L 890.354493 -381.178526 
L 887.565559 -377.228168 
L 884.893642 -373.277811 
L 882.319427 -369.327453 
L 879.824036 -365.377095 
L 877.389722 -361.426737 
L 875.000471 -357.476379 
L 872.642482 -353.526021 
L 870.304531 -349.575663 
L 867.978203 -345.625305 
L 865.657993 -341.674947 
L 863.341277 -337.724589 
L 861.028156 -333.774232 
L 858.721193 -329.823874 
L 856.425076 -325.873516 
L 854.146205 -321.923158 
L 851.892274 -317.9728 
L 849.671851 -314.022442 
L 847.493995 -310.072084 
L 845.367941 -306.121726 
L 843.302849 -302.171368 
L 841.30764 -298.221011 
L 839.390896 -294.270653 
L 837.560808 -290.320295 
L 835.825161 -286.369937 
L 834.191299 -282.419579 
L 832.66608 -278.469221 
L 831.255764 -274.518863 
L 829.96585 -270.568505 
L 828.800835 -266.618147 
L 827.763928 -262.667789 
L 826.85673 -258.717432 
L 826.078901 -254.767074 
L 825.427874 -250.816716 
L 824.898621 -246.866358 
L 824.483534 -242.916 
L 824.172422 -238.965642 
L 823.95266 -235.015284 
L 823.809473 -231.064926 
L 823.726371 -227.114568 
L 823.685685 -223.164211 
L 823.669207 -219.213853 
L 823.658861 -215.263495 
L 823.637401 -211.313137 
L 823.589058 -207.362779 
L 823.500135 -203.412421 
L 823.359481 -199.462063 
L 823.158845 -195.511705 
L 822.893083 -191.561347 
L 822.560211 -187.610989 
L 822.161313 -183.660632 
z
" style="stroke: #ffffff; stroke-opacity: 0.3"/>
    </defs>
    <g clip-path="url(#p0717b250de)">
     <use xlink:href="#m026f1e218d" x="0" y="720" style="fill: #377eb8; fill-opacity: 0.3; stroke: #ffffff; stroke-opacity: 0.3"/>
    </g>
   </g>
   <g id="LineCollection_4">
    <path d="M 729.741176 145.253937 
L 893.858824 145.253937 
" clip-path="url(#p0717b250de)" style="fill: none; stroke: #4c72b0; stroke-width: 1.5"/>
   </g>
   <g id="LineCollection_5">
    <path d="M 729.741176 536.339368 
L 893.858824 536.339368 
" clip-path="url(#p0717b250de)" style="fill: none; stroke: #4c72b0; stroke-width: 1.5"/>
   </g>
   <g id="LineCollection_6">
    <path d="M 811.8 536.339368 
L 811.8 145.253937 
" clip-path="url(#p0717b250de)" style="fill: none; stroke: #4c72b0; stroke-width: 1.5"/>
   </g>
   <g id="patch_10">
    <path d="M 631.270588 640.8 
L 631.270588 86.4 
" style="fill: none; stroke: #cccccc; stroke-width: 1.25; stroke-linejoin: miter; stroke-linecap: square"/>
   </g>
   <g id="patch_11">
    <path d="M 992.329412 640.8 
L 992.329412 86.4 
" style="fill: none; stroke: #cccccc; stroke-width: 1.25; stroke-linejoin: miter; stroke-linecap: square"/>
   </g>
   <g id="patch_12">
    <path d="M 631.270588 640.8 
L 992.329412 640.8 
" style="fill: none; stroke: #cccccc; stroke-width: 1.25; stroke-linejoin: miter; stroke-linecap: square"/>
   </g>
   <g id="patch_13">
    <path d="M 631.270588 86.4 
L 992.329412 86.4 
" style="fill: none; stroke: #cccccc; stroke-width: 1.25; stroke-linejoin: miter; stroke-linecap: square"/>
   </g>
   <g id="text_22">
    <g id="patch_14">
     <path d="M 667.314118 513.9425 
L 761.314118 513.9425 
L 761.314118 490.4575 
L 667.314118 490.4575 
z
" style="fill: #ffffff; stroke: #000000; stroke-linejoin: miter"/>
    </g>
    <!-- # seqs: 59 -->
    <g style="fill: #262626" transform="translate(671.314118 506.615) scale(0.16 -0.16)">
     <use xlink:href="#DejaVuSans-23"/>
     <use xlink:href="#DejaVuSans-20" x="83.789062"/>
     <use xlink:href="#DejaVuSans-73" x="115.576172"/>
     <use xlink:href="#DejaVuSans-65" x="167.675781"/>
     <use xlink:href="#DejaVuSans-71" x="229.199219"/>
     <use xlink:href="#DejaVuSans-73" x="292.675781"/>
     <use xlink:href="#DejaVuSans-3a" x="344.775391"/>
     <use xlink:href="#DejaVuSans-20" x="378.466797"/>
     <use xlink:href="#DejaVuSans-35" x="410.253906"/>
     <use xlink:href="#DejaVuSans-39" x="473.876953"/>
    </g>
   </g>
   <g id="text_23">
    <g id="patch_15">
     <path d="M 637.041618 541.885 
L 791.586618 541.885 
L 791.586618 517.955 
L 637.041618 517.955 
z
" style="fill: #ffffff; stroke: #000000; stroke-linejoin: miter"/>
    </g>
    <!-- AVG v_identity: 89 -->
    <g style="fill: #262626" transform="translate(641.041618 534.1125) scale(0.16 -0.16)">
     <use xlink:href="#DejaVuSans-41"/>
     <use xlink:href="#DejaVuSans-56" x="62.033203"/>
     <use xlink:href="#DejaVuSans-47" x="130.441406"/>
     <use xlink:href="#DejaVuSans-20" x="207.931641"/>
     <use xlink:href="#DejaVuSans-76" x="239.71875"/>
     <use xlink:href="#DejaVuSans-5f" x="298.898438"/>
     <use xlink:href="#DejaVuSans-69" x="348.898438"/>
     <use xlink:href="#DejaVuSans-64" x="376.681641"/>
     <use xlink:href="#DejaVuSans-65" x="440.158203"/>
     <use xlink:href="#DejaVuSans-6e" x="501.681641"/>
     <use xlink:href="#DejaVuSans-74" x="565.060547"/>
     <use xlink:href="#DejaVuSans-69" x="604.269531"/>
     <use xlink:href="#DejaVuSans-74" x="632.052734"/>
     <use xlink:href="#DejaVuSans-79" x="671.261719"/>
     <use xlink:href="#DejaVuSans-3a" x="723.191406"/>
     <use xlink:href="#DejaVuSans-20" x="756.882812"/>
     <use xlink:href="#DejaVuSans-38" x="788.669922"/>
     <use xlink:href="#DejaVuSans-39" x="852.292969"/>
    </g>
   </g>
   <g id="text_24">
    <!-- NEU -->
    <g style="fill: #262626" transform="translate(790.68125 74.856) scale(0.2 -0.2)">
     <defs>
      <path id="DejaVuSans-45" d="M 628 4666 
L 3578 4666 
L 3578 4134 
L 1259 4134 
L 1259 2753 
L 3481 2753 
L 3481 2222 
L 1259 2222 
L 1259 531 
L 3634 531 
L 3634 0 
L 628 0 
L 628 4666 
z
" transform="scale(0.015625)"/>
      <path id="DejaVuSans-55" d="M 556 4666 
L 1191 4666 
L 1191 1831 
Q 1191 1081 1462 751 
Q 1734 422 2344 422 
Q 2950 422 3222 751 
Q 3494 1081 3494 1831 
L 3494 4666 
L 4128 4666 
L 4128 1753 
Q 4128 841 3676 375 
Q 3225 -91 2344 -91 
Q 1459 -91 1007 375 
Q 556 841 556 1753 
L 556 4666 
z
" transform="scale(0.015625)"/>
     </defs>
     <use xlink:href="#DejaVuSans-4e"/>
     <use xlink:href="#DejaVuSans-45" x="74.804688"/>
     <use xlink:href="#DejaVuSans-55" x="137.988281"/>
    </g>
   </g>
  </g>
  <g id="axes_3">
   <g id="patch_16">
    <path d="M 1064.541176 640.8 
L 1425.6 640.8 
L 1425.6 86.4 
L 1064.541176 86.4 
z
" style="fill: #ffffff"/>
   </g>
   <g id="matplotlib.axis_5"/>
   <g id="matplotlib.axis_6">
    <g id="ytick_17">
     <g id="line2d_17">
      <path d="M 1064.541176 626.210526 
L 1425.6 626.210526 
" clip-path="url(#p79fea93baa)" style="fill: none; stroke: #cccccc; stroke-linecap: round"/>
     </g>
     <g id="text_25">
      <!-- 65 -->
      <g style="fill: #262626" transform="translate(1029.591176 633.808964) scale(0.2 -0.2)">
       <use xlink:href="#DejaVuSans-36"/>
       <use xlink:href="#DejaVuSans-35" x="63.623047"/>
      </g>
     </g>
    </g>
    <g id="ytick_18">
     <g id="line2d_18">
      <path d="M 1064.541176 553.263158 
L 1425.6 553.263158 
" clip-path="url(#p79fea93baa)" style="fill: none; stroke: #cccccc; stroke-linecap: round"/>
     </g>
     <g id="text_26">
      <!-- 70 -->
      <g style="fill: #262626" transform="translate(1029.591176 560.861595) scale(0.2 -0.2)">
       <use xlink:href="#DejaVuSans-37"/>
       <use xlink:href="#DejaVuSans-30" x="63.623047"/>
      </g>
     </g>
    </g>
    <g id="ytick_19">
     <g id="line2d_19">
      <path d="M 1064.541176 480.315789 
L 1425.6 480.315789 
" clip-path="url(#p79fea93baa)" style="fill: none; stroke: #cccccc; stroke-linecap: round"/>
     </g>
     <g id="text_27">
      <!-- 75 -->
      <g style="fill: #262626" transform="translate(1029.591176 487.914227) scale(0.2 -0.2)">
       <use xlink:href="#DejaVuSans-37"/>
       <use xlink:href="#DejaVuSans-35" x="63.623047"/>
      </g>
     </g>
    </g>
    <g id="ytick_20">
     <g id="line2d_20">
      <path d="M 1064.541176 407.368421 
L 1425.6 407.368421 
" clip-path="url(#p79fea93baa)" style="fill: none; stroke: #cccccc; stroke-linecap: round"/>
     </g>
     <g id="text_28">
      <!-- 80 -->
      <g style="fill: #262626" transform="translate(1029.591176 414.966859) scale(0.2 -0.2)">
       <use xlink:href="#DejaVuSans-38"/>
       <use xlink:href="#DejaVuSans-30" x="63.623047"/>
      </g>
     </g>
    </g>
    <g id="ytick_21">
     <g id="line2d_21">
      <path d="M 1064.541176 334.421053 
L 1425.6 334.421053 
" clip-path="url(#p79fea93baa)" style="fill: none; stroke: #cccccc; stroke-linecap: round"/>
     </g>
     <g id="text_29">
      <!-- 85 -->
      <g style="fill: #262626" transform="translate(1029.591176 342.01949) scale(0.2 -0.2)">
       <use xlink:href="#DejaVuSans-38"/>
       <use xlink:href="#DejaVuSans-35" x="63.623047"/>
      </g>
     </g>
    </g>
    <g id="ytick_22">
     <g id="line2d_22">
      <path d="M 1064.541176 261.473684 
L 1425.6 261.473684 
" clip-path="url(#p79fea93baa)" style="fill: none; stroke: #cccccc; stroke-linecap: round"/>
     </g>
     <g id="text_30">
      <!-- 90 -->
      <g style="fill: #262626" transform="translate(1029.591176 269.072122) scale(0.2 -0.2)">
       <use xlink:href="#DejaVuSans-39"/>
       <use xlink:href="#DejaVuSans-30" x="63.623047"/>
      </g>
     </g>
    </g>
    <g id="ytick_23">
     <g id="line2d_23">
      <path d="M 1064.541176 188.526316 
L 1425.6 188.526316 
" clip-path="url(#p79fea93baa)" style="fill: none; stroke: #cccccc; stroke-linecap: round"/>
     </g>
     <g id="text_31">
      <!-- 95 -->
      <g style="fill: #262626" transform="translate(1029.591176 196.124753) scale(0.2 -0.2)">
       <use xlink:href="#DejaVuSans-39"/>
       <use xlink:href="#DejaVuSans-35" x="63.623047"/>
      </g>
     </g>
    </g>
    <g id="ytick_24">
     <g id="line2d_24">
      <path d="M 1064.541176 115.578947 
L 1425.6 115.578947 
" clip-path="url(#p79fea93baa)" style="fill: none; stroke: #cccccc; stroke-linecap: round"/>
     </g>
     <g id="text_32">
      <!-- 100 -->
      <g style="fill: #262626" transform="translate(1016.866176 123.177385) scale(0.2 -0.2)">
       <use xlink:href="#DejaVuSans-31"/>
       <use xlink:href="#DejaVuSans-30" x="63.623047"/>
       <use xlink:href="#DejaVuSans-30" x="127.246094"/>
      </g>
     </g>
    </g>
   </g>
   <g id="PolyCollection_3">
    <defs>
     <path id="mde72ccdb06" d="M 1273.245361 -96.532295 
L 1216.895815 -96.532295 
L 1213.808065 -101.662484 
L 1210.73788 -106.792674 
L 1207.735103 -111.922863 
L 1204.844979 -117.053053 
L 1202.10535 -122.183242 
L 1199.544384 -127.313432 
L 1197.179095 -132.443621 
L 1195.014809 -137.573811 
L 1193.045646 -142.704 
L 1191.255975 -147.834189 
L 1189.622651 -152.964379 
L 1188.117806 -158.094568 
L 1186.711826 -163.224758 
L 1185.376186 -168.354947 
L 1184.085789 -173.485137 
L 1182.82055 -178.615326 
L 1181.566061 -183.745516 
L 1180.313289 -188.875705 
L 1179.057417 -194.005895 
L 1177.796032 -199.136084 
L 1176.526978 -204.266274 
L 1175.246226 -209.396463 
L 1173.946119 -214.526653 
L 1172.614273 -219.656842 
L 1171.233352 -224.787032 
L 1169.781759 -229.917221 
L 1168.235164 -235.047411 
L 1166.568655 -240.1776 
L 1164.759183 -245.307789 
L 1162.78793 -250.437979 
L 1160.642224 -255.568168 
L 1158.316701 -260.698358 
L 1155.813521 -265.828547 
L 1153.141605 -270.958737 
L 1150.315006 -276.088926 
L 1147.350704 -281.219116 
L 1144.266163 -286.349305 
L 1141.077094 -291.479495 
L 1137.795805 -296.609684 
L 1134.430438 -301.739874 
L 1130.985262 -306.870063 
L 1127.462008 -312.000253 
L 1123.862085 -317.130442 
L 1120.189326 -322.260632 
L 1116.452877 -327.390821 
L 1112.669768 -332.521011 
L 1108.86677 -337.6512 
L 1105.081252 -342.781389 
L 1101.360892 -347.911579 
L 1097.762267 -353.041768 
L 1094.348516 -358.171958 
L 1091.186394 -363.302147 
L 1088.343078 -368.432337 
L 1085.883134 -373.562526 
L 1083.865947 -378.692716 
L 1082.343843 -383.822905 
L 1081.36098 -388.953095 
L 1080.952941 -394.083284 
L 1081.146867 -399.213474 
L 1081.961866 -404.343663 
L 1083.409443 -409.473853 
L 1085.493721 -414.604042 
L 1088.211285 -419.734232 
L 1091.550628 -424.864421 
L 1095.491279 -429.994611 
L 1100.002768 -435.1248 
L 1105.043705 -440.254989 
L 1110.561226 -445.385179 
L 1116.491065 -450.515368 
L 1122.758405 -455.645558 
L 1129.27961 -460.775747 
L 1135.964768 -465.905937 
L 1142.720913 -471.036126 
L 1149.455663 -476.166316 
L 1156.080979 -481.296505 
L 1162.516727 -486.426695 
L 1168.693741 -491.556884 
L 1174.556145 -496.687074 
L 1180.062795 -501.817263 
L 1185.187758 -506.947453 
L 1189.919879 -512.077642 
L 1194.261537 -517.207832 
L 1198.226772 -522.338021 
L 1201.838973 -527.468211 
L 1205.128359 -532.5984 
L 1208.129432 -537.728589 
L 1210.878573 -542.858779 
L 1213.411914 -547.988968 
L 1215.76356 -553.119158 
L 1217.964203 -558.249347 
L 1220.040149 -563.379537 
L 1222.012738 -568.509726 
L 1223.898125 -573.639916 
L 1225.707379 -578.770105 
L 1227.44686 -583.900295 
L 1229.118802 -589.030484 
L 1230.722065 -594.160674 
L 1232.252974 -599.290863 
L 1233.706207 -604.421053 
L 1256.43497 -604.421053 
L 1256.43497 -604.421053 
L 1257.888202 -599.290863 
L 1259.419111 -594.160674 
L 1261.022374 -589.030484 
L 1262.694317 -583.900295 
L 1264.433797 -578.770105 
L 1266.243052 -573.639916 
L 1268.128438 -568.509726 
L 1270.101027 -563.379537 
L 1272.176973 -558.249347 
L 1274.377616 -553.119158 
L 1276.729262 -547.988968 
L 1279.262604 -542.858779 
L 1282.011745 -537.728589 
L 1285.012818 -532.5984 
L 1288.302204 -527.468211 
L 1291.914405 -522.338021 
L 1295.879639 -517.207832 
L 1300.221297 -512.077642 
L 1304.953418 -506.947453 
L 1310.078382 -501.817263 
L 1315.585032 -496.687074 
L 1321.447436 -491.556884 
L 1327.624449 -486.426695 
L 1334.060198 -481.296505 
L 1340.685514 -476.166316 
L 1347.420264 -471.036126 
L 1354.176409 -465.905937 
L 1360.861567 -460.775747 
L 1367.382771 -455.645558 
L 1373.650111 -450.515368 
L 1379.57995 -445.385179 
L 1385.097472 -440.254989 
L 1390.138408 -435.1248 
L 1394.649897 -429.994611 
L 1398.590548 -424.864421 
L 1401.929892 -419.734232 
L 1404.647455 -414.604042 
L 1406.731733 -409.473853 
L 1408.179311 -404.343663 
L 1408.994309 -399.213474 
L 1409.188235 -394.083284 
L 1408.780197 -388.953095 
L 1407.797334 -383.822905 
L 1406.27523 -378.692716 
L 1404.258042 -373.562526 
L 1401.798098 -368.432337 
L 1398.954783 -363.302147 
L 1395.79266 -358.171958 
L 1392.37891 -353.041768 
L 1388.780284 -347.911579 
L 1385.059924 -342.781389 
L 1381.274407 -337.6512 
L 1377.471409 -332.521011 
L 1373.688299 -327.390821 
L 1369.951851 -322.260632 
L 1366.279092 -317.130442 
L 1362.679168 -312.000253 
L 1359.155915 -306.870063 
L 1355.710738 -301.739874 
L 1352.345371 -296.609684 
L 1349.064083 -291.479495 
L 1345.875014 -286.349305 
L 1342.790472 -281.219116 
L 1339.82617 -276.088926 
L 1336.999572 -270.958737 
L 1334.327655 -265.828547 
L 1331.824475 -260.698358 
L 1329.498953 -255.568168 
L 1327.353247 -250.437979 
L 1325.381994 -245.307789 
L 1323.572522 -240.1776 
L 1321.906013 -235.047411 
L 1320.359418 -229.917221 
L 1318.907825 -224.787032 
L 1317.526904 -219.656842 
L 1316.195058 -214.526653 
L 1314.89495 -209.396463 
L 1313.614199 -204.266274 
L 1312.345144 -199.136084 
L 1311.083759 -194.005895 
L 1309.827887 -188.875705 
L 1308.575115 -183.745516 
L 1307.320626 -178.615326 
L 1306.055388 -173.485137 
L 1304.76499 -168.354947 
L 1303.42935 -163.224758 
L 1302.02337 -158.094568 
L 1300.518525 -152.964379 
L 1298.885202 -147.834189 
L 1297.09553 -142.704 
L 1295.126368 -137.573811 
L 1292.962082 -132.443621 
L 1290.596793 -127.313432 
L 1288.035827 -122.183242 
L 1285.296198 -117.053053 
L 1282.406074 -111.922863 
L 1279.403296 -106.792674 
L 1276.333111 -101.662484 
L 1273.245361 -96.532295 
z
" style="stroke: #ffffff; stroke-opacity: 0.3"/>
    </defs>
    <g clip-path="url(#p79fea93baa)">
     <use xlink:href="#mde72ccdb06" x="0" y="720" style="fill: #4daf4a; fill-opacity: 0.3; stroke: #ffffff; stroke-opacity: 0.3"/>
    </g>
   </g>
   <g id="LineCollection_7">
    <path d="M 1163.011765 115.578947 
L 1327.129412 115.578947 
" clip-path="url(#p79fea93baa)" style="fill: none; stroke: #4c72b0; stroke-width: 1.5"/>
   </g>
   <g id="LineCollection_8">
    <path d="M 1163.011765 623.467705 
L 1327.129412 623.467705 
" clip-path="url(#p79fea93baa)" style="fill: none; stroke: #4c72b0; stroke-width: 1.5"/>
   </g>
   <g id="LineCollection_9">
    <path d="M 1245.070588 623.467705 
L 1245.070588 115.578947 
" clip-path="url(#p79fea93baa)" style="fill: none; stroke: #4c72b0; stroke-width: 1.5"/>
   </g>
   <g id="patch_17">
    <path d="M 1064.541176 640.8 
L 1064.541176 86.4 
" style="fill: none; stroke: #cccccc; stroke-width: 1.25; stroke-linejoin: miter; stroke-linecap: square"/>
   </g>
   <g id="patch_18">
    <path d="M 1425.6 640.8 
L 1425.6 86.4 
" style="fill: none; stroke: #cccccc; stroke-width: 1.25; stroke-linejoin: miter; stroke-linecap: square"/>
   </g>
   <g id="patch_19">
    <path d="M 1064.541176 640.8 
L 1425.6 640.8 
" style="fill: none; stroke: #cccccc; stroke-width: 1.25; stroke-linejoin: miter; stroke-linecap: square"/>
   </g>
   <g id="patch_20">
    <path d="M 1064.541176 86.4 
L 1425.6 86.4 
" style="fill: none; stroke: #cccccc; stroke-width: 1.25; stroke-linejoin: miter; stroke-linecap: square"/>
   </g>
   <g id="text_33">
    <g id="patch_21">
     <path d="M 1095.494706 513.9425 
L 1199.674706 513.9425 
L 1199.674706 490.4575 
L 1095.494706 490.4575 
z
" style="fill: #ffffff; stroke: #000000; stroke-linejoin: miter"/>
    </g>
    <!-- # seqs: 184 -->
    <g style="fill: #262626" transform="translate(1099.494706 506.615) scale(0.16 -0.16)">
     <defs>
      <path id="DejaVuSans-34" d="M 2419 4116 
L 825 1625 
L 2419 1625 
L 2419 4116 
z
M 2253 4666 
L 3047 4666 
L 3047 1625 
L 3713 1625 
L 3713 1100 
L 3047 1100 
L 3047 0 
L 2419 0 
L 2419 1100 
L 313 1100 
L 313 1709 
L 2253 4666 
z
" transform="scale(0.015625)"/>
     </defs>
     <use xlink:href="#DejaVuSans-23"/>
     <use xlink:href="#DejaVuSans-20" x="83.789062"/>
     <use xlink:href="#DejaVuSans-73" x="115.576172"/>
     <use xlink:href="#DejaVuSans-65" x="167.675781"/>
     <use xlink:href="#DejaVuSans-71" x="229.199219"/>
     <use xlink:href="#DejaVuSans-73" x="292.675781"/>
     <use xlink:href="#DejaVuSans-3a" x="344.775391"/>
     <use xlink:href="#DejaVuSans-20" x="378.466797"/>
     <use xlink:href="#DejaVuSans-31" x="410.253906"/>
     <use xlink:href="#DejaVuSans-38" x="473.876953"/>
     <use xlink:href="#DejaVuSans-34" x="537.5"/>
    </g>
   </g>
   <g id="text_34">
    <g id="patch_22">
     <path d="M 1070.312206 541.885 
L 1224.857206 541.885 
L 1224.857206 517.955 
L 1070.312206 517.955 
z
" style="fill: #ffffff; stroke: #000000; stroke-linejoin: miter"/>
    </g>
    <!-- AVG v_identity: 82 -->
    <g style="fill: #262626" transform="translate(1074.312206 534.1125) scale(0.16 -0.16)">
     <defs>
      <path id="DejaVuSans-32" d="M 1228 531 
L 3431 531 
L 3431 0 
L 469 0 
L 469 531 
Q 828 903 1448 1529 
Q 2069 2156 2228 2338 
Q 2531 2678 2651 2914 
Q 2772 3150 2772 3378 
Q 2772 3750 2511 3984 
Q 2250 4219 1831 4219 
Q 1534 4219 1204 4116 
Q 875 4013 500 3803 
L 500 4441 
Q 881 4594 1212 4672 
Q 1544 4750 1819 4750 
Q 2544 4750 2975 4387 
Q 3406 4025 3406 3419 
Q 3406 3131 3298 2873 
Q 3191 2616 2906 2266 
Q 2828 2175 2409 1742 
Q 1991 1309 1228 531 
z
" transform="scale(0.015625)"/>
     </defs>
     <use xlink:href="#DejaVuSans-41"/>
     <use xlink:href="#DejaVuSans-56" x="62.033203"/>
     <use xlink:href="#DejaVuSans-47" x="130.441406"/>
     <use xlink:href="#DejaVuSans-20" x="207.931641"/>
     <use xlink:href="#DejaVuSans-76" x="239.71875"/>
     <use xlink:href="#DejaVuSans-5f" x="298.898438"/>
     <use xlink:href="#DejaVuSans-69" x="348.898438"/>
     <use xlink:href="#DejaVuSans-64" x="376.681641"/>
     <use xlink:href="#DejaVuSans-65" x="440.158203"/>
     <use xlink:href="#DejaVuSans-6e" x="501.681641"/>
     <use xlink:href="#DejaVuSans-74" x="565.060547"/>
     <use xlink:href="#DejaVuSans-69" x="604.269531"/>
     <use xlink:href="#DejaVuSans-74" x="632.052734"/>
     <use xlink:href="#DejaVuSans-79" x="671.261719"/>
     <use xlink:href="#DejaVuSans-3a" x="723.191406"/>
     <use xlink:href="#DejaVuSans-20" x="756.882812"/>
     <use xlink:href="#DejaVuSans-38" x="788.669922"/>
     <use xlink:href="#DejaVuSans-32" x="852.292969"/>
    </g>
   </g>
   <g id="text_35">
    <!-- BRO -->
    <g style="fill: #262626" transform="translate(1223.389338 74.856) scale(0.2 -0.2)">
     <defs>
      <path id="DejaVuSans-42" d="M 1259 2228 
L 1259 519 
L 2272 519 
Q 2781 519 3026 730 
Q 3272 941 3272 1375 
Q 3272 1813 3026 2020 
Q 2781 2228 2272 2228 
L 1259 2228 
z
M 1259 4147 
L 1259 2741 
L 2194 2741 
Q 2656 2741 2882 2914 
Q 3109 3088 3109 3444 
Q 3109 3797 2882 3972 
Q 2656 4147 2194 4147 
L 1259 4147 
z
M 628 4666 
L 2241 4666 
Q 2963 4666 3353 4366 
Q 3744 4066 3744 3513 
Q 3744 3084 3544 2831 
Q 3344 2578 2956 2516 
Q 3422 2416 3680 2098 
Q 3938 1781 3938 1306 
Q 3938 681 3513 340 
Q 3088 0 2303 0 
L 628 0 
L 628 4666 
z
" transform="scale(0.015625)"/>
     </defs>
     <use xlink:href="#DejaVuSans-42"/>
     <use xlink:href="#DejaVuSans-52" x="68.603516"/>
     <use xlink:href="#DejaVuSans-4f" x="138.085938"/>
    </g>
   </g>
  </g>
 </g>
 <defs>
  <clipPath id="p8ef3692110">
   <rect x="198" y="86.4" width="361.058824" height="554.4"/>
  </clipPath>
  <clipPath id="p0717b250de">
   <rect x="631.270588" y="86.4" width="361.058824" height="554.4"/>
  </clipPath>
  <clipPath id="p79fea93baa">
   <rect x="1064.541176" y="86.4" width="361.058824" height="554.4"/>
  </clipPath>
 </defs>
</svg>
