<?xml version="1.0" encoding="utf-8" standalone="no"?>
<!DOCTYPE svg PUBLIC "-//W3C//DTD SVG 1.1//EN"
  "http://www.w3.org/Graphics/SVG/1.1/DTD/svg11.dtd">
<svg xmlns:xlink="http://www.w3.org/1999/xlink" width="1584pt" height="720pt" viewBox="0 0 1584 720" xmlns="http://www.w3.org/2000/svg" version="1.1">
 <metadata>
  <rdf:RDF xmlns:dc="http://purl.org/dc/elements/1.1/" xmlns:cc="http://creativecommons.org/ns#" xmlns:rdf="http://www.w3.org/1999/02/22-rdf-syntax-ns#">
   <cc:Work>
    <dc:type rdf:resource="http://purl.org/dc/dcmitype/StillImage"/>
    <dc:date>2024-04-24T11:28:39.871459</dc:date>
    <dc:format>image/svg+xml</dc:format>
    <dc:creator>
     <cc:Agent>
      <dc:title>Matplotlib v3.7.1, https://matplotlib.org/</dc:title>
     </cc:Agent>
    </dc:creator>
   </cc:Work>
  </rdf:RDF>
 </metadata>
 <defs>
  <style type="text/css">*{stroke-linejoin: round; stroke-linecap: butt}</style>
 </defs>
 <g id="figure_1">
  <g id="patch_1">
   <path d="M 0 720 
L 1584 720 
L 1584 0 
L 0 0 
z
" style="fill: #ffffff"/>
  </g>
  <g id="axes_1">
   <g id="patch_2">
    <path d="M 198 640.8 
L 559.058824 640.8 
L 559.058824 86.4 
L 198 86.4 
z
" style="fill: #ffffff"/>
   </g>
   <g id="matplotlib.axis_1"/>
   <g id="matplotlib.axis_2">
    <g id="ytick_1">
     <g id="line2d_1">
      <path d="M 198 640.8 
L 559.058824 640.8 
" clip-path="url(#p63c5433687)" style="fill: none; stroke: #cccccc; stroke-linecap: round"/>
     </g>
     <g id="text_1">
      <!-- 0 -->
      <g style="fill: #262626" transform="translate(175.775 648.398438) scale(0.2 -0.2)">
       <defs>
        <path id="DejaVuSans-30" d="M 2034 4250 
Q 1547 4250 1301 3770 
Q 1056 3291 1056 2328 
Q 1056 1369 1301 889 
Q 1547 409 2034 409 
Q 2525 409 2770 889 
Q 3016 1369 3016 2328 
Q 3016 3291 2770 3770 
Q 2525 4250 2034 4250 
z
M 2034 4750 
Q 2819 4750 3233 4129 
Q 3647 3509 3647 2328 
Q 3647 1150 3233 529 
Q 2819 -91 2034 -91 
Q 1250 -91 836 529 
Q 422 1150 422 2328 
Q 422 3509 836 4129 
Q 1250 4750 2034 4750 
z
" transform="scale(0.015625)"/>
       </defs>
       <use xlink:href="#DejaVuSans-30"/>
      </g>
     </g>
    </g>
    <g id="ytick_2">
     <g id="line2d_2">
      <path d="M 198 540 
L 559.058824 540 
" clip-path="url(#p63c5433687)" style="fill: none; stroke: #cccccc; stroke-linecap: round"/>
     </g>
     <g id="text_2">
      <!-- 20 -->
      <g style="fill: #262626" transform="translate(163.05 547.598438) scale(0.2 -0.2)">
       <defs>
        <path id="DejaVuSans-32" d="M 1228 531 
L 3431 531 
L 3431 0 
L 469 0 
L 469 531 
Q 828 903 1448 1529 
Q 2069 2156 2228 2338 
Q 2531 2678 2651 2914 
Q 2772 3150 2772 3378 
Q 2772 3750 2511 3984 
Q 2250 4219 1831 4219 
Q 1534 4219 1204 4116 
Q 875 4013 500 3803 
L 500 4441 
Q 881 4594 1212 4672 
Q 1544 4750 1819 4750 
Q 2544 4750 2975 4387 
Q 3406 4025 3406 3419 
Q 3406 3131 3298 2873 
Q 3191 2616 2906 2266 
Q 2828 2175 2409 1742 
Q 1991 1309 1228 531 
z
" transform="scale(0.015625)"/>
       </defs>
       <use xlink:href="#DejaVuSans-32"/>
       <use xlink:href="#DejaVuSans-30" x="63.623047"/>
      </g>
     </g>
    </g>
    <g id="ytick_3">
     <g id="line2d_3">
      <path d="M 198 439.2 
L 559.058824 439.2 
" clip-path="url(#p63c5433687)" style="fill: none; stroke: #cccccc; stroke-linecap: round"/>
     </g>
     <g id="text_3">
      <!-- 40 -->
      <g style="fill: #262626" transform="translate(163.05 446.798437) scale(0.2 -0.2)">
       <defs>
        <path id="DejaVuSans-34" d="M 2419 4116 
L 825 1625 
L 2419 1625 
L 2419 4116 
z
M 2253 4666 
L 3047 4666 
L 3047 1625 
L 3713 1625 
L 3713 1100 
L 3047 1100 
L 3047 0 
L 2419 0 
L 2419 1100 
L 313 1100 
L 313 1709 
L 2253 4666 
z
" transform="scale(0.015625)"/>
       </defs>
       <use xlink:href="#DejaVuSans-34"/>
       <use xlink:href="#DejaVuSans-30" x="63.623047"/>
      </g>
     </g>
    </g>
    <g id="ytick_4">
     <g id="line2d_4">
      <path d="M 198 338.4 
L 559.058824 338.4 
" clip-path="url(#p63c5433687)" style="fill: none; stroke: #cccccc; stroke-linecap: round"/>
     </g>
     <g id="text_4">
      <!-- 60 -->
      <g style="fill: #262626" transform="translate(163.05 345.998437) scale(0.2 -0.2)">
       <defs>
        <path id="DejaVuSans-36" d="M 2113 2584 
Q 1688 2584 1439 2293 
Q 1191 2003 1191 1497 
Q 1191 994 1439 701 
Q 1688 409 2113 409 
Q 2538 409 2786 701 
Q 3034 994 3034 1497 
Q 3034 2003 2786 2293 
Q 2538 2584 2113 2584 
z
M 3366 4563 
L 3366 3988 
Q 3128 4100 2886 4159 
Q 2644 4219 2406 4219 
Q 1781 4219 1451 3797 
Q 1122 3375 1075 2522 
Q 1259 2794 1537 2939 
Q 1816 3084 2150 3084 
Q 2853 3084 3261 2657 
Q 3669 2231 3669 1497 
Q 3669 778 3244 343 
Q 2819 -91 2113 -91 
Q 1303 -91 875 529 
Q 447 1150 447 2328 
Q 447 3434 972 4092 
Q 1497 4750 2381 4750 
Q 2619 4750 2861 4703 
Q 3103 4656 3366 4563 
z
" transform="scale(0.015625)"/>
       </defs>
       <use xlink:href="#DejaVuSans-36"/>
       <use xlink:href="#DejaVuSans-30" x="63.623047"/>
      </g>
     </g>
    </g>
    <g id="ytick_5">
     <g id="line2d_5">
      <path d="M 198 237.6 
L 559.058824 237.6 
" clip-path="url(#p63c5433687)" style="fill: none; stroke: #cccccc; stroke-linecap: round"/>
     </g>
     <g id="text_5">
      <!-- 80 -->
      <g style="fill: #262626" transform="translate(163.05 245.198437) scale(0.2 -0.2)">
       <defs>
        <path id="DejaVuSans-38" d="M 2034 2216 
Q 1584 2216 1326 1975 
Q 1069 1734 1069 1313 
Q 1069 891 1326 650 
Q 1584 409 2034 409 
Q 2484 409 2743 651 
Q 3003 894 3003 1313 
Q 3003 1734 2745 1975 
Q 2488 2216 2034 2216 
z
M 1403 2484 
Q 997 2584 770 2862 
Q 544 3141 544 3541 
Q 544 4100 942 4425 
Q 1341 4750 2034 4750 
Q 2731 4750 3128 4425 
Q 3525 4100 3525 3541 
Q 3525 3141 3298 2862 
Q 3072 2584 2669 2484 
Q 3125 2378 3379 2068 
Q 3634 1759 3634 1313 
Q 3634 634 3220 271 
Q 2806 -91 2034 -91 
Q 1263 -91 848 271 
Q 434 634 434 1313 
Q 434 1759 690 2068 
Q 947 2378 1403 2484 
z
M 1172 3481 
Q 1172 3119 1398 2916 
Q 1625 2713 2034 2713 
Q 2441 2713 2670 2916 
Q 2900 3119 2900 3481 
Q 2900 3844 2670 4047 
Q 2441 4250 2034 4250 
Q 1625 4250 1398 4047 
Q 1172 3844 1172 3481 
z
" transform="scale(0.015625)"/>
       </defs>
       <use xlink:href="#DejaVuSans-38"/>
       <use xlink:href="#DejaVuSans-30" x="63.623047"/>
      </g>
     </g>
    </g>
    <g id="ytick_6">
     <g id="line2d_6">
      <path d="M 198 136.8 
L 559.058824 136.8 
" clip-path="url(#p63c5433687)" style="fill: none; stroke: #cccccc; stroke-linecap: round"/>
     </g>
     <g id="text_6">
      <!-- 100 -->
      <g style="fill: #262626" transform="translate(150.325 144.398438) scale(0.2 -0.2)">
       <defs>
        <path id="DejaVuSans-31" d="M 794 531 
L 1825 531 
L 1825 4091 
L 703 3866 
L 703 4441 
L 1819 4666 
L 2450 4666 
L 2450 531 
L 3481 531 
L 3481 0 
L 794 0 
L 794 531 
z
" transform="scale(0.015625)"/>
       </defs>
       <use xlink:href="#DejaVuSans-31"/>
       <use xlink:href="#DejaVuSans-30" x="63.623047"/>
       <use xlink:href="#DejaVuSans-30" x="127.246094"/>
      </g>
     </g>
    </g>
    <g id="text_7">
     <!-- % detected -->
     <g style="fill: #262626" transform="translate(134.165625 420.775) rotate(-90) scale(0.2 -0.2)">
      <defs>
       <path id="DejaVuSans-25" d="M 4653 2053 
Q 4381 2053 4226 1822 
Q 4072 1591 4072 1178 
Q 4072 772 4226 539 
Q 4381 306 4653 306 
Q 4919 306 5073 539 
Q 5228 772 5228 1178 
Q 5228 1588 5073 1820 
Q 4919 2053 4653 2053 
z
M 4653 2450 
Q 5147 2450 5437 2106 
Q 5728 1763 5728 1178 
Q 5728 594 5436 251 
Q 5144 -91 4653 -91 
Q 4153 -91 3862 251 
Q 3572 594 3572 1178 
Q 3572 1766 3864 2108 
Q 4156 2450 4653 2450 
z
M 1428 4353 
Q 1159 4353 1004 4120 
Q 850 3888 850 3481 
Q 850 3069 1003 2837 
Q 1156 2606 1428 2606 
Q 1700 2606 1854 2837 
Q 2009 3069 2009 3481 
Q 2009 3884 1853 4118 
Q 1697 4353 1428 4353 
z
M 4250 4750 
L 4750 4750 
L 1831 -91 
L 1331 -91 
L 4250 4750 
z
M 1428 4750 
Q 1922 4750 2215 4408 
Q 2509 4066 2509 3481 
Q 2509 2891 2217 2550 
Q 1925 2209 1428 2209 
Q 931 2209 642 2551 
Q 353 2894 353 3481 
Q 353 4063 643 4406 
Q 934 4750 1428 4750 
z
" transform="scale(0.015625)"/>
       <path id="DejaVuSans-20" transform="scale(0.015625)"/>
       <path id="DejaVuSans-64" d="M 2906 2969 
L 2906 4863 
L 3481 4863 
L 3481 0 
L 2906 0 
L 2906 525 
Q 2725 213 2448 61 
Q 2172 -91 1784 -91 
Q 1150 -91 751 415 
Q 353 922 353 1747 
Q 353 2572 751 3078 
Q 1150 3584 1784 3584 
Q 2172 3584 2448 3432 
Q 2725 3281 2906 2969 
z
M 947 1747 
Q 947 1113 1208 752 
Q 1469 391 1925 391 
Q 2381 391 2643 752 
Q 2906 1113 2906 1747 
Q 2906 2381 2643 2742 
Q 2381 3103 1925 3103 
Q 1469 3103 1208 2742 
Q 947 2381 947 1747 
z
" transform="scale(0.015625)"/>
       <path id="DejaVuSans-65" d="M 3597 1894 
L 3597 1613 
L 953 1613 
Q 991 1019 1311 708 
Q 1631 397 2203 397 
Q 2534 397 2845 478 
Q 3156 559 3463 722 
L 3463 178 
Q 3153 47 2828 -22 
Q 2503 -91 2169 -91 
Q 1331 -91 842 396 
Q 353 884 353 1716 
Q 353 2575 817 3079 
Q 1281 3584 2069 3584 
Q 2775 3584 3186 3129 
Q 3597 2675 3597 1894 
z
M 3022 2063 
Q 3016 2534 2758 2815 
Q 2500 3097 2075 3097 
Q 1594 3097 1305 2825 
Q 1016 2553 972 2059 
L 3022 2063 
z
" transform="scale(0.015625)"/>
       <path id="DejaVuSans-74" d="M 1172 4494 
L 1172 3500 
L 2356 3500 
L 2356 3053 
L 1172 3053 
L 1172 1153 
Q 1172 725 1289 603 
Q 1406 481 1766 481 
L 2356 481 
L 2356 0 
L 1766 0 
Q 1100 0 847 248 
Q 594 497 594 1153 
L 594 3053 
L 172 3053 
L 172 3500 
L 594 3500 
L 594 4494 
L 1172 4494 
z
" transform="scale(0.015625)"/>
       <path id="DejaVuSans-63" d="M 3122 3366 
L 3122 2828 
Q 2878 2963 2633 3030 
Q 2388 3097 2138 3097 
Q 1578 3097 1268 2742 
Q 959 2388 959 1747 
Q 959 1106 1268 751 
Q 1578 397 2138 397 
Q 2388 397 2633 464 
Q 2878 531 3122 666 
L 3122 134 
Q 2881 22 2623 -34 
Q 2366 -91 2075 -91 
Q 1284 -91 818 406 
Q 353 903 353 1747 
Q 353 2603 823 3093 
Q 1294 3584 2113 3584 
Q 2378 3584 2631 3529 
Q 2884 3475 3122 3366 
z
" transform="scale(0.015625)"/>
      </defs>
      <use xlink:href="#DejaVuSans-25"/>
      <use xlink:href="#DejaVuSans-20" x="95.019531"/>
      <use xlink:href="#DejaVuSans-64" x="126.806641"/>
      <use xlink:href="#DejaVuSans-65" x="190.283203"/>
      <use xlink:href="#DejaVuSans-74" x="251.806641"/>
      <use xlink:href="#DejaVuSans-65" x="291.015625"/>
      <use xlink:href="#DejaVuSans-63" x="352.539062"/>
      <use xlink:href="#DejaVuSans-74" x="407.519531"/>
      <use xlink:href="#DejaVuSans-65" x="446.728516"/>
      <use xlink:href="#DejaVuSans-64" x="508.251953"/>
     </g>
    </g>
   </g>
   <g id="PolyCollection_1">
    <defs>
     <path id="mffad65c7c7" d="M 542.647059 -79.2 
L 214.411765 -79.2 
L 214.411765 -79.2 
L 214.411765 -79.2 
L 214.411765 -79.2 
L 214.411765 -79.2 
L 214.411765 -79.2 
L 214.411765 -79.2 
L 214.411765 -79.2 
L 214.411765 -79.2 
L 214.411765 -79.2 
L 214.411765 -79.2 
L 214.411765 -79.2 
L 214.411765 -79.2 
L 214.411765 -79.2 
L 214.411765 -79.2 
L 214.411765 -79.2 
L 214.411765 -79.2 
L 214.411765 -79.2 
L 214.411765 -79.2 
L 214.411765 -79.2 
L 214.411765 -79.2 
L 214.411765 -79.2 
L 214.411765 -79.2 
L 214.411765 -79.2 
L 214.411765 -79.2 
L 214.411765 -79.2 
L 214.411765 -79.2 
L 214.411765 -79.2 
L 214.411765 -79.2 
L 214.411765 -79.2 
L 214.411765 -79.2 
L 214.411765 -79.2 
L 214.411765 -79.2 
L 214.411765 -79.2 
L 214.411765 -79.2 
L 214.411765 -79.2 
L 214.411765 -79.2 
L 214.411765 -79.2 
L 214.411765 -79.2 
L 214.411765 -79.2 
L 214.411765 -79.2 
L 214.411765 -79.2 
L 214.411765 -79.2 
L 214.411765 -79.2 
L 214.411765 -79.2 
L 214.411765 -79.2 
L 214.411765 -79.2 
L 214.411765 -79.2 
L 214.411765 -79.2 
L 214.411765 -79.2 
L 214.411765 -79.2 
L 214.411765 -79.2 
L 214.411765 -79.2 
L 214.411765 -79.2 
L 214.411765 -79.2 
L 214.411765 -79.2 
L 214.411765 -79.2 
L 214.411765 -79.2 
L 214.411765 -79.2 
L 214.411765 -79.2 
L 214.411765 -79.2 
L 214.411765 -79.2 
L 214.411765 -79.2 
L 214.411765 -79.2 
L 214.411765 -79.2 
L 214.411765 -79.2 
L 214.411765 -79.2 
L 214.411765 -79.2 
L 214.411765 -79.2 
L 214.411765 -79.2 
L 214.411765 -79.2 
L 214.411765 -79.2 
L 214.411765 -79.2 
L 214.411765 -79.2 
L 214.411765 -79.2 
L 214.411765 -79.2 
L 214.411765 -79.2 
L 214.411765 -79.2 
L 214.411765 -79.2 
L 214.411765 -79.2 
L 214.411765 -79.2 
L 214.411765 -79.2 
L 214.411765 -79.2 
L 214.411765 -79.2 
L 214.411765 -79.2 
L 214.411765 -79.2 
L 214.411765 -79.2 
L 214.411765 -79.2 
L 214.411765 -79.2 
L 214.411765 -79.2 
L 214.411765 -79.2 
L 214.411765 -79.2 
L 214.411765 -79.2 
L 214.411765 -79.2 
L 214.411765 -79.2 
L 214.411765 -79.2 
L 214.411765 -79.2 
L 214.411765 -79.2 
L 214.411765 -79.2 
L 214.411765 -79.2 
L 542.647059 -79.2 
L 542.647059 -79.2 
L 542.647059 -79.2 
L 542.647059 -79.2 
L 542.647059 -79.2 
L 542.647059 -79.2 
L 542.647059 -79.2 
L 542.647059 -79.2 
L 542.647059 -79.2 
L 542.647059 -79.2 
L 542.647059 -79.2 
L 542.647059 -79.2 
L 542.647059 -79.2 
L 542.647059 -79.2 
L 542.647059 -79.2 
L 542.647059 -79.2 
L 542.647059 -79.2 
L 542.647059 -79.2 
L 542.647059 -79.2 
L 542.647059 -79.2 
L 542.647059 -79.2 
L 542.647059 -79.2 
L 542.647059 -79.2 
L 542.647059 -79.2 
L 542.647059 -79.2 
L 542.647059 -79.2 
L 542.647059 -79.2 
L 542.647059 -79.2 
L 542.647059 -79.2 
L 542.647059 -79.2 
L 542.647059 -79.2 
L 542.647059 -79.2 
L 542.647059 -79.2 
L 542.647059 -79.2 
L 542.647059 -79.2 
L 542.647059 -79.2 
L 542.647059 -79.2 
L 542.647059 -79.2 
L 542.647059 -79.2 
L 542.647059 -79.2 
L 542.647059 -79.2 
L 542.647059 -79.2 
L 542.647059 -79.2 
L 542.647059 -79.2 
L 542.647059 -79.2 
L 542.647059 -79.2 
L 542.647059 -79.2 
L 542.647059 -79.2 
L 542.647059 -79.2 
L 542.647059 -79.2 
L 542.647059 -79.2 
L 542.647059 -79.2 
L 542.647059 -79.2 
L 542.647059 -79.2 
L 542.647059 -79.2 
L 542.647059 -79.2 
L 542.647059 -79.2 
L 542.647059 -79.2 
L 542.647059 -79.2 
L 542.647059 -79.2 
L 542.647059 -79.2 
L 542.647059 -79.2 
L 542.647059 -79.2 
L 542.647059 -79.2 
L 542.647059 -79.2 
L 542.647059 -79.2 
L 542.647059 -79.2 
L 542.647059 -79.2 
L 542.647059 -79.2 
L 542.647059 -79.2 
L 542.647059 -79.2 
L 542.647059 -79.2 
L 542.647059 -79.2 
L 542.647059 -79.2 
L 542.647059 -79.2 
L 542.647059 -79.2 
L 542.647059 -79.2 
L 542.647059 -79.2 
L 542.647059 -79.2 
L 542.647059 -79.2 
L 542.647059 -79.2 
L 542.647059 -79.2 
L 542.647059 -79.2 
L 542.647059 -79.2 
L 542.647059 -79.2 
L 542.647059 -79.2 
L 542.647059 -79.2 
L 542.647059 -79.2 
L 542.647059 -79.2 
L 542.647059 -79.2 
L 542.647059 -79.2 
L 542.647059 -79.2 
L 542.647059 -79.2 
L 542.647059 -79.2 
L 542.647059 -79.2 
L 542.647059 -79.2 
L 542.647059 -79.2 
L 542.647059 -79.2 
L 542.647059 -79.2 
L 542.647059 -79.2 
L 542.647059 -79.2 
z
" style="stroke: #ffffff; stroke-opacity: 0.3"/>
    </defs>
    <g clip-path="url(#p63c5433687)">
     <use xlink:href="#mffad65c7c7" x="0" y="720" style="fill: #e41a1c; fill-opacity: 0.3; stroke: #ffffff; stroke-opacity: 0.3"/>
    </g>
   </g>
   <g id="LineCollection_1">
    <path d="M 296.470588 640.8 
L 460.588235 640.8 
" clip-path="url(#p63c5433687)" style="fill: none; stroke: #4c72b0; stroke-width: 1.5"/>
   </g>
   <g id="LineCollection_2">
    <path d="M 296.470588 640.8 
L 460.588235 640.8 
" clip-path="url(#p63c5433687)" style="fill: none; stroke: #4c72b0; stroke-width: 1.5"/>
   </g>
   <g id="LineCollection_3">
    <path d="M 378.529412 640.8 
L 378.529412 640.8 
" clip-path="url(#p63c5433687)" style="fill: none; stroke: #4c72b0; stroke-width: 1.5"/>
   </g>
   <g id="patch_3">
    <path d="M 198 640.8 
L 198 86.4 
" style="fill: none; stroke: #cccccc; stroke-width: 1.25; stroke-linejoin: miter; stroke-linecap: square"/>
   </g>
   <g id="patch_4">
    <path d="M 559.058824 640.8 
L 559.058824 86.4 
" style="fill: none; stroke: #cccccc; stroke-width: 1.25; stroke-linejoin: miter; stroke-linecap: square"/>
   </g>
   <g id="patch_5">
    <path d="M 198 640.8 
L 559.058824 640.8 
" style="fill: none; stroke: #cccccc; stroke-width: 1.25; stroke-linejoin: miter; stroke-linecap: square"/>
   </g>
   <g id="patch_6">
    <path d="M 198 86.4 
L 559.058824 86.4 
" style="fill: none; stroke: #cccccc; stroke-width: 1.25; stroke-linejoin: miter; stroke-linecap: square"/>
   </g>
   <g id="text_8">
    <g id="patch_7">
     <path d="M 246.354706 153.5825 
L 330.174706 153.5825 
L 330.174706 130.0975 
L 246.354706 130.0975 
z
" style="fill: #ffffff; stroke: #000000; stroke-linejoin: miter"/>
    </g>
    <!-- # seqs: 5 -->
    <g style="fill: #262626" transform="translate(250.354706 146.255) scale(0.16 -0.16)">
     <defs>
      <path id="DejaVuSans-23" d="M 3272 2816 
L 2363 2816 
L 2100 1772 
L 3016 1772 
L 3272 2816 
z
M 2803 4594 
L 2478 3297 
L 3391 3297 
L 3719 4594 
L 4219 4594 
L 3897 3297 
L 4872 3297 
L 4872 2816 
L 3775 2816 
L 3519 1772 
L 4513 1772 
L 4513 1294 
L 3397 1294 
L 3072 0 
L 2572 0 
L 2894 1294 
L 1978 1294 
L 1656 0 
L 1153 0 
L 1478 1294 
L 494 1294 
L 494 1772 
L 1594 1772 
L 1856 2816 
L 850 2816 
L 850 3297 
L 1978 3297 
L 2297 4594 
L 2803 4594 
z
" transform="scale(0.015625)"/>
      <path id="DejaVuSans-73" d="M 2834 3397 
L 2834 2853 
Q 2591 2978 2328 3040 
Q 2066 3103 1784 3103 
Q 1356 3103 1142 2972 
Q 928 2841 928 2578 
Q 928 2378 1081 2264 
Q 1234 2150 1697 2047 
L 1894 2003 
Q 2506 1872 2764 1633 
Q 3022 1394 3022 966 
Q 3022 478 2636 193 
Q 2250 -91 1575 -91 
Q 1294 -91 989 -36 
Q 684 19 347 128 
L 347 722 
Q 666 556 975 473 
Q 1284 391 1588 391 
Q 1994 391 2212 530 
Q 2431 669 2431 922 
Q 2431 1156 2273 1281 
Q 2116 1406 1581 1522 
L 1381 1569 
Q 847 1681 609 1914 
Q 372 2147 372 2553 
Q 372 3047 722 3315 
Q 1072 3584 1716 3584 
Q 2034 3584 2315 3537 
Q 2597 3491 2834 3397 
z
" transform="scale(0.015625)"/>
      <path id="DejaVuSans-71" d="M 947 1747 
Q 947 1113 1208 752 
Q 1469 391 1925 391 
Q 2381 391 2643 752 
Q 2906 1113 2906 1747 
Q 2906 2381 2643 2742 
Q 2381 3103 1925 3103 
Q 1469 3103 1208 2742 
Q 947 2381 947 1747 
z
M 2906 525 
Q 2725 213 2448 61 
Q 2172 -91 1784 -91 
Q 1150 -91 751 415 
Q 353 922 353 1747 
Q 353 2572 751 3078 
Q 1150 3584 1784 3584 
Q 2172 3584 2448 3432 
Q 2725 3281 2906 2969 
L 2906 3500 
L 3481 3500 
L 3481 -1331 
L 2906 -1331 
L 2906 525 
z
" transform="scale(0.015625)"/>
      <path id="DejaVuSans-3a" d="M 750 794 
L 1409 794 
L 1409 0 
L 750 0 
L 750 794 
z
M 750 3309 
L 1409 3309 
L 1409 2516 
L 750 2516 
L 750 3309 
z
" transform="scale(0.015625)"/>
      <path id="DejaVuSans-35" d="M 691 4666 
L 3169 4666 
L 3169 4134 
L 1269 4134 
L 1269 2991 
Q 1406 3038 1543 3061 
Q 1681 3084 1819 3084 
Q 2600 3084 3056 2656 
Q 3513 2228 3513 1497 
Q 3513 744 3044 326 
Q 2575 -91 1722 -91 
Q 1428 -91 1123 -41 
Q 819 9 494 109 
L 494 744 
Q 775 591 1075 516 
Q 1375 441 1709 441 
Q 2250 441 2565 725 
Q 2881 1009 2881 1497 
Q 2881 1984 2565 2268 
Q 2250 2553 1709 2553 
Q 1456 2553 1204 2497 
Q 953 2441 691 2322 
L 691 4666 
z
" transform="scale(0.015625)"/>
     </defs>
     <use xlink:href="#DejaVuSans-23"/>
     <use xlink:href="#DejaVuSans-20" x="83.789062"/>
     <use xlink:href="#DejaVuSans-73" x="115.576172"/>
     <use xlink:href="#DejaVuSans-65" x="167.675781"/>
     <use xlink:href="#DejaVuSans-71" x="229.199219"/>
     <use xlink:href="#DejaVuSans-73" x="292.675781"/>
     <use xlink:href="#DejaVuSans-3a" x="344.775391"/>
     <use xlink:href="#DejaVuSans-20" x="378.466797"/>
     <use xlink:href="#DejaVuSans-35" x="410.253906"/>
    </g>
   </g>
   <g id="text_9">
    <g id="patch_8">
     <path d="M 209.020956 181.3025 
L 367.508456 181.3025 
L 367.508456 157.8175 
L 209.020956 157.8175 
z
" style="fill: #ffffff; stroke: #000000; stroke-linejoin: miter"/>
    </g>
    <!-- AVG % detected: 0 -->
    <g style="fill: #262626" transform="translate(213.020956 173.975) scale(0.16 -0.16)">
     <defs>
      <path id="DejaVuSans-41" d="M 2188 4044 
L 1331 1722 
L 3047 1722 
L 2188 4044 
z
M 1831 4666 
L 2547 4666 
L 4325 0 
L 3669 0 
L 3244 1197 
L 1141 1197 
L 716 0 
L 50 0 
L 1831 4666 
z
" transform="scale(0.015625)"/>
      <path id="DejaVuSans-56" d="M 1831 0 
L 50 4666 
L 709 4666 
L 2188 738 
L 3669 4666 
L 4325 4666 
L 2547 0 
L 1831 0 
z
" transform="scale(0.015625)"/>
      <path id="DejaVuSans-47" d="M 3809 666 
L 3809 1919 
L 2778 1919 
L 2778 2438 
L 4434 2438 
L 4434 434 
Q 4069 175 3628 42 
Q 3188 -91 2688 -91 
Q 1594 -91 976 548 
Q 359 1188 359 2328 
Q 359 3472 976 4111 
Q 1594 4750 2688 4750 
Q 3144 4750 3555 4637 
Q 3966 4525 4313 4306 
L 4313 3634 
Q 3963 3931 3569 4081 
Q 3175 4231 2741 4231 
Q 1884 4231 1454 3753 
Q 1025 3275 1025 2328 
Q 1025 1384 1454 906 
Q 1884 428 2741 428 
Q 3075 428 3337 486 
Q 3600 544 3809 666 
z
" transform="scale(0.015625)"/>
     </defs>
     <use xlink:href="#DejaVuSans-41"/>
     <use xlink:href="#DejaVuSans-56" x="62.033203"/>
     <use xlink:href="#DejaVuSans-47" x="130.441406"/>
     <use xlink:href="#DejaVuSans-20" x="207.931641"/>
     <use xlink:href="#DejaVuSans-25" x="239.71875"/>
     <use xlink:href="#DejaVuSans-20" x="334.738281"/>
     <use xlink:href="#DejaVuSans-64" x="366.525391"/>
     <use xlink:href="#DejaVuSans-65" x="430.001953"/>
     <use xlink:href="#DejaVuSans-74" x="491.525391"/>
     <use xlink:href="#DejaVuSans-65" x="530.734375"/>
     <use xlink:href="#DejaVuSans-63" x="592.257812"/>
     <use xlink:href="#DejaVuSans-74" x="647.238281"/>
     <use xlink:href="#DejaVuSans-65" x="686.447266"/>
     <use xlink:href="#DejaVuSans-64" x="747.970703"/>
     <use xlink:href="#DejaVuSans-3a" x="811.447266"/>
     <use xlink:href="#DejaVuSans-20" x="845.138672"/>
     <use xlink:href="#DejaVuSans-30" x="876.925781"/>
    </g>
   </g>
   <g id="text_10">
    <!-- NON -->
    <g style="fill: #262626" transform="translate(355.695037 74.856) scale(0.2 -0.2)">
     <defs>
      <path id="DejaVuSans-4e" d="M 628 4666 
L 1478 4666 
L 3547 763 
L 3547 4666 
L 4159 4666 
L 4159 0 
L 3309 0 
L 1241 3903 
L 1241 0 
L 628 0 
L 628 4666 
z
" transform="scale(0.015625)"/>
      <path id="DejaVuSans-4f" d="M 2522 4238 
Q 1834 4238 1429 3725 
Q 1025 3213 1025 2328 
Q 1025 1447 1429 934 
Q 1834 422 2522 422 
Q 3209 422 3611 934 
Q 4013 1447 4013 2328 
Q 4013 3213 3611 3725 
Q 3209 4238 2522 4238 
z
M 2522 4750 
Q 3503 4750 4090 4092 
Q 4678 3434 4678 2328 
Q 4678 1225 4090 567 
Q 3503 -91 2522 -91 
Q 1538 -91 948 565 
Q 359 1222 359 2328 
Q 359 3434 948 4092 
Q 1538 4750 2522 4750 
z
" transform="scale(0.015625)"/>
     </defs>
     <use xlink:href="#DejaVuSans-4e"/>
     <use xlink:href="#DejaVuSans-4f" x="74.804688"/>
     <use xlink:href="#DejaVuSans-4e" x="153.515625"/>
    </g>
   </g>
  </g>
  <g id="axes_2">
   <g id="patch_9">
    <path d="M 631.270588 640.8 
L 992.329412 640.8 
L 992.329412 86.4 
L 631.270588 86.4 
z
" style="fill: #ffffff"/>
   </g>
   <g id="matplotlib.axis_3">
    <g id="text_11">
     <!-- Abs -->
     <g style="fill: #262626" transform="translate(793.401563 667.996875) scale(0.2 -0.2)">
      <defs>
       <path id="DejaVuSans-62" d="M 3116 1747 
Q 3116 2381 2855 2742 
Q 2594 3103 2138 3103 
Q 1681 3103 1420 2742 
Q 1159 2381 1159 1747 
Q 1159 1113 1420 752 
Q 1681 391 2138 391 
Q 2594 391 2855 752 
Q 3116 1113 3116 1747 
z
M 1159 2969 
Q 1341 3281 1617 3432 
Q 1894 3584 2278 3584 
Q 2916 3584 3314 3078 
Q 3713 2572 3713 1747 
Q 3713 922 3314 415 
Q 2916 -91 2278 -91 
Q 1894 -91 1617 61 
Q 1341 213 1159 525 
L 1159 0 
L 581 0 
L 581 4863 
L 1159 4863 
L 1159 2969 
z
" transform="scale(0.015625)"/>
      </defs>
      <use xlink:href="#DejaVuSans-41"/>
      <use xlink:href="#DejaVuSans-62" x="68.408203"/>
      <use xlink:href="#DejaVuSans-73" x="131.884766"/>
     </g>
    </g>
   </g>
   <g id="matplotlib.axis_4">
    <g id="ytick_7">
     <g id="line2d_7">
      <path d="M 631.270588 640.8 
L 992.329412 640.8 
" clip-path="url(#p4c0005ce56)" style="fill: none; stroke: #cccccc; stroke-linecap: round"/>
     </g>
     <g id="text_12">
      <!-- 0 -->
      <g style="fill: #262626" transform="translate(609.045588 648.398438) scale(0.2 -0.2)">
       <use xlink:href="#DejaVuSans-30"/>
      </g>
     </g>
    </g>
    <g id="ytick_8">
     <g id="line2d_8">
      <path d="M 631.270588 540 
L 992.329412 540 
" clip-path="url(#p4c0005ce56)" style="fill: none; stroke: #cccccc; stroke-linecap: round"/>
     </g>
     <g id="text_13">
      <!-- 20 -->
      <g style="fill: #262626" transform="translate(596.320588 547.598438) scale(0.2 -0.2)">
       <use xlink:href="#DejaVuSans-32"/>
       <use xlink:href="#DejaVuSans-30" x="63.623047"/>
      </g>
     </g>
    </g>
    <g id="ytick_9">
     <g id="line2d_9">
      <path d="M 631.270588 439.2 
L 992.329412 439.2 
" clip-path="url(#p4c0005ce56)" style="fill: none; stroke: #cccccc; stroke-linecap: round"/>
     </g>
     <g id="text_14">
      <!-- 40 -->
      <g style="fill: #262626" transform="translate(596.320588 446.798437) scale(0.2 -0.2)">
       <use xlink:href="#DejaVuSans-34"/>
       <use xlink:href="#DejaVuSans-30" x="63.623047"/>
      </g>
     </g>
    </g>
    <g id="ytick_10">
     <g id="line2d_10">
      <path d="M 631.270588 338.4 
L 992.329412 338.4 
" clip-path="url(#p4c0005ce56)" style="fill: none; stroke: #cccccc; stroke-linecap: round"/>
     </g>
     <g id="text_15">
      <!-- 60 -->
      <g style="fill: #262626" transform="translate(596.320588 345.998437) scale(0.2 -0.2)">
       <use xlink:href="#DejaVuSans-36"/>
       <use xlink:href="#DejaVuSans-30" x="63.623047"/>
      </g>
     </g>
    </g>
    <g id="ytick_11">
     <g id="line2d_11">
      <path d="M 631.270588 237.6 
L 992.329412 237.6 
" clip-path="url(#p4c0005ce56)" style="fill: none; stroke: #cccccc; stroke-linecap: round"/>
     </g>
     <g id="text_16">
      <!-- 80 -->
      <g style="fill: #262626" transform="translate(596.320588 245.198437) scale(0.2 -0.2)">
       <use xlink:href="#DejaVuSans-38"/>
       <use xlink:href="#DejaVuSans-30" x="63.623047"/>
      </g>
     </g>
    </g>
    <g id="ytick_12">
     <g id="line2d_12">
      <path d="M 631.270588 136.8 
L 992.329412 136.8 
" clip-path="url(#p4c0005ce56)" style="fill: none; stroke: #cccccc; stroke-linecap: round"/>
     </g>
     <g id="text_17">
      <!-- 100 -->
      <g style="fill: #262626" transform="translate(583.595588 144.398438) scale(0.2 -0.2)">
       <use xlink:href="#DejaVuSans-31"/>
       <use xlink:href="#DejaVuSans-30" x="63.623047"/>
       <use xlink:href="#DejaVuSans-30" x="127.246094"/>
      </g>
     </g>
    </g>
   </g>
   <g id="PolyCollection_2">
    <defs>
     <path id="mb3d9c9e347" d="M 849.21784 -89.28 
L 774.38216 -89.28 
L 771.934203 -90.4 
L 769.452769 -91.52 
L 766.946098 -92.64 
L 764.422719 -93.76 
L 761.891492 -94.88 
L 759.361664 -96 
L 756.842935 -97.12 
L 754.345503 -98.24 
L 751.880111 -99.36 
L 749.458055 -100.48 
L 747.091166 -101.6 
L 744.791746 -102.72 
L 742.572452 -103.84 
L 740.446135 -104.96 
L 738.425614 -106.08 
L 736.523403 -107.2 
L 734.751395 -108.32 
L 733.120497 -109.44 
L 731.640253 -110.56 
L 730.318442 -111.68 
L 729.16069 -112.8 
L 728.170101 -113.92 
L 727.34693 -115.04 
L 726.688304 -116.16 
L 726.18803 -117.28 
L 725.836474 -118.4 
L 725.620537 -119.52 
L 725.523739 -120.64 
L 725.526394 -121.76 
L 725.605894 -122.88 
L 725.737082 -124 
L 725.892715 -125.12 
L 726.043999 -126.24 
L 726.161181 -127.36 
L 726.214188 -128.48 
L 726.173287 -129.6 
L 726.009753 -130.72 
L 725.696523 -131.84 
L 725.208829 -132.96 
L 724.524771 -134.08 
L 723.625842 -135.2 
L 722.497372 -136.32 
L 721.128885 -137.44 
L 719.514364 -138.56 
L 717.652407 -139.68 
L 715.546288 -140.8 
L 713.203895 -141.92 
L 710.637576 -143.04 
L 707.863872 -144.16 
L 704.903163 -145.28 
L 701.779222 -146.4 
L 698.518706 -147.52 
L 695.150587 -148.64 
L 691.705542 -149.76 
L 688.215325 -150.88 
L 684.712145 -152 
L 681.228051 -153.12 
L 677.794368 -154.24 
L 674.44118 -155.36 
L 671.196889 -156.48 
L 668.087852 -157.6 
L 665.138118 -158.72 
L 662.36925 -159.84 
L 659.800254 -160.96 
L 657.447589 -162.08 
L 655.32527 -163.2 
L 653.44504 -164.32 
L 651.816594 -165.44 
L 650.447853 -166.56 
L 649.345252 -167.68 
L 648.514029 -168.8 
L 647.95851 -169.92 
L 647.682353 -171.04 
L 647.688746 -172.16 
L 647.980557 -173.28 
L 648.560411 -174.4 
L 649.430706 -175.52 
L 650.593558 -176.64 
L 652.050688 -177.76 
L 653.803246 -178.88 
L 655.851596 -180 
L 658.195067 -181.12 
L 660.83168 -182.24 
L 663.757874 -183.36 
L 666.968247 -184.48 
L 670.455307 -185.6 
L 674.209276 -186.72 
L 678.217931 -187.84 
L 682.466506 -188.96 
L 686.937659 -190.08 
L 691.611511 -191.2 
L 696.465746 -192.32 
L 701.475792 -193.44 
L 706.615064 -194.56 
L 711.855272 -195.68 
L 717.166782 -196.8 
L 722.519024 -197.92 
L 727.880932 -199.04 
L 733.221416 -200.16 
L 890.378584 -200.16 
L 890.378584 -200.16 
L 895.719068 -199.04 
L 901.080976 -197.92 
L 906.433218 -196.8 
L 911.744728 -195.68 
L 916.984936 -194.56 
L 922.124208 -193.44 
L 927.134254 -192.32 
L 931.988489 -191.2 
L 936.662341 -190.08 
L 941.133494 -188.96 
L 945.382069 -187.84 
L 949.390724 -186.72 
L 953.144693 -185.6 
L 956.631753 -184.48 
L 959.842126 -183.36 
L 962.76832 -182.24 
L 965.404933 -181.12 
L 967.748404 -180 
L 969.796754 -178.88 
L 971.549312 -177.76 
L 973.006442 -176.64 
L 974.169294 -175.52 
L 975.039589 -174.4 
L 975.619443 -173.28 
L 975.911254 -172.16 
L 975.917647 -171.04 
L 975.64149 -169.92 
L 975.085971 -168.8 
L 974.254748 -167.68 
L 973.152147 -166.56 
L 971.783406 -165.44 
L 970.15496 -164.32 
L 968.27473 -163.2 
L 966.152411 -162.08 
L 963.799746 -160.96 
L 961.23075 -159.84 
L 958.461882 -158.72 
L 955.512148 -157.6 
L 952.403111 -156.48 
L 949.15882 -155.36 
L 945.805632 -154.24 
L 942.371949 -153.12 
L 938.887855 -152 
L 935.384675 -150.88 
L 931.894458 -149.76 
L 928.449413 -148.64 
L 925.081294 -147.52 
L 921.820778 -146.4 
L 918.696837 -145.28 
L 915.736128 -144.16 
L 912.962424 -143.04 
L 910.396105 -141.92 
L 908.053712 -140.8 
L 905.947593 -139.68 
L 904.085636 -138.56 
L 902.471115 -137.44 
L 901.102628 -136.32 
L 899.974158 -135.2 
L 899.075229 -134.08 
L 898.391171 -132.96 
L 897.903477 -131.84 
L 897.590247 -130.72 
L 897.426713 -129.6 
L 897.385812 -128.48 
L 897.438819 -127.36 
L 897.556001 -126.24 
L 897.707285 -125.12 
L 897.862918 -124 
L 897.994106 -122.88 
L 898.073606 -121.76 
L 898.076261 -120.64 
L 897.979463 -119.52 
L 897.763526 -118.4 
L 897.41197 -117.28 
L 896.911696 -116.16 
L 896.25307 -115.04 
L 895.429899 -113.92 
L 894.43931 -112.8 
L 893.281558 -111.68 
L 891.959747 -110.56 
L 890.479503 -109.44 
L 888.848605 -108.32 
L 887.076597 -107.2 
L 885.174386 -106.08 
L 883.153865 -104.96 
L 881.027548 -103.84 
L 878.808254 -102.72 
L 876.508834 -101.6 
L 874.141945 -100.48 
L 871.719889 -99.36 
L 869.254497 -98.24 
L 866.757065 -97.12 
L 864.238336 -96 
L 861.708508 -94.88 
L 859.177281 -93.76 
L 856.653902 -92.64 
L 854.147231 -91.52 
L 851.665797 -90.4 
L 849.21784 -89.28 
z
" style="stroke: #ffffff; stroke-opacity: 0.3"/>
    </defs>
    <g clip-path="url(#p4c0005ce56)">
     <use xlink:href="#mb3d9c9e347" x="0" y="720" style="fill: #377eb8; fill-opacity: 0.3; stroke: #ffffff; stroke-opacity: 0.3"/>
    </g>
   </g>
   <g id="LineCollection_4">
    <path d="M 729.741176 519.84 
L 893.858824 519.84 
" clip-path="url(#p4c0005ce56)" style="fill: none; stroke: #4c72b0; stroke-width: 1.5"/>
   </g>
   <g id="LineCollection_5">
    <path d="M 729.741176 630.72 
L 893.858824 630.72 
" clip-path="url(#p4c0005ce56)" style="fill: none; stroke: #4c72b0; stroke-width: 1.5"/>
   </g>
   <g id="LineCollection_6">
    <path d="M 811.8 630.72 
L 811.8 519.84 
" clip-path="url(#p4c0005ce56)" style="fill: none; stroke: #4c72b0; stroke-width: 1.5"/>
   </g>
   <g id="patch_10">
    <path d="M 631.270588 640.8 
L 631.270588 86.4 
" style="fill: none; stroke: #cccccc; stroke-width: 1.25; stroke-linejoin: miter; stroke-linecap: square"/>
   </g>
   <g id="patch_11">
    <path d="M 992.329412 640.8 
L 992.329412 86.4 
" style="fill: none; stroke: #cccccc; stroke-width: 1.25; stroke-linejoin: miter; stroke-linecap: square"/>
   </g>
   <g id="patch_12">
    <path d="M 631.270588 640.8 
L 992.329412 640.8 
" style="fill: none; stroke: #cccccc; stroke-width: 1.25; stroke-linejoin: miter; stroke-linecap: square"/>
   </g>
   <g id="patch_13">
    <path d="M 631.270588 86.4 
L 992.329412 86.4 
" style="fill: none; stroke: #cccccc; stroke-width: 1.25; stroke-linejoin: miter; stroke-linecap: square"/>
   </g>
   <g id="text_18">
    <g id="patch_14">
     <path d="M 674.535294 153.5825 
L 768.535294 153.5825 
L 768.535294 130.0975 
L 674.535294 130.0975 
z
" style="fill: #ffffff; stroke: #000000; stroke-linejoin: miter"/>
    </g>
    <!-- # seqs: 59 -->
    <g style="fill: #262626" transform="translate(678.535294 146.255) scale(0.16 -0.16)">
     <defs>
      <path id="DejaVuSans-39" d="M 703 97 
L 703 672 
Q 941 559 1184 500 
Q 1428 441 1663 441 
Q 2288 441 2617 861 
Q 2947 1281 2994 2138 
Q 2813 1869 2534 1725 
Q 2256 1581 1919 1581 
Q 1219 1581 811 2004 
Q 403 2428 403 3163 
Q 403 3881 828 4315 
Q 1253 4750 1959 4750 
Q 2769 4750 3195 4129 
Q 3622 3509 3622 2328 
Q 3622 1225 3098 567 
Q 2575 -91 1691 -91 
Q 1453 -91 1209 -44 
Q 966 3 703 97 
z
M 1959 2075 
Q 2384 2075 2632 2365 
Q 2881 2656 2881 3163 
Q 2881 3666 2632 3958 
Q 2384 4250 1959 4250 
Q 1534 4250 1286 3958 
Q 1038 3666 1038 3163 
Q 1038 2656 1286 2365 
Q 1534 2075 1959 2075 
z
" transform="scale(0.015625)"/>
     </defs>
     <use xlink:href="#DejaVuSans-23"/>
     <use xlink:href="#DejaVuSans-20" x="83.789062"/>
     <use xlink:href="#DejaVuSans-73" x="115.576172"/>
     <use xlink:href="#DejaVuSans-65" x="167.675781"/>
     <use xlink:href="#DejaVuSans-71" x="229.199219"/>
     <use xlink:href="#DejaVuSans-73" x="292.675781"/>
     <use xlink:href="#DejaVuSans-3a" x="344.775391"/>
     <use xlink:href="#DejaVuSans-20" x="378.466797"/>
     <use xlink:href="#DejaVuSans-35" x="410.253906"/>
     <use xlink:href="#DejaVuSans-39" x="473.876953"/>
    </g>
   </g>
   <g id="text_19">
    <g id="patch_15">
     <path d="M 637.201544 181.3025 
L 805.869044 181.3025 
L 805.869044 157.8175 
L 637.201544 157.8175 
z
" style="fill: #ffffff; stroke: #000000; stroke-linejoin: miter"/>
    </g>
    <!-- AVG % detected: 15 -->
    <g style="fill: #262626" transform="translate(641.201544 173.975) scale(0.16 -0.16)">
     <use xlink:href="#DejaVuSans-41"/>
     <use xlink:href="#DejaVuSans-56" x="62.033203"/>
     <use xlink:href="#DejaVuSans-47" x="130.441406"/>
     <use xlink:href="#DejaVuSans-20" x="207.931641"/>
     <use xlink:href="#DejaVuSans-25" x="239.71875"/>
     <use xlink:href="#DejaVuSans-20" x="334.738281"/>
     <use xlink:href="#DejaVuSans-64" x="366.525391"/>
     <use xlink:href="#DejaVuSans-65" x="430.001953"/>
     <use xlink:href="#DejaVuSans-74" x="491.525391"/>
     <use xlink:href="#DejaVuSans-65" x="530.734375"/>
     <use xlink:href="#DejaVuSans-63" x="592.257812"/>
     <use xlink:href="#DejaVuSans-74" x="647.238281"/>
     <use xlink:href="#DejaVuSans-65" x="686.447266"/>
     <use xlink:href="#DejaVuSans-64" x="747.970703"/>
     <use xlink:href="#DejaVuSans-3a" x="811.447266"/>
     <use xlink:href="#DejaVuSans-20" x="845.138672"/>
     <use xlink:href="#DejaVuSans-31" x="876.925781"/>
     <use xlink:href="#DejaVuSans-35" x="940.548828"/>
    </g>
   </g>
   <g id="text_20">
    <!-- NEU -->
    <g style="fill: #262626" transform="translate(790.68125 74.856) scale(0.2 -0.2)">
     <defs>
      <path id="DejaVuSans-45" d="M 628 4666 
L 3578 4666 
L 3578 4134 
L 1259 4134 
L 1259 2753 
L 3481 2753 
L 3481 2222 
L 1259 2222 
L 1259 531 
L 3634 531 
L 3634 0 
L 628 0 
L 628 4666 
z
" transform="scale(0.015625)"/>
      <path id="DejaVuSans-55" d="M 556 4666 
L 1191 4666 
L 1191 1831 
Q 1191 1081 1462 751 
Q 1734 422 2344 422 
Q 2950 422 3222 751 
Q 3494 1081 3494 1831 
L 3494 4666 
L 4128 4666 
L 4128 1753 
Q 4128 841 3676 375 
Q 3225 -91 2344 -91 
Q 1459 -91 1007 375 
Q 556 841 556 1753 
L 556 4666 
z
" transform="scale(0.015625)"/>
     </defs>
     <use xlink:href="#DejaVuSans-4e"/>
     <use xlink:href="#DejaVuSans-45" x="74.804688"/>
     <use xlink:href="#DejaVuSans-55" x="137.988281"/>
    </g>
   </g>
  </g>
  <g id="axes_3">
   <g id="patch_16">
    <path d="M 1064.541176 640.8 
L 1425.6 640.8 
L 1425.6 86.4 
L 1064.541176 86.4 
z
" style="fill: #ffffff"/>
   </g>
   <g id="matplotlib.axis_5"/>
   <g id="matplotlib.axis_6">
    <g id="ytick_13">
     <g id="line2d_13">
      <path d="M 1064.541176 640.8 
L 1425.6 640.8 
" clip-path="url(#pcdd2da8caa)" style="fill: none; stroke: #cccccc; stroke-linecap: round"/>
     </g>
     <g id="text_21">
      <!-- 0 -->
      <g style="fill: #262626" transform="translate(1042.316176 648.398438) scale(0.2 -0.2)">
       <use xlink:href="#DejaVuSans-30"/>
      </g>
     </g>
    </g>
    <g id="ytick_14">
     <g id="line2d_14">
      <path d="M 1064.541176 540 
L 1425.6 540 
" clip-path="url(#pcdd2da8caa)" style="fill: none; stroke: #cccccc; stroke-linecap: round"/>
     </g>
     <g id="text_22">
      <!-- 20 -->
      <g style="fill: #262626" transform="translate(1029.591176 547.598438) scale(0.2 -0.2)">
       <use xlink:href="#DejaVuSans-32"/>
       <use xlink:href="#DejaVuSans-30" x="63.623047"/>
      </g>
     </g>
    </g>
    <g id="ytick_15">
     <g id="line2d_15">
      <path d="M 1064.541176 439.2 
L 1425.6 439.2 
" clip-path="url(#pcdd2da8caa)" style="fill: none; stroke: #cccccc; stroke-linecap: round"/>
     </g>
     <g id="text_23">
      <!-- 40 -->
      <g style="fill: #262626" transform="translate(1029.591176 446.798437) scale(0.2 -0.2)">
       <use xlink:href="#DejaVuSans-34"/>
       <use xlink:href="#DejaVuSans-30" x="63.623047"/>
      </g>
     </g>
    </g>
    <g id="ytick_16">
     <g id="line2d_16">
      <path d="M 1064.541176 338.4 
L 1425.6 338.4 
" clip-path="url(#pcdd2da8caa)" style="fill: none; stroke: #cccccc; stroke-linecap: round"/>
     </g>
     <g id="text_24">
      <!-- 60 -->
      <g style="fill: #262626" transform="translate(1029.591176 345.998437) scale(0.2 -0.2)">
       <use xlink:href="#DejaVuSans-36"/>
       <use xlink:href="#DejaVuSans-30" x="63.623047"/>
      </g>
     </g>
    </g>
    <g id="ytick_17">
     <g id="line2d_17">
      <path d="M 1064.541176 237.6 
L 1425.6 237.6 
" clip-path="url(#pcdd2da8caa)" style="fill: none; stroke: #cccccc; stroke-linecap: round"/>
     </g>
     <g id="text_25">
      <!-- 80 -->
      <g style="fill: #262626" transform="translate(1029.591176 245.198437) scale(0.2 -0.2)">
       <use xlink:href="#DejaVuSans-38"/>
       <use xlink:href="#DejaVuSans-30" x="63.623047"/>
      </g>
     </g>
    </g>
    <g id="ytick_18">
     <g id="line2d_18">
      <path d="M 1064.541176 136.8 
L 1425.6 136.8 
" clip-path="url(#pcdd2da8caa)" style="fill: none; stroke: #cccccc; stroke-linecap: round"/>
     </g>
     <g id="text_26">
      <!-- 100 -->
      <g style="fill: #262626" transform="translate(1016.866176 144.398438) scale(0.2 -0.2)">
       <use xlink:href="#DejaVuSans-31"/>
       <use xlink:href="#DejaVuSans-30" x="63.623047"/>
       <use xlink:href="#DejaVuSans-30" x="127.246094"/>
      </g>
     </g>
    </g>
   </g>
   <g id="PolyCollection_3">
    <defs>
     <path id="m50324be511" d="M 1339.932845 -205.2 
L 1150.208331 -205.2 
L 1143.446035 -209.018182 
L 1136.796603 -212.836364 
L 1130.323362 -216.654545 
L 1124.086775 -220.472727 
L 1118.143116 -224.290909 
L 1112.543317 -228.109091 
L 1107.332005 -231.927273 
L 1102.546768 -235.745455 
L 1098.217634 -239.563636 
L 1094.36679 -243.381818 
L 1091.008498 -247.2 
L 1088.14922 -251.018182 
L 1085.787905 -254.836364 
L 1083.91643 -258.654545 
L 1082.520157 -262.472727 
L 1081.578601 -266.290909 
L 1081.066164 -270.109091 
L 1080.952941 -273.927273 
L 1081.205565 -277.745455 
L 1081.788072 -281.563636 
L 1082.662787 -285.381818 
L 1083.79119 -289.2 
L 1085.134756 -293.018182 
L 1086.655744 -296.836364 
L 1088.31791 -300.654545 
L 1090.087118 -304.472727 
L 1091.931842 -308.290909 
L 1093.823528 -312.109091 
L 1095.736818 -315.927273 
L 1097.649634 -319.745455 
L 1099.543119 -323.563636 
L 1101.401472 -327.381818 
L 1103.211688 -331.2 
L 1104.963234 -335.018182 
L 1106.64771 -338.836364 
L 1108.258514 -342.654545 
L 1109.790558 -346.472727 
L 1111.240057 -350.290909 
L 1112.604403 -354.109091 
L 1113.882142 -357.927273 
L 1115.073048 -361.745455 
L 1116.178268 -365.563636 
L 1117.200533 -369.381818 
L 1118.144379 -373.2 
L 1119.016368 -377.018182 
L 1119.825244 -380.836364 
L 1120.582012 -384.654545 
L 1121.299894 -388.472727 
L 1121.994154 -392.290909 
L 1122.681771 -396.109091 
L 1123.380963 -399.927273 
L 1124.110583 -403.745455 
L 1124.889393 -407.563636 
L 1125.735266 -411.381818 
L 1126.664336 -415.2 
L 1127.690151 -419.018182 
L 1128.822881 -422.836364 
L 1130.068599 -426.654545 
L 1131.428709 -430.472727 
L 1132.899532 -434.290909 
L 1134.472096 -438.109091 
L 1136.132143 -441.927273 
L 1137.860364 -445.745455 
L 1139.632871 -449.563636 
L 1141.42189 -453.381818 
L 1143.196664 -457.2 
L 1144.924525 -461.018182 
L 1146.572111 -464.836364 
L 1148.106678 -468.654545 
L 1149.497444 -472.472727 
L 1150.716937 -476.290909 
L 1151.742258 -480.109091 
L 1152.556225 -483.927273 
L 1153.148343 -487.745455 
L 1153.515545 -491.563636 
L 1153.662672 -495.381818 
L 1153.602673 -499.2 
L 1153.356496 -503.018182 
L 1152.952684 -506.836364 
L 1152.426674 -510.654545 
L 1151.819838 -514.472727 
L 1151.178291 -518.290909 
L 1150.551518 -522.109091 
L 1149.990868 -525.927273 
L 1149.547978 -529.745455 
L 1149.273182 -533.563636 
L 1149.21396 -537.381818 
L 1149.413487 -541.2 
L 1149.909331 -545.018182 
L 1150.732337 -548.836364 
L 1151.905735 -552.654545 
L 1153.444489 -556.472727 
L 1155.354924 -560.290909 
L 1157.634599 -564.109091 
L 1160.272471 -567.927273 
L 1163.249292 -571.745455 
L 1166.538257 -575.563636 
L 1170.105857 -579.381818 
L 1173.912904 -583.2 
L 1316.228272 -583.2 
L 1316.228272 -583.2 
L 1320.03532 -579.381818 
L 1323.602919 -575.563636 
L 1326.891884 -571.745455 
L 1329.868705 -567.927273 
L 1332.506577 -564.109091 
L 1334.786253 -560.290909 
L 1336.696687 -556.472727 
L 1338.235442 -552.654545 
L 1339.408839 -548.836364 
L 1340.231846 -545.018182 
L 1340.72769 -541.2 
L 1340.927217 -537.381818 
L 1340.867994 -533.563636 
L 1340.593198 -529.745455 
L 1340.150309 -525.927273 
L 1339.589659 -522.109091 
L 1338.962886 -518.290909 
L 1338.321339 -514.472727 
L 1337.714503 -510.654545 
L 1337.188493 -506.836364 
L 1336.78468 -503.018182 
L 1336.538504 -499.2 
L 1336.478504 -495.381818 
L 1336.625631 -491.563636 
L 1336.992833 -487.745455 
L 1337.584951 -483.927273 
L 1338.398919 -480.109091 
L 1339.424239 -476.290909 
L 1340.643732 -472.472727 
L 1342.034499 -468.654545 
L 1343.569065 -464.836364 
L 1345.216652 -461.018182 
L 1346.944512 -457.2 
L 1348.719286 -453.381818 
L 1350.508306 -449.563636 
L 1352.280812 -445.745455 
L 1354.009033 -441.927273 
L 1355.66908 -438.109091 
L 1357.241645 -434.290909 
L 1358.712468 -430.472727 
L 1360.072578 -426.654545 
L 1361.318296 -422.836364 
L 1362.451025 -419.018182 
L 1363.476841 -415.2 
L 1364.40591 -411.381818 
L 1365.251783 -407.563636 
L 1366.030594 -403.745455 
L 1366.760214 -399.927273 
L 1367.459406 -396.109091 
L 1368.147022 -392.290909 
L 1368.841282 -388.472727 
L 1369.559165 -384.654545 
L 1370.315932 -380.836364 
L 1371.124808 -377.018182 
L 1371.996797 -373.2 
L 1372.940644 -369.381818 
L 1373.962908 -365.563636 
L 1375.068128 -361.745455 
L 1376.259034 -357.927273 
L 1377.536773 -354.109091 
L 1378.901119 -350.290909 
L 1380.350618 -346.472727 
L 1381.882663 -342.654545 
L 1383.493466 -338.836364 
L 1385.177942 -335.018182 
L 1386.929488 -331.2 
L 1388.739704 -327.381818 
L 1390.598058 -323.563636 
L 1392.491543 -319.745455 
L 1394.404358 -315.927273 
L 1396.317649 -312.109091 
L 1398.209334 -308.290909 
L 1400.054058 -304.472727 
L 1401.823266 -300.654545 
L 1403.485432 -296.836364 
L 1405.006421 -293.018182 
L 1406.349987 -289.2 
L 1407.478389 -285.381818 
L 1408.353104 -281.563636 
L 1408.935612 -277.745455 
L 1409.188235 -273.927273 
L 1409.075013 -270.109091 
L 1408.562576 -266.290909 
L 1407.621019 -262.472727 
L 1406.224747 -258.654545 
L 1404.353271 -254.836364 
L 1401.991956 -251.018182 
L 1399.132679 -247.2 
L 1395.774387 -243.381818 
L 1391.923542 -239.563636 
L 1387.594409 -235.745455 
L 1382.809171 -231.927273 
L 1377.59786 -228.109091 
L 1371.99806 -224.290909 
L 1366.054402 -220.472727 
L 1359.817815 -216.654545 
L 1353.344574 -212.836364 
L 1346.695141 -209.018182 
L 1339.932845 -205.2 
z
" style="stroke: #ffffff; stroke-opacity: 0.3"/>
    </defs>
    <g clip-path="url(#pcdd2da8caa)">
     <use xlink:href="#m50324be511" x="0" y="720" style="fill: #4daf4a; fill-opacity: 0.3; stroke: #ffffff; stroke-opacity: 0.3"/>
    </g>
   </g>
   <g id="LineCollection_7">
    <path d="M 1163.011765 136.8 
L 1327.129412 136.8 
" clip-path="url(#pcdd2da8caa)" style="fill: none; stroke: #4c72b0; stroke-width: 1.5"/>
   </g>
   <g id="LineCollection_8">
    <path d="M 1163.011765 514.8 
L 1327.129412 514.8 
" clip-path="url(#pcdd2da8caa)" style="fill: none; stroke: #4c72b0; stroke-width: 1.5"/>
   </g>
   <g id="LineCollection_9">
    <path d="M 1245.070588 514.8 
L 1245.070588 136.8 
" clip-path="url(#pcdd2da8caa)" style="fill: none; stroke: #4c72b0; stroke-width: 1.5"/>
   </g>
   <g id="patch_17">
    <path d="M 1064.541176 640.8 
L 1064.541176 86.4 
" style="fill: none; stroke: #cccccc; stroke-width: 1.25; stroke-linejoin: miter; stroke-linecap: square"/>
   </g>
   <g id="patch_18">
    <path d="M 1425.6 640.8 
L 1425.6 86.4 
" style="fill: none; stroke: #cccccc; stroke-width: 1.25; stroke-linejoin: miter; stroke-linecap: square"/>
   </g>
   <g id="patch_19">
    <path d="M 1064.541176 640.8 
L 1425.6 640.8 
" style="fill: none; stroke: #cccccc; stroke-width: 1.25; stroke-linejoin: miter; stroke-linecap: square"/>
   </g>
   <g id="patch_20">
    <path d="M 1064.541176 86.4 
L 1425.6 86.4 
" style="fill: none; stroke: #cccccc; stroke-width: 1.25; stroke-linejoin: miter; stroke-linecap: square"/>
   </g>
   <g id="text_27">
    <g id="patch_21">
     <path d="M 1102.715882 153.5825 
L 1206.895882 153.5825 
L 1206.895882 130.0975 
L 1102.715882 130.0975 
z
" style="fill: #ffffff; stroke: #000000; stroke-linejoin: miter"/>
    </g>
    <!-- # seqs: 184 -->
    <g style="fill: #262626" transform="translate(1106.715882 146.255) scale(0.16 -0.16)">
     <use xlink:href="#DejaVuSans-23"/>
     <use xlink:href="#DejaVuSans-20" x="83.789062"/>
     <use xlink:href="#DejaVuSans-73" x="115.576172"/>
     <use xlink:href="#DejaVuSans-65" x="167.675781"/>
     <use xlink:href="#DejaVuSans-71" x="229.199219"/>
     <use xlink:href="#DejaVuSans-73" x="292.675781"/>
     <use xlink:href="#DejaVuSans-3a" x="344.775391"/>
     <use xlink:href="#DejaVuSans-20" x="378.466797"/>
     <use xlink:href="#DejaVuSans-31" x="410.253906"/>
     <use xlink:href="#DejaVuSans-38" x="473.876953"/>
     <use xlink:href="#DejaVuSans-34" x="537.5"/>
    </g>
   </g>
   <g id="text_28">
    <g id="patch_22">
     <path d="M 1070.472132 181.3025 
L 1239.139632 181.3025 
L 1239.139632 157.8175 
L 1070.472132 157.8175 
z
" style="fill: #ffffff; stroke: #000000; stroke-linejoin: miter"/>
    </g>
    <!-- AVG % detected: 59 -->
    <g style="fill: #262626" transform="translate(1074.472132 173.975) scale(0.16 -0.16)">
     <use xlink:href="#DejaVuSans-41"/>
     <use xlink:href="#DejaVuSans-56" x="62.033203"/>
     <use xlink:href="#DejaVuSans-47" x="130.441406"/>
     <use xlink:href="#DejaVuSans-20" x="207.931641"/>
     <use xlink:href="#DejaVuSans-25" x="239.71875"/>
     <use xlink:href="#DejaVuSans-20" x="334.738281"/>
     <use xlink:href="#DejaVuSans-64" x="366.525391"/>
     <use xlink:href="#DejaVuSans-65" x="430.001953"/>
     <use xlink:href="#DejaVuSans-74" x="491.525391"/>
     <use xlink:href="#DejaVuSans-65" x="530.734375"/>
     <use xlink:href="#DejaVuSans-63" x="592.257812"/>
     <use xlink:href="#DejaVuSans-74" x="647.238281"/>
     <use xlink:href="#DejaVuSans-65" x="686.447266"/>
     <use xlink:href="#DejaVuSans-64" x="747.970703"/>
     <use xlink:href="#DejaVuSans-3a" x="811.447266"/>
     <use xlink:href="#DejaVuSans-20" x="845.138672"/>
     <use xlink:href="#DejaVuSans-35" x="876.925781"/>
     <use xlink:href="#DejaVuSans-39" x="940.548828"/>
    </g>
   </g>
   <g id="text_29">
    <!-- BRO -->
    <g style="fill: #262626" transform="translate(1223.389338 74.856) scale(0.2 -0.2)">
     <defs>
      <path id="DejaVuSans-42" d="M 1259 2228 
L 1259 519 
L 2272 519 
Q 2781 519 3026 730 
Q 3272 941 3272 1375 
Q 3272 1813 3026 2020 
Q 2781 2228 2272 2228 
L 1259 2228 
z
M 1259 4147 
L 1259 2741 
L 2194 2741 
Q 2656 2741 2882 2914 
Q 3109 3088 3109 3444 
Q 3109 3797 2882 3972 
Q 2656 4147 2194 4147 
L 1259 4147 
z
M 628 4666 
L 2241 4666 
Q 2963 4666 3353 4366 
Q 3744 4066 3744 3513 
Q 3744 3084 3544 2831 
Q 3344 2578 2956 2516 
Q 3422 2416 3680 2098 
Q 3938 1781 3938 1306 
Q 3938 681 3513 340 
Q 3088 0 2303 0 
L 628 0 
L 628 4666 
z
" transform="scale(0.015625)"/>
      <path id="DejaVuSans-52" d="M 2841 2188 
Q 3044 2119 3236 1894 
Q 3428 1669 3622 1275 
L 4263 0 
L 3584 0 
L 2988 1197 
Q 2756 1666 2539 1819 
Q 2322 1972 1947 1972 
L 1259 1972 
L 1259 0 
L 628 0 
L 628 4666 
L 2053 4666 
Q 2853 4666 3247 4331 
Q 3641 3997 3641 3322 
Q 3641 2881 3436 2590 
Q 3231 2300 2841 2188 
z
M 1259 4147 
L 1259 2491 
L 2053 2491 
Q 2509 2491 2742 2702 
Q 2975 2913 2975 3322 
Q 2975 3731 2742 3939 
Q 2509 4147 2053 4147 
L 1259 4147 
z
" transform="scale(0.015625)"/>
     </defs>
     <use xlink:href="#DejaVuSans-42"/>
     <use xlink:href="#DejaVuSans-52" x="68.603516"/>
     <use xlink:href="#DejaVuSans-4f" x="138.085938"/>
    </g>
   </g>
  </g>
 </g>
 <defs>
  <clipPath id="p63c5433687">
   <rect x="198" y="86.4" width="361.058824" height="554.4"/>
  </clipPath>
  <clipPath id="p4c0005ce56">
   <rect x="631.270588" y="86.4" width="361.058824" height="554.4"/>
  </clipPath>
  <clipPath id="pcdd2da8caa">
   <rect x="1064.541176" y="86.4" width="361.058824" height="554.4"/>
  </clipPath>
 </defs>
</svg>
