<?xml version="1.0" encoding="utf-8" standalone="no"?>
<!DOCTYPE svg PUBLIC "-//W3C//DTD SVG 1.1//EN"
  "http://www.w3.org/Graphics/SVG/1.1/DTD/svg11.dtd">
<svg xmlns:xlink="http://www.w3.org/1999/xlink" width="1584pt" height="720pt" viewBox="0 0 1584 720" xmlns="http://www.w3.org/2000/svg" version="1.1">
 <metadata>
  <rdf:RDF xmlns:dc="http://purl.org/dc/elements/1.1/" xmlns:cc="http://creativecommons.org/ns#" xmlns:rdf="http://www.w3.org/1999/02/22-rdf-syntax-ns#">
   <cc:Work>
    <dc:type rdf:resource="http://purl.org/dc/dcmitype/StillImage"/>
    <dc:date>2023-11-17T11:28:16.646392</dc:date>
    <dc:format>image/svg+xml</dc:format>
    <dc:creator>
     <cc:Agent>
      <dc:title>Matplotlib v3.7.1, https://matplotlib.org/</dc:title>
     </cc:Agent>
    </dc:creator>
   </cc:Work>
  </rdf:RDF>
 </metadata>
 <defs>
  <style type="text/css">*{stroke-linejoin: round; stroke-linecap: butt}</style>
 </defs>
 <g id="figure_1">
  <g id="patch_1">
   <path d="M 0 720 
L 1584 720 
L 1584 0 
L 0 0 
z
" style="fill: #ffffff"/>
  </g>
  <g id="axes_1">
   <g id="patch_2">
    <path d="M 198 640.8 
L 559.058824 640.8 
L 559.058824 86.4 
L 198 86.4 
z
" style="fill: #ffffff"/>
   </g>
   <g id="matplotlib.axis_1"/>
   <g id="matplotlib.axis_2">
    <g id="ytick_1">
     <g id="line2d_1">
      <path d="M 198 640.8 
L 559.058824 640.8 
" clip-path="url(#pbff8d4275f)" style="fill: none; stroke: #cccccc; stroke-linecap: round"/>
     </g>
     <g id="text_1">
      <!-- 5 -->
      <g style="fill: #262626" transform="translate(175.775 648.398438) scale(0.2 -0.2)">
       <defs>
        <path id="DejaVuSans-35" d="M 691 4666 
L 3169 4666 
L 3169 4134 
L 1269 4134 
L 1269 2991 
Q 1406 3038 1543 3061 
Q 1681 3084 1819 3084 
Q 2600 3084 3056 2656 
Q 3513 2228 3513 1497 
Q 3513 744 3044 326 
Q 2575 -91 1722 -91 
Q 1428 -91 1123 -41 
Q 819 9 494 109 
L 494 744 
Q 775 591 1075 516 
Q 1375 441 1709 441 
Q 2250 441 2565 725 
Q 2881 1009 2881 1497 
Q 2881 1984 2565 2268 
Q 2250 2553 1709 2553 
Q 1456 2553 1204 2497 
Q 953 2441 691 2322 
L 691 4666 
z
" transform="scale(0.015625)"/>
       </defs>
       <use xlink:href="#DejaVuSans-35"/>
      </g>
     </g>
    </g>
    <g id="ytick_2">
     <g id="line2d_2">
      <path d="M 198 579.2 
L 559.058824 579.2 
" clip-path="url(#pbff8d4275f)" style="fill: none; stroke: #cccccc; stroke-linecap: round"/>
     </g>
     <g id="text_2">
      <!-- 10 -->
      <g style="fill: #262626" transform="translate(163.05 586.798437) scale(0.2 -0.2)">
       <defs>
        <path id="DejaVuSans-31" d="M 794 531 
L 1825 531 
L 1825 4091 
L 703 3866 
L 703 4441 
L 1819 4666 
L 2450 4666 
L 2450 531 
L 3481 531 
L 3481 0 
L 794 0 
L 794 531 
z
" transform="scale(0.015625)"/>
        <path id="DejaVuSans-30" d="M 2034 4250 
Q 1547 4250 1301 3770 
Q 1056 3291 1056 2328 
Q 1056 1369 1301 889 
Q 1547 409 2034 409 
Q 2525 409 2770 889 
Q 3016 1369 3016 2328 
Q 3016 3291 2770 3770 
Q 2525 4250 2034 4250 
z
M 2034 4750 
Q 2819 4750 3233 4129 
Q 3647 3509 3647 2328 
Q 3647 1150 3233 529 
Q 2819 -91 2034 -91 
Q 1250 -91 836 529 
Q 422 1150 422 2328 
Q 422 3509 836 4129 
Q 1250 4750 2034 4750 
z
" transform="scale(0.015625)"/>
       </defs>
       <use xlink:href="#DejaVuSans-31"/>
       <use xlink:href="#DejaVuSans-30" x="63.623047"/>
      </g>
     </g>
    </g>
    <g id="ytick_3">
     <g id="line2d_3">
      <path d="M 198 517.6 
L 559.058824 517.6 
" clip-path="url(#pbff8d4275f)" style="fill: none; stroke: #cccccc; stroke-linecap: round"/>
     </g>
     <g id="text_3">
      <!-- 15 -->
      <g style="fill: #262626" transform="translate(163.05 525.198437) scale(0.2 -0.2)">
       <use xlink:href="#DejaVuSans-31"/>
       <use xlink:href="#DejaVuSans-35" x="63.623047"/>
      </g>
     </g>
    </g>
    <g id="ytick_4">
     <g id="line2d_4">
      <path d="M 198 456 
L 559.058824 456 
" clip-path="url(#pbff8d4275f)" style="fill: none; stroke: #cccccc; stroke-linecap: round"/>
     </g>
     <g id="text_4">
      <!-- 20 -->
      <g style="fill: #262626" transform="translate(163.05 463.598437) scale(0.2 -0.2)">
       <defs>
        <path id="DejaVuSans-32" d="M 1228 531 
L 3431 531 
L 3431 0 
L 469 0 
L 469 531 
Q 828 903 1448 1529 
Q 2069 2156 2228 2338 
Q 2531 2678 2651 2914 
Q 2772 3150 2772 3378 
Q 2772 3750 2511 3984 
Q 2250 4219 1831 4219 
Q 1534 4219 1204 4116 
Q 875 4013 500 3803 
L 500 4441 
Q 881 4594 1212 4672 
Q 1544 4750 1819 4750 
Q 2544 4750 2975 4387 
Q 3406 4025 3406 3419 
Q 3406 3131 3298 2873 
Q 3191 2616 2906 2266 
Q 2828 2175 2409 1742 
Q 1991 1309 1228 531 
z
" transform="scale(0.015625)"/>
       </defs>
       <use xlink:href="#DejaVuSans-32"/>
       <use xlink:href="#DejaVuSans-30" x="63.623047"/>
      </g>
     </g>
    </g>
    <g id="ytick_5">
     <g id="line2d_5">
      <path d="M 198 394.4 
L 559.058824 394.4 
" clip-path="url(#pbff8d4275f)" style="fill: none; stroke: #cccccc; stroke-linecap: round"/>
     </g>
     <g id="text_5">
      <!-- 25 -->
      <g style="fill: #262626" transform="translate(163.05 401.998437) scale(0.2 -0.2)">
       <use xlink:href="#DejaVuSans-32"/>
       <use xlink:href="#DejaVuSans-35" x="63.623047"/>
      </g>
     </g>
    </g>
    <g id="ytick_6">
     <g id="line2d_6">
      <path d="M 198 332.8 
L 559.058824 332.8 
" clip-path="url(#pbff8d4275f)" style="fill: none; stroke: #cccccc; stroke-linecap: round"/>
     </g>
     <g id="text_6">
      <!-- 30 -->
      <g style="fill: #262626" transform="translate(163.05 340.398437) scale(0.2 -0.2)">
       <defs>
        <path id="DejaVuSans-33" d="M 2597 2516 
Q 3050 2419 3304 2112 
Q 3559 1806 3559 1356 
Q 3559 666 3084 287 
Q 2609 -91 1734 -91 
Q 1441 -91 1130 -33 
Q 819 25 488 141 
L 488 750 
Q 750 597 1062 519 
Q 1375 441 1716 441 
Q 2309 441 2620 675 
Q 2931 909 2931 1356 
Q 2931 1769 2642 2001 
Q 2353 2234 1838 2234 
L 1294 2234 
L 1294 2753 
L 1863 2753 
Q 2328 2753 2575 2939 
Q 2822 3125 2822 3475 
Q 2822 3834 2567 4026 
Q 2313 4219 1838 4219 
Q 1578 4219 1281 4162 
Q 984 4106 628 3988 
L 628 4550 
Q 988 4650 1302 4700 
Q 1616 4750 1894 4750 
Q 2613 4750 3031 4423 
Q 3450 4097 3450 3541 
Q 3450 3153 3228 2886 
Q 3006 2619 2597 2516 
z
" transform="scale(0.015625)"/>
       </defs>
       <use xlink:href="#DejaVuSans-33"/>
       <use xlink:href="#DejaVuSans-30" x="63.623047"/>
      </g>
     </g>
    </g>
    <g id="ytick_7">
     <g id="line2d_7">
      <path d="M 198 271.2 
L 559.058824 271.2 
" clip-path="url(#pbff8d4275f)" style="fill: none; stroke: #cccccc; stroke-linecap: round"/>
     </g>
     <g id="text_7">
      <!-- 35 -->
      <g style="fill: #262626" transform="translate(163.05 278.798437) scale(0.2 -0.2)">
       <use xlink:href="#DejaVuSans-33"/>
       <use xlink:href="#DejaVuSans-35" x="63.623047"/>
      </g>
     </g>
    </g>
    <g id="ytick_8">
     <g id="line2d_8">
      <path d="M 198 209.6 
L 559.058824 209.6 
" clip-path="url(#pbff8d4275f)" style="fill: none; stroke: #cccccc; stroke-linecap: round"/>
     </g>
     <g id="text_8">
      <!-- 40 -->
      <g style="fill: #262626" transform="translate(163.05 217.198437) scale(0.2 -0.2)">
       <defs>
        <path id="DejaVuSans-34" d="M 2419 4116 
L 825 1625 
L 2419 1625 
L 2419 4116 
z
M 2253 4666 
L 3047 4666 
L 3047 1625 
L 3713 1625 
L 3713 1100 
L 3047 1100 
L 3047 0 
L 2419 0 
L 2419 1100 
L 313 1100 
L 313 1709 
L 2253 4666 
z
" transform="scale(0.015625)"/>
       </defs>
       <use xlink:href="#DejaVuSans-34"/>
       <use xlink:href="#DejaVuSans-30" x="63.623047"/>
      </g>
     </g>
    </g>
    <g id="ytick_9">
     <g id="line2d_9">
      <path d="M 198 148 
L 559.058824 148 
" clip-path="url(#pbff8d4275f)" style="fill: none; stroke: #cccccc; stroke-linecap: round"/>
     </g>
     <g id="text_9">
      <!-- 45 -->
      <g style="fill: #262626" transform="translate(163.05 155.598437) scale(0.2 -0.2)">
       <use xlink:href="#DejaVuSans-34"/>
       <use xlink:href="#DejaVuSans-35" x="63.623047"/>
      </g>
     </g>
    </g>
    <g id="ytick_10">
     <g id="line2d_10">
      <path d="M 198 86.4 
L 559.058824 86.4 
" clip-path="url(#pbff8d4275f)" style="fill: none; stroke: #cccccc; stroke-linecap: round"/>
     </g>
     <g id="text_10">
      <!-- 50 -->
      <g style="fill: #262626" transform="translate(163.05 93.998437) scale(0.2 -0.2)">
       <use xlink:href="#DejaVuSans-35"/>
       <use xlink:href="#DejaVuSans-30" x="63.623047"/>
      </g>
     </g>
    </g>
    <g id="text_11">
     <!-- CDR-H3 length -->
     <g style="fill: #262626" transform="translate(146.890625 437.375) rotate(-90) scale(0.2 -0.2)">
      <defs>
       <path id="DejaVuSans-43" d="M 4122 4306 
L 4122 3641 
Q 3803 3938 3442 4084 
Q 3081 4231 2675 4231 
Q 1875 4231 1450 3742 
Q 1025 3253 1025 2328 
Q 1025 1406 1450 917 
Q 1875 428 2675 428 
Q 3081 428 3442 575 
Q 3803 722 4122 1019 
L 4122 359 
Q 3791 134 3420 21 
Q 3050 -91 2638 -91 
Q 1578 -91 968 557 
Q 359 1206 359 2328 
Q 359 3453 968 4101 
Q 1578 4750 2638 4750 
Q 3056 4750 3426 4639 
Q 3797 4528 4122 4306 
z
" transform="scale(0.015625)"/>
       <path id="DejaVuSans-44" d="M 1259 4147 
L 1259 519 
L 2022 519 
Q 2988 519 3436 956 
Q 3884 1394 3884 2338 
Q 3884 3275 3436 3711 
Q 2988 4147 2022 4147 
L 1259 4147 
z
M 628 4666 
L 1925 4666 
Q 3281 4666 3915 4102 
Q 4550 3538 4550 2338 
Q 4550 1131 3912 565 
Q 3275 0 1925 0 
L 628 0 
L 628 4666 
z
" transform="scale(0.015625)"/>
       <path id="DejaVuSans-52" d="M 2841 2188 
Q 3044 2119 3236 1894 
Q 3428 1669 3622 1275 
L 4263 0 
L 3584 0 
L 2988 1197 
Q 2756 1666 2539 1819 
Q 2322 1972 1947 1972 
L 1259 1972 
L 1259 0 
L 628 0 
L 628 4666 
L 2053 4666 
Q 2853 4666 3247 4331 
Q 3641 3997 3641 3322 
Q 3641 2881 3436 2590 
Q 3231 2300 2841 2188 
z
M 1259 4147 
L 1259 2491 
L 2053 2491 
Q 2509 2491 2742 2702 
Q 2975 2913 2975 3322 
Q 2975 3731 2742 3939 
Q 2509 4147 2053 4147 
L 1259 4147 
z
" transform="scale(0.015625)"/>
       <path id="DejaVuSans-2d" d="M 313 2009 
L 1997 2009 
L 1997 1497 
L 313 1497 
L 313 2009 
z
" transform="scale(0.015625)"/>
       <path id="DejaVuSans-48" d="M 628 4666 
L 1259 4666 
L 1259 2753 
L 3553 2753 
L 3553 4666 
L 4184 4666 
L 4184 0 
L 3553 0 
L 3553 2222 
L 1259 2222 
L 1259 0 
L 628 0 
L 628 4666 
z
" transform="scale(0.015625)"/>
       <path id="DejaVuSans-20" transform="scale(0.015625)"/>
       <path id="DejaVuSans-6c" d="M 603 4863 
L 1178 4863 
L 1178 0 
L 603 0 
L 603 4863 
z
" transform="scale(0.015625)"/>
       <path id="DejaVuSans-65" d="M 3597 1894 
L 3597 1613 
L 953 1613 
Q 991 1019 1311 708 
Q 1631 397 2203 397 
Q 2534 397 2845 478 
Q 3156 559 3463 722 
L 3463 178 
Q 3153 47 2828 -22 
Q 2503 -91 2169 -91 
Q 1331 -91 842 396 
Q 353 884 353 1716 
Q 353 2575 817 3079 
Q 1281 3584 2069 3584 
Q 2775 3584 3186 3129 
Q 3597 2675 3597 1894 
z
M 3022 2063 
Q 3016 2534 2758 2815 
Q 2500 3097 2075 3097 
Q 1594 3097 1305 2825 
Q 1016 2553 972 2059 
L 3022 2063 
z
" transform="scale(0.015625)"/>
       <path id="DejaVuSans-6e" d="M 3513 2113 
L 3513 0 
L 2938 0 
L 2938 2094 
Q 2938 2591 2744 2837 
Q 2550 3084 2163 3084 
Q 1697 3084 1428 2787 
Q 1159 2491 1159 1978 
L 1159 0 
L 581 0 
L 581 3500 
L 1159 3500 
L 1159 2956 
Q 1366 3272 1645 3428 
Q 1925 3584 2291 3584 
Q 2894 3584 3203 3211 
Q 3513 2838 3513 2113 
z
" transform="scale(0.015625)"/>
       <path id="DejaVuSans-67" d="M 2906 1791 
Q 2906 2416 2648 2759 
Q 2391 3103 1925 3103 
Q 1463 3103 1205 2759 
Q 947 2416 947 1791 
Q 947 1169 1205 825 
Q 1463 481 1925 481 
Q 2391 481 2648 825 
Q 2906 1169 2906 1791 
z
M 3481 434 
Q 3481 -459 3084 -895 
Q 2688 -1331 1869 -1331 
Q 1566 -1331 1297 -1286 
Q 1028 -1241 775 -1147 
L 775 -588 
Q 1028 -725 1275 -790 
Q 1522 -856 1778 -856 
Q 2344 -856 2625 -561 
Q 2906 -266 2906 331 
L 2906 616 
Q 2728 306 2450 153 
Q 2172 0 1784 0 
Q 1141 0 747 490 
Q 353 981 353 1791 
Q 353 2603 747 3093 
Q 1141 3584 1784 3584 
Q 2172 3584 2450 3431 
Q 2728 3278 2906 2969 
L 2906 3500 
L 3481 3500 
L 3481 434 
z
" transform="scale(0.015625)"/>
       <path id="DejaVuSans-74" d="M 1172 4494 
L 1172 3500 
L 2356 3500 
L 2356 3053 
L 1172 3053 
L 1172 1153 
Q 1172 725 1289 603 
Q 1406 481 1766 481 
L 2356 481 
L 2356 0 
L 1766 0 
Q 1100 0 847 248 
Q 594 497 594 1153 
L 594 3053 
L 172 3053 
L 172 3500 
L 594 3500 
L 594 4494 
L 1172 4494 
z
" transform="scale(0.015625)"/>
       <path id="DejaVuSans-68" d="M 3513 2113 
L 3513 0 
L 2938 0 
L 2938 2094 
Q 2938 2591 2744 2837 
Q 2550 3084 2163 3084 
Q 1697 3084 1428 2787 
Q 1159 2491 1159 1978 
L 1159 0 
L 581 0 
L 581 4863 
L 1159 4863 
L 1159 2956 
Q 1366 3272 1645 3428 
Q 1925 3584 2291 3584 
Q 2894 3584 3203 3211 
Q 3513 2838 3513 2113 
z
" transform="scale(0.015625)"/>
      </defs>
      <use xlink:href="#DejaVuSans-43"/>
      <use xlink:href="#DejaVuSans-44" x="69.824219"/>
      <use xlink:href="#DejaVuSans-52" x="146.826172"/>
      <use xlink:href="#DejaVuSans-2d" x="212.308594"/>
      <use xlink:href="#DejaVuSans-48" x="248.392578"/>
      <use xlink:href="#DejaVuSans-33" x="323.587891"/>
      <use xlink:href="#DejaVuSans-20" x="387.210938"/>
      <use xlink:href="#DejaVuSans-6c" x="418.998047"/>
      <use xlink:href="#DejaVuSans-65" x="446.78125"/>
      <use xlink:href="#DejaVuSans-6e" x="508.304688"/>
      <use xlink:href="#DejaVuSans-67" x="571.683594"/>
      <use xlink:href="#DejaVuSans-74" x="635.160156"/>
      <use xlink:href="#DejaVuSans-68" x="674.369141"/>
     </g>
    </g>
   </g>
   <g id="PolyCollection_1">
    <defs>
     <path id="m66b910c1e9" d="M 523.687182 -177.76 
L 233.371642 -177.76 
L 231.428278 -179.128889 
L 229.581677 -180.497778 
L 227.834808 -181.866667 
L 226.190299 -183.235556 
L 224.650421 -184.604444 
L 223.217072 -185.973333 
L 221.891764 -187.342222 
L 220.675614 -188.711111 
L 219.569338 -190.08 
L 218.573238 -191.448889 
L 217.687204 -192.817778 
L 216.91071 -194.186667 
L 216.24281 -195.555556 
L 215.68215 -196.924444 
L 215.226962 -198.293333 
L 214.875078 -199.662222 
L 214.62394 -201.031111 
L 214.470605 -202.4 
L 214.411765 -203.768889 
L 214.443761 -205.137778 
L 214.562601 -206.506667 
L 214.763979 -207.875556 
L 215.043297 -209.244444 
L 215.395692 -210.613333 
L 215.816054 -211.982222 
L 216.29906 -213.351111 
L 216.839197 -214.72 
L 217.430792 -216.088889 
L 218.068044 -217.457778 
L 218.745052 -218.826667 
L 219.455849 -220.195556 
L 220.19443 -221.564444 
L 220.954787 -222.933333 
L 221.730942 -224.302222 
L 222.516975 -225.671111 
L 223.307059 -227.04 
L 224.095488 -228.408889 
L 224.876712 -229.777778 
L 225.64536 -231.146667 
L 226.396273 -232.515556 
L 227.124531 -233.884444 
L 227.825476 -235.253333 
L 228.494738 -236.622222 
L 229.128257 -237.991111 
L 229.722306 -239.36 
L 230.273504 -240.728889 
L 230.778841 -242.097778 
L 231.235685 -243.466667 
L 231.6418 -244.835556 
L 231.995355 -246.204444 
L 232.294929 -247.573333 
L 232.539521 -248.942222 
L 232.728553 -250.311111 
L 232.861866 -251.68 
L 232.939728 -253.048889 
L 232.962821 -254.417778 
L 232.932242 -255.786667 
L 232.84949 -257.155556 
L 232.716463 -258.524444 
L 232.535436 -259.893333 
L 232.309057 -261.262222 
L 232.040323 -262.631111 
L 231.732566 -264 
L 231.389433 -265.368889 
L 231.014864 -266.737778 
L 230.61307 -268.106667 
L 230.188511 -269.475556 
L 229.745867 -270.844444 
L 229.290013 -272.213333 
L 228.825997 -273.582222 
L 228.359005 -274.951111 
L 227.894337 -276.32 
L 227.437379 -277.688889 
L 226.993573 -279.057778 
L 226.568387 -280.426667 
L 226.167286 -281.795556 
L 225.795708 -283.164444 
L 225.45903 -284.533333 
L 225.162542 -285.902222 
L 224.911422 -287.271111 
L 224.710709 -288.64 
L 224.565274 -290.008889 
L 224.479802 -291.377778 
L 224.458763 -292.746667 
L 224.506396 -294.115556 
L 224.626682 -295.484444 
L 224.823331 -296.853333 
L 225.099761 -298.222222 
L 225.459084 -299.591111 
L 225.904093 -300.96 
L 226.437247 -302.328889 
L 227.060662 -303.697778 
L 227.776105 -305.066667 
L 228.584983 -306.435556 
L 229.488341 -307.804444 
L 230.486859 -309.173333 
L 231.580851 -310.542222 
L 232.770265 -311.911111 
L 234.054689 -313.28 
L 523.004135 -313.28 
L 523.004135 -313.28 
L 524.288558 -311.911111 
L 525.477973 -310.542222 
L 526.571965 -309.173333 
L 527.570483 -307.804444 
L 528.473841 -306.435556 
L 529.282718 -305.066667 
L 529.998161 -303.697778 
L 530.621577 -302.328889 
L 531.154731 -300.96 
L 531.599739 -299.591111 
L 531.959063 -298.222222 
L 532.235493 -296.853333 
L 532.432142 -295.484444 
L 532.552428 -294.115556 
L 532.60006 -292.746667 
L 532.579022 -291.377778 
L 532.49355 -290.008889 
L 532.348115 -288.64 
L 532.147401 -287.271111 
L 531.896282 -285.902222 
L 531.599794 -284.533333 
L 531.263115 -283.164444 
L 530.891537 -281.795556 
L 530.490437 -280.426667 
L 530.06525 -279.057778 
L 529.621444 -277.688889 
L 529.164487 -276.32 
L 528.699819 -274.951111 
L 528.232827 -273.582222 
L 527.76881 -272.213333 
L 527.312957 -270.844444 
L 526.870312 -269.475556 
L 526.445753 -268.106667 
L 526.04396 -266.737778 
L 525.669391 -265.368889 
L 525.326258 -264 
L 525.018501 -262.631111 
L 524.749766 -261.262222 
L 524.523387 -259.893333 
L 524.342361 -258.524444 
L 524.209333 -257.155556 
L 524.126582 -255.786667 
L 524.096002 -254.417778 
L 524.119095 -253.048889 
L 524.196957 -251.68 
L 524.330271 -250.311111 
L 524.519302 -248.942222 
L 524.763895 -247.573333 
L 525.063469 -246.204444 
L 525.417023 -244.835556 
L 525.823139 -243.466667 
L 526.279983 -242.097778 
L 526.785319 -240.728889 
L 527.336518 -239.36 
L 527.930566 -237.991111 
L 528.564085 -236.622222 
L 529.233347 -235.253333 
L 529.934292 -233.884444 
L 530.66255 -232.515556 
L 531.413464 -231.146667 
L 532.182112 -229.777778 
L 532.963335 -228.408889 
L 533.751765 -227.04 
L 534.541849 -225.671111 
L 535.327882 -224.302222 
L 536.104037 -222.933333 
L 536.864394 -221.564444 
L 537.602975 -220.195556 
L 538.313771 -218.826667 
L 538.990779 -217.457778 
L 539.628032 -216.088889 
L 540.219627 -214.72 
L 540.759764 -213.351111 
L 541.242769 -211.982222 
L 541.663132 -210.613333 
L 542.015526 -209.244444 
L 542.294845 -207.875556 
L 542.496223 -206.506667 
L 542.615063 -205.137778 
L 542.647059 -203.768889 
L 542.588219 -202.4 
L 542.434884 -201.031111 
L 542.183745 -199.662222 
L 541.831862 -198.293333 
L 541.376674 -196.924444 
L 540.816013 -195.555556 
L 540.148114 -194.186667 
L 539.371619 -192.817778 
L 538.485585 -191.448889 
L 537.489486 -190.08 
L 536.383209 -188.711111 
L 535.16706 -187.342222 
L 533.841752 -185.973333 
L 532.408402 -184.604444 
L 530.868524 -183.235556 
L 529.224016 -181.866667 
L 527.477147 -180.497778 
L 525.630545 -179.128889 
L 523.687182 -177.76 
z
" style="stroke: #ffffff; stroke-opacity: 0.3"/>
    </defs>
    <g clip-path="url(#pbff8d4275f)">
     <use xlink:href="#m66b910c1e9" x="0" y="720" style="fill: #e41a1c; fill-opacity: 0.3; stroke: #ffffff; stroke-opacity: 0.3"/>
    </g>
   </g>
   <g id="LineCollection_1">
    <path d="M 296.470588 406.72 
L 460.588235 406.72 
" clip-path="url(#pbff8d4275f)" style="fill: none; stroke: #4c72b0; stroke-width: 1.5"/>
   </g>
   <g id="LineCollection_2">
    <path d="M 296.470588 542.24 
L 460.588235 542.24 
" clip-path="url(#pbff8d4275f)" style="fill: none; stroke: #4c72b0; stroke-width: 1.5"/>
   </g>
   <g id="LineCollection_3">
    <path d="M 378.529412 542.24 
L 378.529412 406.72 
" clip-path="url(#pbff8d4275f)" style="fill: none; stroke: #4c72b0; stroke-width: 1.5"/>
   </g>
   <g id="patch_3">
    <path d="M 198 640.8 
L 198 86.4 
" style="fill: none; stroke: #cccccc; stroke-width: 1.25; stroke-linejoin: miter; stroke-linecap: square"/>
   </g>
   <g id="patch_4">
    <path d="M 559.058824 640.8 
L 559.058824 86.4 
" style="fill: none; stroke: #cccccc; stroke-width: 1.25; stroke-linejoin: miter; stroke-linecap: square"/>
   </g>
   <g id="patch_5">
    <path d="M 198 640.8 
L 559.058824 640.8 
" style="fill: none; stroke: #cccccc; stroke-width: 1.25; stroke-linejoin: miter; stroke-linecap: square"/>
   </g>
   <g id="patch_6">
    <path d="M 198 86.4 
L 559.058824 86.4 
" style="fill: none; stroke: #cccccc; stroke-width: 1.25; stroke-linejoin: miter; stroke-linecap: square"/>
   </g>
   <g id="text_12">
    <g id="patch_7">
     <path d="M 239.133529 125.8625 
L 322.953529 125.8625 
L 322.953529 102.3775 
L 239.133529 102.3775 
z
" style="fill: #ffffff; stroke: #000000; stroke-linejoin: miter"/>
    </g>
    <!-- # seqs: 6 -->
    <g style="fill: #262626" transform="translate(243.133529 118.535) scale(0.16 -0.16)">
     <defs>
      <path id="DejaVuSans-23" d="M 3272 2816 
L 2363 2816 
L 2100 1772 
L 3016 1772 
L 3272 2816 
z
M 2803 4594 
L 2478 3297 
L 3391 3297 
L 3719 4594 
L 4219 4594 
L 3897 3297 
L 4872 3297 
L 4872 2816 
L 3775 2816 
L 3519 1772 
L 4513 1772 
L 4513 1294 
L 3397 1294 
L 3072 0 
L 2572 0 
L 2894 1294 
L 1978 1294 
L 1656 0 
L 1153 0 
L 1478 1294 
L 494 1294 
L 494 1772 
L 1594 1772 
L 1856 2816 
L 850 2816 
L 850 3297 
L 1978 3297 
L 2297 4594 
L 2803 4594 
z
" transform="scale(0.015625)"/>
      <path id="DejaVuSans-73" d="M 2834 3397 
L 2834 2853 
Q 2591 2978 2328 3040 
Q 2066 3103 1784 3103 
Q 1356 3103 1142 2972 
Q 928 2841 928 2578 
Q 928 2378 1081 2264 
Q 1234 2150 1697 2047 
L 1894 2003 
Q 2506 1872 2764 1633 
Q 3022 1394 3022 966 
Q 3022 478 2636 193 
Q 2250 -91 1575 -91 
Q 1294 -91 989 -36 
Q 684 19 347 128 
L 347 722 
Q 666 556 975 473 
Q 1284 391 1588 391 
Q 1994 391 2212 530 
Q 2431 669 2431 922 
Q 2431 1156 2273 1281 
Q 2116 1406 1581 1522 
L 1381 1569 
Q 847 1681 609 1914 
Q 372 2147 372 2553 
Q 372 3047 722 3315 
Q 1072 3584 1716 3584 
Q 2034 3584 2315 3537 
Q 2597 3491 2834 3397 
z
" transform="scale(0.015625)"/>
      <path id="DejaVuSans-71" d="M 947 1747 
Q 947 1113 1208 752 
Q 1469 391 1925 391 
Q 2381 391 2643 752 
Q 2906 1113 2906 1747 
Q 2906 2381 2643 2742 
Q 2381 3103 1925 3103 
Q 1469 3103 1208 2742 
Q 947 2381 947 1747 
z
M 2906 525 
Q 2725 213 2448 61 
Q 2172 -91 1784 -91 
Q 1150 -91 751 415 
Q 353 922 353 1747 
Q 353 2572 751 3078 
Q 1150 3584 1784 3584 
Q 2172 3584 2448 3432 
Q 2725 3281 2906 2969 
L 2906 3500 
L 3481 3500 
L 3481 -1331 
L 2906 -1331 
L 2906 525 
z
" transform="scale(0.015625)"/>
      <path id="DejaVuSans-3a" d="M 750 794 
L 1409 794 
L 1409 0 
L 750 0 
L 750 794 
z
M 750 3309 
L 1409 3309 
L 1409 2516 
L 750 2516 
L 750 3309 
z
" transform="scale(0.015625)"/>
      <path id="DejaVuSans-36" d="M 2113 2584 
Q 1688 2584 1439 2293 
Q 1191 2003 1191 1497 
Q 1191 994 1439 701 
Q 1688 409 2113 409 
Q 2538 409 2786 701 
Q 3034 994 3034 1497 
Q 3034 2003 2786 2293 
Q 2538 2584 2113 2584 
z
M 3366 4563 
L 3366 3988 
Q 3128 4100 2886 4159 
Q 2644 4219 2406 4219 
Q 1781 4219 1451 3797 
Q 1122 3375 1075 2522 
Q 1259 2794 1537 2939 
Q 1816 3084 2150 3084 
Q 2853 3084 3261 2657 
Q 3669 2231 3669 1497 
Q 3669 778 3244 343 
Q 2819 -91 2113 -91 
Q 1303 -91 875 529 
Q 447 1150 447 2328 
Q 447 3434 972 4092 
Q 1497 4750 2381 4750 
Q 2619 4750 2861 4703 
Q 3103 4656 3366 4563 
z
" transform="scale(0.015625)"/>
     </defs>
     <use xlink:href="#DejaVuSans-23"/>
     <use xlink:href="#DejaVuSans-20" x="83.789062"/>
     <use xlink:href="#DejaVuSans-73" x="115.576172"/>
     <use xlink:href="#DejaVuSans-65" x="167.675781"/>
     <use xlink:href="#DejaVuSans-71" x="229.199219"/>
     <use xlink:href="#DejaVuSans-73" x="292.675781"/>
     <use xlink:href="#DejaVuSans-3a" x="344.775391"/>
     <use xlink:href="#DejaVuSans-20" x="378.466797"/>
     <use xlink:href="#DejaVuSans-36" x="410.253906"/>
    </g>
   </g>
   <g id="text_13">
    <g id="patch_8">
     <path d="M 216.949779 153.5825 
L 345.137279 153.5825 
L 345.137279 130.0975 
L 216.949779 130.0975 
z
" style="fill: #ffffff; stroke: #000000; stroke-linejoin: miter"/>
    </g>
    <!-- AVG length: 19 -->
    <g style="fill: #262626" transform="translate(220.949779 146.255) scale(0.16 -0.16)">
     <defs>
      <path id="DejaVuSans-41" d="M 2188 4044 
L 1331 1722 
L 3047 1722 
L 2188 4044 
z
M 1831 4666 
L 2547 4666 
L 4325 0 
L 3669 0 
L 3244 1197 
L 1141 1197 
L 716 0 
L 50 0 
L 1831 4666 
z
" transform="scale(0.015625)"/>
      <path id="DejaVuSans-56" d="M 1831 0 
L 50 4666 
L 709 4666 
L 2188 738 
L 3669 4666 
L 4325 4666 
L 2547 0 
L 1831 0 
z
" transform="scale(0.015625)"/>
      <path id="DejaVuSans-47" d="M 3809 666 
L 3809 1919 
L 2778 1919 
L 2778 2438 
L 4434 2438 
L 4434 434 
Q 4069 175 3628 42 
Q 3188 -91 2688 -91 
Q 1594 -91 976 548 
Q 359 1188 359 2328 
Q 359 3472 976 4111 
Q 1594 4750 2688 4750 
Q 3144 4750 3555 4637 
Q 3966 4525 4313 4306 
L 4313 3634 
Q 3963 3931 3569 4081 
Q 3175 4231 2741 4231 
Q 1884 4231 1454 3753 
Q 1025 3275 1025 2328 
Q 1025 1384 1454 906 
Q 1884 428 2741 428 
Q 3075 428 3337 486 
Q 3600 544 3809 666 
z
" transform="scale(0.015625)"/>
      <path id="DejaVuSans-39" d="M 703 97 
L 703 672 
Q 941 559 1184 500 
Q 1428 441 1663 441 
Q 2288 441 2617 861 
Q 2947 1281 2994 2138 
Q 2813 1869 2534 1725 
Q 2256 1581 1919 1581 
Q 1219 1581 811 2004 
Q 403 2428 403 3163 
Q 403 3881 828 4315 
Q 1253 4750 1959 4750 
Q 2769 4750 3195 4129 
Q 3622 3509 3622 2328 
Q 3622 1225 3098 567 
Q 2575 -91 1691 -91 
Q 1453 -91 1209 -44 
Q 966 3 703 97 
z
M 1959 2075 
Q 2384 2075 2632 2365 
Q 2881 2656 2881 3163 
Q 2881 3666 2632 3958 
Q 2384 4250 1959 4250 
Q 1534 4250 1286 3958 
Q 1038 3666 1038 3163 
Q 1038 2656 1286 2365 
Q 1534 2075 1959 2075 
z
" transform="scale(0.015625)"/>
     </defs>
     <use xlink:href="#DejaVuSans-41"/>
     <use xlink:href="#DejaVuSans-56" x="62.033203"/>
     <use xlink:href="#DejaVuSans-47" x="130.441406"/>
     <use xlink:href="#DejaVuSans-20" x="207.931641"/>
     <use xlink:href="#DejaVuSans-6c" x="239.71875"/>
     <use xlink:href="#DejaVuSans-65" x="267.501953"/>
     <use xlink:href="#DejaVuSans-6e" x="329.025391"/>
     <use xlink:href="#DejaVuSans-67" x="392.404297"/>
     <use xlink:href="#DejaVuSans-74" x="455.880859"/>
     <use xlink:href="#DejaVuSans-68" x="495.089844"/>
     <use xlink:href="#DejaVuSans-3a" x="558.46875"/>
     <use xlink:href="#DejaVuSans-20" x="592.160156"/>
     <use xlink:href="#DejaVuSans-31" x="623.947266"/>
     <use xlink:href="#DejaVuSans-39" x="687.570312"/>
    </g>
   </g>
   <g id="text_14">
    <!-- NON -->
    <g style="fill: #262626" transform="translate(355.695037 74.856) scale(0.2 -0.2)">
     <defs>
      <path id="DejaVuSans-4e" d="M 628 4666 
L 1478 4666 
L 3547 763 
L 3547 4666 
L 4159 4666 
L 4159 0 
L 3309 0 
L 1241 3903 
L 1241 0 
L 628 0 
L 628 4666 
z
" transform="scale(0.015625)"/>
      <path id="DejaVuSans-4f" d="M 2522 4238 
Q 1834 4238 1429 3725 
Q 1025 3213 1025 2328 
Q 1025 1447 1429 934 
Q 1834 422 2522 422 
Q 3209 422 3611 934 
Q 4013 1447 4013 2328 
Q 4013 3213 3611 3725 
Q 3209 4238 2522 4238 
z
M 2522 4750 
Q 3503 4750 4090 4092 
Q 4678 3434 4678 2328 
Q 4678 1225 4090 567 
Q 3503 -91 2522 -91 
Q 1538 -91 948 565 
Q 359 1222 359 2328 
Q 359 3434 948 4092 
Q 1538 4750 2522 4750 
z
" transform="scale(0.015625)"/>
     </defs>
     <use xlink:href="#DejaVuSans-4e"/>
     <use xlink:href="#DejaVuSans-4f" x="74.804688"/>
     <use xlink:href="#DejaVuSans-4e" x="153.515625"/>
    </g>
   </g>
  </g>
  <g id="axes_2">
   <g id="patch_9">
    <path d="M 631.270588 640.8 
L 992.329412 640.8 
L 992.329412 86.4 
L 631.270588 86.4 
z
" style="fill: #ffffff"/>
   </g>
   <g id="matplotlib.axis_3">
    <g id="text_15">
     <!-- CDR-H3 sequences -->
     <g style="fill: #262626" transform="translate(716.5 667.996875) scale(0.2 -0.2)">
      <defs>
       <path id="DejaVuSans-75" d="M 544 1381 
L 544 3500 
L 1119 3500 
L 1119 1403 
Q 1119 906 1312 657 
Q 1506 409 1894 409 
Q 2359 409 2629 706 
Q 2900 1003 2900 1516 
L 2900 3500 
L 3475 3500 
L 3475 0 
L 2900 0 
L 2900 538 
Q 2691 219 2414 64 
Q 2138 -91 1772 -91 
Q 1169 -91 856 284 
Q 544 659 544 1381 
z
M 1991 3584 
L 1991 3584 
z
" transform="scale(0.015625)"/>
       <path id="DejaVuSans-63" d="M 3122 3366 
L 3122 2828 
Q 2878 2963 2633 3030 
Q 2388 3097 2138 3097 
Q 1578 3097 1268 2742 
Q 959 2388 959 1747 
Q 959 1106 1268 751 
Q 1578 397 2138 397 
Q 2388 397 2633 464 
Q 2878 531 3122 666 
L 3122 134 
Q 2881 22 2623 -34 
Q 2366 -91 2075 -91 
Q 1284 -91 818 406 
Q 353 903 353 1747 
Q 353 2603 823 3093 
Q 1294 3584 2113 3584 
Q 2378 3584 2631 3529 
Q 2884 3475 3122 3366 
z
" transform="scale(0.015625)"/>
      </defs>
      <use xlink:href="#DejaVuSans-43"/>
      <use xlink:href="#DejaVuSans-44" x="69.824219"/>
      <use xlink:href="#DejaVuSans-52" x="146.826172"/>
      <use xlink:href="#DejaVuSans-2d" x="212.308594"/>
      <use xlink:href="#DejaVuSans-48" x="248.392578"/>
      <use xlink:href="#DejaVuSans-33" x="323.587891"/>
      <use xlink:href="#DejaVuSans-20" x="387.210938"/>
      <use xlink:href="#DejaVuSans-73" x="418.998047"/>
      <use xlink:href="#DejaVuSans-65" x="471.097656"/>
      <use xlink:href="#DejaVuSans-71" x="532.621094"/>
      <use xlink:href="#DejaVuSans-75" x="596.097656"/>
      <use xlink:href="#DejaVuSans-65" x="659.476562"/>
      <use xlink:href="#DejaVuSans-6e" x="721"/>
      <use xlink:href="#DejaVuSans-63" x="784.378906"/>
      <use xlink:href="#DejaVuSans-65" x="839.359375"/>
      <use xlink:href="#DejaVuSans-73" x="900.882812"/>
     </g>
    </g>
   </g>
   <g id="matplotlib.axis_4">
    <g id="ytick_11">
     <g id="line2d_11">
      <path d="M 631.270588 640.8 
L 992.329412 640.8 
" clip-path="url(#pe8d64ae553)" style="fill: none; stroke: #cccccc; stroke-linecap: round"/>
     </g>
     <g id="text_16">
      <!-- 5 -->
      <g style="fill: #262626" transform="translate(609.045588 648.398438) scale(0.2 -0.2)">
       <use xlink:href="#DejaVuSans-35"/>
      </g>
     </g>
    </g>
    <g id="ytick_12">
     <g id="line2d_12">
      <path d="M 631.270588 579.2 
L 992.329412 579.2 
" clip-path="url(#pe8d64ae553)" style="fill: none; stroke: #cccccc; stroke-linecap: round"/>
     </g>
     <g id="text_17">
      <!-- 10 -->
      <g style="fill: #262626" transform="translate(596.320588 586.798437) scale(0.2 -0.2)">
       <use xlink:href="#DejaVuSans-31"/>
       <use xlink:href="#DejaVuSans-30" x="63.623047"/>
      </g>
     </g>
    </g>
    <g id="ytick_13">
     <g id="line2d_13">
      <path d="M 631.270588 517.6 
L 992.329412 517.6 
" clip-path="url(#pe8d64ae553)" style="fill: none; stroke: #cccccc; stroke-linecap: round"/>
     </g>
     <g id="text_18">
      <!-- 15 -->
      <g style="fill: #262626" transform="translate(596.320588 525.198437) scale(0.2 -0.2)">
       <use xlink:href="#DejaVuSans-31"/>
       <use xlink:href="#DejaVuSans-35" x="63.623047"/>
      </g>
     </g>
    </g>
    <g id="ytick_14">
     <g id="line2d_14">
      <path d="M 631.270588 456 
L 992.329412 456 
" clip-path="url(#pe8d64ae553)" style="fill: none; stroke: #cccccc; stroke-linecap: round"/>
     </g>
     <g id="text_19">
      <!-- 20 -->
      <g style="fill: #262626" transform="translate(596.320588 463.598437) scale(0.2 -0.2)">
       <use xlink:href="#DejaVuSans-32"/>
       <use xlink:href="#DejaVuSans-30" x="63.623047"/>
      </g>
     </g>
    </g>
    <g id="ytick_15">
     <g id="line2d_15">
      <path d="M 631.270588 394.4 
L 992.329412 394.4 
" clip-path="url(#pe8d64ae553)" style="fill: none; stroke: #cccccc; stroke-linecap: round"/>
     </g>
     <g id="text_20">
      <!-- 25 -->
      <g style="fill: #262626" transform="translate(596.320588 401.998437) scale(0.2 -0.2)">
       <use xlink:href="#DejaVuSans-32"/>
       <use xlink:href="#DejaVuSans-35" x="63.623047"/>
      </g>
     </g>
    </g>
    <g id="ytick_16">
     <g id="line2d_16">
      <path d="M 631.270588 332.8 
L 992.329412 332.8 
" clip-path="url(#pe8d64ae553)" style="fill: none; stroke: #cccccc; stroke-linecap: round"/>
     </g>
     <g id="text_21">
      <!-- 30 -->
      <g style="fill: #262626" transform="translate(596.320588 340.398437) scale(0.2 -0.2)">
       <use xlink:href="#DejaVuSans-33"/>
       <use xlink:href="#DejaVuSans-30" x="63.623047"/>
      </g>
     </g>
    </g>
    <g id="ytick_17">
     <g id="line2d_17">
      <path d="M 631.270588 271.2 
L 992.329412 271.2 
" clip-path="url(#pe8d64ae553)" style="fill: none; stroke: #cccccc; stroke-linecap: round"/>
     </g>
     <g id="text_22">
      <!-- 35 -->
      <g style="fill: #262626" transform="translate(596.320588 278.798437) scale(0.2 -0.2)">
       <use xlink:href="#DejaVuSans-33"/>
       <use xlink:href="#DejaVuSans-35" x="63.623047"/>
      </g>
     </g>
    </g>
    <g id="ytick_18">
     <g id="line2d_18">
      <path d="M 631.270588 209.6 
L 992.329412 209.6 
" clip-path="url(#pe8d64ae553)" style="fill: none; stroke: #cccccc; stroke-linecap: round"/>
     </g>
     <g id="text_23">
      <!-- 40 -->
      <g style="fill: #262626" transform="translate(596.320588 217.198437) scale(0.2 -0.2)">
       <use xlink:href="#DejaVuSans-34"/>
       <use xlink:href="#DejaVuSans-30" x="63.623047"/>
      </g>
     </g>
    </g>
    <g id="ytick_19">
     <g id="line2d_19">
      <path d="M 631.270588 148 
L 992.329412 148 
" clip-path="url(#pe8d64ae553)" style="fill: none; stroke: #cccccc; stroke-linecap: round"/>
     </g>
     <g id="text_24">
      <!-- 45 -->
      <g style="fill: #262626" transform="translate(596.320588 155.598437) scale(0.2 -0.2)">
       <use xlink:href="#DejaVuSans-34"/>
       <use xlink:href="#DejaVuSans-35" x="63.623047"/>
      </g>
     </g>
    </g>
    <g id="ytick_20">
     <g id="line2d_20">
      <path d="M 631.270588 86.4 
L 992.329412 86.4 
" clip-path="url(#pe8d64ae553)" style="fill: none; stroke: #cccccc; stroke-linecap: round"/>
     </g>
     <g id="text_25">
      <!-- 50 -->
      <g style="fill: #262626" transform="translate(596.320588 93.998437) scale(0.2 -0.2)">
       <use xlink:href="#DejaVuSans-35"/>
       <use xlink:href="#DejaVuSans-30" x="63.623047"/>
      </g>
     </g>
    </g>
   </g>
   <g id="PolyCollection_2">
    <defs>
     <path id="m635391d42d" d="M 842.131872 -103.84 
L 781.468128 -103.84 
L 778.31927 -107.822222 
L 774.952475 -111.804444 
L 771.363652 -115.786667 
L 767.549869 -119.768889 
L 763.509593 -123.751111 
L 759.24298 -127.733333 
L 754.752216 -131.715556 
L 750.041897 -135.697778 
L 745.119449 -139.68 
L 739.995578 -143.662222 
L 734.684717 -147.644444 
L 729.205462 -151.626667 
L 723.580966 -155.608889 
L 717.83925 -159.591111 
L 712.013413 -163.573333 
L 706.14169 -167.555556 
L 700.267354 -171.537778 
L 694.438407 -175.52 
L 688.707065 -179.502222 
L 683.129023 -183.484444 
L 677.762499 -187.466667 
L 672.667081 -191.448889 
L 667.902397 -195.431111 
L 663.526661 -199.413333 
L 659.595135 -203.395556 
L 656.158573 -207.377778 
L 653.261706 -211.36 
L 650.941851 -215.342222 
L 649.227687 -219.324444 
L 648.138272 -223.306667 
L 647.682353 -227.288889 
L 647.857996 -231.271111 
L 648.652569 -235.253333 
L 650.043087 -239.235556 
L 651.996897 -243.217778 
L 654.472691 -247.2 
L 657.421803 -251.182222 
L 660.789725 -255.164444 
L 664.517792 -259.146667 
L 668.544958 -263.128889 
L 672.809584 -267.111111 
L 677.251174 -271.093333 
L 681.811976 -275.075556 
L 686.4384 -279.057778 
L 691.08219 -283.04 
L 695.701314 -287.022222 
L 700.260552 -291.004444 
L 704.731768 -294.986667 
L 709.093868 -298.968889 
L 713.332471 -302.951111 
L 717.439325 -306.933333 
L 721.411504 -310.915556 
L 725.250441 -314.897778 
L 728.960854 -318.88 
L 732.549618 -322.862222 
L 736.024649 -326.844444 
L 739.393836 -330.826667 
L 742.664087 -334.808889 
L 745.840516 -338.791111 
L 748.925796 -342.773333 
L 751.919718 -346.755556 
L 754.818936 -350.737778 
L 757.61692 -354.72 
L 760.304103 -358.702222 
L 762.868194 -362.684444 
L 765.294645 -366.666667 
L 767.567248 -370.648889 
L 769.668816 -374.631111 
L 771.581933 -378.613333 
L 773.28974 -382.595556 
L 774.776715 -386.577778 
L 776.029436 -390.56 
L 777.037295 -394.542222 
L 777.793133 -398.524444 
L 778.293794 -402.506667 
L 778.540566 -406.488889 
L 778.539501 -410.471111 
L 778.301598 -414.453333 
L 777.842853 -418.435556 
L 777.184155 -422.417778 
L 776.351026 -426.4 
L 775.373223 -430.382222 
L 774.284184 -434.364444 
L 773.120346 -438.346667 
L 771.920339 -442.328889 
L 770.72408 -446.311111 
L 769.571791 -450.293333 
L 768.502973 -454.275556 
L 767.555366 -458.257778 
L 766.763934 -462.24 
L 766.159912 -466.222222 
L 765.76995 -470.204444 
L 765.61539 -474.186667 
L 765.71171 -478.168889 
L 766.068145 -482.151111 
L 766.687521 -486.133333 
L 767.566294 -490.115556 
L 768.694793 -494.097778 
L 770.057666 -498.08 
L 853.542334 -498.08 
L 853.542334 -498.08 
L 854.905207 -494.097778 
L 856.033706 -490.115556 
L 856.912479 -486.133333 
L 857.531855 -482.151111 
L 857.88829 -478.168889 
L 857.98461 -474.186667 
L 857.83005 -470.204444 
L 857.440088 -466.222222 
L 856.836066 -462.24 
L 856.044634 -458.257778 
L 855.097027 -454.275556 
L 854.028209 -450.293333 
L 852.87592 -446.311111 
L 851.679661 -442.328889 
L 850.479654 -438.346667 
L 849.315816 -434.364444 
L 848.226777 -430.382222 
L 847.248974 -426.4 
L 846.415845 -422.417778 
L 845.757147 -418.435556 
L 845.298402 -414.453333 
L 845.060499 -410.471111 
L 845.059434 -406.488889 
L 845.306206 -402.506667 
L 845.806867 -398.524444 
L 846.562705 -394.542222 
L 847.570564 -390.56 
L 848.823285 -386.577778 
L 850.31026 -382.595556 
L 852.018067 -378.613333 
L 853.931184 -374.631111 
L 856.032752 -370.648889 
L 858.305355 -366.666667 
L 860.731806 -362.684444 
L 863.295897 -358.702222 
L 865.98308 -354.72 
L 868.781064 -350.737778 
L 871.680282 -346.755556 
L 874.674204 -342.773333 
L 877.759484 -338.791111 
L 880.935913 -334.808889 
L 884.206164 -330.826667 
L 887.575351 -326.844444 
L 891.050382 -322.862222 
L 894.639146 -318.88 
L 898.349559 -314.897778 
L 902.188496 -310.915556 
L 906.160675 -306.933333 
L 910.267529 -302.951111 
L 914.506132 -298.968889 
L 918.868232 -294.986667 
L 923.339448 -291.004444 
L 927.898686 -287.022222 
L 932.51781 -283.04 
L 937.1616 -279.057778 
L 941.788024 -275.075556 
L 946.348826 -271.093333 
L 950.790416 -267.111111 
L 955.055042 -263.128889 
L 959.082208 -259.146667 
L 962.810275 -255.164444 
L 966.178197 -251.182222 
L 969.127309 -247.2 
L 971.603103 -243.217778 
L 973.556913 -239.235556 
L 974.947431 -235.253333 
L 975.742004 -231.271111 
L 975.917647 -227.288889 
L 975.461728 -223.306667 
L 974.372313 -219.324444 
L 972.658149 -215.342222 
L 970.338294 -211.36 
L 967.441427 -207.377778 
L 964.004865 -203.395556 
L 960.073339 -199.413333 
L 955.697603 -195.431111 
L 950.932919 -191.448889 
L 945.837501 -187.466667 
L 940.470977 -183.484444 
L 934.892935 -179.502222 
L 929.161593 -175.52 
L 923.332646 -171.537778 
L 917.45831 -167.555556 
L 911.586587 -163.573333 
L 905.76075 -159.591111 
L 900.019034 -155.608889 
L 894.394538 -151.626667 
L 888.915283 -147.644444 
L 883.604422 -143.662222 
L 878.480551 -139.68 
L 873.558103 -135.697778 
L 868.847784 -131.715556 
L 864.35702 -127.733333 
L 860.090407 -123.751111 
L 856.050131 -119.768889 
L 852.236348 -115.786667 
L 848.647525 -111.804444 
L 845.28073 -107.822222 
L 842.131872 -103.84 
z
" style="stroke: #ffffff; stroke-opacity: 0.3"/>
    </defs>
    <g clip-path="url(#pe8d64ae553)">
     <use xlink:href="#m635391d42d" x="0" y="720" style="fill: #377eb8; fill-opacity: 0.3; stroke: #ffffff; stroke-opacity: 0.3"/>
    </g>
   </g>
   <g id="LineCollection_4">
    <path d="M 729.741176 221.92 
L 893.858824 221.92 
" clip-path="url(#pe8d64ae553)" style="fill: none; stroke: #4c72b0; stroke-width: 1.5"/>
   </g>
   <g id="LineCollection_5">
    <path d="M 729.741176 616.16 
L 893.858824 616.16 
" clip-path="url(#pe8d64ae553)" style="fill: none; stroke: #4c72b0; stroke-width: 1.5"/>
   </g>
   <g id="LineCollection_6">
    <path d="M 811.8 616.16 
L 811.8 221.92 
" clip-path="url(#pe8d64ae553)" style="fill: none; stroke: #4c72b0; stroke-width: 1.5"/>
   </g>
   <g id="patch_10">
    <path d="M 631.270588 640.8 
L 631.270588 86.4 
" style="fill: none; stroke: #cccccc; stroke-width: 1.25; stroke-linejoin: miter; stroke-linecap: square"/>
   </g>
   <g id="patch_11">
    <path d="M 992.329412 640.8 
L 992.329412 86.4 
" style="fill: none; stroke: #cccccc; stroke-width: 1.25; stroke-linejoin: miter; stroke-linecap: square"/>
   </g>
   <g id="patch_12">
    <path d="M 631.270588 640.8 
L 992.329412 640.8 
" style="fill: none; stroke: #cccccc; stroke-width: 1.25; stroke-linejoin: miter; stroke-linecap: square"/>
   </g>
   <g id="patch_13">
    <path d="M 631.270588 86.4 
L 992.329412 86.4 
" style="fill: none; stroke: #cccccc; stroke-width: 1.25; stroke-linejoin: miter; stroke-linecap: square"/>
   </g>
   <g id="text_26">
    <g id="patch_14">
     <path d="M 667.314118 125.8625 
L 761.314118 125.8625 
L 761.314118 102.3775 
L 667.314118 102.3775 
z
" style="fill: #ffffff; stroke: #000000; stroke-linejoin: miter"/>
    </g>
    <!-- # seqs: 56 -->
    <g style="fill: #262626" transform="translate(671.314118 118.535) scale(0.16 -0.16)">
     <use xlink:href="#DejaVuSans-23"/>
     <use xlink:href="#DejaVuSans-20" x="83.789062"/>
     <use xlink:href="#DejaVuSans-73" x="115.576172"/>
     <use xlink:href="#DejaVuSans-65" x="167.675781"/>
     <use xlink:href="#DejaVuSans-71" x="229.199219"/>
     <use xlink:href="#DejaVuSans-73" x="292.675781"/>
     <use xlink:href="#DejaVuSans-3a" x="344.775391"/>
     <use xlink:href="#DejaVuSans-20" x="378.466797"/>
     <use xlink:href="#DejaVuSans-35" x="410.253906"/>
     <use xlink:href="#DejaVuSans-36" x="473.876953"/>
    </g>
   </g>
   <g id="text_27">
    <g id="patch_15">
     <path d="M 650.220368 153.5825 
L 778.407868 153.5825 
L 778.407868 130.0975 
L 650.220368 130.0975 
z
" style="fill: #ffffff; stroke: #000000; stroke-linejoin: miter"/>
    </g>
    <!-- AVG length: 21 -->
    <g style="fill: #262626" transform="translate(654.220368 146.255) scale(0.16 -0.16)">
     <use xlink:href="#DejaVuSans-41"/>
     <use xlink:href="#DejaVuSans-56" x="62.033203"/>
     <use xlink:href="#DejaVuSans-47" x="130.441406"/>
     <use xlink:href="#DejaVuSans-20" x="207.931641"/>
     <use xlink:href="#DejaVuSans-6c" x="239.71875"/>
     <use xlink:href="#DejaVuSans-65" x="267.501953"/>
     <use xlink:href="#DejaVuSans-6e" x="329.025391"/>
     <use xlink:href="#DejaVuSans-67" x="392.404297"/>
     <use xlink:href="#DejaVuSans-74" x="455.880859"/>
     <use xlink:href="#DejaVuSans-68" x="495.089844"/>
     <use xlink:href="#DejaVuSans-3a" x="558.46875"/>
     <use xlink:href="#DejaVuSans-20" x="592.160156"/>
     <use xlink:href="#DejaVuSans-32" x="623.947266"/>
     <use xlink:href="#DejaVuSans-31" x="687.570312"/>
    </g>
   </g>
   <g id="text_28">
    <!-- NEU -->
    <g style="fill: #262626" transform="translate(790.68125 74.856) scale(0.2 -0.2)">
     <defs>
      <path id="DejaVuSans-45" d="M 628 4666 
L 3578 4666 
L 3578 4134 
L 1259 4134 
L 1259 2753 
L 3481 2753 
L 3481 2222 
L 1259 2222 
L 1259 531 
L 3634 531 
L 3634 0 
L 628 0 
L 628 4666 
z
" transform="scale(0.015625)"/>
      <path id="DejaVuSans-55" d="M 556 4666 
L 1191 4666 
L 1191 1831 
Q 1191 1081 1462 751 
Q 1734 422 2344 422 
Q 2950 422 3222 751 
Q 3494 1081 3494 1831 
L 3494 4666 
L 4128 4666 
L 4128 1753 
Q 4128 841 3676 375 
Q 3225 -91 2344 -91 
Q 1459 -91 1007 375 
Q 556 841 556 1753 
L 556 4666 
z
" transform="scale(0.015625)"/>
     </defs>
     <use xlink:href="#DejaVuSans-4e"/>
     <use xlink:href="#DejaVuSans-45" x="74.804688"/>
     <use xlink:href="#DejaVuSans-55" x="137.988281"/>
    </g>
   </g>
  </g>
  <g id="axes_3">
   <g id="patch_16">
    <path d="M 1064.541176 640.8 
L 1425.6 640.8 
L 1425.6 86.4 
L 1064.541176 86.4 
z
" style="fill: #ffffff"/>
   </g>
   <g id="matplotlib.axis_5"/>
   <g id="matplotlib.axis_6">
    <g id="ytick_21">
     <g id="line2d_21">
      <path d="M 1064.541176 640.8 
L 1425.6 640.8 
" clip-path="url(#p7d16d126d2)" style="fill: none; stroke: #cccccc; stroke-linecap: round"/>
     </g>
     <g id="text_29">
      <!-- 5 -->
      <g style="fill: #262626" transform="translate(1042.316176 648.398438) scale(0.2 -0.2)">
       <use xlink:href="#DejaVuSans-35"/>
      </g>
     </g>
    </g>
    <g id="ytick_22">
     <g id="line2d_22">
      <path d="M 1064.541176 579.2 
L 1425.6 579.2 
" clip-path="url(#p7d16d126d2)" style="fill: none; stroke: #cccccc; stroke-linecap: round"/>
     </g>
     <g id="text_30">
      <!-- 10 -->
      <g style="fill: #262626" transform="translate(1029.591176 586.798437) scale(0.2 -0.2)">
       <use xlink:href="#DejaVuSans-31"/>
       <use xlink:href="#DejaVuSans-30" x="63.623047"/>
      </g>
     </g>
    </g>
    <g id="ytick_23">
     <g id="line2d_23">
      <path d="M 1064.541176 517.6 
L 1425.6 517.6 
" clip-path="url(#p7d16d126d2)" style="fill: none; stroke: #cccccc; stroke-linecap: round"/>
     </g>
     <g id="text_31">
      <!-- 15 -->
      <g style="fill: #262626" transform="translate(1029.591176 525.198437) scale(0.2 -0.2)">
       <use xlink:href="#DejaVuSans-31"/>
       <use xlink:href="#DejaVuSans-35" x="63.623047"/>
      </g>
     </g>
    </g>
    <g id="ytick_24">
     <g id="line2d_24">
      <path d="M 1064.541176 456 
L 1425.6 456 
" clip-path="url(#p7d16d126d2)" style="fill: none; stroke: #cccccc; stroke-linecap: round"/>
     </g>
     <g id="text_32">
      <!-- 20 -->
      <g style="fill: #262626" transform="translate(1029.591176 463.598437) scale(0.2 -0.2)">
       <use xlink:href="#DejaVuSans-32"/>
       <use xlink:href="#DejaVuSans-30" x="63.623047"/>
      </g>
     </g>
    </g>
    <g id="ytick_25">
     <g id="line2d_25">
      <path d="M 1064.541176 394.4 
L 1425.6 394.4 
" clip-path="url(#p7d16d126d2)" style="fill: none; stroke: #cccccc; stroke-linecap: round"/>
     </g>
     <g id="text_33">
      <!-- 25 -->
      <g style="fill: #262626" transform="translate(1029.591176 401.998437) scale(0.2 -0.2)">
       <use xlink:href="#DejaVuSans-32"/>
       <use xlink:href="#DejaVuSans-35" x="63.623047"/>
      </g>
     </g>
    </g>
    <g id="ytick_26">
     <g id="line2d_26">
      <path d="M 1064.541176 332.8 
L 1425.6 332.8 
" clip-path="url(#p7d16d126d2)" style="fill: none; stroke: #cccccc; stroke-linecap: round"/>
     </g>
     <g id="text_34">
      <!-- 30 -->
      <g style="fill: #262626" transform="translate(1029.591176 340.398437) scale(0.2 -0.2)">
       <use xlink:href="#DejaVuSans-33"/>
       <use xlink:href="#DejaVuSans-30" x="63.623047"/>
      </g>
     </g>
    </g>
    <g id="ytick_27">
     <g id="line2d_27">
      <path d="M 1064.541176 271.2 
L 1425.6 271.2 
" clip-path="url(#p7d16d126d2)" style="fill: none; stroke: #cccccc; stroke-linecap: round"/>
     </g>
     <g id="text_35">
      <!-- 35 -->
      <g style="fill: #262626" transform="translate(1029.591176 278.798437) scale(0.2 -0.2)">
       <use xlink:href="#DejaVuSans-33"/>
       <use xlink:href="#DejaVuSans-35" x="63.623047"/>
      </g>
     </g>
    </g>
    <g id="ytick_28">
     <g id="line2d_28">
      <path d="M 1064.541176 209.6 
L 1425.6 209.6 
" clip-path="url(#p7d16d126d2)" style="fill: none; stroke: #cccccc; stroke-linecap: round"/>
     </g>
     <g id="text_36">
      <!-- 40 -->
      <g style="fill: #262626" transform="translate(1029.591176 217.198437) scale(0.2 -0.2)">
       <use xlink:href="#DejaVuSans-34"/>
       <use xlink:href="#DejaVuSans-30" x="63.623047"/>
      </g>
     </g>
    </g>
    <g id="ytick_29">
     <g id="line2d_29">
      <path d="M 1064.541176 148 
L 1425.6 148 
" clip-path="url(#p7d16d126d2)" style="fill: none; stroke: #cccccc; stroke-linecap: round"/>
     </g>
     <g id="text_37">
      <!-- 45 -->
      <g style="fill: #262626" transform="translate(1029.591176 155.598437) scale(0.2 -0.2)">
       <use xlink:href="#DejaVuSans-34"/>
       <use xlink:href="#DejaVuSans-35" x="63.623047"/>
      </g>
     </g>
    </g>
    <g id="ytick_30">
     <g id="line2d_30">
      <path d="M 1064.541176 86.4 
L 1425.6 86.4 
" clip-path="url(#p7d16d126d2)" style="fill: none; stroke: #cccccc; stroke-linecap: round"/>
     </g>
     <g id="text_38">
      <!-- 50 -->
      <g style="fill: #262626" transform="translate(1029.591176 93.998437) scale(0.2 -0.2)">
       <use xlink:href="#DejaVuSans-35"/>
       <use xlink:href="#DejaVuSans-30" x="63.623047"/>
      </g>
     </g>
    </g>
   </g>
   <g id="PolyCollection_3">
    <defs>
     <path id="mb60485326d" d="M 1282.682995 -140.8 
L 1207.458182 -140.8 
L 1202.74243 -144.408889 
L 1197.696646 -148.017778 
L 1192.334482 -151.626667 
L 1186.676179 -155.235556 
L 1180.749101 -158.844444 
L 1174.588076 -162.453333 
L 1168.235468 -166.062222 
L 1161.740901 -169.671111 
L 1155.160568 -173.28 
L 1148.556109 -176.888889 
L 1141.993052 -180.497778 
L 1135.538871 -184.106667 
L 1129.260762 -187.715556 
L 1123.223267 -191.324444 
L 1117.48592 -194.933333 
L 1112.101087 -198.542222 
L 1107.112183 -202.151111 
L 1102.552421 -205.76 
L 1098.444172 -209.368889 
L 1094.799013 -212.977778 
L 1091.618409 -216.586667 
L 1088.894956 -220.195556 
L 1086.614033 -223.804444 
L 1084.755684 -227.413333 
L 1083.296521 -231.022222 
L 1082.211479 -234.631111 
L 1081.475269 -238.24 
L 1081.063425 -241.848889 
L 1080.952941 -245.457778 
L 1081.122508 -249.066667 
L 1081.552461 -252.675556 
L 1082.224559 -256.284444 
L 1083.121732 -259.893333 
L 1084.227939 -263.502222 
L 1085.528208 -267.111111 
L 1087.008928 -270.72 
L 1088.658348 -274.328889 
L 1090.467238 -277.937778 
L 1092.429578 -281.546667 
L 1094.543156 -285.155556 
L 1096.809919 -288.764444 
L 1099.235976 -292.373333 
L 1101.831178 -295.982222 
L 1104.60825 -299.591111 
L 1107.581526 -303.2 
L 1110.765387 -306.808889 
L 1114.172519 -310.417778 
L 1117.812181 -314.026667 
L 1121.688621 -317.635556 
L 1125.799798 -321.244444 
L 1130.13651 -324.853333 
L 1134.681996 -328.462222 
L 1139.412015 -332.071111 
L 1144.295372 -335.68 
L 1149.294819 -339.288889 
L 1154.368219 -342.897778 
L 1159.469876 -346.506667 
L 1164.551923 -350.115556 
L 1169.565679 -353.724444 
L 1174.4629 -357.333333 
L 1179.196892 -360.942222 
L 1183.723474 -364.551111 
L 1188.001778 -368.16 
L 1191.994909 -371.768889 
L 1195.670481 -375.377778 
L 1199.001054 -378.986667 
L 1201.964462 -382.595556 
L 1204.54406 -386.204444 
L 1206.728864 -389.813333 
L 1208.513597 -393.422222 
L 1209.898621 -397.031111 
L 1210.889771 -400.64 
L 1211.49809 -404.248889 
L 1211.739496 -407.857778 
L 1211.634404 -411.466667 
L 1211.207345 -415.075556 
L 1210.486612 -418.684444 
L 1209.503969 -422.293333 
L 1208.294428 -425.902222 
L 1206.896092 -429.511111 
L 1205.350046 -433.12 
L 1203.700242 -436.728889 
L 1201.993324 -440.337778 
L 1200.278324 -443.946667 
L 1198.606162 -447.555556 
L 1197.028899 -451.164444 
L 1195.598719 -454.773333 
L 1194.366631 -458.382222 
L 1193.380944 -461.991111 
L 1192.685568 -465.6 
L 1192.31826 -469.208889 
L 1192.308931 -472.817778 
L 1192.678152 -476.426667 
L 1193.435974 -480.035556 
L 1194.581197 -483.644444 
L 1196.101146 -487.253333 
L 1197.972008 -490.862222 
L 1200.159722 -494.471111 
L 1202.621383 -498.08 
L 1287.519793 -498.08 
L 1287.519793 -498.08 
L 1289.981455 -494.471111 
L 1292.169169 -490.862222 
L 1294.040031 -487.253333 
L 1295.55998 -483.644444 
L 1296.705203 -480.035556 
L 1297.463025 -476.426667 
L 1297.832245 -472.817778 
L 1297.822917 -469.208889 
L 1297.455609 -465.6 
L 1296.760232 -461.991111 
L 1295.774545 -458.382222 
L 1294.542458 -454.773333 
L 1293.112277 -451.164444 
L 1291.535014 -447.555556 
L 1289.862852 -443.946667 
L 1288.147852 -440.337778 
L 1286.440935 -436.728889 
L 1284.791131 -433.12 
L 1283.245084 -429.511111 
L 1281.846748 -425.902222 
L 1280.637207 -422.293333 
L 1279.654565 -418.684444 
L 1278.933832 -415.075556 
L 1278.506772 -411.466667 
L 1278.40168 -407.857778 
L 1278.643086 -404.248889 
L 1279.251406 -400.64 
L 1280.242556 -397.031111 
L 1281.62758 -393.422222 
L 1283.412312 -389.813333 
L 1285.597116 -386.204444 
L 1288.176714 -382.595556 
L 1291.140123 -378.986667 
L 1294.470695 -375.377778 
L 1298.146268 -371.768889 
L 1302.139398 -368.16 
L 1306.417702 -364.551111 
L 1310.944285 -360.942222 
L 1315.678277 -357.333333 
L 1320.575497 -353.724444 
L 1325.589253 -350.115556 
L 1330.671301 -346.506667 
L 1335.772957 -342.897778 
L 1340.846357 -339.288889 
L 1345.845804 -335.68 
L 1350.729162 -332.071111 
L 1355.459181 -328.462222 
L 1360.004666 -324.853333 
L 1364.341379 -321.244444 
L 1368.452556 -317.635556 
L 1372.328996 -314.026667 
L 1375.968658 -310.417778 
L 1379.37579 -306.808889 
L 1382.55965 -303.2 
L 1385.532927 -299.591111 
L 1388.309998 -295.982222 
L 1390.9052 -292.373333 
L 1393.331258 -288.764444 
L 1395.598021 -285.155556 
L 1397.711599 -281.546667 
L 1399.673939 -277.937778 
L 1401.482829 -274.328889 
L 1403.132249 -270.72 
L 1404.612968 -267.111111 
L 1405.913238 -263.502222 
L 1407.019444 -259.893333 
L 1407.916617 -256.284444 
L 1408.588715 -252.675556 
L 1409.018668 -249.066667 
L 1409.188235 -245.457778 
L 1409.077751 -241.848889 
L 1408.665908 -238.24 
L 1407.929697 -234.631111 
L 1406.844655 -231.022222 
L 1405.385492 -227.413333 
L 1403.527143 -223.804444 
L 1401.246221 -220.195556 
L 1398.522768 -216.586667 
L 1395.342163 -212.977778 
L 1391.697004 -209.368889 
L 1387.588756 -205.76 
L 1383.028993 -202.151111 
L 1378.04009 -198.542222 
L 1372.655256 -194.933333 
L 1366.917909 -191.324444 
L 1360.880415 -187.715556 
L 1354.602306 -184.106667 
L 1348.148125 -180.497778 
L 1341.585068 -176.888889 
L 1334.980609 -173.28 
L 1328.400276 -169.671111 
L 1321.905708 -166.062222 
L 1315.553101 -162.453333 
L 1309.392075 -158.844444 
L 1303.464997 -155.235556 
L 1297.806695 -151.626667 
L 1292.444531 -148.017778 
L 1287.398746 -144.408889 
L 1282.682995 -140.8 
z
" style="stroke: #ffffff; stroke-opacity: 0.3"/>
    </defs>
    <g clip-path="url(#p7d16d126d2)">
     <use xlink:href="#mb60485326d" x="0" y="720" style="fill: #4daf4a; fill-opacity: 0.3; stroke: #ffffff; stroke-opacity: 0.3"/>
    </g>
   </g>
   <g id="LineCollection_7">
    <path d="M 1163.011765 221.92 
L 1327.129412 221.92 
" clip-path="url(#p7d16d126d2)" style="fill: none; stroke: #4c72b0; stroke-width: 1.5"/>
   </g>
   <g id="LineCollection_8">
    <path d="M 1163.011765 579.2 
L 1327.129412 579.2 
" clip-path="url(#p7d16d126d2)" style="fill: none; stroke: #4c72b0; stroke-width: 1.5"/>
   </g>
   <g id="LineCollection_9">
    <path d="M 1245.070588 579.2 
L 1245.070588 221.92 
" clip-path="url(#p7d16d126d2)" style="fill: none; stroke: #4c72b0; stroke-width: 1.5"/>
   </g>
   <g id="patch_17">
    <path d="M 1064.541176 640.8 
L 1064.541176 86.4 
" style="fill: none; stroke: #cccccc; stroke-width: 1.25; stroke-linejoin: miter; stroke-linecap: square"/>
   </g>
   <g id="patch_18">
    <path d="M 1425.6 640.8 
L 1425.6 86.4 
" style="fill: none; stroke: #cccccc; stroke-width: 1.25; stroke-linejoin: miter; stroke-linecap: square"/>
   </g>
   <g id="patch_19">
    <path d="M 1064.541176 640.8 
L 1425.6 640.8 
" style="fill: none; stroke: #cccccc; stroke-width: 1.25; stroke-linejoin: miter; stroke-linecap: square"/>
   </g>
   <g id="patch_20">
    <path d="M 1064.541176 86.4 
L 1425.6 86.4 
" style="fill: none; stroke: #cccccc; stroke-width: 1.25; stroke-linejoin: miter; stroke-linecap: square"/>
   </g>
   <g id="text_39">
    <g id="patch_21">
     <path d="M 1095.494706 125.8625 
L 1199.674706 125.8625 
L 1199.674706 102.3775 
L 1095.494706 102.3775 
z
" style="fill: #ffffff; stroke: #000000; stroke-linejoin: miter"/>
    </g>
    <!-- # seqs: 177 -->
    <g style="fill: #262626" transform="translate(1099.494706 118.535) scale(0.16 -0.16)">
     <defs>
      <path id="DejaVuSans-37" d="M 525 4666 
L 3525 4666 
L 3525 4397 
L 1831 0 
L 1172 0 
L 2766 4134 
L 525 4134 
L 525 4666 
z
" transform="scale(0.015625)"/>
     </defs>
     <use xlink:href="#DejaVuSans-23"/>
     <use xlink:href="#DejaVuSans-20" x="83.789062"/>
     <use xlink:href="#DejaVuSans-73" x="115.576172"/>
     <use xlink:href="#DejaVuSans-65" x="167.675781"/>
     <use xlink:href="#DejaVuSans-71" x="229.199219"/>
     <use xlink:href="#DejaVuSans-73" x="292.675781"/>
     <use xlink:href="#DejaVuSans-3a" x="344.775391"/>
     <use xlink:href="#DejaVuSans-20" x="378.466797"/>
     <use xlink:href="#DejaVuSans-31" x="410.253906"/>
     <use xlink:href="#DejaVuSans-37" x="473.876953"/>
     <use xlink:href="#DejaVuSans-37" x="537.5"/>
    </g>
   </g>
   <g id="text_40">
    <g id="patch_22">
     <path d="M 1083.490956 153.5825 
L 1211.678456 153.5825 
L 1211.678456 130.0975 
L 1083.490956 130.0975 
z
" style="fill: #ffffff; stroke: #000000; stroke-linejoin: miter"/>
    </g>
    <!-- AVG length: 22 -->
    <g style="fill: #262626" transform="translate(1087.490956 146.255) scale(0.16 -0.16)">
     <use xlink:href="#DejaVuSans-41"/>
     <use xlink:href="#DejaVuSans-56" x="62.033203"/>
     <use xlink:href="#DejaVuSans-47" x="130.441406"/>
     <use xlink:href="#DejaVuSans-20" x="207.931641"/>
     <use xlink:href="#DejaVuSans-6c" x="239.71875"/>
     <use xlink:href="#DejaVuSans-65" x="267.501953"/>
     <use xlink:href="#DejaVuSans-6e" x="329.025391"/>
     <use xlink:href="#DejaVuSans-67" x="392.404297"/>
     <use xlink:href="#DejaVuSans-74" x="455.880859"/>
     <use xlink:href="#DejaVuSans-68" x="495.089844"/>
     <use xlink:href="#DejaVuSans-3a" x="558.46875"/>
     <use xlink:href="#DejaVuSans-20" x="592.160156"/>
     <use xlink:href="#DejaVuSans-32" x="623.947266"/>
     <use xlink:href="#DejaVuSans-32" x="687.570312"/>
    </g>
   </g>
   <g id="text_41">
    <!-- BRO -->
    <g style="fill: #262626" transform="translate(1223.389338 74.856) scale(0.2 -0.2)">
     <defs>
      <path id="DejaVuSans-42" d="M 1259 2228 
L 1259 519 
L 2272 519 
Q 2781 519 3026 730 
Q 3272 941 3272 1375 
Q 3272 1813 3026 2020 
Q 2781 2228 2272 2228 
L 1259 2228 
z
M 1259 4147 
L 1259 2741 
L 2194 2741 
Q 2656 2741 2882 2914 
Q 3109 3088 3109 3444 
Q 3109 3797 2882 3972 
Q 2656 4147 2194 4147 
L 1259 4147 
z
M 628 4666 
L 2241 4666 
Q 2963 4666 3353 4366 
Q 3744 4066 3744 3513 
Q 3744 3084 3544 2831 
Q 3344 2578 2956 2516 
Q 3422 2416 3680 2098 
Q 3938 1781 3938 1306 
Q 3938 681 3513 340 
Q 3088 0 2303 0 
L 628 0 
L 628 4666 
z
" transform="scale(0.015625)"/>
     </defs>
     <use xlink:href="#DejaVuSans-42"/>
     <use xlink:href="#DejaVuSans-52" x="68.603516"/>
     <use xlink:href="#DejaVuSans-4f" x="138.085938"/>
    </g>
   </g>
  </g>
 </g>
 <defs>
  <clipPath id="pbff8d4275f">
   <rect x="198" y="86.4" width="361.058824" height="554.4"/>
  </clipPath>
  <clipPath id="pe8d64ae553">
   <rect x="631.270588" y="86.4" width="361.058824" height="554.4"/>
  </clipPath>
  <clipPath id="p7d16d126d2">
   <rect x="1064.541176" y="86.4" width="361.058824" height="554.4"/>
  </clipPath>
 </defs>
</svg>
