<?xml version="1.0" encoding="utf-8" standalone="no"?>
<!DOCTYPE svg PUBLIC "-//W3C//DTD SVG 1.1//EN"
  "http://www.w3.org/Graphics/SVG/1.1/DTD/svg11.dtd">
<svg xmlns:xlink="http://www.w3.org/1999/xlink" width="1584pt" height="720pt" viewBox="0 0 1584 720" xmlns="http://www.w3.org/2000/svg" version="1.1">
 <metadata>
  <rdf:RDF xmlns:dc="http://purl.org/dc/elements/1.1/" xmlns:cc="http://creativecommons.org/ns#" xmlns:rdf="http://www.w3.org/1999/02/22-rdf-syntax-ns#">
   <cc:Work>
    <dc:type rdf:resource="http://purl.org/dc/dcmitype/StillImage"/>
    <dc:date>2023-11-27T10:41:21.041982</dc:date>
    <dc:format>image/svg+xml</dc:format>
    <dc:creator>
     <cc:Agent>
      <dc:title>Matplotlib v3.7.1, https://matplotlib.org/</dc:title>
     </cc:Agent>
    </dc:creator>
   </cc:Work>
  </rdf:RDF>
 </metadata>
 <defs>
  <style type="text/css">*{stroke-linejoin: round; stroke-linecap: butt}</style>
 </defs>
 <g id="figure_1">
  <g id="patch_1">
   <path d="M 0 720 
L 1584 720 
L 1584 0 
L 0 0 
z
" style="fill: #ffffff"/>
  </g>
  <g id="axes_1">
   <g id="patch_2">
    <path d="M 198 640.8 
L 559.058824 640.8 
L 559.058824 86.4 
L 198 86.4 
z
" style="fill: #ffffff"/>
   </g>
   <g id="matplotlib.axis_1"/>
   <g id="matplotlib.axis_2">
    <g id="ytick_1">
     <g id="line2d_1">
      <path d="M 198 640.8 
L 559.058824 640.8 
" clip-path="url(#pc57f311d89)" style="fill: none; stroke: #cccccc; stroke-linecap: round"/>
     </g>
     <g id="text_1">
      <!-- 5 -->
      <g style="fill: #262626" transform="translate(175.775 648.398438) scale(0.2 -0.2)">
       <defs>
        <path id="DejaVuSans-35" d="M 691 4666 
L 3169 4666 
L 3169 4134 
L 1269 4134 
L 1269 2991 
Q 1406 3038 1543 3061 
Q 1681 3084 1819 3084 
Q 2600 3084 3056 2656 
Q 3513 2228 3513 1497 
Q 3513 744 3044 326 
Q 2575 -91 1722 -91 
Q 1428 -91 1123 -41 
Q 819 9 494 109 
L 494 744 
Q 775 591 1075 516 
Q 1375 441 1709 441 
Q 2250 441 2565 725 
Q 2881 1009 2881 1497 
Q 2881 1984 2565 2268 
Q 2250 2553 1709 2553 
Q 1456 2553 1204 2497 
Q 953 2441 691 2322 
L 691 4666 
z
" transform="scale(0.015625)"/>
       </defs>
       <use xlink:href="#DejaVuSans-35"/>
      </g>
     </g>
    </g>
    <g id="ytick_2">
     <g id="line2d_2">
      <path d="M 198 579.2 
L 559.058824 579.2 
" clip-path="url(#pc57f311d89)" style="fill: none; stroke: #cccccc; stroke-linecap: round"/>
     </g>
     <g id="text_2">
      <!-- 10 -->
      <g style="fill: #262626" transform="translate(163.05 586.798437) scale(0.2 -0.2)">
       <defs>
        <path id="DejaVuSans-31" d="M 794 531 
L 1825 531 
L 1825 4091 
L 703 3866 
L 703 4441 
L 1819 4666 
L 2450 4666 
L 2450 531 
L 3481 531 
L 3481 0 
L 794 0 
L 794 531 
z
" transform="scale(0.015625)"/>
        <path id="DejaVuSans-30" d="M 2034 4250 
Q 1547 4250 1301 3770 
Q 1056 3291 1056 2328 
Q 1056 1369 1301 889 
Q 1547 409 2034 409 
Q 2525 409 2770 889 
Q 3016 1369 3016 2328 
Q 3016 3291 2770 3770 
Q 2525 4250 2034 4250 
z
M 2034 4750 
Q 2819 4750 3233 4129 
Q 3647 3509 3647 2328 
Q 3647 1150 3233 529 
Q 2819 -91 2034 -91 
Q 1250 -91 836 529 
Q 422 1150 422 2328 
Q 422 3509 836 4129 
Q 1250 4750 2034 4750 
z
" transform="scale(0.015625)"/>
       </defs>
       <use xlink:href="#DejaVuSans-31"/>
       <use xlink:href="#DejaVuSans-30" x="63.623047"/>
      </g>
     </g>
    </g>
    <g id="ytick_3">
     <g id="line2d_3">
      <path d="M 198 517.6 
L 559.058824 517.6 
" clip-path="url(#pc57f311d89)" style="fill: none; stroke: #cccccc; stroke-linecap: round"/>
     </g>
     <g id="text_3">
      <!-- 15 -->
      <g style="fill: #262626" transform="translate(163.05 525.198437) scale(0.2 -0.2)">
       <use xlink:href="#DejaVuSans-31"/>
       <use xlink:href="#DejaVuSans-35" x="63.623047"/>
      </g>
     </g>
    </g>
    <g id="ytick_4">
     <g id="line2d_4">
      <path d="M 198 456 
L 559.058824 456 
" clip-path="url(#pc57f311d89)" style="fill: none; stroke: #cccccc; stroke-linecap: round"/>
     </g>
     <g id="text_4">
      <!-- 20 -->
      <g style="fill: #262626" transform="translate(163.05 463.598437) scale(0.2 -0.2)">
       <defs>
        <path id="DejaVuSans-32" d="M 1228 531 
L 3431 531 
L 3431 0 
L 469 0 
L 469 531 
Q 828 903 1448 1529 
Q 2069 2156 2228 2338 
Q 2531 2678 2651 2914 
Q 2772 3150 2772 3378 
Q 2772 3750 2511 3984 
Q 2250 4219 1831 4219 
Q 1534 4219 1204 4116 
Q 875 4013 500 3803 
L 500 4441 
Q 881 4594 1212 4672 
Q 1544 4750 1819 4750 
Q 2544 4750 2975 4387 
Q 3406 4025 3406 3419 
Q 3406 3131 3298 2873 
Q 3191 2616 2906 2266 
Q 2828 2175 2409 1742 
Q 1991 1309 1228 531 
z
" transform="scale(0.015625)"/>
       </defs>
       <use xlink:href="#DejaVuSans-32"/>
       <use xlink:href="#DejaVuSans-30" x="63.623047"/>
      </g>
     </g>
    </g>
    <g id="ytick_5">
     <g id="line2d_5">
      <path d="M 198 394.4 
L 559.058824 394.4 
" clip-path="url(#pc57f311d89)" style="fill: none; stroke: #cccccc; stroke-linecap: round"/>
     </g>
     <g id="text_5">
      <!-- 25 -->
      <g style="fill: #262626" transform="translate(163.05 401.998437) scale(0.2 -0.2)">
       <use xlink:href="#DejaVuSans-32"/>
       <use xlink:href="#DejaVuSans-35" x="63.623047"/>
      </g>
     </g>
    </g>
    <g id="ytick_6">
     <g id="line2d_6">
      <path d="M 198 332.8 
L 559.058824 332.8 
" clip-path="url(#pc57f311d89)" style="fill: none; stroke: #cccccc; stroke-linecap: round"/>
     </g>
     <g id="text_6">
      <!-- 30 -->
      <g style="fill: #262626" transform="translate(163.05 340.398437) scale(0.2 -0.2)">
       <defs>
        <path id="DejaVuSans-33" d="M 2597 2516 
Q 3050 2419 3304 2112 
Q 3559 1806 3559 1356 
Q 3559 666 3084 287 
Q 2609 -91 1734 -91 
Q 1441 -91 1130 -33 
Q 819 25 488 141 
L 488 750 
Q 750 597 1062 519 
Q 1375 441 1716 441 
Q 2309 441 2620 675 
Q 2931 909 2931 1356 
Q 2931 1769 2642 2001 
Q 2353 2234 1838 2234 
L 1294 2234 
L 1294 2753 
L 1863 2753 
Q 2328 2753 2575 2939 
Q 2822 3125 2822 3475 
Q 2822 3834 2567 4026 
Q 2313 4219 1838 4219 
Q 1578 4219 1281 4162 
Q 984 4106 628 3988 
L 628 4550 
Q 988 4650 1302 4700 
Q 1616 4750 1894 4750 
Q 2613 4750 3031 4423 
Q 3450 4097 3450 3541 
Q 3450 3153 3228 2886 
Q 3006 2619 2597 2516 
z
" transform="scale(0.015625)"/>
       </defs>
       <use xlink:href="#DejaVuSans-33"/>
       <use xlink:href="#DejaVuSans-30" x="63.623047"/>
      </g>
     </g>
    </g>
    <g id="ytick_7">
     <g id="line2d_7">
      <path d="M 198 271.2 
L 559.058824 271.2 
" clip-path="url(#pc57f311d89)" style="fill: none; stroke: #cccccc; stroke-linecap: round"/>
     </g>
     <g id="text_7">
      <!-- 35 -->
      <g style="fill: #262626" transform="translate(163.05 278.798437) scale(0.2 -0.2)">
       <use xlink:href="#DejaVuSans-33"/>
       <use xlink:href="#DejaVuSans-35" x="63.623047"/>
      </g>
     </g>
    </g>
    <g id="ytick_8">
     <g id="line2d_8">
      <path d="M 198 209.6 
L 559.058824 209.6 
" clip-path="url(#pc57f311d89)" style="fill: none; stroke: #cccccc; stroke-linecap: round"/>
     </g>
     <g id="text_8">
      <!-- 40 -->
      <g style="fill: #262626" transform="translate(163.05 217.198437) scale(0.2 -0.2)">
       <defs>
        <path id="DejaVuSans-34" d="M 2419 4116 
L 825 1625 
L 2419 1625 
L 2419 4116 
z
M 2253 4666 
L 3047 4666 
L 3047 1625 
L 3713 1625 
L 3713 1100 
L 3047 1100 
L 3047 0 
L 2419 0 
L 2419 1100 
L 313 1100 
L 313 1709 
L 2253 4666 
z
" transform="scale(0.015625)"/>
       </defs>
       <use xlink:href="#DejaVuSans-34"/>
       <use xlink:href="#DejaVuSans-30" x="63.623047"/>
      </g>
     </g>
    </g>
    <g id="ytick_9">
     <g id="line2d_9">
      <path d="M 198 148 
L 559.058824 148 
" clip-path="url(#pc57f311d89)" style="fill: none; stroke: #cccccc; stroke-linecap: round"/>
     </g>
     <g id="text_9">
      <!-- 45 -->
      <g style="fill: #262626" transform="translate(163.05 155.598437) scale(0.2 -0.2)">
       <use xlink:href="#DejaVuSans-34"/>
       <use xlink:href="#DejaVuSans-35" x="63.623047"/>
      </g>
     </g>
    </g>
    <g id="ytick_10">
     <g id="line2d_10">
      <path d="M 198 86.4 
L 559.058824 86.4 
" clip-path="url(#pc57f311d89)" style="fill: none; stroke: #cccccc; stroke-linecap: round"/>
     </g>
     <g id="text_10">
      <!-- 50 -->
      <g style="fill: #262626" transform="translate(163.05 93.998437) scale(0.2 -0.2)">
       <use xlink:href="#DejaVuSans-35"/>
       <use xlink:href="#DejaVuSans-30" x="63.623047"/>
      </g>
     </g>
    </g>
    <g id="text_11">
     <!-- CDR-H3 length -->
     <g style="fill: #262626" transform="translate(146.890625 437.375) rotate(-90) scale(0.2 -0.2)">
      <defs>
       <path id="DejaVuSans-43" d="M 4122 4306 
L 4122 3641 
Q 3803 3938 3442 4084 
Q 3081 4231 2675 4231 
Q 1875 4231 1450 3742 
Q 1025 3253 1025 2328 
Q 1025 1406 1450 917 
Q 1875 428 2675 428 
Q 3081 428 3442 575 
Q 3803 722 4122 1019 
L 4122 359 
Q 3791 134 3420 21 
Q 3050 -91 2638 -91 
Q 1578 -91 968 557 
Q 359 1206 359 2328 
Q 359 3453 968 4101 
Q 1578 4750 2638 4750 
Q 3056 4750 3426 4639 
Q 3797 4528 4122 4306 
z
" transform="scale(0.015625)"/>
       <path id="DejaVuSans-44" d="M 1259 4147 
L 1259 519 
L 2022 519 
Q 2988 519 3436 956 
Q 3884 1394 3884 2338 
Q 3884 3275 3436 3711 
Q 2988 4147 2022 4147 
L 1259 4147 
z
M 628 4666 
L 1925 4666 
Q 3281 4666 3915 4102 
Q 4550 3538 4550 2338 
Q 4550 1131 3912 565 
Q 3275 0 1925 0 
L 628 0 
L 628 4666 
z
" transform="scale(0.015625)"/>
       <path id="DejaVuSans-52" d="M 2841 2188 
Q 3044 2119 3236 1894 
Q 3428 1669 3622 1275 
L 4263 0 
L 3584 0 
L 2988 1197 
Q 2756 1666 2539 1819 
Q 2322 1972 1947 1972 
L 1259 1972 
L 1259 0 
L 628 0 
L 628 4666 
L 2053 4666 
Q 2853 4666 3247 4331 
Q 3641 3997 3641 3322 
Q 3641 2881 3436 2590 
Q 3231 2300 2841 2188 
z
M 1259 4147 
L 1259 2491 
L 2053 2491 
Q 2509 2491 2742 2702 
Q 2975 2913 2975 3322 
Q 2975 3731 2742 3939 
Q 2509 4147 2053 4147 
L 1259 4147 
z
" transform="scale(0.015625)"/>
       <path id="DejaVuSans-2d" d="M 313 2009 
L 1997 2009 
L 1997 1497 
L 313 1497 
L 313 2009 
z
" transform="scale(0.015625)"/>
       <path id="DejaVuSans-48" d="M 628 4666 
L 1259 4666 
L 1259 2753 
L 3553 2753 
L 3553 4666 
L 4184 4666 
L 4184 0 
L 3553 0 
L 3553 2222 
L 1259 2222 
L 1259 0 
L 628 0 
L 628 4666 
z
" transform="scale(0.015625)"/>
       <path id="DejaVuSans-20" transform="scale(0.015625)"/>
       <path id="DejaVuSans-6c" d="M 603 4863 
L 1178 4863 
L 1178 0 
L 603 0 
L 603 4863 
z
" transform="scale(0.015625)"/>
       <path id="DejaVuSans-65" d="M 3597 1894 
L 3597 1613 
L 953 1613 
Q 991 1019 1311 708 
Q 1631 397 2203 397 
Q 2534 397 2845 478 
Q 3156 559 3463 722 
L 3463 178 
Q 3153 47 2828 -22 
Q 2503 -91 2169 -91 
Q 1331 -91 842 396 
Q 353 884 353 1716 
Q 353 2575 817 3079 
Q 1281 3584 2069 3584 
Q 2775 3584 3186 3129 
Q 3597 2675 3597 1894 
z
M 3022 2063 
Q 3016 2534 2758 2815 
Q 2500 3097 2075 3097 
Q 1594 3097 1305 2825 
Q 1016 2553 972 2059 
L 3022 2063 
z
" transform="scale(0.015625)"/>
       <path id="DejaVuSans-6e" d="M 3513 2113 
L 3513 0 
L 2938 0 
L 2938 2094 
Q 2938 2591 2744 2837 
Q 2550 3084 2163 3084 
Q 1697 3084 1428 2787 
Q 1159 2491 1159 1978 
L 1159 0 
L 581 0 
L 581 3500 
L 1159 3500 
L 1159 2956 
Q 1366 3272 1645 3428 
Q 1925 3584 2291 3584 
Q 2894 3584 3203 3211 
Q 3513 2838 3513 2113 
z
" transform="scale(0.015625)"/>
       <path id="DejaVuSans-67" d="M 2906 1791 
Q 2906 2416 2648 2759 
Q 2391 3103 1925 3103 
Q 1463 3103 1205 2759 
Q 947 2416 947 1791 
Q 947 1169 1205 825 
Q 1463 481 1925 481 
Q 2391 481 2648 825 
Q 2906 1169 2906 1791 
z
M 3481 434 
Q 3481 -459 3084 -895 
Q 2688 -1331 1869 -1331 
Q 1566 -1331 1297 -1286 
Q 1028 -1241 775 -1147 
L 775 -588 
Q 1028 -725 1275 -790 
Q 1522 -856 1778 -856 
Q 2344 -856 2625 -561 
Q 2906 -266 2906 331 
L 2906 616 
Q 2728 306 2450 153 
Q 2172 0 1784 0 
Q 1141 0 747 490 
Q 353 981 353 1791 
Q 353 2603 747 3093 
Q 1141 3584 1784 3584 
Q 2172 3584 2450 3431 
Q 2728 3278 2906 2969 
L 2906 3500 
L 3481 3500 
L 3481 434 
z
" transform="scale(0.015625)"/>
       <path id="DejaVuSans-74" d="M 1172 4494 
L 1172 3500 
L 2356 3500 
L 2356 3053 
L 1172 3053 
L 1172 1153 
Q 1172 725 1289 603 
Q 1406 481 1766 481 
L 2356 481 
L 2356 0 
L 1766 0 
Q 1100 0 847 248 
Q 594 497 594 1153 
L 594 3053 
L 172 3053 
L 172 3500 
L 594 3500 
L 594 4494 
L 1172 4494 
z
" transform="scale(0.015625)"/>
       <path id="DejaVuSans-68" d="M 3513 2113 
L 3513 0 
L 2938 0 
L 2938 2094 
Q 2938 2591 2744 2837 
Q 2550 3084 2163 3084 
Q 1697 3084 1428 2787 
Q 1159 2491 1159 1978 
L 1159 0 
L 581 0 
L 581 4863 
L 1159 4863 
L 1159 2956 
Q 1366 3272 1645 3428 
Q 1925 3584 2291 3584 
Q 2894 3584 3203 3211 
Q 3513 2838 3513 2113 
z
" transform="scale(0.015625)"/>
      </defs>
      <use xlink:href="#DejaVuSans-43"/>
      <use xlink:href="#DejaVuSans-44" x="69.824219"/>
      <use xlink:href="#DejaVuSans-52" x="146.826172"/>
      <use xlink:href="#DejaVuSans-2d" x="212.308594"/>
      <use xlink:href="#DejaVuSans-48" x="248.392578"/>
      <use xlink:href="#DejaVuSans-33" x="323.587891"/>
      <use xlink:href="#DejaVuSans-20" x="387.210938"/>
      <use xlink:href="#DejaVuSans-6c" x="418.998047"/>
      <use xlink:href="#DejaVuSans-65" x="446.78125"/>
      <use xlink:href="#DejaVuSans-6e" x="508.304688"/>
      <use xlink:href="#DejaVuSans-67" x="571.683594"/>
      <use xlink:href="#DejaVuSans-74" x="635.160156"/>
      <use xlink:href="#DejaVuSans-68" x="674.369141"/>
     </g>
    </g>
   </g>
   <g id="PolyCollection_1">
    <defs>
     <path id="md13c33f7d4" d="M 537.451395 -202.4 
L 219.607428 -202.4 
L 218.690409 -203.52 
L 217.862411 -204.64 
L 217.123862 -205.76 
L 216.474961 -206.88 
L 215.915683 -208 
L 215.445772 -209.12 
L 215.064742 -210.24 
L 214.771879 -211.36 
L 214.566243 -212.48 
L 214.446667 -213.6 
L 214.411765 -214.72 
L 214.459929 -215.84 
L 214.589343 -216.96 
L 214.797981 -218.08 
L 215.083616 -219.2 
L 215.443831 -220.32 
L 215.876022 -221.44 
L 216.377409 -222.56 
L 216.945045 -223.68 
L 217.575827 -224.8 
L 218.266509 -225.92 
L 219.013707 -227.04 
L 219.813919 -228.16 
L 220.663532 -229.28 
L 221.558837 -230.4 
L 222.496043 -231.52 
L 223.471289 -232.64 
L 224.480659 -233.76 
L 225.520199 -234.88 
L 226.585925 -236 
L 227.673843 -237.12 
L 228.779965 -238.24 
L 229.900316 -239.36 
L 231.030957 -240.48 
L 232.167994 -241.6 
L 233.307595 -242.72 
L 234.446003 -243.84 
L 235.579549 -244.96 
L 236.704667 -246.08 
L 237.817906 -247.2 
L 238.915943 -248.32 
L 239.995594 -249.44 
L 241.053827 -250.56 
L 242.087769 -251.68 
L 243.094721 -252.8 
L 244.072166 -253.92 
L 245.017774 -255.04 
L 245.929414 -256.16 
L 246.805159 -257.28 
L 247.643294 -258.4 
L 248.442318 -259.52 
L 249.200952 -260.64 
L 249.918139 -261.76 
L 250.59305 -262.88 
L 251.225084 -264 
L 251.813866 -265.12 
L 252.359253 -266.24 
L 252.861327 -267.36 
L 253.320395 -268.48 
L 253.736986 -269.6 
L 254.111849 -270.72 
L 254.445942 -271.84 
L 254.740434 -272.96 
L 254.996694 -274.08 
L 255.216283 -275.2 
L 255.40095 -276.32 
L 255.552618 -277.44 
L 255.673379 -278.56 
L 255.765481 -279.68 
L 255.831317 -280.8 
L 255.873418 -281.92 
L 255.894434 -283.04 
L 255.89713 -284.16 
L 255.884364 -285.28 
L 255.859085 -286.4 
L 255.824309 -287.52 
L 255.783114 -288.64 
L 255.738621 -289.76 
L 255.693982 -290.88 
L 255.652369 -292 
L 255.616955 -293.12 
L 255.590906 -294.24 
L 255.577364 -295.36 
L 255.579434 -296.48 
L 255.600174 -297.6 
L 255.642579 -298.72 
L 255.709571 -299.84 
L 255.803985 -300.96 
L 255.928562 -302.08 
L 256.085933 -303.2 
L 256.278612 -304.32 
L 256.508987 -305.44 
L 256.779309 -306.56 
L 257.091683 -307.68 
L 257.448066 -308.8 
L 257.850252 -309.92 
L 258.299875 -311.04 
L 258.798395 -312.16 
L 259.347099 -313.28 
L 497.711724 -313.28 
L 497.711724 -313.28 
L 498.260429 -312.16 
L 498.758949 -311.04 
L 499.208571 -309.92 
L 499.610758 -308.8 
L 499.96714 -307.68 
L 500.279515 -306.56 
L 500.549836 -305.44 
L 500.780211 -304.32 
L 500.97289 -303.2 
L 501.130261 -302.08 
L 501.254838 -300.96 
L 501.349253 -299.84 
L 501.416244 -298.72 
L 501.458649 -297.6 
L 501.479389 -296.48 
L 501.48146 -295.36 
L 501.467918 -294.24 
L 501.441869 -293.12 
L 501.406455 -292 
L 501.364841 -290.88 
L 501.320203 -289.76 
L 501.275709 -288.64 
L 501.234514 -287.52 
L 501.199738 -286.4 
L 501.174459 -285.28 
L 501.161694 -284.16 
L 501.164389 -283.04 
L 501.185406 -281.92 
L 501.227506 -280.8 
L 501.293343 -279.68 
L 501.385445 -278.56 
L 501.506206 -277.44 
L 501.657874 -276.32 
L 501.84254 -275.2 
L 502.06213 -274.08 
L 502.31839 -272.96 
L 502.612882 -271.84 
L 502.946975 -270.72 
L 503.321837 -269.6 
L 503.738429 -268.48 
L 504.197496 -267.36 
L 504.69957 -266.24 
L 505.244957 -265.12 
L 505.83374 -264 
L 506.465773 -262.88 
L 507.140684 -261.76 
L 507.857872 -260.64 
L 508.616505 -259.52 
L 509.415529 -258.4 
L 510.253664 -257.28 
L 511.12941 -256.16 
L 512.04105 -255.04 
L 512.986658 -253.92 
L 513.964102 -252.8 
L 514.971055 -251.68 
L 516.004997 -250.56 
L 517.063229 -249.44 
L 518.14288 -248.32 
L 519.240917 -247.2 
L 520.354156 -246.08 
L 521.479275 -244.96 
L 522.61282 -243.84 
L 523.751228 -242.72 
L 524.890829 -241.6 
L 526.027866 -240.48 
L 527.158507 -239.36 
L 528.278859 -238.24 
L 529.38498 -237.12 
L 530.472899 -236 
L 531.538625 -234.88 
L 532.578164 -233.76 
L 533.587535 -232.64 
L 534.56278 -231.52 
L 535.499986 -230.4 
L 536.395291 -229.28 
L 537.244904 -228.16 
L 538.045116 -227.04 
L 538.792315 -225.92 
L 539.482996 -224.8 
L 540.113779 -223.68 
L 540.681415 -222.56 
L 541.182801 -221.44 
L 541.614992 -220.32 
L 541.975207 -219.2 
L 542.260843 -218.08 
L 542.469481 -216.96 
L 542.598894 -215.84 
L 542.647059 -214.72 
L 542.612156 -213.6 
L 542.492581 -212.48 
L 542.286944 -211.36 
L 541.994082 -210.24 
L 541.613052 -209.12 
L 541.14314 -208 
L 540.583862 -206.88 
L 539.934962 -205.76 
L 539.196412 -204.64 
L 538.368414 -203.52 
L 537.451395 -202.4 
z
" style="stroke: #ffffff; stroke-opacity: 0.3"/>
    </defs>
    <g clip-path="url(#pc57f311d89)">
     <use xlink:href="#md13c33f7d4" x="0" y="720" style="fill: #e41a1c; fill-opacity: 0.3; stroke: #ffffff; stroke-opacity: 0.3"/>
    </g>
   </g>
   <g id="LineCollection_1">
    <path d="M 296.470588 406.72 
L 460.588235 406.72 
" clip-path="url(#pc57f311d89)" style="fill: none; stroke: #4c72b0; stroke-width: 1.5"/>
   </g>
   <g id="LineCollection_2">
    <path d="M 296.470588 517.6 
L 460.588235 517.6 
" clip-path="url(#pc57f311d89)" style="fill: none; stroke: #4c72b0; stroke-width: 1.5"/>
   </g>
   <g id="LineCollection_3">
    <path d="M 378.529412 517.6 
L 378.529412 406.72 
" clip-path="url(#pc57f311d89)" style="fill: none; stroke: #4c72b0; stroke-width: 1.5"/>
   </g>
   <g id="patch_3">
    <path d="M 198 640.8 
L 198 86.4 
" style="fill: none; stroke: #cccccc; stroke-width: 1.25; stroke-linejoin: miter; stroke-linecap: square"/>
   </g>
   <g id="patch_4">
    <path d="M 559.058824 640.8 
L 559.058824 86.4 
" style="fill: none; stroke: #cccccc; stroke-width: 1.25; stroke-linejoin: miter; stroke-linecap: square"/>
   </g>
   <g id="patch_5">
    <path d="M 198 640.8 
L 559.058824 640.8 
" style="fill: none; stroke: #cccccc; stroke-width: 1.25; stroke-linejoin: miter; stroke-linecap: square"/>
   </g>
   <g id="patch_6">
    <path d="M 198 86.4 
L 559.058824 86.4 
" style="fill: none; stroke: #cccccc; stroke-width: 1.25; stroke-linejoin: miter; stroke-linecap: square"/>
   </g>
   <g id="text_12">
    <g id="patch_7">
     <path d="M 239.133529 125.8625 
L 322.953529 125.8625 
L 322.953529 102.3775 
L 239.133529 102.3775 
z
" style="fill: #ffffff; stroke: #000000; stroke-linejoin: miter"/>
    </g>
    <!-- # seqs: 5 -->
    <g style="fill: #262626" transform="translate(243.133529 118.535) scale(0.16 -0.16)">
     <defs>
      <path id="DejaVuSans-23" d="M 3272 2816 
L 2363 2816 
L 2100 1772 
L 3016 1772 
L 3272 2816 
z
M 2803 4594 
L 2478 3297 
L 3391 3297 
L 3719 4594 
L 4219 4594 
L 3897 3297 
L 4872 3297 
L 4872 2816 
L 3775 2816 
L 3519 1772 
L 4513 1772 
L 4513 1294 
L 3397 1294 
L 3072 0 
L 2572 0 
L 2894 1294 
L 1978 1294 
L 1656 0 
L 1153 0 
L 1478 1294 
L 494 1294 
L 494 1772 
L 1594 1772 
L 1856 2816 
L 850 2816 
L 850 3297 
L 1978 3297 
L 2297 4594 
L 2803 4594 
z
" transform="scale(0.015625)"/>
      <path id="DejaVuSans-73" d="M 2834 3397 
L 2834 2853 
Q 2591 2978 2328 3040 
Q 2066 3103 1784 3103 
Q 1356 3103 1142 2972 
Q 928 2841 928 2578 
Q 928 2378 1081 2264 
Q 1234 2150 1697 2047 
L 1894 2003 
Q 2506 1872 2764 1633 
Q 3022 1394 3022 966 
Q 3022 478 2636 193 
Q 2250 -91 1575 -91 
Q 1294 -91 989 -36 
Q 684 19 347 128 
L 347 722 
Q 666 556 975 473 
Q 1284 391 1588 391 
Q 1994 391 2212 530 
Q 2431 669 2431 922 
Q 2431 1156 2273 1281 
Q 2116 1406 1581 1522 
L 1381 1569 
Q 847 1681 609 1914 
Q 372 2147 372 2553 
Q 372 3047 722 3315 
Q 1072 3584 1716 3584 
Q 2034 3584 2315 3537 
Q 2597 3491 2834 3397 
z
" transform="scale(0.015625)"/>
      <path id="DejaVuSans-71" d="M 947 1747 
Q 947 1113 1208 752 
Q 1469 391 1925 391 
Q 2381 391 2643 752 
Q 2906 1113 2906 1747 
Q 2906 2381 2643 2742 
Q 2381 3103 1925 3103 
Q 1469 3103 1208 2742 
Q 947 2381 947 1747 
z
M 2906 525 
Q 2725 213 2448 61 
Q 2172 -91 1784 -91 
Q 1150 -91 751 415 
Q 353 922 353 1747 
Q 353 2572 751 3078 
Q 1150 3584 1784 3584 
Q 2172 3584 2448 3432 
Q 2725 3281 2906 2969 
L 2906 3500 
L 3481 3500 
L 3481 -1331 
L 2906 -1331 
L 2906 525 
z
" transform="scale(0.015625)"/>
      <path id="DejaVuSans-3a" d="M 750 794 
L 1409 794 
L 1409 0 
L 750 0 
L 750 794 
z
M 750 3309 
L 1409 3309 
L 1409 2516 
L 750 2516 
L 750 3309 
z
" transform="scale(0.015625)"/>
     </defs>
     <use xlink:href="#DejaVuSans-23"/>
     <use xlink:href="#DejaVuSans-20" x="83.789062"/>
     <use xlink:href="#DejaVuSans-73" x="115.576172"/>
     <use xlink:href="#DejaVuSans-65" x="167.675781"/>
     <use xlink:href="#DejaVuSans-71" x="229.199219"/>
     <use xlink:href="#DejaVuSans-73" x="292.675781"/>
     <use xlink:href="#DejaVuSans-3a" x="344.775391"/>
     <use xlink:href="#DejaVuSans-20" x="378.466797"/>
     <use xlink:href="#DejaVuSans-35" x="410.253906"/>
    </g>
   </g>
   <g id="text_13">
    <g id="patch_8">
     <path d="M 216.949779 153.5825 
L 345.137279 153.5825 
L 345.137279 130.0975 
L 216.949779 130.0975 
z
" style="fill: #ffffff; stroke: #000000; stroke-linejoin: miter"/>
    </g>
    <!-- AVG length: 19 -->
    <g style="fill: #262626" transform="translate(220.949779 146.255) scale(0.16 -0.16)">
     <defs>
      <path id="DejaVuSans-41" d="M 2188 4044 
L 1331 1722 
L 3047 1722 
L 2188 4044 
z
M 1831 4666 
L 2547 4666 
L 4325 0 
L 3669 0 
L 3244 1197 
L 1141 1197 
L 716 0 
L 50 0 
L 1831 4666 
z
" transform="scale(0.015625)"/>
      <path id="DejaVuSans-56" d="M 1831 0 
L 50 4666 
L 709 4666 
L 2188 738 
L 3669 4666 
L 4325 4666 
L 2547 0 
L 1831 0 
z
" transform="scale(0.015625)"/>
      <path id="DejaVuSans-47" d="M 3809 666 
L 3809 1919 
L 2778 1919 
L 2778 2438 
L 4434 2438 
L 4434 434 
Q 4069 175 3628 42 
Q 3188 -91 2688 -91 
Q 1594 -91 976 548 
Q 359 1188 359 2328 
Q 359 3472 976 4111 
Q 1594 4750 2688 4750 
Q 3144 4750 3555 4637 
Q 3966 4525 4313 4306 
L 4313 3634 
Q 3963 3931 3569 4081 
Q 3175 4231 2741 4231 
Q 1884 4231 1454 3753 
Q 1025 3275 1025 2328 
Q 1025 1384 1454 906 
Q 1884 428 2741 428 
Q 3075 428 3337 486 
Q 3600 544 3809 666 
z
" transform="scale(0.015625)"/>
      <path id="DejaVuSans-39" d="M 703 97 
L 703 672 
Q 941 559 1184 500 
Q 1428 441 1663 441 
Q 2288 441 2617 861 
Q 2947 1281 2994 2138 
Q 2813 1869 2534 1725 
Q 2256 1581 1919 1581 
Q 1219 1581 811 2004 
Q 403 2428 403 3163 
Q 403 3881 828 4315 
Q 1253 4750 1959 4750 
Q 2769 4750 3195 4129 
Q 3622 3509 3622 2328 
Q 3622 1225 3098 567 
Q 2575 -91 1691 -91 
Q 1453 -91 1209 -44 
Q 966 3 703 97 
z
M 1959 2075 
Q 2384 2075 2632 2365 
Q 2881 2656 2881 3163 
Q 2881 3666 2632 3958 
Q 2384 4250 1959 4250 
Q 1534 4250 1286 3958 
Q 1038 3666 1038 3163 
Q 1038 2656 1286 2365 
Q 1534 2075 1959 2075 
z
" transform="scale(0.015625)"/>
     </defs>
     <use xlink:href="#DejaVuSans-41"/>
     <use xlink:href="#DejaVuSans-56" x="62.033203"/>
     <use xlink:href="#DejaVuSans-47" x="130.441406"/>
     <use xlink:href="#DejaVuSans-20" x="207.931641"/>
     <use xlink:href="#DejaVuSans-6c" x="239.71875"/>
     <use xlink:href="#DejaVuSans-65" x="267.501953"/>
     <use xlink:href="#DejaVuSans-6e" x="329.025391"/>
     <use xlink:href="#DejaVuSans-67" x="392.404297"/>
     <use xlink:href="#DejaVuSans-74" x="455.880859"/>
     <use xlink:href="#DejaVuSans-68" x="495.089844"/>
     <use xlink:href="#DejaVuSans-3a" x="558.46875"/>
     <use xlink:href="#DejaVuSans-20" x="592.160156"/>
     <use xlink:href="#DejaVuSans-31" x="623.947266"/>
     <use xlink:href="#DejaVuSans-39" x="687.570312"/>
    </g>
   </g>
   <g id="text_14">
    <!-- NON -->
    <g style="fill: #262626" transform="translate(355.695037 74.856) scale(0.2 -0.2)">
     <defs>
      <path id="DejaVuSans-4e" d="M 628 4666 
L 1478 4666 
L 3547 763 
L 3547 4666 
L 4159 4666 
L 4159 0 
L 3309 0 
L 1241 3903 
L 1241 0 
L 628 0 
L 628 4666 
z
" transform="scale(0.015625)"/>
      <path id="DejaVuSans-4f" d="M 2522 4238 
Q 1834 4238 1429 3725 
Q 1025 3213 1025 2328 
Q 1025 1447 1429 934 
Q 1834 422 2522 422 
Q 3209 422 3611 934 
Q 4013 1447 4013 2328 
Q 4013 3213 3611 3725 
Q 3209 4238 2522 4238 
z
M 2522 4750 
Q 3503 4750 4090 4092 
Q 4678 3434 4678 2328 
Q 4678 1225 4090 567 
Q 3503 -91 2522 -91 
Q 1538 -91 948 565 
Q 359 1222 359 2328 
Q 359 3434 948 4092 
Q 1538 4750 2522 4750 
z
" transform="scale(0.015625)"/>
     </defs>
     <use xlink:href="#DejaVuSans-4e"/>
     <use xlink:href="#DejaVuSans-4f" x="74.804688"/>
     <use xlink:href="#DejaVuSans-4e" x="153.515625"/>
    </g>
   </g>
  </g>
  <g id="axes_2">
   <g id="patch_9">
    <path d="M 631.270588 640.8 
L 992.329412 640.8 
L 992.329412 86.4 
L 631.270588 86.4 
z
" style="fill: #ffffff"/>
   </g>
   <g id="matplotlib.axis_3">
    <g id="text_15">
     <!-- CDR-H3 sequences -->
     <g style="fill: #262626" transform="translate(716.5 667.996875) scale(0.2 -0.2)">
      <defs>
       <path id="DejaVuSans-75" d="M 544 1381 
L 544 3500 
L 1119 3500 
L 1119 1403 
Q 1119 906 1312 657 
Q 1506 409 1894 409 
Q 2359 409 2629 706 
Q 2900 1003 2900 1516 
L 2900 3500 
L 3475 3500 
L 3475 0 
L 2900 0 
L 2900 538 
Q 2691 219 2414 64 
Q 2138 -91 1772 -91 
Q 1169 -91 856 284 
Q 544 659 544 1381 
z
M 1991 3584 
L 1991 3584 
z
" transform="scale(0.015625)"/>
       <path id="DejaVuSans-63" d="M 3122 3366 
L 3122 2828 
Q 2878 2963 2633 3030 
Q 2388 3097 2138 3097 
Q 1578 3097 1268 2742 
Q 959 2388 959 1747 
Q 959 1106 1268 751 
Q 1578 397 2138 397 
Q 2388 397 2633 464 
Q 2878 531 3122 666 
L 3122 134 
Q 2881 22 2623 -34 
Q 2366 -91 2075 -91 
Q 1284 -91 818 406 
Q 353 903 353 1747 
Q 353 2603 823 3093 
Q 1294 3584 2113 3584 
Q 2378 3584 2631 3529 
Q 2884 3475 3122 3366 
z
" transform="scale(0.015625)"/>
      </defs>
      <use xlink:href="#DejaVuSans-43"/>
      <use xlink:href="#DejaVuSans-44" x="69.824219"/>
      <use xlink:href="#DejaVuSans-52" x="146.826172"/>
      <use xlink:href="#DejaVuSans-2d" x="212.308594"/>
      <use xlink:href="#DejaVuSans-48" x="248.392578"/>
      <use xlink:href="#DejaVuSans-33" x="323.587891"/>
      <use xlink:href="#DejaVuSans-20" x="387.210938"/>
      <use xlink:href="#DejaVuSans-73" x="418.998047"/>
      <use xlink:href="#DejaVuSans-65" x="471.097656"/>
      <use xlink:href="#DejaVuSans-71" x="532.621094"/>
      <use xlink:href="#DejaVuSans-75" x="596.097656"/>
      <use xlink:href="#DejaVuSans-65" x="659.476562"/>
      <use xlink:href="#DejaVuSans-6e" x="721"/>
      <use xlink:href="#DejaVuSans-63" x="784.378906"/>
      <use xlink:href="#DejaVuSans-65" x="839.359375"/>
      <use xlink:href="#DejaVuSans-73" x="900.882812"/>
     </g>
    </g>
   </g>
   <g id="matplotlib.axis_4">
    <g id="ytick_11">
     <g id="line2d_11">
      <path d="M 631.270588 640.8 
L 992.329412 640.8 
" clip-path="url(#pdc3c3f5a12)" style="fill: none; stroke: #cccccc; stroke-linecap: round"/>
     </g>
     <g id="text_16">
      <!-- 5 -->
      <g style="fill: #262626" transform="translate(609.045588 648.398438) scale(0.2 -0.2)">
       <use xlink:href="#DejaVuSans-35"/>
      </g>
     </g>
    </g>
    <g id="ytick_12">
     <g id="line2d_12">
      <path d="M 631.270588 579.2 
L 992.329412 579.2 
" clip-path="url(#pdc3c3f5a12)" style="fill: none; stroke: #cccccc; stroke-linecap: round"/>
     </g>
     <g id="text_17">
      <!-- 10 -->
      <g style="fill: #262626" transform="translate(596.320588 586.798437) scale(0.2 -0.2)">
       <use xlink:href="#DejaVuSans-31"/>
       <use xlink:href="#DejaVuSans-30" x="63.623047"/>
      </g>
     </g>
    </g>
    <g id="ytick_13">
     <g id="line2d_13">
      <path d="M 631.270588 517.6 
L 992.329412 517.6 
" clip-path="url(#pdc3c3f5a12)" style="fill: none; stroke: #cccccc; stroke-linecap: round"/>
     </g>
     <g id="text_18">
      <!-- 15 -->
      <g style="fill: #262626" transform="translate(596.320588 525.198437) scale(0.2 -0.2)">
       <use xlink:href="#DejaVuSans-31"/>
       <use xlink:href="#DejaVuSans-35" x="63.623047"/>
      </g>
     </g>
    </g>
    <g id="ytick_14">
     <g id="line2d_14">
      <path d="M 631.270588 456 
L 992.329412 456 
" clip-path="url(#pdc3c3f5a12)" style="fill: none; stroke: #cccccc; stroke-linecap: round"/>
     </g>
     <g id="text_19">
      <!-- 20 -->
      <g style="fill: #262626" transform="translate(596.320588 463.598437) scale(0.2 -0.2)">
       <use xlink:href="#DejaVuSans-32"/>
       <use xlink:href="#DejaVuSans-30" x="63.623047"/>
      </g>
     </g>
    </g>
    <g id="ytick_15">
     <g id="line2d_15">
      <path d="M 631.270588 394.4 
L 992.329412 394.4 
" clip-path="url(#pdc3c3f5a12)" style="fill: none; stroke: #cccccc; stroke-linecap: round"/>
     </g>
     <g id="text_20">
      <!-- 25 -->
      <g style="fill: #262626" transform="translate(596.320588 401.998437) scale(0.2 -0.2)">
       <use xlink:href="#DejaVuSans-32"/>
       <use xlink:href="#DejaVuSans-35" x="63.623047"/>
      </g>
     </g>
    </g>
    <g id="ytick_16">
     <g id="line2d_16">
      <path d="M 631.270588 332.8 
L 992.329412 332.8 
" clip-path="url(#pdc3c3f5a12)" style="fill: none; stroke: #cccccc; stroke-linecap: round"/>
     </g>
     <g id="text_21">
      <!-- 30 -->
      <g style="fill: #262626" transform="translate(596.320588 340.398437) scale(0.2 -0.2)">
       <use xlink:href="#DejaVuSans-33"/>
       <use xlink:href="#DejaVuSans-30" x="63.623047"/>
      </g>
     </g>
    </g>
    <g id="ytick_17">
     <g id="line2d_17">
      <path d="M 631.270588 271.2 
L 992.329412 271.2 
" clip-path="url(#pdc3c3f5a12)" style="fill: none; stroke: #cccccc; stroke-linecap: round"/>
     </g>
     <g id="text_22">
      <!-- 35 -->
      <g style="fill: #262626" transform="translate(596.320588 278.798437) scale(0.2 -0.2)">
       <use xlink:href="#DejaVuSans-33"/>
       <use xlink:href="#DejaVuSans-35" x="63.623047"/>
      </g>
     </g>
    </g>
    <g id="ytick_18">
     <g id="line2d_18">
      <path d="M 631.270588 209.6 
L 992.329412 209.6 
" clip-path="url(#pdc3c3f5a12)" style="fill: none; stroke: #cccccc; stroke-linecap: round"/>
     </g>
     <g id="text_23">
      <!-- 40 -->
      <g style="fill: #262626" transform="translate(596.320588 217.198437) scale(0.2 -0.2)">
       <use xlink:href="#DejaVuSans-34"/>
       <use xlink:href="#DejaVuSans-30" x="63.623047"/>
      </g>
     </g>
    </g>
    <g id="ytick_19">
     <g id="line2d_19">
      <path d="M 631.270588 148 
L 992.329412 148 
" clip-path="url(#pdc3c3f5a12)" style="fill: none; stroke: #cccccc; stroke-linecap: round"/>
     </g>
     <g id="text_24">
      <!-- 45 -->
      <g style="fill: #262626" transform="translate(596.320588 155.598437) scale(0.2 -0.2)">
       <use xlink:href="#DejaVuSans-34"/>
       <use xlink:href="#DejaVuSans-35" x="63.623047"/>
      </g>
     </g>
    </g>
    <g id="ytick_20">
     <g id="line2d_20">
      <path d="M 631.270588 86.4 
L 992.329412 86.4 
" clip-path="url(#pdc3c3f5a12)" style="fill: none; stroke: #cccccc; stroke-linecap: round"/>
     </g>
     <g id="text_25">
      <!-- 50 -->
      <g style="fill: #262626" transform="translate(596.320588 93.998437) scale(0.2 -0.2)">
       <use xlink:href="#DejaVuSans-35"/>
       <use xlink:href="#DejaVuSans-30" x="63.623047"/>
      </g>
     </g>
    </g>
   </g>
   <g id="PolyCollection_2">
    <defs>
     <path id="m2450b02d3c" d="M 878.93747 -140.8 
L 744.66253 -140.8 
L 739.201043 -144.408889 
L 733.597915 -148.017778 
L 727.882975 -151.626667 
L 722.088968 -155.235556 
L 716.251274 -158.844444 
L 710.407573 -162.453333 
L 704.597448 -166.062222 
L 698.861932 -169.671111 
L 693.243008 -173.28 
L 687.783066 -176.888889 
L 682.524325 -180.497778 
L 677.508234 -184.106667 
L 672.774852 -187.715556 
L 668.362241 -191.324444 
L 664.30587 -194.933333 
L 660.638042 -198.542222 
L 657.387378 -202.151111 
L 654.578351 -205.76 
L 652.2309 -209.368889 
L 650.36012 -212.977778 
L 648.97605 -216.586667 
L 648.083562 -220.195556 
L 647.682353 -223.804444 
L 647.767039 -227.413333 
L 648.327357 -231.022222 
L 649.348457 -234.631111 
L 650.811289 -238.24 
L 652.693063 -241.848889 
L 654.967776 -245.457778 
L 657.606782 -249.066667 
L 660.579401 -252.675556 
L 663.853537 -256.284444 
L 667.396295 -259.893333 
L 671.174575 -263.502222 
L 675.155633 -267.111111 
L 679.307587 -270.72 
L 683.599855 -274.328889 
L 688.00352 -277.937778 
L 692.491611 -281.546667 
L 697.039291 -285.155556 
L 701.623959 -288.764444 
L 706.225255 -292.373333 
L 710.824994 -295.982222 
L 715.407009 -299.591111 
L 719.956946 -303.2 
L 724.461995 -306.808889 
L 728.9106 -310.417778 
L 733.292147 -314.026667 
L 737.596646 -317.635556 
L 741.814444 -321.244444 
L 745.935956 -324.853333 
L 749.951451 -328.462222 
L 753.850888 -332.071111 
L 757.623816 -335.68 
L 761.259336 -339.288889 
L 764.74613 -342.897778 
L 768.072551 -346.506667 
L 771.226763 -350.115556 
L 774.196928 -353.724444 
L 776.971427 -357.333333 
L 779.539101 -360.942222 
L 781.889505 -364.551111 
L 784.013158 -368.16 
L 785.90179 -371.768889 
L 787.54856 -375.377778 
L 788.948267 -378.986667 
L 790.09752 -382.595556 
L 790.994893 -386.204444 
L 791.641047 -389.813333 
L 792.038828 -393.422222 
L 792.193343 -397.031111 
L 792.112017 -400.64 
L 791.804628 -404.248889 
L 791.283322 -407.857778 
L 790.562611 -411.466667 
L 789.659344 -415.075556 
L 788.592647 -418.684444 
L 787.383835 -422.293333 
L 786.056277 -425.902222 
L 784.635215 -429.511111 
L 783.147522 -433.12 
L 781.621414 -436.728889 
L 780.086083 -440.337778 
L 778.571285 -443.946667 
L 777.10686 -447.555556 
L 775.722206 -451.164444 
L 774.445724 -454.773333 
L 773.304232 -458.382222 
L 772.322385 -461.991111 
L 771.52211 -465.6 
L 770.922086 -469.208889 
L 770.537286 -472.817778 
L 770.378602 -476.426667 
L 770.452575 -480.035556 
L 770.761237 -483.644444 
L 771.302085 -487.253333 
L 772.068178 -490.862222 
L 773.048367 -494.471111 
L 774.227644 -498.08 
L 849.372356 -498.08 
L 849.372356 -498.08 
L 850.551633 -494.471111 
L 851.531822 -490.862222 
L 852.297915 -487.253333 
L 852.838763 -483.644444 
L 853.147425 -480.035556 
L 853.221398 -476.426667 
L 853.062714 -472.817778 
L 852.677914 -469.208889 
L 852.07789 -465.6 
L 851.277615 -461.991111 
L 850.295768 -458.382222 
L 849.154276 -454.773333 
L 847.877794 -451.164444 
L 846.49314 -447.555556 
L 845.028715 -443.946667 
L 843.513917 -440.337778 
L 841.978586 -436.728889 
L 840.452478 -433.12 
L 838.964785 -429.511111 
L 837.543723 -425.902222 
L 836.216165 -422.293333 
L 835.007353 -418.684444 
L 833.940656 -415.075556 
L 833.037389 -411.466667 
L 832.316678 -407.857778 
L 831.795372 -404.248889 
L 831.487983 -400.64 
L 831.406657 -397.031111 
L 831.561172 -393.422222 
L 831.958953 -389.813333 
L 832.605107 -386.204444 
L 833.50248 -382.595556 
L 834.651733 -378.986667 
L 836.05144 -375.377778 
L 837.69821 -371.768889 
L 839.586842 -368.16 
L 841.710495 -364.551111 
L 844.060899 -360.942222 
L 846.628573 -357.333333 
L 849.403072 -353.724444 
L 852.373237 -350.115556 
L 855.527449 -346.506667 
L 858.85387 -342.897778 
L 862.340664 -339.288889 
L 865.976184 -335.68 
L 869.749112 -332.071111 
L 873.648549 -328.462222 
L 877.664044 -324.853333 
L 881.785556 -321.244444 
L 886.003354 -317.635556 
L 890.307853 -314.026667 
L 894.6894 -310.417778 
L 899.138005 -306.808889 
L 903.643054 -303.2 
L 908.192991 -299.591111 
L 912.775006 -295.982222 
L 917.374745 -292.373333 
L 921.976041 -288.764444 
L 926.560709 -285.155556 
L 931.108389 -281.546667 
L 935.59648 -277.937778 
L 940.000145 -274.328889 
L 944.292413 -270.72 
L 948.444367 -267.111111 
L 952.425425 -263.502222 
L 956.203705 -259.893333 
L 959.746463 -256.284444 
L 963.020599 -252.675556 
L 965.993218 -249.066667 
L 968.632224 -245.457778 
L 970.906937 -241.848889 
L 972.788711 -238.24 
L 974.251543 -234.631111 
L 975.272643 -231.022222 
L 975.832961 -227.413333 
L 975.917647 -223.804444 
L 975.516438 -220.195556 
L 974.62395 -216.586667 
L 973.23988 -212.977778 
L 971.3691 -209.368889 
L 969.021649 -205.76 
L 966.212622 -202.151111 
L 962.961958 -198.542222 
L 959.29413 -194.933333 
L 955.237759 -191.324444 
L 950.825148 -187.715556 
L 946.091766 -184.106667 
L 941.075675 -180.497778 
L 935.816934 -176.888889 
L 930.356992 -173.28 
L 924.738068 -169.671111 
L 919.002552 -166.062222 
L 913.192427 -162.453333 
L 907.348726 -158.844444 
L 901.511032 -155.235556 
L 895.717025 -151.626667 
L 890.002085 -148.017778 
L 884.398957 -144.408889 
L 878.93747 -140.8 
z
" style="stroke: #ffffff; stroke-opacity: 0.3"/>
    </defs>
    <g clip-path="url(#pdc3c3f5a12)">
     <use xlink:href="#m2450b02d3c" x="0" y="720" style="fill: #377eb8; fill-opacity: 0.3; stroke: #ffffff; stroke-opacity: 0.3"/>
    </g>
   </g>
   <g id="LineCollection_4">
    <path d="M 729.741176 221.92 
L 893.858824 221.92 
" clip-path="url(#pdc3c3f5a12)" style="fill: none; stroke: #4c72b0; stroke-width: 1.5"/>
   </g>
   <g id="LineCollection_5">
    <path d="M 729.741176 579.2 
L 893.858824 579.2 
" clip-path="url(#pdc3c3f5a12)" style="fill: none; stroke: #4c72b0; stroke-width: 1.5"/>
   </g>
   <g id="LineCollection_6">
    <path d="M 811.8 579.2 
L 811.8 221.92 
" clip-path="url(#pdc3c3f5a12)" style="fill: none; stroke: #4c72b0; stroke-width: 1.5"/>
   </g>
   <g id="patch_10">
    <path d="M 631.270588 640.8 
L 631.270588 86.4 
" style="fill: none; stroke: #cccccc; stroke-width: 1.25; stroke-linejoin: miter; stroke-linecap: square"/>
   </g>
   <g id="patch_11">
    <path d="M 992.329412 640.8 
L 992.329412 86.4 
" style="fill: none; stroke: #cccccc; stroke-width: 1.25; stroke-linejoin: miter; stroke-linecap: square"/>
   </g>
   <g id="patch_12">
    <path d="M 631.270588 640.8 
L 992.329412 640.8 
" style="fill: none; stroke: #cccccc; stroke-width: 1.25; stroke-linejoin: miter; stroke-linecap: square"/>
   </g>
   <g id="patch_13">
    <path d="M 631.270588 86.4 
L 992.329412 86.4 
" style="fill: none; stroke: #cccccc; stroke-width: 1.25; stroke-linejoin: miter; stroke-linecap: square"/>
   </g>
   <g id="text_26">
    <g id="patch_14">
     <path d="M 667.314118 125.8625 
L 761.314118 125.8625 
L 761.314118 102.3775 
L 667.314118 102.3775 
z
" style="fill: #ffffff; stroke: #000000; stroke-linejoin: miter"/>
    </g>
    <!-- # seqs: 59 -->
    <g style="fill: #262626" transform="translate(671.314118 118.535) scale(0.16 -0.16)">
     <use xlink:href="#DejaVuSans-23"/>
     <use xlink:href="#DejaVuSans-20" x="83.789062"/>
     <use xlink:href="#DejaVuSans-73" x="115.576172"/>
     <use xlink:href="#DejaVuSans-65" x="167.675781"/>
     <use xlink:href="#DejaVuSans-71" x="229.199219"/>
     <use xlink:href="#DejaVuSans-73" x="292.675781"/>
     <use xlink:href="#DejaVuSans-3a" x="344.775391"/>
     <use xlink:href="#DejaVuSans-20" x="378.466797"/>
     <use xlink:href="#DejaVuSans-35" x="410.253906"/>
     <use xlink:href="#DejaVuSans-39" x="473.876953"/>
    </g>
   </g>
   <g id="text_27">
    <g id="patch_15">
     <path d="M 650.220368 153.5825 
L 778.407868 153.5825 
L 778.407868 130.0975 
L 650.220368 130.0975 
z
" style="fill: #ffffff; stroke: #000000; stroke-linejoin: miter"/>
    </g>
    <!-- AVG length: 20 -->
    <g style="fill: #262626" transform="translate(654.220368 146.255) scale(0.16 -0.16)">
     <use xlink:href="#DejaVuSans-41"/>
     <use xlink:href="#DejaVuSans-56" x="62.033203"/>
     <use xlink:href="#DejaVuSans-47" x="130.441406"/>
     <use xlink:href="#DejaVuSans-20" x="207.931641"/>
     <use xlink:href="#DejaVuSans-6c" x="239.71875"/>
     <use xlink:href="#DejaVuSans-65" x="267.501953"/>
     <use xlink:href="#DejaVuSans-6e" x="329.025391"/>
     <use xlink:href="#DejaVuSans-67" x="392.404297"/>
     <use xlink:href="#DejaVuSans-74" x="455.880859"/>
     <use xlink:href="#DejaVuSans-68" x="495.089844"/>
     <use xlink:href="#DejaVuSans-3a" x="558.46875"/>
     <use xlink:href="#DejaVuSans-20" x="592.160156"/>
     <use xlink:href="#DejaVuSans-32" x="623.947266"/>
     <use xlink:href="#DejaVuSans-30" x="687.570312"/>
    </g>
   </g>
   <g id="text_28">
    <!-- NEU -->
    <g style="fill: #262626" transform="translate(790.68125 74.856) scale(0.2 -0.2)">
     <defs>
      <path id="DejaVuSans-45" d="M 628 4666 
L 3578 4666 
L 3578 4134 
L 1259 4134 
L 1259 2753 
L 3481 2753 
L 3481 2222 
L 1259 2222 
L 1259 531 
L 3634 531 
L 3634 0 
L 628 0 
L 628 4666 
z
" transform="scale(0.015625)"/>
      <path id="DejaVuSans-55" d="M 556 4666 
L 1191 4666 
L 1191 1831 
Q 1191 1081 1462 751 
Q 1734 422 2344 422 
Q 2950 422 3222 751 
Q 3494 1081 3494 1831 
L 3494 4666 
L 4128 4666 
L 4128 1753 
Q 4128 841 3676 375 
Q 3225 -91 2344 -91 
Q 1459 -91 1007 375 
Q 556 841 556 1753 
L 556 4666 
z
" transform="scale(0.015625)"/>
     </defs>
     <use xlink:href="#DejaVuSans-4e"/>
     <use xlink:href="#DejaVuSans-45" x="74.804688"/>
     <use xlink:href="#DejaVuSans-55" x="137.988281"/>
    </g>
   </g>
  </g>
  <g id="axes_3">
   <g id="patch_16">
    <path d="M 1064.541176 640.8 
L 1425.6 640.8 
L 1425.6 86.4 
L 1064.541176 86.4 
z
" style="fill: #ffffff"/>
   </g>
   <g id="matplotlib.axis_5"/>
   <g id="matplotlib.axis_6">
    <g id="ytick_21">
     <g id="line2d_21">
      <path d="M 1064.541176 640.8 
L 1425.6 640.8 
" clip-path="url(#p3d830909c4)" style="fill: none; stroke: #cccccc; stroke-linecap: round"/>
     </g>
     <g id="text_29">
      <!-- 5 -->
      <g style="fill: #262626" transform="translate(1042.316176 648.398438) scale(0.2 -0.2)">
       <use xlink:href="#DejaVuSans-35"/>
      </g>
     </g>
    </g>
    <g id="ytick_22">
     <g id="line2d_22">
      <path d="M 1064.541176 579.2 
L 1425.6 579.2 
" clip-path="url(#p3d830909c4)" style="fill: none; stroke: #cccccc; stroke-linecap: round"/>
     </g>
     <g id="text_30">
      <!-- 10 -->
      <g style="fill: #262626" transform="translate(1029.591176 586.798437) scale(0.2 -0.2)">
       <use xlink:href="#DejaVuSans-31"/>
       <use xlink:href="#DejaVuSans-30" x="63.623047"/>
      </g>
     </g>
    </g>
    <g id="ytick_23">
     <g id="line2d_23">
      <path d="M 1064.541176 517.6 
L 1425.6 517.6 
" clip-path="url(#p3d830909c4)" style="fill: none; stroke: #cccccc; stroke-linecap: round"/>
     </g>
     <g id="text_31">
      <!-- 15 -->
      <g style="fill: #262626" transform="translate(1029.591176 525.198437) scale(0.2 -0.2)">
       <use xlink:href="#DejaVuSans-31"/>
       <use xlink:href="#DejaVuSans-35" x="63.623047"/>
      </g>
     </g>
    </g>
    <g id="ytick_24">
     <g id="line2d_24">
      <path d="M 1064.541176 456 
L 1425.6 456 
" clip-path="url(#p3d830909c4)" style="fill: none; stroke: #cccccc; stroke-linecap: round"/>
     </g>
     <g id="text_32">
      <!-- 20 -->
      <g style="fill: #262626" transform="translate(1029.591176 463.598437) scale(0.2 -0.2)">
       <use xlink:href="#DejaVuSans-32"/>
       <use xlink:href="#DejaVuSans-30" x="63.623047"/>
      </g>
     </g>
    </g>
    <g id="ytick_25">
     <g id="line2d_25">
      <path d="M 1064.541176 394.4 
L 1425.6 394.4 
" clip-path="url(#p3d830909c4)" style="fill: none; stroke: #cccccc; stroke-linecap: round"/>
     </g>
     <g id="text_33">
      <!-- 25 -->
      <g style="fill: #262626" transform="translate(1029.591176 401.998437) scale(0.2 -0.2)">
       <use xlink:href="#DejaVuSans-32"/>
       <use xlink:href="#DejaVuSans-35" x="63.623047"/>
      </g>
     </g>
    </g>
    <g id="ytick_26">
     <g id="line2d_26">
      <path d="M 1064.541176 332.8 
L 1425.6 332.8 
" clip-path="url(#p3d830909c4)" style="fill: none; stroke: #cccccc; stroke-linecap: round"/>
     </g>
     <g id="text_34">
      <!-- 30 -->
      <g style="fill: #262626" transform="translate(1029.591176 340.398437) scale(0.2 -0.2)">
       <use xlink:href="#DejaVuSans-33"/>
       <use xlink:href="#DejaVuSans-30" x="63.623047"/>
      </g>
     </g>
    </g>
    <g id="ytick_27">
     <g id="line2d_27">
      <path d="M 1064.541176 271.2 
L 1425.6 271.2 
" clip-path="url(#p3d830909c4)" style="fill: none; stroke: #cccccc; stroke-linecap: round"/>
     </g>
     <g id="text_35">
      <!-- 35 -->
      <g style="fill: #262626" transform="translate(1029.591176 278.798437) scale(0.2 -0.2)">
       <use xlink:href="#DejaVuSans-33"/>
       <use xlink:href="#DejaVuSans-35" x="63.623047"/>
      </g>
     </g>
    </g>
    <g id="ytick_28">
     <g id="line2d_28">
      <path d="M 1064.541176 209.6 
L 1425.6 209.6 
" clip-path="url(#p3d830909c4)" style="fill: none; stroke: #cccccc; stroke-linecap: round"/>
     </g>
     <g id="text_36">
      <!-- 40 -->
      <g style="fill: #262626" transform="translate(1029.591176 217.198437) scale(0.2 -0.2)">
       <use xlink:href="#DejaVuSans-34"/>
       <use xlink:href="#DejaVuSans-30" x="63.623047"/>
      </g>
     </g>
    </g>
    <g id="ytick_29">
     <g id="line2d_29">
      <path d="M 1064.541176 148 
L 1425.6 148 
" clip-path="url(#p3d830909c4)" style="fill: none; stroke: #cccccc; stroke-linecap: round"/>
     </g>
     <g id="text_37">
      <!-- 45 -->
      <g style="fill: #262626" transform="translate(1029.591176 155.598437) scale(0.2 -0.2)">
       <use xlink:href="#DejaVuSans-34"/>
       <use xlink:href="#DejaVuSans-35" x="63.623047"/>
      </g>
     </g>
    </g>
    <g id="ytick_30">
     <g id="line2d_30">
      <path d="M 1064.541176 86.4 
L 1425.6 86.4 
" clip-path="url(#p3d830909c4)" style="fill: none; stroke: #cccccc; stroke-linecap: round"/>
     </g>
     <g id="text_38">
      <!-- 50 -->
      <g style="fill: #262626" transform="translate(1029.591176 93.998437) scale(0.2 -0.2)">
       <use xlink:href="#DejaVuSans-35"/>
       <use xlink:href="#DejaVuSans-30" x="63.623047"/>
      </g>
     </g>
    </g>
   </g>
   <g id="PolyCollection_3">
    <defs>
     <path id="mdae8ccfb41" d="M 1283.31675 -140.8 
L 1206.824426 -140.8 
L 1201.784109 -144.408889 
L 1196.364794 -148.017778 
L 1190.586234 -151.626667 
L 1184.477587 -155.235556 
L 1178.077637 -158.844444 
L 1171.434633 -162.453333 
L 1164.60567 -166.062222 
L 1157.655614 -169.671111 
L 1150.655578 -173.28 
L 1143.680995 -176.888889 
L 1136.809377 -180.497778 
L 1130.117864 -184.106667 
L 1123.6807 -187.715556 
L 1117.566775 -191.324444 
L 1111.837392 -194.933333 
L 1106.54437 -198.542222 
L 1101.728625 -202.151111 
L 1097.419296 -205.76 
L 1093.633456 -209.368889 
L 1090.376431 -212.977778 
L 1087.642669 -216.586667 
L 1085.417103 -220.195556 
L 1083.676884 -223.804444 
L 1082.393365 -227.413333 
L 1081.534185 -231.022222 
L 1081.065318 -234.631111 
L 1080.952941 -238.24 
L 1081.165013 -241.848889 
L 1081.672473 -245.457778 
L 1082.450011 -249.066667 
L 1083.476392 -252.675556 
L 1084.734372 -256.284444 
L 1086.210248 -259.893333 
L 1087.893153 -263.502222 
L 1089.774198 -267.111111 
L 1091.845581 -270.72 
L 1094.099777 -274.328889 
L 1096.528904 -277.937778 
L 1099.124343 -281.546667 
L 1101.876632 -285.155556 
L 1104.775626 -288.764444 
L 1107.810906 -292.373333 
L 1110.972316 -295.982222 
L 1114.25058 -299.591111 
L 1117.637856 -303.2 
L 1121.128152 -306.808889 
L 1124.717509 -310.417778 
L 1128.403911 -314.026667 
L 1132.186887 -317.635556 
L 1136.066851 -321.244444 
L 1140.044203 -324.853333 
L 1144.118297 -328.462222 
L 1148.286352 -332.071111 
L 1152.542421 -335.68 
L 1156.876514 -339.288889 
L 1161.273938 -342.897778 
L 1165.714934 -346.506667 
L 1170.174633 -350.115556 
L 1174.623324 -353.724444 
L 1179.027044 -357.333333 
L 1183.348413 -360.942222 
L 1187.547695 -364.551111 
L 1191.58399 -368.16 
L 1195.416524 -371.768889 
L 1199.005932 -375.377778 
L 1202.315513 -378.986667 
L 1205.312368 -382.595556 
L 1207.968397 -386.204444 
L 1210.26111 -389.813333 
L 1212.174225 -393.422222 
L 1213.698051 -397.031111 
L 1214.829637 -400.64 
L 1215.572722 -404.248889 
L 1215.937497 -407.857778 
L 1215.940215 -411.466667 
L 1215.60271 -415.075556 
L 1214.951849 -418.684444 
L 1214.018983 -422.293333 
L 1212.83942 -425.902222 
L 1211.451953 -429.511111 
L 1209.898438 -433.12 
L 1208.223422 -436.728889 
L 1206.473774 -440.337778 
L 1204.698279 -443.946667 
L 1202.947139 -447.555556 
L 1201.27133 -451.164444 
L 1199.721763 -454.773333 
L 1198.348241 -458.382222 
L 1197.198204 -461.991111 
L 1196.315305 -465.6 
L 1195.737885 -469.208889 
L 1195.497439 -472.817778 
L 1195.617184 -476.426667 
L 1196.110848 -480.035556 
L 1196.981796 -483.644444 
L 1198.222584 -487.253333 
L 1199.815007 -490.862222 
L 1201.730665 -494.471111 
L 1203.932041 -498.08 
L 1286.209135 -498.08 
L 1286.209135 -498.08 
L 1288.410511 -494.471111 
L 1290.32617 -490.862222 
L 1291.918593 -487.253333 
L 1293.159381 -483.644444 
L 1294.030328 -480.035556 
L 1294.523992 -476.426667 
L 1294.643737 -472.817778 
L 1294.403292 -469.208889 
L 1293.825872 -465.6 
L 1292.942973 -461.991111 
L 1291.792935 -458.382222 
L 1290.419413 -454.773333 
L 1288.869847 -451.164444 
L 1287.194037 -447.555556 
L 1285.442898 -443.946667 
L 1283.667402 -440.337778 
L 1281.917754 -436.728889 
L 1280.242739 -433.12 
L 1278.689224 -429.511111 
L 1277.301756 -425.902222 
L 1276.122193 -422.293333 
L 1275.189327 -418.684444 
L 1274.538467 -415.075556 
L 1274.200962 -411.466667 
L 1274.20368 -407.857778 
L 1274.568454 -404.248889 
L 1275.31154 -400.64 
L 1276.443126 -397.031111 
L 1277.966951 -393.422222 
L 1279.880067 -389.813333 
L 1282.172779 -386.204444 
L 1284.828808 -382.595556 
L 1287.825663 -378.986667 
L 1291.135244 -375.377778 
L 1294.724653 -371.768889 
L 1298.557186 -368.16 
L 1302.593482 -364.551111 
L 1306.792763 -360.942222 
L 1311.114133 -357.333333 
L 1315.517852 -353.724444 
L 1319.966544 -350.115556 
L 1324.426242 -346.506667 
L 1328.867239 -342.897778 
L 1333.264662 -339.288889 
L 1337.598755 -335.68 
L 1341.854825 -332.071111 
L 1346.022879 -328.462222 
L 1350.096973 -324.853333 
L 1354.074326 -321.244444 
L 1357.95429 -317.635556 
L 1361.737266 -314.026667 
L 1365.423667 -310.417778 
L 1369.013024 -306.808889 
L 1372.50332 -303.2 
L 1375.890596 -299.591111 
L 1379.16886 -295.982222 
L 1382.330271 -292.373333 
L 1385.36555 -288.764444 
L 1388.264545 -285.155556 
L 1391.016833 -281.546667 
L 1393.612273 -277.937778 
L 1396.0414 -274.328889 
L 1398.295595 -270.72 
L 1400.366978 -267.111111 
L 1402.248024 -263.502222 
L 1403.930929 -259.893333 
L 1405.406804 -256.284444 
L 1406.664784 -252.675556 
L 1407.691166 -249.066667 
L 1408.468703 -245.457778 
L 1408.976163 -241.848889 
L 1409.188235 -238.24 
L 1409.075859 -234.631111 
L 1408.606992 -231.022222 
L 1407.747812 -227.413333 
L 1406.464292 -223.804444 
L 1404.724073 -220.195556 
L 1402.498507 -216.586667 
L 1399.764746 -212.977778 
L 1396.50772 -209.368889 
L 1392.72188 -205.76 
L 1388.412551 -202.151111 
L 1383.596807 -198.542222 
L 1378.303785 -194.933333 
L 1372.574401 -191.324444 
L 1366.460477 -187.715556 
L 1360.023312 -184.106667 
L 1353.331799 -180.497778 
L 1346.460181 -176.888889 
L 1339.485598 -173.28 
L 1332.485562 -169.671111 
L 1325.535507 -166.062222 
L 1318.706544 -162.453333 
L 1312.063539 -158.844444 
L 1305.66359 -155.235556 
L 1299.554942 -151.626667 
L 1293.776383 -148.017778 
L 1288.357067 -144.408889 
L 1283.31675 -140.8 
z
" style="stroke: #ffffff; stroke-opacity: 0.3"/>
    </defs>
    <g clip-path="url(#p3d830909c4)">
     <use xlink:href="#mdae8ccfb41" x="0" y="720" style="fill: #4daf4a; fill-opacity: 0.3; stroke: #ffffff; stroke-opacity: 0.3"/>
    </g>
   </g>
   <g id="LineCollection_7">
    <path d="M 1163.011765 221.92 
L 1327.129412 221.92 
" clip-path="url(#p3d830909c4)" style="fill: none; stroke: #4c72b0; stroke-width: 1.5"/>
   </g>
   <g id="LineCollection_8">
    <path d="M 1163.011765 579.2 
L 1327.129412 579.2 
" clip-path="url(#p3d830909c4)" style="fill: none; stroke: #4c72b0; stroke-width: 1.5"/>
   </g>
   <g id="LineCollection_9">
    <path d="M 1245.070588 579.2 
L 1245.070588 221.92 
" clip-path="url(#p3d830909c4)" style="fill: none; stroke: #4c72b0; stroke-width: 1.5"/>
   </g>
   <g id="patch_17">
    <path d="M 1064.541176 640.8 
L 1064.541176 86.4 
" style="fill: none; stroke: #cccccc; stroke-width: 1.25; stroke-linejoin: miter; stroke-linecap: square"/>
   </g>
   <g id="patch_18">
    <path d="M 1425.6 640.8 
L 1425.6 86.4 
" style="fill: none; stroke: #cccccc; stroke-width: 1.25; stroke-linejoin: miter; stroke-linecap: square"/>
   </g>
   <g id="patch_19">
    <path d="M 1064.541176 640.8 
L 1425.6 640.8 
" style="fill: none; stroke: #cccccc; stroke-width: 1.25; stroke-linejoin: miter; stroke-linecap: square"/>
   </g>
   <g id="patch_20">
    <path d="M 1064.541176 86.4 
L 1425.6 86.4 
" style="fill: none; stroke: #cccccc; stroke-width: 1.25; stroke-linejoin: miter; stroke-linecap: square"/>
   </g>
   <g id="text_39">
    <g id="patch_21">
     <path d="M 1095.494706 125.8625 
L 1199.674706 125.8625 
L 1199.674706 102.3775 
L 1095.494706 102.3775 
z
" style="fill: #ffffff; stroke: #000000; stroke-linejoin: miter"/>
    </g>
    <!-- # seqs: 184 -->
    <g style="fill: #262626" transform="translate(1099.494706 118.535) scale(0.16 -0.16)">
     <defs>
      <path id="DejaVuSans-38" d="M 2034 2216 
Q 1584 2216 1326 1975 
Q 1069 1734 1069 1313 
Q 1069 891 1326 650 
Q 1584 409 2034 409 
Q 2484 409 2743 651 
Q 3003 894 3003 1313 
Q 3003 1734 2745 1975 
Q 2488 2216 2034 2216 
z
M 1403 2484 
Q 997 2584 770 2862 
Q 544 3141 544 3541 
Q 544 4100 942 4425 
Q 1341 4750 2034 4750 
Q 2731 4750 3128 4425 
Q 3525 4100 3525 3541 
Q 3525 3141 3298 2862 
Q 3072 2584 2669 2484 
Q 3125 2378 3379 2068 
Q 3634 1759 3634 1313 
Q 3634 634 3220 271 
Q 2806 -91 2034 -91 
Q 1263 -91 848 271 
Q 434 634 434 1313 
Q 434 1759 690 2068 
Q 947 2378 1403 2484 
z
M 1172 3481 
Q 1172 3119 1398 2916 
Q 1625 2713 2034 2713 
Q 2441 2713 2670 2916 
Q 2900 3119 2900 3481 
Q 2900 3844 2670 4047 
Q 2441 4250 2034 4250 
Q 1625 4250 1398 4047 
Q 1172 3844 1172 3481 
z
" transform="scale(0.015625)"/>
     </defs>
     <use xlink:href="#DejaVuSans-23"/>
     <use xlink:href="#DejaVuSans-20" x="83.789062"/>
     <use xlink:href="#DejaVuSans-73" x="115.576172"/>
     <use xlink:href="#DejaVuSans-65" x="167.675781"/>
     <use xlink:href="#DejaVuSans-71" x="229.199219"/>
     <use xlink:href="#DejaVuSans-73" x="292.675781"/>
     <use xlink:href="#DejaVuSans-3a" x="344.775391"/>
     <use xlink:href="#DejaVuSans-20" x="378.466797"/>
     <use xlink:href="#DejaVuSans-31" x="410.253906"/>
     <use xlink:href="#DejaVuSans-38" x="473.876953"/>
     <use xlink:href="#DejaVuSans-34" x="537.5"/>
    </g>
   </g>
   <g id="text_40">
    <g id="patch_22">
     <path d="M 1083.490956 153.5825 
L 1211.678456 153.5825 
L 1211.678456 130.0975 
L 1083.490956 130.0975 
z
" style="fill: #ffffff; stroke: #000000; stroke-linejoin: miter"/>
    </g>
    <!-- AVG length: 22 -->
    <g style="fill: #262626" transform="translate(1087.490956 146.255) scale(0.16 -0.16)">
     <use xlink:href="#DejaVuSans-41"/>
     <use xlink:href="#DejaVuSans-56" x="62.033203"/>
     <use xlink:href="#DejaVuSans-47" x="130.441406"/>
     <use xlink:href="#DejaVuSans-20" x="207.931641"/>
     <use xlink:href="#DejaVuSans-6c" x="239.71875"/>
     <use xlink:href="#DejaVuSans-65" x="267.501953"/>
     <use xlink:href="#DejaVuSans-6e" x="329.025391"/>
     <use xlink:href="#DejaVuSans-67" x="392.404297"/>
     <use xlink:href="#DejaVuSans-74" x="455.880859"/>
     <use xlink:href="#DejaVuSans-68" x="495.089844"/>
     <use xlink:href="#DejaVuSans-3a" x="558.46875"/>
     <use xlink:href="#DejaVuSans-20" x="592.160156"/>
     <use xlink:href="#DejaVuSans-32" x="623.947266"/>
     <use xlink:href="#DejaVuSans-32" x="687.570312"/>
    </g>
   </g>
   <g id="text_41">
    <!-- BRO -->
    <g style="fill: #262626" transform="translate(1223.389338 74.856) scale(0.2 -0.2)">
     <defs>
      <path id="DejaVuSans-42" d="M 1259 2228 
L 1259 519 
L 2272 519 
Q 2781 519 3026 730 
Q 3272 941 3272 1375 
Q 3272 1813 3026 2020 
Q 2781 2228 2272 2228 
L 1259 2228 
z
M 1259 4147 
L 1259 2741 
L 2194 2741 
Q 2656 2741 2882 2914 
Q 3109 3088 3109 3444 
Q 3109 3797 2882 3972 
Q 2656 4147 2194 4147 
L 1259 4147 
z
M 628 4666 
L 2241 4666 
Q 2963 4666 3353 4366 
Q 3744 4066 3744 3513 
Q 3744 3084 3544 2831 
Q 3344 2578 2956 2516 
Q 3422 2416 3680 2098 
Q 3938 1781 3938 1306 
Q 3938 681 3513 340 
Q 3088 0 2303 0 
L 628 0 
L 628 4666 
z
" transform="scale(0.015625)"/>
     </defs>
     <use xlink:href="#DejaVuSans-42"/>
     <use xlink:href="#DejaVuSans-52" x="68.603516"/>
     <use xlink:href="#DejaVuSans-4f" x="138.085938"/>
    </g>
   </g>
  </g>
 </g>
 <defs>
  <clipPath id="pc57f311d89">
   <rect x="198" y="86.4" width="361.058824" height="554.4"/>
  </clipPath>
  <clipPath id="pdc3c3f5a12">
   <rect x="631.270588" y="86.4" width="361.058824" height="554.4"/>
  </clipPath>
  <clipPath id="p3d830909c4">
   <rect x="1064.541176" y="86.4" width="361.058824" height="554.4"/>
  </clipPath>
 </defs>
</svg>
