<?xml version="1.0" encoding="utf-8" standalone="no"?>
<!DOCTYPE svg PUBLIC "-//W3C//DTD SVG 1.1//EN"
  "http://www.w3.org/Graphics/SVG/1.1/DTD/svg11.dtd">
<svg xmlns:xlink="http://www.w3.org/1999/xlink" width="484.73pt" height="342.01pt" viewBox="0 0 484.73 342.01" xmlns="http://www.w3.org/2000/svg" version="1.1">
 <metadata>
  <rdf:RDF xmlns:dc="http://purl.org/dc/elements/1.1/" xmlns:cc="http://creativecommons.org/ns#" xmlns:rdf="http://www.w3.org/1999/02/22-rdf-syntax-ns#">
   <cc:Work>
    <dc:type rdf:resource="http://purl.org/dc/dcmitype/StillImage"/>
    <dc:date>2025-10-15T06:37:56.887268</dc:date>
    <dc:format>image/svg+xml</dc:format>
    <dc:creator>
     <cc:Agent>
      <dc:title>Matplotlib v3.9.4, https://matplotlib.org/</dc:title>
     </cc:Agent>
    </dc:creator>
   </cc:Work>
  </rdf:RDF>
 </metadata>
 <defs>
  <style type="text/css">*{stroke-linejoin: round; stroke-linecap: butt}</style>
 </defs>
 <g id="figure_1">
  <g id="patch_1">
   <path d="M 0 342.01 
L 484.73 342.01 
L 484.73 0 
L 0 0 
z
" style="fill: #ffffff"/>
  </g>
  <g id="axes_1">
   <g id="patch_2">
    <path d="M 62.83 299.32 
L 484.01 299.32 
L 484.01 0.72 
L 62.83 0.72 
z
" style="fill: #ffffff"/>
   </g>
   <g id="patch_3">
    <path d="M 82.160035 299.32 
L 89.814143 299.32 
L 89.814143 14.939048 
L 82.160035 14.939048 
z
" clip-path="url(#pf7489c3d95)" style="fill: #43b02a; opacity: 0.4"/>
   </g>
   <g id="patch_4">
    <path d="M 89.814143 299.32 
L 97.468252 299.32 
L 97.468252 146.146778 
L 89.814143 146.146778 
z
" clip-path="url(#pf7489c3d95)" style="fill: #43b02a; opacity: 0.4"/>
   </g>
   <g id="patch_5">
    <path d="M 97.468252 299.32 
L 105.12236 299.32 
L 105.12236 242.924145 
L 97.468252 242.924145 
z
" clip-path="url(#pf7489c3d95)" style="fill: #43b02a; opacity: 0.4"/>
   </g>
   <g id="patch_6">
    <path d="M 105.12236 299.32 
L 112.776468 299.32 
L 112.776468 274.001945 
L 105.12236 274.001945 
z
" clip-path="url(#pf7489c3d95)" style="fill: #43b02a; opacity: 0.4"/>
   </g>
   <g id="patch_7">
    <path d="M 112.776468 299.32 
L 120.430577 299.32 
L 120.430577 286.35285 
L 112.776468 286.35285 
z
" clip-path="url(#pf7489c3d95)" style="fill: #43b02a; opacity: 0.4"/>
   </g>
   <g id="patch_8">
    <path d="M 120.430577 299.32 
L 128.084685 299.32 
L 128.084685 292.098333 
L 120.430577 292.098333 
z
" clip-path="url(#pf7489c3d95)" style="fill: #43b02a; opacity: 0.4"/>
   </g>
   <g id="patch_9">
    <path d="M 128.084685 299.32 
L 135.738794 299.32 
L 135.738794 295.07447 
L 128.084685 295.07447 
z
" clip-path="url(#pf7489c3d95)" style="fill: #43b02a; opacity: 0.4"/>
   </g>
   <g id="patch_10">
    <path d="M 135.738794 299.32 
L 143.392902 299.32 
L 143.392902 296.65824 
L 135.738794 296.65824 
z
" clip-path="url(#pf7489c3d95)" style="fill: #43b02a; opacity: 0.4"/>
   </g>
   <g id="patch_11">
    <path d="M 143.392902 299.32 
L 151.04701 299.32 
L 151.04701 297.730725 
L 143.392902 297.730725 
z
" clip-path="url(#pf7489c3d95)" style="fill: #43b02a; opacity: 0.4"/>
   </g>
   <g id="patch_12">
    <path d="M 151.04701 299.32 
L 158.701119 299.32 
L 158.701119 298.387502 
L 151.04701 298.387502 
z
" clip-path="url(#pf7489c3d95)" style="fill: #43b02a; opacity: 0.4"/>
   </g>
   <g id="patch_13">
    <path d="M 158.701119 299.32 
L 166.355227 299.32 
L 166.355227 298.710636 
L 158.701119 298.710636 
z
" clip-path="url(#pf7489c3d95)" style="fill: #43b02a; opacity: 0.4"/>
   </g>
   <g id="patch_14">
    <path d="M 166.355227 299.32 
L 174.009336 299.32 
L 174.009336 298.943948 
L 166.355227 298.943948 
z
" clip-path="url(#pf7489c3d95)" style="fill: #43b02a; opacity: 0.4"/>
   </g>
   <g id="patch_15">
    <path d="M 174.009336 299.32 
L 181.663444 299.32 
L 181.663444 299.100574 
L 174.009336 299.100574 
z
" clip-path="url(#pf7489c3d95)" style="fill: #43b02a; opacity: 0.4"/>
   </g>
   <g id="patch_16">
    <path d="M 181.663444 299.32 
L 189.317552 299.32 
L 189.317552 299.188394 
L 181.663444 299.188394 
z
" clip-path="url(#pf7489c3d95)" style="fill: #43b02a; opacity: 0.4"/>
   </g>
   <g id="patch_17">
    <path d="M 189.317552 299.32 
L 196.971661 299.32 
L 196.971661 299.242563 
L 189.317552 299.242563 
z
" clip-path="url(#pf7489c3d95)" style="fill: #43b02a; opacity: 0.4"/>
   </g>
   <g id="patch_18">
    <path d="M 196.971661 299.32 
L 204.625769 299.32 
L 204.625769 299.278342 
L 196.971661 299.278342 
z
" clip-path="url(#pf7489c3d95)" style="fill: #43b02a; opacity: 0.4"/>
   </g>
   <g id="patch_19">
    <path d="M 204.625769 299.32 
L 212.279877 299.32 
L 212.279877 299.281719 
L 204.625769 299.281719 
z
" clip-path="url(#pf7489c3d95)" style="fill: #43b02a; opacity: 0.4"/>
   </g>
   <g id="patch_20">
    <path d="M 212.279877 299.32 
L 219.933986 299.32 
L 219.933986 299.301485 
L 212.279877 299.301485 
z
" clip-path="url(#pf7489c3d95)" style="fill: #43b02a; opacity: 0.4"/>
   </g>
   <g id="patch_21">
    <path d="M 219.933986 299.32 
L 227.588094 299.32 
L 227.588094 299.292853 
L 219.933986 299.292853 
z
" clip-path="url(#pf7489c3d95)" style="fill: #43b02a; opacity: 0.4"/>
   </g>
   <g id="patch_22">
    <path d="M 227.588094 299.32 
L 235.242203 299.32 
L 235.242203 299.312994 
L 227.588094 299.312994 
z
" clip-path="url(#pf7489c3d95)" style="fill: #43b02a; opacity: 0.4"/>
   </g>
   <g id="patch_23">
    <path d="M 235.242203 299.32 
L 242.896311 299.32 
L 242.896311 299.306864 
L 235.242203 299.306864 
z
" clip-path="url(#pf7489c3d95)" style="fill: #43b02a; opacity: 0.4"/>
   </g>
   <g id="patch_24">
    <path d="M 242.896311 299.32 
L 250.550419 299.32 
L 250.550419 299.316747 
L 242.896311 299.316747 
z
" clip-path="url(#pf7489c3d95)" style="fill: #43b02a; opacity: 0.4"/>
   </g>
   <g id="patch_25">
    <path d="M 250.550419 299.32 
L 258.204528 299.32 
L 258.204528 299.311493 
L 250.550419 299.311493 
z
" clip-path="url(#pf7489c3d95)" style="fill: #43b02a; opacity: 0.4"/>
   </g>
   <g id="patch_26">
    <path d="M 258.204528 299.32 
L 265.858636 299.32 
L 265.858636 299.316122 
L 258.204528 299.316122 
z
" clip-path="url(#pf7489c3d95)" style="fill: #43b02a; opacity: 0.4"/>
   </g>
   <g id="patch_27">
    <path d="M 265.858636 299.32 
L 273.512745 299.32 
L 273.512745 299.319625 
L 265.858636 299.319625 
z
" clip-path="url(#pf7489c3d95)" style="fill: #43b02a; opacity: 0.4"/>
   </g>
   <g id="patch_28">
    <path d="M 273.512745 299.32 
L 281.166853 299.32 
L 281.166853 299.319124 
L 273.512745 299.319124 
z
" clip-path="url(#pf7489c3d95)" style="fill: #43b02a; opacity: 0.4"/>
   </g>
   <g id="patch_29">
    <path d="M 281.166853 299.32 
L 288.820961 299.32 
L 288.820961 299.32 
L 281.166853 299.32 
z
" clip-path="url(#pf7489c3d95)" style="fill: #43b02a; opacity: 0.4"/>
   </g>
   <g id="patch_30">
    <path d="M 288.820961 299.32 
L 296.47507 299.32 
L 296.47507 299.32 
L 288.820961 299.32 
z
" clip-path="url(#pf7489c3d95)" style="fill: #43b02a; opacity: 0.4"/>
   </g>
   <g id="patch_31">
    <path d="M 296.47507 299.32 
L 304.129178 299.32 
L 304.129178 299.319124 
L 296.47507 299.319124 
z
" clip-path="url(#pf7489c3d95)" style="fill: #43b02a; opacity: 0.4"/>
   </g>
   <g id="patch_32">
    <path d="M 304.129178 299.32 
L 311.783287 299.32 
L 311.783287 299.319875 
L 304.129178 299.319875 
z
" clip-path="url(#pf7489c3d95)" style="fill: #43b02a; opacity: 0.4"/>
   </g>
   <g id="patch_33">
    <path d="M 311.783287 299.32 
L 319.437395 299.32 
L 319.437395 299.32 
L 311.783287 299.32 
z
" clip-path="url(#pf7489c3d95)" style="fill: #43b02a; opacity: 0.4"/>
   </g>
   <g id="patch_34">
    <path d="M 319.437395 299.32 
L 327.091503 299.32 
L 327.091503 299.32 
L 319.437395 299.32 
z
" clip-path="url(#pf7489c3d95)" style="fill: #43b02a; opacity: 0.4"/>
   </g>
   <g id="patch_35">
    <path d="M 327.091503 299.32 
L 334.745612 299.32 
L 334.745612 299.32 
L 327.091503 299.32 
z
" clip-path="url(#pf7489c3d95)" style="fill: #43b02a; opacity: 0.4"/>
   </g>
   <g id="patch_36">
    <path d="M 334.745612 299.32 
L 342.39972 299.32 
L 342.39972 299.31975 
L 334.745612 299.31975 
z
" clip-path="url(#pf7489c3d95)" style="fill: #43b02a; opacity: 0.4"/>
   </g>
   <g id="patch_37">
    <path d="M 342.39972 299.32 
L 350.053829 299.32 
L 350.053829 299.32 
L 342.39972 299.32 
z
" clip-path="url(#pf7489c3d95)" style="fill: #43b02a; opacity: 0.4"/>
   </g>
   <g id="patch_38">
    <path d="M 350.053829 299.32 
L 357.707937 299.32 
L 357.707937 299.32 
L 350.053829 299.32 
z
" clip-path="url(#pf7489c3d95)" style="fill: #43b02a; opacity: 0.4"/>
   </g>
   <g id="patch_39">
    <path d="M 357.707937 299.32 
L 365.362045 299.32 
L 365.362045 299.32 
L 357.707937 299.32 
z
" clip-path="url(#pf7489c3d95)" style="fill: #43b02a; opacity: 0.4"/>
   </g>
   <g id="patch_40">
    <path d="M 365.362045 299.32 
L 373.016154 299.32 
L 373.016154 299.32 
L 365.362045 299.32 
z
" clip-path="url(#pf7489c3d95)" style="fill: #43b02a; opacity: 0.4"/>
   </g>
   <g id="patch_41">
    <path d="M 373.016154 299.32 
L 380.670262 299.32 
L 380.670262 299.32 
L 373.016154 299.32 
z
" clip-path="url(#pf7489c3d95)" style="fill: #43b02a; opacity: 0.4"/>
   </g>
   <g id="patch_42">
    <path d="M 380.670262 299.32 
L 388.324371 299.32 
L 388.324371 299.32 
L 380.670262 299.32 
z
" clip-path="url(#pf7489c3d95)" style="fill: #43b02a; opacity: 0.4"/>
   </g>
   <g id="patch_43">
    <path d="M 388.324371 299.32 
L 395.978479 299.32 
L 395.978479 299.319875 
L 388.324371 299.319875 
z
" clip-path="url(#pf7489c3d95)" style="fill: #43b02a; opacity: 0.4"/>
   </g>
   <g id="patch_44">
    <path d="M 395.978479 299.32 
L 403.632587 299.32 
L 403.632587 299.32 
L 395.978479 299.32 
z
" clip-path="url(#pf7489c3d95)" style="fill: #43b02a; opacity: 0.4"/>
   </g>
   <g id="patch_45">
    <path d="M 403.632587 299.32 
L 411.286696 299.32 
L 411.286696 299.32 
L 403.632587 299.32 
z
" clip-path="url(#pf7489c3d95)" style="fill: #43b02a; opacity: 0.4"/>
   </g>
   <g id="patch_46">
    <path d="M 411.286696 299.32 
L 418.940804 299.32 
L 418.940804 299.32 
L 411.286696 299.32 
z
" clip-path="url(#pf7489c3d95)" style="fill: #43b02a; opacity: 0.4"/>
   </g>
   <g id="patch_47">
    <path d="M 418.940804 299.32 
L 426.594913 299.32 
L 426.594913 299.32 
L 418.940804 299.32 
z
" clip-path="url(#pf7489c3d95)" style="fill: #43b02a; opacity: 0.4"/>
   </g>
   <g id="patch_48">
    <path d="M 426.594913 299.32 
L 434.249021 299.32 
L 434.249021 299.32 
L 426.594913 299.32 
z
" clip-path="url(#pf7489c3d95)" style="fill: #43b02a; opacity: 0.4"/>
   </g>
   <g id="patch_49">
    <path d="M 434.249021 299.32 
L 441.903129 299.32 
L 441.903129 299.32 
L 434.249021 299.32 
z
" clip-path="url(#pf7489c3d95)" style="fill: #43b02a; opacity: 0.4"/>
   </g>
   <g id="patch_50">
    <path d="M 441.903129 299.32 
L 449.557238 299.32 
L 449.557238 299.319875 
L 441.903129 299.319875 
z
" clip-path="url(#pf7489c3d95)" style="fill: #43b02a; opacity: 0.4"/>
   </g>
   <g id="patch_51">
    <path d="M 449.557238 299.32 
L 457.211346 299.32 
L 457.211346 299.32 
L 449.557238 299.32 
z
" clip-path="url(#pf7489c3d95)" style="fill: #43b02a; opacity: 0.4"/>
   </g>
   <g id="patch_52">
    <path d="M 457.211346 299.32 
L 464.865455 299.32 
L 464.865455 299.319875 
L 457.211346 299.319875 
z
" clip-path="url(#pf7489c3d95)" style="fill: #43b02a; opacity: 0.4"/>
   </g>
   <g id="patch_53">
    <path d="M 81.974545 299.32 
L 87.573529 299.32 
L 87.573529 25.8591 
L 81.974545 25.8591 
z
" clip-path="url(#pf7489c3d95)" style="fill: #005a86; opacity: 0.4"/>
   </g>
   <g id="patch_54">
    <path d="M 87.573529 299.32 
L 93.172512 299.32 
L 93.172512 58.091812 
L 87.573529 58.091812 
z
" clip-path="url(#pf7489c3d95)" style="fill: #005a86; opacity: 0.4"/>
   </g>
   <g id="patch_55">
    <path d="M 93.172512 299.32 
L 98.771496 299.32 
L 98.771496 192.653806 
L 93.172512 192.653806 
z
" clip-path="url(#pf7489c3d95)" style="fill: #005a86; opacity: 0.4"/>
   </g>
   <g id="patch_56">
    <path d="M 98.771496 299.32 
L 104.370479 299.32 
L 104.370479 246.529105 
L 98.771496 246.529105 
z
" clip-path="url(#pf7489c3d95)" style="fill: #005a86; opacity: 0.4"/>
   </g>
   <g id="patch_57">
    <path d="M 104.370479 299.32 
L 109.969463 299.32 
L 109.969463 271.395337 
L 104.370479 271.395337 
z
" clip-path="url(#pf7489c3d95)" style="fill: #005a86; opacity: 0.4"/>
   </g>
   <g id="patch_58">
    <path d="M 109.969463 299.32 
L 115.568446 299.32 
L 115.568446 282.69181 
L 109.969463 282.69181 
z
" clip-path="url(#pf7489c3d95)" style="fill: #005a86; opacity: 0.4"/>
   </g>
   <g id="patch_59">
    <path d="M 115.568446 299.32 
L 121.16743 299.32 
L 121.16743 288.540407 
L 115.568446 288.540407 
z
" clip-path="url(#pf7489c3d95)" style="fill: #005a86; opacity: 0.4"/>
   </g>
   <g id="patch_60">
    <path d="M 121.16743 299.32 
L 126.766413 299.32 
L 126.766413 292.24888 
L 121.16743 292.24888 
z
" clip-path="url(#pf7489c3d95)" style="fill: #005a86; opacity: 0.4"/>
   </g>
   <g id="patch_61">
    <path d="M 126.766413 299.32 
L 132.365397 299.32 
L 132.365397 294.453813 
L 126.766413 294.453813 
z
" clip-path="url(#pf7489c3d95)" style="fill: #005a86; opacity: 0.4"/>
   </g>
   <g id="patch_62">
    <path d="M 132.365397 299.32 
L 137.96438 299.32 
L 137.96438 295.984977 
L 132.365397 295.984977 
z
" clip-path="url(#pf7489c3d95)" style="fill: #005a86; opacity: 0.4"/>
   </g>
   <g id="patch_63">
    <path d="M 137.96438 299.32 
L 143.563364 299.32 
L 143.563364 297.050258 
L 137.96438 297.050258 
z
" clip-path="url(#pf7489c3d95)" style="fill: #005a86; opacity: 0.4"/>
   </g>
   <g id="patch_64">
    <path d="M 143.563364 299.32 
L 149.162347 299.32 
L 149.162347 297.708444 
L 143.563364 297.708444 
z
" clip-path="url(#pf7489c3d95)" style="fill: #005a86; opacity: 0.4"/>
   </g>
   <g id="patch_65">
    <path d="M 149.162347 299.32 
L 154.761331 299.32 
L 154.761331 298.337059 
L 149.162347 298.337059 
z
" clip-path="url(#pf7489c3d95)" style="fill: #005a86; opacity: 0.4"/>
   </g>
   <g id="patch_66">
    <path d="M 154.761331 299.32 
L 160.360314 299.32 
L 160.360314 298.484739 
L 154.761331 298.484739 
z
" clip-path="url(#pf7489c3d95)" style="fill: #005a86; opacity: 0.4"/>
   </g>
   <g id="patch_67">
    <path d="M 160.360314 299.32 
L 165.959298 299.32 
L 165.959298 298.731227 
L 160.360314 298.731227 
z
" clip-path="url(#pf7489c3d95)" style="fill: #005a86; opacity: 0.4"/>
   </g>
   <g id="patch_68">
    <path d="M 165.959298 299.32 
L 171.558281 299.32 
L 171.558281 298.869876 
L 165.959298 298.869876 
z
" clip-path="url(#pf7489c3d95)" style="fill: #005a86; opacity: 0.4"/>
   </g>
   <g id="patch_69">
    <path d="M 171.558281 299.32 
L 177.157265 299.32 
L 177.157265 299.033493 
L 171.558281 299.033493 
z
" clip-path="url(#pf7489c3d95)" style="fill: #005a86; opacity: 0.4"/>
   </g>
   <g id="patch_70">
    <path d="M 177.157265 299.32 
L 182.756248 299.32 
L 182.756248 299.099365 
L 177.157265 299.099365 
z
" clip-path="url(#pf7489c3d95)" style="fill: #005a86; opacity: 0.4"/>
   </g>
   <g id="patch_71">
    <path d="M 182.756248 299.32 
L 188.355232 299.32 
L 188.355232 299.173913 
L 182.756248 299.173913 
z
" clip-path="url(#pf7489c3d95)" style="fill: #005a86; opacity: 0.4"/>
   </g>
   <g id="patch_72">
    <path d="M 188.355232 299.32 
L 193.954215 299.32 
L 193.954215 299.206318 
L 188.355232 299.206318 
z
" clip-path="url(#pf7489c3d95)" style="fill: #005a86; opacity: 0.4"/>
   </g>
   <g id="patch_73">
    <path d="M 193.954215 299.32 
L 199.553199 299.32 
L 199.553199 299.264576 
L 193.954215 299.264576 
z
" clip-path="url(#pf7489c3d95)" style="fill: #005a86; opacity: 0.4"/>
   </g>
   <g id="patch_74">
    <path d="M 199.553199 299.32 
L 205.152182 299.32 
L 205.152182 299.27219 
L 199.553199 299.27219 
z
" clip-path="url(#pf7489c3d95)" style="fill: #005a86; opacity: 0.4"/>
   </g>
   <g id="patch_75">
    <path d="M 205.152182 299.32 
L 210.751166 299.32 
L 210.751166 299.288835 
L 205.152182 299.288835 
z
" clip-path="url(#pf7489c3d95)" style="fill: #005a86; opacity: 0.4"/>
   </g>
   <g id="patch_76">
    <path d="M 210.751166 299.32 
L 216.350149 299.32 
L 216.350149 299.287241 
L 210.751166 299.287241 
z
" clip-path="url(#pf7489c3d95)" style="fill: #005a86; opacity: 0.4"/>
   </g>
   <g id="patch_77">
    <path d="M 216.350149 299.32 
L 221.949133 299.32 
L 221.949133 299.294678 
L 216.350149 299.294678 
z
" clip-path="url(#pf7489c3d95)" style="fill: #005a86; opacity: 0.4"/>
   </g>
   <g id="patch_78">
    <path d="M 221.949133 299.32 
L 227.548116 299.32 
L 227.548116 299.30849 
L 221.949133 299.30849 
z
" clip-path="url(#pf7489c3d95)" style="fill: #005a86; opacity: 0.4"/>
   </g>
   <g id="patch_79">
    <path d="M 227.548116 299.32 
L 233.1471 299.32 
L 233.1471 299.302824 
L 227.548116 299.302824 
z
" clip-path="url(#pf7489c3d95)" style="fill: #005a86; opacity: 0.4"/>
   </g>
   <g id="patch_80">
    <path d="M 233.1471 299.32 
L 238.746083 299.32 
L 238.746083 299.310792 
L 233.1471 299.310792 
z
" clip-path="url(#pf7489c3d95)" style="fill: #005a86; opacity: 0.4"/>
   </g>
   <g id="patch_81">
    <path d="M 238.746083 299.32 
L 244.345067 299.32 
L 244.345067 299.310084 
L 238.746083 299.310084 
z
" clip-path="url(#pf7489c3d95)" style="fill: #005a86; opacity: 0.4"/>
   </g>
   <g id="patch_82">
    <path d="M 244.345067 299.32 
L 249.94405 299.32 
L 249.94405 299.314157 
L 244.345067 299.314157 
z
" clip-path="url(#pf7489c3d95)" style="fill: #005a86; opacity: 0.4"/>
   </g>
   <g id="patch_83">
    <path d="M 249.94405 299.32 
L 255.543034 299.32 
L 255.543034 299.318052 
L 249.94405 299.318052 
z
" clip-path="url(#pf7489c3d95)" style="fill: #005a86; opacity: 0.4"/>
   </g>
   <g id="patch_84">
    <path d="M 255.543034 299.32 
L 261.142017 299.32 
L 261.142017 299.316813 
L 255.543034 299.316813 
z
" clip-path="url(#pf7489c3d95)" style="fill: #005a86; opacity: 0.4"/>
   </g>
   <g id="patch_85">
    <path d="M 261.142017 299.32 
L 266.741001 299.32 
L 266.741001 299.318938 
L 261.142017 299.318938 
z
" clip-path="url(#pf7489c3d95)" style="fill: #005a86; opacity: 0.4"/>
   </g>
   <g id="patch_86">
    <path d="M 266.741001 299.32 
L 272.339984 299.32 
L 272.339984 299.32 
L 266.741001 299.32 
z
" clip-path="url(#pf7489c3d95)" style="fill: #005a86; opacity: 0.4"/>
   </g>
   <g id="patch_87">
    <path d="M 272.339984 299.32 
L 277.938968 299.32 
L 277.938968 299.319646 
L 272.339984 299.319646 
z
" clip-path="url(#pf7489c3d95)" style="fill: #005a86; opacity: 0.4"/>
   </g>
   <g id="patch_88">
    <path d="M 277.938968 299.32 
L 283.537951 299.32 
L 283.537951 299.319115 
L 277.938968 299.319115 
z
" clip-path="url(#pf7489c3d95)" style="fill: #005a86; opacity: 0.4"/>
   </g>
   <g id="patch_89">
    <path d="M 283.537951 299.32 
L 289.136935 299.32 
L 289.136935 299.32 
L 283.537951 299.32 
z
" clip-path="url(#pf7489c3d95)" style="fill: #005a86; opacity: 0.4"/>
   </g>
   <g id="patch_90">
    <path d="M 289.136935 299.32 
L 294.735918 299.32 
L 294.735918 299.32 
L 289.136935 299.32 
z
" clip-path="url(#pf7489c3d95)" style="fill: #005a86; opacity: 0.4"/>
   </g>
   <g id="patch_91">
    <path d="M 294.735918 299.32 
L 300.334902 299.32 
L 300.334902 299.319115 
L 294.735918 299.319115 
z
" clip-path="url(#pf7489c3d95)" style="fill: #005a86; opacity: 0.4"/>
   </g>
   <g id="patch_92">
    <path d="M 300.334902 299.32 
L 305.933885 299.32 
L 305.933885 299.32 
L 300.334902 299.32 
z
" clip-path="url(#pf7489c3d95)" style="fill: #005a86; opacity: 0.4"/>
   </g>
   <g id="patch_93">
    <path d="M 305.933885 299.32 
L 311.532869 299.32 
L 311.532869 299.32 
L 305.933885 299.32 
z
" clip-path="url(#pf7489c3d95)" style="fill: #005a86; opacity: 0.4"/>
   </g>
   <g id="patch_94">
    <path d="M 311.532869 299.32 
L 317.131852 299.32 
L 317.131852 299.319823 
L 311.532869 299.319823 
z
" clip-path="url(#pf7489c3d95)" style="fill: #005a86; opacity: 0.4"/>
   </g>
   <g id="patch_95">
    <path d="M 317.131852 299.32 
L 322.730836 299.32 
L 322.730836 299.32 
L 317.131852 299.32 
z
" clip-path="url(#pf7489c3d95)" style="fill: #005a86; opacity: 0.4"/>
   </g>
   <g id="patch_96">
    <path d="M 322.730836 299.32 
L 328.329819 299.32 
L 328.329819 299.319823 
L 322.730836 299.319823 
z
" clip-path="url(#pf7489c3d95)" style="fill: #005a86; opacity: 0.4"/>
   </g>
   <g id="patch_97">
    <path d="M 328.329819 299.32 
L 333.928803 299.32 
L 333.928803 299.319823 
L 328.329819 299.319823 
z
" clip-path="url(#pf7489c3d95)" style="fill: #005a86; opacity: 0.4"/>
   </g>
   <g id="patch_98">
    <path d="M 333.928803 299.32 
L 339.527786 299.32 
L 339.527786 299.32 
L 333.928803 299.32 
z
" clip-path="url(#pf7489c3d95)" style="fill: #005a86; opacity: 0.4"/>
   </g>
   <g id="patch_99">
    <path d="M 339.527786 299.32 
L 345.12677 299.32 
L 345.12677 299.32 
L 339.527786 299.32 
z
" clip-path="url(#pf7489c3d95)" style="fill: #005a86; opacity: 0.4"/>
   </g>
   <g id="patch_100">
    <path d="M 345.12677 299.32 
L 350.725753 299.32 
L 350.725753 299.317698 
L 345.12677 299.317698 
z
" clip-path="url(#pf7489c3d95)" style="fill: #005a86; opacity: 0.4"/>
   </g>
   <g id="patch_101">
    <path d="M 350.725753 299.32 
L 356.324737 299.32 
L 356.324737 299.32 
L 350.725753 299.32 
z
" clip-path="url(#pf7489c3d95)" style="fill: #005a86; opacity: 0.4"/>
   </g>
   <g id="patch_102">
    <path d="M 356.324737 299.32 
L 361.92372 299.32 
L 361.92372 299.319823 
L 356.324737 299.319823 
z
" clip-path="url(#pf7489c3d95)" style="fill: #005a86; opacity: 0.4"/>
   </g>
   <g id="patch_103">
    <path d="M 121.648455 299.32 
L 185.107513 299.32 
L 185.107513 199.728734 
L 121.648455 199.728734 
L 121.648455 299.32 
z
" clip-path="url(#pf7489c3d95)" style="fill: none; stroke: #808080; stroke-linejoin: miter"/>
   </g>
   <g id="matplotlib.axis_1">
    <g id="xtick_1">
     <g id="line2d_1">
      <defs>
       <path id="ma9d3757bc6" d="M 0 0 
L 0 3.5 
" style="stroke: #000000; stroke-width: 0.8"/>
      </defs>
      <g>
       <use xlink:href="#ma9d3757bc6" x="79.342417" y="299.32" style="stroke: #000000; stroke-width: 0.8"/>
      </g>
     </g>
     <g id="text_1">
      <!-- 0 -->
      <g transform="translate(74.252417 318.4775) scale(0.16 -0.16)">
       <defs>
        <path id="DejaVuSans-30" d="M 2034 4250 
Q 1547 4250 1301 3770 
Q 1056 3291 1056 2328 
Q 1056 1369 1301 889 
Q 1547 409 2034 409 
Q 2525 409 2770 889 
Q 3016 1369 3016 2328 
Q 3016 3291 2770 3770 
Q 2525 4250 2034 4250 
z
M 2034 4750 
Q 2819 4750 3233 4129 
Q 3647 3509 3647 2328 
Q 3647 1150 3233 529 
Q 2819 -91 2034 -91 
Q 1250 -91 836 529 
Q 422 1150 422 2328 
Q 422 3509 836 4129 
Q 1250 4750 2034 4750 
z
" transform="scale(0.015625)"/>
       </defs>
       <use xlink:href="#DejaVuSans-30"/>
      </g>
     </g>
    </g>
    <g id="xtick_2">
     <g id="line2d_2">
      <g>
       <use xlink:href="#ma9d3757bc6" x="132.224965" y="299.32" style="stroke: #000000; stroke-width: 0.8"/>
      </g>
     </g>
     <g id="text_2">
      <!-- 25 -->
      <g transform="translate(122.044965 318.4775) scale(0.16 -0.16)">
       <defs>
        <path id="DejaVuSans-32" d="M 1228 531 
L 3431 531 
L 3431 0 
L 469 0 
L 469 531 
Q 828 903 1448 1529 
Q 2069 2156 2228 2338 
Q 2531 2678 2651 2914 
Q 2772 3150 2772 3378 
Q 2772 3750 2511 3984 
Q 2250 4219 1831 4219 
Q 1534 4219 1204 4116 
Q 875 4013 500 3803 
L 500 4441 
Q 881 4594 1212 4672 
Q 1544 4750 1819 4750 
Q 2544 4750 2975 4387 
Q 3406 4025 3406 3419 
Q 3406 3131 3298 2873 
Q 3191 2616 2906 2266 
Q 2828 2175 2409 1742 
Q 1991 1309 1228 531 
z
" transform="scale(0.015625)"/>
        <path id="DejaVuSans-35" d="M 691 4666 
L 3169 4666 
L 3169 4134 
L 1269 4134 
L 1269 2991 
Q 1406 3038 1543 3061 
Q 1681 3084 1819 3084 
Q 2600 3084 3056 2656 
Q 3513 2228 3513 1497 
Q 3513 744 3044 326 
Q 2575 -91 1722 -91 
Q 1428 -91 1123 -41 
Q 819 9 494 109 
L 494 744 
Q 775 591 1075 516 
Q 1375 441 1709 441 
Q 2250 441 2565 725 
Q 2881 1009 2881 1497 
Q 2881 1984 2565 2268 
Q 2250 2553 1709 2553 
Q 1456 2553 1204 2497 
Q 953 2441 691 2322 
L 691 4666 
z
" transform="scale(0.015625)"/>
       </defs>
       <use xlink:href="#DejaVuSans-32"/>
       <use xlink:href="#DejaVuSans-35" x="63.623047"/>
      </g>
     </g>
    </g>
    <g id="xtick_3">
     <g id="line2d_3">
      <g>
       <use xlink:href="#ma9d3757bc6" x="185.107513" y="299.32" style="stroke: #000000; stroke-width: 0.8"/>
      </g>
     </g>
     <g id="text_3">
      <!-- 50 -->
      <g transform="translate(174.927513 318.4775) scale(0.16 -0.16)">
       <use xlink:href="#DejaVuSans-35"/>
       <use xlink:href="#DejaVuSans-30" x="63.623047"/>
      </g>
     </g>
    </g>
    <g id="xtick_4">
     <g id="line2d_4">
      <g>
       <use xlink:href="#ma9d3757bc6" x="237.990061" y="299.32" style="stroke: #000000; stroke-width: 0.8"/>
      </g>
     </g>
     <g id="text_4">
      <!-- 75 -->
      <g transform="translate(227.810061 318.4775) scale(0.16 -0.16)">
       <defs>
        <path id="DejaVuSans-37" d="M 525 4666 
L 3525 4666 
L 3525 4397 
L 1831 0 
L 1172 0 
L 2766 4134 
L 525 4134 
L 525 4666 
z
" transform="scale(0.015625)"/>
       </defs>
       <use xlink:href="#DejaVuSans-37"/>
       <use xlink:href="#DejaVuSans-35" x="63.623047"/>
      </g>
     </g>
    </g>
    <g id="xtick_5">
     <g id="line2d_5">
      <g>
       <use xlink:href="#ma9d3757bc6" x="290.872609" y="299.32" style="stroke: #000000; stroke-width: 0.8"/>
      </g>
     </g>
     <g id="text_5">
      <!-- 100 -->
      <g transform="translate(275.602609 318.4775) scale(0.16 -0.16)">
       <defs>
        <path id="DejaVuSans-31" d="M 794 531 
L 1825 531 
L 1825 4091 
L 703 3866 
L 703 4441 
L 1819 4666 
L 2450 4666 
L 2450 531 
L 3481 531 
L 3481 0 
L 794 0 
L 794 531 
z
" transform="scale(0.015625)"/>
       </defs>
       <use xlink:href="#DejaVuSans-31"/>
       <use xlink:href="#DejaVuSans-30" x="63.623047"/>
       <use xlink:href="#DejaVuSans-30" x="127.246094"/>
      </g>
     </g>
    </g>
    <g id="xtick_6">
     <g id="line2d_6">
      <g>
       <use xlink:href="#ma9d3757bc6" x="343.755156" y="299.32" style="stroke: #000000; stroke-width: 0.8"/>
      </g>
     </g>
     <g id="text_6">
      <!-- 125 -->
      <g transform="translate(328.485156 318.4775) scale(0.16 -0.16)">
       <use xlink:href="#DejaVuSans-31"/>
       <use xlink:href="#DejaVuSans-32" x="63.623047"/>
       <use xlink:href="#DejaVuSans-35" x="127.246094"/>
      </g>
     </g>
    </g>
    <g id="xtick_7">
     <g id="line2d_7">
      <g>
       <use xlink:href="#ma9d3757bc6" x="396.637704" y="299.32" style="stroke: #000000; stroke-width: 0.8"/>
      </g>
     </g>
     <g id="text_7">
      <!-- 150 -->
      <g transform="translate(381.367704 318.4775) scale(0.16 -0.16)">
       <use xlink:href="#DejaVuSans-31"/>
       <use xlink:href="#DejaVuSans-35" x="63.623047"/>
       <use xlink:href="#DejaVuSans-30" x="127.246094"/>
      </g>
     </g>
    </g>
    <g id="xtick_8">
     <g id="line2d_8">
      <g>
       <use xlink:href="#ma9d3757bc6" x="449.520252" y="299.32" style="stroke: #000000; stroke-width: 0.8"/>
      </g>
     </g>
     <g id="text_8">
      <!-- 175 -->
      <g transform="translate(434.250252 318.4775) scale(0.16 -0.16)">
       <use xlink:href="#DejaVuSans-31"/>
       <use xlink:href="#DejaVuSans-37" x="63.623047"/>
       <use xlink:href="#DejaVuSans-35" x="127.246094"/>
      </g>
     </g>
    </g>
    <g id="text_9">
     <!-- Perplexity -->
     <g transform="translate(233.7625 337.9625) scale(0.16 -0.16)">
      <defs>
       <path id="DejaVuSans-50" d="M 1259 4147 
L 1259 2394 
L 2053 2394 
Q 2494 2394 2734 2622 
Q 2975 2850 2975 3272 
Q 2975 3691 2734 3919 
Q 2494 4147 2053 4147 
L 1259 4147 
z
M 628 4666 
L 2053 4666 
Q 2838 4666 3239 4311 
Q 3641 3956 3641 3272 
Q 3641 2581 3239 2228 
Q 2838 1875 2053 1875 
L 1259 1875 
L 1259 0 
L 628 0 
L 628 4666 
z
" transform="scale(0.015625)"/>
       <path id="DejaVuSans-65" d="M 3597 1894 
L 3597 1613 
L 953 1613 
Q 991 1019 1311 708 
Q 1631 397 2203 397 
Q 2534 397 2845 478 
Q 3156 559 3463 722 
L 3463 178 
Q 3153 47 2828 -22 
Q 2503 -91 2169 -91 
Q 1331 -91 842 396 
Q 353 884 353 1716 
Q 353 2575 817 3079 
Q 1281 3584 2069 3584 
Q 2775 3584 3186 3129 
Q 3597 2675 3597 1894 
z
M 3022 2063 
Q 3016 2534 2758 2815 
Q 2500 3097 2075 3097 
Q 1594 3097 1305 2825 
Q 1016 2553 972 2059 
L 3022 2063 
z
" transform="scale(0.015625)"/>
       <path id="DejaVuSans-72" d="M 2631 2963 
Q 2534 3019 2420 3045 
Q 2306 3072 2169 3072 
Q 1681 3072 1420 2755 
Q 1159 2438 1159 1844 
L 1159 0 
L 581 0 
L 581 3500 
L 1159 3500 
L 1159 2956 
Q 1341 3275 1631 3429 
Q 1922 3584 2338 3584 
Q 2397 3584 2469 3576 
Q 2541 3569 2628 3553 
L 2631 2963 
z
" transform="scale(0.015625)"/>
       <path id="DejaVuSans-70" d="M 1159 525 
L 1159 -1331 
L 581 -1331 
L 581 3500 
L 1159 3500 
L 1159 2969 
Q 1341 3281 1617 3432 
Q 1894 3584 2278 3584 
Q 2916 3584 3314 3078 
Q 3713 2572 3713 1747 
Q 3713 922 3314 415 
Q 2916 -91 2278 -91 
Q 1894 -91 1617 61 
Q 1341 213 1159 525 
z
M 3116 1747 
Q 3116 2381 2855 2742 
Q 2594 3103 2138 3103 
Q 1681 3103 1420 2742 
Q 1159 2381 1159 1747 
Q 1159 1113 1420 752 
Q 1681 391 2138 391 
Q 2594 391 2855 752 
Q 3116 1113 3116 1747 
z
" transform="scale(0.015625)"/>
       <path id="DejaVuSans-6c" d="M 603 4863 
L 1178 4863 
L 1178 0 
L 603 0 
L 603 4863 
z
" transform="scale(0.015625)"/>
       <path id="DejaVuSans-78" d="M 3513 3500 
L 2247 1797 
L 3578 0 
L 2900 0 
L 1881 1375 
L 863 0 
L 184 0 
L 1544 1831 
L 300 3500 
L 978 3500 
L 1906 2253 
L 2834 3500 
L 3513 3500 
z
" transform="scale(0.015625)"/>
       <path id="DejaVuSans-69" d="M 603 3500 
L 1178 3500 
L 1178 0 
L 603 0 
L 603 3500 
z
M 603 4863 
L 1178 4863 
L 1178 4134 
L 603 4134 
L 603 4863 
z
" transform="scale(0.015625)"/>
       <path id="DejaVuSans-74" d="M 1172 4494 
L 1172 3500 
L 2356 3500 
L 2356 3053 
L 1172 3053 
L 1172 1153 
Q 1172 725 1289 603 
Q 1406 481 1766 481 
L 2356 481 
L 2356 0 
L 1766 0 
Q 1100 0 847 248 
Q 594 497 594 1153 
L 594 3053 
L 172 3053 
L 172 3500 
L 594 3500 
L 594 4494 
L 1172 4494 
z
" transform="scale(0.015625)"/>
       <path id="DejaVuSans-79" d="M 2059 -325 
Q 1816 -950 1584 -1140 
Q 1353 -1331 966 -1331 
L 506 -1331 
L 506 -850 
L 844 -850 
Q 1081 -850 1212 -737 
Q 1344 -625 1503 -206 
L 1606 56 
L 191 3500 
L 800 3500 
L 1894 763 
L 2988 3500 
L 3597 3500 
L 2059 -325 
z
" transform="scale(0.015625)"/>
      </defs>
      <use xlink:href="#DejaVuSans-50"/>
      <use xlink:href="#DejaVuSans-65" x="56.677734"/>
      <use xlink:href="#DejaVuSans-72" x="118.201172"/>
      <use xlink:href="#DejaVuSans-70" x="159.314453"/>
      <use xlink:href="#DejaVuSans-6c" x="222.791016"/>
      <use xlink:href="#DejaVuSans-65" x="250.574219"/>
      <use xlink:href="#DejaVuSans-78" x="310.347656"/>
      <use xlink:href="#DejaVuSans-69" x="369.527344"/>
      <use xlink:href="#DejaVuSans-74" x="397.310547"/>
      <use xlink:href="#DejaVuSans-79" x="436.519531"/>
     </g>
    </g>
   </g>
   <g id="matplotlib.axis_2">
    <g id="ytick_1">
     <g id="line2d_9">
      <defs>
       <path id="md5cae217f2" d="M 0 0 
L -3.5 0 
" style="stroke: #000000; stroke-width: 0.8"/>
      </defs>
      <g>
       <use xlink:href="#md5cae217f2" x="62.83" y="299.32" style="stroke: #000000; stroke-width: 0.8"/>
      </g>
     </g>
     <g id="text_10">
      <!-- 0.00 -->
      <g transform="translate(20.205 305.39875) scale(0.16 -0.16)">
       <defs>
        <path id="DejaVuSans-2e" d="M 684 794 
L 1344 794 
L 1344 0 
L 684 0 
L 684 794 
z
" transform="scale(0.015625)"/>
       </defs>
       <use xlink:href="#DejaVuSans-30"/>
       <use xlink:href="#DejaVuSans-2e" x="63.623047"/>
       <use xlink:href="#DejaVuSans-30" x="95.410156"/>
       <use xlink:href="#DejaVuSans-30" x="159.033203"/>
      </g>
     </g>
    </g>
    <g id="ytick_2">
     <g id="line2d_10">
      <g>
       <use xlink:href="#md5cae217f2" x="62.83" y="259.483493" style="stroke: #000000; stroke-width: 0.8"/>
      </g>
     </g>
     <g id="text_11">
      <!-- 0.02 -->
      <g transform="translate(20.205 265.562243) scale(0.16 -0.16)">
       <use xlink:href="#DejaVuSans-30"/>
       <use xlink:href="#DejaVuSans-2e" x="63.623047"/>
       <use xlink:href="#DejaVuSans-30" x="95.410156"/>
       <use xlink:href="#DejaVuSans-32" x="159.033203"/>
      </g>
     </g>
    </g>
    <g id="ytick_3">
     <g id="line2d_11">
      <g>
       <use xlink:href="#md5cae217f2" x="62.83" y="219.646987" style="stroke: #000000; stroke-width: 0.8"/>
      </g>
     </g>
     <g id="text_12">
      <!-- 0.04 -->
      <g transform="translate(20.205 225.725737) scale(0.16 -0.16)">
       <defs>
        <path id="DejaVuSans-34" d="M 2419 4116 
L 825 1625 
L 2419 1625 
L 2419 4116 
z
M 2253 4666 
L 3047 4666 
L 3047 1625 
L 3713 1625 
L 3713 1100 
L 3047 1100 
L 3047 0 
L 2419 0 
L 2419 1100 
L 313 1100 
L 313 1709 
L 2253 4666 
z
" transform="scale(0.015625)"/>
       </defs>
       <use xlink:href="#DejaVuSans-30"/>
       <use xlink:href="#DejaVuSans-2e" x="63.623047"/>
       <use xlink:href="#DejaVuSans-30" x="95.410156"/>
       <use xlink:href="#DejaVuSans-34" x="159.033203"/>
      </g>
     </g>
    </g>
    <g id="ytick_4">
     <g id="line2d_12">
      <g>
       <use xlink:href="#md5cae217f2" x="62.83" y="179.81048" style="stroke: #000000; stroke-width: 0.8"/>
      </g>
     </g>
     <g id="text_13">
      <!-- 0.06 -->
      <g transform="translate(20.205 185.88923) scale(0.16 -0.16)">
       <defs>
        <path id="DejaVuSans-36" d="M 2113 2584 
Q 1688 2584 1439 2293 
Q 1191 2003 1191 1497 
Q 1191 994 1439 701 
Q 1688 409 2113 409 
Q 2538 409 2786 701 
Q 3034 994 3034 1497 
Q 3034 2003 2786 2293 
Q 2538 2584 2113 2584 
z
M 3366 4563 
L 3366 3988 
Q 3128 4100 2886 4159 
Q 2644 4219 2406 4219 
Q 1781 4219 1451 3797 
Q 1122 3375 1075 2522 
Q 1259 2794 1537 2939 
Q 1816 3084 2150 3084 
Q 2853 3084 3261 2657 
Q 3669 2231 3669 1497 
Q 3669 778 3244 343 
Q 2819 -91 2113 -91 
Q 1303 -91 875 529 
Q 447 1150 447 2328 
Q 447 3434 972 4092 
Q 1497 4750 2381 4750 
Q 2619 4750 2861 4703 
Q 3103 4656 3366 4563 
z
" transform="scale(0.015625)"/>
       </defs>
       <use xlink:href="#DejaVuSans-30"/>
       <use xlink:href="#DejaVuSans-2e" x="63.623047"/>
       <use xlink:href="#DejaVuSans-30" x="95.410156"/>
       <use xlink:href="#DejaVuSans-36" x="159.033203"/>
      </g>
     </g>
    </g>
    <g id="ytick_5">
     <g id="line2d_13">
      <g>
       <use xlink:href="#md5cae217f2" x="62.83" y="139.973974" style="stroke: #000000; stroke-width: 0.8"/>
      </g>
     </g>
     <g id="text_14">
      <!-- 0.08 -->
      <g transform="translate(20.205 146.052724) scale(0.16 -0.16)">
       <defs>
        <path id="DejaVuSans-38" d="M 2034 2216 
Q 1584 2216 1326 1975 
Q 1069 1734 1069 1313 
Q 1069 891 1326 650 
Q 1584 409 2034 409 
Q 2484 409 2743 651 
Q 3003 894 3003 1313 
Q 3003 1734 2745 1975 
Q 2488 2216 2034 2216 
z
M 1403 2484 
Q 997 2584 770 2862 
Q 544 3141 544 3541 
Q 544 4100 942 4425 
Q 1341 4750 2034 4750 
Q 2731 4750 3128 4425 
Q 3525 4100 3525 3541 
Q 3525 3141 3298 2862 
Q 3072 2584 2669 2484 
Q 3125 2378 3379 2068 
Q 3634 1759 3634 1313 
Q 3634 634 3220 271 
Q 2806 -91 2034 -91 
Q 1263 -91 848 271 
Q 434 634 434 1313 
Q 434 1759 690 2068 
Q 947 2378 1403 2484 
z
M 1172 3481 
Q 1172 3119 1398 2916 
Q 1625 2713 2034 2713 
Q 2441 2713 2670 2916 
Q 2900 3119 2900 3481 
Q 2900 3844 2670 4047 
Q 2441 4250 2034 4250 
Q 1625 4250 1398 4047 
Q 1172 3844 1172 3481 
z
" transform="scale(0.015625)"/>
       </defs>
       <use xlink:href="#DejaVuSans-30"/>
       <use xlink:href="#DejaVuSans-2e" x="63.623047"/>
       <use xlink:href="#DejaVuSans-30" x="95.410156"/>
       <use xlink:href="#DejaVuSans-38" x="159.033203"/>
      </g>
     </g>
    </g>
    <g id="ytick_6">
     <g id="line2d_14">
      <g>
       <use xlink:href="#md5cae217f2" x="62.83" y="100.137467" style="stroke: #000000; stroke-width: 0.8"/>
      </g>
     </g>
     <g id="text_15">
      <!-- 0.10 -->
      <g transform="translate(20.205 106.216217) scale(0.16 -0.16)">
       <use xlink:href="#DejaVuSans-30"/>
       <use xlink:href="#DejaVuSans-2e" x="63.623047"/>
       <use xlink:href="#DejaVuSans-31" x="95.410156"/>
       <use xlink:href="#DejaVuSans-30" x="159.033203"/>
      </g>
     </g>
    </g>
    <g id="ytick_7">
     <g id="line2d_15">
      <g>
       <use xlink:href="#md5cae217f2" x="62.83" y="60.300961" style="stroke: #000000; stroke-width: 0.8"/>
      </g>
     </g>
     <g id="text_16">
      <!-- 0.12 -->
      <g transform="translate(20.205 66.379711) scale(0.16 -0.16)">
       <use xlink:href="#DejaVuSans-30"/>
       <use xlink:href="#DejaVuSans-2e" x="63.623047"/>
       <use xlink:href="#DejaVuSans-31" x="95.410156"/>
       <use xlink:href="#DejaVuSans-32" x="159.033203"/>
      </g>
     </g>
    </g>
    <g id="ytick_8">
     <g id="line2d_16">
      <g>
       <use xlink:href="#md5cae217f2" x="62.83" y="20.464454" style="stroke: #000000; stroke-width: 0.8"/>
      </g>
     </g>
     <g id="text_17">
      <!-- 0.14 -->
      <g transform="translate(20.205 26.543204) scale(0.16 -0.16)">
       <use xlink:href="#DejaVuSans-30"/>
       <use xlink:href="#DejaVuSans-2e" x="63.623047"/>
       <use xlink:href="#DejaVuSans-31" x="95.410156"/>
       <use xlink:href="#DejaVuSans-34" x="159.033203"/>
      </g>
     </g>
    </g>
    <g id="text_18">
     <!-- Density -->
     <g transform="translate(12.8775 180.43375) rotate(-90) scale(0.16 -0.16)">
      <defs>
       <path id="DejaVuSans-44" d="M 1259 4147 
L 1259 519 
L 2022 519 
Q 2988 519 3436 956 
Q 3884 1394 3884 2338 
Q 3884 3275 3436 3711 
Q 2988 4147 2022 4147 
L 1259 4147 
z
M 628 4666 
L 1925 4666 
Q 3281 4666 3915 4102 
Q 4550 3538 4550 2338 
Q 4550 1131 3912 565 
Q 3275 0 1925 0 
L 628 0 
L 628 4666 
z
" transform="scale(0.015625)"/>
       <path id="DejaVuSans-6e" d="M 3513 2113 
L 3513 0 
L 2938 0 
L 2938 2094 
Q 2938 2591 2744 2837 
Q 2550 3084 2163 3084 
Q 1697 3084 1428 2787 
Q 1159 2491 1159 1978 
L 1159 0 
L 581 0 
L 581 3500 
L 1159 3500 
L 1159 2956 
Q 1366 3272 1645 3428 
Q 1925 3584 2291 3584 
Q 2894 3584 3203 3211 
Q 3513 2838 3513 2113 
z
" transform="scale(0.015625)"/>
       <path id="DejaVuSans-73" d="M 2834 3397 
L 2834 2853 
Q 2591 2978 2328 3040 
Q 2066 3103 1784 3103 
Q 1356 3103 1142 2972 
Q 928 2841 928 2578 
Q 928 2378 1081 2264 
Q 1234 2150 1697 2047 
L 1894 2003 
Q 2506 1872 2764 1633 
Q 3022 1394 3022 966 
Q 3022 478 2636 193 
Q 2250 -91 1575 -91 
Q 1294 -91 989 -36 
Q 684 19 347 128 
L 347 722 
Q 666 556 975 473 
Q 1284 391 1588 391 
Q 1994 391 2212 530 
Q 2431 669 2431 922 
Q 2431 1156 2273 1281 
Q 2116 1406 1581 1522 
L 1381 1569 
Q 847 1681 609 1914 
Q 372 2147 372 2553 
Q 372 3047 722 3315 
Q 1072 3584 1716 3584 
Q 2034 3584 2315 3537 
Q 2597 3491 2834 3397 
z
" transform="scale(0.015625)"/>
      </defs>
      <use xlink:href="#DejaVuSans-44"/>
      <use xlink:href="#DejaVuSans-65" x="77.001953"/>
      <use xlink:href="#DejaVuSans-6e" x="138.525391"/>
      <use xlink:href="#DejaVuSans-73" x="201.904297"/>
      <use xlink:href="#DejaVuSans-69" x="254.003906"/>
      <use xlink:href="#DejaVuSans-74" x="281.787109"/>
      <use xlink:href="#DejaVuSans-79" x="320.996094"/>
     </g>
    </g>
   </g>
   <g id="patch_104">
    <path d="M 62.83 299.32 
L 62.83 0.72 
" style="fill: none; stroke: #000000; stroke-width: 0.8; stroke-linejoin: miter; stroke-linecap: square"/>
   </g>
   <g id="patch_105">
    <path d="M 484.01 299.32 
L 484.01 0.72 
" style="fill: none; stroke: #000000; stroke-width: 0.8; stroke-linejoin: miter; stroke-linecap: square"/>
   </g>
   <g id="patch_106">
    <path d="M 62.83 299.32 
L 484.01 299.32 
" style="fill: none; stroke: #000000; stroke-width: 0.8; stroke-linejoin: miter; stroke-linecap: square"/>
   </g>
   <g id="patch_107">
    <path d="M 62.83 0.72 
L 484.01 0.72 
" style="fill: none; stroke: #000000; stroke-width: 0.8; stroke-linejoin: miter; stroke-linecap: square"/>
   </g>
   <g id="legend_1">
    <g id="patch_108">
     <path d="M 304.8175 258.1075 
L 336.8175 258.1075 
L 336.8175 246.9075 
L 304.8175 246.9075 
z
" style="fill: #43b02a; opacity: 0.4"/>
    </g>
    <g id="text_19">
     <!-- healthy donors -->
     <g transform="translate(349.6175 258.1075) scale(0.16 -0.16)">
      <defs>
       <path id="DejaVuSans-68" d="M 3513 2113 
L 3513 0 
L 2938 0 
L 2938 2094 
Q 2938 2591 2744 2837 
Q 2550 3084 2163 3084 
Q 1697 3084 1428 2787 
Q 1159 2491 1159 1978 
L 1159 0 
L 581 0 
L 581 4863 
L 1159 4863 
L 1159 2956 
Q 1366 3272 1645 3428 
Q 1925 3584 2291 3584 
Q 2894 3584 3203 3211 
Q 3513 2838 3513 2113 
z
" transform="scale(0.015625)"/>
       <path id="DejaVuSans-61" d="M 2194 1759 
Q 1497 1759 1228 1600 
Q 959 1441 959 1056 
Q 959 750 1161 570 
Q 1363 391 1709 391 
Q 2188 391 2477 730 
Q 2766 1069 2766 1631 
L 2766 1759 
L 2194 1759 
z
M 3341 1997 
L 3341 0 
L 2766 0 
L 2766 531 
Q 2569 213 2275 61 
Q 1981 -91 1556 -91 
Q 1019 -91 701 211 
Q 384 513 384 1019 
Q 384 1609 779 1909 
Q 1175 2209 1959 2209 
L 2766 2209 
L 2766 2266 
Q 2766 2663 2505 2880 
Q 2244 3097 1772 3097 
Q 1472 3097 1187 3025 
Q 903 2953 641 2809 
L 641 3341 
Q 956 3463 1253 3523 
Q 1550 3584 1831 3584 
Q 2591 3584 2966 3190 
Q 3341 2797 3341 1997 
z
" transform="scale(0.015625)"/>
       <path id="DejaVuSans-20" transform="scale(0.015625)"/>
       <path id="DejaVuSans-64" d="M 2906 2969 
L 2906 4863 
L 3481 4863 
L 3481 0 
L 2906 0 
L 2906 525 
Q 2725 213 2448 61 
Q 2172 -91 1784 -91 
Q 1150 -91 751 415 
Q 353 922 353 1747 
Q 353 2572 751 3078 
Q 1150 3584 1784 3584 
Q 2172 3584 2448 3432 
Q 2725 3281 2906 2969 
z
M 947 1747 
Q 947 1113 1208 752 
Q 1469 391 1925 391 
Q 2381 391 2643 752 
Q 2906 1113 2906 1747 
Q 2906 2381 2643 2742 
Q 2381 3103 1925 3103 
Q 1469 3103 1208 2742 
Q 947 2381 947 1747 
z
" transform="scale(0.015625)"/>
       <path id="DejaVuSans-6f" d="M 1959 3097 
Q 1497 3097 1228 2736 
Q 959 2375 959 1747 
Q 959 1119 1226 758 
Q 1494 397 1959 397 
Q 2419 397 2687 759 
Q 2956 1122 2956 1747 
Q 2956 2369 2687 2733 
Q 2419 3097 1959 3097 
z
M 1959 3584 
Q 2709 3584 3137 3096 
Q 3566 2609 3566 1747 
Q 3566 888 3137 398 
Q 2709 -91 1959 -91 
Q 1206 -91 779 398 
Q 353 888 353 1747 
Q 353 2609 779 3096 
Q 1206 3584 1959 3584 
z
" transform="scale(0.015625)"/>
      </defs>
      <use xlink:href="#DejaVuSans-68"/>
      <use xlink:href="#DejaVuSans-65" x="63.378906"/>
      <use xlink:href="#DejaVuSans-61" x="124.902344"/>
      <use xlink:href="#DejaVuSans-6c" x="186.181641"/>
      <use xlink:href="#DejaVuSans-74" x="213.964844"/>
      <use xlink:href="#DejaVuSans-68" x="253.173828"/>
      <use xlink:href="#DejaVuSans-79" x="316.552734"/>
      <use xlink:href="#DejaVuSans-20" x="375.732422"/>
      <use xlink:href="#DejaVuSans-64" x="407.519531"/>
      <use xlink:href="#DejaVuSans-6f" x="470.996094"/>
      <use xlink:href="#DejaVuSans-6e" x="532.177734"/>
      <use xlink:href="#DejaVuSans-6f" x="595.556641"/>
      <use xlink:href="#DejaVuSans-72" x="656.738281"/>
      <use xlink:href="#DejaVuSans-73" x="697.851562"/>
     </g>
    </g>
    <g id="patch_109">
     <path d="M 304.8175 281.5925 
L 336.8175 281.5925 
L 336.8175 270.3925 
L 304.8175 270.3925 
z
" style="fill: #005a86; opacity: 0.4"/>
    </g>
    <g id="text_20">
     <!-- bnAb donors -->
     <g transform="translate(349.6175 281.5925) scale(0.16 -0.16)">
      <defs>
       <path id="DejaVuSans-62" d="M 3116 1747 
Q 3116 2381 2855 2742 
Q 2594 3103 2138 3103 
Q 1681 3103 1420 2742 
Q 1159 2381 1159 1747 
Q 1159 1113 1420 752 
Q 1681 391 2138 391 
Q 2594 391 2855 752 
Q 3116 1113 3116 1747 
z
M 1159 2969 
Q 1341 3281 1617 3432 
Q 1894 3584 2278 3584 
Q 2916 3584 3314 3078 
Q 3713 2572 3713 1747 
Q 3713 922 3314 415 
Q 2916 -91 2278 -91 
Q 1894 -91 1617 61 
Q 1341 213 1159 525 
L 1159 0 
L 581 0 
L 581 4863 
L 1159 4863 
L 1159 2969 
z
" transform="scale(0.015625)"/>
       <path id="DejaVuSans-41" d="M 2188 4044 
L 1331 1722 
L 3047 1722 
L 2188 4044 
z
M 1831 4666 
L 2547 4666 
L 4325 0 
L 3669 0 
L 3244 1197 
L 1141 1197 
L 716 0 
L 50 0 
L 1831 4666 
z
" transform="scale(0.015625)"/>
      </defs>
      <use xlink:href="#DejaVuSans-62"/>
      <use xlink:href="#DejaVuSans-6e" x="63.476562"/>
      <use xlink:href="#DejaVuSans-41" x="126.855469"/>
      <use xlink:href="#DejaVuSans-62" x="195.263672"/>
      <use xlink:href="#DejaVuSans-20" x="258.740234"/>
      <use xlink:href="#DejaVuSans-64" x="290.527344"/>
      <use xlink:href="#DejaVuSans-6f" x="354.003906"/>
      <use xlink:href="#DejaVuSans-6e" x="415.185547"/>
      <use xlink:href="#DejaVuSans-6f" x="478.564453"/>
      <use xlink:href="#DejaVuSans-72" x="539.746094"/>
      <use xlink:href="#DejaVuSans-73" x="580.859375"/>
     </g>
    </g>
   </g>
  </g>
  <g id="axes_2">
   <g id="patch_110">
    <path d="M 307.538 128.16 
L 476.01 128.16 
L 476.01 8.72 
L 307.538 8.72 
z
" style="fill: #ffffff"/>
   </g>
   <g id="patch_111">
    <path d="M 202.703585 128.16 
L 223.023819 128.16 
L 223.023819 -212.898631 
L 202.703585 -212.898631 
z
" clip-path="url(#p03cc2b5b4a)" style="fill: #43b02a; opacity: 0.4"/>
   </g>
   <g id="patch_112">
    <path d="M 223.023819 128.16 
L 243.344054 128.16 
L 243.344054 -55.540944 
L 223.023819 -55.540944 
z
" clip-path="url(#p03cc2b5b4a)" style="fill: #43b02a; opacity: 0.4"/>
   </g>
   <g id="patch_113">
    <path d="M 243.344054 128.16 
L 263.664289 128.16 
L 263.664289 60.524341 
L 243.344054 60.524341 
z
" clip-path="url(#p03cc2b5b4a)" style="fill: #43b02a; opacity: 0.4"/>
   </g>
   <g id="patch_114">
    <path d="M 263.664289 128.16 
L 283.984524 128.16 
L 283.984524 97.796007 
L 263.664289 97.796007 
z
" clip-path="url(#p03cc2b5b4a)" style="fill: #43b02a; opacity: 0.4"/>
   </g>
   <g id="patch_115">
    <path d="M 283.984524 128.16 
L 304.304759 128.16 
L 304.304759 112.608472 
L 283.984524 112.608472 
z
" clip-path="url(#p03cc2b5b4a)" style="fill: #43b02a; opacity: 0.4"/>
   </g>
   <g id="patch_116">
    <path d="M 304.304759 128.16 
L 324.624994 128.16 
L 324.624994 119.499041 
L 304.304759 119.499041 
z
" clip-path="url(#p03cc2b5b4a)" style="fill: #43b02a; opacity: 0.4"/>
   </g>
   <g id="patch_117">
    <path d="M 324.624994 128.16 
L 344.945228 128.16 
L 344.945228 123.068328 
L 324.624994 123.068328 
z
" clip-path="url(#p03cc2b5b4a)" style="fill: #43b02a; opacity: 0.4"/>
   </g>
   <g id="patch_118">
    <path d="M 344.945228 128.16 
L 365.265463 128.16 
L 365.265463 124.967746 
L 344.945228 124.967746 
z
" clip-path="url(#p03cc2b5b4a)" style="fill: #43b02a; opacity: 0.4"/>
   </g>
   <g id="patch_119">
    <path d="M 365.265463 128.16 
L 385.585698 128.16 
L 385.585698 126.25398 
L 365.265463 126.25398 
z
" clip-path="url(#p03cc2b5b4a)" style="fill: #43b02a; opacity: 0.4"/>
   </g>
   <g id="patch_120">
    <path d="M 385.585698 128.16 
L 405.905933 128.16 
L 405.905933 127.041653 
L 385.585698 127.041653 
z
" clip-path="url(#p03cc2b5b4a)" style="fill: #43b02a; opacity: 0.4"/>
   </g>
   <g id="patch_121">
    <path d="M 405.905933 128.16 
L 426.226168 128.16 
L 426.226168 127.429189 
L 405.905933 127.429189 
z
" clip-path="url(#p03cc2b5b4a)" style="fill: #43b02a; opacity: 0.4"/>
   </g>
   <g id="patch_122">
    <path d="M 426.226168 128.16 
L 446.546403 128.16 
L 446.546403 127.709001 
L 426.226168 127.709001 
z
" clip-path="url(#p03cc2b5b4a)" style="fill: #43b02a; opacity: 0.4"/>
   </g>
   <g id="patch_123">
    <path d="M 446.546403 128.16 
L 466.866637 128.16 
L 466.866637 127.896842 
L 446.546403 127.896842 
z
" clip-path="url(#p03cc2b5b4a)" style="fill: #43b02a; opacity: 0.4"/>
   </g>
   <g id="patch_124">
    <path d="M 466.866637 128.16 
L 487.186872 128.16 
L 487.186872 128.002165 
L 466.866637 128.002165 
z
" clip-path="url(#p03cc2b5b4a)" style="fill: #43b02a; opacity: 0.4"/>
   </g>
   <g id="patch_125">
    <path d="M 487.186872 128.16 
L 507.507107 128.16 
L 507.507107 128.06713 
L 487.186872 128.06713 
z
" clip-path="url(#p03cc2b5b4a)" style="fill: #43b02a; opacity: 0.4"/>
   </g>
   <g id="patch_126">
    <path d="M 507.507107 128.16 
L 527.827342 128.16 
L 527.827342 128.110039 
L 507.507107 128.110039 
z
" clip-path="url(#p03cc2b5b4a)" style="fill: #43b02a; opacity: 0.4"/>
   </g>
   <g id="patch_127">
    <path d="M 527.827342 128.16 
L 548.147577 128.16 
L 548.147577 128.11409 
L 527.827342 128.11409 
z
" clip-path="url(#p03cc2b5b4a)" style="fill: #43b02a; opacity: 0.4"/>
   </g>
   <g id="patch_128">
    <path d="M 548.147577 128.16 
L 568.467812 128.16 
L 568.467812 128.137795 
L 548.147577 128.137795 
z
" clip-path="url(#p03cc2b5b4a)" style="fill: #43b02a; opacity: 0.4"/>
   </g>
   <g id="patch_129">
    <path d="M 568.467812 128.16 
L 588.788046 128.16 
L 588.788046 128.127443 
L 568.467812 128.127443 
z
" clip-path="url(#p03cc2b5b4a)" style="fill: #43b02a; opacity: 0.4"/>
   </g>
   <g id="patch_130">
    <path d="M 588.788046 128.16 
L 609.108281 128.16 
L 609.108281 128.151598 
L 588.788046 128.151598 
z
" clip-path="url(#p03cc2b5b4a)" style="fill: #43b02a; opacity: 0.4"/>
   </g>
   <g id="patch_131">
    <path d="M 609.108281 128.16 
L 629.428516 128.16 
L 629.428516 128.144247 
L 609.108281 128.144247 
z
" clip-path="url(#p03cc2b5b4a)" style="fill: #43b02a; opacity: 0.4"/>
   </g>
   <g id="patch_132">
    <path d="M 629.428516 128.16 
L 649.748751 128.16 
L 649.748751 128.156099 
L 629.428516 128.156099 
z
" clip-path="url(#p03cc2b5b4a)" style="fill: #43b02a; opacity: 0.4"/>
   </g>
   <g id="patch_133">
    <path d="M 649.748751 128.16 
L 670.068986 128.16 
L 670.068986 128.149798 
L 649.748751 128.149798 
z
" clip-path="url(#p03cc2b5b4a)" style="fill: #43b02a; opacity: 0.4"/>
   </g>
   <g id="patch_134">
    <path d="M 670.068986 128.16 
L 690.389221 128.16 
L 690.389221 128.155349 
L 670.068986 128.155349 
z
" clip-path="url(#p03cc2b5b4a)" style="fill: #43b02a; opacity: 0.4"/>
   </g>
   <g id="patch_135">
    <path d="M 690.389221 128.16 
L 710.709455 128.16 
L 710.709455 128.15955 
L 690.389221 128.15955 
z
" clip-path="url(#p03cc2b5b4a)" style="fill: #43b02a; opacity: 0.4"/>
   </g>
   <g id="patch_136">
    <path d="M 710.709455 128.16 
L 731.02969 128.16 
L 731.02969 128.15895 
L 710.709455 128.15895 
z
" clip-path="url(#p03cc2b5b4a)" style="fill: #43b02a; opacity: 0.4"/>
   </g>
   <g id="patch_137">
    <path d="M 731.02969 128.16 
L 751.349925 128.16 
L 751.349925 128.16 
L 731.02969 128.16 
z
" clip-path="url(#p03cc2b5b4a)" style="fill: #43b02a; opacity: 0.4"/>
   </g>
   <g id="patch_138">
    <path d="M 751.349925 128.16 
L 771.67016 128.16 
L 771.67016 128.16 
L 751.349925 128.16 
z
" clip-path="url(#p03cc2b5b4a)" style="fill: #43b02a; opacity: 0.4"/>
   </g>
   <g id="patch_139">
    <path d="M 771.67016 128.16 
L 791.990395 128.16 
L 791.990395 128.15895 
L 771.67016 128.15895 
z
" clip-path="url(#p03cc2b5b4a)" style="fill: #43b02a; opacity: 0.4"/>
   </g>
   <g id="patch_140">
    <path d="M 791.990395 128.16 
L 812.31063 128.16 
L 812.31063 128.15985 
L 791.990395 128.15985 
z
" clip-path="url(#p03cc2b5b4a)" style="fill: #43b02a; opacity: 0.4"/>
   </g>
   <g id="patch_141">
    <path d="M 812.31063 128.16 
L 832.630864 128.16 
L 832.630864 128.16 
L 812.31063 128.16 
z
" clip-path="url(#p03cc2b5b4a)" style="fill: #43b02a; opacity: 0.4"/>
   </g>
   <g id="patch_142">
    <path d="M 832.630864 128.16 
L 852.951099 128.16 
L 852.951099 128.16 
L 832.630864 128.16 
z
" clip-path="url(#p03cc2b5b4a)" style="fill: #43b02a; opacity: 0.4"/>
   </g>
   <g id="patch_143">
    <path d="M 852.951099 128.16 
L 873.271334 128.16 
L 873.271334 128.16 
L 852.951099 128.16 
z
" clip-path="url(#p03cc2b5b4a)" style="fill: #43b02a; opacity: 0.4"/>
   </g>
   <g id="patch_144">
    <path d="M 873.271334 128.16 
L 893.591569 128.16 
L 893.591569 128.1597 
L 873.271334 128.1597 
z
" clip-path="url(#p03cc2b5b4a)" style="fill: #43b02a; opacity: 0.4"/>
   </g>
   <g id="patch_145">
    <path d="M 893.591569 128.16 
L 913.911804 128.16 
L 913.911804 128.16 
L 893.591569 128.16 
z
" clip-path="url(#p03cc2b5b4a)" style="fill: #43b02a; opacity: 0.4"/>
   </g>
   <g id="patch_146">
    <path d="M 913.911804 128.16 
L 934.232039 128.16 
L 934.232039 128.16 
L 913.911804 128.16 
z
" clip-path="url(#p03cc2b5b4a)" style="fill: #43b02a; opacity: 0.4"/>
   </g>
   <g id="patch_147">
    <path d="M 934.232039 128.16 
L 954.552273 128.16 
L 954.552273 128.16 
L 934.232039 128.16 
z
" clip-path="url(#p03cc2b5b4a)" style="fill: #43b02a; opacity: 0.4"/>
   </g>
   <g id="patch_148">
    <path d="M 954.552273 128.16 
L 974.872508 128.16 
L 974.872508 128.16 
L 954.552273 128.16 
z
" clip-path="url(#p03cc2b5b4a)" style="fill: #43b02a; opacity: 0.4"/>
   </g>
   <g id="patch_149">
    <path d="M 974.872508 128.16 
L 995.192743 128.16 
L 995.192743 128.16 
L 974.872508 128.16 
z
" clip-path="url(#p03cc2b5b4a)" style="fill: #43b02a; opacity: 0.4"/>
   </g>
   <g id="patch_150">
    <path d="M 995.192743 128.16 
L 1015.512978 128.16 
L 1015.512978 128.16 
L 995.192743 128.16 
z
" clip-path="url(#p03cc2b5b4a)" style="fill: #43b02a; opacity: 0.4"/>
   </g>
   <g id="patch_151">
    <path d="M 1015.512978 128.16 
L 1035.833213 128.16 
L 1035.833213 128.15985 
L 1015.512978 128.15985 
z
" clip-path="url(#p03cc2b5b4a)" style="fill: #43b02a; opacity: 0.4"/>
   </g>
   <g id="patch_152">
    <path d="M 1035.833213 128.16 
L 1056.153448 128.16 
L 1056.153448 128.16 
L 1035.833213 128.16 
z
" clip-path="url(#p03cc2b5b4a)" style="fill: #43b02a; opacity: 0.4"/>
   </g>
   <g id="patch_153">
    <path d="M 1056.153448 128.16 
L 1076.473682 128.16 
L 1076.473682 128.16 
L 1056.153448 128.16 
z
" clip-path="url(#p03cc2b5b4a)" style="fill: #43b02a; opacity: 0.4"/>
   </g>
   <g id="patch_154">
    <path d="M 1076.473682 128.16 
L 1096.793917 128.16 
L 1096.793917 128.16 
L 1076.473682 128.16 
z
" clip-path="url(#p03cc2b5b4a)" style="fill: #43b02a; opacity: 0.4"/>
   </g>
   <g id="patch_155">
    <path d="M 1096.793917 128.16 
L 1117.114152 128.16 
L 1117.114152 128.16 
L 1096.793917 128.16 
z
" clip-path="url(#p03cc2b5b4a)" style="fill: #43b02a; opacity: 0.4"/>
   </g>
   <g id="patch_156">
    <path d="M 1117.114152 128.16 
L 1137.434387 128.16 
L 1137.434387 128.16 
L 1117.114152 128.16 
z
" clip-path="url(#p03cc2b5b4a)" style="fill: #43b02a; opacity: 0.4"/>
   </g>
   <g id="patch_157">
    <path d="M 1137.434387 128.16 
L 1157.754622 128.16 
L 1157.754622 128.16 
L 1137.434387 128.16 
z
" clip-path="url(#p03cc2b5b4a)" style="fill: #43b02a; opacity: 0.4"/>
   </g>
   <g id="patch_158">
    <path d="M 1157.754622 128.16 
L 1178.074856 128.16 
L 1178.074856 128.15985 
L 1157.754622 128.15985 
z
" clip-path="url(#p03cc2b5b4a)" style="fill: #43b02a; opacity: 0.4"/>
   </g>
   <g id="patch_159">
    <path d="M 1178.074856 128.16 
L 1198.395091 128.16 
L 1198.395091 128.16 
L 1178.074856 128.16 
z
" clip-path="url(#p03cc2b5b4a)" style="fill: #43b02a; opacity: 0.4"/>
   </g>
   <g id="patch_160">
    <path d="M 1198.395091 128.16 
L 1218.715326 128.16 
L 1218.715326 128.15985 
L 1198.395091 128.15985 
z
" clip-path="url(#p03cc2b5b4a)" style="fill: #43b02a; opacity: 0.4"/>
   </g>
   <g id="patch_161">
    <path d="M 202.211145 128.16 
L 217.075405 128.16 
L 217.075405 -199.802191 
L 202.211145 -199.802191 
z
" clip-path="url(#p03cc2b5b4a)" style="fill: #005a86; opacity: 0.4"/>
   </g>
   <g id="patch_162">
    <path d="M 217.075405 128.16 
L 231.939666 128.16 
L 231.939666 -161.145437 
L 217.075405 -161.145437 
z
" clip-path="url(#p03cc2b5b4a)" style="fill: #005a86; opacity: 0.4"/>
   </g>
   <g id="patch_163">
    <path d="M 231.939666 128.16 
L 246.803926 128.16 
L 246.803926 0.235025 
L 231.939666 0.235025 
z
" clip-path="url(#p03cc2b5b4a)" style="fill: #005a86; opacity: 0.4"/>
   </g>
   <g id="patch_164">
    <path d="M 246.803926 128.16 
L 261.668186 128.16 
L 261.668186 64.847777 
L 246.803926 64.847777 
z
" clip-path="url(#p03cc2b5b4a)" style="fill: #005a86; opacity: 0.4"/>
   </g>
   <g id="patch_165">
    <path d="M 261.668186 128.16 
L 276.532446 128.16 
L 276.532446 94.669897 
L 261.668186 94.669897 
z
" clip-path="url(#p03cc2b5b4a)" style="fill: #005a86; opacity: 0.4"/>
   </g>
   <g id="patch_166">
    <path d="M 276.532446 128.16 
L 291.396707 128.16 
L 291.396707 108.21778 
L 276.532446 108.21778 
z
" clip-path="url(#p03cc2b5b4a)" style="fill: #005a86; opacity: 0.4"/>
   </g>
   <g id="patch_167">
    <path d="M 291.396707 128.16 
L 306.260967 128.16 
L 306.260967 115.232013 
L 291.396707 115.232013 
z
" clip-path="url(#p03cc2b5b4a)" style="fill: #005a86; opacity: 0.4"/>
   </g>
   <g id="patch_168">
    <path d="M 306.260967 128.16 
L 321.125227 128.16 
L 321.125227 119.679592 
L 306.260967 119.679592 
z
" clip-path="url(#p03cc2b5b4a)" style="fill: #005a86; opacity: 0.4"/>
   </g>
   <g id="patch_169">
    <path d="M 321.125227 128.16 
L 335.989487 128.16 
L 335.989487 122.323973 
L 321.125227 122.323973 
z
" clip-path="url(#p03cc2b5b4a)" style="fill: #005a86; opacity: 0.4"/>
   </g>
   <g id="patch_170">
    <path d="M 335.989487 128.16 
L 350.853748 128.16 
L 350.853748 124.160301 
L 335.989487 124.160301 
z
" clip-path="url(#p03cc2b5b4a)" style="fill: #005a86; opacity: 0.4"/>
   </g>
   <g id="patch_171">
    <path d="M 350.853748 128.16 
L 365.718008 128.16 
L 365.718008 125.437894 
L 350.853748 125.437894 
z
" clip-path="url(#p03cc2b5b4a)" style="fill: #005a86; opacity: 0.4"/>
   </g>
   <g id="patch_172">
    <path d="M 365.718008 128.16 
L 380.582268 128.16 
L 380.582268 126.227258 
L 365.718008 126.227258 
z
" clip-path="url(#p03cc2b5b4a)" style="fill: #005a86; opacity: 0.4"/>
   </g>
   <g id="patch_173">
    <path d="M 380.582268 128.16 
L 395.446529 128.16 
L 395.446529 126.981157 
L 380.582268 126.981157 
z
" clip-path="url(#p03cc2b5b4a)" style="fill: #005a86; opacity: 0.4"/>
   </g>
   <g id="patch_174">
    <path d="M 395.446529 128.16 
L 410.310789 128.16 
L 410.310789 127.15827 
L 395.446529 127.15827 
z
" clip-path="url(#p03cc2b5b4a)" style="fill: #005a86; opacity: 0.4"/>
   </g>
   <g id="patch_175">
    <path d="M 410.310789 128.16 
L 425.175049 128.16 
L 425.175049 127.453883 
L 410.310789 127.453883 
z
" clip-path="url(#p03cc2b5b4a)" style="fill: #005a86; opacity: 0.4"/>
   </g>
   <g id="patch_176">
    <path d="M 425.175049 128.16 
L 440.039309 128.16 
L 440.039309 127.620166 
L 425.175049 127.620166 
z
" clip-path="url(#p03cc2b5b4a)" style="fill: #005a86; opacity: 0.4"/>
   </g>
   <g id="patch_177">
    <path d="M 440.039309 128.16 
L 454.90357 128.16 
L 454.90357 127.816392 
L 440.039309 127.816392 
z
" clip-path="url(#p03cc2b5b4a)" style="fill: #005a86; opacity: 0.4"/>
   </g>
   <g id="patch_178">
    <path d="M 454.90357 128.16 
L 469.76783 128.16 
L 469.76783 127.895392 
L 454.90357 127.895392 
z
" clip-path="url(#p03cc2b5b4a)" style="fill: #005a86; opacity: 0.4"/>
   </g>
   <g id="patch_179">
    <path d="M 469.76783 128.16 
L 484.63209 128.16 
L 484.63209 127.984798 
L 469.76783 127.984798 
z
" clip-path="url(#p03cc2b5b4a)" style="fill: #005a86; opacity: 0.4"/>
   </g>
   <g id="patch_180">
    <path d="M 484.63209 128.16 
L 499.496351 128.16 
L 499.496351 128.023661 
L 484.63209 128.023661 
z
" clip-path="url(#p03cc2b5b4a)" style="fill: #005a86; opacity: 0.4"/>
   </g>
   <g id="patch_181">
    <path d="M 499.496351 128.16 
L 514.360611 128.16 
L 514.360611 128.093529 
L 499.496351 128.093529 
z
" clip-path="url(#p03cc2b5b4a)" style="fill: #005a86; opacity: 0.4"/>
   </g>
   <g id="patch_182">
    <path d="M 514.360611 128.16 
L 529.224871 128.16 
L 529.224871 128.102661 
L 514.360611 128.102661 
z
" clip-path="url(#p03cc2b5b4a)" style="fill: #005a86; opacity: 0.4"/>
   </g>
   <g id="patch_183">
    <path d="M 529.224871 128.16 
L 544.089131 128.16 
L 544.089131 128.122624 
L 529.224871 128.122624 
z
" clip-path="url(#p03cc2b5b4a)" style="fill: #005a86; opacity: 0.4"/>
   </g>
   <g id="patch_184">
    <path d="M 544.089131 128.16 
L 558.953392 128.16 
L 558.953392 128.120712 
L 544.089131 128.120712 
z
" clip-path="url(#p03cc2b5b4a)" style="fill: #005a86; opacity: 0.4"/>
   </g>
   <g id="patch_185">
    <path d="M 558.953392 128.16 
L 573.817652 128.16 
L 573.817652 128.129632 
L 558.953392 128.129632 
z
" clip-path="url(#p03cc2b5b4a)" style="fill: #005a86; opacity: 0.4"/>
   </g>
   <g id="patch_186">
    <path d="M 573.817652 128.16 
L 588.681912 128.16 
L 588.681912 128.146196 
L 573.817652 128.146196 
z
" clip-path="url(#p03cc2b5b4a)" style="fill: #005a86; opacity: 0.4"/>
   </g>
   <g id="patch_187">
    <path d="M 588.681912 128.16 
L 603.546172 128.16 
L 603.546172 128.139401 
L 588.681912 128.139401 
z
" clip-path="url(#p03cc2b5b4a)" style="fill: #005a86; opacity: 0.4"/>
   </g>
   <g id="patch_188">
    <path d="M 603.546172 128.16 
L 618.410433 128.16 
L 618.410433 128.148957 
L 603.546172 128.148957 
z
" clip-path="url(#p03cc2b5b4a)" style="fill: #005a86; opacity: 0.4"/>
   </g>
   <g id="patch_189">
    <path d="M 618.410433 128.16 
L 633.274693 128.16 
L 633.274693 128.148108 
L 618.410433 128.148108 
z
" clip-path="url(#p03cc2b5b4a)" style="fill: #005a86; opacity: 0.4"/>
   </g>
   <g id="patch_190">
    <path d="M 633.274693 128.16 
L 648.138953 128.16 
L 648.138953 128.152992 
L 633.274693 128.152992 
z
" clip-path="url(#p03cc2b5b4a)" style="fill: #005a86; opacity: 0.4"/>
   </g>
   <g id="patch_191">
    <path d="M 648.138953 128.16 
L 663.003214 128.16 
L 663.003214 128.157664 
L 648.138953 128.157664 
z
" clip-path="url(#p03cc2b5b4a)" style="fill: #005a86; opacity: 0.4"/>
   </g>
   <g id="patch_192">
    <path d="M 663.003214 128.16 
L 677.867474 128.16 
L 677.867474 128.156177 
L 663.003214 128.156177 
z
" clip-path="url(#p03cc2b5b4a)" style="fill: #005a86; opacity: 0.4"/>
   </g>
   <g id="patch_193">
    <path d="M 677.867474 128.16 
L 692.731734 128.16 
L 692.731734 128.158726 
L 677.867474 128.158726 
z
" clip-path="url(#p03cc2b5b4a)" style="fill: #005a86; opacity: 0.4"/>
   </g>
   <g id="patch_194">
    <path d="M 692.731734 128.16 
L 707.595994 128.16 
L 707.595994 128.16 
L 692.731734 128.16 
z
" clip-path="url(#p03cc2b5b4a)" style="fill: #005a86; opacity: 0.4"/>
   </g>
   <g id="patch_195">
    <path d="M 707.595994 128.16 
L 722.460255 128.16 
L 722.460255 128.159575 
L 707.595994 128.159575 
z
" clip-path="url(#p03cc2b5b4a)" style="fill: #005a86; opacity: 0.4"/>
   </g>
   <g id="patch_196">
    <path d="M 722.460255 128.16 
L 737.324515 128.16 
L 737.324515 128.158938 
L 722.460255 128.158938 
z
" clip-path="url(#p03cc2b5b4a)" style="fill: #005a86; opacity: 0.4"/>
   </g>
   <g id="patch_197">
    <path d="M 737.324515 128.16 
L 752.188775 128.16 
L 752.188775 128.16 
L 737.324515 128.16 
z
" clip-path="url(#p03cc2b5b4a)" style="fill: #005a86; opacity: 0.4"/>
   </g>
   <g id="patch_198">
    <path d="M 752.188775 128.16 
L 767.053035 128.16 
L 767.053035 128.16 
L 752.188775 128.16 
z
" clip-path="url(#p03cc2b5b4a)" style="fill: #005a86; opacity: 0.4"/>
   </g>
   <g id="patch_199">
    <path d="M 767.053035 128.16 
L 781.917296 128.16 
L 781.917296 128.158938 
L 767.053035 128.158938 
z
" clip-path="url(#p03cc2b5b4a)" style="fill: #005a86; opacity: 0.4"/>
   </g>
   <g id="patch_200">
    <path d="M 781.917296 128.16 
L 796.781556 128.16 
L 796.781556 128.16 
L 781.917296 128.16 
z
" clip-path="url(#p03cc2b5b4a)" style="fill: #005a86; opacity: 0.4"/>
   </g>
   <g id="patch_201">
    <path d="M 796.781556 128.16 
L 811.645816 128.16 
L 811.645816 128.16 
L 796.781556 128.16 
z
" clip-path="url(#p03cc2b5b4a)" style="fill: #005a86; opacity: 0.4"/>
   </g>
   <g id="patch_202">
    <path d="M 811.645816 128.16 
L 826.510077 128.16 
L 826.510077 128.159788 
L 811.645816 128.159788 
z
" clip-path="url(#p03cc2b5b4a)" style="fill: #005a86; opacity: 0.4"/>
   </g>
   <g id="patch_203">
    <path d="M 826.510077 128.16 
L 841.374337 128.16 
L 841.374337 128.16 
L 826.510077 128.16 
z
" clip-path="url(#p03cc2b5b4a)" style="fill: #005a86; opacity: 0.4"/>
   </g>
   <g id="patch_204">
    <path d="M 841.374337 128.16 
L 856.238597 128.16 
L 856.238597 128.159788 
L 841.374337 128.159788 
z
" clip-path="url(#p03cc2b5b4a)" style="fill: #005a86; opacity: 0.4"/>
   </g>
   <g id="patch_205">
    <path d="M 856.238597 128.16 
L 871.102857 128.16 
L 871.102857 128.159788 
L 856.238597 128.159788 
z
" clip-path="url(#p03cc2b5b4a)" style="fill: #005a86; opacity: 0.4"/>
   </g>
   <g id="patch_206">
    <path d="M 871.102857 128.16 
L 885.967118 128.16 
L 885.967118 128.16 
L 871.102857 128.16 
z
" clip-path="url(#p03cc2b5b4a)" style="fill: #005a86; opacity: 0.4"/>
   </g>
   <g id="patch_207">
    <path d="M 885.967118 128.16 
L 900.831378 128.16 
L 900.831378 128.16 
L 885.967118 128.16 
z
" clip-path="url(#p03cc2b5b4a)" style="fill: #005a86; opacity: 0.4"/>
   </g>
   <g id="patch_208">
    <path d="M 900.831378 128.16 
L 915.695638 128.16 
L 915.695638 128.157239 
L 900.831378 128.157239 
z
" clip-path="url(#p03cc2b5b4a)" style="fill: #005a86; opacity: 0.4"/>
   </g>
   <g id="patch_209">
    <path d="M 915.695638 128.16 
L 930.559899 128.16 
L 930.559899 128.16 
L 915.695638 128.16 
z
" clip-path="url(#p03cc2b5b4a)" style="fill: #005a86; opacity: 0.4"/>
   </g>
   <g id="patch_210">
    <path d="M 930.559899 128.16 
L 945.424159 128.16 
L 945.424159 128.159788 
L 930.559899 128.159788 
z
" clip-path="url(#p03cc2b5b4a)" style="fill: #005a86; opacity: 0.4"/>
   </g>
   <g id="patch_211">
    <path d="M 307.538 8.72 
L 121.648455 199.728734 
" style="fill: none; stroke: #808080; stroke-linejoin: miter"/>
   </g>
   <g id="patch_212">
    <path d="M 476.01 128.16 
L 185.107513 299.32 
" style="fill: none; stroke: #808080; stroke-linejoin: miter"/>
   </g>
   <g id="matplotlib.axis_3">
    <g id="xtick_9">
     <g id="line2d_17">
      <g>
       <use xlink:href="#ma9d3757bc6" x="307.538" y="128.16" style="stroke: #000000; stroke-width: 0.8"/>
      </g>
     </g>
     <g id="text_21">
      <!-- 20 -->
      <g transform="translate(297.358 147.3175) scale(0.16 -0.16)">
       <use xlink:href="#DejaVuSans-32"/>
       <use xlink:href="#DejaVuSans-30" x="63.623047"/>
      </g>
     </g>
    </g>
    <g id="xtick_10">
     <g id="line2d_18">
      <g>
       <use xlink:href="#ma9d3757bc6" x="363.695333" y="128.16" style="stroke: #000000; stroke-width: 0.8"/>
      </g>
     </g>
     <g id="text_22">
      <!-- 30 -->
      <g transform="translate(353.515333 147.3175) scale(0.16 -0.16)">
       <defs>
        <path id="DejaVuSans-33" d="M 2597 2516 
Q 3050 2419 3304 2112 
Q 3559 1806 3559 1356 
Q 3559 666 3084 287 
Q 2609 -91 1734 -91 
Q 1441 -91 1130 -33 
Q 819 25 488 141 
L 488 750 
Q 750 597 1062 519 
Q 1375 441 1716 441 
Q 2309 441 2620 675 
Q 2931 909 2931 1356 
Q 2931 1769 2642 2001 
Q 2353 2234 1838 2234 
L 1294 2234 
L 1294 2753 
L 1863 2753 
Q 2328 2753 2575 2939 
Q 2822 3125 2822 3475 
Q 2822 3834 2567 4026 
Q 2313 4219 1838 4219 
Q 1578 4219 1281 4162 
Q 984 4106 628 3988 
L 628 4550 
Q 988 4650 1302 4700 
Q 1616 4750 1894 4750 
Q 2613 4750 3031 4423 
Q 3450 4097 3450 3541 
Q 3450 3153 3228 2886 
Q 3006 2619 2597 2516 
z
" transform="scale(0.015625)"/>
       </defs>
       <use xlink:href="#DejaVuSans-33"/>
       <use xlink:href="#DejaVuSans-30" x="63.623047"/>
      </g>
     </g>
    </g>
    <g id="xtick_11">
     <g id="line2d_19">
      <g>
       <use xlink:href="#ma9d3757bc6" x="419.852667" y="128.16" style="stroke: #000000; stroke-width: 0.8"/>
      </g>
     </g>
     <g id="text_23">
      <!-- 40 -->
      <g transform="translate(409.672667 147.3175) scale(0.16 -0.16)">
       <use xlink:href="#DejaVuSans-34"/>
       <use xlink:href="#DejaVuSans-30" x="63.623047"/>
      </g>
     </g>
    </g>
   </g>
   <g id="matplotlib.axis_4">
    <g id="ytick_9">
     <g id="line2d_20">
      <g>
       <use xlink:href="#md5cae217f2" x="307.538" y="104.272" style="stroke: #000000; stroke-width: 0.8"/>
      </g>
     </g>
     <g id="text_24">
      <!-- 0.01 -->
      <g transform="translate(264.913 110.35075) scale(0.16 -0.16)">
       <use xlink:href="#DejaVuSans-30"/>
       <use xlink:href="#DejaVuSans-2e" x="63.623047"/>
       <use xlink:href="#DejaVuSans-30" x="95.410156"/>
       <use xlink:href="#DejaVuSans-31" x="159.033203"/>
      </g>
     </g>
    </g>
    <g id="ytick_10">
     <g id="line2d_21">
      <g>
       <use xlink:href="#md5cae217f2" x="307.538" y="56.496" style="stroke: #000000; stroke-width: 0.8"/>
      </g>
     </g>
     <g id="text_25">
      <!-- 0.03 -->
      <g transform="translate(264.913 62.57475) scale(0.16 -0.16)">
       <use xlink:href="#DejaVuSans-30"/>
       <use xlink:href="#DejaVuSans-2e" x="63.623047"/>
       <use xlink:href="#DejaVuSans-30" x="95.410156"/>
       <use xlink:href="#DejaVuSans-33" x="159.033203"/>
      </g>
     </g>
    </g>
    <g id="ytick_11">
     <g id="line2d_22">
      <g>
       <use xlink:href="#md5cae217f2" x="307.538" y="8.72" style="stroke: #000000; stroke-width: 0.8"/>
      </g>
     </g>
     <g id="text_26">
      <!-- 0.05 -->
      <g transform="translate(264.913 14.79875) scale(0.16 -0.16)">
       <use xlink:href="#DejaVuSans-30"/>
       <use xlink:href="#DejaVuSans-2e" x="63.623047"/>
       <use xlink:href="#DejaVuSans-30" x="95.410156"/>
       <use xlink:href="#DejaVuSans-35" x="159.033203"/>
      </g>
     </g>
    </g>
   </g>
   <g id="patch_213">
    <path d="M 307.538 128.16 
L 307.538 8.72 
" style="fill: none; stroke: #000000; stroke-width: 0.8; stroke-linejoin: miter; stroke-linecap: square"/>
   </g>
   <g id="patch_214">
    <path d="M 476.01 128.16 
L 476.01 8.72 
" style="fill: none; stroke: #000000; stroke-width: 0.8; stroke-linejoin: miter; stroke-linecap: square"/>
   </g>
   <g id="patch_215">
    <path d="M 307.538 128.16 
L 476.01 128.16 
" style="fill: none; stroke: #000000; stroke-width: 0.8; stroke-linejoin: miter; stroke-linecap: square"/>
   </g>
   <g id="patch_216">
    <path d="M 307.538 8.72 
L 476.01 8.72 
" style="fill: none; stroke: #000000; stroke-width: 0.8; stroke-linejoin: miter; stroke-linecap: square"/>
   </g>
  </g>
 </g>
 <defs>
  <clipPath id="pf7489c3d95">
   <rect x="62.83" y="0.72" width="421.18" height="298.6"/>
  </clipPath>
  <clipPath id="p03cc2b5b4a">
   <rect x="307.538" y="8.72" width="168.472" height="119.44"/>
  </clipPath>
 </defs>
</svg>
